<svg xmlns="http://www.w3.org/2000/svg" fill="none" viewBox="0 0 1275 549">
  <path stroke="#71717A" stroke-dasharray="4 4" d="M801.705 487.654h252.585c16.57 0 30-13.432 30-30v-87.688M801.623 210.231h183.775M801.623 349.713h183.775">
    <animate attributeName="stroke-dashoffset" dur="2s" repeatCount="indefinite" values="40;0"/>
  </path>
  <rect width="801.56" height="122.396" x=".063" y=".094" fill="#18181B" rx="8"/>
  <rect width="801.56" height="122.396" x=".063" y="142.214" fill="#18181B" rx="8"/>
  <rect width="801.56" height="122.396" x=".063" y="426.456" fill="#18181B" rx="8"/>
  <path fill="#FAFAFA" d="m129.305 54.707-6.111-14.805h2.856l4.431 11.298 4.41-11.298h2.793l-6.111 14.805h-2.268Zm10.237-12.894v-2.415h2.73v2.415h-2.73Zm.105 12.789V43.514h2.541v11.088h-2.541Zm9.663.21c-1.575 0-3.318-.567-4.704-1.66l1.134-1.721c1.197.903 2.499 1.365 3.633 1.365 1.092 0 1.722-.462 1.722-1.197v-.042c0-.861-1.176-1.155-2.478-1.554-1.638-.462-3.465-1.134-3.465-3.255v-.042c0-2.1 1.743-3.381 3.948-3.381 1.386 0 2.898.483 4.074 1.26l-1.008 1.806c-1.071-.651-2.205-1.05-3.129-1.05-.987 0-1.554.462-1.554 1.113v.042c0 .798 1.197 1.134 2.499 1.554 1.617.504 3.444 1.239 3.444 3.234v.042c0 2.33-1.806 3.486-4.116 3.486Zm6.741-13v-2.414h2.73v2.415h-2.73Zm.105 12.79V43.514h2.541v11.088h-2.541Zm12.162.23c-1.827 0-2.982-.923-3.759-1.952v1.722h-2.541v-15.33h2.541v6.09c.819-1.155 1.974-2.08 3.759-2.08 2.625 0 5.166 2.08 5.166 5.755v.042c0 3.675-2.52 5.754-5.166 5.754Zm-.588-2.204c1.743 0 3.171-1.365 3.171-3.55v-.041c0-2.142-1.449-3.55-3.171-3.55-1.722 0-3.234 1.429-3.234 3.55v.042c0 2.142 1.512 3.549 3.234 3.549Zm8.503 1.974v-15.33h2.541v15.33h-2.541Zm10.944.252c-3.213 0-5.691-2.331-5.691-5.754v-.042c0-3.171 2.247-5.775 5.418-5.775 3.528 0 5.313 2.772 5.313 5.964 0 .23-.021.462-.042.714h-8.148c.273 1.806 1.554 2.814 3.192 2.814 1.239 0 2.121-.462 3.003-1.323l1.491 1.323c-1.05 1.26-2.499 2.079-4.536 2.079Zm-3.171-6.573h5.691c-.168-1.638-1.134-2.92-2.814-2.92-1.554 0-2.646 1.198-2.877 2.92Zm16.093 6.32 6.468-14.804h2.394l6.468 14.805h-2.73l-1.491-3.55h-6.951l-1.512 3.55h-2.646Zm5.103-5.837h5.061l-2.541-5.88-2.52 5.88Zm12.895 5.838v-14.7h2.583v14.7h-2.583Zm12.961 0v-14.7h2.583v14.7h-2.583Zm6.224 0V43.514h2.541v1.722c.714-1.05 1.743-1.953 3.465-1.953 2.499 0 3.948 1.68 3.948 4.263v7.056h-2.541v-6.3c0-1.722-.861-2.71-2.373-2.71-1.47 0-2.499 1.03-2.499 2.752v6.258h-2.541Zm19.322.23c-1.827 0-2.982-.923-3.759-1.952v1.722h-2.541v-15.33h2.541v6.09c.819-1.155 1.974-2.08 3.759-2.08 2.625 0 5.166 2.08 5.166 5.755v.042c0 3.675-2.52 5.754-5.166 5.754Zm-.588-2.204c1.743 0 3.171-1.365 3.171-3.55v-.041c0-2.142-1.449-3.55-3.171-3.55-1.722 0-3.234 1.429-3.234 3.55v.042c0 2.142 1.512 3.549 3.234 3.549Zm13.627 2.226c-3.381 0-5.88-2.583-5.88-5.733v-.042c0-3.171 2.52-5.796 5.922-5.796 3.402 0 5.901 2.583 5.901 5.754v.042c0 3.15-2.52 5.775-5.943 5.775Zm.042-2.205c2.058 0 3.36-1.617 3.36-3.528v-.042c0-1.953-1.407-3.57-3.402-3.57-2.037 0-3.339 1.596-3.339 3.528v.042c0 1.932 1.407 3.57 3.381 3.57Zm6.785 1.953 4.074-5.628-3.927-5.46h2.772l2.562 3.654 2.562-3.654h2.709l-3.927 5.397 4.095 5.69h-2.772l-2.73-3.884-2.709 3.885h-2.709ZM127.988 81.14c-1.776 0-3.232-.591-4.576-1.791l.784-.928c1.168 1.056 2.288 1.584 3.84 1.584 1.504 0 2.496-.8 2.496-1.904v-.032c0-1.04-.56-1.632-2.912-2.128-2.576-.56-3.76-1.392-3.76-3.232v-.032c0-1.76 1.552-3.056 3.68-3.056 1.632 0 2.8.464 3.936 1.376l-.736.976c-1.04-.848-2.08-1.216-3.232-1.216-1.456 0-2.384.8-2.384 1.808v.032c0 1.056.576 1.648 3.04 2.176 2.496.544 3.648 1.456 3.648 3.168v.032c0 1.92-1.6 3.168-3.824 3.168Zm6.923-3.791c.176 1.744 1.456 2.752 2.912 2.752 1.136 0 1.936-.464 2.608-1.168l.768.688c-.832.928-1.84 1.552-3.408 1.552-2.272 0-4.128-1.744-4.128-4.32 0-2.4 1.68-4.32 3.968-4.32 2.448 0 3.856 1.952 3.856 4.384 0 .112 0 .24-.016.432h-6.56Zm0-.992h5.328c-.144-1.504-1.008-2.784-2.64-2.784-1.424 0-2.512 1.184-2.688 2.784Zm8.733 4.624v-8.272h1.232v1.44c.544-.896 1.408-1.616 2.832-1.616 2 0 3.168 1.344 3.168 3.312v5.136h-1.232v-4.832c0-1.536-.832-2.496-2.288-2.496-1.424 0-2.48 1.04-2.48 2.592v4.736h-1.232Zm13.331.176c-1.984 0-3.952-1.568-3.952-4.288v-.032c0-2.704 1.968-4.304 3.952-4.304 1.536 0 2.528.832 3.168 1.76V69.3h1.232v11.68h-1.232v-1.664c-.672.992-1.648 1.84-3.168 1.84Zm.224-1.104c1.536 0 2.992-1.296 2.992-3.2v-.032c0-1.904-1.456-3.184-2.992-3.184-1.6 0-2.912 1.184-2.912 3.184v.032c0 1.952 1.344 3.2 2.912 3.2Zm14.766 1.104c-2 0-3.168-1.344-3.168-3.312v-5.136h1.232v4.832c0 1.536.832 2.496 2.288 2.496 1.408 0 2.48-1.04 2.48-2.592v-4.736h1.216v8.272h-1.216v-1.44c-.56.896-1.408 1.616-2.832 1.616Zm6.819-.176v-8.272h1.232v1.44c.544-.896 1.408-1.616 2.832-1.616 2 0 3.168 1.344 3.168 3.312v5.136h-1.232v-4.832c0-1.536-.832-2.496-2.288-2.496-1.424 0-2.48 1.04-2.48 2.592v4.736h-1.232Zm12.596.16c-1.184 0-2.496-.464-3.424-1.216l.624-.88c.896.672 1.888 1.056 2.864 1.056.992 0 1.712-.512 1.712-1.312v-.032c0-.832-.976-1.152-2.064-1.456-1.296-.368-2.736-.816-2.736-2.336v-.032c0-1.424 1.184-2.368 2.816-2.368 1.008 0 2.128.352 2.976.912l-.56.928c-.768-.496-1.648-.8-2.448-.8-.976 0-1.6.512-1.6 1.2v.032c0 .784 1.024 1.088 2.128 1.424 1.28.384 2.656.88 2.656 2.368v.032c0 1.568-1.296 2.48-2.944 2.48Zm7.844-.016c-1.328 0-2.336-.656-2.336-2.336v-4.992h-1.152v-1.088h1.152v-2.496h1.232v2.496h2.624v1.088h-2.624v4.832c0 1.008.56 1.376 1.392 1.376.416 0 .768-.08 1.2-.288v1.056a3.099 3.099 0 0 1-1.488.352Zm3.701-.144v-8.272h1.232v2.16c.608-1.376 1.808-2.368 3.376-2.304v1.328h-.096c-1.808 0-3.28 1.296-3.28 3.792v3.296h-1.232Zm9.524.176c-2 0-3.168-1.344-3.168-3.312v-5.136h1.232v4.832c0 1.536.832 2.496 2.288 2.496 1.408 0 2.48-1.04 2.48-2.592v-4.736h1.216v8.272h-1.216v-1.44c-.56.896-1.408 1.616-2.832 1.616Zm10.548.016c-2.416 0-4.24-1.968-4.24-4.288v-.032c0-2.336 1.824-4.32 4.24-4.32 1.568 0 2.544.656 3.312 1.472l-.816.864c-.656-.688-1.392-1.248-2.512-1.248-1.68 0-2.96 1.424-2.96 3.2v.032c0 1.792 1.312 3.216 3.04 3.216 1.056 0 1.872-.528 2.528-1.232l.784.736c-.832.928-1.824 1.6-3.376 1.6Zm8.18-.048c-1.328 0-2.336-.656-2.336-2.336v-4.992h-1.152v-1.088h1.152v-2.496h1.232v2.496h2.624v1.088h-2.624v4.832c0 1.008.56 1.376 1.392 1.376.416 0 .768-.08 1.2-.288v1.056a3.099 3.099 0 0 1-1.488.352Zm6.741.032c-2 0-3.168-1.344-3.168-3.312v-5.136h1.232v4.832c0 1.536.832 2.496 2.288 2.496 1.408 0 2.48-1.04 2.48-2.592v-4.736h1.216v8.272h-1.216v-1.44c-.56.896-1.408 1.616-2.832 1.616Zm6.819-.176v-8.272h1.232v2.16c.608-1.376 1.808-2.368 3.376-2.304v1.328h-.096c-1.808 0-3.28 1.296-3.28 3.792v3.296h-1.232Zm6.861-3.632c.176 1.744 1.456 2.752 2.912 2.752 1.136 0 1.936-.464 2.608-1.168l.768.688c-.832.928-1.84 1.552-3.408 1.552-2.272 0-4.128-1.744-4.128-4.32 0-2.4 1.68-4.32 3.968-4.32 2.448 0 3.856 1.952 3.856 4.384 0 .112 0 .24-.016.432h-6.56Zm0-.992h5.328c-.144-1.504-1.008-2.784-2.64-2.784-1.424 0-2.512 1.184-2.688 2.784Zm12.205 4.8c-1.984 0-3.952-1.568-3.952-4.288v-.032c0-2.704 1.968-4.304 3.952-4.304 1.536 0 2.528.832 3.168 1.76V69.3h1.232v11.68h-1.232v-1.664c-.672.992-1.648 1.84-3.168 1.84Zm.224-1.104c1.536 0 2.992-1.296 2.992-3.2v-.032c0-1.904-1.456-3.184-2.992-3.184-1.6 0-2.912 1.184-2.912 3.184v.032c0 1.952 1.344 3.2 2.912 3.2Zm15.198 1.104c-1.984 0-3.952-1.568-3.952-4.288v-.032c0-2.704 1.968-4.304 3.952-4.304 1.536 0 2.528.832 3.168 1.76V69.3h1.232v11.68h-1.232v-1.664c-.672.992-1.648 1.84-3.168 1.84Zm.224-1.104c1.536 0 2.992-1.296 2.992-3.2v-.032c0-1.904-1.456-3.184-2.992-3.184-1.6 0-2.912 1.184-2.912 3.184v.032c0 1.952 1.344 3.2 2.912 3.2Zm9.393 1.104c-1.552 0-3.088-.88-3.088-2.576v-.032c0-1.776 1.44-2.704 3.536-2.704 1.056 0 1.792.144 2.528.352v-.256c0-1.472-.896-2.24-2.448-2.24-.976 0-1.744.24-2.512.592l-.368-1.008c.912-.416 1.792-.704 3.008-.704 1.168 0 2.08.32 2.672.912.576.576.864 1.376.864 2.432v5.056h-1.216v-1.232c-.576.736-1.52 1.408-2.976 1.408Zm.24-.992c1.52 0 2.752-.912 2.752-2.224v-.768a8.504 8.504 0 0 0-2.416-.352c-1.536 0-2.416.672-2.416 1.664v.032c0 1.04.96 1.648 2.08 1.648Zm9.251.96c-1.328 0-2.336-.656-2.336-2.336v-4.992h-1.152v-1.088h1.152v-2.496h1.232v2.496h2.624v1.088h-2.624v4.832c0 1.008.56 1.376 1.392 1.376.416 0 .768-.08 1.2-.288v1.056a3.099 3.099 0 0 1-1.488.352Zm6.165.032c-1.552 0-3.088-.88-3.088-2.576v-.032c0-1.776 1.44-2.704 3.536-2.704 1.056 0 1.792.144 2.528.352v-.256c0-1.472-.896-2.24-2.448-2.24-.976 0-1.744.24-2.512.592l-.368-1.008c.912-.416 1.792-.704 3.008-.704 1.168 0 2.08.32 2.672.912.576.576.864 1.376.864 2.432v5.056h-1.216v-1.232c-.576.736-1.52 1.408-2.976 1.408Zm.24-.992c1.52 0 2.752-.912 2.752-2.224v-.768a8.504 8.504 0 0 0-2.416-.352c-1.536 0-2.416.672-2.416 1.664v.032c0 1.04.96 1.648 2.08 1.648Zm14.127.96c-1.328 0-2.336-.656-2.336-2.336v-4.992h-1.152v-1.088h1.152v-2.496h1.232v2.496h2.624v1.088h-2.624v4.832c0 1.008.56 1.376 1.392 1.376.416 0 .768-.08 1.2-.288v1.056a3.099 3.099 0 0 1-1.488.352Zm7.242.048c-2.48 0-4.288-1.952-4.288-4.288v-.032c0-2.336 1.824-4.32 4.32-4.32 2.48 0 4.304 1.952 4.304 4.288v.032c0 2.336-1.84 4.32-4.336 4.32Zm.032-1.104c1.792 0 3.04-1.44 3.04-3.184v-.032c0-1.776-1.328-3.232-3.072-3.232-1.792 0-3.024 1.456-3.024 3.2v.032c0 1.776 1.312 3.216 3.056 3.216Zm15.397.992-4.816-11.28h1.408l3.984 9.648 4-9.648h1.36l-4.816 11.28h-1.12Zm7.655-10.16v-1.36h1.408v1.36h-1.408Zm.08 10.08v-8.272h1.232v8.272h-1.232Zm6.827.16c-1.184 0-2.496-.464-3.424-1.216l.624-.88c.896.672 1.888 1.056 2.864 1.056.992 0 1.712-.512 1.712-1.312v-.032c0-.832-.976-1.152-2.064-1.456-1.296-.368-2.736-.816-2.736-2.336v-.032c0-1.424 1.184-2.368 2.816-2.368 1.008 0 2.128.352 2.976.912l-.56.928c-.768-.496-1.648-.8-2.448-.8-.976 0-1.6.512-1.6 1.2v.032c0 .784 1.024 1.088 2.128 1.424 1.28.384 2.656.88 2.656 2.368v.032c0 1.568-1.296 2.48-2.944 2.48Zm5.265-10.24v-1.36h1.408v1.36h-1.408Zm.08 10.08v-8.272h1.232v8.272h-1.232Zm8.491.176c-1.536 0-2.528-.832-3.168-1.76v1.584h-1.232V69.3h1.232v5.072c.672-.992 1.648-1.84 3.168-1.84 1.984 0 3.952 1.568 3.952 4.288v.032c0 2.704-1.952 4.304-3.952 4.304Zm-.224-1.104c1.6 0 2.912-1.184 2.912-3.184v-.032c0-1.952-1.344-3.2-2.912-3.2-1.536 0-2.992 1.296-2.992 3.184v.032c0 1.92 1.456 3.2 2.992 3.2Zm6.561.928V69.3h1.232v11.68h-1.232Zm4.827-3.632c.176 1.744 1.456 2.752 2.912 2.752 1.136 0 1.936-.464 2.608-1.168l.768.688c-.832.928-1.84 1.552-3.408 1.552-2.272 0-4.128-1.744-4.128-4.32 0-2.4 1.68-4.32 3.968-4.32 2.448 0 3.856 1.952 3.856 4.384 0 .112 0 .24-.016.432h-6.56Zm0-.992h5.328c-.144-1.504-1.008-2.784-2.64-2.784-1.424 0-2.512 1.184-2.688 2.784Zm12.778 4.624 5.104-11.28h1.184l5.104 11.28h-1.36l-1.312-2.96H396.5l-1.328 2.96h-1.296Zm3.12-4.096h5.104l-2.544-5.712-2.56 5.712Zm10.593 4.096v-11.2h1.264v11.2h-1.264Zm9.453 0v-11.2h1.264v11.2h-1.264Zm4.336 0v-8.272h1.232v1.44c.544-.896 1.408-1.616 2.832-1.616 2 0 3.168 1.344 3.168 3.312v5.136h-1.232v-4.832c0-1.536-.832-2.496-2.288-2.496-1.424 0-2.48 1.04-2.48 2.592v4.736h-1.232Zm14.259.176c-1.536 0-2.528-.832-3.168-1.76v1.584h-1.232V69.3h1.232v5.072c.672-.992 1.648-1.84 3.168-1.84 1.984 0 3.952 1.568 3.952 4.288v.032c0 2.704-1.952 4.304-3.952 4.304Zm-.224-1.104c1.6 0 2.912-1.184 2.912-3.184v-.032c0-1.952-1.344-3.2-2.912-3.2-1.536 0-2.992 1.296-2.992 3.184v.032c0 1.92 1.456 3.2 2.992 3.2Zm10.225 1.12c-2.48 0-4.288-1.952-4.288-4.288v-.032c0-2.336 1.824-4.32 4.32-4.32 2.48 0 4.304 1.952 4.304 4.288v.032c0 2.336-1.84 4.32-4.336 4.32Zm.032-1.104c1.792 0 3.04-1.44 3.04-3.184v-.032c0-1.776-1.328-3.232-3.072-3.232-1.792 0-3.024 1.456-3.024 3.2v.032c0 1.776 1.312 3.216 3.056 3.216Zm5.222.912 3.248-4.208-3.12-4.064h1.408l2.448 3.2 2.448-3.2h1.376l-3.136 4.032 3.264 4.24h-1.424l-2.56-3.376-2.576 3.376h-1.376Zm9.795 0V79.3h1.472v1.68h-1.472Zm12.207.08-4-11.28h1.376l3.2 9.328 3.072-9.36h1.04l3.072 9.36 3.2-9.328h1.328l-4 11.28h-1.072l-3.072-9.088-3.088 9.088h-1.056Zm14.064-3.712c.176 1.744 1.456 2.752 2.912 2.752 1.136 0 1.936-.464 2.608-1.168l.768.688c-.832.928-1.84 1.552-3.408 1.552-2.272 0-4.128-1.744-4.128-4.32 0-2.4 1.68-4.32 3.968-4.32 2.448 0 3.856 1.952 3.856 4.384 0 .112 0 .24-.016.432h-6.56Zm0-.992h5.328c-.144-1.504-1.008-2.784-2.64-2.784-1.424 0-2.512 1.184-2.688 2.784Zm8.364-2.944-.192-.56c.8-.288 1.136-.704 1.072-1.392h-.576v-1.68h1.472v1.44c0 1.296-.56 1.92-1.776 2.192Zm4.402 7.568V69.3h1.232v11.68h-1.232Zm4.203 0V69.3h1.232v11.68h-1.232Zm8.888 0V69.3h1.232v4.848c.544-.896 1.408-1.616 2.832-1.616 2 0 3.168 1.344 3.168 3.312v5.136h-1.232v-4.832c0-1.536-.832-2.496-2.288-2.496-1.424 0-2.48 1.04-2.48 2.592v4.736h-1.232Zm12.324.176c-1.552 0-3.088-.88-3.088-2.576v-.032c0-1.776 1.44-2.704 3.536-2.704 1.056 0 1.792.144 2.528.352v-.256c0-1.472-.896-2.24-2.448-2.24-.976 0-1.744.24-2.512.592l-.368-1.008c.912-.416 1.792-.704 3.008-.704 1.168 0 2.08.32 2.672.912.576.576.864 1.376.864 2.432v5.056h-1.216v-1.232c-.576.736-1.52 1.408-2.976 1.408Zm.24-.992c1.52 0 2.752-.912 2.752-2.224v-.768a8.504 8.504 0 0 0-2.416-.352c-1.536 0-2.416.672-2.416 1.664v.032c0 1.04.96 1.648 2.08 1.648Zm6.561.816v-8.272h1.232v1.44c.544-.896 1.408-1.616 2.832-1.616 2 0 3.168 1.344 3.168 3.312v5.136h-1.232v-4.832c0-1.536-.832-2.496-2.288-2.496-1.424 0-2.48 1.04-2.48 2.592v4.736h-1.232Zm13.332.176c-1.984 0-3.952-1.568-3.952-4.288v-.032c0-2.704 1.968-4.304 3.952-4.304 1.536 0 2.528.832 3.168 1.76V69.3h1.232v11.68h-1.232v-1.664c-.672.992-1.648 1.84-3.168 1.84Zm.224-1.104c1.536 0 2.992-1.296 2.992-3.2v-.032c0-1.904-1.456-3.184-2.992-3.184-1.6 0-2.912 1.184-2.912 3.184v.032c0 1.952 1.344 3.2 2.912 3.2Zm7.041.928V69.3h1.232v11.68h-1.232Zm4.827-3.632c.176 1.744 1.456 2.752 2.912 2.752 1.136 0 1.936-.464 2.608-1.168l.768.688c-.832.928-1.84 1.552-3.408 1.552-2.272 0-4.128-1.744-4.128-4.32 0-2.4 1.68-4.32 3.968-4.32 2.448 0 3.856 1.952 3.856 4.384 0 .112 0 .24-.016.432h-6.56Zm0-.992h5.328c-.144-1.504-1.008-2.784-2.64-2.784-1.424 0-2.512 1.184-2.688 2.784Zm16.298 4.768c-1.328 0-2.336-.656-2.336-2.336v-4.992h-1.152v-1.088h1.152v-2.496h1.232v2.496h2.624v1.088h-2.624v4.832c0 1.008.56 1.376 1.392 1.376.416 0 .768-.08 1.2-.288v1.056a3.099 3.099 0 0 1-1.488.352Zm3.7-.144V69.3h1.232v4.848c.544-.896 1.408-1.616 2.832-1.616 2 0 3.168 1.344 3.168 3.312v5.136h-1.232v-4.832c0-1.536-.832-2.496-2.288-2.496-1.424 0-2.48 1.04-2.48 2.592v4.736h-1.232Zm10.596-3.632c.176 1.744 1.456 2.752 2.912 2.752 1.136 0 1.936-.464 2.608-1.168l.768.688c-.832.928-1.84 1.552-3.408 1.552-2.272 0-4.128-1.744-4.128-4.32 0-2.4 1.68-4.32 3.968-4.32 2.448 0 3.856 1.952 3.856 4.384 0 .112 0 .24-.016.432h-6.56Zm0-.992h5.328c-.144-1.504-1.008-2.784-2.64-2.784-1.424 0-2.512 1.184-2.688 2.784Zm13.529 4.624v-8.272h1.232v2.16c.608-1.376 1.808-2.368 3.376-2.304v1.328h-.096c-1.808 0-3.28 1.296-3.28 3.792v3.296h-1.232Zm6.861-3.632c.176 1.744 1.456 2.752 2.912 2.752 1.136 0 1.936-.464 2.608-1.168l.768.688c-.832.928-1.84 1.552-3.408 1.552-2.272 0-4.128-1.744-4.128-4.32 0-2.4 1.68-4.32 3.968-4.32 2.448 0 3.856 1.952 3.856 4.384 0 .112 0 .24-.016.432h-6.56Zm0-.992h5.328c-.144-1.504-1.008-2.784-2.64-2.784-1.424 0-2.512 1.184-2.688 2.784Zm11.469 4.784c-1.184 0-2.496-.464-3.424-1.216l.624-.88c.896.672 1.888 1.056 2.864 1.056.992 0 1.712-.512 1.712-1.312v-.032c0-.832-.976-1.152-2.064-1.456-1.296-.368-2.736-.816-2.736-2.336v-.032c0-1.424 1.184-2.368 2.816-2.368 1.008 0 2.128.352 2.976.912l-.56.928c-.768-.496-1.648-.8-2.448-.8-.976 0-1.6.512-1.6 1.2v.032c0 .784 1.024 1.088 2.128 1.424 1.28.384 2.656.88 2.656 2.368v.032c0 1.568-1.296 2.48-2.944 2.48Zm7.845-.016c-1.328 0-2.336-.656-2.336-2.336v-4.992h-1.152v-1.088h1.152v-2.496h1.232v2.496h2.624v1.088h-2.624v4.832c0 1.008.56 1.376 1.392 1.376.416 0 .768-.08 1.2-.288v1.056a3.099 3.099 0 0 1-1.488.352Zm3.556-.144V79.3h1.472v1.68h-1.472Z"/>
  <rect width="60" height="60" x="42.623" y="31.291" stroke="url(#a)" stroke-width="2" rx="7"/>
  <path fill="url(#b)" fill-rule="evenodd" d="M57.623 75.98h30V62.854h-1.875v11.25h-26.25v-26.25h11.25V45.98H57.623v30Zm30-26.25h-3.75v-3.75h-1.875v3.75h-3.75v1.875h3.75v3.75h1.875v-3.75h3.75V49.73ZM74.03 66.603h-1.874l-.58-1.875h-4.48l-.564 1.875h-1.874l3.278-10.312h2.813l3.282 10.312Zm-4.843-8.822-1.526 5.072h3.335l-1.569-5.075-.24.002Zm6.25 6.948v1.874h3.75V64.73h-.938v-6.563h.938v-1.875h-3.75v1.875h.937v6.563h-.938Zm10.312-7.5h1.875v1.875h-1.875V57.23Zm-9.376-11.25h-1.875v1.875h1.875V45.98Z" clip-rule="evenodd"/>
  <path fill="#FAFAFA" d="M129.599 196.933c-2.247 0-4.368-.777-6.132-2.352l1.554-1.848c1.407 1.218 2.814 1.911 4.641 1.911 1.596 0 2.604-.735 2.604-1.848v-.042c0-1.05-.588-1.617-3.318-2.247-3.129-.756-4.893-1.68-4.893-4.389v-.042c0-2.52 2.1-4.263 5.019-4.263 2.142 0 3.843.651 5.334 1.848l-1.386 1.953c-1.323-.987-2.646-1.512-3.99-1.512-1.512 0-2.394.777-2.394 1.743v.042c0 1.134.672 1.638 3.486 2.31 3.108.756 4.725 1.869 4.725 4.305v.042c0 2.751-2.163 4.389-5.25 4.389Zm7.994 3.15v-14.448h2.541v1.848c.819-1.155 1.974-2.079 3.759-2.079 2.625 0 5.166 2.079 5.166 5.754v.042c0 3.675-2.52 5.754-5.166 5.754-1.827 0-2.982-.924-3.759-1.953v5.082h-2.541Zm5.712-5.334c1.743 0 3.171-1.365 3.171-3.549v-.042c0-2.142-1.449-3.549-3.171-3.549-1.722 0-3.234 1.428-3.234 3.549v.042c0 2.142 1.512 3.549 3.234 3.549Zm8.356 1.974v-11.088h2.541v2.499c.693-1.659 1.974-2.793 3.927-2.709v2.688h-.147c-2.226 0-3.78 1.449-3.78 4.389v4.221h-2.541Zm13.388.252c-3.213 0-5.691-2.331-5.691-5.754v-.042c0-3.171 2.247-5.775 5.418-5.775 3.528 0 5.313 2.772 5.313 5.964 0 .231-.021.462-.042.714h-8.148c.273 1.806 1.554 2.814 3.192 2.814 1.239 0 2.121-.462 3.003-1.323l1.491 1.323c-1.05 1.26-2.499 2.079-4.536 2.079Zm-3.171-6.573h5.691c-.168-1.638-1.134-2.919-2.814-2.919-1.554 0-2.646 1.197-2.877 2.919Zm20.066 6.321h-2.52v-1.365c-.756.903-1.911 1.596-3.591 1.596-2.1 0-3.948-1.197-3.948-3.423v-.042c0-2.457 1.911-3.633 4.494-3.633 1.344 0 2.205.189 3.066.462v-.21c0-1.533-.966-2.373-2.73-2.373-1.239 0-2.163.273-3.171.693l-.693-2.037c1.218-.546 2.415-.924 4.221-.924 3.276 0 4.872 1.722 4.872 4.683v6.573Zm-2.457-4.011v-.63c-.651-.252-1.554-.441-2.541-.441-1.596 0-2.541.651-2.541 1.722v.042c0 1.05.945 1.638 2.142 1.638 1.68 0 2.94-.945 2.94-2.331Zm10.057 4.242c-2.604 0-5.145-2.079-5.145-5.754v-.042c0-3.675 2.499-5.754 5.145-5.754 1.827 0 2.982.924 3.78 1.953v-5.964h2.541v15.33h-2.541v-1.848c-.819 1.155-1.974 2.079-3.78 2.079Zm.609-2.205c1.701 0 3.213-1.428 3.213-3.549v-.042c0-2.142-1.512-3.549-3.213-3.549-1.743 0-3.192 1.344-3.192 3.549v.042c0 2.142 1.47 3.549 3.192 3.549Zm12.682 2.184c-1.575 0-3.318-.567-4.704-1.659l1.134-1.722c1.197.903 2.499 1.365 3.633 1.365 1.092 0 1.722-.462 1.722-1.197v-.042c0-.861-1.176-1.155-2.478-1.554-1.638-.462-3.465-1.134-3.465-3.255v-.042c0-2.1 1.743-3.381 3.948-3.381 1.386 0 2.898.483 4.074 1.26l-1.008 1.806c-1.071-.651-2.205-1.05-3.129-1.05-.987 0-1.554.462-1.554 1.113v.042c0 .798 1.197 1.134 2.499 1.554 1.617.504 3.444 1.239 3.444 3.234v.042c0 2.331-1.806 3.486-4.116 3.486Zm6.699-.21v-15.33h2.541v5.964c.714-1.05 1.743-1.953 3.465-1.953 2.499 0 3.948 1.68 3.948 4.263v7.056h-2.541v-6.3c0-1.722-.861-2.709-2.373-2.709-1.47 0-2.499 1.029-2.499 2.751v6.258h-2.541Zm18.105.252c-3.213 0-5.691-2.331-5.691-5.754v-.042c0-3.171 2.247-5.775 5.418-5.775 3.528 0 5.313 2.772 5.313 5.964 0 .231-.021.462-.042.714h-8.148c.273 1.806 1.554 2.814 3.192 2.814 1.239 0 2.121-.462 3.003-1.323l1.491 1.323c-1.05 1.26-2.499 2.079-4.536 2.079Zm-3.171-6.573h5.691c-.168-1.638-1.134-2.919-2.814-2.919-1.554 0-2.646 1.197-2.877 2.919Zm15.845 6.573c-3.213 0-5.691-2.331-5.691-5.754v-.042c0-3.171 2.247-5.775 5.418-5.775 3.528 0 5.313 2.772 5.313 5.964 0 .231-.021.462-.042.714h-8.148c.273 1.806 1.554 2.814 3.192 2.814 1.239 0 2.121-.462 3.003-1.323l1.491 1.323c-1.05 1.26-2.499 2.079-4.536 2.079Zm-3.171-6.573h5.691c-.168-1.638-1.134-2.919-2.814-2.919-1.554 0-2.646 1.197-2.877 2.919Zm14.48 6.51c-1.869 0-3.192-.819-3.192-3.255v-5.838h-1.407v-2.184h1.407v-3.045h2.541v3.045h2.982v2.184h-2.982v5.439c0 .987.504 1.386 1.365 1.386.567 0 1.071-.126 1.575-.378v2.079c-.63.357-1.344.567-2.289.567Zm8.697.021c-1.575 0-3.318-.567-4.704-1.659l1.134-1.722c1.197.903 2.499 1.365 3.633 1.365 1.092 0 1.722-.462 1.722-1.197v-.042c0-.861-1.176-1.155-2.478-1.554-1.638-.462-3.465-1.134-3.465-3.255v-.042c0-2.1 1.743-3.381 3.948-3.381 1.386 0 2.898.483 4.074 1.26l-1.008 1.806c-1.071-.651-2.205-1.05-3.129-1.05-.987 0-1.554.462-1.554 1.113v.042c0 .798 1.197 1.134 2.499 1.554 1.617.504 3.444 1.239 3.444 3.234v.042c0 2.331-1.806 3.486-4.116 3.486Zm-136.171 26.169v-11.2h3.888c3.52 0 5.952 2.416 5.952 5.568v.032c0 3.152-2.432 5.6-5.952 5.6h-3.888Zm1.264-1.168h2.624c2.832 0 4.64-1.92 4.64-4.4v-.032c0-2.48-1.808-4.432-4.64-4.432h-2.624v8.864Zm11.076-8.912v-1.36h1.408v1.36h-1.408Zm.08 10.08v-8.272h1.232v8.272h-1.232Zm4.091 0v-8.272h1.232v2.16c.608-1.376 1.808-2.368 3.376-2.304v1.328h-.096c-1.808 0-3.28 1.296-3.28 3.792v3.296h-1.232Zm6.861-3.632c.176 1.744 1.456 2.752 2.912 2.752 1.136 0 1.936-.464 2.608-1.168l.768.688c-.832.928-1.84 1.552-3.408 1.552-2.272 0-4.128-1.744-4.128-4.32 0-2.4 1.68-4.32 3.968-4.32 2.448 0 3.856 1.952 3.856 4.384 0 .112 0 .24-.016.432h-6.56Zm0-.992h5.328c-.144-1.504-1.008-2.784-2.64-2.784-1.424 0-2.512 1.184-2.688 2.784Zm12.461 4.816c-2.416 0-4.24-1.968-4.24-4.288v-.032c0-2.336 1.824-4.32 4.24-4.32 1.568 0 2.544.656 3.312 1.472l-.816.864c-.656-.688-1.392-1.248-2.512-1.248-1.68 0-2.96 1.424-2.96 3.2v.032c0 1.792 1.312 3.216 3.04 3.216 1.056 0 1.872-.528 2.528-1.232l.784.736c-.832.928-1.824 1.6-3.376 1.6Zm8.181-.048c-1.328 0-2.336-.656-2.336-2.336v-4.992h-1.152v-1.088h1.152v-2.496h1.232v2.496h2.624v1.088h-2.624v4.832c0 1.008.56 1.376 1.392 1.376.416 0 .768-.08 1.2-.288v1.056a3.099 3.099 0 0 1-1.488.352Zm3.812-.144v-11.68h1.232v11.68h-1.232Zm5.371 2.608c-.688 0-1.2-.144-1.76-.416l.416-.976c.4.208.768.304 1.296.304.736 0 1.2-.384 1.696-1.552l-3.76-8.24h1.36l3.008 6.896 2.656-6.896h1.312l-3.472 8.544c-.704 1.712-1.504 2.336-2.752 2.336Zm16.698-2.416c-2.416 0-4.24-1.968-4.24-4.288v-.032c0-2.336 1.824-4.32 4.24-4.32 1.568 0 2.544.656 3.312 1.472l-.816.864c-.656-.688-1.392-1.248-2.512-1.248-1.68 0-2.96 1.424-2.96 3.2v.032c0 1.792 1.312 3.216 3.04 3.216 1.056 0 1.872-.528 2.528-1.232l.784.736c-.832.928-1.824 1.6-3.376 1.6Zm8.955 0c-2.48 0-4.288-1.952-4.288-4.288v-.032c0-2.336 1.824-4.32 4.32-4.32 2.48 0 4.304 1.952 4.304 4.288v.032c0 2.336-1.84 4.32-4.336 4.32Zm.032-1.104c1.792 0 3.04-1.44 3.04-3.184v-.032c0-1.776-1.328-3.232-3.072-3.232-1.792 0-3.024 1.456-3.024 3.2v.032c0 1.776 1.312 3.216 3.056 3.216Zm6.535.912v-8.272h1.232v1.44c.544-.896 1.408-1.616 2.832-1.616 2 0 3.168 1.344 3.168 3.312v5.136h-1.232v-4.832c0-1.536-.832-2.496-2.288-2.496-1.424 0-2.48 1.04-2.48 2.592v4.736h-1.232Zm9.86 0v-8.272h1.232v1.44c.544-.896 1.408-1.616 2.832-1.616 2 0 3.168 1.344 3.168 3.312v5.136h-1.232v-4.832c0-1.536-.832-2.496-2.288-2.496-1.424 0-2.48 1.04-2.48 2.592v4.736h-1.232Zm10.595-3.632c.176 1.744 1.456 2.752 2.912 2.752 1.136 0 1.936-.464 2.608-1.168l.768.688c-.832.928-1.84 1.552-3.408 1.552-2.272 0-4.128-1.744-4.128-4.32 0-2.4 1.68-4.32 3.968-4.32 2.448 0 3.856 1.952 3.856 4.384 0 .112 0 .24-.016.432h-6.56Zm0-.992h5.328c-.144-1.504-1.008-2.784-2.64-2.784-1.424 0-2.512 1.184-2.688 2.784Zm12.461 4.816c-2.416 0-4.24-1.968-4.24-4.288v-.032c0-2.336 1.824-4.32 4.24-4.32 1.568 0 2.544.656 3.312 1.472l-.816.864c-.656-.688-1.392-1.248-2.512-1.248-1.68 0-2.96 1.424-2.96 3.2v.032c0 1.792 1.312 3.216 3.04 3.216 1.056 0 1.872-.528 2.528-1.232l.784.736c-.832.928-1.824 1.6-3.376 1.6Zm8.181-.048c-1.328 0-2.336-.656-2.336-2.336v-4.992h-1.152v-1.088h1.152v-2.496h1.232v2.496h2.624v1.088h-2.624v4.832c0 1.008.56 1.376 1.392 1.376.416 0 .768-.08 1.2-.288v1.056a3.099 3.099 0 0 1-1.488.352Zm9.233-3.776c.176 1.744 1.456 2.752 2.912 2.752 1.136 0 1.936-.464 2.608-1.168l.768.688c-.832.928-1.84 1.552-3.408 1.552-2.272 0-4.128-1.744-4.128-4.32 0-2.4 1.68-4.32 3.968-4.32 2.448 0 3.856 1.952 3.856 4.384 0 .112 0 .24-.016.432h-6.56Zm0-.992h5.328c-.144-1.504-1.008-2.784-2.64-2.784-1.424 0-2.512 1.184-2.688 2.784Zm7.497 4.624 3.248-4.208-3.12-4.064h1.408l2.448 3.2 2.448-3.2h1.376l-3.136 4.032 3.264 4.24h-1.424l-2.56-3.376-2.576 3.376h-1.376Zm9.971-10.08v-1.36h1.408v1.36h-1.408Zm.08 10.08v-8.272h1.232v8.272h-1.232Zm6.827.16c-1.184 0-2.496-.464-3.424-1.216l.624-.88c.896.672 1.888 1.056 2.864 1.056.992 0 1.712-.512 1.712-1.312v-.032c0-.832-.976-1.152-2.064-1.456-1.296-.368-2.736-.816-2.736-2.336v-.032c0-1.424 1.184-2.368 2.816-2.368 1.008 0 2.128.352 2.976.912l-.56.928c-.768-.496-1.648-.8-2.448-.8-.976 0-1.6.512-1.6 1.2v.032c0 .784 1.024 1.088 2.128 1.424 1.28.384 2.656.88 2.656 2.368v.032c0 1.568-1.296 2.48-2.944 2.48Zm7.845-.016c-1.328 0-2.336-.656-2.336-2.336v-4.992h-1.152v-1.088h1.152v-2.496h1.232v2.496h2.624v1.088h-2.624v4.832c0 1.008.56 1.376 1.392 1.376.416 0 .768-.08 1.2-.288v1.056a3.099 3.099 0 0 1-1.488.352Zm3.732-10.224v-1.36h1.408v1.36h-1.408Zm.08 10.08v-8.272h1.232v8.272h-1.232Zm4.092 0v-8.272h1.232v1.44c.544-.896 1.408-1.616 2.832-1.616 2 0 3.168 1.344 3.168 3.312v5.136h-1.232v-4.832c0-1.536-.832-2.496-2.288-2.496-1.424 0-2.48 1.04-2.48 2.592v4.736h-1.232Zm13.523 2.592c-1.376 0-2.656-.384-3.76-1.152l.56-.96c.944.688 2 1.056 3.184 1.056 1.824 0 3.008-1.008 3.008-2.944v-.976c-.72.96-1.728 1.744-3.248 1.744-1.984 0-3.888-1.488-3.888-3.872v-.032c0-2.416 1.92-3.904 3.888-3.904 1.552 0 2.56.768 3.232 1.664v-1.488h1.232v6.832c0 1.28-.384 2.256-1.056 2.928-.736.736-1.84 1.104-3.152 1.104Zm-.016-4.32c1.568 0 3.04-1.136 3.04-2.8v-.032c0-1.696-1.472-2.8-3.04-2.8s-2.864 1.088-2.864 2.784v.032c0 1.664 1.328 2.816 2.864 2.816Zm14.51 1.888c-1.184 0-2.496-.464-3.424-1.216l.624-.88c.896.672 1.888 1.056 2.864 1.056.992 0 1.712-.512 1.712-1.312v-.032c0-.832-.976-1.152-2.064-1.456-1.296-.368-2.736-.816-2.736-2.336v-.032c0-1.424 1.184-2.368 2.816-2.368 1.008 0 2.128.352 2.976.912l-.56.928c-.768-.496-1.648-.8-2.448-.8-.976 0-1.6.512-1.6 1.2v.032c0 .784 1.024 1.088 2.128 1.424 1.28.384 2.656.88 2.656 2.368v.032c0 1.568-1.296 2.48-2.944 2.48Zm5.233 2.4V214.83h1.232v1.664c.672-.992 1.648-1.84 3.168-1.84 1.984 0 3.952 1.568 3.952 4.288v.032c0 2.704-1.952 4.304-3.952 4.304-1.536 0-2.528-.832-3.168-1.76v4.144h-1.232Zm4.176-3.488c1.6 0 2.912-1.184 2.912-3.184v-.032c0-1.952-1.344-3.2-2.912-3.2-1.536 0-2.992 1.296-2.992 3.184v.032c0 1.92 1.456 3.2 2.992 3.2Zm6.449.928v-8.272h1.232v2.16c.608-1.376 1.808-2.368 3.376-2.304v1.328h-.096c-1.808 0-3.28 1.296-3.28 3.792v3.296h-1.232Zm6.861-3.632c.176 1.744 1.456 2.752 2.912 2.752 1.136 0 1.936-.464 2.608-1.168l.768.688c-.832.928-1.84 1.552-3.408 1.552-2.272 0-4.128-1.744-4.128-4.32 0-2.4 1.68-4.32 3.968-4.32 2.448 0 3.856 1.952 3.856 4.384 0 .112 0 .24-.016.432h-6.56Zm0-.992h5.328c-.144-1.504-1.008-2.784-2.64-2.784-1.424 0-2.512 1.184-2.688 2.784Zm11.196 4.8c-1.552 0-3.088-.88-3.088-2.576v-.032c0-1.776 1.44-2.704 3.536-2.704 1.056 0 1.792.144 2.528.352v-.256c0-1.472-.896-2.24-2.448-2.24-.976 0-1.744.24-2.512.592l-.368-1.008c.912-.416 1.792-.704 3.008-.704 1.168 0 2.08.32 2.672.912.576.576.864 1.376.864 2.432v5.056h-1.216v-1.232c-.576.736-1.52 1.408-2.976 1.408Zm.24-.992c1.52 0 2.752-.912 2.752-2.224v-.768a8.504 8.504 0 0 0-2.416-.352c-1.536 0-2.416.672-2.416 1.664v.032c0 1.04.96 1.648 2.08 1.648Zm10.034.992c-1.984 0-3.952-1.568-3.952-4.288v-.032c0-2.704 1.968-4.304 3.952-4.304 1.536 0 2.528.832 3.168 1.76v-4.992h1.232v11.68h-1.232v-1.664c-.672.992-1.648 1.84-3.168 1.84Zm.224-1.104c1.536 0 2.992-1.296 2.992-3.2v-.032c0-1.904-1.456-3.184-2.992-3.184-1.6 0-2.912 1.184-2.912 3.184v.032c0 1.952 1.344 3.2 2.912 3.2Zm9.665 1.088c-1.184 0-2.496-.464-3.424-1.216l.624-.88c.896.672 1.888 1.056 2.864 1.056.992 0 1.712-.512 1.712-1.312v-.032c0-.832-.976-1.152-2.064-1.456-1.296-.368-2.736-.816-2.736-2.336v-.032c0-1.424 1.184-2.368 2.816-2.368 1.008 0 2.128.352 2.976.912l-.56.928c-.768-.496-1.648-.8-2.448-.8-.976 0-1.6.512-1.6 1.2v.032c0 .784 1.024 1.088 2.128 1.424 1.28.384 2.656.88 2.656 2.368v.032c0 1.568-1.296 2.48-2.944 2.48Zm5.233-.16v-11.68h1.232v4.848c.544-.896 1.408-1.616 2.832-1.616 2 0 3.168 1.344 3.168 3.312v5.136h-1.232v-4.832c0-1.536-.832-2.496-2.288-2.496-1.424 0-2.48 1.04-2.48 2.592v4.736h-1.232Zm10.595-3.632c.176 1.744 1.456 2.752 2.912 2.752 1.136 0 1.936-.464 2.608-1.168l.768.688c-.832.928-1.84 1.552-3.408 1.552-2.272 0-4.128-1.744-4.128-4.32 0-2.4 1.68-4.32 3.968-4.32 2.448 0 3.856 1.952 3.856 4.384 0 .112 0 .24-.016.432h-6.56Zm0-.992h5.328c-.144-1.504-1.008-2.784-2.64-2.784-1.424 0-2.512 1.184-2.688 2.784Zm9.469.992c.176 1.744 1.456 2.752 2.912 2.752 1.136 0 1.936-.464 2.608-1.168l.768.688c-.832.928-1.84 1.552-3.408 1.552-2.272 0-4.128-1.744-4.128-4.32 0-2.4 1.68-4.32 3.968-4.32 2.448 0 3.856 1.952 3.856 4.384 0 .112 0 .24-.016.432h-6.56Zm0-.992h5.328c-.144-1.504-1.008-2.784-2.64-2.784-1.424 0-2.512 1.184-2.688 2.784Zm11.501 4.768c-1.328 0-2.336-.656-2.336-2.336v-4.992h-1.152v-1.088h1.152v-2.496h1.232v2.496h2.624v1.088h-2.624v4.832c0 1.008.56 1.376 1.392 1.376.416 0 .768-.08 1.2-.288v1.056a3.099 3.099 0 0 1-1.488.352Zm6.436.016c-1.184 0-2.496-.464-3.424-1.216l.624-.88c.896.672 1.888 1.056 2.864 1.056.992 0 1.712-.512 1.712-1.312v-.032c0-.832-.976-1.152-2.064-1.456-1.296-.368-2.736-.816-2.736-2.336v-.032c0-1.424 1.184-2.368 2.816-2.368 1.008 0 2.128.352 2.976.912l-.56.928c-.768-.496-1.648-.8-2.448-.8-.976 0-1.6.512-1.6 1.2v.032c0 .784 1.024 1.088 2.128 1.424 1.28.384 2.656.88 2.656 2.368v.032c0 1.568-1.296 2.48-2.944 2.48Zm12.798-.016c-1.328 0-2.336-.656-2.336-2.336v-4.992h-1.152v-1.088h1.152v-2.496h1.232v2.496h2.624v1.088h-2.624v4.832c0 1.008.56 1.376 1.392 1.376.416 0 .768-.08 1.2-.288v1.056a3.099 3.099 0 0 1-1.488.352Zm7.242.048c-2.48 0-4.288-1.952-4.288-4.288v-.032c0-2.336 1.824-4.32 4.32-4.32 2.48 0 4.304 1.952 4.304 4.288v.032c0 2.336-1.84 4.32-4.336 4.32Zm.032-1.104c1.792 0 3.04-1.44 3.04-3.184v-.032c0-1.776-1.328-3.232-3.072-3.232-1.792 0-3.024 1.456-3.024 3.2v.032c0 1.776 1.312 3.216 3.056 3.216Zm12.069-2.72c.176 1.744 1.456 2.752 2.912 2.752 1.136 0 1.936-.464 2.608-1.168l.768.688c-.832.928-1.84 1.552-3.408 1.552-2.272 0-4.128-1.744-4.128-4.32 0-2.4 1.68-4.32 3.968-4.32 2.448 0 3.856 1.952 3.856 4.384 0 .112 0 .24-.016.432h-6.56Zm0-.992h5.328c-.144-1.504-1.008-2.784-2.64-2.784-1.424 0-2.512 1.184-2.688 2.784Zm8.733 4.624v-8.272h1.232v1.44c.544-.896 1.408-1.616 2.832-1.616 2 0 3.168 1.344 3.168 3.312v5.136h-1.232v-4.832c0-1.536-.832-2.496-2.288-2.496-1.424 0-2.48 1.04-2.48 2.592v4.736h-1.232Zm12.627.144c-1.328 0-2.336-.656-2.336-2.336v-4.992h-1.152v-1.088h1.152v-2.496h1.232v2.496h2.624v1.088h-2.624v4.832c0 1.008.56 1.376 1.392 1.376.416 0 .768-.08 1.2-.288v1.056a3.099 3.099 0 0 1-1.488.352Zm4.202-3.776c.176 1.744 1.456 2.752 2.912 2.752 1.136 0 1.936-.464 2.608-1.168l.768.688c-.832.928-1.84 1.552-3.408 1.552-2.272 0-4.128-1.744-4.128-4.32 0-2.4 1.68-4.32 3.968-4.32 2.448 0 3.856 1.952 3.856 4.384 0 .112 0 .24-.016.432h-6.56Zm0-.992h5.328c-.144-1.504-1.008-2.784-2.64-2.784-1.424 0-2.512 1.184-2.688 2.784Zm8.733 4.624v-8.272h1.232v2.16c.608-1.376 1.808-2.368 3.376-2.304v1.328h-.096c-1.808 0-3.28 1.296-3.28 3.792v3.296h-1.232Zm14.753.176c-1.984 0-3.952-1.568-3.952-4.288v-.032c0-2.704 1.968-4.304 3.952-4.304 1.536 0 2.528.832 3.168 1.76v-4.992h1.232v11.68h-1.232v-1.664c-.672.992-1.648 1.84-3.168 1.84Zm.224-1.104c1.536 0 2.992-1.296 2.992-3.2v-.032c0-1.904-1.456-3.184-2.992-3.184-1.6 0-2.912 1.184-2.912 3.184v.032c0 1.952 1.344 3.2 2.912 3.2Zm9.393 1.104c-1.552 0-3.088-.88-3.088-2.576v-.032c0-1.776 1.44-2.704 3.536-2.704 1.056 0 1.792.144 2.528.352v-.256c0-1.472-.896-2.24-2.448-2.24-.976 0-1.744.24-2.512.592l-.368-1.008c.912-.416 1.792-.704 3.008-.704 1.168 0 2.08.32 2.672.912.576.576.864 1.376.864 2.432v5.056h-1.216v-1.232c-.576.736-1.52 1.408-2.976 1.408Zm.24-.992c1.52 0 2.752-.912 2.752-2.224v-.768a8.504 8.504 0 0 0-2.416-.352c-1.536 0-2.416.672-2.416 1.664v.032c0 1.04.96 1.648 2.08 1.648Zm9.252.96c-1.328 0-2.336-.656-2.336-2.336v-4.992h-1.152v-1.088h1.152v-2.496h1.232v2.496h2.624v1.088h-2.624v4.832c0 1.008.56 1.376 1.392 1.376.416 0 .768-.08 1.2-.288v1.056a3.099 3.099 0 0 1-1.488.352Zm6.165.032c-1.552 0-3.088-.88-3.088-2.576v-.032c0-1.776 1.44-2.704 3.536-2.704 1.056 0 1.792.144 2.528.352v-.256c0-1.472-.896-2.24-2.448-2.24-.976 0-1.744.24-2.512.592l-.368-1.008c.912-.416 1.792-.704 3.008-.704 1.168 0 2.08.32 2.672.912.576.576.864 1.376.864 2.432v5.056h-1.216v-1.232c-.576.736-1.52 1.408-2.976 1.408Zm.24-.992c1.52 0 2.752-.912 2.752-2.224v-.768a8.504 8.504 0 0 0-2.416-.352c-1.536 0-2.416.672-2.416 1.664v.032c0 1.04.96 1.648 2.08 1.648Zm11.39-9.264v-1.36h1.408v1.36h-1.408Zm.08 10.08v-8.272h1.232v8.272h-1.232Zm4.091 0v-8.272h1.232v1.44c.544-.896 1.408-1.616 2.832-1.616 2 0 3.168 1.344 3.168 3.312v5.136h-1.232v-4.832c0-1.536-.832-2.496-2.288-2.496-1.424 0-2.48 1.04-2.48 2.592v4.736h-1.232Zm12.628.144c-1.328 0-2.336-.656-2.336-2.336v-4.992h-1.152v-1.088h1.152v-2.496h1.232v2.496h2.624v1.088h-2.624v4.832c0 1.008.56 1.376 1.392 1.376.416 0 .768-.08 1.2-.288v1.056a3.099 3.099 0 0 1-1.488.352Zm7.242.048c-2.48 0-4.288-1.952-4.288-4.288v-.032c0-2.336 1.824-4.32 4.32-4.32 2.48 0 4.304 1.952 4.304 4.288v.032c0 2.336-1.84 4.32-4.336 4.32Zm.032-1.104c1.792 0 3.04-1.44 3.04-3.184v-.032c0-1.776-1.328-3.232-3.072-3.232-1.792 0-3.024 1.456-3.024 3.2v.032c0 1.776 1.312 3.216 3.056 3.216Zm15.397.992-4.816-11.28h1.408l3.984 9.648 4-9.648h1.36l-4.816 11.28h-1.12Zm7.655-10.16v-1.36h1.408v1.36h-1.408Zm.08 10.08v-8.272h1.232v8.272h-1.232Zm6.827.16c-1.184 0-2.496-.464-3.424-1.216l.624-.88c.896.672 1.888 1.056 2.864 1.056.992 0 1.712-.512 1.712-1.312v-.032c0-.832-.976-1.152-2.064-1.456-1.296-.368-2.736-.816-2.736-2.336v-.032c0-1.424 1.184-2.368 2.816-2.368 1.008 0 2.128.352 2.976.912l-.56.928c-.768-.496-1.648-.8-2.448-.8-.976 0-1.6.512-1.6 1.2v.032c0 .784 1.024 1.088 2.128 1.424 1.28.384 2.656.88 2.656 2.368v.032c0 1.568-1.296 2.48-2.944 2.48Zm5.265-10.24v-1.36h1.408v1.36h-1.408Zm.08 10.08v-8.272h1.232v8.272h-1.232Zm8.491.176c-1.536 0-2.528-.832-3.168-1.76v1.584h-1.232v-11.68h1.232v5.072c.672-.992 1.648-1.84 3.168-1.84 1.984 0 3.952 1.568 3.952 4.288v.032c0 2.704-1.952 4.304-3.952 4.304Zm-.224-1.104c1.6 0 2.912-1.184 2.912-3.184v-.032c0-1.952-1.344-3.2-2.912-3.2-1.536 0-2.992 1.296-2.992 3.184v.032c0 1.92 1.456 3.2 2.992 3.2Zm6.561.928v-11.68h1.232v11.68h-1.232Zm4.827-3.632c.176 1.744 1.456 2.752 2.912 2.752 1.136 0 1.936-.464 2.608-1.168l.768.688c-.832.928-1.84 1.552-3.408 1.552-2.272 0-4.128-1.744-4.128-4.32 0-2.4 1.68-4.32 3.968-4.32 2.448 0 3.856 1.952 3.856 4.384 0 .112 0 .24-.016.432h-6.56Zm0-.992h5.328c-.144-1.504-1.008-2.784-2.64-2.784-1.424 0-2.512 1.184-2.688 2.784Zm15.994 4.8c-1.552 0-3.088-.88-3.088-2.576v-.032c0-1.776 1.44-2.704 3.536-2.704 1.056 0 1.792.144 2.528.352v-.256c0-1.472-.896-2.24-2.448-2.24-.976 0-1.744.24-2.512.592l-.368-1.008c.912-.416 1.792-.704 3.008-.704 1.168 0 2.08.32 2.672.912.576.576.864 1.376.864 2.432v5.056h-1.216v-1.232c-.576.736-1.52 1.408-2.976 1.408Zm.24-.992c1.52 0 2.752-.912 2.752-2.224v-.768a8.504 8.504 0 0 0-2.416-.352c-1.536 0-2.416.672-2.416 1.664v.032c0 1.04.96 1.648 2.08 1.648Zm9.602.992c-2 0-3.168-1.344-3.168-3.312v-5.136h1.232v4.832c0 1.536.832 2.496 2.288 2.496 1.408 0 2.48-1.04 2.48-2.592v-4.736h1.216v8.272h-1.216v-1.44c-.56.896-1.408 1.616-2.832 1.616Zm9.587-.032c-1.328 0-2.336-.656-2.336-2.336v-4.992h-1.152v-1.088h1.152v-2.496h1.232v2.496h2.624v1.088h-2.624v4.832c0 1.008.56 1.376 1.392 1.376.416 0 .768-.08 1.2-.288v1.056a3.099 3.099 0 0 1-1.488.352Zm7.242.048c-2.48 0-4.288-1.952-4.288-4.288v-.032c0-2.336 1.824-4.32 4.32-4.32 2.48 0 4.304 1.952 4.304 4.288v.032c0 2.336-1.84 4.32-4.336 4.32Zm.032-1.104c1.792 0 3.04-1.44 3.04-3.184v-.032c0-1.776-1.328-3.232-3.072-3.232-1.792 0-3.024 1.456-3.024 3.2v.032c0 1.776 1.312 3.216 3.056 3.216Zm6.536.912v-8.272h1.232v1.392c.544-.816 1.28-1.568 2.672-1.568 1.344 0 2.208.72 2.656 1.648.592-.912 1.472-1.648 2.912-1.648 1.904 0 3.072 1.28 3.072 3.328v5.12h-1.232v-4.832c0-1.6-.8-2.496-2.144-2.496-1.248 0-2.288.928-2.288 2.56v4.768h-1.216v-4.864c0-1.552-.816-2.464-2.128-2.464-1.312 0-2.304 1.088-2.304 2.608v4.72h-1.232Zm17.683.176c-1.552 0-3.088-.88-3.088-2.576v-.032c0-1.776 1.44-2.704 3.536-2.704 1.056 0 1.792.144 2.528.352v-.256c0-1.472-.896-2.24-2.448-2.24-.976 0-1.744.24-2.512.592l-.368-1.008c.912-.416 1.792-.704 3.008-.704 1.168 0 2.08.32 2.672.912.576.576.864 1.376.864 2.432v5.056h-1.216v-1.232c-.576.736-1.52 1.408-2.976 1.408Zm.24-.992c1.52 0 2.752-.912 2.752-2.224v-.768a8.504 8.504 0 0 0-2.416-.352c-1.536 0-2.416.672-2.416 1.664v.032c0 1.04.96 1.648 2.08 1.648Zm9.251.96c-1.328 0-2.336-.656-2.336-2.336v-4.992h-1.152v-1.088h1.152v-2.496h1.232v2.496h2.624v1.088h-2.624v4.832c0 1.008.56 1.376 1.392 1.376.416 0 .768-.08 1.2-.288v1.056a3.099 3.099 0 0 1-1.488.352Zm3.733-10.224v-1.36h1.408v1.36h-1.408Zm.08 10.08v-8.272h1.232v8.272h-1.232Zm7.819.192c-2.416 0-4.24-1.968-4.24-4.288v-.032c0-2.336 1.824-4.32 4.24-4.32 1.568 0 2.544.656 3.312 1.472l-.816.864c-.656-.688-1.392-1.248-2.512-1.248-1.68 0-2.96 1.424-2.96 3.2v.032c0 1.792 1.312 3.216 3.04 3.216 1.056 0 1.872-.528 2.528-1.232l.784.736c-.832.928-1.824 1.6-3.376 1.6Zm7.877-.016c-1.552 0-3.088-.88-3.088-2.576v-.032c0-1.776 1.44-2.704 3.536-2.704 1.056 0 1.792.144 2.528.352v-.256c0-1.472-.896-2.24-2.448-2.24-.976 0-1.744.24-2.512.592l-.368-1.008c.912-.416 1.792-.704 3.008-.704 1.168 0 2.08.32 2.672.912.576.576.864 1.376.864 2.432v5.056h-1.216v-1.232c-.576.736-1.52 1.408-2.976 1.408Zm.24-.992c1.52 0 2.752-.912 2.752-2.224v-.768a8.504 8.504 0 0 0-2.416-.352c-1.536 0-2.416.672-2.416 1.664v.032c0 1.04.96 1.648 2.08 1.648Zm6.673.816v-11.68h1.232v11.68h-1.232Zm4.204 0v-11.68h1.232v11.68h-1.232Zm5.371 2.608c-.688 0-1.2-.144-1.76-.416l.416-.976c.4.208.768.304 1.296.304.736 0 1.2-.384 1.696-1.552l-3.76-8.24h1.36l3.008 6.896 2.656-6.896h1.312l-3.472 8.544c-.704 1.712-1.504 2.336-2.752 2.336Zm6.669-2.608v-1.68h1.472v1.68h-1.472Z"/>
  <rect width="60" height="60" x="42.623" y="173.412" stroke="url(#c)" stroke-width="2" rx="7"/>
  <path fill="url(#d)" d="M84.623 195.1h-4v-4a2.001 2.001 0 0 0-2-2h-18a2.004 2.004 0 0 0-2 2v18a2.004 2.004 0 0 0 2 2h4v4a2.004 2.004 0 0 0 2 2h18a2.003 2.003 0 0 0 2-2v-18a2.001 2.001 0 0 0-2-2Zm-6 14h-8v-5h8v5Zm0-7h-8v-5h8v5Zm-10 0h-8v-5h8v5Zm10-11v4h-18v-4h18Zm-18 18v-5h8v5h-8Zm24 6h-18v-4h12a2.003 2.003 0 0 0 2-2v-12h4v18Z"/>
  <rect width="801.56" height="122.396" x=".063" y="284.335" fill="#18181B" rx="8"/>
  <path fill="#FAFAFA" d="m129.305 338.948-6.111-14.805h2.856l4.431 11.298 4.41-11.298h2.793l-6.111 14.805h-2.268Zm10.237-12.894v-2.415h2.73v2.415h-2.73Zm.105 12.789v-11.088h2.541v11.088h-2.541Zm9.663.21c-1.575 0-3.318-.567-4.704-1.659l1.134-1.722c1.197.903 2.499 1.365 3.633 1.365 1.092 0 1.722-.462 1.722-1.197v-.042c0-.861-1.176-1.155-2.478-1.554-1.638-.462-3.465-1.134-3.465-3.255v-.042c0-2.1 1.743-3.381 3.948-3.381 1.386 0 2.898.483 4.074 1.26l-1.008 1.806c-1.071-.651-2.205-1.05-3.129-1.05-.987 0-1.554.462-1.554 1.113v.042c0 .798 1.197 1.134 2.499 1.554 1.617.504 3.444 1.239 3.444 3.234v.042c0 2.331-1.806 3.486-4.116 3.486Zm6.741-12.999v-2.415h2.73v2.415h-2.73Zm.105 12.789v-11.088h2.541v11.088h-2.541Zm12.162.231c-1.827 0-2.982-.924-3.759-1.953v1.722h-2.541v-15.33h2.541v6.09c.819-1.155 1.974-2.079 3.759-2.079 2.625 0 5.166 2.079 5.166 5.754v.042c0 3.675-2.52 5.754-5.166 5.754Zm-.588-2.205c1.743 0 3.171-1.365 3.171-3.549v-.042c0-2.142-1.449-3.549-3.171-3.549-1.722 0-3.234 1.428-3.234 3.549v.042c0 2.142 1.512 3.549 3.234 3.549Zm8.503 1.974v-15.33h2.541v15.33h-2.541Zm10.944.252c-3.213 0-5.691-2.331-5.691-5.754v-.042c0-3.171 2.247-5.775 5.418-5.775 3.528 0 5.313 2.772 5.313 5.964 0 .231-.021.462-.042.714h-8.148c.273 1.806 1.554 2.814 3.192 2.814 1.239 0 2.121-.462 3.003-1.323l1.491 1.323c-1.05 1.26-2.499 2.079-4.536 2.079Zm-3.171-6.573h5.691c-.168-1.638-1.134-2.919-2.814-2.919-1.554 0-2.646 1.197-2.877 2.919Zm17.353 6.321v-14.7h6.552c1.848 0 3.297.546 4.242 1.47.777.798 1.218 1.89 1.218 3.171v.042c0 2.415-1.449 3.864-3.507 4.452l3.969 5.565h-3.045l-3.612-5.124h-3.234v5.124h-2.583Zm2.583-7.413h3.78c1.848 0 3.024-.966 3.024-2.457v-.042c0-1.575-1.134-2.436-3.045-2.436h-3.759v4.935Zm17.175 7.665c-3.213 0-5.691-2.331-5.691-5.754v-.042c0-3.171 2.247-5.775 5.418-5.775 3.528 0 5.313 2.772 5.313 5.964 0 .231-.021.462-.042.714h-8.148c.273 1.806 1.554 2.814 3.192 2.814 1.239 0 2.121-.462 3.003-1.323l1.491 1.323c-1.05 1.26-2.499 2.079-4.536 2.079Zm-3.171-6.573h5.691c-.168-1.638-1.134-2.919-2.814-2.919-1.554 0-2.646 1.197-2.877 2.919Zm19.121 9.681v-5.208c-.819 1.155-1.974 2.079-3.78 2.079-2.604 0-5.145-2.079-5.145-5.754v-.042c0-3.675 2.499-5.754 5.145-5.754 1.827 0 2.982.924 3.78 1.953v-1.722h2.541v14.448h-2.541Zm-3.171-5.334c1.701 0 3.213-1.428 3.213-3.549v-.042c0-2.142-1.512-3.549-3.213-3.549-1.743 0-3.192 1.344-3.192 3.549v.042c0 2.142 1.47 3.549 3.192 3.549Zm12.704 2.205c-2.499 0-3.948-1.68-3.948-4.263v-7.056h2.541v6.3c0 1.722.861 2.709 2.373 2.709 1.47 0 2.499-1.029 2.499-2.751v-6.258h2.541v11.088h-2.541v-1.722c-.714 1.05-1.743 1.953-3.465 1.953Zm14.282.021c-3.213 0-5.691-2.331-5.691-5.754v-.042c0-3.171 2.247-5.775 5.418-5.775 3.528 0 5.313 2.772 5.313 5.964 0 .231-.021.462-.042.714h-8.148c.273 1.806 1.554 2.814 3.192 2.814 1.239 0 2.121-.462 3.003-1.323l1.491 1.323c-1.05 1.26-2.499 2.079-4.536 2.079Zm-3.171-6.573h5.691c-.168-1.638-1.134-2.919-2.814-2.919-1.554 0-2.646 1.197-2.877 2.919Zm14.564 6.531c-1.575 0-3.318-.567-4.704-1.659l1.134-1.722c1.197.903 2.499 1.365 3.633 1.365 1.092 0 1.722-.462 1.722-1.197v-.042c0-.861-1.176-1.155-2.478-1.554-1.638-.462-3.465-1.134-3.465-3.255v-.042c0-2.1 1.743-3.381 3.948-3.381 1.386 0 2.898.483 4.074 1.26l-1.008 1.806c-1.071-.651-2.205-1.05-3.129-1.05-.987 0-1.554.462-1.554 1.113v.042c0 .798 1.197 1.134 2.499 1.554 1.617.504 3.444 1.239 3.444 3.234v.042c0 2.331-1.806 3.486-4.116 3.486Zm10.211-.021c-1.869 0-3.192-.819-3.192-3.255v-5.838h-1.407v-2.184h1.407v-3.045h2.541v3.045h2.982v2.184h-2.982v5.439c0 .987.504 1.386 1.365 1.386.567 0 1.071-.126 1.575-.378v2.079c-.63.357-1.344.567-2.289.567Zm8.697.021c-1.575 0-3.318-.567-4.704-1.659l1.134-1.722c1.197.903 2.499 1.365 3.633 1.365 1.092 0 1.722-.462 1.722-1.197v-.042c0-.861-1.176-1.155-2.478-1.554-1.638-.462-3.465-1.134-3.465-3.255v-.042c0-2.1 1.743-3.381 3.948-3.381 1.386 0 2.898.483 4.074 1.26l-1.008 1.806c-1.071-.651-2.205-1.05-3.129-1.05-.987 0-1.554.462-1.554 1.113v.042c0 .798 1.197 1.134 2.499 1.554 1.617.504 3.444 1.239 3.444 3.234v.042c0 2.331-1.806 3.486-4.116 3.486Zm-167.035 26.169v-11.2h4.192c2.528 0 4.192 1.344 4.192 3.552v.032c0 2.416-2.016 3.664-4.4 3.664h-2.72v3.952h-1.264Zm1.264-5.104h2.768c1.856 0 3.072-.992 3.072-2.464v-.032c0-1.6-1.2-2.432-3.008-2.432h-2.832v4.928Zm9.216 5.104v-8.272h1.232v2.16c.608-1.376 1.808-2.368 3.376-2.304v1.328h-.096c-1.808 0-3.28 1.296-3.28 3.792v3.296h-1.232Zm9.901.192c-2.48 0-4.288-1.952-4.288-4.288v-.032c0-2.336 1.824-4.32 4.32-4.32 2.48 0 4.304 1.952 4.304 4.288v.032c0 2.336-1.84 4.32-4.336 4.32Zm.032-1.104c1.792 0 3.04-1.44 3.04-3.184v-.032c0-1.776-1.328-3.232-3.072-3.232-1.792 0-3.024 1.456-3.024 3.2v.032c0 1.776 1.312 3.216 3.056 3.216Zm9 1.088c-1.552 0-3.088-.88-3.088-2.576v-.032c0-1.776 1.44-2.704 3.536-2.704 1.056 0 1.792.144 2.528.352v-.256c0-1.472-.896-2.24-2.448-2.24-.976 0-1.744.24-2.512.592l-.368-1.008c.912-.416 1.792-.704 3.008-.704 1.168 0 2.08.32 2.672.912.576.576.864 1.376.864 2.432v5.056h-1.216v-1.232c-.576.736-1.52 1.408-2.976 1.408Zm.24-.992c1.52 0 2.752-.912 2.752-2.224v-.768a8.504 8.504 0 0 0-2.416-.352c-1.536 0-2.416.672-2.416 1.664v.032c0 1.04.96 1.648 2.08 1.648Zm10.289 1.008c-2.416 0-4.24-1.968-4.24-4.288v-.032c0-2.336 1.824-4.32 4.24-4.32 1.568 0 2.544.656 3.312 1.472l-.816.864c-.656-.688-1.392-1.248-2.512-1.248-1.68 0-2.96 1.424-2.96 3.2v.032c0 1.792 1.312 3.216 3.04 3.216 1.056 0 1.872-.528 2.528-1.232l.784.736c-.832.928-1.824 1.6-3.376 1.6Zm8.181-.048c-1.328 0-2.336-.656-2.336-2.336v-4.992h-1.152v-1.088h1.152v-2.496h1.232v2.496h2.624v1.088h-2.624v4.832c0 1.008.56 1.376 1.392 1.376.416 0 .768-.08 1.2-.288v1.056a3.099 3.099 0 0 1-1.488.352Zm3.733-10.224v-1.36h1.408v1.36h-1.408Zm.08 10.08v-8.272h1.232v8.272h-1.232Zm6.859.064-3.584-8.336h1.36l2.784 6.864 2.8-6.864h1.328l-3.6 8.336h-1.088Zm6.874-3.696c.176 1.744 1.456 2.752 2.912 2.752 1.136 0 1.936-.464 2.608-1.168l.768.688c-.832.928-1.84 1.552-3.408 1.552-2.272 0-4.128-1.744-4.128-4.32 0-2.4 1.68-4.32 3.968-4.32 2.448 0 3.856 1.952 3.856 4.384 0 .112 0 .24-.016.432h-6.56Zm0-.992h5.328c-.144-1.504-1.008-2.784-2.64-2.784-1.424 0-2.512 1.184-2.688 2.784Zm8.845 4.624v-11.68h1.232v11.68h-1.232Zm5.371 2.608c-.688 0-1.2-.144-1.76-.416l.416-.976c.4.208.768.304 1.296.304.736 0 1.2-.384 1.696-1.552l-3.76-8.24h1.36l3.008 6.896 2.656-6.896h1.312l-3.472 8.544c-.704 1.712-1.504 2.336-2.752 2.336Zm16.698-2.416c-2.416 0-4.24-1.968-4.24-4.288v-.032c0-2.336 1.824-4.32 4.24-4.32 1.568 0 2.544.656 3.312 1.472l-.816.864c-.656-.688-1.392-1.248-2.512-1.248-1.68 0-2.96 1.424-2.96 3.2v.032c0 1.792 1.312 3.216 3.04 3.216 1.056 0 1.872-.528 2.528-1.232l.784.736c-.832.928-1.824 1.6-3.376 1.6Zm8.954 0c-2.48 0-4.288-1.952-4.288-4.288v-.032c0-2.336 1.824-4.32 4.32-4.32 2.48 0 4.304 1.952 4.304 4.288v.032c0 2.336-1.84 4.32-4.336 4.32Zm.032-1.104c1.792 0 3.04-1.44 3.04-3.184v-.032c0-1.776-1.328-3.232-3.072-3.232-1.792 0-3.024 1.456-3.024 3.2v.032c0 1.776 1.312 3.216 3.056 3.216Zm6.648.912v-11.68h1.232v11.68h-1.232Zm4.203 0v-11.68h1.232v11.68h-1.232Zm4.827-3.632c.176 1.744 1.456 2.752 2.912 2.752 1.136 0 1.936-.464 2.608-1.168l.768.688c-.832.928-1.84 1.552-3.408 1.552-2.272 0-4.128-1.744-4.128-4.32 0-2.4 1.68-4.32 3.968-4.32 2.448 0 3.856 1.952 3.856 4.384 0 .112 0 .24-.016.432h-6.56Zm0-.992h5.328c-.144-1.504-1.008-2.784-2.64-2.784-1.424 0-2.512 1.184-2.688 2.784Zm12.461 4.816c-2.416 0-4.24-1.968-4.24-4.288v-.032c0-2.336 1.824-4.32 4.24-4.32 1.568 0 2.544.656 3.312 1.472l-.816.864c-.656-.688-1.392-1.248-2.512-1.248-1.68 0-2.96 1.424-2.96 3.2v.032c0 1.792 1.312 3.216 3.04 3.216 1.056 0 1.872-.528 2.528-1.232l.784.736c-.832.928-1.824 1.6-3.376 1.6Zm8.181-.048c-1.328 0-2.336-.656-2.336-2.336v-4.992h-1.152v-1.088h1.152v-2.496h1.232v2.496h2.624v1.088h-2.624v4.832c0 1.008.56 1.376 1.392 1.376.416 0 .768-.08 1.2-.288v1.056a3.099 3.099 0 0 1-1.488.352Zm11.969.032c-1.984 0-3.952-1.568-3.952-4.288v-.032c0-2.704 1.968-4.304 3.952-4.304 1.536 0 2.528.832 3.168 1.76v-4.992h1.232v11.68h-1.232v-1.664c-.672.992-1.648 1.84-3.168 1.84Zm.224-1.104c1.536 0 2.992-1.296 2.992-3.2v-.032c0-1.904-1.456-3.184-2.992-3.184-1.6 0-2.912 1.184-2.912 3.184v.032c0 1.952 1.344 3.2 2.912 3.2Zm9.393 1.104c-1.552 0-3.088-.88-3.088-2.576v-.032c0-1.776 1.44-2.704 3.536-2.704 1.056 0 1.792.144 2.528.352v-.256c0-1.472-.896-2.24-2.448-2.24-.976 0-1.744.24-2.512.592l-.368-1.008c.912-.416 1.792-.704 3.008-.704 1.168 0 2.08.32 2.672.912.576.576.864 1.376.864 2.432v5.056h-1.216v-1.232c-.576.736-1.52 1.408-2.976 1.408Zm.24-.992c1.52 0 2.752-.912 2.752-2.224v-.768a8.504 8.504 0 0 0-2.416-.352c-1.536 0-2.416.672-2.416 1.664v.032c0 1.04.96 1.648 2.08 1.648Zm9.252.96c-1.328 0-2.336-.656-2.336-2.336v-4.992h-1.152v-1.088h1.152v-2.496h1.232v2.496h2.624v1.088h-2.624v4.832c0 1.008.56 1.376 1.392 1.376.416 0 .768-.08 1.2-.288v1.056a3.099 3.099 0 0 1-1.488.352Zm6.164.032c-1.552 0-3.088-.88-3.088-2.576v-.032c0-1.776 1.44-2.704 3.536-2.704 1.056 0 1.792.144 2.528.352v-.256c0-1.472-.896-2.24-2.448-2.24-.976 0-1.744.24-2.512.592l-.368-1.008c.912-.416 1.792-.704 3.008-.704 1.168 0 2.08.32 2.672.912.576.576.864 1.376.864 2.432v5.056h-1.216v-1.232c-.576.736-1.52 1.408-2.976 1.408Zm.24-.992c1.52 0 2.752-.912 2.752-2.224v-.768a8.504 8.504 0 0 0-2.416-.352c-1.536 0-2.416.672-2.416 1.664v.032c0 1.04.96 1.648 2.08 1.648Zm11.823.816v-7.184h-1.136v-1.072h1.136v-.72c0-.944.256-1.664.72-2.128.416-.416 1.024-.64 1.776-.64.576 0 .96.064 1.36.208v1.072c-.448-.128-.784-.208-1.2-.208-.96 0-1.44.576-1.44 1.76v.672h2.624v1.056h-2.608v7.184h-1.232Zm5.411 0v-8.272h1.232v2.16c.608-1.376 1.808-2.368 3.376-2.304v1.328h-.096c-1.808 0-3.28 1.296-3.28 3.792v3.296h-1.232Zm9.901.192c-2.48 0-4.288-1.952-4.288-4.288v-.032c0-2.336 1.824-4.32 4.32-4.32 2.48 0 4.304 1.952 4.304 4.288v.032c0 2.336-1.84 4.32-4.336 4.32Zm.032-1.104c1.792 0 3.04-1.44 3.04-3.184v-.032c0-1.776-1.328-3.232-3.072-3.232-1.792 0-3.024 1.456-3.024 3.2v.032c0 1.776 1.312 3.216 3.056 3.216Zm6.536.912v-8.272h1.232v1.392c.544-.816 1.28-1.568 2.672-1.568 1.344 0 2.208.72 2.656 1.648.592-.912 1.472-1.648 2.912-1.648 1.904 0 3.072 1.28 3.072 3.328v5.12h-1.232v-4.832c0-1.6-.8-2.496-2.144-2.496-1.248 0-2.288.928-2.288 2.56v4.768h-1.216v-4.864c0-1.552-.816-2.464-2.128-2.464-1.312 0-2.304 1.088-2.304 2.608v4.72h-1.232Zm20.479 0v-7.184h-1.136v-1.072h1.136v-.72c0-.944.256-1.664.72-2.128.416-.416 1.024-.64 1.776-.64.576 0 .96.064 1.36.208v1.072c-.448-.128-.784-.208-1.2-.208-.96 0-1.44.576-1.44 1.76v.672h2.624v1.056h-2.608v7.184h-1.232Zm9.031.192c-2.48 0-4.288-1.952-4.288-4.288v-.032c0-2.336 1.824-4.32 4.32-4.32 2.48 0 4.304 1.952 4.304 4.288v.032c0 2.336-1.84 4.32-4.336 4.32Zm.032-1.104c1.792 0 3.04-1.44 3.04-3.184v-.032c0-1.776-1.328-3.232-3.072-3.232-1.792 0-3.024 1.456-3.024 3.2v.032c0 1.776 1.312 3.216 3.056 3.216Zm9.576 1.088c-2 0-3.168-1.344-3.168-3.312v-5.136h1.232v4.832c0 1.536.832 2.496 2.288 2.496 1.408 0 2.48-1.04 2.48-2.592v-4.736h1.216v8.272h-1.216v-1.44c-.56.896-1.408 1.616-2.832 1.616Zm6.819-.176v-8.272h1.232v1.44c.544-.896 1.408-1.616 2.832-1.616 2 0 3.168 1.344 3.168 3.312v5.136h-1.232v-4.832c0-1.536-.832-2.496-2.288-2.496-1.424 0-2.48 1.04-2.48 2.592v4.736h-1.232Zm13.332.176c-1.984 0-3.952-1.568-3.952-4.288v-.032c0-2.704 1.968-4.304 3.952-4.304 1.536 0 2.528.832 3.168 1.76v-4.992h1.232v11.68h-1.232v-1.664c-.672.992-1.648 1.84-3.168 1.84Zm.224-1.104c1.536 0 2.992-1.296 2.992-3.2v-.032c0-1.904-1.456-3.184-2.992-3.184-1.6 0-2.912 1.184-2.912 3.184v.032c0 1.952 1.344 3.2 2.912 3.2Zm7.665-2.704c.176 1.744 1.456 2.752 2.912 2.752 1.136 0 1.936-.464 2.608-1.168l.768.688c-.832.928-1.84 1.552-3.408 1.552-2.272 0-4.128-1.744-4.128-4.32 0-2.4 1.68-4.32 3.968-4.32 2.448 0 3.856 1.952 3.856 4.384 0 .112 0 .24-.016.432h-6.56Zm0-.992h5.328c-.144-1.504-1.008-2.784-2.64-2.784-1.424 0-2.512 1.184-2.688 2.784Zm8.732 4.624v-8.272h1.232v2.16c.608-1.376 1.808-2.368 3.376-2.304v1.328h-.096c-1.808 0-3.28 1.296-3.28 3.792v3.296h-1.232Zm9.221.16c-1.184 0-2.496-.464-3.424-1.216l.624-.88c.896.672 1.888 1.056 2.864 1.056.992 0 1.712-.512 1.712-1.312v-.032c0-.832-.976-1.152-2.064-1.456-1.296-.368-2.736-.816-2.736-2.336v-.032c0-1.424 1.184-2.368 2.816-2.368 1.008 0 2.128.352 2.976.912l-.56.928c-.768-.496-1.648-.8-2.448-.8-.976 0-1.6.512-1.6 1.2v.032c0 .784 1.024 1.088 2.128 1.424 1.28.384 2.656.88 2.656 2.368v.032c0 1.568-1.296 2.48-2.944 2.48Zm10.061-10.24v-1.36h1.408v1.36h-1.408Zm.08 10.08v-8.272h1.232v8.272h-1.232Zm4.091 0v-8.272h1.232v1.44c.544-.896 1.408-1.616 2.832-1.616 2 0 3.168 1.344 3.168 3.312v5.136h-1.232v-4.832c0-1.536-.832-2.496-2.288-2.496-1.424 0-2.48 1.04-2.48 2.592v4.736h-1.232Zm15.937 2.608c-.688 0-1.2-.144-1.76-.416l.416-.976c.4.208.768.304 1.296.304.736 0 1.2-.384 1.696-1.552l-3.76-8.24h1.36l3.008 6.896 2.656-6.896h1.312l-3.472 8.544c-.704 1.712-1.504 2.336-2.752 2.336Zm11.464-2.416c-2.48 0-4.288-1.952-4.288-4.288v-.032c0-2.336 1.824-4.32 4.32-4.32 2.48 0 4.304 1.952 4.304 4.288v.032c0 2.336-1.84 4.32-4.336 4.32Zm.032-1.104c1.792 0 3.04-1.44 3.04-3.184v-.032c0-1.776-1.328-3.232-3.072-3.232-1.792 0-3.024 1.456-3.024 3.2v.032c0 1.776 1.312 3.216 3.056 3.216Zm9.576 1.088c-2 0-3.168-1.344-3.168-3.312v-5.136h1.232v4.832c0 1.536.832 2.496 2.288 2.496 1.408 0 2.48-1.04 2.48-2.592v-4.736h1.216v8.272h-1.216v-1.44c-.56.896-1.408 1.616-2.832 1.616Zm6.82-.176v-8.272h1.232v2.16c.608-1.376 1.808-2.368 3.376-2.304v1.328h-.096c-1.808 0-3.28 1.296-3.28 3.792v3.296h-1.232Zm11.281 2.56V356.95h1.232v1.664c.672-.992 1.648-1.84 3.168-1.84 1.984 0 3.952 1.568 3.952 4.288v.032c0 2.704-1.952 4.304-3.952 4.304-1.536 0-2.528-.832-3.168-1.76v4.144h-1.232Zm4.176-3.488c1.6 0 2.912-1.184 2.912-3.184v-.032c0-1.952-1.344-3.2-2.912-3.2-1.536 0-2.992 1.296-2.992 3.184v.032c0 1.92 1.456 3.2 2.992 3.2Zm10.225 1.12c-2.48 0-4.288-1.952-4.288-4.288v-.032c0-2.336 1.824-4.32 4.32-4.32 2.48 0 4.304 1.952 4.304 4.288v.032c0 2.336-1.84 4.32-4.336 4.32Zm.032-1.104c1.792 0 3.04-1.44 3.04-3.184v-.032c0-1.776-1.328-3.232-3.072-3.232-1.792 0-3.024 1.456-3.024 3.2v.032c0 1.776 1.312 3.216 3.056 3.216Zm6.536.912v-8.272h1.232v2.16c.608-1.376 1.808-2.368 3.376-2.304v1.328h-.096c-1.808 0-3.28 1.296-3.28 3.792v3.296h-1.232Zm9.252.144c-1.328 0-2.336-.656-2.336-2.336v-4.992h-1.152v-1.088h1.152v-2.496h1.232v2.496h2.624v1.088h-2.624v4.832c0 1.008.56 1.376 1.392 1.376.416 0 .768-.08 1.2-.288v1.056a3.099 3.099 0 0 1-1.488.352Zm4.165-.144v-7.184h-1.136v-1.072h1.136v-.72c0-.944.256-1.664.72-2.128.416-.416 1.024-.64 1.776-.64.576 0 .96.064 1.36.208v1.072c-.448-.128-.784-.208-1.2-.208-.96 0-1.44.576-1.44 1.76v.672h2.624v1.056h-2.608v7.184h-1.232Zm9.03.192c-2.48 0-4.288-1.952-4.288-4.288v-.032c0-2.336 1.824-4.32 4.32-4.32 2.48 0 4.304 1.952 4.304 4.288v.032c0 2.336-1.84 4.32-4.336 4.32Zm.032-1.104c1.792 0 3.04-1.44 3.04-3.184v-.032c0-1.776-1.328-3.232-3.072-3.232-1.792 0-3.024 1.456-3.024 3.2v.032c0 1.776 1.312 3.216 3.056 3.216Zm6.648.912v-11.68h1.232v11.68h-1.232Zm4.123-10.08v-1.36h1.408v1.36h-1.408Zm.08 10.08v-8.272h1.232v8.272h-1.232Zm7.867.192c-2.48 0-4.288-1.952-4.288-4.288v-.032c0-2.336 1.824-4.32 4.32-4.32 2.48 0 4.304 1.952 4.304 4.288v.032c0 2.336-1.84 4.32-4.336 4.32Zm.032-1.104c1.792 0 3.04-1.44 3.04-3.184v-.032c0-1.776-1.328-3.232-3.072-3.232-1.792 0-3.024 1.456-3.024 3.2v.032c0 1.776 1.312 3.216 3.056 3.216Zm14.373 1.088c-2 0-3.168-1.344-3.168-3.312v-5.136h1.232v4.832c0 1.536.832 2.496 2.288 2.496 1.408 0 2.48-1.04 2.48-2.592v-4.736h1.216v8.272h-1.216v-1.44c-.56.896-1.408 1.616-2.832 1.616Zm9.555-.016c-1.184 0-2.496-.464-3.424-1.216l.624-.88c.896.672 1.888 1.056 2.864 1.056.992 0 1.712-.512 1.712-1.312v-.032c0-.832-.976-1.152-2.064-1.456-1.296-.368-2.736-.816-2.736-2.336v-.032c0-1.424 1.184-2.368 2.816-2.368 1.008 0 2.128.352 2.976.912l-.56.928c-.768-.496-1.648-.8-2.448-.8-.976 0-1.6.512-1.6 1.2v.032c0 .784 1.024 1.088 2.128 1.424 1.28.384 2.656.88 2.656 2.368v.032c0 1.568-1.296 2.48-2.944 2.48Zm5.265-10.24v-1.36h1.408v1.36h-1.408Zm.08 10.08v-8.272h1.232v8.272h-1.232Zm4.091 0v-8.272h1.232v1.44c.544-.896 1.408-1.616 2.832-1.616 2 0 3.168 1.344 3.168 3.312v5.136h-1.232v-4.832c0-1.536-.832-2.496-2.288-2.496-1.424 0-2.48 1.04-2.48 2.592v4.736h-1.232Zm13.524 2.592c-1.376 0-2.656-.384-3.76-1.152l.56-.96c.944.688 2 1.056 3.184 1.056 1.824 0 3.008-1.008 3.008-2.944v-.976c-.72.96-1.728 1.744-3.248 1.744-1.984 0-3.888-1.488-3.888-3.872v-.032c0-2.416 1.92-3.904 3.888-3.904 1.552 0 2.56.768 3.232 1.664v-1.488h1.232v6.832c0 1.28-.384 2.256-1.056 2.928-.736.736-1.84 1.104-3.152 1.104Zm-.016-4.32c1.568 0 3.04-1.136 3.04-2.8v-.032c0-1.696-1.472-2.8-3.04-2.8s-2.864 1.088-2.864 2.784v.032c0 1.664 1.328 2.816 2.864 2.816Zm15.838 1.808-4.816-11.28h1.408l3.984 9.648 4-9.648h1.36l-4.816 11.28h-1.12Zm7.655-10.16v-1.36h1.408v1.36h-1.408Zm.08 10.08v-8.272h1.232v8.272h-1.232Zm6.827.16c-1.184 0-2.496-.464-3.424-1.216l.624-.88c.896.672 1.888 1.056 2.864 1.056.992 0 1.712-.512 1.712-1.312v-.032c0-.832-.976-1.152-2.064-1.456-1.296-.368-2.736-.816-2.736-2.336v-.032c0-1.424 1.184-2.368 2.816-2.368 1.008 0 2.128.352 2.976.912l-.56.928c-.768-.496-1.648-.8-2.448-.8-.976 0-1.6.512-1.6 1.2v.032c0 .784 1.024 1.088 2.128 1.424 1.28.384 2.656.88 2.656 2.368v.032c0 1.568-1.296 2.48-2.944 2.48Zm5.265-10.24v-1.36h1.408v1.36h-1.408Zm.08 10.08v-8.272h1.232v8.272h-1.232Zm8.491.176c-1.536 0-2.528-.832-3.168-1.76v1.584h-1.232v-11.68h1.232v5.072c.672-.992 1.648-1.84 3.168-1.84 1.984 0 3.952 1.568 3.952 4.288v.032c0 2.704-1.952 4.304-3.952 4.304Zm-.224-1.104c1.6 0 2.912-1.184 2.912-3.184v-.032c0-1.952-1.344-3.2-2.912-3.2-1.536 0-2.992 1.296-2.992 3.184v.032c0 1.92 1.456 3.2 2.992 3.2Zm6.561.928v-11.68h1.232v11.68h-1.232Zm4.827-3.632c.176 1.744 1.456 2.752 2.912 2.752 1.136 0 1.936-.464 2.608-1.168l.768.688c-.832.928-1.84 1.552-3.408 1.552-2.272 0-4.128-1.744-4.128-4.32 0-2.4 1.68-4.32 3.968-4.32 2.448 0 3.856 1.952 3.856 4.384 0 .112 0 .24-.016.432h-6.56Zm0-.992h5.328c-.144-1.504-1.008-2.784-2.64-2.784-1.424 0-2.512 1.184-2.688 2.784Zm13.738 4.624v-11.2h4.816c1.376 0 2.48.416 3.184 1.12.544.544.864 1.328.864 2.208v.032c0 1.856-1.28 2.944-3.04 3.264l3.44 4.576h-1.552l-3.248-4.352h-3.2v4.352h-1.264Zm1.264-5.488h3.44c1.68 0 2.88-.864 2.88-2.304v-.032c0-1.376-1.056-2.208-2.864-2.208h-3.456v4.544Zm10.67 1.856c.176 1.744 1.456 2.752 2.912 2.752 1.136 0 1.936-.464 2.608-1.168l.768.688c-.832.928-1.84 1.552-3.408 1.552-2.272 0-4.128-1.744-4.128-4.32 0-2.4 1.68-4.32 3.968-4.32 2.448 0 3.856 1.952 3.856 4.384 0 .112 0 .24-.016.432h-6.56Zm0-.992h5.328c-.144-1.504-1.008-2.784-2.64-2.784-1.424 0-2.512 1.184-2.688 2.784Zm15.373 7.184v-4.224c-.672.992-1.648 1.84-3.168 1.84-1.984 0-3.952-1.568-3.952-4.288v-.032c0-2.704 1.968-4.304 3.952-4.304 1.536 0 2.528.832 3.168 1.76v-1.584h1.232v10.832h-1.232Zm-2.944-3.488c1.536 0 2.992-1.296 2.992-3.2v-.032c0-1.904-1.456-3.184-2.992-3.184-1.6 0-2.912 1.184-2.912 3.184v.032c0 1.952 1.344 3.2 2.912 3.2Zm9.969 1.104c-2 0-3.168-1.344-3.168-3.312v-5.136h1.232v4.832c0 1.536.832 2.496 2.288 2.496 1.408 0 2.48-1.04 2.48-2.592v-4.736h1.216v8.272h-1.216v-1.44c-.56.896-1.408 1.616-2.832 1.616Zm7.555-3.808c.176 1.744 1.456 2.752 2.912 2.752 1.136 0 1.936-.464 2.608-1.168l.768.688c-.832.928-1.84 1.552-3.408 1.552-2.272 0-4.128-1.744-4.128-4.32 0-2.4 1.68-4.32 3.968-4.32 2.448 0 3.856 1.952 3.856 4.384 0 .112 0 .24-.016.432h-6.56Zm0-.992h5.328c-.144-1.504-1.008-2.784-2.64-2.784-1.424 0-2.512 1.184-2.688 2.784Zm11.469 4.784c-1.184 0-2.496-.464-3.424-1.216l.624-.88c.896.672 1.888 1.056 2.864 1.056.992 0 1.712-.512 1.712-1.312v-.032c0-.832-.976-1.152-2.064-1.456-1.296-.368-2.736-.816-2.736-2.336v-.032c0-1.424 1.184-2.368 2.816-2.368 1.008 0 2.128.352 2.976.912l-.56.928c-.768-.496-1.648-.8-2.448-.8-.976 0-1.6.512-1.6 1.2v.032c0 .784 1.024 1.088 2.128 1.424 1.28.384 2.656.88 2.656 2.368v.032c0 1.568-1.296 2.48-2.944 2.48Zm7.844-.016c-1.328 0-2.336-.656-2.336-2.336v-4.992h-1.152v-1.088h1.152v-2.496h1.232v2.496h2.624v1.088h-2.624v4.832c0 1.008.56 1.376 1.392 1.376.416 0 .768-.08 1.2-.288v1.056a3.099 3.099 0 0 1-1.488.352Zm6.437.016c-1.184 0-2.496-.464-3.424-1.216l.624-.88c.896.672 1.888 1.056 2.864 1.056.992 0 1.712-.512 1.712-1.312v-.032c0-.832-.976-1.152-2.064-1.456-1.296-.368-2.736-.816-2.736-2.336v-.032c0-1.424 1.184-2.368 2.816-2.368 1.008 0 2.128.352 2.976.912l-.56.928c-.768-.496-1.648-.8-2.448-.8-.976 0-1.6.512-1.6 1.2v.032c0 .784 1.024 1.088 2.128 1.424 1.28.384 2.656.88 2.656 2.368v.032c0 1.568-1.296 2.48-2.944 2.48Zm5.089-.16v-1.68h1.472v1.68h-1.472ZM124.454 480.964v-14.7h2.751l4.473 6.951 4.473-6.951h2.751v14.7h-2.583v-10.542l-4.641 6.93h-.084l-4.599-6.888v10.5h-2.541Zm23.02.252c-3.213 0-5.691-2.331-5.691-5.754v-.042c0-3.171 2.247-5.775 5.418-5.775 3.528 0 5.313 2.772 5.313 5.964 0 .231-.021.462-.042.714h-8.148c.273 1.806 1.554 2.814 3.192 2.814 1.239 0 2.121-.462 3.003-1.323l1.491 1.323c-1.05 1.26-2.499 2.079-4.536 2.079Zm-3.171-6.573h5.691c-.168-1.638-1.134-2.919-2.814-2.919-1.554 0-2.646 1.197-2.877 2.919Zm14.48 6.51c-1.869 0-3.192-.819-3.192-3.255v-5.838h-1.407v-2.184h1.407v-3.045h2.541v3.045h2.982v2.184h-2.982v5.439c0 .987.504 1.386 1.365 1.386.567 0 1.071-.126 1.575-.378v2.079c-.63.357-1.344.567-2.289.567Zm4.896-.189v-11.088h2.541v2.499c.693-1.659 1.974-2.793 3.927-2.709v2.688H170c-2.226 0-3.78 1.449-3.78 4.389v4.221h-2.541Zm8.717-12.789v-2.415h2.73v2.415h-2.73Zm.105 12.789v-11.088h2.541v11.088h-2.541Zm10.986.252c-3.297 0-5.733-2.583-5.733-5.733v-.042c0-3.15 2.436-5.796 5.754-5.796 2.1 0 3.402.777 4.431 1.911l-1.575 1.701c-.777-.819-1.596-1.386-2.877-1.386-1.848 0-3.192 1.596-3.192 3.528v.042c0 1.974 1.365 3.57 3.318 3.57 1.197 0 2.079-.567 2.877-1.386l1.533 1.512c-1.092 1.218-2.373 2.079-4.536 2.079Zm13.61-.252v-14.7h2.583v14.7h-2.583Zm6.224 0v-11.088h2.541v1.68c.714-.987 1.68-1.911 3.381-1.911 1.596 0 2.709.777 3.297 1.953.903-1.176 2.079-1.953 3.759-1.953 2.415 0 3.885 1.533 3.885 4.242v7.077h-2.541v-6.3c0-1.764-.819-2.709-2.247-2.709-1.386 0-2.373.966-2.373 2.751v6.258h-2.541v-6.321c0-1.722-.84-2.688-2.247-2.688s-2.373 1.05-2.373 2.772v6.237h-2.541Zm19.954 3.36v-14.448h2.541v1.848c.819-1.155 1.974-2.079 3.759-2.079 2.625 0 5.166 2.079 5.166 5.754v.042c0 3.675-2.52 5.754-5.166 5.754-1.827 0-2.982-.924-3.759-1.953v5.082h-2.541Zm5.712-5.334c1.743 0 3.171-1.365 3.171-3.549v-.042c0-2.142-1.449-3.549-3.171-3.549-1.722 0-3.234 1.428-3.234 3.549v.042c0 2.142 1.512 3.549 3.234 3.549Zm13.627 2.226c-3.381 0-5.88-2.583-5.88-5.733v-.042c0-3.171 2.52-5.796 5.922-5.796 3.402 0 5.901 2.583 5.901 5.754v.042c0 3.15-2.52 5.775-5.943 5.775Zm.042-2.205c2.058 0 3.36-1.617 3.36-3.528v-.042c0-1.953-1.407-3.57-3.402-3.57-2.037 0-3.339 1.596-3.339 3.528v.042c0 1.932 1.407 3.57 3.381 3.57Zm8.489 1.953v-11.088h2.541v2.499c.693-1.659 1.974-2.793 3.927-2.709v2.688h-.147c-2.226 0-3.78 1.449-3.78 4.389v4.221h-2.541Zm12.392.189c-1.869 0-3.192-.819-3.192-3.255v-5.838h-1.407v-2.184h1.407v-3.045h2.541v3.045h2.982v2.184h-2.982v5.439c0 .987.504 1.386 1.365 1.386.567 0 1.071-.126 1.575-.378v2.079c-.63.357-1.344.567-2.289.567Zm-139.277 26.19v-11.2h1.264v11.2h-1.264Zm4.337 0v-8.272h1.232v1.392c.544-.816 1.28-1.568 2.672-1.568 1.344 0 2.208.72 2.656 1.648.592-.912 1.472-1.648 2.912-1.648 1.904 0 3.072 1.28 3.072 3.328v5.12h-1.232v-4.832c0-1.6-.8-2.496-2.144-2.496-1.248 0-2.288.928-2.288 2.56v4.768h-1.216v-4.864c0-1.552-.816-2.464-2.128-2.464-1.312 0-2.304 1.088-2.304 2.608v4.72h-1.232Zm15.218 2.56v-10.832h1.232v1.664c.672-.992 1.648-1.84 3.168-1.84 1.984 0 3.952 1.568 3.952 4.288v.032c0 2.704-1.952 4.304-3.952 4.304-1.536 0-2.528-.832-3.168-1.76v4.144h-1.232Zm4.176-3.488c1.6 0 2.912-1.184 2.912-3.184v-.032c0-1.952-1.344-3.2-2.912-3.2-1.536 0-2.992 1.296-2.992 3.184v.032c0 1.92 1.456 3.2 2.992 3.2Zm10.225 1.12c-2.48 0-4.288-1.952-4.288-4.288v-.032c0-2.336 1.824-4.32 4.32-4.32 2.48 0 4.304 1.952 4.304 4.288v.032c0 2.336-1.84 4.32-4.336 4.32Zm.032-1.104c1.792 0 3.04-1.44 3.04-3.184v-.032c0-1.776-1.328-3.232-3.072-3.232-1.792 0-3.024 1.456-3.024 3.2v.032c0 1.776 1.312 3.216 3.056 3.216Zm6.536.912v-8.272h1.232v2.16c.608-1.376 1.808-2.368 3.376-2.304v1.328h-.096c-1.808 0-3.28 1.296-3.28 3.792v3.296h-1.232Zm9.253.144c-1.328 0-2.336-.656-2.336-2.336v-4.992h-1.152v-1.088h1.152v-2.496h1.232v2.496h2.624v1.088h-2.624v4.832c0 1.008.56 1.376 1.392 1.376.416 0 .768-.08 1.2-.288v1.056a3.099 3.099 0 0 1-1.488.352Zm8.497-.144v-11.68h1.232v4.848c.544-.896 1.408-1.616 2.832-1.616 2 0 3.168 1.344 3.168 3.312v5.136h-1.232v-4.832c0-1.536-.832-2.496-2.288-2.496-1.424 0-2.48 1.04-2.48 2.592v4.736h-1.232Zm9.892-10.08v-1.36h1.408v1.36h-1.408Zm.08 10.08v-8.272h1.232v8.272h-1.232Zm6.827.16c-1.184 0-2.496-.464-3.424-1.216l.624-.88c.896.672 1.888 1.056 2.864 1.056.992 0 1.712-.512 1.712-1.312v-.032c0-.832-.976-1.152-2.064-1.456-1.296-.368-2.736-.816-2.736-2.336v-.032c0-1.424 1.184-2.368 2.816-2.368 1.008 0 2.128.352 2.976.912l-.56.928c-.768-.496-1.648-.8-2.448-.8-.976 0-1.6.512-1.6 1.2v.032c0 .784 1.024 1.088 2.128 1.424 1.28.384 2.656.88 2.656 2.368v.032c0 1.568-1.296 2.48-2.944 2.48Zm7.844-.016c-1.328 0-2.336-.656-2.336-2.336v-4.992h-1.152v-1.088h1.152v-2.496h1.232v2.496h2.624v1.088h-2.624v4.832c0 1.008.56 1.376 1.392 1.376.416 0 .768-.08 1.2-.288v1.056a3.099 3.099 0 0 1-1.488.352Zm7.243.048c-2.48 0-4.288-1.952-4.288-4.288v-.032c0-2.336 1.824-4.32 4.32-4.32 2.48 0 4.304 1.952 4.304 4.288v.032c0 2.336-1.84 4.32-4.336 4.32Zm.032-1.104c1.792 0 3.04-1.44 3.04-3.184v-.032c0-1.776-1.328-3.232-3.072-3.232-1.792 0-3.024 1.456-3.024 3.2v.032c0 1.776 1.312 3.216 3.056 3.216Zm6.535.912v-8.272h1.232v2.16c.608-1.376 1.808-2.368 3.376-2.304v1.328h-.096c-1.808 0-3.28 1.296-3.28 3.792v3.296h-1.232Zm6.517-10.08v-1.36h1.408v1.36h-1.408Zm.08 10.08v-8.272h1.232v8.272h-1.232Zm7.819.192c-2.416 0-4.24-1.968-4.24-4.288v-.032c0-2.336 1.824-4.32 4.24-4.32 1.568 0 2.544.656 3.312 1.472l-.816.864c-.656-.688-1.392-1.248-2.512-1.248-1.68 0-2.96 1.424-2.96 3.2v.032c0 1.792 1.312 3.216 3.04 3.216 1.056 0 1.872-.528 2.528-1.232l.784.736c-.832.928-1.824 1.6-3.376 1.6Zm7.876-.016c-1.552 0-3.088-.88-3.088-2.576v-.032c0-1.776 1.44-2.704 3.536-2.704 1.056 0 1.792.144 2.528.352v-.256c0-1.472-.896-2.24-2.448-2.24-.976 0-1.744.24-2.512.592l-.368-1.008c.912-.416 1.792-.704 3.008-.704 1.168 0 2.08.32 2.672.912.576.576.864 1.376.864 2.432v5.056h-1.216v-1.232c-.576.736-1.52 1.408-2.976 1.408Zm.24-.992c1.52 0 2.752-.912 2.752-2.224v-.768a8.504 8.504 0 0 0-2.416-.352c-1.536 0-2.416.672-2.416 1.664v.032c0 1.04.96 1.648 2.08 1.648Zm6.674.816v-11.68h1.232v11.68h-1.232Zm11.352.176c-1.552 0-3.088-.88-3.088-2.576v-.032c0-1.776 1.44-2.704 3.536-2.704 1.056 0 1.792.144 2.528.352v-.256c0-1.472-.896-2.24-2.448-2.24-.976 0-1.744.24-2.512.592l-.368-1.008c.912-.416 1.792-.704 3.008-.704 1.168 0 2.08.32 2.672.912.576.576.864 1.376.864 2.432v5.056h-1.216v-1.232c-.576.736-1.52 1.408-2.976 1.408Zm.24-.992c1.52 0 2.752-.912 2.752-2.224v-.768a8.504 8.504 0 0 0-2.416-.352c-1.536 0-2.416.672-2.416 1.664v.032c0 1.04.96 1.648 2.08 1.648Zm6.562.816v-8.272h1.232v1.44c.544-.896 1.408-1.616 2.832-1.616 2 0 3.168 1.344 3.168 3.312v5.136h-1.232v-4.832c0-1.536-.832-2.496-2.288-2.496-1.424 0-2.48 1.04-2.48 2.592v4.736h-1.232Zm13.331.176c-1.984 0-3.952-1.568-3.952-4.288v-.032c0-2.704 1.968-4.304 3.952-4.304 1.536 0 2.528.832 3.168 1.76v-4.992h1.232v11.68h-1.232v-1.664c-.672.992-1.648 1.84-3.168 1.84Zm.224-1.104c1.536 0 2.992-1.296 2.992-3.2v-.032c0-1.904-1.456-3.184-2.992-3.184-1.6 0-2.912 1.184-2.912 3.184v.032c0 1.952 1.344 3.2 2.912 3.2Zm16.126 1.104c-1.536 0-2.528-.832-3.168-1.76v1.584h-1.232v-11.68h1.232v5.072c.672-.992 1.648-1.84 3.168-1.84 1.984 0 3.952 1.568 3.952 4.288v.032c0 2.704-1.952 4.304-3.952 4.304Zm-.224-1.104c1.6 0 2.912-1.184 2.912-3.184v-.032c0-1.952-1.344-3.2-2.912-3.2-1.536 0-2.992 1.296-2.992 3.184v.032c0 1.92 1.456 3.2 2.992 3.2Zm9.489 1.104c-2 0-3.168-1.344-3.168-3.312v-5.136h1.232v4.832c0 1.536.832 2.496 2.288 2.496 1.408 0 2.48-1.04 2.48-2.592v-4.736h1.216v8.272h-1.216v-1.44c-.56.896-1.408 1.616-2.832 1.616Zm6.931-.176v-11.68h1.232v11.68h-1.232Zm4.091 0v-11.68h1.232v8.064l4.464-4.656h1.536l-3.472 3.552 3.584 4.72h-1.472l-2.96-3.856-1.68 1.696v2.16h-1.232Zm17.379.176c-1.984 0-3.952-1.568-3.952-4.288v-.032c0-2.704 1.968-4.304 3.952-4.304 1.536 0 2.528.832 3.168 1.76v-4.992h1.232v11.68h-1.232v-1.664c-.672.992-1.648 1.84-3.168 1.84Zm.224-1.104c1.536 0 2.992-1.296 2.992-3.2v-.032c0-1.904-1.456-3.184-2.992-3.184-1.6 0-2.912 1.184-2.912 3.184v.032c0 1.952 1.344 3.2 2.912 3.2Zm9.393 1.104c-1.552 0-3.088-.88-3.088-2.576v-.032c0-1.776 1.44-2.704 3.536-2.704 1.056 0 1.792.144 2.528.352v-.256c0-1.472-.896-2.24-2.448-2.24-.976 0-1.744.24-2.512.592l-.368-1.008c.912-.416 1.792-.704 3.008-.704 1.168 0 2.08.32 2.672.912.576.576.864 1.376.864 2.432v5.056h-1.216v-1.232c-.576.736-1.52 1.408-2.976 1.408Zm.24-.992c1.52 0 2.752-.912 2.752-2.224v-.768a8.504 8.504 0 0 0-2.416-.352c-1.536 0-2.416.672-2.416 1.664v.032c0 1.04.96 1.648 2.08 1.648Zm9.251.96c-1.328 0-2.336-.656-2.336-2.336v-4.992h-1.152v-1.088h1.152v-2.496h1.232v2.496h2.624v1.088h-2.624v4.832c0 1.008.56 1.376 1.392 1.376.416 0 .768-.08 1.2-.288v1.056a3.099 3.099 0 0 1-1.488.352Zm6.165.032c-1.552 0-3.088-.88-3.088-2.576v-.032c0-1.776 1.44-2.704 3.536-2.704 1.056 0 1.792.144 2.528.352v-.256c0-1.472-.896-2.24-2.448-2.24-.976 0-1.744.24-2.512.592l-.368-1.008c.912-.416 1.792-.704 3.008-.704 1.168 0 2.08.32 2.672.912.576.576.864 1.376.864 2.432v5.056h-1.216v-1.232c-.576.736-1.52 1.408-2.976 1.408Zm.24-.992c1.52 0 2.752-.912 2.752-2.224v-.768a8.504 8.504 0 0 0-2.416-.352c-1.536 0-2.416.672-2.416 1.664v.032c0 1.04.96 1.648 2.08 1.648Zm11.39-9.264v-1.36h1.408v1.36h-1.408Zm.08 10.08v-8.272h1.232v8.272h-1.232Zm4.092 0v-8.272h1.232v1.44c.544-.896 1.408-1.616 2.832-1.616 2 0 3.168 1.344 3.168 3.312v5.136h-1.232v-4.832c0-1.536-.832-2.496-2.288-2.496-1.424 0-2.48 1.04-2.48 2.592v4.736h-1.232Zm12.627.144c-1.328 0-2.336-.656-2.336-2.336v-4.992h-1.152v-1.088h1.152v-2.496h1.232v2.496h2.624v1.088h-2.624v4.832c0 1.008.56 1.376 1.392 1.376.416 0 .768-.08 1.2-.288v1.056a3.099 3.099 0 0 1-1.488.352Zm7.242.048c-2.48 0-4.288-1.952-4.288-4.288v-.032c0-2.336 1.824-4.32 4.32-4.32 2.48 0 4.304 1.952 4.304 4.288v.032c0 2.336-1.84 4.32-4.336 4.32Zm.032-1.104c1.792 0 3.04-1.44 3.04-3.184v-.032c0-1.776-1.328-3.232-3.072-3.232-1.792 0-3.024 1.456-3.024 3.2v.032c0 1.776 1.312 3.216 3.056 3.216Zm15.397.992-4.816-11.28h1.408l3.984 9.648 4-9.648h1.36l-4.816 11.28h-1.12Zm7.655-10.16v-1.36h1.408v1.36h-1.408Zm.08 10.08v-8.272h1.232v8.272h-1.232Zm6.828.16c-1.184 0-2.496-.464-3.424-1.216l.624-.88c.896.672 1.888 1.056 2.864 1.056.992 0 1.712-.512 1.712-1.312v-.032c0-.832-.976-1.152-2.064-1.456-1.296-.368-2.736-.816-2.736-2.336v-.032c0-1.424 1.184-2.368 2.816-2.368 1.008 0 2.128.352 2.976.912l-.56.928c-.768-.496-1.648-.8-2.448-.8-.976 0-1.6.512-1.6 1.2v.032c0 .784 1.024 1.088 2.128 1.424 1.28.384 2.656.88 2.656 2.368v.032c0 1.568-1.296 2.48-2.944 2.48Zm5.264-10.24v-1.36h1.408v1.36h-1.408Zm.08 10.08v-8.272h1.232v8.272h-1.232Zm8.491.176c-1.536 0-2.528-.832-3.168-1.76v1.584h-1.232v-11.68h1.232v5.072c.672-.992 1.648-1.84 3.168-1.84 1.984 0 3.952 1.568 3.952 4.288v.032c0 2.704-1.952 4.304-3.952 4.304Zm-.224-1.104c1.6 0 2.912-1.184 2.912-3.184v-.032c0-1.952-1.344-3.2-2.912-3.2-1.536 0-2.992 1.296-2.992 3.184v.032c0 1.92 1.456 3.2 2.992 3.2Zm6.561.928v-11.68h1.232v11.68h-1.232Zm4.828-3.632c.176 1.744 1.456 2.752 2.912 2.752 1.136 0 1.936-.464 2.608-1.168l.768.688c-.832.928-1.84 1.552-3.408 1.552-2.272 0-4.128-1.744-4.128-4.32 0-2.4 1.68-4.32 3.968-4.32 2.448 0 3.856 1.952 3.856 4.384 0 .112 0 .24-.016.432h-6.56Zm0-.992h5.328c-.144-1.504-1.008-2.784-2.64-2.784-1.424 0-2.512 1.184-2.688 2.784Zm16.569 4.8c-2 0-3.168-1.344-3.168-3.312v-5.136h1.232v4.832c0 1.536.832 2.496 2.288 2.496 1.408 0 2.48-1.04 2.48-2.592v-4.736h1.216v8.272h-1.216v-1.44c-.56.896-1.408 1.616-2.832 1.616Zm9.556-.016c-1.184 0-2.496-.464-3.424-1.216l.624-.88c.896.672 1.888 1.056 2.864 1.056.992 0 1.712-.512 1.712-1.312v-.032c0-.832-.976-1.152-2.064-1.456-1.296-.368-2.736-.816-2.736-2.336v-.032c0-1.424 1.184-2.368 2.816-2.368 1.008 0 2.128.352 2.976.912l-.56.928c-.768-.496-1.648-.8-2.448-.8-.976 0-1.6.512-1.6 1.2v.032c0 .784 1.024 1.088 2.128 1.424 1.28.384 2.656.88 2.656 2.368v.032c0 1.568-1.296 2.48-2.944 2.48Zm5.264-10.24v-1.36h1.408v1.36h-1.408Zm.08 10.08v-8.272h1.232v8.272h-1.232Zm4.091 0v-8.272h1.232v1.44c.544-.896 1.408-1.616 2.832-1.616 2 0 3.168 1.344 3.168 3.312v5.136h-1.232v-4.832c0-1.536-.832-2.496-2.288-2.496-1.424 0-2.48 1.04-2.48 2.592v4.736h-1.232Zm13.524 2.592c-1.376 0-2.656-.384-3.76-1.152l.56-.96c.944.688 2 1.056 3.184 1.056 1.824 0 3.008-1.008 3.008-2.944v-.976c-.72.96-1.728 1.744-3.248 1.744-1.984 0-3.888-1.488-3.888-3.872v-.032c0-2.416 1.92-3.904 3.888-3.904 1.552 0 2.56.768 3.232 1.664v-1.488h1.232v6.832c0 1.28-.384 2.256-1.056 2.928-.736.736-1.84 1.104-3.152 1.104Zm-.016-4.32c1.568 0 3.04-1.136 3.04-2.8v-.032c0-1.696-1.472-2.8-3.04-2.8s-2.864 1.088-2.864 2.784v.032c0 1.664 1.328 2.816 2.864 2.816Zm15.55 1.92c-2.48 0-4.288-1.952-4.288-4.288v-.032c0-2.336 1.824-4.32 4.32-4.32 2.48 0 4.304 1.952 4.304 4.288v.032c0 2.336-1.84 4.32-4.336 4.32Zm.032-1.104c1.792 0 3.04-1.44 3.04-3.184v-.032c0-1.776-1.328-3.232-3.072-3.232-1.792 0-3.024 1.456-3.024 3.2v.032c0 1.776 1.312 3.216 3.056 3.216Zm9.575 1.088c-2 0-3.168-1.344-3.168-3.312v-5.136h1.232v4.832c0 1.536.832 2.496 2.288 2.496 1.408 0 2.48-1.04 2.48-2.592v-4.736h1.216v8.272h-1.216v-1.44c-.56.896-1.408 1.616-2.832 1.616Zm6.82-.176v-8.272h1.232v2.16c.608-1.376 1.808-2.368 3.376-2.304v1.328h-.096c-1.808 0-3.28 1.296-3.28 3.792v3.296h-1.232Zm14.753.176c-1.984 0-3.952-1.568-3.952-4.288v-.032c0-2.704 1.968-4.304 3.952-4.304 1.536 0 2.528.832 3.168 1.76v-4.992h1.232v11.68h-1.232v-1.664c-.672.992-1.648 1.84-3.168 1.84Zm.224-1.104c1.536 0 2.992-1.296 2.992-3.2v-.032c0-1.904-1.456-3.184-2.992-3.184-1.6 0-2.912 1.184-2.912 3.184v.032c0 1.952 1.344 3.2 2.912 3.2Zm9.393 1.104c-1.552 0-3.088-.88-3.088-2.576v-.032c0-1.776 1.44-2.704 3.536-2.704 1.056 0 1.792.144 2.528.352v-.256c0-1.472-.896-2.24-2.448-2.24-.976 0-1.744.24-2.512.592l-.368-1.008c.912-.416 1.792-.704 3.008-.704 1.168 0 2.08.32 2.672.912.576.576.864 1.376.864 2.432v5.056h-1.216v-1.232c-.576.736-1.52 1.408-2.976 1.408Zm.24-.992c1.52 0 2.752-.912 2.752-2.224v-.768a8.504 8.504 0 0 0-2.416-.352c-1.536 0-2.416.672-2.416 1.664v.032c0 1.04.96 1.648 2.08 1.648Zm9.252.96c-1.328 0-2.336-.656-2.336-2.336v-4.992h-1.152v-1.088h1.152v-2.496h1.232v2.496h2.624v1.088h-2.624v4.832c0 1.008.56 1.376 1.392 1.376.416 0 .768-.08 1.2-.288v1.056a3.099 3.099 0 0 1-1.488.352Zm6.164.032c-1.552 0-3.088-.88-3.088-2.576v-.032c0-1.776 1.44-2.704 3.536-2.704 1.056 0 1.792.144 2.528.352v-.256c0-1.472-.896-2.24-2.448-2.24-.976 0-1.744.24-2.512.592l-.368-1.008c.912-.416 1.792-.704 3.008-.704 1.168 0 2.08.32 2.672.912.576.576.864 1.376.864 2.432v5.056h-1.216v-1.232c-.576.736-1.52 1.408-2.976 1.408Zm.24-.992c1.52 0 2.752-.912 2.752-2.224v-.768a8.504 8.504 0 0 0-2.416-.352c-1.536 0-2.416.672-2.416 1.664v.032c0 1.04.96 1.648 2.08 1.648Zm11.391-9.264v-1.36h1.408v1.36h-1.408Zm.08 10.08v-8.272h1.232v8.272h-1.232Zm4.091 0v-8.272h1.232v1.392c.544-.816 1.28-1.568 2.672-1.568 1.344 0 2.208.72 2.656 1.648.592-.912 1.472-1.648 2.912-1.648 1.904 0 3.072 1.28 3.072 3.328v5.12h-1.232v-4.832c0-1.6-.8-2.496-2.144-2.496-1.248 0-2.288.928-2.288 2.56v4.768h-1.216v-4.864c0-1.552-.816-2.464-2.128-2.464-1.312 0-2.304 1.088-2.304 2.608v4.72h-1.232Zm15.219 2.56v-10.832h1.232v1.664c.672-.992 1.648-1.84 3.168-1.84 1.984 0 3.952 1.568 3.952 4.288v.032c0 2.704-1.952 4.304-3.952 4.304-1.536 0-2.528-.832-3.168-1.76v4.144h-1.232Zm4.176-3.488c1.6 0 2.912-1.184 2.912-3.184v-.032c0-1.952-1.344-3.2-2.912-3.2-1.536 0-2.992 1.296-2.992 3.184v.032c0 1.92 1.456 3.2 2.992 3.2Zm10.225 1.12c-2.48 0-4.288-1.952-4.288-4.288v-.032c0-2.336 1.824-4.32 4.32-4.32 2.48 0 4.304 1.952 4.304 4.288v.032c0 2.336-1.84 4.32-4.336 4.32Zm.032-1.104c1.792 0 3.04-1.44 3.04-3.184v-.032c0-1.776-1.328-3.232-3.072-3.232-1.792 0-3.024 1.456-3.024 3.2v.032c0 1.776 1.312 3.216 3.056 3.216Zm6.535.912v-8.272h1.232v2.16c.608-1.376 1.808-2.368 3.376-2.304v1.328h-.096c-1.808 0-3.28 1.296-3.28 3.792v3.296h-1.232Zm9.253.144c-1.328 0-2.336-.656-2.336-2.336v-4.992h-1.152v-1.088h1.152v-2.496h1.232v2.496h2.624v1.088h-2.624v4.832c0 1.008.56 1.376 1.392 1.376.416 0 .768-.08 1.2-.288v1.056a3.099 3.099 0 0 1-1.488.352Zm4.202-3.776c.176 1.744 1.456 2.752 2.912 2.752 1.136 0 1.936-.464 2.608-1.168l.768.688c-.832.928-1.84 1.552-3.408 1.552-2.272 0-4.128-1.744-4.128-4.32 0-2.4 1.68-4.32 3.968-4.32 2.448 0 3.856 1.952 3.856 4.384 0 .112 0 .24-.016.432h-6.56Zm0-.992h5.328c-.144-1.504-1.008-2.784-2.64-2.784-1.424 0-2.512 1.184-2.688 2.784Zm8.733 4.624v-8.272h1.232v2.16c.608-1.376 1.808-2.368 3.376-2.304v1.328h-.096c-1.808 0-3.28 1.296-3.28 3.792v3.296h-1.232Zm14.049.144c-1.328 0-2.336-.656-2.336-2.336v-4.992h-1.152v-1.088h1.152v-2.496h1.232v2.496h2.624v1.088h-2.624v4.832c0 1.008.56 1.376 1.392 1.376.416 0 .768-.08 1.2-.288v1.056a3.099 3.099 0 0 1-1.488.352Zm7.243.048c-2.48 0-4.288-1.952-4.288-4.288v-.032c0-2.336 1.824-4.32 4.32-4.32 2.48 0 4.304 1.952 4.304 4.288v.032c0 2.336-1.84 4.32-4.336 4.32Zm.032-1.104c1.792 0 3.04-1.44 3.04-3.184v-.032c0-1.776-1.328-3.232-3.072-3.232-1.792 0-3.024 1.456-3.024 3.2v.032c0 1.776 1.312 3.216 3.056 3.216Zm10.311 1.104c-2.48 0-4.288-1.952-4.288-4.288v-.032c0-2.336 1.824-4.32 4.32-4.32 2.48 0 4.304 1.952 4.304 4.288v.032c0 2.336-1.84 4.32-4.336 4.32Zm.032-1.104c1.792 0 3.04-1.44 3.04-3.184v-.032c0-1.776-1.328-3.232-3.072-3.232-1.792 0-3.024 1.456-3.024 3.2v.032c0 1.776 1.312 3.216 3.056 3.216Zm6.648.912v-11.68h1.232v11.68h-1.232Zm3.947 0v-1.68h1.472v1.68h-1.472Z"/>
  <rect width="60" height="60" x="42.623" y="457.654" stroke="url(#e)" stroke-width="2" rx="7"/>
  <path fill="url(#f)" d="M83.623 477.654v5h-10v-5h10Zm0-2h-10a2 2 0 0 0-2 2v5a2 2 0 0 0 2 2h10a2 2 0 0 0 2-2v-5a2 2 0 0 0-2-2Z"/>
  <path fill="url(#g)" d="M68.623 496.654h-6v-8h6v-2h-6a2 2 0 0 0-2 2v8a2 2 0 0 0 2 2h6v-2Z"/>
  <path fill="url(#h)" d="M86.623 491.654H73.451l2.586-2.586-1.414-1.414-5 5 5 5 1.414-1.414-2.586-2.586h13.172v-2Z"/>
  <path fill="url(#i)" d="M67.623 477.654v5h-5v-5h5Zm0-2h-5a2 2 0 0 0-2 2v5a2 2 0 0 0 2 2h5a2 2 0 0 0 2-2v-5a2 2 0 0 0-2-2Z"/>
  <g filter="url(#j)" opacity=".11">
    <rect width="200" height="200" x="975" y="178.989" fill="url(#k)" rx="8"/>
  </g>
  <rect width="190.476" height="190.476" x="981.762" y="183.751" fill="#18181B" rx="8"/>
  <path fill="#fff" fill-opacity=".4" fill-rule="evenodd" d="m1091.71 292.607-32.82-56.852h-33.48l49.56 85.846 16.74-28.994Z" clip-rule="evenodd"/>
  <path fill="#fff" fill-opacity=".6" fill-rule="evenodd" d="m1091.51 235.755 16.51 28.601-16.31 28.251-32.82-56.852h32.62Z" clip-rule="evenodd"/>
  <path fill="#fff" d="m1108.02 264.356-16.51-28.601h33.02l-16.51 28.601Z"/>
  <path stroke="#71717A" stroke-dasharray="4 4" d="M801.588 60.8h252.702c16.57 0 30 13.432 30 30v92.51">
    <animate attributeName="stroke-dashoffset" dur="2s" repeatCount="indefinite" values="40;0"/>
  </path>
  <rect width="60" height="60" x="42.623" y="315.533" stroke="url(#l)" stroke-width="2" rx="7"/>
  <path fill="url(#m)" d="M69.42 343.555h-6.11v1.678h6.111v-1.678Z"/>
  <path fill="url(#n)" d="m62.697 352.923 1.02 1.019 4.074-4.074 5.093 4.074 4.074-5.093-1.018-1.019-3.056 4.075-5.093-4.075-5.093 5.093Z"/>
  <path fill="url(#o)" d="m79.403 344.42.001-.001-.001-.001v.002Z"/>
  <path fill="url(#p)" fill-rule="evenodd" d="M86.623 339.408a7.878 7.878 0 0 1-5.59 7.538v10.841c0 .964-.782 1.746-1.746 1.746H60.369a1.746 1.746 0 0 1-1.746-1.746v-23.351c0-.964.782-1.746 1.746-1.746h14.267a7.874 7.874 0 0 1 11.987 6.718Zm-7.336 18.448v-10.591a7.878 7.878 0 0 1-7.931-5.137H63.68v-1.678h7.26a7.946 7.946 0 0 1-.059-1.424H63.86v-1.679h7.284a7.847 7.847 0 0 1 1.551-2.978H60.369v23.487h18.918Zm-.01-13.354a.381.381 0 0 0 .126-.082v.028l.593-.57a.334.334 0 0 0 .126-.254.252.252 0 0 0-.032-.128.271.271 0 0 0-.094-.099l-3.529-3.128h7.78a.393.393 0 0 0 .267-.098.316.316 0 0 0 .109-.242v-.796a.304.304 0 0 0-.027-.131.386.386 0 0 0-.347-.209h-7.782l3.53-3.123a.264.264 0 0 0 .126-.228.329.329 0 0 0-.034-.14.36.36 0 0 0-.091-.116l-.595-.539a.419.419 0 0 0-.28-.114.323.323 0 0 0-.141.028.296.296 0 0 0-.11.086l-5.156 4.656a.294.294 0 0 0-.093.228c0 .095.03.179.093.256l5.156 4.661a.36.36 0 0 0 .251.085.423.423 0 0 0 .154-.031Z" clip-rule="evenodd"/>
  <defs>
    <linearGradient id="a" x1="72.623" x2="72.623" y1="30.291" y2="92.291" gradientUnits="userSpaceOnUse">
      <stop stop-color="#5CB7F2"/>
      <stop offset="1" stop-color="#5CB7F2" stop-opacity=".18"/>
    </linearGradient>
    <linearGradient id="b" x1="72.623" x2="72.623" y1="45.98" y2="75.98" gradientUnits="userSpaceOnUse">
      <stop stop-color="#5CB7F2"/>
      <stop offset="1" stop-color="#fff"/>
    </linearGradient>
    <linearGradient id="c" x1="72.623" x2="72.623" y1="172.412" y2="234.412" gradientUnits="userSpaceOnUse">
      <stop stop-color="#4CCE94"/>
      <stop offset="1" stop-color="#4CCE94" stop-opacity=".18"/>
    </linearGradient>
    <linearGradient id="d" x1="72.623" x2="72.623" y1="189.1" y2="217.1" gradientUnits="userSpaceOnUse">
      <stop stop-color="#4CCE94"/>
      <stop offset="1" stop-color="#fff"/>
    </linearGradient>
    <linearGradient id="e" x1="72.623" x2="72.623" y1="456.654" y2="518.654" gradientUnits="userSpaceOnUse">
      <stop stop-color="#0F52DE"/>
      <stop offset="1" stop-color="#0F52DE" stop-opacity=".18"/>
    </linearGradient>
    <linearGradient id="f" x1="73.623" x2="73.623" y1="475.654" y2="498.654" gradientUnits="userSpaceOnUse">
      <stop stop-color="#0F52DE"/>
      <stop offset="1" stop-color="#fff"/>
    </linearGradient>
    <linearGradient id="g" x1="73.623" x2="73.623" y1="475.654" y2="498.654" gradientUnits="userSpaceOnUse">
      <stop stop-color="#0F52DE"/>
      <stop offset="1" stop-color="#fff"/>
    </linearGradient>
    <linearGradient id="h" x1="73.623" x2="73.623" y1="475.654" y2="498.654" gradientUnits="userSpaceOnUse">
      <stop stop-color="#0F52DE"/>
      <stop offset="1" stop-color="#fff"/>
    </linearGradient>
    <linearGradient id="i" x1="73.623" x2="73.623" y1="475.654" y2="498.654" gradientUnits="userSpaceOnUse">
      <stop stop-color="#0F52DE"/>
      <stop offset="1" stop-color="#fff"/>
    </linearGradient>
    <linearGradient id="k" x1="1075.26" x2="1075.26" y1="176.662" y2="382.27" gradientUnits="userSpaceOnUse">
      <stop stop-color="#702EDC"/>
      <stop offset="1" stop-color="#702EDC"/>
    </linearGradient>
    <linearGradient id="l" x1="72.623" x2="72.623" y1="314.533" y2="376.533" gradientUnits="userSpaceOnUse">
      <stop stop-color="#702EDC"/>
      <stop offset="1" stop-color="#702EDC" stop-opacity=".18"/>
    </linearGradient>
    <linearGradient id="m" x1="72.623" x2="72.623" y1="331.533" y2="359.533" gradientUnits="userSpaceOnUse">
      <stop stop-color="#702EDC"/>
      <stop offset="1" stop-color="#fff"/>
    </linearGradient>
    <linearGradient id="n" x1="72.623" x2="72.623" y1="331.533" y2="359.533" gradientUnits="userSpaceOnUse">
      <stop stop-color="#702EDC"/>
      <stop offset="1" stop-color="#fff"/>
    </linearGradient>
    <linearGradient id="o" x1="72.623" x2="72.623" y1="331.533" y2="359.533" gradientUnits="userSpaceOnUse">
      <stop stop-color="#702EDC"/>
      <stop offset="1" stop-color="#fff"/>
    </linearGradient>
    <linearGradient id="p" x1="72.623" x2="72.623" y1="331.533" y2="359.533" gradientUnits="userSpaceOnUse">
      <stop stop-color="#702EDC"/>
      <stop offset="1" stop-color="#fff"/>
    </linearGradient>
    <filter id="j" width="400" height="400" x="875" y="78.989" color-interpolation-filters="sRGB" filterUnits="userSpaceOnUse">
      <feFlood flood-opacity="0" result="BackgroundImageFix"/>
      <feBlend in="SourceGraphic" in2="BackgroundImageFix" result="shape"/>
      <feGaussianBlur result="effect1_foregroundBlur_2817_314" stdDeviation="50"/>
    </filter>
  </defs>
</svg>