<svg xmlns="http://www.w3.org/2000/svg" fill="none" viewBox="0 0 104 28">
  <mask id="a" width="104" height="28" x="0" y="0" maskUnits="userSpaceOnUse" style="mask-type:luminance">
    <path fill="#fff" d="M103.122 0H0v28h103.122V0Z"/>
  </mask>
  <g fill="#fff" mask="url(#a)">
    <path d="M0 21.637c.043-.154.095-.306.128-.462.34-1.64 1.374-2.719 2.77-3.498 1.656-.925 3.463-1.406 5.306-1.73 1.73-.305 3.476-.519 5.218-.762.556-.079.808-.297.76-.86-.07-.805-.127-1.627-.333-2.402-.405-1.516-1.422-2.494-2.917-2.907-1.814-.5-3.62-.492-5.355.326-1.384.652-2.248 1.752-2.574 3.272-.113.526-.276.653-.82.657-.288.002-.574.007-.86-.002-.514-.014-.784-.304-.647-.806.17-.619.373-1.245.67-1.81C2.3 8.825 3.83 7.672 5.763 7.084c2.021-.614 4.067-.587 6.097-.036 2.417.656 3.812 2.315 4.328 4.74.174.816.26 1.665.27 2.5.031 2.885-.003 5.771.02 8.657.008 1.227.1 2.453.147 3.68.023.596-.175.797-.763.8-.3 0-.6.006-.9-.003-.388-.013-.596-.221-.623-.617-.024-.344-.007-.695-.073-1.03-.036-.187-.168-.425-.321-.496-.132-.061-.417.024-.532.145-1.66 1.738-3.764 2.358-6.062 2.488-1.392.079-2.754-.067-4.038-.66-1.749-.807-2.921-2.09-3.236-4.068-.008-.05-.05-.093-.076-.14v-1.408L0 21.637Zm7.259 4.266c.42-.036.844-.051 1.262-.112 2.471-.358 4.284-1.594 5.21-4.014.46-1.204.563-2.464.594-3.734.015-.593-.33-.892-.927-.798-2.004.315-4.012.613-6.001 1.007-1.242.246-2.456.657-3.492 1.444-1.976 1.502-1.749 4.338.434 5.52.913.495 1.895.67 2.92.687ZM23.347.013c.337.21.434.513.42.907-.027.7-.004 1.403-.01 2.104-.004.496-.207.698-.691.704-.313.004-.626.007-.94 0-.394-.012-.634-.239-.64-.643-.013-.798-.033-1.597.014-2.393.014-.233.241-.452.372-.68h1.475Zm71.733 17.94h-7.003c-.8 0-1.006.2-.924 1.017.339 3.394 2.347 6.095 5.733 6.69 2.31.407 4.488.085 6.191-1.722.512-.544.86-1.264 1.207-1.943.207-.404.416-.655.891-.613.27.024.546 0 .818.006.585.015.839.375.646.939-.676 1.972-1.863 3.559-3.725 4.475-3.372 1.66-6.756 1.61-9.997-.363-1.907-1.16-3.04-2.981-3.641-5.123-.842-2.992-.83-5.985.36-8.876 1.404-3.41 3.986-5.295 7.635-5.626 5.002-.454 8.503 2.765 9.506 7.338.208.948.26 1.935.337 2.908.054.666-.194.89-.868.892-2.39.003-4.778.001-7.167.001Zm-1.148-2.119h5.282c1.319 0 1.482-.2 1.231-1.519-.712-3.74-4.029-6.043-7.721-5.349-3.53.664-5.01 3.426-5.44 6.095-.03.196.16.498.335.637.158.126.437.13.662.132 1.883.01 3.767.005 5.65.005ZM73.66 17.953h-6.922c-.91 0-1.081.186-.98 1.102.22 1.989.938 3.74 2.467 5.068 1.643 1.426 3.588 1.853 5.696 1.624 1.59-.173 2.989-.788 3.996-2.083.407-.523.7-1.144.992-1.746.173-.353.374-.555.774-.533.286.015.573-.001.86.003.632.01.888.372.675.982-.663 1.893-1.83 3.375-3.565 4.371-3.131 1.797-8.15 1.639-11.04-.958-1.603-1.44-2.551-3.253-2.975-5.348-.568-2.805-.49-5.583.685-8.23 1.456-3.28 4.005-5.074 7.546-5.391 4.996-.448 8.537 2.767 9.528 7.465.19.897.249 1.827.31 2.746.048.725-.188.926-.923.927h-7.126.001Zm-1.203-2.118c1.87 0 3.74 0 5.61-.002.177 0 .357-.007.528-.043.373-.08.555-.333.547-.713-.004-.164-.039-.329-.067-.49-.872-4.962-5.55-7.012-9.662-4.96-2.04 1.018-3.015 2.872-3.48 5.042-.186.87.062 1.165.955 1.165 1.856.002 3.713 0 5.57 0Zm-26.825 1.389v7.08c0 .849.205 1.057 1.03 1.058.737 0 1.474-.005 2.21.003.533.006.743.224.75.753.022 1.276-.021 1.33-1.291 1.317-.75-.009-1.503-.007-2.246-.093-1.72-.2-2.488-1.01-2.65-2.75a21.922 21.922 0 0 1-.099-1.98c-.009-4.154-.004-8.31-.005-12.463 0-.855-.182-1.035-1.04-1.036-.531 0-1.063.006-1.595-.002-.468-.007-.69-.24-.708-.717-.043-1.185.067-1.3 1.245-1.3.423 0 .846.003 1.27-.001.582-.006.823-.243.827-.828.006-.98-.001-1.96.003-2.94.003-.613.2-.806.813-.809h.737c.545.005.744.199.746.742.005.952 0 1.904.003 2.856.002.713.26.976.962.979.723.002 1.446-.003 2.17.001.658.004.857.207.859.864 0 .137.002.275 0 .413-.01.5-.233.736-.726.74-.778.007-1.556.002-2.333.002-.69.001-.93.237-.931.947-.004 2.387-.002 4.776-.002 7.163Zm-16.532.062V8.091c0-.806.19-.995.994-.996.137 0 .273-.003.41.001.577.018.775.226.777.813.002.318.004.635 0 .953-.004.281.051.58.352.615.197.021.474-.102.614-.254 1.302-1.413 2.896-2.174 4.803-2.25.686-.027.866.167.867.873 0 .276.003.553 0 .829-.009.513-.242.73-.756.768-.677.051-1.373.045-2.025.21-1.858.473-2.898 1.816-3.337 3.614a14.657 14.657 0 0 0-.417 3.226c-.052 3.354-.019 6.71-.02 10.065 0 .702-.167.868-.872.868-.232 0-.464.004-.696-.001-.412-.008-.632-.203-.685-.61-.017-.123-.009-.25-.009-.373v-9.156Zm24.167-.026V8.023c0-.724.203-.926.93-.93 1.177-.006 1.25.068 1.25 1.253 0 .194-.04.4.012.577.062.203.172.478.33.538.152.058.457-.057.582-.198.833-.938 1.83-1.626 3.023-1.965.648-.183 1.334-.255 2.008-.318.444-.041.664.226.673.688a33.6 33.6 0 0 1 0 .994c-.005.517-.235.747-.745.776-.57.033-1.152.017-1.708.129-2.016.405-3.178 1.752-3.66 3.688a13.793 13.793 0 0 0-.414 3.101c-.05 3.381-.019 6.764-.019 10.146 0 .758-.162.92-.907.92-.19 0-.382.002-.573 0-.569-.002-.78-.215-.781-.804-.002-3.12 0-6.24 0-9.36Zm-29.507.029v9.276c0 .695-.16.858-.833.859-.26 0-.519.005-.778-.002-.418-.01-.644-.24-.666-.667-.004-.082 0-.165 0-.248V8.037c0-.76.183-.941.948-.944 1.298-.005 1.328.026 1.328 1.333v8.863Z"/>
  </g>
</svg>