<svg xmlns="http://www.w3.org/2000/svg" width="103" height="25" fill="none" viewBox="0 0 103 25">
  <path fill="#fff" d="M.887.57C1 .566 1.112.556 1.223.556h23.46c.087 0 .172.003.259.004.117 0 .175.057.175.174l.003.259v23.576c0 .112-.009.223-.013.335-7.995 0-15.99 0-23.986.005-.195 0-.238-.043-.238-.237C.888 16.638.887 8.604.887.57Zm12.134 5.39v-.005c-.268 0-.536.009-.804-.002-.21-.009-.329.075-.413.27-.396.919-.806 1.832-1.208 2.75-1.134 2.582-2.266 5.167-3.399 7.75-.36.821-.721 1.643-1.078 2.466-.124.284-.1.317.219.318.562 0 1.124-.011 1.685.005.23.007.336-.08.42-.283.499-1.195 1.01-2.384 1.513-3.576.935-2.218 1.866-4.437 2.851-6.634.037-.083.051-.215.154-.22.116-.007.115.133.15.213 1.456 3.412 2.91 6.825 4.357 10.242.08.19.181.263.385.256a71.18 71.18 0 0 1 1.865-.04c.192-.001.231-.07.144-.232-.028-.053-.047-.111-.071-.166-1.02-2.342-2.038-4.684-3.059-7.025-.845-1.938-1.694-3.873-2.535-5.813-.088-.203-.199-.296-.425-.28-.25.018-.502.004-.752.004v.001Zm25.989 9.124c.065-.146.044-.25.044-.351.004-1.864-.007-3.728.015-5.59.012-.992.03-1.984.025-2.977 0-.217.08-.283.288-.28.613.01 1.227.003 1.841.004.338 0 .339.002.339.352v10.716c0 .777-.007 1.554.003 2.33.003.22-.062.307-.294.3a31.96 31.96 0 0 0-1.582 0c-.195.005-.316-.07-.433-.22a6790.221 6790.221 0 0 0-6.99-9.031c-.046-.06-.077-.137-.168-.173-.063.094-.036.199-.036.296-.004 1.76-.003 3.52-.01 5.28-.006 1.182-.029 2.364-.029 3.546 0 .246-.09.31-.319.304-.57-.012-1.14-.003-1.71-.004-.259 0-.388-.127-.389-.381V7.453c0-.432.008-.863-.003-1.294-.005-.2.065-.276.269-.273.597.009 1.192.009 1.789 0 .176-.002.286.069.39.202a6618.3 6618.3 0 0 0 5.589 7.233c.448.58.897 1.157 1.367 1.763h.003Zm54.9-9.238c.976 0 1.953-.021 2.928.006 1.297.034 2.527.314 3.53 1.204a3.75 3.75 0 0 1 1.295 2.648c.045.695.038 1.38-.194 2.044-.429 1.227-1.327 1.986-2.491 2.476-.304.128-.36.329-.167.602 1.047 1.48 2.096 2.959 3.142 4.439.052.073.157.143.106.245-.05.1-.169.068-.26.068-.778.002-1.556-.005-2.334.005-.208.002-.31-.113-.411-.259-.985-1.407-1.976-2.81-2.954-4.222-.137-.198-.281-.289-.529-.284-.778.015-1.555.013-2.333 0-.228-.004-.298.068-.295.295.008 1.38-.003 2.76.01 4.14.001.264-.082.344-.341.337a38.948 38.948 0 0 0-1.815-.001c-.226.004-.32-.054-.32-.303.006-4.383.006-8.766 0-13.15 0-.247.092-.305.319-.303 1.037.009 2.074.004 3.111.004v.008l.002.001Zm-.962 4.531c0 .647.01 1.294-.004 1.94-.006.24.07.316.309.309.915-.025 1.831-.035 2.747-.047.406-.005.81-.012 1.215-.058 1.275-.147 2.196-1.449 1.896-2.693-.222-.922-1.065-1.575-2.09-1.641-1.27-.082-2.54-.023-3.81-.047-.206-.004-.27.07-.266.27.01.655.003 1.312.003 1.967Zm-17.451 2.328V6.208c0-.37.001-.37.374-.37h9.437c.253 0 .38.13.381.388v1.423c0 .295-.144.442-.43.442h-7.183c-.248 0-.372.122-.373.365 0 .914.009 1.829-.005 2.743-.005.258.065.341.331.339 1.807-.011 3.613-.007 5.42-.006.372 0 .373.002.373.37 0 .527-.01 1.054.004 1.579.007.24-.078.31-.313.31-1.824-.008-3.648-.005-5.472-.005-.338 0-.34 0-.34.346 0 .966.008 1.933-.005 2.899-.003.245.082.305.314.303 2.42-.006 4.84-.004 7.26-.004.279 0 .418.143.418.429 0 .517-.007 1.035.003 1.553.003.198-.06.275-.267.275-3.223-.005-6.447-.006-9.67 0-.269 0-.258-.153-.258-.335v-6.55l.001.003Zm-22.739 1.172v5.28c0 .286-.147.429-.442.429h-1.66c-.275 0-.414-.135-.415-.406V8.65c0-.078-.007-.156.002-.232.026-.222-.078-.278-.285-.277-1.21.008-2.42.003-3.628.003-.26 0-.392-.134-.392-.402V6.265c0-.285.14-.428.418-.428h10.342c.363 0 .364 0 .365.351v1.605c0 .347-.002.35-.341.35-1.21 0-2.42.007-3.628-.006-.258-.002-.342.063-.341.33.012 1.804.005 3.606.005 5.409v.001Zm8.737-1.164V6.19c0-.352.002-.353.363-.353h1.737c.364 0 .365 0 .365.377v10.662c0 .268.138.402.413.402h6.376c.366 0 .368.001.368.376 0 .543-.008 1.087.003 1.63.004.218-.057.305-.291.305-3.015-.006-6.031-.008-9.046 0-.264 0-.29-.12-.29-.33.003-2.184.001-4.365.001-6.548h.001Z"/>
</svg>
