<svg xmlns="http://www.w3.org/2000/svg" fill="none" viewBox="0 0 182 32">
  <path fill="#000" d="M.41.334c.015.072.042.144.042.218.001.356-.007.71-.007 1.066l.001 22.734c0 2.041 0 4.081-.003 6.122 0 .133-.021.267-.032.4V.335ZM.538.228h65.644c.475 0 .95-.037 1.425-.036 37.705.09 75.41.012 113.116.038h.673v31.255H.538V.228ZM68.84 29.276h110.338c.056-.276.051-26.626-.003-26.836H68.839v26.836ZM7.768 24.36h.31c1.095 0 2.191.008 3.286-.005a5.294 5.294 0 0 0 1.06-.107c1.146-.255 1.97-.913 2.408-2.016.17-.429.259-.876.26-1.338.003-.847.01-1.694-.002-2.54-.013-.847-.265-1.615-.816-2.274-.177-.212-.177-.214-.004-.419.48-.569.762-1.23.795-1.966.04-.879.023-1.76.027-2.641 0-.186-.001-.374-.024-.558C14.92 9.3 14.366 8.37 13.275 7.8c-.569-.298-1.184-.409-1.82-.413-1.137-.006-2.275-.002-3.412 0-.091 0-.18.014-.262.02-.055.22-.07 16.63-.013 16.952Zm18.867-8.49c0-1.727.002-3.454-.002-5.181a5.09 5.09 0 0 0-.056-.758 3.286 3.286 0 0 0-2.5-2.74 4.566 4.566 0 0 0-2.34.02c-.921.253-1.618.8-2.057 1.654-.288.56-.407 1.165-.407 1.79-.003 3.472-.004 6.943.003 10.415 0 .32.032.646.106.955.294 1.23 1.028 2.082 2.248 2.471a4.379 4.379 0 0 0 2.633.014c.793-.237 1.427-.7 1.855-1.418a3.65 3.65 0 0 0 .517-1.887c.003-1.778.001-3.557 0-5.335Zm22.975-3.16v-.31c0-.568.012-1.135-.004-1.702a4.853 4.853 0 0 0-.107-.98c-.285-1.212-1.005-2.057-2.202-2.451a4.372 4.372 0 0 0-2.92.052 3.036 3.036 0 0 0-1.284.885c-.573.666-.817 1.453-.843 2.315-.015.507.004 1.016-.004 1.523-.02 1.128.335 2.127 1.01 3.023.435.578.955 1.074 1.482 1.568.495.463.982.934 1.446 1.428.34.36.593.79.692 1.282.138.686.118 1.384.043 2.074-.047.428-.431.747-.853.78-.54.041-.945-.186-1.082-.646a2.438 2.438 0 0 1-.083-.65c-.01-.533-.002-1.067-.004-1.6 0-.262-.013-.277-.27-.277a381.17 381.17 0 0 0-2.14 0c-.073 0-.145.017-.24.029v.293c0 .559-.005 1.118.002 1.677.003.245.01.493.052.733.246 1.399 1.016 2.358 2.404 2.769a4.384 4.384 0 0 0 2.46.003c.506-.14.96-.377 1.348-.737.735-.68 1.053-1.543 1.093-2.516.026-.634.011-1.27.001-1.905a4.164 4.164 0 0 0-.078-.654c-.173-.944-.621-1.755-1.265-2.45-.499-.54-1.052-1.033-1.571-1.555a25.967 25.967 0 0 1-1.155-1.215 2.44 2.44 0 0 1-.593-1.274 6.367 6.367 0 0 1-.045-.86c-.003-.33-.015-.664.032-.988.088-.599.514-.837.99-.835.6.003.93.347 1.006.849.024.15.029.304.03.456.003.525 0 1.05.002 1.575 0 .097.017.193.026.292h2.623l.001-.002Zm-11.456.001c.007-.102.016-.177.016-.252 0-.643.008-1.287-.004-1.93a3.826 3.826 0 0 0-.078-.756c-.255-1.141-.9-1.973-1.996-2.427-.673-.28-1.38-.337-2.099-.27a3.666 3.666 0 0 0-1.431.417c-1.083.593-1.617 1.546-1.718 2.739-.057.681-.026 1.37-.028 2.056 0 .168.019.339.042.506.136.996.588 1.846 1.23 2.603.51.603 1.106 1.122 1.682 1.66.346.323.68.662.994 1.017.328.371.579.795.683 1.288.137.653.092 1.317.05 1.973-.03.502-.42.833-.883.864-.533.034-.929-.203-1.07-.667a1.732 1.732 0 0 1-.057-.476c-.007-.567-.003-1.135-.004-1.701 0-.06 0-.119-.003-.178-.003-.09-.048-.142-.14-.147-.051-.002-.102-.005-.153-.005h-2.139c-.073 0-.147.014-.224.022-.008.05-.019.082-.019.114 0 .66-.01 1.32.01 1.98.01.328.044.663.13.978.327 1.234 1.1 2.054 2.342 2.41.662.19 1.333.206 2.015.096 1.595-.257 2.71-1.413 2.84-3.088.061-.791.017-1.59.008-2.385-.002-.193-.045-.387-.085-.576a4.74 4.74 0 0 0-1.177-2.247c-.545-.59-1.136-1.14-1.718-1.694-.412-.393-.821-.786-1.152-1.251-.318-.444-.526-.928-.534-1.481-.006-.44-.005-.88.002-1.321.003-.134.017-.274.059-.4.146-.453.576-.68 1.04-.642.527.043.877.398.93.913.008.076.005.152.005.229v1.752c0 .09.007.18.011.275h2.621l.002.002Zm20.022 11.658v-.277c0-2.363 0-4.725-.003-7.088 0-.207.033-.4.106-.595.206-.546.404-1.095.603-1.644l2.6-7.13c.03-.082.05-.168.08-.274h-2.91l-1.81 4.987h-.046l-1.813-4.976h-2.918c.03.095.052.167.077.237a6510.22 6510.22 0 0 0 3.197 8.75c.086.235.133.468.133.718-.005 2.328-.003 4.658-.003 6.986v.307h2.706v-.001Z"/>
  <path fill="#fff" d="M68.839 29.277V2.441h110.334c.054.21.059 26.561.003 26.836H68.839Zm48.937-12.97.061.01v8.043h2.659V7.384c-.051-.01-.082-.022-.115-.022-.637 0-1.273.002-1.91-.003-.147 0-.199.067-.246.198-.683 1.948-1.373 3.894-2.061 5.841l-.302.847a.806.806 0 0 1-.165-.293l-2.251-6.366c-.076-.217-.075-.22-.305-.221-.602-.003-1.206-.003-1.808-.001-.055 0-.111.017-.162.025-.051.509-.028 16.79.022 16.973h2.662v-8.044c.06.038.08.082.097.128.453 1.285.903 2.571 1.361 3.854.186.526.045.433.627.444.258.005.259 0 .342-.235l1.426-4.045c.018-.053.045-.102.068-.153v-.004Zm-29.92-.448c0 1.762-.004 3.522.003 5.283 0 .262.021.527.075.781.257 1.203.935 2.072 2.102 2.515.92.35 1.862.359 2.798.08 1.04-.311 1.762-.987 2.152-2.002.181-.471.26-.965.26-1.467.002-3.412.003-6.824-.004-10.237 0-.32-.023-.646-.088-.958-.286-1.372-1.091-2.278-2.457-2.668a4.309 4.309 0 0 0-1.564-.135c-.833.07-1.597.334-2.211.921-.74.707-1.064 1.593-1.066 2.604-.004 1.761 0 3.522 0 5.283Zm84.869-3.137c.005-.097.012-.18.013-.262.002-.542.013-1.083-.004-1.626a5.95 5.95 0 0 0-.098-1.033c-.24-1.144-.885-1.982-1.971-2.452-.77-.333-1.577-.377-2.398-.255-1.506.226-2.606 1.306-2.86 2.806-.138.816-.067 1.638-.065 2.457 0 .152.02.304.043.455.139.939.55 1.752 1.146 2.482.496.607 1.079 1.125 1.654 1.653.437.401.876.802 1.234 1.278.316.419.566.877.598 1.407.032.556.049 1.12.009 1.674-.044.62-.491.889-1.037.884-.464-.003-.962-.379-.943-.95.023-.651.005-1.303.005-1.955v-.274h-2.693c-.012.04-.025.064-.025.088.003.745.002 1.49.013 2.234.003.185.028.372.067.554.291 1.36 1.089 2.265 2.436 2.664.535.16 1.085.173 1.64.133 1.756-.125 3.064-1.389 3.208-3.138.049-.597.034-1.2.04-1.801.013-1.189-.37-2.242-1.101-3.174-.405-.516-.871-.97-1.35-1.415a55.2 55.2 0 0 1-1.145-1.084 4.239 4.239 0 0 1-.848-1.135c-.137-.276-.24-.561-.241-.874-.001-.542-.004-1.084.003-1.626a.898.898 0 0 1 .071-.344c.216-.494.86-.697 1.367-.439.381.194.547.518.55.93.005.619.001 1.237.001 1.855v.283h2.681Zm-65.954.005c.005-.085.013-.151.013-.218 0-.617.01-1.236-.009-1.854a4.601 4.601 0 0 0-.109-.93c-.3-1.275-1.078-2.13-2.337-2.513a4.293 4.293 0 0 0-2.511 0c-1.022.302-1.748.946-2.153 1.934a3.88 3.88 0 0 0-.283 1.462c-.003.525-.005 1.05 0 1.575.007.794.21 1.538.596 2.233.416.75.997 1.366 1.618 1.947.359.336.726.663 1.084 1 .36.336.692.7.96 1.115.238.367.413.763.424 1.207.012.541.007 1.083.001 1.626a.853.853 0 0 1-.364.693c-.224.171-.482.199-.749.176-.391-.032-.679-.222-.804-.598a1.869 1.869 0 0 1-.074-.55c-.008-.592-.002-1.185-.003-1.777 0-.082-.008-.162-.014-.263-.906.005-1.783-.01-2.665.009-.005.09-.011.148-.011.207 0 .618-.007 1.236.002 1.854.003.236.016.476.059.707.259 1.394 1.032 2.346 2.415 2.767.587.178 1.186.203 1.79.136.949-.106 1.759-.49 2.367-1.246.507-.632.728-1.371.758-2.167.02-.499-.002-1 .008-1.499.025-1.192-.362-2.242-1.087-3.177-.397-.51-.861-.957-1.33-1.4-.475-.447-.954-.89-1.404-1.363-.452-.473-.81-1.018-.86-1.689a14.62 14.62 0 0 1-.013-1.675c.025-.55.481-.933 1.026-.912.589.023.953.402.954.995v2.189h2.702l.003-.002Zm52.168 6.279v.306c0 .627-.006 1.252.002 1.88.012.886-.88 1.196-1.497.874-.35-.182-.501-.476-.5-.871.004-3.548.002-7.095.003-10.643 0-.043-.002-.085.002-.127.032-.38.217-.653.575-.797.639-.26 1.433.102 1.419.934-.011.635-.004 1.27-.003 1.906 0 .081.008.164.012.255h2.685c.004-.075.011-.133.011-.191-.001-.567 0-1.135-.008-1.702a7.718 7.718 0 0 0-.046-.759c-.166-1.406-1.112-2.5-2.48-2.88a4.326 4.326 0 0 0-1.941-.093c-1.39.25-2.339 1.019-2.764 2.387-.161.517-.181 1.05-.183 1.583-.005 3.192-.005 6.384.003 9.576 0 .388.017.782.085 1.162.24 1.336.991 2.266 2.298 2.693.984.322 1.975.29 2.941-.095.892-.355 1.496-1 1.837-1.895.168-.44.244-.898.249-1.366.008-.66.004-1.32.004-1.981 0-.048-.01-.097-.017-.156h-2.687Zm-77.59-6.285h2.684c.005-.075.013-.133.013-.19-.001-.593.005-1.186-.01-1.778a5.089 5.089 0 0 0-.088-.907c-.286-1.362-1.088-2.264-2.441-2.655a4.329 4.329 0 0 0-1.942-.094c-.96.164-1.764.599-2.314 1.426-.415.623-.603 1.319-.603 2.066 0 3.523 0 7.045.005 10.568 0 .253.02.51.074.756.29 1.326 1.062 2.229 2.383 2.62a4.35 4.35 0 0 0 2.583-.03 3.18 3.18 0 0 0 1.988-1.74c.246-.52.35-1.077.358-1.65.008-.635.003-1.27.002-1.905 0-.064-.013-.13-.02-.195H81.35v.296c0 .576.003 1.152-.002 1.727a2.078 2.078 0 0 1-.042.429c-.082.375-.322.608-.693.697-.121.03-.253.022-.38.02a.875.875 0 0 1-.854-.671 2.026 2.026 0 0 1-.059-.502c-.003-3.413-.003-6.825 0-10.238 0-.142.012-.287.035-.429.136-.848 1.124-.957 1.594-.61.303.224.399.536.4.89.002.602 0 1.203 0 1.804v.297-.002Zm46.586 9.117V17.14c.567 0 1.118.005 1.667 0 .556-.007 1.112.025 1.665-.02v-2.509h-1.664c-.556-.002-1.113.01-1.663-.008-.057-.518-.035-4.515.027-4.71h2.538c.281 0 .561.007.84-.001.276-.008.553.024.823-.02V7.377h-6.941v16.97c.321.057 6.771.042 6.944-.015.044-.49.026-2.29-.03-2.494h-4.21.004Zm15.668-14.45c-.385-.056-8.573-.036-8.747.018-.05.422-.029 2.301.033 2.487h2.235c.242.002.486-.009.752.013.011 4.837-.003 9.643.008 14.458h2.701V11.959c.002-.682-.008-1.364.008-2.075h3.01V7.386v.002Zm6.155 16.98V7.392c-.318-.053-2.495-.04-2.676.014V24.37h2.676Z"/>
  <path fill="#818181" d="M7.768 24.359c-.057-.322-.042-16.731.013-16.951.081-.008.172-.02.262-.02 1.137-.002 2.275-.006 3.413 0 .635.002 1.25.114 1.82.412 1.09.57 1.643 1.502 1.792 2.695.023.185.025.372.024.558-.004.88.013 1.762-.027 2.641-.033.737-.315 1.398-.795 1.966-.172.204-.173.207.004.42.55.658.804 1.426.816 2.273.012.847.005 1.694.002 2.54-.002.462-.09.91-.26 1.338-.439 1.103-1.262 1.76-2.408 2.016a5.202 5.202 0 0 1-1.06.107c-1.095.013-2.19.005-3.286.005h-.31Zm2.631-2.516c.095.01.178.023.26.024.245.003.49.006.736 0 .628-.014 1.029-.38 1.042-1.006.02-.912.02-1.825 0-2.739-.013-.612-.406-.982-1.02-1.006-.261-.01-.524-.004-.787 0-.074 0-.147.02-.232.032v4.697l.002-.002Zm.005-7.22c.45-.014.881.053 1.306-.041.343-.075.565-.303.671-.63.046-.142.06-.299.062-.45.008-.49.003-.98.003-1.472 0-.372.009-.744-.003-1.116-.02-.656-.412-1.033-1.063-1.036a63.518 63.518 0 0 0-.763 0c-.066 0-.13.015-.212.025v4.72h-.001Zm16.231 1.245c0 1.778.002 3.557-.001 5.335a3.63 3.63 0 0 1-.517 1.887c-.428.716-1.062 1.18-1.855 1.418a4.386 4.386 0 0 1-2.633-.014c-1.22-.39-1.955-1.242-2.248-2.47a4.176 4.176 0 0 1-.106-.956c-.007-3.472-.006-6.943-.003-10.415 0-.626.118-1.23.407-1.79.438-.854 1.134-1.4 2.057-1.654a4.566 4.566 0 0 1 2.34-.02 3.285 3.285 0 0 1 2.5 2.74c.037.25.056.505.056.758.005 1.727.002 3.454.003 5.181Zm-4.687-.008v5.182c0 .118 0 .238.02.353a.948.948 0 0 0 .912.805c.547.03.948-.268 1.06-.75.036-.156.042-.32.042-.48.003-3.394.003-6.79 0-10.184 0-.144-.005-.29-.03-.43-.07-.38-.278-.655-.657-.768-.677-.204-1.372.19-1.348.99v5.282Zm27.662-3.152h-2.622c-.01-.099-.026-.196-.027-.293-.003-.524 0-1.05-.002-1.574 0-.152-.006-.306-.03-.456-.077-.502-.407-.846-1.006-.85-.476-.002-.902.237-.99.836-.047.324-.034.658-.032.987.002.288.006.577.046.86.067.48.276.912.592 1.275.367.421.76.819 1.155 1.215.52.523 1.072 1.014 1.572 1.555.643.695 1.092 1.506 1.264 2.45.04.216.075.436.078.654.01.635.025 1.27 0 1.905-.04.973-.358 1.836-1.093 2.516-.389.36-.842.596-1.348.737a4.384 4.384 0 0 1-2.46-.003c-1.387-.411-2.158-1.37-2.404-2.769a4.627 4.627 0 0 1-.052-.733c-.008-.558-.002-1.117-.002-1.677v-.293c.094-.012.167-.029.24-.029.713-.002 1.426-.003 2.139 0 .258 0 .27.015.27.276.002.534-.006 1.068.005 1.6.004.219.021.444.083.651.136.46.54.687 1.081.646.422-.033.806-.351.853-.78.076-.69.095-1.388-.043-2.074-.098-.492-.352-.921-.692-1.282a31.864 31.864 0 0 0-1.445-1.428c-.527-.494-1.047-.99-1.482-1.568-.675-.896-1.03-1.895-1.01-3.023.008-.507-.012-1.016.004-1.524.025-.861.27-1.648.843-2.314.35-.407.78-.704 1.283-.885a4.372 4.372 0 0 1 2.92-.052c1.198.394 1.917 1.24 2.202 2.45.076.318.097.653.107.98.017.568.005 1.135.005 1.702v.31l-.002.002Zm-11.456.002h-2.62c-.005-.096-.012-.185-.012-.275v-1.752c0-.077.002-.153-.005-.229-.052-.514-.403-.87-.93-.913-.464-.038-.894.19-1.04.642a1.413 1.413 0 0 0-.059.4c-.007.44-.007.88-.002 1.32.007.554.216 1.038.533 1.482.332.465.74.858 1.152 1.25.583.555 1.175 1.105 1.719 1.695.588.637.995 1.39 1.176 2.247.041.19.084.383.086.576.01.795.054 1.594-.008 2.385-.13 1.675-1.245 2.831-2.84 3.088a4.59 4.59 0 0 1-2.016-.096c-1.241-.355-2.014-1.176-2.342-2.41a4.367 4.367 0 0 1-.13-.977c-.02-.66-.009-1.32-.009-1.981 0-.033.01-.064.019-.114.077-.007.15-.022.224-.022.712-.002 1.426 0 2.139 0 .05 0 .102.003.153.006.092.003.136.057.14.146l.003.178c0 .566-.004 1.134.003 1.701.002.159.011.325.057.476.142.464.538.701 1.07.667.465-.03.853-.361.884-.864.042-.655.087-1.319-.05-1.973-.105-.494-.355-.917-.683-1.288a14.837 14.837 0 0 0-.994-1.017c-.576-.538-1.172-1.057-1.682-1.66-.643-.757-1.094-1.607-1.23-2.603a3.655 3.655 0 0 1-.043-.506c.003-.685-.03-1.374.029-2.056.1-1.193.635-2.147 1.718-2.739a3.666 3.666 0 0 1 1.43-.417c.72-.068 1.426-.009 2.1.27 1.096.455 1.74 1.287 1.996 2.427.055.246.074.503.078.756.011.643.005 1.286.004 1.93 0 .076-.009.15-.016.252l-.002-.002Z"/>
  <path fill="#fff" d="M58.176 24.367h-2.705v-.307c0-2.328-.002-4.658.002-6.986 0-.25-.047-.483-.133-.718a6043.202 6043.202 0 0 1-3.196-8.75c-.026-.07-.046-.142-.078-.237h2.919l1.812 4.976h.047l1.81-4.987h2.91c-.03.105-.051.191-.08.274l-2.6 7.13c-.2.549-.398 1.098-.604 1.644a1.622 1.622 0 0 0-.106.595c.003 2.363.002 4.725.003 7.087v.278Z"/>
  <path fill="#000" d="M117.777 16.306c-.022.051-.049.101-.068.153l-1.426 4.046c-.083.236-.083.24-.342.235-.582-.012-.44.08-.628-.444-.456-1.283-.907-2.569-1.361-3.854a.221.221 0 0 0-.096-.128v8.044h-2.662c-.05-.182-.073-16.465-.022-16.973.051-.008.106-.026.162-.026l1.808.001c.229 0 .228.005.305.222.75 2.122 1.499 4.244 2.251 6.366a.79.79 0 0 0 .165.293l.302-.847c.688-1.946 1.378-3.892 2.061-5.841.046-.131.099-.199.245-.198.637.005 1.274.002 1.911.003.032 0 .064.012.115.022v16.977h-2.66v-8.042l-.06-.012v.003Zm-29.921-.446c0-1.762-.002-3.523 0-5.284.003-1.01.327-1.898 1.067-2.604.614-.586 1.378-.849 2.21-.921a4.31 4.31 0 0 1 1.565.135c1.365.39 2.17 1.297 2.457 2.668.066.312.088.638.088.958.006 3.412.006 6.824.004 10.237 0 .502-.08.996-.26 1.467-.39 1.015-1.111 1.69-2.152 2.002-.936.279-1.879.27-2.798-.08-1.167-.444-1.844-1.312-2.102-2.515a3.856 3.856 0 0 1-.076-.78c-.006-1.762-.002-3.522-.002-5.284Zm4.693.03v-5.182c0-.1-.003-.204-.018-.304-.075-.539-.444-.858-.99-.859-.518-.001-.892.302-.985.81-.026.14-.03.286-.03.429-.002 3.403-.002 6.807.002 10.21 0 .177.014.358.06.528.095.347.335.564.688.64.106.024.219.021.329.02.495-.007.849-.316.92-.807.018-.116.023-.235.023-.354V15.89Zm80.177-3.167h-2.681v-.284c0-.618.003-1.236-.001-1.854-.003-.413-.169-.737-.55-.93-.507-.259-1.151-.056-1.367.439a.917.917 0 0 0-.071.343c-.007.541-.004 1.084-.003 1.626 0 .313.104.598.241.874.213.43.507.8.848 1.135.375.368.759.727 1.145 1.084.479.444.946.899 1.349 1.415.732.932 1.114 1.985 1.102 3.174-.006.6.008 1.204-.041 1.801-.143 1.75-1.451 3.013-3.208 3.138-.554.04-1.104.026-1.64-.133-1.346-.4-2.144-1.304-2.435-2.664a2.878 2.878 0 0 1-.067-.554c-.012-.745-.011-1.49-.014-2.234 0-.024.014-.048.026-.088h2.693v.274c0 .653.017 1.305-.005 1.956-.019.57.478.947.943.95.545.004.993-.265 1.037-.885.039-.556.023-1.117-.009-1.674-.032-.53-.282-.988-.598-1.407-.359-.476-.797-.877-1.234-1.278-.575-.527-1.158-1.045-1.654-1.653-.595-.73-1.007-1.543-1.147-2.482a3.162 3.162 0 0 1-.042-.454c-.002-.82-.073-1.643.065-2.458.254-1.5 1.354-2.58 2.86-2.806.821-.122 1.628-.078 2.398.255 1.085.47 1.731 1.308 1.97 2.452.071.337.089.688.099 1.034.016.54.005 1.083.004 1.625 0 .083-.008.165-.013.262Zm-65.954.003h-2.702v-2.189c-.001-.594-.365-.972-.954-.995-.544-.022-1.002.362-1.026.912-.024.558-.027 1.12.014 1.675.049.67.407 1.216.859 1.69.45.471.93.915 1.405 1.362.469.443.932.889 1.329 1.4.726.936 1.112 1.986 1.088 3.177-.011.5.011 1-.008 1.499-.031.796-.251 1.535-.759 2.167-.606.755-1.418 1.14-2.367 1.245-.602.068-1.203.044-1.79-.135-1.382-.421-2.157-1.373-2.415-2.767a4.198 4.198 0 0 1-.059-.707c-.008-.618-.003-1.237-.002-1.854 0-.06.006-.118.011-.207.882-.019 1.76-.004 2.665-.01.006.1.014.182.014.264 0 .592-.005 1.185.003 1.777.003.184.018.377.075.55.124.376.412.566.803.598.267.023.525-.005.749-.176a.85.85 0 0 0 .364-.693c.006-.543.011-1.084-.001-1.626-.01-.444-.185-.84-.424-1.207a6.026 6.026 0 0 0-.959-1.116c-.359-.335-.726-.663-1.085-1-.621-.58-1.201-1.196-1.618-1.946a4.626 4.626 0 0 1-.596-2.233 103.36 103.36 0 0 1 0-1.575 3.88 3.88 0 0 1 .283-1.462c.405-.989 1.131-1.632 2.153-1.934a4.31 4.31 0 0 1 2.511 0c1.259.384 2.038 1.237 2.338 2.513.071.302.099.62.109.93.017.618.008 1.236.009 1.854 0 .066-.008.132-.013.217l-.004.002Zm52.168 6.279h2.686c.006.06.016.108.016.156 0 .66.004 1.32-.003 1.981a3.893 3.893 0 0 1-.25 1.366c-.34.894-.946 1.54-1.836 1.895a4.217 4.217 0 0 1-2.941.095c-1.307-.426-2.059-1.357-2.298-2.693a6.733 6.733 0 0 1-.086-1.162c-.007-3.192-.007-6.383-.002-9.576 0-.533.022-1.066.183-1.583.425-1.368 1.373-2.138 2.763-2.387a4.33 4.33 0 0 1 1.942.092c1.369.381 2.314 1.475 2.479 2.88.03.253.043.506.047.76.008.567.006 1.135.007 1.702 0 .058-.006.115-.01.191h-2.685c-.005-.091-.012-.174-.012-.255 0-.636-.008-1.27.003-1.906.015-.833-.78-1.193-1.419-.935-.358.145-.543.417-.575.798-.003.041-.002.084-.002.127 0 3.547.002 7.095-.003 10.642 0 .396.15.69.499.872.618.322 1.51.012 1.498-.875-.009-.627-.002-1.253-.002-1.88v-.305h.001Zm-77.59-6.284v-2.1c-.001-.355-.097-.666-.4-.89-.47-.348-1.458-.238-1.594.61a2.752 2.752 0 0 0-.036.428c-.002 3.413-.002 6.825 0 10.238 0 .167.018.34.06.502.103.403.436.66.854.67.127.003.258.01.38-.02.37-.088.611-.321.693-.696.03-.14.04-.286.041-.428.005-.576.002-1.152.002-1.728v-.296h2.671c.007.066.02.13.02.195.002.635.008 1.27-.001 1.905a3.957 3.957 0 0 1-.358 1.65c-.409.866-1.076 1.452-1.988 1.74a4.336 4.336 0 0 1-2.583.03c-1.32-.391-2.094-1.294-2.383-2.62a3.548 3.548 0 0 1-.075-.756c-.005-3.523-.003-7.045-.004-10.568 0-.747.188-1.443.603-2.066.55-.827 1.352-1.262 2.314-1.426a4.314 4.314 0 0 1 1.941.094c1.353.39 2.155 1.292 2.442 2.655.062.295.08.604.089.907.015.592.008 1.186.009 1.778 0 .057-.008.115-.013.19H81.35v.002Zm46.585 9.117h4.209c.056.205.075 2.005.031 2.494-.173.057-6.623.073-6.944.014V7.377h6.941v2.496c-.27.044-.548.011-.823.02-.28.007-.561.002-.84.002h-2.538c-.062.194-.086 4.191-.028 4.71.551.017 1.107.005 1.664.007.549.002 1.1 0 1.664 0v2.51c-.554.044-1.11.013-1.665.019-.55.006-1.1 0-1.668 0v4.698h-.003Zm15.669-14.45v2.498h-3.01c-.016.711-.006 1.393-.008 2.075-.002.694 0 1.388 0 2.083v10.322h-2.701c-.012-4.816.003-9.621-.009-14.458-.266-.023-.509-.011-.751-.013-.255-.002-.51 0-.764 0h-1.471c-.062-.186-.083-2.065-.033-2.487.174-.053 8.361-.074 8.747-.018v-.002Zm6.154 16.981h-2.676V7.405c.183-.054 2.359-.067 2.676-.014V24.37ZM10.399 21.843v-4.698c.084-.012.158-.03.231-.031.263-.003.526-.01.788 0 .613.023 1.006.393 1.02 1.006.019.912.019 1.826 0 2.74-.014.625-.415.992-1.042 1.005-.246.005-.492.003-.737 0-.083 0-.166-.015-.26-.024v.002Zm.004-7.22V9.902c.082-.01.147-.025.213-.025.253-.003.508-.003.763 0 .652.003 1.043.38 1.063 1.036.011.372.003.744.003 1.116 0 .49.004.98-.003 1.472a1.543 1.543 0 0 1-.062.45c-.105.327-.328.554-.67.63-.426.094-.856.026-1.308.042h.002Zm11.545 1.237v-5.284c-.022-.798.672-1.192 1.349-.99.378.114.587.388.656.768.026.141.031.287.031.43.002 3.395.002 6.79 0 10.185 0 .16-.006.324-.042.48-.112.482-.514.78-1.06.75a.95.95 0 0 1-.912-.805c-.02-.115-.02-.235-.02-.353-.002-1.727 0-3.454 0-5.182l-.002.001Z"/>
  <path fill="#fff" d="M92.548 15.89v5.13c0 .118-.005.238-.022.354-.072.492-.425.801-.92.806-.11.001-.224.004-.33-.018-.352-.078-.592-.294-.687-.641a2.03 2.03 0 0 1-.06-.527c-.004-3.404-.004-6.808-.003-10.211 0-.144.005-.289.03-.43.093-.507.467-.81.986-.809.546.001.915.32.99.86.014.1.017.201.017.303v5.182Z"/>
</svg>