<svg xmlns="http://www.w3.org/2000/svg" width="115" height="46" fill="currentColor" viewBox="0 0 115 46">
  <g class="Layer 2">
    <g class="89tBLi">
      <g class="Group">
        <path fill="#fff" d="M47.405.06c-.09.058-.196.02-.308.055.135.05.257.072.383.09.821.122 1.498.515 2.036 1.138.867 1.004 1.05 2.161.715 3.416a5.318 5.318 0 0 1-1.135 2.175 3.15 3.15 0 0 1-.805.654c-.04.024-.11.035-.102.093.01.068.084.061.136.071 1.168.213 1.922 1.04 2.036 2.223.02.217.03.433.03.65 0 3.777 0 7.555-.003 11.333 0 .461-.064.915-.235 1.349-.631 1.604-1.794 2.54-3.517 2.737-1.176.135-2.359.102-3.536.029-1.307-.08-2.19-1.047-2.19-2.366-.004-6.694-.003-13.385-.004-20.079 0-.62 0-1.24.003-1.86.003-.828.387-1.34 1.175-1.578.051-.015.185 0 .097-.13h5.224ZM42.08 16.523v7.184c0 .615.427 1.096 1.028 1.177.433.058.869.031 1.302.027.726-.006 1.453.03 2.18-.026 1.129-.085 2.65-1.208 2.64-2.917-.022-3.79-.007-7.58-.006-11.37 0-.15-.012-.297-.037-.444-.129-.752-.913-1.47-1.657-1.49-1.749-.05-3.487.043-5.21.376-.192.037-.245.11-.245.302.008 2.394.005 4.789.005 7.183v-.002Zm0-11.571v2.847c0 .213.028.237.239.21.345-.043.688-.09 1.033-.136 1.278-.174 2.534-.439 3.73-.932.634-.26 1.19-.609 1.52-1.248.216-.422.412-.847.531-1.306.133-.51.154-1.033-.04-1.519-.326-.814-.941-1.325-1.81-1.501-.38-.078-.767-.046-1.152-.045-1.07.002-2.138-.001-3.207.003-.562.003-.844.293-.846.857v2.773l.002-.003ZM71.534.06c-.082.055-.182.025-.3.06.092.064.18.062.257.071 1.345.14 2.55 1.213 2.888 2.58.24.97.062 1.897-.322 2.793-.338.789-.805 1.48-1.54 1.963-.08.05-.235.073-.215.167.018.096.171.06.265.084 1.185.293 1.914 1.207 1.916 2.427.002 3.926.004 7.851.001 11.778a4.086 4.086 0 0 1-3.082 3.955c-.485.126-.98.159-1.477.174a40.03 40.03 0 0 1-2.05 0c-.353-.008-.71-.01-1.057-.096-1.12-.276-1.81-1.155-1.815-2.33-.007-1.934-.004-3.87-.003-5.805l.002-15.945c0-.457.061-.893.382-1.249.217-.239.47-.421.795-.491.055-.012.216.034.134-.133h5.22V.06Zm1.824 16.157h-.002c0-1.885.003-3.771 0-5.656-.003-1.041-.874-1.91-1.912-1.899-.968.01-1.934-.016-2.904.093-.691.077-1.378.173-2.064.28-.309.048-.306.065-.306.371 0 4.633.003 9.267.004 13.9 0 .113-.001.224.003.335.03.734.395 1.146 1.118 1.262.024.005.049.01.073.01 1.117-.014 2.239.065 3.353-.038.795-.073 1.45-.47 1.965-1.07.495-.576.673-1.274.673-2.022v-5.564l-.001-.002ZM66.17 5.012h-.001v2.77c0 .233.025.253.263.221.264-.034.53-.062.794-.097 1.358-.177 2.697-.439 3.97-.97.586-.243 1.088-.6 1.44-1.133.27-.412.458-.866.585-1.341.157-.587.203-1.185-.069-1.746-.423-.873-1.147-1.355-2.114-1.38-1.31-.035-2.621.002-3.931-.018-.575-.01-.911.29-.932.885-.003.075-.003.15-.003.223v2.586h-.002ZM.75 33.93c.159-.04.319-.045.481-.045.697.003 1.391 0 2.087.005.396.002.778.079 1.141.237.51.221.822.626.953 1.147.214.853.221 1.716.02 2.577-.13.553-.45.957-.965 1.204-.042.02-.108.022-.103.09.003.053.055.062.094.075.717.25 1.087.786 1.193 1.505.123.83.133 1.673.008 2.5-.164 1.088-.835 1.669-1.967 1.761-.935.076-1.874.054-2.809-.003-.043-.003-.086 0-.128.002V33.93H.75Zm.79 7.976c0 .713.004 1.427-.002 2.14 0 .153.039.226.209.225.578-.006 1.156.004 1.732-.005.641-.01 1.112-.339 1.322-.91.06-.162.103-.331.123-.504a8.24 8.24 0 0 0-.012-1.8c-.096-.883-.532-1.313-1.42-1.427-.568-.073-1.142-.032-1.71-.067-.198-.012-.244.067-.243.247.008.7.003 1.4.003 2.101h-.001Zm0-5.2h.002v1.898c0 .106.002.2.15.203.515.006 1.032.039 1.546.02.885-.035 1.447-.6 1.511-1.359.046-.55.055-1.102-.045-1.649-.134-.73-.525-1.087-1.262-1.178-.551-.069-1.104-.02-1.656-.033-.235-.006-.245.009-.245.238v1.86h-.002Zm58.696-23.537c-.242 0-.486-.006-.728.001-.15.005-.231-.05-.254-.205-.017-.122-.037-.245-.035-.368.003-.25.088-.367.337-.41.438-.074.88-.042 1.32-.022.273.012.544.057.816.08.14.012.191.077.191.216-.004 1.692-.242 3.338-.97 4.884a6.775 6.775 0 0 1-.96 1.48c-.134.16-.132.183.05.291.08.048.163.09.246.134.523.268.755.222 1.133-.226.17-.202.298-.43.37-.683.05-.177.148-.21.305-.15.127.049.258.09.382.147.191.088.233.18.154.372-.442 1.08-1.876 2.14-3.315 1.017-.128-.1-.204-.09-.336-.009-1.359.86-2.759.867-4.124.065-1.41-.828-2.078-2.123-2.034-3.745.027-1 .309-1.957.682-2.883.386-.954.89-1.842 1.528-2.651.1-.126.102-.254.063-.402a31.23 31.23 0 0 1-.436-1.807 2.624 2.624 0 0 1 .072-1.304c.233-.758.968-1.206 1.844-1.127.723.066 1.288.63 1.391 1.388.09.66-.137 1.216-.551 1.715-.365.439-.714.89-1.083 1.326a.536.536 0 0 0-.118.554c.476 1.67.97 3.334 1.643 4.94.338.808.711 1.598 1.205 2.326.148.218.17.225.347.02.475-.55.829-1.175 1.114-1.84.377-.88.6-1.798.672-2.751v-.018c.016-.236-.092-.354-.324-.354h-.596l-.001-.001Zm-3.591 6.276c.718.008 1.198-.124 1.649-.367.205-.11.215-.136.08-.32-.439-.599-.773-1.258-1.082-1.927-.765-1.655-1.31-3.388-1.81-5.137-.017-.06-.005-.157-.089-.166-.069-.008-.09.077-.12.126-.574.886-1.034 1.825-1.312 2.845-.199.73-.363 1.47-.245 2.238.237 1.545 1.576 2.707 2.929 2.71v-.002Zm-.391-12.65c-.224.025-.495.072-.63.378-.122.28-.17.563-.126.868.06.418.18.823.278 1.232.019.08.068.178.156.052.265-.369.568-.705.849-1.059.169-.212.243-.461.234-.729-.013-.473-.273-.742-.764-.742h.003ZM37.603 39.388c-.025 1.322-.309 2.582-.947 3.747a3.408 3.408 0 0 1-.5.67c-.099.104-.1.174.025.264.481.346.843.275 1.14-.24.069-.119.124-.244.18-.368.05-.117.123-.15.252-.115.509.139.561.269.261.704-.305.439-.689.757-1.24.84-.396.06-.74-.06-1.048-.285-.174-.125-.296-.124-.48-.013-1.253.758-2.902.464-3.85-.652-.516-.609-.795-1.307-.798-2.092-.003-.614.131-1.22.322-1.806.289-.879.692-1.702 1.252-2.44.17-.222.22-.433.138-.703-.12-.397-.242-.796-.292-1.21-.05-.428-.052-.854.181-1.246.282-.473.904-.71 1.5-.558.5.125.851.587.88 1.141.023.451-.119.84-.402 1.186-.292.355-.577.715-.871 1.066a.385.385 0 0 0-.088.378c.458 1.632.944 3.252 1.704 4.776.14.282.308.552.472.823.114.188.187.188.317.02.766-.98 1.184-2.098 1.32-3.326.05-.443.042-.44-.39-.437-.26.001-.521 0-.781-.02-.193-.013-.275-.08-.296-.273-.037-.35.077-.511.423-.528.497-.025.993.008 1.486.07.096.011.129.056.129.144v.484l.001-.001Zm-3.878 4.921c.387.005.747-.094 1.092-.268.16-.081.17-.16.07-.3-.39-.541-.69-1.135-.955-1.742-.508-1.167-.886-2.381-1.24-3.602-.015-.05-.008-.13-.067-.143-.077-.018-.096.066-.126.115-.43.68-.78 1.398-.987 2.176-.15.562-.277 1.131-.173 1.724.201 1.153 1.226 2.036 2.388 2.04h-.002Zm.133-9.152c.01-.4-.295-.646-.684-.558-.388.088-.49.358-.48.829.008.343.122.68.212 1.016.032.12.08.125.156.028.172-.22.354-.43.517-.656.14-.196.272-.402.28-.657v-.002Zm7.462 4.274v-5.32c0-.246.015-.27.266-.252.751.053 1.502.015 2.254.029.28.004.557.04.827.113.714.193 1.162.655 1.32 1.372.183.82.192 1.65 0 2.47-.128.554-.45.974-.982 1.213-.038.017-.094.017-.094.075 0 .043.038.061.073.074.942.343 1.238 1.112 1.289 2.01.04.709.064 1.424-.084 2.13-.192.915-.754 1.451-1.68 1.607a5.06 5.06 0 0 1-.889.073c-.682-.006-1.367 0-2.05-.002-.241 0-.25-.009-.25-.252v-5.34Zm.797 2.47c0 .72.004 1.438-.001 2.157 0 .148.045.214.202.213.558-.006 1.118.009 1.677-.005.811-.02 1.34-.457 1.452-1.244a7.07 7.07 0 0 0-.006-2.093c-.124-.791-.503-1.163-1.297-1.295-.588-.099-1.189-.045-1.782-.075-.188-.008-.25.053-.248.24.01.702.004 1.402.004 2.103V41.9Zm-.001-5.199h.005v1.916c0 .117.025.193.162.19.533-.013 1.065.06 1.602 0 .75-.082 1.224-.473 1.389-1.211a4.193 4.193 0 0 0 .028-1.591c-.125-.78-.361-1.235-1.314-1.367-.544-.075-1.092-.012-1.638-.036-.18-.007-.237.06-.236.236.008.62.004 1.24.004 1.861l-.002.002ZM26.24 43.947c-.146.188-.219.36-.34.502-.38.446-.854.682-1.444.693-.436.007-.856-.026-1.225-.296-.453-.332-.647-.802-.74-1.331a3.076 3.076 0 0 1-.043-.536c0-1.303.003-2.605 0-3.908 0-.352.067-.69.188-1.019.236-.64.712-.987 1.376-1.074.832-.107 1.516.16 2.02.846.031.043.056.097.12.115.056-.05.03-.115.03-.173 0-1.116-.002-2.233-.005-3.35 0-.111-.003-.223-.017-.334-.016-.15.035-.227.193-.22.142.008.285.02.427.012.131-.007.163.057.161.168v9.714c0 .36.03.718.106 1.07.027.127.01.192-.14.172-.105-.013-.21-.009-.317-.006-.167.005-.25-.067-.261-.239-.018-.252-.054-.503-.087-.806h-.003Zm-3.03-2.843c.02.672-.02 1.415.03 2.159a1.28 1.28 0 0 0 1.833 1.072c.699-.329 1.006-.908 1.06-1.627.08-1.093.084-2.192 0-3.286-.05-.662-.352-1.211-.932-1.573-.505-.315-1.464-.333-1.834.546a2.262 2.262 0 0 0-.159.852c-.007.595-.002 1.19-.002 1.856l.004.001Zm52.48 2.654c.204-1.021.404-2.024.606-3.026.447-2.218.895-4.435 1.337-6.653.028-.145.087-.205.233-.197.13.008.261.006.391-.003.135-.009.166.043.132.166-.197.693-.308 1.404-.451 2.109-.563 2.77-1.122 5.54-1.682 8.31-.026.128-.046.258-.07.385-.02.101-.072.17-.187.169-.242 0-.484.019-.726-.02-.115-.018-.175-.073-.197-.186-.329-1.61-.659-3.218-.99-4.827l-1.215-5.88c-.045-.217-.039-.227.173-.221.386.01.617.206.693.585l1.569 7.708c.097.473.194.947.294 1.42.01.052.017.11.09.163v-.002Zm3.482-2.715c0-.516-.004-1.03.002-1.545.004-.366.056-.729.156-1.083.208-.74.689-1.198 1.437-1.386a2.645 2.645 0 0 1 1.542.064c.806.281 1.175.91 1.313 1.706.122.707.07 1.422.079 2.135.001.127-.06.18-.18.179-1.132-.009-2.262.022-3.392-.016-.107-.005-.19.004-.19.136 0 .687-.057 1.38.084 2.058.223 1.06 1.343 1.523 2.243.94.386-.25.56-.634.634-1.07a1.92 1.92 0 0 0 .04-.481c-.011-.14.04-.208.19-.199.142.01.286.005.429.003.103 0 .15.048.142.148-.048.608-.11 1.213-.488 1.728-.35.477-.837.711-1.41.773-.27.028-.546.03-.818-.01-.896-.125-1.51-.709-1.694-1.596a5.513 5.513 0 0 1-.116-1.107c.002-.459 0-.917 0-1.377h-.003Zm2.267-.645h1.324c.082 0 .172.005.172-.116 0-.557.043-1.117-.135-1.659-.204-.62-.68-.96-1.35-.968-.677-.007-1.144.315-1.37.935-.186.515-.139 1.052-.15 1.582-.002.167.052.232.225.227.429-.009.857-.003 1.286-.003l-.002.002Zm26.003.718c-.445-.015-.956.02-1.464-.02-.101-.008-.159.042-.158.14.01.704-.082 1.417.07 2.113.173.795.796 1.197 1.604 1.095.856-.108 1.189-.686 1.29-1.468.004-.038.001-.075.003-.112.004-.255.137-.383.4-.383.375 0 .388.018.346.389a4.246 4.246 0 0 1-.189.945c-.278.795-.858 1.217-1.673 1.31-.417.046-.846.048-1.255-.096-.81-.283-1.168-.914-1.32-1.704a2.277 2.277 0 0 1-.044-.444c.002-1.227 0-2.455.005-3.683 0-.415.092-.813.285-1.183.267-.51.678-.843 1.246-.981a2.75 2.75 0 0 1 1.381.001c.882.232 1.436.934 1.534 1.936.065.644.024 1.289.041 1.933.003.14-.067.175-.196.182-.615.036-1.229.023-1.907.027l.001.003Zm-.157-.719h1.249c.218 0 .244-.023.245-.247.003-.304.016-.608 0-.912-.021-.415-.127-.814-.412-1.132-.411-.456-.94-.524-1.504-.397-.51.113-.797.463-.95.95-.16.505-.08 1.022-.102 1.532-.007.154.055.21.206.208.423-.006.844-.002 1.267-.002h.001Zm-45.639.843c0-.763-.01-1.32.003-1.88.009-.435.085-.86.27-1.263.263-.57.698-.918 1.304-1.066.54-.132 1.076-.118 1.594.082.79.306 1.17.932 1.274 1.737.09.69.025 1.388.042 2.08.003.11-.055.152-.163.156a51.223 51.223 0 0 1-3.353.012c-.163-.003-.217.05-.214.197.01.62-.043 1.24.04 1.858.081.602.368 1.063.974 1.239.578.167 1.134.094 1.558-.377.336-.373.432-.845.426-1.334-.002-.162.042-.215.193-.198h.055c.542.01.503-.085.472.485-.042.76-.288 1.434-.97 1.873-.233.15-.491.24-.766.272-.415.05-.83.051-1.24-.05-.742-.183-1.296-.854-1.43-1.689-.126-.778-.047-1.559-.07-2.134Zm2.254-.842c.44 0 .881-.003 1.323 0 .135 0 .191-.05.188-.187-.007-.378.014-.756-.04-1.132-.061-.426-.18-.83-.532-1.115a1.458 1.458 0 0 0-2.345.789c-.115.465-.088.935-.094 1.406-.003.176.052.243.235.239.422-.01.843-.003 1.266-.003l-.001.003Zm-53.012.66c0-.54-.011-1.08.005-1.62.013-.458.076-.91.27-1.34.278-.61.753-.95 1.395-1.087a2.58 2.58 0 0 1 1.64.159c.71.32 1.028.929 1.134 1.66.102.703.03 1.412.045 2.119.003.12-.064.167-.176.165-1.106-.013-2.212.036-3.318-.025-.213-.012-.239 0-.234.218.013.607-.033 1.215.031 1.821.082.777.642 1.313 1.4 1.328.836.015 1.425-.477 1.534-1.286.022-.172.039-.345.045-.519.004-.115.043-.176.164-.168h.092c.519.012.487-.093.453.484-.045.78-.293 1.474-1.016 1.901-.508.3-1.066.303-1.63.256-.913-.078-1.58-.767-1.735-1.638a5.451 5.451 0 0 1-.104-.996c.004-.478 0-.954 0-1.432h.005Zm2.244-.659c.429 0 .857-.006 1.286.003.17.003.238-.06.236-.226-.003-.297.017-.596 0-.891-.027-.441-.137-.864-.444-1.198-.409-.45-.942-.495-1.495-.375-.51.11-.799.466-.947.951-.154.504-.104 1.019-.12 1.531-.004.17.062.21.219.208.422-.009.844-.003 1.266-.003h-.001ZM20.276 44c-.154.151-.243.335-.384.486-.38.414-.845.642-1.411.653-.317.005-.635.017-.937-.111-.608-.255-.922-.735-1.022-1.365-.182-1.141.254-2.01 1.258-2.59.514-.296 1.075-.484 1.594-.767.197-.107.373-.246.548-.385a.585.585 0 0 0 .203-.327 2.054 2.054 0 0 0-.037-1.085c-.196-.624-.777-.942-1.46-.84-.769.114-1.203.604-1.23 1.416-.006.194-.063.26-.251.22-.06-.014-.124-.004-.187-.005-.287-.003-.32-.032-.284-.311.04-.314.07-.63.214-.92a1.855 1.855 0 0 1 1.271-1.03 2.733 2.733 0 0 1 1.217-.04c.876.175 1.409.746 1.518 1.631.028.229.034.457.034.688 0 1.389-.003 2.78.005 4.169.003.446.037.891.124 1.33.025.132-.003.189-.145.177-.099-.008-.2-.01-.299 0-.194.02-.27-.074-.282-.254-.015-.247-.039-.493-.058-.738l.001-.002Zm-.102-2.363v-.93c0-.121-.035-.145-.138-.069-.326.243-.694.41-1.067.568-.39.164-.762.364-1.083.646-.508.446-.71.995-.59 1.664.154.85 1.013 1.098 1.639.873.655-.238 1.042-.714 1.174-1.398.086-.449.058-.903.064-1.354h.002ZM51.3 44.06c-.072.107-.14.22-.215.323-.37.493-.868.742-1.486.757-.416.01-.82-.01-1.182-.251-.44-.293-.654-.72-.744-1.219a5.251 5.251 0 0 1-.09-.942v-5.322c0-.189.091-.283.272-.283.328 0 .491.163.49.493v5.06c0 .262.036.52.096.775.204.876.872 1.148 1.66.936.46-.122.724-.459.916-.866.157-.332.22-.686.22-1.049 0-1.73-.003-3.46-.01-5.19 0-.114.039-.16.148-.159.167.002.336.003.503 0 .11-.001.158.051.157.159 0 .086.003.173.003.26 0 2.412 0 4.826.003 7.238 0 .169-.027.263-.227.222-.089-.017-.185.012-.278.017-.138.004-.2-.05-.193-.202.014-.25.003-.502.003-.752-.015 0-.03-.003-.045-.005H51.3Zm33.837-2.99v-3.703c0-.235.008-.245.238-.244.475.003.41-.052.415.419l.001.371c0 .04-.017.098.044.107.042.005.06-.04.076-.072.105-.202.266-.359.429-.511.667-.621 1.918-.659 2.591-.06.398.354.535.84.584 1.352.073.754.032 1.512.036 2.267.008 1.254.003 2.505.005 3.759 0 .239 0 .237-.248.242-.118.003-.236.019-.353.019-.118 0-.174-.054-.174-.185.007-1.854.011-3.71.01-5.563a2.57 2.57 0 0 0-.163-.836c-.278-.792-1.058-.894-1.618-.681-.502.19-.754.606-.957 1.06a1.89 1.89 0 0 0-.154.78c.002 1.724.002 3.447.003 5.173 0 .245 0 .242-.246.233a1.794 1.794 0 0 0-.298.015c-.157.017-.225-.035-.224-.205.005-1.246.003-2.493.003-3.74v.003ZM98.9 44.047c-.122.065-.123.171-.175.243-.38.521-.873.838-1.536.85-.299.006-.596.009-.884-.094-.634-.224-.919-.725-1.053-1.337a3.72 3.72 0 0 1-.084-.793c.003-1.842 0-3.684.001-5.525 0-.266 0-.266.27-.268.328 0 .492.163.492.49 0 1.767-.001 3.534.002 5.303 0 .336.046.666.234.962.33.521.91.714 1.494.502.623-.227.945-.695 1.08-1.318.054-.248.085-.5.084-.756-.005-1.674-.003-3.348-.008-5.023 0-.11.032-.161.147-.16.155.003.31.003.466 0 .11-.001.158.051.156.159-.001.112.002.222.002.334 0 2.4 0 4.8.006 7.2 0 .145-.054.198-.194.204-.46.021-.5-.012-.5-.473v-.5Zm13.951 1.092c-.326.011-.647-.015-.953-.133-.823-.319-1.173-.965-1.249-1.802-.002-.025-.006-.05 0-.075.027-.132-.109-.32.048-.394.182-.084.401-.046.606-.028.057.004.067.066.07.118.011.124.036.248.027.37-.037.57.468 1.192 1.228 1.26.224.02.447.013.663-.057.477-.154.792-.456.895-.953.118-.57-.034-1.06-.477-1.443-.358-.31-.769-.541-1.202-.737-.53-.239-1.029-.524-1.388-1.002-.561-.75-.518-2.003.111-2.7.288-.32.665-.495 1.087-.565.631-.106 1.231-.042 1.754.354.566.427.774 1.025.768 1.713 0 .108-.048.163-.157.159h-.018c-.161-.006-.345.053-.477-.024-.149-.09-.065-.296-.095-.449-.197-.982-1.253-1.423-2.087-.86-.532.36-.69 1.213-.34 1.787.201.33.489.555.826.729.43.222.869.428 1.29.666.536.301.958.717 1.122 1.33.148.553.13 1.11-.103 1.64-.312.707-.904 1.022-1.649 1.094-.099.009-.199 0-.299 0l-.001.002ZM57.507 2.184c1.362 0 2.438-.003 3.513 0 .46.001.919.02 1.379.024.17 0 .196.074.164.222-.122.568-.588.935-1.198.949-2.305.054-4.61.013-6.916.024-.682.003-1.366.009-2.049-.024-.22-.01-.243-.039-.188-.244.167-.615.563-.906 1.204-.929 1.46-.05 2.92-.004 4.093-.024l-.002.002Zm.361 21.279c1.51 0 3.02.002 4.529-.003.163 0 .209.042.172.205-.138.595-.587.966-1.2.968-2.989.002-5.978 0-8.966 0-.23 0-.247-.025-.187-.25.155-.588.569-.915 1.177-.915 1.49-.003 2.983 0 4.473 0v-.003l.002-.002Zm33.797 17.399v-2.847c0-.236-.006-.24-.24-.242h-.633c-.117 0-.17-.054-.17-.17.005-.575-.055-.47.45-.48.136-.003.274-.004.411 0 .121.003.184-.038.184-.17.001-.67.099-1.335.07-2.005-.007-.186.057-.252.245-.249.502.008.448-.031.447.435 0 .588.004 1.178-.005 1.767-.003.173.06.227.227.224.404-.01.808.001 1.212-.005.153-.003.206.056.209.206.01.465.015.47-.45.471-.329 0-.659-.01-.987-.025-.151-.006-.21.046-.21.201.004 1.78.002 3.56.007 5.34 0 .197.018.398.06.59.06.287.247.463.542.52.286.055.57.052.845-.05.154-.057.191 0 .188.138v.112c0 .407-.033.456-.44.504a3.17 3.17 0 0 1-.837-.006c-.678-.105-1.108-.641-1.117-1.413-.01-.949-.003-1.897-.003-2.847h-.003l-.002.001Zm-37.479-.084v-2.752c0-.245-.01-.254-.251-.251-.199.003-.397.016-.596.022-.137.003-.202-.061-.199-.205.014-.557-.046-.458.445-.469a8.17 8.17 0 0 1 .43 0c.138.006.213-.046.207-.19-.018-.435.038-.867.043-1.3.003-.26.02-.52.033-.78 0-.03 0-.075.02-.088.16-.123.344-.056.518-.053.133.003.11.127.11.217 0 .626 0 1.253-.003 1.88 0 .21.106.314.318.314.386 0 .771.005 1.156-.001.153-.003.207.054.21.206.01.464.014.466-.449.47-.328.003-.658 0-.987-.019-.234-.015-.246.003-.246.232-.002.706 0 1.413 0 2.12 0 1.03 0 2.059-.003 3.088 0 .23.012.459.074.681.096.342.332.537.683.557.255.015.51.015.753-.086.12-.051.176-.024.172.11-.002.044 0 .087 0 .13 0 .41-.038.468-.438.513a3.029 3.029 0 0 1-.93-.015c-.495-.099-.815-.4-.958-.883a2.685 2.685 0 0 1-.11-.77v-2.68h-.002v.002Zm4.026-.034v-2.717c0-.247-.007-.254-.25-.253-.192 0-.383.015-.576.02-.152.003-.222-.064-.218-.227.014-.523-.037-.436.433-.444.162-.003.323-.003.486 0 .12.002.164-.054.167-.169.021-.669.054-1.337.066-2.006.003-.18.05-.255.242-.25.454.011.414-.028.412.413-.001.596.003 1.19-.006 1.787-.003.168.054.231.226.228.416-.009.833.002 1.248-.004.15-.003.21.046.214.201.012.468.016.47-.447.475-.31.003-.621.002-.932-.02-.301-.02-.304-.01-.306.286 0 1.401-.003 2.804 0 4.205 0 .477-.027.955.033 1.431.06.484.338.75.823.762.224.006.448.003.659-.091.12-.054.16 0 .161.113v.13c0 .41-.037.465-.44.513a3.14 3.14 0 0 1-.836-.005c-.648-.099-1.026-.54-1.124-1.273-.053-.39-.036-.78-.04-1.17-.002-.645 0-1.29 0-1.935h.005ZM68.27 38.08a.833.833 0 0 0 .188-.252 1.775 1.775 0 0 1 1.926-.845c.112.025.178.093.182.205.007.173.004.346.004.52 0 .108-.058.119-.149.095-.799-.21-1.377.06-1.75.798-.2.397-.286.815-.304 1.254-.068 1.618-.016 3.236-.032 4.855-.003.306-.005.31-.313.312-.52.003-.448.036-.448-.445v-7.143c0-.308 0-.31.302-.308.4.002.385-.047.384.381l-.003.522c0 .011.006.023.013.053v-.003Zm33.68.056c.103-.136.148-.306.251-.447.474-.645 1.12-.818 1.878-.706.115.016.156.097.164.196.013.179.021.358.022.539 0 .143-.092.092-.17.071-.505-.138-.987-.086-1.379.275-.355.329-.543.767-.624 1.243a6.1 6.1 0 0 0-.084 1.055c.005 1.47.005 2.94.006 4.41 0 .241 0 .238-.234.226-.099-.004-.199.005-.297.012-.198.015-.235-.016-.235-.207 0-1.7 0-3.399.002-5.098v-2.326c0-.25.006-.259.243-.257.465.003.403-.05.408.406v.59l.049.015v.003Zm-94.13.028a2.09 2.09 0 0 1 .364-.639c.374-.447 1.171-.696 1.73-.535.097.029.152.088.157.184.01.18.01.359.013.54 0 .096-.046.111-.133.084-.863-.267-1.522.216-1.779.816-.177.417-.294.843-.294 1.295v4.853c0 .25 0 .247-.243.236-.105-.004-.211.006-.316.015-.135.012-.209-.028-.209-.182.003-2.498.003-4.997 0-7.494 0-.16.051-.221.215-.217.513.012.434-.052.441.432.003.197 0 .394 0 .593l.05.02h.004Z" class="Vector"/>
      </g>
    </g>
  </g>
</svg>
