<svg xmlns="http://www.w3.org/2000/svg" fill="none" viewBox="0 0 680 495">
  <rect width="215.345" height="80.51" x="381.856" y="103.712" fill="#18181B" rx="6.39"/>
  <path fill="#fff" d="M451.611 150.823v-14.312h4.969c4.498 0 7.606 3.087 7.606 7.115v.041c0 4.028-3.108 7.156-7.606 7.156h-4.969Zm1.615-1.492h3.354c3.619 0 5.929-2.454 5.929-5.623v-.041c0-3.169-2.31-5.664-5.929-5.664h-3.354v11.328Zm17.262 1.717c-1.983 0-3.946-1.124-3.946-3.292v-.04c0-2.27 1.84-3.456 4.519-3.456 1.349 0 2.29.184 3.231.45v-.327c0-1.881-1.145-2.863-3.129-2.863-1.247 0-2.229.307-3.21.757l-.47-1.289c1.165-.531 2.29-.899 3.844-.899 1.492 0 2.658.409 3.414 1.165.737.736 1.105 1.759 1.105 3.108v6.461h-1.554v-1.574c-.737.941-1.943 1.799-3.804 1.799Zm.307-1.267c1.943 0 3.517-1.166 3.517-2.842v-.982a10.862 10.862 0 0 0-3.087-.45c-1.963 0-3.088.859-3.088 2.127v.041c0 1.329 1.227 2.106 2.658 2.106Zm11.823 1.227c-1.697 0-2.985-.839-2.985-2.986v-6.379h-1.472v-1.391h1.472v-3.189h1.574v3.189h3.353v1.391h-3.353v6.175c0 1.288.716 1.758 1.779 1.758.532 0 .981-.102 1.534-.368v1.35a3.966 3.966 0 0 1-1.902.45Zm7.878.04c-1.983 0-3.946-1.124-3.946-3.292v-.04c0-2.27 1.84-3.456 4.519-3.456 1.349 0 2.29.184 3.23.45v-.327c0-1.881-1.145-2.863-3.128-2.863-1.247 0-2.229.307-3.21.757l-.471-1.289c1.166-.531 2.291-.899 3.845-.899 1.492 0 2.658.409 3.414 1.165.736.736 1.104 1.759 1.104 3.108v6.461h-1.554v-1.574c-.736.941-1.942 1.799-3.803 1.799Zm.307-1.267c1.942 0 3.517-1.166 3.517-2.842v-.982a10.87 10.87 0 0 0-3.088-.45c-1.963 0-3.087.859-3.087 2.127v.041c0 1.329 1.227 2.106 2.658 2.106Zm14.781 1.042v-14.312h6.155c1.758 0 3.169.531 4.069 1.431.695.695 1.104 1.697 1.104 2.822v.04c0 2.372-1.636 3.763-3.885 4.172l4.396 5.847h-1.983l-4.151-5.561h-4.09v5.561h-1.615Zm1.615-7.013h4.397c2.147 0 3.68-1.104 3.68-2.944v-.041c0-1.759-1.349-2.822-3.66-2.822h-4.417v5.807Zm17.521 7.259c-3.169 0-5.479-2.495-5.479-5.48v-.041c0-2.985 2.331-5.521 5.52-5.521 3.17 0 5.501 2.495 5.501 5.48v.041c0 2.985-2.352 5.521-5.542 5.521Zm.041-1.411c2.29 0 3.885-1.84 3.885-4.069v-.041c0-2.269-1.697-4.13-3.926-4.13-2.29 0-3.864 1.861-3.864 4.089v.041c0 2.27 1.677 4.11 3.905 4.11Zm13.178 1.411c-3.169 0-5.48-2.495-5.48-5.48v-.041c0-2.985 2.331-5.521 5.521-5.521 3.169 0 5.5 2.495 5.5 5.48v.041c0 2.985-2.351 5.521-5.541 5.521Zm.041-1.411c2.29 0 3.885-1.84 3.885-4.069v-.041c0-2.269-1.697-4.13-3.926-4.13-2.29 0-3.864 1.861-3.864 4.089v.041c0 2.27 1.676 4.11 3.905 4.11Zm8.352 1.165v-10.571h1.575v1.779c.695-1.043 1.635-2.004 3.414-2.004 1.718 0 2.822.921 3.395 2.106.756-1.165 1.881-2.106 3.721-2.106 2.433 0 3.926 1.636 3.926 4.253v6.543h-1.575v-6.175c0-2.044-1.022-3.189-2.74-3.189-1.594 0-2.924 1.186-2.924 3.271v6.093h-1.553v-6.215c0-1.984-1.043-3.149-2.72-3.149-1.677 0-2.944 1.39-2.944 3.333v6.031h-1.575Zm22.945.205c-1.513 0-3.189-.593-4.375-1.554l.797-1.125c1.145.859 2.413 1.35 3.66 1.35 1.268 0 2.188-.654 2.188-1.677v-.041c0-1.063-1.247-1.472-2.638-1.86-1.656-.471-3.496-1.043-3.496-2.986v-.04c0-1.82 1.513-3.027 3.599-3.027 1.288 0 2.719.45 3.803 1.166l-.716 1.186c-.981-.634-2.106-1.023-3.128-1.023-1.248 0-2.045.655-2.045 1.534v.041c0 1.002 1.309 1.39 2.719 1.82 1.636.49 3.395 1.124 3.395 3.026v.041c0 2.003-1.657 3.169-3.763 3.169Z"/>
  <rect width="36.258" height="36.258" x="403.343" y="125.838" stroke="url(#a)" stroke-width="2.08" rx="6.96"/>
  <path fill="#fff" d="M0 0h24.17v24.17H0z" style="mix-blend-mode:multiply" transform="translate(409.387 131.882)"/>
  <path fill="url(#b)" d="M429.025 153.031h-15.106a1.51 1.51 0 0 1-1.511-1.511v-11.329a1.515 1.515 0 0 1 1.511-1.511h4.28c.327.001.645.107.907.302l2.618 1.964h7.301a1.51 1.51 0 0 1 1.511 1.511v9.063a1.515 1.515 0 0 1-1.511 1.511Zm-10.826-12.84h-4.281l.001 11.329h15.106v-9.063h-7.805l-3.021-2.266Z"/>
  <path fill="url(#c)" d="M430.536 138.68h-7.805l-3.022-2.266h-5.79v-1.51h5.79c.327 0 .645.106.907.302l2.618 1.964h7.302v1.51Z"/>
  <rect width="265.185" height="80.51" x="381.855" y=".197" fill="#18181B" rx="6.39"/>
  <path fill="#fff" d="M455.587 47.31V32.997h1.615V47.31h-1.615Zm5.541 0V36.738h1.575v1.84c.695-1.144 1.799-2.065 3.619-2.065 2.556 0 4.048 1.718 4.048 4.233v6.564h-1.574v-6.175c0-1.963-1.063-3.19-2.924-3.19-1.82 0-3.169 1.329-3.169 3.312v6.053h-1.575Zm15.738.081-4.58-10.653h1.738l3.558 8.772 3.578-8.772h1.697l-4.601 10.653h-1.39Zm8.785-4.723c.225 2.229 1.861 3.517 3.721 3.517 1.452 0 2.474-.593 3.333-1.493l.982.88c-1.064 1.185-2.352 1.983-4.356 1.983-2.903 0-5.275-2.229-5.275-5.52 0-3.068 2.147-5.521 5.071-5.521 3.128 0 4.928 2.494 4.928 5.602 0 .143 0 .307-.021.552h-8.383Zm0-1.268h6.809c-.184-1.922-1.288-3.557-3.374-3.557-1.82 0-3.21 1.513-3.435 3.557Zm14.656 6.114c-1.513 0-3.19-.593-4.375-1.554l.797-1.124c1.145.858 2.413 1.349 3.66 1.349 1.268 0 2.188-.654 2.188-1.677v-.04c0-1.064-1.247-1.473-2.638-1.861-1.656-.47-3.496-1.043-3.496-2.986v-.04c0-1.82 1.513-3.027 3.598-3.027 1.289 0 2.72.45 3.804 1.166l-.716 1.186c-.982-.634-2.106-1.023-3.128-1.023-1.248 0-2.045.655-2.045 1.534v.04c0 1.003 1.308 1.391 2.719 1.82 1.636.491 3.394 1.125 3.394 3.027v.04c0 2.005-1.656 3.17-3.762 3.17Zm10.025-.02c-1.697 0-2.985-.839-2.985-2.986v-6.38h-1.472v-1.39h1.472v-3.19h1.574v3.19h3.353v1.39h-3.353v6.176c0 1.288.716 1.758 1.779 1.758.532 0 .982-.102 1.534-.368v1.35a3.96 3.96 0 0 1-1.902.45Zm9.255.06c-3.169 0-5.479-2.494-5.479-5.479v-.04c0-2.986 2.33-5.521 5.52-5.521 3.17 0 5.5 2.494 5.5 5.48v.04c0 2.986-2.351 5.52-5.541 5.52Zm.041-1.41c2.29 0 3.885-1.84 3.885-4.069v-.04c0-2.27-1.697-4.131-3.926-4.131-2.29 0-3.864 1.86-3.864 4.09v.04c0 2.27 1.677 4.11 3.905 4.11Zm8.353 1.166V36.738h1.574v2.76c.777-1.758 2.31-3.025 4.314-2.944v1.697h-.122c-2.311 0-4.192 1.657-4.192 4.846v4.213h-1.574Zm20.407.224c-3.537 0-5.95-2.167-5.95-6.215v-8.322h1.616v8.22c0 3.087 1.635 4.825 4.375 4.825 2.638 0 4.314-1.595 4.314-4.723v-8.322h1.616v8.199c0 4.171-2.392 6.339-5.971 6.339Zm9.524 3.047V36.738h1.575v2.127c.858-1.268 2.106-2.352 4.048-2.352 2.536 0 5.051 2.004 5.051 5.48v.041c0 3.456-2.495 5.5-5.051 5.5-1.963 0-3.23-1.063-4.048-2.249v5.296h-1.575Zm5.337-4.457c2.045 0 3.721-1.513 3.721-4.07v-.04c0-2.495-1.717-4.09-3.721-4.09-1.963 0-3.824 1.657-3.824 4.07v.04c0 2.454 1.861 4.09 3.824 4.09Zm12.678 1.41c-2.535 0-5.05-2.003-5.05-5.48v-.04c0-3.456 2.515-5.5 5.05-5.5 1.963 0 3.231 1.063 4.049 2.249v-6.38h1.574V47.31h-1.574v-2.127c-.859 1.268-2.106 2.352-4.049 2.352Zm.287-1.41c1.963 0 3.823-1.657 3.823-4.09v-.04c0-2.434-1.86-4.07-3.823-4.07-2.045 0-3.722 1.514-3.722 4.07v.04c0 2.495 1.718 4.09 3.722 4.09Zm12.003 1.41c-1.983 0-3.946-1.124-3.946-3.291v-.041c0-2.27 1.84-3.456 4.519-3.456 1.349 0 2.29.184 3.231.45v-.327c0-1.881-1.146-2.863-3.129-2.863-1.247 0-2.229.307-3.21.757l-.47-1.288c1.165-.532 2.29-.9 3.844-.9 1.492 0 2.658.409 3.414 1.165.736.736 1.104 1.759 1.104 3.108v6.462h-1.553v-1.575c-.737.94-1.943 1.8-3.804 1.8Zm.307-1.267c1.943 0 3.517-1.166 3.517-2.842v-.982a10.868 10.868 0 0 0-3.088-.45c-1.962 0-3.087.86-3.087 2.127v.04c0 1.33 1.227 2.107 2.658 2.107Zm11.823 1.227c-1.697 0-2.985-.839-2.985-2.986v-6.38h-1.473v-1.39h1.473v-3.19h1.574v3.19h3.353v1.39h-3.353v6.176c0 1.288.716 1.758 1.779 1.758.532 0 .981-.102 1.534-.368v1.35a3.966 3.966 0 0 1-1.902.45Zm5.37-4.826c.225 2.229 1.861 3.517 3.722 3.517 1.451 0 2.474-.593 3.333-1.493l.981.88c-1.063 1.185-2.351 1.983-4.355 1.983-2.904 0-5.276-2.229-5.276-5.52 0-3.068 2.147-5.521 5.071-5.521 3.129 0 4.928 2.494 4.928 5.602 0 .143 0 .307-.02.552h-8.384Zm0-1.268h6.809c-.184-1.922-1.288-3.557-3.374-3.557-1.819 0-3.21 1.513-3.435 3.557Zm14.657 6.114c-1.513 0-3.19-.593-4.376-1.554l.797-1.124c1.145.858 2.413 1.349 3.66 1.349 1.268 0 2.188-.654 2.188-1.677v-.04c0-1.064-1.247-1.473-2.637-1.861-1.657-.47-3.497-1.043-3.497-2.986v-.04c0-1.82 1.513-3.027 3.599-3.027 1.288 0 2.719.45 3.803 1.166l-.716 1.186c-.981-.634-2.106-1.023-3.128-1.023-1.247 0-2.045.655-2.045 1.534v.04c0 1.003 1.309 1.391 2.72 1.82 1.636.491 3.394 1.125 3.394 3.027v.04c0 2.005-1.656 3.17-3.762 3.17Z"/>
  <rect width="36.258" height="36.258" x="403.343" y="22.323" stroke="url(#d)" stroke-width="2.08" rx="6.96"/>
  <path fill="url(#e)" d="M417.114 33.714h8.805v1.29h-8.805v-1.29Z"/>
  <path fill="url(#f)" d="M416.982 36.1h8.429v1.29h-8.429V36.1Z"/>
  <path fill="url(#g)" d="m417.008 46.472-.744-.784 3.72-3.915 3.719 3.132 2.232-3.132.744.783-2.976 3.916-3.719-3.133-2.976 3.133Z"/>
  <path fill="url(#h)" d="M423.73 38.486h-7.019v1.29h7.019v-1.29Z"/>
  <path fill="url(#i)" d="M428.38 30.134h-13.816c-.705 0-1.275.6-1.275 1.342v17.951c0 .742.57 1.342 1.275 1.342h13.816c.704 0 1.275-.6 1.275-1.342v-9.65h-1.275v9.703h-13.816V31.424h13.816v8.353h1.275v-8.301c0-.741-.571-1.342-1.275-1.342Z"/>
  <rect width="215.346" height="80.51" x="381.855" y="207.224" fill="#18181B" rx="6.39"/>
  <path fill="#fff" d="M452.888 254.333V240.02h4.968c4.499 0 7.606 3.088 7.606 7.116v.041c0 4.028-3.107 7.156-7.606 7.156h-4.968Zm1.615-1.493h3.353c3.619 0 5.93-2.453 5.93-5.623v-.04c0-3.17-2.311-5.664-5.93-5.664h-3.353v11.327Zm17.262 1.718c-1.984 0-3.946-1.125-3.946-3.292v-.041c0-2.27 1.84-3.455 4.518-3.455 1.35 0 2.29.184 3.231.449v-.327c0-1.881-1.145-2.862-3.128-2.862-1.248 0-2.229.306-3.211.756l-.47-1.288c1.166-.532 2.29-.9 3.844-.9 1.493 0 2.658.409 3.415 1.166.736.736 1.104 1.758 1.104 3.108v6.461h-1.554v-1.574c-.736.94-1.943 1.799-3.803 1.799Zm.306-1.268c1.943 0 3.517-1.165 3.517-2.842v-.981a10.862 10.862 0 0 0-3.087-.45c-1.963 0-3.088.859-3.088 2.126v.041c0 1.329 1.227 2.106 2.658 2.106Zm11.882 1.247c-1.513 0-3.189-.592-4.375-1.553l.797-1.125c1.145.859 2.413 1.349 3.66 1.349 1.268 0 2.188-.654 2.188-1.676v-.041c0-1.063-1.247-1.472-2.638-1.861-1.656-.47-3.496-1.043-3.496-2.985v-.041c0-1.82 1.513-3.026 3.598-3.026 1.289 0 2.72.45 3.804 1.165l-.716 1.186c-.981-.634-2.106-1.022-3.128-1.022-1.248 0-2.045.654-2.045 1.533v.041c0 1.002 1.309 1.391 2.719 1.82 1.636.491 3.395 1.125 3.395 3.026v.041c0 2.004-1.657 3.169-3.763 3.169Zm6.687-.204v-14.926h1.575v6.195c.695-1.145 1.799-2.065 3.619-2.065 2.556 0 4.049 1.718 4.049 4.233v6.563h-1.575v-6.175c0-1.963-1.063-3.19-2.924-3.19-1.82 0-3.169 1.329-3.169 3.313v6.052h-1.575Zm18.223.225c-1.963 0-3.231-1.063-4.048-2.249v2.024h-1.575v-14.926h1.575v6.481c.858-1.267 2.106-2.351 4.048-2.351 2.536 0 5.05 2.004 5.05 5.48v.041c0 3.455-2.494 5.5-5.05 5.5Zm-.286-1.411c2.045 0 3.721-1.513 3.721-4.069v-.041c0-2.494-1.717-4.089-3.721-4.089-1.963 0-3.824 1.656-3.824 4.069v.041c0 2.453 1.861 4.089 3.824 4.089Zm13.067 1.431c-3.17 0-5.48-2.494-5.48-5.479v-.041c0-2.986 2.331-5.521 5.521-5.521 3.169 0 5.5 2.495 5.5 5.48v.041c0 2.985-2.352 5.52-5.541 5.52Zm.041-1.41c2.29 0 3.885-1.841 3.885-4.069v-.041c0-2.27-1.698-4.131-3.926-4.131-2.29 0-3.865 1.861-3.865 4.09v.041c0 2.269 1.677 4.11 3.906 4.11Zm11.501 1.39c-1.984 0-3.946-1.125-3.946-3.292v-.041c0-2.27 1.84-3.455 4.518-3.455 1.35 0 2.29.184 3.231.449v-.327c0-1.881-1.145-2.862-3.128-2.862-1.248 0-2.229.306-3.211.756l-.47-1.288c1.166-.532 2.29-.9 3.844-.9 1.493 0 2.658.409 3.415 1.166.736.736 1.104 1.758 1.104 3.108v6.461h-1.554v-1.574c-.736.94-1.943 1.799-3.803 1.799Zm.306-1.268c1.943 0 3.517-1.165 3.517-2.842v-.981a10.862 10.862 0 0 0-3.087-.45c-1.963 0-3.088.859-3.088 2.126v.041c0 1.329 1.227 2.106 2.658 2.106Zm8.386 1.043v-10.571h1.574v2.76c.777-1.758 2.311-3.026 4.315-2.944v1.697h-.123c-2.311 0-4.192 1.656-4.192 4.846v4.212h-1.574Zm12.284.225c-2.535 0-5.05-2.004-5.05-5.48v-.041c0-3.455 2.515-5.5 5.05-5.5 1.963 0 3.231 1.063 4.049 2.249v-6.379h1.574v14.926h-1.574v-2.126c-.859 1.267-2.106 2.351-4.049 2.351Zm.286-1.411c1.963 0 3.824-1.656 3.824-4.089v-.041c0-2.433-1.861-4.069-3.824-4.069-2.044 0-3.721 1.513-3.721 4.069v.041c0 2.494 1.718 4.089 3.721 4.089Zm12.352 1.39c-1.513 0-3.19-.592-4.376-1.553l.798-1.125c1.145.859 2.412 1.349 3.66 1.349 1.267 0 2.187-.654 2.187-1.676v-.041c0-1.063-1.247-1.472-2.637-1.861-1.656-.47-3.497-1.043-3.497-2.985v-.041c0-1.82 1.513-3.026 3.599-3.026 1.288 0 2.719.45 3.803 1.165l-.716 1.186c-.981-.634-2.106-1.022-3.128-1.022-1.247 0-2.045.654-2.045 1.533v.041c0 1.002 1.309 1.391 2.72 1.82 1.636.491 3.394 1.125 3.394 3.026v.041c0 2.004-1.656 3.169-3.762 3.169Z"/>
  <rect width="36.258" height="36.258" x="403.343" y="229.348" stroke="url(#j)" stroke-width="2.08" rx="6.96"/>
  <g clip-path="url(#k)">
    <path fill="url(#l)" d="M429.024 251.192h-1.511v3.776h1.511v-3.776Z"/>
    <path fill="url(#m)" d="M426.003 247.416h-1.51v7.552h1.51v-7.552Z"/>
    <path fill="url(#n)" d="M417.695 254.968a3.782 3.782 0 0 1-3.776-3.776h1.511a2.268 2.268 0 0 0 2.707 2.222 2.26 2.26 0 0 0 1.78-1.78c.088-.44.043-.895-.129-1.309a2.26 2.26 0 0 0-2.093-1.399v-1.51a3.775 3.775 0 1 1 0 7.552Z"/>
    <path fill="url(#o)" d="M430.534 236.844h-18.125a1.51 1.51 0 0 0-1.51 1.51v18.124a1.51 1.51 0 0 0 1.51 1.511h18.125a1.515 1.515 0 0 0 1.51-1.511v-18.124a1.513 1.513 0 0 0-1.51-1.51Zm0 6.796h-10.573v-5.286h10.573v5.286Zm-12.083-5.286v5.286h-6.042v-5.286h6.042Zm-6.042 18.124v-11.327h18.125l.001 11.327h-18.126Z"/>
  </g>
  <rect width="247.473" height="80.51" x="381.856" y="310.732" fill="#18181B" rx="6.39"/>
  <path fill="#fff" d="M454.807 357.849v-14.313h6.093c1.636 0 2.924.47 3.742 1.267.593.614.92 1.37.92 2.29v.041c0 1.861-1.145 2.822-2.27 3.313 1.698.511 3.068 1.492 3.068 3.455v.041c0 2.454-2.066 3.906-5.194 3.906h-6.359Zm1.595-7.934h4.232c1.943 0 3.292-.879 3.292-2.556v-.041c0-1.41-1.124-2.331-3.169-2.331h-4.355v4.928Zm0 6.482h4.805c2.167 0 3.517-.961 3.517-2.556v-.041c0-1.554-1.309-2.454-3.803-2.454h-4.519v5.051Zm17.721 1.697c-3.169 0-5.48-2.495-5.48-5.48v-.041c0-2.985 2.331-5.52 5.521-5.52 3.169 0 5.5 2.494 5.5 5.479v.041c0 2.986-2.351 5.521-5.541 5.521Zm.041-1.411c2.29 0 3.885-1.84 3.885-4.069v-.041c0-2.269-1.697-4.13-3.926-4.13-2.29 0-3.865 1.861-3.865 4.089v.041c0 2.27 1.677 4.11 3.906 4.11Zm11.501 1.391c-1.983 0-3.946-1.125-3.946-3.292v-.041c0-2.27 1.84-3.456 4.518-3.456 1.35 0 2.291.184 3.231.45v-.327c0-1.881-1.145-2.863-3.128-2.863-1.248 0-2.229.307-3.211.757l-.47-1.288c1.166-.532 2.29-.9 3.844-.9 1.493 0 2.658.409 3.415 1.165.736.737 1.104 1.759 1.104 3.108v6.462h-1.554v-1.575c-.736.941-1.942 1.8-3.803 1.8Zm.307-1.268c1.942 0 3.517-1.166 3.517-2.842v-.982a10.87 10.87 0 0 0-3.088-.45c-1.963 0-3.087.859-3.087 2.127v.041c0 1.329 1.226 2.106 2.658 2.106Zm8.385 1.043v-10.571h1.574v2.76c.777-1.759 2.311-3.026 4.315-2.945v1.698h-.123c-2.31 0-4.192 1.656-4.192 4.846v4.212h-1.574Zm12.284.225c-2.535 0-5.05-2.004-5.05-5.48v-.041c0-3.456 2.515-5.5 5.05-5.5 1.963 0 3.231 1.063 4.049 2.249v-6.38h1.574v14.927h-1.574v-2.127c-.859 1.268-2.106 2.352-4.049 2.352Zm.287-1.411c1.963 0 3.823-1.657 3.823-4.09v-.041c0-2.433-1.86-4.069-3.823-4.069-2.045 0-3.722 1.514-3.722 4.069v.041c0 2.495 1.718 4.09 3.722 4.09Zm15.25 1.186v-14.313h1.636l5.214 7.81 5.214-7.81h1.636v14.313h-1.615v-11.594l-5.214 7.668h-.082l-5.214-7.647v11.573h-1.575Zm18.427-4.642c.224 2.229 1.86 3.517 3.721 3.517 1.452 0 2.474-.593 3.333-1.493l.981.88c-1.063 1.186-2.351 1.983-4.355 1.983-2.903 0-5.275-2.229-5.275-5.521 0-3.067 2.147-5.52 5.071-5.52 3.128 0 4.927 2.494 4.927 5.602 0 .143 0 .307-.02.552h-8.383Zm0-1.268h6.808c-.184-1.922-1.288-3.557-3.373-3.557-1.82 0-3.211 1.513-3.435 3.557Zm12.1 1.268c.225 2.229 1.861 3.517 3.721 3.517 1.452 0 2.474-.593 3.333-1.493l.982.88c-1.064 1.186-2.352 1.983-4.356 1.983-2.903 0-5.275-2.229-5.275-5.521 0-3.067 2.147-5.52 5.071-5.52 3.128 0 4.928 2.494 4.928 5.602 0 .143 0 .307-.021.552h-8.383Zm0-1.268h6.809c-.184-1.922-1.288-3.557-3.374-3.557-1.82 0-3.21 1.513-3.435 3.557Zm14.697 6.094c-1.697 0-2.985-.839-2.985-2.986v-6.379h-1.472v-1.39h1.472v-3.19h1.574v3.19h3.354v1.39h-3.354v6.175c0 1.288.716 1.758 1.779 1.758.532 0 .982-.102 1.534-.368v1.35a3.963 3.963 0 0 1-1.902.45Zm4.771-13.066v-1.738h1.799v1.738h-1.799Zm.102 12.882v-10.571h1.574v10.571h-1.574Zm5.228 0v-10.571h1.574v1.84c.696-1.145 1.8-2.065 3.62-2.065 2.555 0 4.048 1.717 4.048 4.232v6.564h-1.574v-6.175c0-1.963-1.064-3.19-2.924-3.19-1.82 0-3.17 1.329-3.17 3.312v6.053h-1.574Zm17.282 3.312c-1.758 0-3.394-.491-4.805-1.472l.716-1.227c1.206.879 2.555 1.35 4.069 1.35 2.331 0 3.844-1.289 3.844-3.763v-1.247c-.92 1.227-2.209 2.229-4.151 2.229-2.536 0-4.969-1.902-4.969-4.948v-.041c0-3.088 2.454-4.989 4.969-4.989 1.983 0 3.271.981 4.13 2.126v-1.901h1.575v8.73c0 1.636-.491 2.883-1.35 3.742-.94.941-2.351 1.411-4.028 1.411Zm-.02-5.521c2.003 0 3.885-1.451 3.885-3.578v-.041c0-2.167-1.882-3.578-3.885-3.578-2.004 0-3.66 1.39-3.66 3.558v.041c0 2.126 1.697 3.598 3.66 3.598Zm12.412 2.413c-1.513 0-3.19-.593-4.375-1.554l.797-1.124c1.145.858 2.413 1.349 3.66 1.349 1.268 0 2.188-.654 2.188-1.677v-.041c0-1.063-1.247-1.472-2.638-1.86-1.656-.47-3.496-1.043-3.496-2.985v-.041c0-1.82 1.513-3.027 3.598-3.027 1.289 0 2.72.45 3.804 1.166l-.716 1.186c-.982-.634-2.106-1.022-3.128-1.022-1.248 0-2.045.654-2.045 1.533v.041c0 1.002 1.308 1.39 2.719 1.82 1.636.49 3.394 1.124 3.394 3.026v.041c0 2.004-1.656 3.169-3.762 3.169Z"/>
  <rect width="36.258" height="36.258" x="403.343" y="332.862" stroke="url(#p)" stroke-width="2.08" rx="6.96"/>
  <path fill="url(#q)" d="M422.227 346.402h-1.511v6.042h1.511v-6.042Z"/>
  <path fill="url(#r)" d="M426.003 349.423h-1.51v3.021h1.51v-3.021Z"/>
  <path fill="url(#s)" d="M418.45 347.912h-1.51v4.532h1.51v-4.532Z"/>
  <path fill="url(#t)" d="M428.269 341.87h-6.042v-1.511h-1.511v1.511h-6.042a1.51 1.51 0 0 0-1.511 1.511v10.574a1.51 1.51 0 0 0 1.511 1.511h6.042v4.531h-3.021v1.511h7.553v-1.511h-3.021v-4.531h6.042a1.515 1.515 0 0 0 1.511-1.511v-10.574c0-.401-.159-.785-.442-1.069a1.514 1.514 0 0 0-1.069-.442Zm0 12.085h-13.595v-10.574h13.595v10.574Z"/>
  <rect width="297.422" height="80.51" x="381.857" y="414.249" fill="#18181B" rx="6.39"/>
  <path fill="#fff" d="M451.612 461.364v-14.313h10.285v1.493h-8.67v5.111h7.749v1.473h-7.749v6.236h-1.615Zm17.037.225c-2.556 0-4.048-1.718-4.048-4.233v-6.563h1.574v6.175c0 1.963 1.063 3.19 2.924 3.19 1.799 0 3.169-1.329 3.169-3.313v-6.052h1.554v10.571h-1.554v-1.84c-.715 1.145-1.799 2.065-3.619 2.065Zm8.715-.225v-10.571h1.574v1.84c.696-1.145 1.8-2.065 3.619-2.065 2.556 0 4.049 1.718 4.049 4.233v6.563h-1.574v-6.175c0-1.963-1.064-3.19-2.924-3.19-1.82 0-3.17 1.329-3.17 3.313v6.052h-1.574Zm17.037.225c-2.536 0-5.051-2.004-5.051-5.48v-.041c0-3.455 2.515-5.5 5.051-5.5 1.963 0 3.23 1.063 4.048 2.249v-6.379h1.575v14.926h-1.575v-2.126c-.859 1.267-2.106 2.351-4.048 2.351Zm.286-1.411c1.963 0 3.823-1.656 3.823-4.089v-.041c0-2.433-1.86-4.069-3.823-4.069-2.045 0-3.721 1.513-3.721 4.069v.041c0 2.494 1.717 4.089 3.721 4.089Zm8.855 1.186v-10.571h1.574v2.76c.777-1.758 2.311-3.026 4.314-2.944v1.697h-.122c-2.311 0-4.192 1.656-4.192 4.846v4.212h-1.574Zm10.916.225c-1.983 0-3.946-1.125-3.946-3.292v-.041c0-2.27 1.84-3.455 4.519-3.455a11.1 11.1 0 0 1 3.23.449v-.327c0-1.881-1.145-2.862-3.128-2.862-1.247 0-2.229.306-3.21.756l-.471-1.288c1.166-.532 2.29-.9 3.844-.9 1.493 0 2.658.409 3.415 1.166.736.736 1.104 1.758 1.104 3.108v6.461h-1.554v-1.574c-.736.94-1.942 1.799-3.803 1.799Zm.307-1.268c1.942 0 3.517-1.165 3.517-2.842v-.981a10.87 10.87 0 0 0-3.088-.45c-1.963 0-3.087.859-3.087 2.126v.041c0 1.329 1.226 2.106 2.658 2.106Zm8.426-11.839v-1.738h1.799v1.738h-1.799Zm.102 12.882v-10.571h1.575v10.571h-1.575Zm8.725.204c-1.513 0-3.19-.592-4.376-1.553l.798-1.125c1.145.859 2.412 1.349 3.66 1.349 1.267 0 2.188-.654 2.188-1.676v-.041c0-1.063-1.248-1.472-2.638-1.861-1.656-.47-3.497-1.043-3.497-2.985v-.041c0-1.82 1.513-3.026 3.599-3.026 1.288 0 2.72.45 3.803 1.165l-.715 1.186c-.982-.634-2.106-1.022-3.129-1.022-1.247 0-2.045.654-2.045 1.533v.041c0 1.002 1.309 1.391 2.72 1.82 1.636.491 3.394 1.125 3.394 3.026v.041c0 2.004-1.656 3.169-3.762 3.169Zm6.728-13.086v-1.738h1.799v1.738h-1.799Zm.102 12.882v-10.571h1.575v10.571h-1.575Zm5.228 0v-10.571h1.575v1.84c.695-1.145 1.799-2.065 3.619-2.065 2.556 0 4.048 1.718 4.048 4.233v6.563h-1.574v-6.175c0-1.963-1.063-3.19-2.924-3.19-1.82 0-3.169 1.329-3.169 3.313v6.052h-1.575Zm17.282 3.312c-1.758 0-3.394-.49-4.805-1.472l.716-1.227c1.206.88 2.556 1.35 4.069 1.35 2.331 0 3.844-1.288 3.844-3.762v-1.248c-.92 1.227-2.208 2.229-4.151 2.229-2.535 0-4.968-1.901-4.968-4.948v-.041c0-3.087 2.453-4.989 4.968-4.989 1.984 0 3.272.981 4.131 2.126v-1.901h1.574v8.731c0 1.636-.491 2.883-1.349 3.742-.941.94-2.352 1.41-4.029 1.41Zm-.02-5.52c2.004 0 3.885-1.452 3.885-3.578v-.041c0-2.168-1.881-3.579-3.885-3.579-2.004 0-3.66 1.391-3.66 3.558v.041c0 2.127 1.697 3.599 3.66 3.599Zm21.037 2.433c-3.537 0-5.95-2.167-5.95-6.216v-8.322h1.616v8.22c0 3.087 1.635 4.825 4.375 4.825 2.638 0 4.315-1.595 4.315-4.723v-8.322h1.615v8.199c0 4.172-2.392 6.339-5.971 6.339Zm9.524 3.047v-13.843h1.575v2.126c.858-1.267 2.106-2.351 4.048-2.351 2.536 0 5.051 2.004 5.051 5.48v.041c0 3.455-2.495 5.5-5.051 5.5-1.963 0-3.23-1.063-4.048-2.249v5.296h-1.575Zm5.337-4.458c2.045 0 3.721-1.513 3.721-4.069v-.041c0-2.494-1.717-4.089-3.721-4.089-1.963 0-3.824 1.656-3.824 4.069v.041c0 2.453 1.861 4.089 3.824 4.089Zm12.678 1.411c-2.535 0-5.05-2.004-5.05-5.48v-.041c0-3.455 2.515-5.5 5.05-5.5 1.963 0 3.231 1.063 4.049 2.249v-6.379h1.574v14.926h-1.574v-2.126c-.859 1.267-2.106 2.351-4.049 2.351Zm.287-1.411c1.963 0 3.823-1.656 3.823-4.089v-.041c0-2.433-1.86-4.069-3.823-4.069-2.045 0-3.722 1.513-3.722 4.069v.041c0 2.494 1.718 4.089 3.722 4.089Zm12.003 1.411c-1.983 0-3.946-1.125-3.946-3.292v-.041c0-2.27 1.84-3.455 4.519-3.455 1.349 0 2.29.184 3.231.449v-.327c0-1.881-1.146-2.862-3.129-2.862-1.247 0-2.229.306-3.21.756l-.47-1.288c1.165-.532 2.29-.9 3.844-.9 1.492 0 2.658.409 3.414 1.166.736.736 1.104 1.758 1.104 3.108v6.461h-1.553v-1.574c-.737.94-1.943 1.799-3.804 1.799Zm.307-1.268c1.943 0 3.517-1.165 3.517-2.842v-.981a10.864 10.864 0 0 0-3.088-.45c-1.962 0-3.087.859-3.087 2.126v.041c0 1.329 1.227 2.106 2.658 2.106Zm11.823 1.227c-1.697 0-2.985-.838-2.985-2.985v-6.38h-1.473v-1.39h1.473v-3.19h1.574v3.19h3.353v1.39h-3.353v6.175c0 1.288.716 1.759 1.779 1.759.532 0 .981-.102 1.534-.368v1.349a3.969 3.969 0 0 1-1.902.45Zm5.37-4.825c.225 2.228 1.861 3.516 3.722 3.516 1.451 0 2.474-.593 3.333-1.492l.981.879c-1.063 1.186-2.351 1.983-4.355 1.983-2.904 0-5.276-2.228-5.276-5.52 0-3.067 2.147-5.521 5.071-5.521 3.129 0 4.928 2.495 4.928 5.602 0 .144 0 .307-.02.553h-8.384Zm0-1.268h6.809c-.184-1.922-1.288-3.558-3.374-3.558-1.819 0-3.21 1.513-3.435 3.558Zm14.657 6.113c-1.513 0-3.19-.592-4.376-1.553l.797-1.125c1.145.859 2.413 1.349 3.66 1.349 1.268 0 2.188-.654 2.188-1.676v-.041c0-1.063-1.247-1.472-2.637-1.861-1.657-.47-3.497-1.043-3.497-2.985v-.041c0-1.82 1.513-3.026 3.599-3.026 1.288 0 2.719.45 3.803 1.165l-.716 1.186c-.981-.634-2.106-1.022-3.128-1.022-1.247 0-2.045.654-2.045 1.533v.041c0 1.002 1.309 1.391 2.72 1.82 1.636.491 3.394 1.125 3.394 3.026v.041c0 2.004-1.656 3.169-3.762 3.169Z"/>
  <rect width="36.258" height="36.258" x="403.343" y="437.15" stroke="url(#u)" stroke-width="2.08" rx="6.96"/>
  <g clip-path="url(#v)">
    <path fill="url(#w)" d="M421.472 443.194c-6.676 0-12.085 5.409-12.085 12.085 0 6.676 5.409 12.085 12.085 12.085 6.676 0 12.085-5.409 12.085-12.085 0-6.676-5.409-12.085-12.085-12.085Zm0 22.61c-5.804 0-10.526-4.721-10.526-10.525s4.722-10.526 10.526-10.526c5.803 0 10.525 4.722 10.525 10.526 0 5.804-4.722 10.525-10.525 10.525Zm1.964-10.783-3.509-.985a1.366 1.366 0 0 1-1.004-1.301c0-.745.624-1.355 1.389-1.355h2.193c.546 0 1.067.176 1.491.493.156.117.37.097.507-.039l.55-.561a.391.391 0 0 0-.039-.585 4.02 4.02 0 0 0-2.514-.872h-.249v-1.949a.39.39 0 0 0-.389-.39h-.78a.391.391 0 0 0-.39.39v1.949h-.38c-1.623 0-2.948 1.306-2.948 2.914 0 1.296.882 2.447 2.139 2.802l3.509.985a1.366 1.366 0 0 1 1.003 1.301c0 .745-.623 1.354-1.388 1.354h-2.193a2.486 2.486 0 0 1-1.491-.492.387.387 0 0 0-.507.039l-.551.561a.392.392 0 0 0 .039.584 4.019 4.019 0 0 0 2.515.873h.253v1.949c0 .214.175.39.39.39h.78a.39.39 0 0 0 .389-.39v-1.949h.38c1.623 0 2.949-1.306 2.949-2.914a2.936 2.936 0 0 0-2.144-2.802Z"/>
  </g>
  <path stroke="#71717A" stroke-dasharray="5.11 5.11" stroke-width="1.278" d="M381.856 356.741h-45c-21.174 0-38.338-17.164-38.338-38.338v-35.494c0-21.173-17.165-38.338-38.338-38.338h-71.293"/>
  <path stroke="#71717A" stroke-dasharray="5.11 5.11" stroke-width="1.278" d="M381.856 148.564h-45c-21.174 0-38.338 17.164-38.338 38.338v19.332c0 21.173-17.198 38.338-38.372 38.338m121.71 207.767h-44.727c-21.174 0-38.339-17.164-38.339-38.338V319.59"/>
  <path stroke="#71717A" stroke-dasharray="5.11 5.11" stroke-width="1.278" d="M381.856 40.59h-44.727c-21.174 0-38.339 17.164-38.339 38.337v91.514M.659 244.572h171.538"/>
  <rect width="152.075" height="28.115" x="73.23" y="230.515" fill="#D9D9D9" rx="14.057"/>
  <path fill="#000" d="M90.285 249.572v-10.735h3.727c3.373 0 5.704 2.316 5.704 5.337v.031c0 3.021-2.33 5.367-5.704 5.367h-3.727Zm1.212-1.119h2.515c2.714 0 4.447-1.841 4.447-4.218v-.03c0-2.377-1.733-4.248-4.447-4.248h-2.515v8.496Zm9.838 1.119 4.892-10.811h1.135l4.892 10.811h-1.304l-1.257-2.837h-5.843l-1.273 2.837h-1.242Zm2.99-3.926h4.892l-2.438-5.475-2.454 5.475Zm12.183 3.926v-9.615h-3.604v-1.12h8.434v1.12h-3.603v9.615h-1.227Zm5.487 0 4.892-10.811h1.135l4.892 10.811h-1.304l-1.257-2.837h-5.843l-1.273 2.837h-1.242Zm2.99-3.926h4.892l-2.438-5.475-2.454 5.475Zm20.983 4.11c-3.267 0-5.459-2.561-5.459-5.521v-.03c0-2.96 2.223-5.552 5.49-5.552 3.266 0 5.459 2.561 5.459 5.521v.031c0 2.959-2.224 5.551-5.49 5.551Zm.031-1.119c2.453 0 4.201-1.963 4.201-4.402v-.03c0-2.439-1.778-4.432-4.232-4.432s-4.202 1.963-4.202 4.401v.031c0 2.438 1.779 4.432 4.233 4.432Zm12.986 1.104c-2.653 0-4.463-1.626-4.463-4.662v-6.242h1.212v6.165c0 2.316 1.227 3.619 3.281 3.619 1.979 0 3.236-1.196 3.236-3.542v-6.242h1.212v6.15c0 3.128-1.795 4.754-4.478 4.754Zm10.857-.169v-9.615h-3.604v-1.12h8.435v1.12h-3.604v9.615h-1.227Zm7.785 0v-10.735h4.018c2.423 0 4.018 1.288 4.018 3.405v.03c0 2.316-1.932 3.512-4.217 3.512h-2.607v3.788h-1.212Zm1.212-4.892h2.653c1.778 0 2.944-.951 2.944-2.362v-.03c0-1.534-1.15-2.331-2.883-2.331h-2.714v4.723Zm14.003 5.061c-2.653 0-4.462-1.626-4.462-4.662v-6.242h1.211v6.165c0 2.316 1.227 3.619 3.282 3.619 1.978 0 3.236-1.196 3.236-3.542v-6.242h1.211v6.15c0 3.128-1.794 4.754-4.478 4.754Zm10.858-.169v-9.615h-3.604v-1.12h8.434v1.12h-3.603v9.615H203.7Z"/>
  <defs>
    <linearGradient id="a" x1="421.472" x2="421.472" y1="124.798" y2="163.136" gradientUnits="userSpaceOnUse">
      <stop stop-color="#4CCE94"/>
      <stop offset="1" stop-color="#4CCE94" stop-opacity=".18"/>
    </linearGradient>
    <linearGradient id="b" x1="421.472" x2="421.472" y1="134.904" y2="153.031" gradientUnits="userSpaceOnUse">
      <stop stop-color="#4CCE94"/>
      <stop offset="1" stop-color="#fff"/>
    </linearGradient>
    <linearGradient id="c" x1="421.472" x2="421.472" y1="134.904" y2="153.031" gradientUnits="userSpaceOnUse">
      <stop stop-color="#4CCE94"/>
      <stop offset="1" stop-color="#fff"/>
    </linearGradient>
    <linearGradient id="d" x1="421.472" x2="421.472" y1="21.282" y2="59.621" gradientUnits="userSpaceOnUse">
      <stop stop-color="#5CB7F2"/>
      <stop offset="1" stop-color="#5CB7F2" stop-opacity=".18"/>
    </linearGradient>
    <linearGradient id="e" x1="422.315" x2="422.315" y1="30.134" y2="50.769" gradientUnits="userSpaceOnUse">
      <stop stop-color="#5CB7F2"/>
      <stop offset="1" stop-color="#fff"/>
    </linearGradient>
    <linearGradient id="f" x1="422.315" x2="422.315" y1="30.134" y2="50.769" gradientUnits="userSpaceOnUse">
      <stop stop-color="#5CB7F2"/>
      <stop offset="1" stop-color="#fff"/>
    </linearGradient>
    <linearGradient id="g" x1="422.315" x2="422.315" y1="30.134" y2="50.769" gradientUnits="userSpaceOnUse">
      <stop stop-color="#5CB7F2"/>
      <stop offset="1" stop-color="#fff"/>
    </linearGradient>
    <linearGradient id="h" x1="422.315" x2="422.315" y1="30.134" y2="50.769" gradientUnits="userSpaceOnUse">
      <stop stop-color="#5CB7F2"/>
      <stop offset="1" stop-color="#fff"/>
    </linearGradient>
    <linearGradient id="i" x1="422.315" x2="422.315" y1="30.134" y2="50.769" gradientUnits="userSpaceOnUse">
      <stop stop-color="#5CB7F2"/>
      <stop offset="1" stop-color="#fff"/>
    </linearGradient>
    <linearGradient id="j" x1="421.472" x2="421.472" y1="228.308" y2="266.646" gradientUnits="userSpaceOnUse">
      <stop stop-color="#9385FF"/>
      <stop offset="1" stop-color="#9385FF" stop-opacity=".18"/>
    </linearGradient>
    <linearGradient id="l" x1="428.268" x2="428.268" y1="251.192" y2="254.968" gradientUnits="userSpaceOnUse">
      <stop stop-color="#9385FF"/>
      <stop offset="1" stop-color="#fff"/>
    </linearGradient>
    <linearGradient id="m" x1="425.248" x2="425.248" y1="247.416" y2="254.968" gradientUnits="userSpaceOnUse">
      <stop stop-color="#9385FF"/>
      <stop offset="1" stop-color="#fff"/>
    </linearGradient>
    <linearGradient id="n" x1="417.695" x2="417.695" y1="247.416" y2="254.968" gradientUnits="userSpaceOnUse">
      <stop stop-color="#9385FF"/>
      <stop offset="1" stop-color="#fff"/>
    </linearGradient>
    <linearGradient id="o" x1="421.471" x2="421.471" y1="236.844" y2="257.989" gradientUnits="userSpaceOnUse">
      <stop stop-color="#9385FF"/>
      <stop offset="1" stop-color="#fff"/>
    </linearGradient>
    <linearGradient id="p" x1="421.472" x2="421.472" y1="331.822" y2="370.16" gradientUnits="userSpaceOnUse">
      <stop stop-color="#0F52DE"/>
      <stop offset="1" stop-color="#0F52DE" stop-opacity=".18"/>
    </linearGradient>
    <linearGradient id="q" x1="421.472" x2="421.472" y1="340.359" y2="361.508" gradientUnits="userSpaceOnUse">
      <stop stop-color="#0F52DE"/>
      <stop offset="1" stop-color="#fff"/>
    </linearGradient>
    <linearGradient id="r" x1="421.472" x2="421.472" y1="340.359" y2="361.508" gradientUnits="userSpaceOnUse">
      <stop stop-color="#0F52DE"/>
      <stop offset="1" stop-color="#fff"/>
    </linearGradient>
    <linearGradient id="s" x1="421.472" x2="421.472" y1="340.359" y2="361.508" gradientUnits="userSpaceOnUse">
      <stop stop-color="#0F52DE"/>
      <stop offset="1" stop-color="#fff"/>
    </linearGradient>
    <linearGradient id="t" x1="421.472" x2="421.472" y1="340.359" y2="361.508" gradientUnits="userSpaceOnUse">
      <stop stop-color="#0F52DE"/>
      <stop offset="1" stop-color="#fff"/>
    </linearGradient>
    <linearGradient id="u" x1="421.472" x2="421.472" y1="436.11" y2="474.448" gradientUnits="userSpaceOnUse">
      <stop stop-color="#702EDC"/>
      <stop offset="1" stop-color="#702EDC" stop-opacity=".18"/>
    </linearGradient>
    <linearGradient id="w" x1="421.472" x2="421.472" y1="443.194" y2="467.364" gradientUnits="userSpaceOnUse">
      <stop stop-color="#702EDC"/>
      <stop offset="1" stop-color="#fff"/>
    </linearGradient>
    <clipPath id="k">
      <path fill="#fff" d="M409.389 235.333h24.166v24.166h-24.166z"/>
    </clipPath>
    <clipPath id="v">
      <path fill="#fff" d="M409.387 443.194h24.17v24.17h-24.17z"/>
    </clipPath>
  </defs>
</svg>