<svg xmlns="http://www.w3.org/2000/svg" fill="none" viewBox="0 0 161 42">
  <g fill="#fff" clip-path="url(#a)">
    <path d="M.1 22.064c.12.181.017.406.14.666.065-.604.133-1.134.272-1.655.437-1.637 1.222-3.088 2.313-4.376 1.494-1.762 3.318-3.046 5.539-3.733.95-.294 1.927-.44 2.923-.5a11.86 11.86 0 0 1 5.388.93c.59.247 1.144.564 1.685.907.076.046.148.16.246.093.074-.05.036-.16.036-.243v-8.01c0-.305.153-.457.46-.456l4.32.004c.35 0 .383.032.377.372-.095 5.957-.012 11.913-.044 17.87-.007 1.507-.16 2.993-.687 4.425-.485 1.313-1.26 2.44-2.146 3.509a10.992 10.992 0 0 1-4.92 3.438c-2.907 1.02-5.787.947-8.64-.145-1.33-.509-2.49-1.312-3.519-2.3a12.46 12.46 0 0 1-2.808-3.986c-.408-.921-.736-1.878-.72-2.911 0-.079.03-.174-.082-.24-.126.193 0 .438-.133.619v-4.278Zm5.1 2.206c-.052 3.245 2.705 6.724 6.942 6.654 3.408-.055 6.393-2.953 6.503-6.46.12-3.782-2.893-6.897-6.612-6.945-3.806-.05-6.817 2.955-6.832 6.751ZM59.186.167c-.094.074-.22.046-.347.1.087.101.196.098.29.122C61.388.987 63 2.328 63.873 4.505a7.5 7.5 0 0 1 .527 2.812l-.003 23.433c0 .086-.004.17 0 .257.01.219-.092.306-.31.303-.62-.006-1.239 0-1.86 0-.972 0-1.946-.007-2.918.003-.27.004-.364-.084-.364-.36.007-7.878.006-15.755.009-23.633 0-.326-.015-.64-.16-.944-.27-.566-.885-.883-1.545-.776-.572.094-1.078.624-1.15 1.196a7.327 7.327 0 0 0-.03 1.564c.019.212-.044.304-.257.304l-4.866-.006c-.17 0-.3-.042-.3-.252 0-1.072-.056-2.152.272-3.195.824-2.623 2.558-4.277 5.265-4.891l.183-.044-.27-.11h3.092l-.003.001Zm76.097 15.161c0 2.946.009 5.89-.003 8.836-.008 1.685-.26 3.33-.968 4.882-.474 1.04-1.149 1.945-1.868 2.822-1.853 2.26-4.249 3.609-7.127 4.01-3.422.475-6.618-.158-9.309-2.446-2.463-2.092-4.038-4.705-4.334-7.986-.273-3.015.403-5.772 2.235-8.217 1.586-2.115 3.629-3.601 6.183-4.33 2.572-.733 5.128-.618 7.641.307.746.275 1.442.65 2.109 1.079.085.054.171.176.271.126.116-.059.057-.207.057-.314.003-2.689.001-5.378.003-8.066 0-.36.003-.36.368-.36l4.322.019c.436.001.429 0 .427.432-.003 3.07 0 6.138 0 9.207h-.004l-.003-.001Zm-18.556 8.951c-.105 3.142 2.639 6.724 6.936 6.647 3.322-.06 6.508-2.857 6.499-6.722-.009-3.66-2.971-6.643-6.648-6.687-3.831-.045-6.884 3.147-6.787 6.762Zm-26.787-.044V35.61c0 .415-.01.398-.444.39-1.078-.017-2.156-.01-3.234-.013-.354 0-.707-.015-1.059.005-.28.015-.395-.071-.382-.367.021-.446.008-.893.005-1.34 0-.081.034-.188-.049-.238-.102-.062-.175.04-.249.09-1.392.935-2.926 1.54-4.583 1.75-3.417.434-6.601-.169-9.281-2.453-2.459-2.094-4.04-4.705-4.335-7.988-.272-3.015.401-5.773 2.234-8.217 1.643-2.191 3.77-3.703 6.433-4.397 2.666-.696 5.294-.505 7.846.557.608.254 1.173.59 1.727.947.062.039.122.116.2.08.085-.04.054-.135.054-.207.003-.485.009-.97 0-1.454-.005-.231.081-.33.314-.33 1.507.002 3.015 0 4.522-.005.216 0 .285.098.28.296-.008.237-.005.475-.005.712v10.806h.003l.003.001Zm-11.843-6.722c-3.75.015-6.746 3.134-6.737 6.781.009 3.16 2.686 6.724 6.973 6.632 3.356-.073 6.503-2.9 6.485-6.736-.016-3.636-2.97-6.641-6.722-6.677h.001Zm72.975 8.431h-8.702c-.397 0-.412.006-.27.377.972 2.548 2.776 4.11 5.508 4.518 2.088.311 3.9-.314 5.431-1.748.213-.2.343-.105.502.054.948.95 1.901 1.897 2.852 2.843.054.055.107.11.162.162.389.376.471.313-.029.767-1.918 1.748-4.166 2.815-6.759 3.04-2.343.203-4.632-.067-6.751-1.2-2.411-1.29-4.173-3.187-5.33-5.653-.686-1.46-.998-2.998-1.042-4.604-.056-2.049.358-4.001 1.359-5.786 1.779-3.172 4.411-5.29 8.026-6.032 2.695-.553 5.331-.28 7.791 1.002 3.394 1.769 5.563 4.496 6.28 8.29.234 1.234.174 2.478.091 3.72-.012.182-.106.253-.277.251h-8.844l.002-.001Zm-2.519-5.13c1.707-.003 3.413 0 5.121-.007.164 0 .4.088.481-.062.088-.158-.128-.294-.225-.423-1.336-1.79-3.131-2.742-5.368-2.802-1.253-.035-2.434.294-3.515.942-.904.542-1.623 1.282-2.254 2.116-.044.057-.117.12-.076.2.049.094.148.068.231.064.171-.008.343-.029.514-.029 1.697-.002 3.394 0 5.091 0ZM36.954 35.988c-6.438.224-11.879-5.283-11.844-11.877.033-6.196 5.182-11.701 11.843-11.675 6.331.024 11.787 4.833 11.867 11.81.074 6.43-5.427 11.932-11.866 11.744v-.002Zm-6.686-11.714c-.18 3.195 2.812 6.733 6.923 6.648 3.102-.063 6.546-2.816 6.483-6.789-.06-3.642-3.066-6.645-6.77-6.618-3.793.029-6.79 3.259-6.637 6.757l.001.002Z"/>
    <path d="M50.646 22.858V10.855c0-.432 0-.42.42-.44 1.498-.072 2.994-.02 4.492-.035.497-.005.509.022.497.51-.012.476-.008.95-.008 1.425l-.001 21.924c0 .238.016.474.057.708.12.687.797 1.235 1.47 1.188.736-.051 1.343-.646 1.37-1.363.019-.474.012-.95.01-1.426-.002-.208.066-.33.294-.318 1.42.075 2.842.018 4.264.033.219.003.44.001.658 0 .153 0 .227.072.23.225.032 1.41.053 2.823-.57 4.14-1.115 2.353-2.924 3.774-5.567 4.04-1.418.143-2.792-.03-4.039-.748-1.442-.83-2.478-2.037-3.095-3.582-.35-.874-.483-1.792-.482-2.733.005-3.849.002-7.698.002-11.546h-.002v.001Zm41.281 6.875v-5.444c0-1.575.244-3.114.883-4.556 1.5-3.392 4.012-5.703 7.58-6.825.986-.31 2.014-.409 3.043-.481.256-.018.364.074.362.337a548.921 548.921 0 0 0-.008 4.445c0 .216-.077.29-.299.308-2.829.237-4.838 1.643-5.979 4.237-.368.836-.474 1.736-.474 2.647l.003 11.059c0 .104-.002.208 0 .314.001.181-.085.255-.266.246-1.487-.07-2.975-.014-4.462-.032-.377-.004-.382-.004-.382-.385v-5.87h-.001Zm18.335-5.504c0 3.799-.001 7.6.005 11.398 0 .265-.067.372-.351.369-1.469-.012-2.937-.008-4.406-.01-.374 0-.386-.017-.368-.386.01-.19.007-.38.007-.569l-.001-21.316c0-.284-.014-.57-.027-.853-.019-.367.045-.438.409-.438h4.291c.414 0 .438.022.438.435v11.37h.003Z"/>
  </g>
  <defs>
    <clipPath id="a">
      <path fill="#fff" d="M.102.166h160.166V41.51H.102z"/>
    </clipPath>
  </defs>
</svg>