<svg xmlns="http://www.w3.org/2000/svg" fill="none" viewBox="0 0 210 24">
  <g fill="#fff" clip-path="url(#a)">
    <path d="M.891 9.148c.61-1.861 1.353-3.663 2.719-5.115C5.703 1.806 8.132.286 11.359.347c3.179.059 6.362.03 9.54 0 .676-.007 1.028.243 1.313.83 1.171 2.421 1.718 5.002 2.012 7.644a28.858 28.858 0 0 1-.47 9.342c-.328 1.513-.838 2.959-1.591 4.321-.324.587-.745.83-1.436.822-2.773-.033-5.545-.008-8.32-.015-5.198-.011-9.58-3.2-11.176-8.121-.108-.333-.229-.663-.343-.993v-5.03H.89Zm11.134-5.699C7.294 3.191 3.155 8.782 4.6 13.481c.987-4.467 3.775-7.524 7.425-10.032Zm65.919 19.975c-.797-.154-1.604-.267-2.39-.466-4.318-1.096-6.734-4.148-6.762-8.574-.026-4.189.005-8.378-.022-12.567-.004-.735.233-1.047.984-.978.46.042.926.039 1.385 0 .714-.06.951.235.946.936-.022 3.92-.011 7.837-.008 11.756 0 .513-.016 1.031.046 1.54.322 2.621 1.74 4.205 4.32 4.856a9.327 9.327 0 0 0 4.442.025c2.88-.67 4.354-2.61 4.377-5.816.027-4.027.008-8.055.011-12.082 0-1.202.003-1.215 1.225-1.204 2.363.025 2.056-.322 2.064 2.077.013 3.837.04 7.677-.02 11.513-.05 3.172-1.27 5.79-4.087 7.482-1.37.822-2.907 1.191-4.492 1.356-.295.031-.6.004-.877.146h-1.142Zm39.838-11.339c0-3.349.016-6.7-.014-10.049-.006-.768.242-1.037 1.031-1.03 3.724.034 7.449-.014 11.172.034 4.553.058 7.466 4.774 5.404 8.686-.266.505-.588.972-1.024 1.351-.49.426-.432.793.175 1.1.992.5 1.828 1.168 2.369 2.153 2.104 3.831-.547 8.633-4.952 8.759-4.454.127-8.915.03-13.372.052-.701.003-.793-.37-.791-.926.008-3.377.005-6.754.003-10.131l-.001.002Zm8.84 7.93v-.012c1.576 0 3.153.03 4.728-.009 1.521-.037 2.585-.967 2.861-2.406.442-2.307-.775-3.942-3.136-4.003-3.096-.077-6.195-.02-9.294-.034-.534-.003-.717.224-.712.732.014 1.647.021 3.295-.004 4.942-.009.606.245.804.827.796 1.577-.022 3.153-.009 4.728-.009l.002.002Zm-.838-15.873c-1.332 0-2.662.012-3.993-.005-.521-.006-.73.2-.724.72.016 1.672.013 3.347.002 5.02-.004.455.142.709.65.705 2.635-.013 5.27.028 7.904-.03 1.229-.028 2.268-.522 2.802-1.747 1.018-2.338-.417-4.604-2.974-4.656-1.222-.026-2.444-.005-3.666-.005l-.001-.002Zm-79.347 7.703c0-3.297-.002-6.594 0-9.89 0-1.079.036-1.116 1.08-1.115 3.776.002 7.553-.027 11.328.025 4.913.068 8.1 5.025 6.147 9.498-.587 1.34-1.572 2.316-2.86 3.003-1.287.688-1.367.438-.426 1.825 1.565 2.309 3.135 4.612 4.696 6.924.142.212.434.427.266.71-.136.228-.45.102-.683.14-1.845.302-3.129-.25-4.096-1.997-1.122-2.027-2.6-3.857-3.896-5.791-.32-.478-.688-.698-1.271-.692-2.04.023-4.08.028-6.119 0-.681-.01-.898.25-.89.909.027 2.215-.012 4.432.021 6.647.01.71-.239.955-.948.935-2.75-.073-2.321.395-2.344-2.292-.025-2.946-.005-5.891-.005-8.837v-.002Zm7.99-.459c1.34-.063 2.973.12 4.593-.157 2.175-.37 3.377-1.818 3.243-3.939-.114-1.808-1.686-3.26-3.689-3.297-2.687-.049-5.377-.014-8.066-.032-.539-.004-.794.173-.787.746.02 1.97.023 3.941-.003 5.911-.009.624.272.786.84.775 1.194-.025 2.39-.007 3.868-.007h.002Zm128.123 6.46V2.158c0-1.104.023-1.133 1.149-1.123 2.382.018 2.132-.298 2.135 2.117.008 6.19.003 12.382.002 18.574 0 .934-.482 1.4-1.445 1.4-.109 0-.218-.013-.326.002-.866.13-1.443-.217-2.002-.904-4.071-4.999-8.186-9.962-12.289-14.937-.168-.202-.309-.44-.591-.54-.262.3-.149.638-.15.944-.009 4.757-.005 9.516-.007 14.274 0 1.157-.008 1.174-1.191 1.161-2.428-.026-2.088.324-2.093-2.037-.015-6.3-.006-12.598-.005-18.898 0-1.156.015-1.063 1.191-1.187 1.306-.14 2.072.43 2.851 1.392 4.089 5.054 8.244 10.057 12.377 15.076.066.08.151.145.394.376v-.002Zm-73.808-6.922c1.305 0 2.611.016 3.916-.007.598-.01.904.162.897.824-.024 2.325-.011 4.65-.008 6.974 0 .374-.128.67-.397.936-4.047 3.983-11.327 4.877-16.302 1.997-4.667-2.704-6.65-8.617-4.646-13.879 1.745-4.583 5.257-6.782 10.01-7.238 3.163-.302 6.033.52 8.559 2.458.895.686 1.554 1.576 2.157 2.517.305.477.212.776-.296 1.026a16.56 16.56 0 0 0-1.56.88c-.419.264-.68.202-.909-.238-2.556-4.908-11.53-4.725-14.297.38-2.713 5.003-.638 12.092 6.846 12.6 2.481.169 4.813-.307 6.891-1.76.675-.473 1.073-1.018.975-1.893-.07-.614-.036-1.243-.008-1.864.025-.56-.209-.768-.768-.761-1.658.02-3.318-.018-4.976.016-.693.015-.977-.196-.959-.923.059-2.354-.281-2.02 2.022-2.047.953-.011 1.904-.002 2.856 0l-.003.002Zm84.46 2.29c.267-.25.486-.447.695-.655 3.661-3.624 7.327-7.242 10.974-10.88.457-.457.924-.695 1.578-.657.732.042 1.469 0 2.202.014.255.005.611-.117.717.208.082.251-.217.41-.385.575-2.5 2.485-5.009 4.96-7.504 7.45-1.309 1.305-1.238.893-.139 2.362 2.647 3.534 5.315 7.051 7.966 10.582.169.224.525.444.369.752-.151.303-.542.116-.823.168-1.934.36-3.194-.41-4.297-2.04-1.805-2.662-3.867-5.154-5.821-7.715-.568-.747-.634-.752-1.292-.092-1.225 1.229-2.434 2.474-3.673 3.69-.514.506-.773 1.058-.742 1.798.048 1.16-.004 2.325.018 3.486.014.606-.189.887-.844.873-2.925-.066-2.428.41-2.439-2.35-.027-6.216-.01-12.432-.007-18.649 0-1.07.029-1.106 1.091-1.1 2.467.019 2.175-.29 2.185 2.149.011 3.027 0 6.055.008 9.08 0 .286-.087.59.167.951h-.004Zm-32.181 9.917c-1.897-.054-1.559.378-2.469-1.64-.366-.814-.75-1.62-1.104-2.438-.195-.447-.486-.67-.995-.668-3.616.011-7.231.011-10.847 0-.524-.002-.776.252-.969.693-.498 1.139-1.04 2.26-1.534 3.4-.196.454-.467.684-.985.658-.624-.031-1.25.005-1.876-.011-.789-.02-.875-.16-.511-.958 1.011-2.212 2.042-4.418 3.07-6.623 2.099-4.51 4.218-9.012 6.287-13.536.348-.76.807-.957 1.614-1.018 1.344-.098 2.037.316 2.62 1.615 2.969 6.608 6.073 13.158 9.128 19.727.348.747.32.788-.534.8-.299.006-.598 0-.897 0h.002Zm-9.919-18.025c-.162.216-.224.273-.255.343-1.369 3.027-2.735 6.056-4.105 9.082-.285.627.142.611.544.611 2.525.002 5.051-.008 7.577.008.631.003.763-.178.487-.761-.752-1.586-1.458-3.194-2.186-4.792-.66-1.446-1.325-2.887-2.062-4.491Z"/>
    <path d="M28.962.36c.951 0 1.905.028 2.855-.005 4.519-.158 7.63 2.127 9.686 5.842 3.947 7.132-.555 15.962-8.713 16.982-2.945.367-5.973.093-8.962.11-.437 0-.442-.213-.242-.514a9.976 9.976 0 0 0 1.104-2.253c.177-.503.59-.492 1.003-.492 1.904-.003 3.808-.055 5.71.007 3.712.12 8.234-2.967 8.274-8.394.032-4.544-3.737-8.262-8.292-8.316a260.755 260.755 0 0 0-5.873 0c-.575.006-.904-.183-1.082-.744-.163-.51-.402-1.004-.658-1.48-.3-.555-.198-.763.46-.751 1.577.024 3.154.008 4.732.008h-.002Z"/>
  </g>
  <defs>
    <clipPath id="a">
      <path fill="#fff" d="M.802.345h209v23.078h-209z"/>
    </clipPath>
  </defs>
</svg>