<svg xmlns="http://www.w3.org/2000/svg" width="128" height="28" fill="none" viewBox="0 0 128 28">
  <g>
    <path fill="#fff" d="M27.889 13.842a2.378 2.378 0 1 1-4.757 0 2.378 2.378 0 0 1 4.756 0Zm0-5.549a2.378 2.378 0 1 1-4.757 0 2.378 2.378 0 0 1 4.756 0Zm27.747 16.648a2.378 2.378 0 1 1-4.757 0 2.378 2.378 0 0 1 4.757 0Zm0-16.648a2.378 2.378 0 1 1-4.757 0 2.378 2.378 0 0 1 4.757 0Zm27.748 11.099a2.378 2.378 0 1 1-4.757 0 2.378 2.378 0 0 1 4.757 0Zm0-16.649a2.378 2.378 0 1 1-4.757 0 2.378 2.378 0 0 1 4.757 0Zm27.747 22.198a2.379 2.379 0 1 1-4.757 0 2.379 2.379 0 0 1 4.757 0Zm0-22.198a2.379 2.379 0 1 1-4.757 0 2.379 2.379 0 0 1 4.757 0ZM11.24 24.941a2.378 2.378 0 1 1-4.756 0 2.378 2.378 0 0 1 4.757 0Zm0-22.198a2.378 2.378 0 1 1-4.756 0 2.378 2.378 0 0 1 4.757 0Zm27.748 22.198a2.378 2.378 0 1 1-4.757 0 2.378 2.378 0 0 1 4.757 0Zm0-22.198a2.378 2.378 0 1 1-4.757 0 2.378 2.378 0 0 1 4.757 0Zm55.495 11.099a2.378 2.378 0 1 1-4.757 0 2.378 2.378 0 0 1 4.757 0Zm0-5.549a2.378 2.378 0 1 1-4.757 0 2.378 2.378 0 0 1 4.757 0Zm27.747-5.55a2.379 2.379 0 1 1-4.757 0 2.379 2.379 0 0 1 4.757 0ZM5.691 19.392a2.378 2.378 0 1 1-4.757 0 2.378 2.378 0 0 1 4.757 0Zm0-5.55a2.378 2.378 0 1 1-4.756 0 2.378 2.378 0 0 1 4.756 0Zm0-5.549a2.378 2.378 0 1 1-4.756 0 2.378 2.378 0 0 1 4.756 0Zm55.495 16.648a2.378 2.378 0 1 1-4.757 0 2.378 2.378 0 0 1 4.757 0Zm0-22.198a2.378 2.378 0 1 1-4.757 0 2.378 2.378 0 0 1 4.757 0Zm27.747 16.649a2.378 2.378 0 1 1-4.757 0 2.378 2.378 0 0 1 4.757 0Zm0-16.649a2.378 2.378 0 1 1-4.757 0 2.378 2.378 0 0 1 4.757 0Zm27.747 22.198a2.378 2.378 0 1 1-4.757 0 2.378 2.378 0 0 1 4.757 0Zm0-22.198a2.378 2.378 0 1 1-4.757 0 2.378 2.378 0 0 1 4.757 0ZM16.79 24.941a2.378 2.378 0 1 1-4.757 0 2.378 2.378 0 0 1 4.757 0Zm0-11.099a2.378 2.378 0 1 1-4.757 0 2.378 2.378 0 0 1 4.757 0Zm0-11.099a2.378 2.378 0 1 1-4.757 0 2.378 2.378 0 0 1 4.757 0Zm27.747 16.649a2.378 2.378 0 1 1-4.756 0 2.378 2.378 0 0 1 4.756 0Zm0-16.649a2.378 2.378 0 1 1-4.756 0 2.378 2.378 0 0 1 4.756 0Zm27.747 22.198a2.378 2.378 0 1 1-4.756 0 2.378 2.378 0 0 1 4.756 0Zm0-5.549a2.378 2.378 0 1 1-4.756 0 2.378 2.378 0 0 1 4.756 0Zm0-5.55a2.378 2.378 0 1 1-4.756 0 2.378 2.378 0 0 1 4.756 0Zm0-5.549a2.378 2.378 0 1 1-4.756 0 2.378 2.378 0 0 1 4.756 0Zm0-5.55a2.378 2.378 0 1 1-4.756 0 2.378 2.378 0 0 1 4.756 0Zm55.495 22.198a2.378 2.378 0 1 1-4.757 0 2.378 2.378 0 0 1 4.757 0Zm0-5.549a2.378 2.378 0 1 1-4.757 0 2.378 2.378 0 0 1 4.757 0Zm0-5.55a2.378 2.378 0 1 1-4.757 0 2.378 2.378 0 0 1 4.757 0Zm0-5.549a2.378 2.378 0 1 1-4.757 0 2.378 2.378 0 0 1 4.757 0Zm0-5.55a2.378 2.378 0 1 1-4.757 0 2.378 2.378 0 0 1 4.757 0ZM22.34 24.941a2.378 2.378 0 1 1-4.757 0 2.378 2.378 0 0 1 4.757 0Zm0-11.099a2.378 2.378 0 1 1-4.757 0 2.378 2.378 0 0 1 4.757 0Zm0-11.099a2.378 2.378 0 1 1-4.757 0 2.378 2.378 0 0 1 4.757 0Zm27.747 16.649a2.378 2.378 0 1 1-4.757 0 2.378 2.378 0 0 1 4.757 0Zm0-5.55a2.378 2.378 0 1 1-4.757 0 2.378 2.378 0 0 1 4.757 0Zm0-5.549a2.378 2.378 0 1 1-4.757 0 2.378 2.378 0 0 1 4.757 0Zm27.747-5.55a2.378 2.378 0 1 1-4.757 0 2.378 2.378 0 0 1 4.757 0Zm27.747 16.649a2.378 2.378 0 1 1-4.757 0 2.378 2.378 0 0 1 4.757 0Zm0-5.55a2.378 2.378 0 1 1-4.757 0 2.378 2.378 0 0 1 4.757 0Zm0-5.549a2.378 2.378 0 1 1-4.757 0 2.378 2.378 0 0 1 4.757 0Z"/>
  </g>
</svg>