<svg xmlns="http://www.w3.org/2000/svg" width="119" height="40" fill="none" viewBox="0 0 119 40">
  <g clip-path="url(#a)">
    <path fill="#fff" d="M0 19.497c.784-.983 1.484-2.05 2.366-2.935C7.395 11.505 12.476 6.504 17.514 1.46c.96-.96 1.992-1.517 3.398-1.43 1.428.089 2.442.742 3.043 1.988.614 1.273.645 2.572-.194 3.79a6.768 6.768 0 0 1-.783.943C17.67 12.036 12.38 17.333 7.037 22.58c-2.59 2.544-5.31 1.96-6.805-1.35-.037-.08-.151-.127-.228-.189V19.5L0 19.497Zm118.093 13.57c-.876 3.111-5.183 3.142-7.804.756.311-.475.632-.965.891-1.357 1.076.327 1.976.722 2.91.826.426.05 1.265-.21 1.379-.727.101-.463-.469-.9-.839-1.129-.826-.502-1.905-.69-2.571-1.329-.707-.678-1.394-1.698-1.477-2.623-.111-1.259.866-2.103 2.133-2.47 1.776-.515 3.432-.367 5.1.878-.277.53-.552 1.049-.814 1.548-.916-.206-1.742-.518-2.578-.536-.44-.01-1.254.234-1.344.75-.083.468.549.816.922 1.084 1.341.962 3.321 1.33 4.095 2.785.24.453.138 1.048 0 1.541l-.003.003ZM27.066 17.37c-.484.863-.808 1.88-1.477 2.565a627.535 627.535 0 0 1-11.023 10.983c-1.619 1.578-3.882 1.529-5.387.018-1.486-1.495-1.504-3.777.074-5.38 3.642-3.694 7.317-7.354 11.014-10.992 1.193-1.175 2.655-1.548 4.243-.851 1.501.66 2.278 1.847 2.556 3.656Zm7.419 3.758c2.6-.283 2.612-.286 3.34 1.872 1.004 2.988 1.991 5.982 3.046 9.151 1.097-3.23 2.133-6.277 3.17-9.324.474-1.395 1.544-1.937 3.209-1.625-.984 2.708-1.961 5.393-2.941 8.079-.546 1.492-1.135 2.97-1.64 4.477-.3.888-.599 1.467-1.764 1.461-1.129-.006-1.471-.508-1.795-1.421-1.495-4.19-3.046-8.359-4.628-12.666l.003-.004ZM50.25 30.52c.386 2.827 2.347 3.4 5.988 1.902.271.463.552.934.823 1.394-1.686 1.696-4.452 2.078-6.709.965-1.915-.947-3.059-3.17-2.778-5.396.305-2.402 1.804-4.033 4.166-4.523 3.416-.71 6.015 1.952 5.3 5.66h-6.79v-.002Zm4.35-1.752c-.092-1.452-.637-2.078-1.83-2.161-1.271-.09-2.174.71-2.39 2.161h4.22Zm47.216 1.732c.256 2.839 2.482 3.508 5.938 1.837.284.49.577.993.854 1.467-1.652 1.943-5.272 1.887-7.024.811-2.05-1.258-2.966-3.814-2.213-6.342.662-2.22 2.701-3.61 5.18-3.53 2.858.092 4.547 2.377 4.113 5.753h-6.848v.003Zm-.068-1.792h4.557c-.151-1.348-.863-2.023-1.992-2.066-1.295-.05-2.167.641-2.562 2.066h-.003ZM65.762 14.015h-6.795c.043 2.8 2.214 3.468 5.926 1.884l.835 1.538c-4.002 2.902-8.833 1.261-9.502-3.114-.59-3.873 2.938-6.947 6.684-5.827 2.066.616 3.16 2.627 2.85 5.519h.002Zm-2.392-1.73c-.185-1.332-.756-2.06-1.998-2.075-1.342-.016-2.205.592-2.498 2.075h4.496Zm-11.92 4.909c-.537.457-.892.827-1.31 1.104-2.36 1.548-5.388.38-5.619-2.306-.206-2.43-.043-4.89-.043-7.422h2.402c0 1.835-.022 3.66.01 5.486.018 1.119-.1 2.38 1.455 2.636 1.196.197 2.516-.657 2.846-2.072.283-1.224.24-2.528.308-3.799.037-.703.006-1.406.006-2.195h2.35v9.987h-2.11l-.295-1.415v-.004Zm17.605 17.914H66.65c0-1.724.022-3.444-.006-5.162-.022-1.251.265-2.75-1.622-2.938-1.542-.157-2.923 1.236-3.01 3.068-.076 1.631-.015 3.268-.015 4.995H59.64v-9.944h2.035c.09.364.19.786.308 1.267.13-.046.253-.083.37-.135 1.132-.503 2.23-1.305 3.404-1.446 1.847-.22 3.182 1.045 3.271 2.91.118 2.402.028 4.813.028 7.385Zm10.443-9.993h2.384c0 1.912-.028 3.753.012 5.59.021 1.002-.12 2.211 1.307 2.405 1.385.188 2.436-.447 2.892-1.763.263-.756.321-1.6.358-2.408.056-1.221.016-2.449.016-3.796h2.306v9.922h-2.047l-.195-1.329c-.139.037-.284.047-.4.111-.92.497-1.783 1.252-2.76 1.456-2.223.465-3.737-.75-3.845-3.022-.111-2.346-.025-4.702-.025-7.166h-.003ZM34.543 4.567h7.887v1.99h-5.398v4.155h4.544v2.174h-4.63v5.658h-2.403V4.567ZM19.879 39.909c-2.15.018-3.811-1.631-3.796-3.768.015-2.106 1.6-3.681 3.7-3.672 2.161.009 3.897 1.69 3.866 3.743-.027 1.97-1.77 3.681-3.77 3.7v-.003ZM72.514 22.3h2.242c.046.912.086 1.764.136 2.707.737.077 1.427.148 2.152.225v1.739c-.722.071-1.372.136-2.004.2-.84 4.006-.287 5.541 2.226 6.09v1.76c-2.973.639-4.767-.715-4.844-3.62-.025-.921-.08-1.85-.003-2.765.083-1.005-.13-1.699-1.243-1.686-.407-1.203-.055-1.857 1.19-1.91.053-.964.099-1.861.148-2.737V22.3Zm-.66-3.672c-2.435.428-3.687-.318-3.761-2.48-.133-3.82-.037-7.649-.037-11.55h2.365c0 3-.056 5.911.027 8.819.034 1.203-.622 2.723 1.228 3.4.25.093.13 1.2.178 1.81Zm22.318 16.489h-2.155v-9.999h2.201l.099 1.73c.546-.512.974-1.08 1.539-1.397.576-.32 1.291-.391 2.075-.607v2.281c-5.23.703-2.985 4.974-3.759 7.99v.002Z"/>
  </g>
  <defs>
    <clipPath id="a">
      <path fill="#fff" d="M0 0h118.236v39.93H0z"/>
    </clipPath>
  </defs>
</svg>
