<svg xmlns="http://www.w3.org/2000/svg" fill="none" viewBox="0 0 104 52">
  <g fill="#fff" clip-path="url(#a)">
    <path d="M60.899 51.228c-.431-.483-.371-.78.221-1.008.585-.224.847-.673.92-1.26.017-.144.008-.292.008-.438 0-7.587-.004-15.173.007-22.76.001-.828-.213-1.466-1.077-1.739-.273-.086-.375-.303-.329-.575.046-.272.248-.363.5-.363 1.736 0 3.472-.002 5.208 0 .164 0 .356.006.376.22.04.44.27.269.501.183 1.746-.656 3.427-.547 5.043.42a7.11 7.11 0 0 1 2.667 2.774c2.392 4.474 2.366 8.925-.403 13.218-1.243 1.927-3.076 3.04-5.473 2.98a4.836 4.836 0 0 1-1.886-.43c-.326-.147-.43-.078-.429.276.008 2.06-.004 4.117.011 6.176.005.65.356 1.09.964 1.323.576.222.637.57.184 1.005h-7.013v-.002Zm5.858-18.149c0 1.88.034 3.762-.013 5.64-.026.987.453 1.668 1.127 2.255.567.495 1.355.422 1.887-.104.315-.311.549-.678.756-1.067.82-1.546 1.203-3.224 1.335-4.94.193-2.502.08-4.992-.761-7.394-.312-.892-.688-1.755-1.384-2.428-.464-.448-1.097-.544-1.595-.16-.781.603-1.341 1.372-1.348 2.411-.013 1.928-.004 3.858-.004 5.786v.001Zm36.609-16.005a30.592 30.592 0 0 1-3.917-1.592c-.975-.476-1.682-.464-2.461.345-.667.693-1.483 1.242-2.234 1.854-.157-.15-.06-.273-.03-.386.29-1.097.562-2.198.889-3.284.133-.44.028-.713-.3-1.01-1.154-1.042-2.285-2.112-3.424-3.174-.045-.042-.077-.096-.12-.153.168-.14.288-.005.404.043 1.428.582 2.855 1.162 4.273 1.765.33.14.569.105.838-.122.83-.701 1.674-1.384 2.516-2.07.145-.118.263-.29.553-.285a691.51 691.51 0 0 1-.633 2.399c-.12.454-.245.907-.372 1.36-.06.211-.097.42.088.588 1.323 1.194 2.557 2.485 3.93 3.625v.098-.001ZM49.84 25.756c.463-.675.844-1.33 1.476-1.795 1.863-1.37 4.856-1.17 6.397.475.862.919 1.165 2.07 1.262 3.294.156 1.992.055 3.985.072 5.978.018 2.206.015 4.41-.001 6.615-.006.788.27 1.354 1.039 1.622.278.098.369.293.346.567-.026.31-.244.414-.504.42-.762.017-1.525.015-2.288.017-1.233.002-2.467.002-3.7 0-.194 0-.389-.014-.582-.033-.236-.023-.395-.15-.428-.393-.035-.253.057-.463.306-.544.9-.29 1.125-.965 1.122-1.823-.011-3.826-.004-7.652-.008-11.478 0-.65-.08-1.295-.254-1.922-.33-1.191-1.583-1.623-2.58-.878-.83.62-1.189 1.521-1.197 2.503-.032 4.053-.016 8.107-.011 12.16 0 .671.328 1.145.96 1.377.308.113.531.262.477.623-.055.365-.36.395-.634.396-2.093.01-4.187.01-6.28.004-.278 0-.572-.038-.624-.407-.05-.36.158-.512.47-.626.645-.236.912-.746.916-1.405.007-1.021.003-2.042.003-3.064 0-2.853-.003-5.707.002-8.56a8.834 8.834 0 0 0-.209-2.026c-.146-.626-.433-1.137-1.117-1.263-.732-.134-1.39.028-1.887.63-.596.723-.824 1.592-.828 2.493-.024 3.956-.013 7.911-.008 11.867 0 .657.325 1.11.945 1.328.324.114.57.27.494.657-.076.388-.406.378-.694.379-2.045.005-4.09.005-6.135 0-.291 0-.61-.004-.686-.391-.078-.397.178-.53.495-.65.625-.235.877-.723.876-1.372-.004-2.238 0-4.475 0-6.713 0-2.707-.012-5.415.007-8.123.005-.785-.232-1.36-1.029-1.611-.267-.085-.386-.286-.352-.565.036-.298.239-.414.51-.415 1.72-.005 3.44-.002 5.16-.005.284 0 .412.129.406.415-.009.463-.002.925.046 1.415 1.153-1.42 2.616-1.977 4.4-1.851 1.813.127 3.064 1.017 3.85 2.676l-.001.002Zm-43.569-.703c.311-.343.608-.66.947-.936 1.627-1.327 3.467-1.303 5.297-.666 1.727.602 2.535 2.028 2.815 3.779.093.578.11 1.16.11 1.744-.004 3.73.003 7.458-.007 11.187-.002.854.213 1.537 1.12 1.822.248.078.343.285.32.539-.024.253-.193.363-.425.392a4.427 4.427 0 0 1-.533.035c-1.899.003-3.797.002-5.696 0a3.74 3.74 0 0 1-.437-.024c-.249-.029-.433-.141-.464-.414-.032-.279.084-.465.354-.56.78-.275 1.081-.843 1.078-1.652-.013-3.761-.005-7.523-.007-11.284 0-.747-.022-1.488-.304-2.2-.522-1.323-2.037-1.71-3.15-.795a2.924 2.924 0 0 0-1.105 2.192c-.043.857-.032 1.718-.033 2.576-.003 3.178.007 6.356-.006 9.533-.004.795.214 1.401 1.045 1.653.272.082.377.294.337.571-.04.274-.24.38-.486.388-.535.016-1.07.016-1.605.017-1.493.002-2.986.002-4.479 0a4.25 4.25 0 0 1-.534-.028c-.23-.029-.396-.138-.42-.395-.023-.253.047-.463.306-.542.904-.276 1.148-.954 1.148-1.807-.003-11.35-.003-22.698.001-34.047 0-.824-.253-1.464-1.1-1.74-.3-.1-.393-.318-.35-.61.047-.32.29-.353.547-.353h6.427c.27 0 .488.066.543.368.055.303-.074.498-.37.589-.733.224-1.004.758-1.004 1.482.002 6.258 0 12.516.002 18.775 0 .122-.039.26.117.41h.001Zm26.307 9.542v5.788c0 .764.231 1.369 1.043 1.61.264.078.409.262.37.55-.037.28-.245.36-.487.385a2.57 2.57 0 0 1-.291.019c-1.59 0-3.181 0-4.771.003-.324 0-.573-.044-.58-.463-.006-.372-.245-.187-.409-.123-1.928.758-3.865.761-5.788.01-2.572-1.006-4.36-3.462-4.38-6.016-.022-2.923 1.81-5.257 4.181-6.249 1.961-.82 3.944-.845 5.927-.094.366.138.496.1.485-.315-.02-.827.009-1.655-.012-2.48-.051-2.061-1.644-3.374-3.688-3.069-.549.082-1.089.162-1.571.464-.275.173-.4.294-.034.539a2.098 2.098 0 0 1 .886 2.293c-.224.853-.917 1.439-1.848 1.562-1.276.168-2.417-1.03-2.299-2.337.145-1.597 1.156-2.51 2.504-2.994 2.659-.95 5.352-.855 7.898.383 1.919.932 2.813 2.634 2.852 4.747.037 1.928.008 3.858.008 5.788h.005v-.001Zm-4.707 1.604c0-.745.008-1.49-.002-2.235-.014-1.156-.486-2.106-1.374-2.831-1.12-.915-2.678-.65-3.432.57a6.268 6.268 0 0 0-.704 1.647 10.687 10.687 0 0 0-.278 4.425c.158 1.077.424 2.132 1.046 3.053.304.45.67.854 1.246.932 1.162.157 2.11-.222 2.787-1.196.455-.652.715-1.373.711-2.18-.004-.729 0-1.457 0-2.187v.002Z"/>
    <path d="M83.293 35.779c0 1.524.016 3.048-.006 4.571-.011.806.251 1.39 1.067 1.64.274.083.39.271.35.556-.04.284-.25.358-.488.384a4.087 4.087 0 0 1-.438.018c-1.883 0-3.765.002-5.647-.001-.194 0-.388-.02-.58-.044-.22-.029-.35-.165-.383-.381-.032-.217.047-.408.255-.472 1.032-.314 1.184-1.102 1.181-2.031-.014-4.718-.01-9.435-.003-14.153.001-.864-.187-1.58-1.133-1.858-.23-.069-.327-.259-.3-.495.03-.248.2-.36.428-.395.096-.015.194-.018.291-.018 1.607 0 3.214.01 4.82-.009.454-.006.59.176.591.603 0 .895.012.888.799.428 1.463-.855 3.01-1.268 4.709-.869 1.723.405 2.793 1.64 3.002 3.395.117.982-.056 1.838-.784 2.536-.582.56-1.272.706-2.022.415-.77-.3-1.257-.868-1.334-1.704-.11-1.19.41-1.927 1.56-2.31.098-.034.26-.01.274-.155.011-.12-.11-.194-.201-.255-.71-.478-1.502-.363-2.262-.233-1.253.214-2.045 1.07-2.641 2.118-.694 1.222-1.024 2.563-1.069 3.954-.051 1.587-.011 3.177-.011 4.765h-.026.001Zm4.143-34.082c.894.401 1.73.747 2.536 1.149.376.186.637.153.959-.104.958-.769 1.94-1.507 2.958-2.29.052.25-.078.379-.161.515-.576.938-1.147 1.88-1.744 2.805-.197.304-.188.55-.006.847.397.65.774 1.31 1.155 1.97.087.15.217.285.207.483-.137.107-.246 0-.355-.049-.725-.322-1.459-.63-2.168-.985-.385-.192-.666-.17-1.007.109-.865.708-1.764 1.375-2.65 2.056-.075.058-.143.138-.266.12-.085-.184.075-.292.15-.415.575-.94 1.146-1.882 1.74-2.81.19-.297.205-.538.012-.841-.375-.587-.717-1.195-1.063-1.8-.118-.205-.287-.392-.297-.76Zm-3.79 17.608c.203-.762.35-1.386.54-1.997.11-.355.055-.592-.242-.846-.603-.514-1.165-1.075-1.741-1.62-.065-.062-.165-.113-.106-.295.778.318 1.56.613 2.319.958.426.193.745.171 1.086-.17.341-.343.742-.627 1.118-.933.085-.069.177-.192.292-.13.154.084.051.232.023.348-.135.533-.264 1.07-.426 1.595-.094.307-.02.52.212.73a83.98 83.98 0 0 1 1.629 1.527c.109.105.269.18.292.434-.748-.305-1.473-.57-2.17-.897-.504-.236-.896-.291-1.344.156-.398.397-.84.78-1.48 1.141h-.002Z"/>
  </g>
  <defs>
    <clipPath id="a">
      <path fill="#fff" d="M0 .45h103.366v50.778H0z"/>
    </clipPath>
  </defs>
</svg>