<svg xmlns="http://www.w3.org/2000/svg" fill="none" viewBox="0 0 117 32">
  <g fill="#fff" clip-path="url(#a)">
    <path d="M44.21 28.275c-.638.598-1.126 1.043-1.602 1.502-2.822 2.724-6.333 2.177-8.147-1.272-.684-1.3-.662-1.272-1.816-.327-1.777 1.456-3.573 2.89-5.949 3.27-2.052.329-3.054-.24-3.638-2.266-.284-.985-.627-1.027-1.329-.395-1.057.952-2.204 1.784-3.556 2.282-3.15 1.16-5.557-.855-5.049-4.203.36-2.36 1.25-4.579 1.776-6.892.156-.685.798-1.561.067-2.087-.676-.485-1.55.035-2.213.427-2.948 1.742-5.269 4.06-6.456 7.355-.521 1.449-.975 2.924-1.517 4.366-.464 1.237-2.729 1.899-3.814 1.154-.611-.42-.295-.984-.17-1.48 1.105-4.405 2.315-8.785 3.32-13.212.729-3.216 1.415-6.425 2.77-9.452.927-2.069 2.052-4.005 3.686-5.603C11.64.399 12.88-.324 14.394.269c1.617.633 2.204 1.975 2.29 3.677.187 3.687-1.68 6.523-3.673 9.332-.394.556-1.286 1.17-.893 1.755.398.59 1.154-.276 1.79-.348.453-.051.889-.232 1.34-.304 2.038-.324 3.524.874 3.63 2.935.121 2.342-.687 4.511-1.276 6.72-.258.965-.531 1.926-.796 2.89-.116.421-.147.835.237 1.145.398.321.809.165 1.162-.065 2.761-1.8 5.267-3.804 6.02-7.281.396-1.83.901-3.638 1.316-5.465.163-.716.54-1.126 1.263-1.147 3.61-.107 3.405-.208 2.333 2.786-1.087 3.035-2.033 6.086-2.006 9.354.014 1.606.562 1.996 1.862 1.112 2.41-1.636 4.762-3.288 5.634-6.396.63-2.244 2.164-4.03 4.006-5.47 2.345-1.833 4.727-1.81 7.232-.002 1.117.806 1.084.797 1.436-.526.864-3.26 1.795-6.506 2.633-9.774.34-1.331 1.334-1.31 2.34-1.345 2.01-.072 1.977-.072 1.452 1.83-1.821 6.582-3.787 13.127-5.14 19.83-.14.698-.632 1.678.114 2.064.695.36 1.294-.53 1.811-1.04 2.905-2.869 4.473-6.59 6.38-10.092.277-.51.156-1.048-.015-1.58-.395-1.23-.365-2.47.016-3.692.347-1.113 1.283-1.408 2.933-1.042 1.02.226 1.394.814 1.167 1.818-.037.162-.012.338-.056.496-.538 1.914-.043 3.089 1.994 3.87 1.953.749 2.538 2.474 2.162 4.69a26.484 26.484 0 0 1-1.462 5.292c-.195.495-.475 1.117.032 1.51.53.413 1.027-.11 1.447-.402 2.403-1.666 4.447-3.578 5.222-6.594.62-2.417 2.146-4.305 4.165-5.767a9.422 9.422 0 0 1 1.608-.951c1.79-.816 3.655-.903 5.201.353 1.472 1.195.956 3.004.71 4.575-.226 1.438-1.05 2.642-2.23 3.511-1.447 1.066-2.987 1.991-4.796 2.322-.841.154-1.704.19-1.558 1.444.155 1.345.773 2.175 1.94 2.207 1.255.034 2.54-.11 3.63-.759 3.24-1.932 6.159-4.141 6.957-8.203.287-1.46.965-2.837 1.188-4.33.115-.77.531-1.124 1.353-1.158 2.852-.117 2.85-.141 2.001 2.498a4.81 4.81 0 0 0-.174.728c-.016.107.043.225.094.453.743-.367 1.156-1.015 1.693-1.502 1.171-1.06 2.465-1.816 4.064-2.038 2.338-.325 4.192 1.194 4.26 3.575.048 1.655-.558 3.187-.952 4.76-.344 1.372-.66 2.753-.95 4.138-.09.43-.24.97.271 1.24.436.229.902.053 1.296-.217a11.382 11.382 0 0 0 4.165-5.186c.594-1.465 1.038-2.989 1.548-4.487.266-.782.074-1.222-.841-1.119-.042.004-.085.01-.125.002-.682-.14-1.768.463-1.833-.841-.058-1.177.949-2.284 2.026-2.264 2.551.048 2.124-.246 2.712-2.186.556-1.834 1.129-3.662 1.644-5.506.247-.885.867-.997 1.627-1.017 2.58-.069 2.611-.038 1.843 2.41l-1.498 4.764c-.37 1.174-.143 1.488 1.133 1.512.958.018 1.917.015 2.875.009.706-.006.835.287.639.946-.549 1.842-.98 2.167-2.908 2.196-3.221.049-2.801-.54-3.857 2.922-.484 1.591-.802 3.233-1.174 4.858a5.484 5.484 0 0 0-.134 1.238c.012 1.72 1.001 2.335 2.55 1.561.516-.258.969-.643 1.453-.966.494-.328.998-.991 1.573-.193.522.723 1.221 1.478.511 2.47-1.12 1.566-4.896 2.954-6.79 2.52-1.41-.324-2.2-1.307-2.655-2.58-.346-.972-.693-1.093-1.396-.269-.959 1.125-2.165 1.927-3.555 2.474-2.995 1.18-5.276-.59-4.942-3.832.216-2.086.78-4.086 1.352-6.09.091-.32.216-.633.271-.96.113-.676.535-1.502-.194-1.967-.758-.485-1.603-.034-2.181.476-2.43 2.142-4.478 4.595-5.602 7.69-.454 1.25-.779 2.548-1.165 3.823-.339 1.121-2.71 1.888-3.664 1.175-.447-.333-.176-.76-.091-1.146.147-.674.88-1.546.384-1.95-.593-.484-1.158.51-1.718.856-2.196 1.354-4.504 2.306-7.104 2.55-2.633.246-4.001-.505-4.922-2.998-.346-.94-.716-1.095-1.503-.436-1.245 1.042-2.495 2.082-3.979 2.796-1.395.671-2.769.693-4.016-.235-1.246-.927-1.495-2.285-1.105-3.715.502-1.847 1.116-3.665 1.663-5.5.269-.902.34-1.808-.17-2.664-.259-.435-.543-.867-1.116-.9-.673-.04-.78.538-.967.978-1.196 2.811-2.687 5.452-4.518 7.9-1.162 1.552-2.512 2.89-4.23 3.824-.666.362-1.358.645-2.109.751-1.858.262-2.827-.324-3.47-2.08-.099-.271-.178-.549-.331-1.027h.002ZM37.88 24.6c.046.495.05 1.041.155 1.566.412 2.043 1.467 2.491 3.194 1.347 2.409-1.596 3.802-3.904 4.47-6.662.325-1.345-.377-2.339-1.42-3.08-1.01-.72-2.068-.777-3.117-.007-2.301 1.684-3.214 4.027-3.28 6.836h-.002ZM13.813 5.053c-.052-.638.119-1.44-.568-1.685-.741-.263-1.039.535-1.37 1.021-1.444 2.129-2.183 4.562-2.942 6.984-.272.87-.546 1.742-.779 2.624-.067.259-.128.642.241.744.278.077.405-.233.544-.428.722-1.017 1.48-2.01 2.145-3.064 1.22-1.933 2.456-3.869 2.727-6.195h.002ZM75.04 21.564c1.597.033 3.96-2.278 3.988-3.898.014-.85-.563-1.235-1.447-.87-1.74.72-2.578 2.263-3.29 3.862-.272.613.103.93.75.906h-.001Z"/>
    <path d="M28.614 11.798c-1.153-.01-2.192-.858-2.201-1.799-.015-1.38 1.56-2.906 2.954-2.864.997.03 1.954 1.037 1.97 2.071.018 1.267-1.385 2.603-2.723 2.591v.001Z"/>
  </g>
  <defs>
    <clipPath id="a">
      <path fill="#fff" d="M.607.054h115.494v31.57H.607z"/>
    </clipPath>
  </defs>
</svg>