<svg width="505" height="485" fill="none" xmlns="http://www.w3.org/2000/svg">
  <path d="M51.307 27.532a80.039 80.039 0 0 1 .926-.845 1.253 1.253 0 0 1-.073 1.763 75.632 75.632 0 0 0-3.188 3.138 1.253 1.253 0 0 1-1.764.045 76.905 76.905 0 0 1 4.1-4.101Zm8.12-5.032a1.253 1.253 0 0 1-1.743-.276 79.764 79.764 0 0 1 1.01-.74 78.975 78.975 0 0 1 4.814-3.208 1.253 1.253 0 0 1-.39 1.721 77.65 77.65 0 0 0-3.691 2.503Zm11.902-7.077c-.62.3-1.365.043-1.669-.573a83.586 83.586 0 0 1 1.124-.555 86.695 86.695 0 0 1 5.295-2.347 1.253 1.253 0 0 1-.672 1.632 85.588 85.588 0 0 0-4.078 1.843Zm12.945-5.04c-.66.2-1.356-.169-1.56-.826a93.043 93.043 0 0 1 1.195-.372 100.144 100.144 0 0 1 5.565-1.52 1.253 1.253 0 0 1-.906 1.517 98.96 98.96 0 0 0-4.294 1.201Zm13.544-3.13a1.253 1.253 0 0 1-1.437-1.026 116.318 116.318 0 0 1 6.96-1.005 1.254 1.254 0 0 1-1.089 1.392c-1.494.187-2.972.4-4.433.64Zm13.857-1.459a1.254 1.254 0 0 1-1.315-1.182 139.654 139.654 0 0 1 7.052-.243c.01.69-.54 1.258-1.23 1.27-1.516.028-3.018.08-4.507.155Zm13.988-.029a1.253 1.253 0 0 1-1.197-1.301 161.615 161.615 0 0 1 5.754.308 163.527 163.527 0 0 1 1.249.093 1.253 1.253 0 0 1-1.338 1.156 165.92 165.92 0 0 0-4.468-.256Zm13.914 1.18a1.252 1.252 0 0 1-1.089-1.393 222.869 222.869 0 0 1 1.243.15 195.101 195.101 0 0 1 5.742.799 1.253 1.253 0 0 1-1.422 1.052c-1.5-.221-2.991-.424-4.474-.608Zm13.832 2.211a1.252 1.252 0 0 1-.991-1.465 204.564 204.564 0 0 1 1.23.236 225.247 225.247 0 0 1 5.672 1.178 1.252 1.252 0 0 1-1.487.958 225.092 225.092 0 0 0-4.424-.907Zm13.689 3.097a1.253 1.253 0 0 1-.902-1.522 192.935 192.935 0 0 1 1.214.309c1.444.371 2.894.758 4.35 1.16.201.055.402.11.604.167l.603.168a1.253 1.253 0 0 1-1.54.872c-1.449-.4-2.892-.784-4.329-1.154Zm13.457 3.847a1.253 1.253 0 0 1-.821-1.568l.599.186.598.187a295.029 295.029 0 0 1 5.507 1.79 1.252 1.252 0 0 1-1.582.793 289.91 289.91 0 0 0-4.301-1.388Zm13.279 4.52a1.253 1.253 0 0 1-.746-1.604l.589.214.588.215c1.422.52 2.847 1.054 4.277 1.601l.584.225.585.225a1.253 1.253 0 0 1-1.617.72 320.185 320.185 0 0 0-4.26-1.595Zm13.082 5.118a1.252 1.252 0 0 1-.677-1.636 353.6 353.6 0 0 1 5.341 2.25l.575.247.306.133.269.117a1.253 1.253 0 0 1-1.645.653c-1.393-.6-2.783-1.188-4.169-1.764Zm12.872 5.649a1.252 1.252 0 0 1-.613-1.66l.569.26.569.263c1.36.628 2.722 1.267 4.086 1.917l.566.27.565.27a1.253 1.253 0 0 1-1.669.591 383.113 383.113 0 0 0-4.073-1.911Zm12.646 6.124a1.253 1.253 0 0 1-.553-1.682l.56.282.559.283a416.2 416.2 0 0 1 4.005 2.056l.556.29.555.29c-.32.612-1.076.85-1.689.531a415.983 415.983 0 0 0-3.993-2.05Zm12.413 6.553a1.253 1.253 0 0 1-.496-1.7l.55.3.549.302a445.526 445.526 0 0 1 4.346 2.42l.143.08.364.206.182.103a1.254 1.254 0 0 1-1.706.475 442.88 442.88 0 0 0-3.932-2.186Zm12.2 6.956a1.254 1.254 0 0 1-.442-1.715 303.546 303.546 0 0 1 1.08.636c1.292.764 2.585 1.537 3.879 2.319l.22.132.316.192.247.15.289.175a1.254 1.254 0 0 1-1.72.423c-1.29-.78-2.58-1.55-3.869-2.312Zm11.987 7.329a1.253 1.253 0 0 1-.391-1.727c.177.11.353.222.53.333l.53.335c1.27.802 2.541 1.614 3.813 2.434l.526.34.526.34c-.376.58-1.15.747-1.731.373a489.086 489.086 0 0 0-3.803-2.428Zm11.771 7.676a1.252 1.252 0 0 1-.341-1.737l.52.348.342.23.178.12c1.248.839 2.496 1.686 3.744 2.541l.517.355.516.355a1.253 1.253 0 0 1-1.741.324 513.187 513.187 0 0 0-3.735-2.536Zm11.556 8.003a1.252 1.252 0 0 1-.294-1.746l.51.362.511.363a546.071 546.071 0 0 1 4.181 3.011l.277.202.229.167a1.253 1.253 0 0 1-1.749.277 522.447 522.447 0 0 0-3.665-2.636Zm11.339 8.31a1.253 1.253 0 0 1-.248-1.754 545.099 545.099 0 0 1 4.605 3.49l.497.38.24.186.256.197a1.252 1.252 0 0 1-1.755.231 555.412 555.412 0 0 0-3.595-2.73Zm11.123 8.6a1.253 1.253 0 0 1-.204-1.758l.492.388.301.239.189.15c1.178.935 2.356 1.877 3.532 2.826l.487.394.393.318.094.076a1.253 1.253 0 0 1-1.761.187 560.858 560.858 0 0 0-3.523-2.82Zm10.905 8.88a1.253 1.253 0 0 1-.16-1.764l.482.4.481.401c1.154.964 2.307 1.934 3.458 2.911l.478.405.477.406a1.253 1.253 0 0 1-1.765.144c-1.149-.975-2.3-1.943-3.451-2.904Zm10.686 9.143a1.253 1.253 0 0 1-.117-1.767l.472.412.471.413c1.13.99 2.258 1.987 3.385 2.99l.468.417.243.217.224.2a1.253 1.253 0 0 1-1.768.102 546.496 546.496 0 0 0-3.378-2.984Zm10.466 9.397a1.254 1.254 0 0 1-.075-1.769l.462.423.461.424a554.376 554.376 0 0 1 3.312 3.068l.457.427.457.428a1.252 1.252 0 0 1-1.769.06 626.995 626.995 0 0 0-3.305-3.061Zm10.238 9.636a1.254 1.254 0 0 1-.034-1.771l.451.434.452.435a597.233 597.233 0 0 1 3.691 3.586l.447.438a1.252 1.252 0 0 1-1.771.019 633.558 633.558 0 0 0-3.236-3.141Zm10.008 9.866a1.252 1.252 0 0 1 .007-1.771l.441.444.442.445a816.356 816.356 0 0 1 3.195 3.247l.438.448.437.449a1.253 1.253 0 0 1-1.771-.022 610.905 610.905 0 0 0-3.189-3.24Zm9.805 10.118a1.253 1.253 0 0 1 .047-1.77l.432.454.287.303.144.152a676.032 676.032 0 0 1 3.095 3.293l.168.181.259.277.427.459a1.254 1.254 0 0 1-1.77-.062 628.03 628.03 0 0 0-3.089-3.287Zm9.552 10.324a1.253 1.253 0 0 1 .089-1.769l.42.464.421.465a666.193 666.193 0 0 1 3.014 3.359l.416.468.416.469a1.254 1.254 0 0 1-1.768-.103 547.755 547.755 0 0 0-3.008-3.353Zm9.308 10.542a1.252 1.252 0 0 1 .129-1.766l.135.156.275.318.275.319.134.155a575.208 575.208 0 0 1 2.937 3.433l.405.478.404.478a1.251 1.251 0 0 1-1.764-.146 649.97 649.97 0 0 0-2.93-3.425Zm9.053 10.76a1.253 1.253 0 0 1 .172-1.763l.398.484.398.484c.958 1.167 1.91 2.335 2.855 3.504l.393.488.18.222.213.265a1.254 1.254 0 0 1-1.761-.187 531.774 531.774 0 0 0-2.848-3.497Zm8.789 10.974a1.253 1.253 0 0 1 .215-1.758l.386.493.386.494c.93 1.191 1.853 2.383 2.769 3.576l.305.398.076.099.381.497a1.252 1.252 0 0 1-1.755-.231c-.914-1.19-1.835-2.38-2.763-3.568Zm8.512 11.188a1.253 1.253 0 0 1 .26-1.751l.374.503.373.503c.9 1.214 1.793 2.43 2.679 3.646l.368.507.272.374.096.132a1.253 1.253 0 0 1-1.749-.275 503.874 503.874 0 0 0-2.673-3.639Zm8.224 11.402a1.252 1.252 0 0 1 .304-1.744 160.07 160.07 0 0 1 .721 1.025 554.332 554.332 0 0 1 3.293 4.748 1.252 1.252 0 0 1-1.741-.322 527.213 527.213 0 0 0-2.577-3.707Zm7.918 11.614a1.253 1.253 0 0 1 .352-1.735l.279.42.068.101.258.39.088.132a544.41 544.41 0 0 1 2.482 3.785l.34.525.341.526a1.253 1.253 0 0 1-1.732-.369 477.924 477.924 0 0 0-2.476-3.775Zm7.597 11.826a1.252 1.252 0 0 1 .4-1.725l.332.531.331.532a460.853 460.853 0 0 1 3.024 4.921 1.25 1.25 0 0 1-1.72-.418c-.781-1.28-1.57-2.56-2.367-3.841Zm7.253 12.038a1.254 1.254 0 0 1 .451-1.713l.316.541.189.324.127.217a466.363 466.363 0 0 1 2.256 3.916l.207.364.103.181.309.544a1.253 1.253 0 0 1-1.708-.469 448.466 448.466 0 0 0-2.25-3.905Zm6.887 12.248a1.253 1.253 0 0 1 .503-1.697l.3.55.182.335.117.215a442.604 442.604 0 0 1 2.129 3.979l.292.554.292.554a1.253 1.253 0 0 1-1.691-.523 467.011 467.011 0 0 0-2.124-3.967Zm6.491 12.458a1.253 1.253 0 0 1 .559-1.68l.281.559.281.56a418.013 418.013 0 0 1 1.992 4.038l.273.564.273.564a1.253 1.253 0 0 1-1.673-.58 415.386 415.386 0 0 0-1.986-4.025Zm6.062 12.664a1.253 1.253 0 0 1 .617-1.659l.262.569.26.57a358.85 358.85 0 0 1 1.852 4.116l.253.573.253.573a1.252 1.252 0 0 1-1.651-.639 404.302 404.302 0 0 0-1.846-4.103Zm5.592 12.867a1.252 1.252 0 0 1 .679-1.634 340.464 340.464 0 0 0 .479 1.157 344.002 344.002 0 0 1 1.818 4.5l.116.294.229.583a1.253 1.253 0 0 1-1.624-.703 365.345 365.345 0 0 0-1.697-4.197Zm5.077 13.074a1.251 1.251 0 0 1 .746-1.605l.216.587.215.589a318.717 318.717 0 0 1 1.739 4.893l.079.228.125.364a1.253 1.253 0 0 1-1.593-.772 316.209 316.209 0 0 0-1.527-4.284Zm4.517 13.312a1.253 1.253 0 0 1 .818-1.57l.189.597.188.598a287.697 287.697 0 0 1 1.502 4.941l.176.601a1.253 1.253 0 0 1-1.555-.845 281.724 281.724 0 0 0-1.318-4.322Zm3.866 13.492a1.253 1.253 0 0 1 .896-1.526l.159.606.158.606a257.771 257.771 0 0 1 1.379 5.587 1.253 1.253 0 0 1-1.508-.926 255.315 255.315 0 0 0-1.084-4.347Zm3.127 13.646a1.251 1.251 0 0 1 .981-1.472l.085.42.039.194a231.776 231.776 0 0 1 .964 5.076l.108.617.038.217.069.4a1.253 1.253 0 0 1-1.449-1.015c-.262-1.471-.54-2.95-.835-4.437Zm2.289 13.819a1.252 1.252 0 0 1 1.075-1.404l.084.62.083.621a199.634 199.634 0 0 1 .606 5.135l.064.623a1.253 1.253 0 0 1-1.376-1.111c-.16-1.485-.339-2.98-.536-4.484Zm1.309 13.943a1.254 1.254 0 0 1 1.178-1.319l.038.625.035.626c.083 1.512.145 3.014.187 4.505l.016.626.013.626a1.252 1.252 0 0 1-1.282-1.217c-.041-1.479-.102-2.97-.185-4.472Zm.16 13.953c.023-.689.6-1.23 1.289-1.209l-.017.626-.02.626a142.783 142.783 0 0 1-.229 4.545l-.043.625-.046.625a1.252 1.252 0 0 1-1.161-1.333c.099-1.487.174-2.989.227-4.505Zm-1.197 13.913a1.252 1.252 0 0 1 1.409-1.066 61.87 61.87 0 0 1-.083.621c-.028.207-.056.414-.086.621a119.03 119.03 0 0 1-.717 4.47l-.113.616-.117.615a1.252 1.252 0 0 1-1.003-1.454c.263-1.457.499-2.932.71-4.423Zm-2.787 13.641a1.253 1.253 0 0 1 1.531-.881 106.766 106.766 0 0 1-.322 1.211 98.667 98.667 0 0 1-1.351 4.533l-.128.392-.079.236-.119.358a1.253 1.253 0 0 1-.801-1.574c.452-1.405.875-2.83 1.269-4.275Zm-4.607 13.089a1.252 1.252 0 0 1 1.643-.645l-.246.576-.25.574a87.181 87.181 0 0 1-2.508 5.222 1.253 1.253 0 0 1-.547-1.679 85.209 85.209 0 0 0 1.908-4.048Zm-6.613 12.185a1.253 1.253 0 0 1 1.728-.361l-.2.312-.139.215-.343.524c-.833 1.263-1.7 2.5-2.602 3.71l-.258.344-.119.157c-.126.166-.252.332-.38.497a1.253 1.253 0 0 1-.248-1.747 76.791 76.791 0 0 0 2.561-3.651Zm-8.626 10.823a1.251 1.251 0 0 1 1.763-.045 60.815 60.815 0 0 1-.859.912 78.463 78.463 0 0 1-3.701 3.613 60.62 60.62 0 0 1-.464.42 1.252 1.252 0 0 1 .073-1.763 73.496 73.496 0 0 0 3.188-3.137Zm-10.456 9.088a1.253 1.253 0 0 1 1.743.275l-.503.373-.507.368a79.103 79.103 0 0 1-3.751 2.543l-.224.142-.306.192a58.67 58.67 0 0 1-.532.33 1.252 1.252 0 0 1 .389-1.721 78.08 78.08 0 0 0 3.691-2.502Zm-11.902 7.077c.62-.3 1.365-.044 1.669.573a58.353 58.353 0 0 1-1.123.554 86.377 86.377 0 0 1-4.138 1.87l-.578.241c-.193.08-.386.159-.58.237a1.254 1.254 0 0 1 .672-1.633 85.393 85.393 0 0 0 4.078-1.842Zm-12.945 5.039c.66-.2 1.357.169 1.561.826-.198.064-.398.126-.597.189l-.599.184a100.98 100.98 0 0 1-5.564 1.519 1.253 1.253 0 0 1 .905-1.517 98.052 98.052 0 0 0 4.294-1.201Zm-13.544 3.13a1.254 1.254 0 0 1 1.438 1.027l-.618.107-.321.054-.296.049a120.123 120.123 0 0 1-5.725.795 1.252 1.252 0 0 1 1.088-1.392c1.494-.187 2.972-.4 4.434-.64Zm-13.856 1.459a1.253 1.253 0 0 1 1.314 1.182l-.43.025-.195.011a131.204 131.204 0 0 1-5.174.19l-.402.007-.224.003-.627.008a1.254 1.254 0 0 1 1.23-1.271 138.7 138.7 0 0 0 4.508-.155Zm-13.989.03c.69.03 1.225.612 1.197 1.301a66.736 66.736 0 0 1-.626-.024l-.626-.026a166.585 166.585 0 0 1-5.126-.303l-.625-.048a1.255 1.255 0 0 1 1.338-1.157c1.5.107 2.99.192 4.468.257Zm-13.914-1.181a1.254 1.254 0 0 1 1.09 1.394l-.622-.074-.622-.076a195.403 195.403 0 0 1-4.503-.612l-.62-.093-.619-.094a1.253 1.253 0 0 1 1.422-1.053c1.5.222 2.992.425 4.474.608Zm-13.832-2.211c.678.132 1.121.788.992 1.465l-.616-.116-.615-.119a234.373 234.373 0 0 1-4.448-.911l-.612-.133-.612-.134a1.253 1.253 0 0 1 1.488-.958c1.482.319 2.956.621 4.423.906Zm-13.689-3.097c.669.173 1.073.854.903 1.523l-.608-.154-.607-.155a260.902 260.902 0 0 1-4.35-1.16l-.603-.167-.435-.121-.168-.048a1.252 1.252 0 0 1 1.54-.871c1.448.399 2.891.784 4.328 1.153ZM343.1 473.26c.659.207 1.026.909.821 1.568-.199-.062-.399-.123-.598-.186l-.598-.186a287.485 287.485 0 0 1-4.319-1.394c-.198-.066-.397-.131-.595-.198l-.594-.198a1.253 1.253 0 0 1 1.583-.793c1.438.476 2.871.939 4.3 1.387Zm-13.279-4.52c.649.237.983.956.746 1.605l-.589-.214-.588-.215a322.656 322.656 0 0 1-5.445-2.052 1.252 1.252 0 0 1 1.616-.72c1.424.545 2.844 1.077 4.26 1.596Zm-13.081-5.117c.638.265.941.997.677 1.635l-.579-.238-.579-.24a348.169 348.169 0 0 1-4.184-1.771l-.575-.248-.574-.249a1.253 1.253 0 0 1 1.645-.653c1.393.6 2.782 1.188 4.169 1.764Zm-12.872-5.649c.627.289.901 1.033.612 1.66l-.569-.261-.569-.262a355.188 355.188 0 0 1-4.651-2.187l-.565-.271a1.252 1.252 0 0 1 1.669-.59 411.23 411.23 0 0 0 4.073 1.911Zm-12.646-6.125c.616.313.863 1.065.552 1.682l-.559-.281-.559-.283a411.507 411.507 0 0 1-4.006-2.056l-.278-.145-.277-.145-.555-.29a1.252 1.252 0 0 1 1.688-.532c1.333.694 2.664 1.377 3.994 2.05Zm-12.413-6.552c.605.333.827 1.093.495 1.699l-.549-.3-.549-.301a445.251 445.251 0 0 1-3.944-2.193l-.546-.308a95.868 95.868 0 0 1-.545-.308 1.252 1.252 0 0 1 1.705-.476 431.8 431.8 0 0 0 3.933 2.187Zm-12.201-6.956c.595.352.793 1.119.442 1.714a77.79 77.79 0 0 1-.387-.227l-.153-.09-.539-.319a431.016 431.016 0 0 1-3.88-2.318l-.536-.324-.535-.325a1.252 1.252 0 0 1 1.719-.423c1.29.78 2.58 1.55 3.869 2.312Zm-11.986-7.329c.584.369.759 1.142.39 1.727l-.53-.334-.53-.334a494.454 494.454 0 0 1-3.812-2.434l-.526-.34-.526-.341a1.253 1.253 0 0 1 1.731-.372c1.268.818 2.535 1.627 3.803 2.428Zm-11.772-7.677c.574.386.727 1.164.342 1.738l-.407-.273-.114-.076a59.03 59.03 0 0 1-.318-.214l-.202-.135a485.364 485.364 0 0 1-3.744-2.542l-.516-.354-.516-.355a1.251 1.251 0 0 1 1.74-.324c1.245.853 2.49 1.698 3.735 2.535Zm-11.555-8.002c.563.401.694 1.183.294 1.746l-.511-.363-.51-.363a560.674 560.674 0 0 1-4.181-3.011l-.507-.368a1.253 1.253 0 0 1 1.749-.277c1.222.886 2.444 1.765 3.666 2.636Zm-11.34-8.31c.553.416.664 1.201.248 1.753a163.53 163.53 0 0 1-1.001-.752 518.788 518.788 0 0 1-4.1-3.118l-.497-.382a1.253 1.253 0 0 1 1.755-.232c1.198.918 2.396 1.828 3.595 2.731Zm-11.122-8.601c.541.43.632 1.217.203 1.759a93.11 93.11 0 0 1-.491-.389 559.775 559.775 0 0 1-4.022-3.215l-.488-.393a93.005 93.005 0 0 0-.487-.394 1.253 1.253 0 0 1 1.761-.188c1.174.947 2.348 1.887 3.524 2.82Zm-10.905-8.878c.53.443.602 1.232.159 1.763l-.481-.401-.481-.401a567.549 567.549 0 0 1-3.459-2.91l-.477-.406-.477-.405a1.252 1.252 0 0 1 1.764-.145c1.15.975 2.3 1.943 3.452 2.905Zm-10.687-9.144c.52.456.572 1.247.117 1.767l-.471-.412-.472-.413a545.09 545.09 0 0 1-3.853-3.407l-.467-.418a1.254 1.254 0 0 1 1.768-.101 611.879 611.879 0 0 0 3.378 2.984Zm-10.466-9.398c.509.468.542 1.26.075 1.769l-.462-.423-.461-.424a586.55 586.55 0 0 1-3.311-3.067l-.458-.428-.457-.428a1.253 1.253 0 0 1 1.77-.06 551.787 551.787 0 0 0 3.304 3.061Zm-10.237-9.635c.498.48.513 1.272.034 1.77a92.57 92.57 0 0 1-.452-.434l-.23-.22-.221-.214a563.196 563.196 0 0 1-3.244-3.148l-.448-.438-.447-.438a1.253 1.253 0 0 1 1.771-.02 559.958 559.958 0 0 0 3.237 3.142Zm-10.009-9.866a1.253 1.253 0 0 1-.006 1.771l-.185-.186-.257-.259-.441-.444a613.663 613.663 0 0 1-3.196-3.247l-.437-.448-.437-.449a1.252 1.252 0 0 1 1.77.021 611.103 611.103 0 0 0 3.189 3.241Zm-9.805-10.119a1.252 1.252 0 0 1-.047 1.77l-.431-.454-.292-.307-.139-.147a593.192 593.192 0 0 1-3.096-3.294l-.427-.458-.427-.458a1.252 1.252 0 0 1 1.77.062 630.431 630.431 0 0 0 3.089 3.286Zm-9.552-10.323a1.252 1.252 0 0 1-.088 1.768l-.421-.464-.269-.297-.151-.167a549.987 549.987 0 0 1-3.014-3.36l-.131-.147-.286-.321-.415-.468a1.252 1.252 0 0 1 1.767.103 618.486 618.486 0 0 0 3.008 3.353Zm-9.307-10.543a1.253 1.253 0 0 1-.13 1.766l-.41-.473-.409-.475a574.841 574.841 0 0 1-2.936-3.432l-.405-.478-.405-.478a1.253 1.253 0 0 1 1.765.145c.97 1.143 1.947 2.285 2.93 3.425Zm-9.053-10.759a1.253 1.253 0 0 1-.173 1.762l-.398-.483-.398-.484a600.193 600.193 0 0 1-3.248-3.992l-.393-.488a1.253 1.253 0 0 1 1.761.188 531.97 531.97 0 0 0 2.849 3.497Zm-8.789-10.974a1.252 1.252 0 0 1-.216 1.757l-.386-.493-.386-.493a554.617 554.617 0 0 1-2.769-3.576l-.381-.497-.381-.498a1.253 1.253 0 0 1 1.756.232 581.12 581.12 0 0 0 2.763 3.568Zm-8.513-11.189c.412.556.296 1.34-.259 1.752l-.231-.31-.143-.193a538.215 538.215 0 0 1-3.789-5.163 1.253 1.253 0 0 1 1.75.276 560.653 560.653 0 0 0 2.672 3.638Zm-8.223-11.401c.397.566.26 1.346-.305 1.744l-.22-.313-.14-.199a533.146 533.146 0 0 1-2.944-4.229l-.258-.375-.097-.141-.355-.516a1.253 1.253 0 0 1 1.741.321c.852 1.236 1.711 2.472 2.578 3.708Zm-7.919-11.614a1.252 1.252 0 0 1-.352 1.735l-.346-.522-.255-.384-.091-.138a503.919 503.919 0 0 1-3.163-4.835 1.252 1.252 0 0 1 1.731.369 526.031 526.031 0 0 0 2.476 3.775Zm-7.596-11.826a1.252 1.252 0 0 1-.4 1.724l-.332-.531-.332-.531c-.8-1.284-1.59-2.568-2.373-3.851l-.326-.535-.325-.536a1.253 1.253 0 0 1 1.72.418c.781 1.28 1.57 2.561 2.368 3.842Zm-7.254-12.038a1.252 1.252 0 0 1-.45 1.712l-.317-.54-.316-.541a485.878 485.878 0 0 1-2.256-3.916l-.31-.545-.173-.306-.135-.239a1.253 1.253 0 0 1 1.707.47c.741 1.3 1.491 2.602 2.25 3.905Zm-6.887-12.248c.33.607.104 1.367-.503 1.697l-.3-.55-.298-.551c-.72-1.327-1.43-2.653-2.13-3.978l-.122-.231-.17-.323-.154-.292-.138-.262a1.253 1.253 0 0 1 1.692.522 440.205 440.205 0 0 0 2.123 3.968Zm-6.49-12.458c.308.618.058 1.37-.56 1.68l-.28-.56a415.692 415.692 0 0 1-2.819-5.725 1.253 1.253 0 0 1 1.672.579c.652 1.34 1.314 2.682 1.986 4.026Zm-6.063-12.665a1.252 1.252 0 0 1-.617 1.659l-.261-.569-.261-.569a382.936 382.936 0 0 1-1.852-4.117l-.253-.572-.252-.574a1.252 1.252 0 0 1 1.65.639c.605 1.365 1.22 2.733 1.846 4.103Zm-5.591-12.867a1.253 1.253 0 0 1-.68 1.635l-.132-.319-.108-.26a353.794 353.794 0 0 1-2.173-5.372l-.23-.583c.643-.254 1.37.06 1.625.703.554 1.395 1.12 2.794 1.698 4.196Zm-5.078-13.073a1.253 1.253 0 0 1-.745 1.605 278.784 278.784 0 0 1-.432-1.176 318.86 318.86 0 0 1-1.739-4.893l-.204-.592a1.253 1.253 0 0 1 1.593.771 319.108 319.108 0 0 0 1.527 4.285Zm-4.516-13.312a1.252 1.252 0 0 1-.818 1.569 274.366 274.366 0 0 1-.378-1.194 288.888 288.888 0 0 1-1.324-4.341 272.432 272.432 0 0 1-.353-1.202 1.252 1.252 0 0 1 1.554.846 291.11 291.11 0 0 0 1.319 4.322ZM32.027 150.6a1.252 1.252 0 0 1-.896 1.525 400.21 400.21 0 0 1-.317-1.212 256.875 256.875 0 0 1-1.38-5.586 1.252 1.252 0 0 1 1.508.926c.347 1.443.708 2.892 1.085 4.347ZM28.9 136.954a1.253 1.253 0 0 1-.982 1.472 222.491 222.491 0 0 1-1.087-5.69 410.49 410.49 0 0 1-.216-1.234 1.252 1.252 0 0 1 1.45 1.014c.26 1.472.54 2.951.835 4.438Zm-2.29-13.82a1.253 1.253 0 0 1-1.074 1.405 220.223 220.223 0 0 1-.167-1.241 196.89 196.89 0 0 1-.67-5.759 1.253 1.253 0 0 1 1.375 1.112c.16 1.485.34 2.98.537 4.483Zm-1.309-13.943c.038.69-.49 1.279-1.178 1.319a145.462 145.462 0 0 1-.073-1.25 167.682 167.682 0 0 1-.216-5.758 1.253 1.253 0 0 1 1.282 1.218c.041 1.479.103 2.97.185 4.471Zm-.16-13.953c-.023.69-.6 1.23-1.289 1.21a143.18 143.18 0 0 1 .356-7.047 1.253 1.253 0 0 1 1.16 1.333c-.098 1.487-.174 2.989-.226 4.504Zm1.197-13.913a1.253 1.253 0 0 1-1.409 1.066 120.683 120.683 0 0 1 1.116-6.943 1.253 1.253 0 0 1 1.004 1.454 117.46 117.46 0 0 0-.71 4.423Zm2.787-13.64a1.253 1.253 0 0 1-1.531.88 103.174 103.174 0 0 1 1.802-6.135c.065-.198.13-.397.197-.594.654.215 1.012.918.801 1.574a98.9 98.9 0 0 0-1.269 4.274Zm4.608-13.09a1.253 1.253 0 0 1-1.643.646 92.24 92.24 0 0 1 .496-1.15 86.683 86.683 0 0 1 2.507-5.222c.612.314.857 1.063.547 1.678a85.561 85.561 0 0 0-1.907 4.048Zm6.612-12.184c-.38.574-1.15.735-1.727.36a84.366 84.366 0 0 1 .681-1.05 78.833 78.833 0 0 1 3.36-4.709c.547.415.659 1.195.247 1.747a77.43 77.43 0 0 0-2.56 3.651Zm438.631-8.25a60.837 60.837 0 0 1 .845.926 1.253 1.253 0 0 1-1.763-.073 75.574 75.574 0 0 0-3.138-3.188 1.253 1.253 0 0 1-.045-1.764 80.175 80.175 0 0 1 .912.86 77.285 77.285 0 0 1 3.189 3.24Zm5.032 8.12a1.253 1.253 0 0 1 .276-1.742c.125.167.249.335.372.503l.369.507a78.885 78.885 0 0 1 2.877 4.28c.11.178.221.355.33.533a1.252 1.252 0 0 1-1.721-.389 77.413 77.413 0 0 0-2.503-3.692Zm7.077 11.903c-.3-.62-.043-1.365.574-1.67l.279.561.275.563a87.031 87.031 0 0 1 2.347 5.296 1.252 1.252 0 0 1-1.632-.672 85.443 85.443 0 0 0-1.843-4.078Zm5.04 12.944a1.252 1.252 0 0 1 .826-1.56 61.82 61.82 0 0 1 .188.597l.184.599a99.715 99.715 0 0 1 1.52 5.564 1.253 1.253 0 0 1-1.517-.905 98.546 98.546 0 0 0-1.201-4.295Zm3.13 13.545a1.253 1.253 0 0 1 1.027-1.438l.106.617.045.268.058.35a117.744 117.744 0 0 1 .723 5.103c.024.207.049.414.072.622a1.254 1.254 0 0 1-1.392-1.088c-.186-1.495-.4-2.973-.639-4.434Zm1.459 13.856a1.253 1.253 0 0 1 1.182-1.314l.036.625.033.626a141.23 141.23 0 0 1 .167 5.174l.007.626a1.252 1.252 0 0 1-1.27-1.23c-.028-1.515-.08-3.018-.155-4.507Zm.029 13.989c.03-.69.612-1.225 1.302-1.197l-.024.626-.026.625a166.45 166.45 0 0 1-.352 5.751 1.252 1.252 0 0 1-1.156-1.337c.106-1.501.191-2.99.256-4.468Zm-1.18 13.914a1.252 1.252 0 0 1 1.393-1.09 131.71 131.71 0 0 1-.15 1.244 195.403 195.403 0 0 1-.749 5.416l-.05.326a1.253 1.253 0 0 1-1.052-1.422c.221-1.501.424-2.992.608-4.474Zm-2.211 13.832a1.252 1.252 0 0 1 1.465-.992l-.117.616-.119.615c-.286 1.475-.59 2.958-.911 4.448l-.133.612-.134.612a1.254 1.254 0 0 1-.958-1.488c.319-1.482.622-2.956.907-4.423Zm-3.097 13.688a1.253 1.253 0 0 1 1.522-.902l-.154.608-.155.606a255.747 255.747 0 0 1-1.159 4.35l-.167.604-.169.603a1.253 1.253 0 0 1-.872-1.54c.4-1.449.784-2.892 1.154-4.329Zm-3.847 13.458a1.253 1.253 0 0 1 1.568-.821l-.186.598-.187.598c-.45 1.435-.915 2.875-1.394 4.319l-.197.595-.199.594a1.254 1.254 0 0 1-.793-1.583c.477-1.438.939-2.872 1.388-4.3Zm-4.521 13.279a1.252 1.252 0 0 1 1.605-.746l-.214.588-.214.589a322.656 322.656 0 0 1-1.602 4.276l-.225.585-.225.584a1.252 1.252 0 0 1-.72-1.617 314.906 314.906 0 0 0 1.595-4.259Zm-5.117 13.081a1.254 1.254 0 0 1 1.636-.677l-.239.579-.24.579a355.054 355.054 0 0 1-1.77 4.184l-.248.575-.198.455-.052.119a1.253 1.253 0 0 1-.653-1.645c.6-1.393 1.188-2.782 1.764-4.169Zm-5.649 12.872a1.254 1.254 0 0 1 1.661-.613l-.261.57-.263.569a390.944 390.944 0 0 1-1.917 4.086l-.27.565-.166.347-.105.218a1.253 1.253 0 0 1-.59-1.669c.648-1.36 1.285-2.718 1.911-4.073Zm-6.124 12.646a1.252 1.252 0 0 1 1.682-.552l-.282.559-.283.559a400.935 400.935 0 0 1-2.056 4.006l-.289.555-.291.555a1.253 1.253 0 0 1-.531-1.689 408.936 408.936 0 0 0 2.05-3.993Zm-6.553 12.413a1.254 1.254 0 0 1 1.7-.496l-.192.352-.109.198-.196.359-.105.19a434.048 434.048 0 0 1-2.192 3.944l-.308.546-.199.351-.109.194a1.252 1.252 0 0 1-.476-1.705 431.647 431.647 0 0 0 2.186-3.933Zm-6.956 12.201a1.253 1.253 0 0 1 1.715-.442l-.114.194-.204.346-.213.361-.105.178a483.57 483.57 0 0 1-2.318 3.88l-.325.536-.325.535a1.253 1.253 0 0 1-.423-1.719 443.05 443.05 0 0 0 2.312-3.869Zm-7.328 11.986a1.253 1.253 0 0 1 1.726-.391l-.333.531-.334.529a476.194 476.194 0 0 1-2.435 3.813l-.34.526a94.57 94.57 0 0 1-.34.526 1.253 1.253 0 0 1-.372-1.731 524.108 524.108 0 0 0 2.428-3.803Zm-7.677 11.771a1.253 1.253 0 0 1 1.737-.341l-.348.52-.349.52a526.414 526.414 0 0 1-2.542 3.745l-.355.516-.355.516a1.253 1.253 0 0 1-.324-1.741c.854-1.245 1.699-2.49 2.536-3.735Zm-8.003 11.556a1.254 1.254 0 0 1 1.747-.294l-.363.511-.363.51a535.08 535.08 0 0 1-2.643 3.674l-.281.387-.087.12-.369.506a1.252 1.252 0 0 1-.277-1.748 523.156 523.156 0 0 0 2.636-3.666Zm-8.309 11.339a1.253 1.253 0 0 1 1.753-.248l-.376.501a518.788 518.788 0 0 1-3.114 4.104l-.381.497-.382.497a1.253 1.253 0 0 1-.231-1.756 549.782 549.782 0 0 0 2.731-3.595Zm-8.602 11.123a1.253 1.253 0 0 1 1.759-.203l-.189.24-.199.251-.389.491a559.775 559.775 0 0 1-2.826 3.531l-.394.487-.394.487a1.252 1.252 0 0 1-.187-1.76 550.206 550.206 0 0 0 2.819-3.524Zm-8.878 10.905a1.253 1.253 0 0 1 1.764-.159l-.401.481-.401.481a606.439 606.439 0 0 1-2.911 3.459l-.405.477-.406.477a1.253 1.253 0 0 1-.144-1.765 536.312 536.312 0 0 0 2.904-3.451Zm-9.143 10.687a1.25 1.25 0 0 1 1.766-.117l-.412.471-.412.471a619.66 619.66 0 0 1-2.991 3.386l-.297.333-.12.134-.417.467a1.251 1.251 0 0 1-.102-1.767 656.586 656.586 0 0 0 2.985-3.378Zm-9.398 10.466a1.252 1.252 0 0 1 1.769-.075l-.185.201-.238.261-.424.461a626.238 626.238 0 0 1-3.067 3.311l-.428.458-.428.457a1.253 1.253 0 0 1-.06-1.77 623.71 623.71 0 0 0 3.061-3.304Zm-9.636 10.237a1.254 1.254 0 0 1 1.771-.034l-.434.452-.434.451a682.253 682.253 0 0 1-3.148 3.244l-.438.447-.249.254-.19.194a1.253 1.253 0 0 1-.019-1.771c1.053-1.077 2.1-2.156 3.141-3.237Zm-9.866 10.008a1.254 1.254 0 0 1 1.771.007l-.444.442-.445.441-.766.758-.854.843a608.79 608.79 0 0 1-1.627 1.595l-.254.248-.194.189-.449.437a1.252 1.252 0 0 1 .022-1.77 804.447 804.447 0 0 0 3.24-3.19Zm-10.118 9.805a1.253 1.253 0 0 1 1.77.048l-.26.246-.194.185-.455.431a630.663 630.663 0 0 1-3.293 3.096l-.458.427-.459.426a1.253 1.253 0 0 1 .062-1.769 590.803 590.803 0 0 0 3.287-3.09Zm-10.324 9.553a1.253 1.253 0 0 1 1.769.088l-.464.421-.465.42a581.284 581.284 0 0 1-3.359 3.014l-.468.416-.469.416a1.253 1.253 0 0 1 .104-1.768 618.093 618.093 0 0 0 3.352-3.007Zm-10.542 9.307a1.252 1.252 0 0 1 1.766.13l-.474.41-.474.409a574.992 574.992 0 0 1-3.433 2.936l-.477.405-.479.405a1.253 1.253 0 0 1 .146-1.765c1.143-.97 2.284-1.947 3.425-2.93Zm-10.759 9.053a1.253 1.253 0 0 1 1.762.172l-.484.399-.483.397c-1.167.959-2.336 1.91-3.505 2.855l-.487.394-.488.393a1.253 1.253 0 0 1 .188-1.761 633.22 633.22 0 0 0 3.497-2.849Zm-10.975 8.789a1.253 1.253 0 0 1 1.758.215l-.493.387-.494.385c-1.191.93-2.383 1.854-3.576 2.77l-.497.381-.363.278-.134.103a1.253 1.253 0 0 1 .231-1.756c1.19-.914 2.38-1.835 3.568-2.763ZM304.742 405a1.252 1.252 0 0 1 1.751.259l-.502.374-.503.373a506.116 506.116 0 0 1-3.647 2.679l-.506.369-.507.368a1.252 1.252 0 0 1 .276-1.749 572.11 572.11 0 0 0 3.638-2.673Zm-11.402 8.223a1.252 1.252 0 0 1 1.744.305l-.512.36-.512.361c-1.239.868-2.478 1.73-3.716 2.583l-.214.147-.302.208-.517.355a1.255 1.255 0 0 1 .322-1.742c1.236-.851 2.472-1.71 3.707-2.577Zm-11.614 7.919a1.252 1.252 0 0 1 1.735.351l-.521.347-.522.346a480.362 480.362 0 0 1-3.785 2.482l-.525.341-.269.174-.257.166a1.253 1.253 0 0 1 .369-1.732 507.61 507.61 0 0 0 3.775-2.475Zm-11.826 7.596a1.254 1.254 0 0 1 1.725.4l-.531.332-.532.332c-1.284.799-2.568 1.59-3.851 2.373l-.535.325-.535.326a1.254 1.254 0 0 1 .418-1.721c1.28-.78 2.56-1.569 3.841-2.367Zm-12.038 7.254a1.254 1.254 0 0 1 1.713.45l-.541.317-.541.315a466.363 466.363 0 0 1-3.916 2.256l-.544.31-.545.309a1.252 1.252 0 0 1 .469-1.707 448.466 448.466 0 0 0 3.905-2.25Zm-12.248 6.887a1.252 1.252 0 0 1 1.698.503l-.551.299-.284.155-.266.144a469.77 469.77 0 0 1-3.979 2.13l-.554.292-.318.168-.236.123a1.253 1.253 0 0 1 .523-1.691 440.005 440.005 0 0 0 3.967-2.123Zm-12.458 6.491a1.253 1.253 0 0 1 1.68.558l-.559.282-.56.28a418.013 418.013 0 0 1-4.602 2.266l-.563.272a1.25 1.25 0 0 1 .579-1.672 404.32 404.32 0 0 0 4.025-1.986Zm-12.664 6.061a1.253 1.253 0 0 1 1.659.617l-.569.262-.57.261a387.82 387.82 0 0 1-4.116 1.852l-.573.253-.573.252a1.253 1.253 0 0 1 .639-1.651 356.568 356.568 0 0 0 4.103-1.846Zm-12.867 5.592a1.252 1.252 0 0 1 1.634.679c-.193.081-.385.161-.578.24l-.579.239a344.11 344.11 0 0 1-4.212 1.704l-.582.23-.583.23a1.253 1.253 0 0 1 .703-1.625 326.433 326.433 0 0 0 4.197-1.697Zm-13.074 5.078a1.253 1.253 0 0 1 1.606.745l-.588.216-.332.122-.257.094a318.717 318.717 0 0 1-4.301 1.533l-.592.205-.592.205a1.253 1.253 0 0 1 .772-1.593 316.209 316.209 0 0 0 4.284-1.527Zm-13.312 4.516a1.253 1.253 0 0 1 1.57.818l-.597.189-.32.101-.278.087a287.78 287.78 0 0 1-4.341 1.325l-.351.104-.249.073-.339.1-.262.076a1.252 1.252 0 0 1 .845-1.554c1.436-.426 2.877-.865 4.322-1.319Zm-13.492 3.866a1.253 1.253 0 0 1 1.526.896l-.606.159-.606.158a257.84 257.84 0 0 1-4.368 1.09l-.609.145-.61.144a1.252 1.252 0 0 1 .926-1.507c1.443-.347 2.892-.708 4.347-1.085Zm-13.646 3.127a1.252 1.252 0 0 1 1.472.981l-.613.125-.615.123a222.944 222.944 0 0 1-5.079.949l-.321.056-.296.051a1.252 1.252 0 0 1 1.015-1.449 229.17 229.17 0 0 0 4.437-.836Zm-13.819 2.289a1.253 1.253 0 0 1 1.405 1.075l-.621.085-.621.082a193.399 193.399 0 0 1-5.135.606l-.623.064a1.252 1.252 0 0 1 1.111-1.375c1.485-.16 2.98-.339 4.484-.537Zm-13.943 1.31a1.252 1.252 0 0 1 1.319 1.178l-.625.037-.626.036c-1.512.082-3.014.145-4.505.186l-.626.016-.185.004-.441.01a1.251 1.251 0 0 1 1.217-1.282c1.48-.041 2.97-.103 4.472-.185Zm-13.953.159c.689.024 1.23.601 1.209 1.29l-.626-.018a32.313 32.313 0 0 1-.316-.01 142.783 142.783 0 0 1-5.48-.282l-.367-.027-.258-.019a1.253 1.253 0 0 1 1.333-1.161c1.488.099 2.989.175 4.505.227Zm-13.913-1.197a1.254 1.254 0 0 1 1.066 1.41l-.621-.083-.384-.053-.237-.033a118.732 118.732 0 0 1-5.701-.947 1.253 1.253 0 0 1 1.454-1.004c1.457.263 2.932.5 4.423.71Zm-13.641-2.786c.665.181 1.058.866.88 1.531a714.73 714.73 0 0 1-.605-.16 100.3 100.3 0 0 1-6.124-1.84 1.254 1.254 0 0 1 1.574-.801c1.405.453 2.83.876 4.275 1.27Zm-13.09-4.608c.631.278.92 1.012.646 1.643l-.332-.141-.243-.105-.575-.25a86.296 86.296 0 0 1-5.222-2.508 1.253 1.253 0 0 1 1.679-.546 84.768 84.768 0 0 0 4.048 1.907Zm-12.184-6.612c.575.379.735 1.15.361 1.727a58.86 58.86 0 0 1-.526-.339c-.176-.113-.35-.228-.525-.342a78.992 78.992 0 0 1-4.708-3.359 1.252 1.252 0 0 1 1.747-.248 78.177 78.177 0 0 0 3.651 2.561Zm-10.823-8.627c.497.476.517 1.264.045 1.764a92.562 92.562 0 0 1-.911-.859 78.317 78.317 0 0 1-4.034-4.166 1.254 1.254 0 0 1 1.763.073 74.696 74.696 0 0 0 3.137 3.188Zm-9.088-10.455a1.253 1.253 0 0 1-.275 1.743 125.161 125.161 0 0 1-.74-1.011 78.59 78.59 0 0 1-3.208-4.813 1.252 1.252 0 0 1 1.721.389 77.587 77.587 0 0 0 2.502 3.692Zm-7.076-11.903c.3.62.043 1.366-.574 1.67a112.442 112.442 0 0 1-.554-1.124 87.137 87.137 0 0 1-2.348-5.296 1.253 1.253 0 0 1 1.633.672 84.954 84.954 0 0 0 1.843 4.078Zm-5.04-12.944c.2.659-.17 1.356-.826 1.561a90.67 90.67 0 0 1-.373-1.196 100.379 100.379 0 0 1-1.519-5.565 1.254 1.254 0 0 1 1.517.905 99.056 99.056 0 0 0 1.2 4.295Zm-3.13-13.545a1.253 1.253 0 0 1-1.027 1.438 104.208 104.208 0 0 1-.21-1.235 118.497 118.497 0 0 1-.795-5.725 1.253 1.253 0 0 1 1.392 1.089c.187 1.494.4 2.972.64 4.433Zm-1.46-13.856a1.253 1.253 0 0 1-1.181 1.314 123.73 123.73 0 0 1-.07-1.25 141.236 141.236 0 0 1-.173-5.801c.689-.01 1.257.539 1.27 1.229.028 1.516.08 3.019.155 4.508Zm-.028-13.988a1.254 1.254 0 0 1-1.302 1.197 156.239 156.239 0 0 1 .05-1.252 167.662 167.662 0 0 1 .351-5.751 1.253 1.253 0 0 1 1.157 1.338 165.55 165.55 0 0 0-.256 4.468Zm1.18-13.914a1.252 1.252 0 0 1-1.394 1.089 193.397 193.397 0 0 1 .95-6.985 1.252 1.252 0 0 1 1.052 1.421 194.622 194.622 0 0 0-.608 4.475Zm2.21-13.832a1.252 1.252 0 0 1-1.464.991 189.94 189.94 0 0 1 .235-1.23c.287-1.476.59-2.959.911-4.449l.133-.612.135-.612c.674.148 1.103.813.957 1.488a225.826 225.826 0 0 0-.906 4.424Zm3.098-13.689a1.253 1.253 0 0 1-1.523.902l.154-.607.155-.607a257.972 257.972 0 0 1 1.496-5.557c.665.185 1.055.874.871 1.54-.4 1.449-.784 2.892-1.153 4.329Zm3.847-13.458a1.252 1.252 0 0 1-1.568.821l.186-.598.187-.598a291.187 291.187 0 0 1 1.79-5.507c.655.218 1.01.926.792 1.582a288.642 288.642 0 0 0-1.387 4.3Zm4.52-13.278a1.254 1.254 0 0 1-1.605.746 161.338 161.338 0 0 1 .43-1.177 317.57 317.57 0 0 1 1.825-4.862l.226-.584c.644.248.967.971.72 1.617a320.185 320.185 0 0 0-1.596 4.26Zm5.117-13.082a1.253 1.253 0 0 1-1.635.677 353.6 353.6 0 0 1 .365-.885l.113-.273a351.244 351.244 0 0 1 2.019-4.758l.25-.575c.633.274.926 1.011.652 1.645-.6 1.393-1.188 2.783-1.764 4.169Zm5.65-12.872a1.252 1.252 0 0 1-1.661.613l.19-.415.071-.154.262-.569c.629-1.36 1.268-2.722 1.918-4.087l.27-.565.27-.565c.624.298.888 1.045.59 1.669a383.113 383.113 0 0 0-1.91 4.073Zm6.124-12.646a1.253 1.253 0 0 1-1.682.553l.282-.56.282-.559a416.2 416.2 0 0 1 2.056-4.005l.29-.556.29-.555c.613.32.85 1.076.532 1.689a413.703 413.703 0 0 0-2.05 3.993Zm6.552-12.413a1.253 1.253 0 0 1-1.7.496l.301-.55.301-.549a445.526 445.526 0 0 1 2.193-3.944l.171-.304.137-.242.308-.545c.602.34.815 1.103.476 1.705a429.338 429.338 0 0 0-2.187 3.933Zm6.956-12.201a1.252 1.252 0 0 1-1.714.442l.317-.539.319-.54a471.882 471.882 0 0 1 2.318-3.879l.324-.536.325-.536c.591.358.78 1.128.423 1.719a486.74 486.74 0 0 0-2.312 3.869Zm7.33-11.986a1.253 1.253 0 0 1-1.728.391 150.054 150.054 0 0 1 .668-1.06 476.075 476.075 0 0 1 2.434-3.813l.34-.526.34-.526c.581.376.748 1.15.373 1.731a492.057 492.057 0 0 0-2.428 3.803Zm7.676-11.771a1.252 1.252 0 0 1-1.738.341l.349-.52.24-.359.11-.161a509.314 509.314 0 0 1 3.25-4.777c.57.392.715 1.171.324 1.741a510 510 0 0 0-2.535 3.735Zm8.002-11.556a1.252 1.252 0 0 1-1.746.294l.363-.511.363-.51a521.706 521.706 0 0 1 3.01-4.181l.37-.506c.558.406.683 1.189.276 1.749a522.447 522.447 0 0 0-2.636 3.665Zm8.31-11.339c-.416.552-1.2.663-1.753.248l.376-.501.254-.339.122-.162a580.593 580.593 0 0 1 2.737-3.603l.381-.497.382-.497c.548.421.652 1.207.232 1.756a541.398 541.398 0 0 0-2.731 3.595Zm8.601-11.123a1.252 1.252 0 0 1-1.759.203l.389-.491.389-.491a559.775 559.775 0 0 1 2.826-3.531l.393-.487.395-.487c.537.435.621 1.223.187 1.761a557.327 557.327 0 0 0-2.82 3.523Zm8.879-10.905a1.254 1.254 0 0 1-1.764.16l.401-.482.401-.481a538.512 538.512 0 0 1 2.91-3.458l.194-.229.212-.249.406-.477c.526.448.591 1.238.144 1.765a536.312 536.312 0 0 0-2.904 3.451Zm9.143-10.686a1.253 1.253 0 0 1-1.767.117l.22-.251.192-.221.254-.29.159-.181c.991-1.13 1.987-2.259 2.991-3.385l.286-.322.131-.146.417-.467c.516.46.561 1.251.101 1.768a546.496 546.496 0 0 0-2.984 3.378Zm9.398-10.467a1.252 1.252 0 0 1-1.769.075l.423-.461.424-.462a586.55 586.55 0 0 1 3.495-3.768l.428-.458c.505.473.532 1.265.06 1.77a584.184 584.184 0 0 0-3.061 3.304Zm9.635-10.237a1.252 1.252 0 0 1-1.77.034l.434-.452.434-.451a597.462 597.462 0 0 1 3.148-3.243l.438-.448.439-.447c.493.483.502 1.276.019 1.77a595.213 595.213 0 0 0-3.142 3.237Zm9.866-10.008a1.251 1.251 0 0 1-1.77-.007l.444-.442.444-.441c.539-.534 1.079-1.068 1.621-1.601l1.626-1.595.449-.437.448-.437a1.253 1.253 0 0 1-.021 1.771 486.056 486.056 0 0 0-3.241 3.189Zm10.119-9.805a1.253 1.253 0 0 1-1.77-.047l.454-.432.454-.431a592.968 592.968 0 0 1 3.294-3.095l.458-.428.459-.426a1.253 1.253 0 0 1-.063 1.77 588.192 588.192 0 0 0-3.286 3.089Zm10.323-9.552a1.252 1.252 0 0 1-1.768-.089l.464-.42.464-.421a621.005 621.005 0 0 1 3.36-3.014l.468-.416.468-.416c.46.517.413 1.308-.103 1.768a579.07 579.07 0 0 0-3.353 3.008Zm10.543-9.308a1.252 1.252 0 0 1-1.766-.13l.474-.409.474-.41a608.27 608.27 0 0 1 3.432-2.936l.478-.405.337-.285.141-.12a1.253 1.253 0 0 1-.145 1.765c-1.143.97-2.285 1.947-3.425 2.93Zm10.759-9.053a1.252 1.252 0 0 1-1.762-.172l.483-.398.484-.398c1.167-.958 2.335-1.91 3.505-2.855l.487-.393.488-.393c.434.538.35 1.326-.188 1.76a593.807 593.807 0 0 0-3.497 2.849Zm10.974-8.789a1.252 1.252 0 0 1-1.757-.215l.234-.183.259-.203.205-.16.288-.226c1.192-.93 2.384-1.853 3.576-2.77l.497-.38.498-.381c.42.548.317 1.334-.232 1.755-1.19.914-2.379 1.835-3.568 2.763Zm11.189-8.512a1.253 1.253 0 0 1-1.752-.26l.503-.374.503-.373a548.614 548.614 0 0 1 4.66-3.415c.406.559.283 1.342-.276 1.749a549.726 549.726 0 0 0-3.638 2.673Zm11.401-8.224a1.253 1.253 0 0 1-1.744-.305l.256-.18.256-.18a533.292 533.292 0 0 1 5.261-3.653c.392.57.248 1.349-.321 1.74-1.236.852-2.472 1.711-3.708 2.578Zm11.615-7.919a1.253 1.253 0 0 1-1.736-.351 785.886 785.886 0 0 1 1.044-.693 507.03 507.03 0 0 1 4.31-2.823l.526-.34c.375.58.21 1.355-.37 1.732a501.324 501.324 0 0 0-3.774 2.475Zm11.826-7.596a1.253 1.253 0 0 1-1.725-.4 513.925 513.925 0 0 1 5.984-3.687c.359.59.172 1.36-.418 1.72-1.28.78-2.561 1.57-3.841 2.367Zm12.037-7.254a1.253 1.253 0 0 1-1.712-.45l.291-.17.249-.146.541-.316a466.504 466.504 0 0 1 4.461-2.566l.545-.309c.341.601.131 1.365-.469 1.707a463.944 463.944 0 0 0-3.906 2.25Zm12.249-6.886a1.253 1.253 0 0 1-1.698-.503l.55-.3.551-.299c1.327-.72 2.653-1.429 3.978-2.13l.554-.292.555-.291a1.253 1.253 0 0 1-.523 1.691 426.945 426.945 0 0 0-3.967 2.124Zm12.457-6.491c-.618.309-1.37.059-1.68-.559l.56-.281c.187-.094.373-.188.56-.28a413.426 413.426 0 0 1 4.038-1.993l.563-.273.564-.273c.301.622.042 1.37-.579 1.673-1.34.651-2.682 1.313-4.026 1.986Zm12.665-6.062a1.252 1.252 0 0 1-1.659-.617l.569-.262.569-.26a380.99 380.99 0 0 1 5.263-2.358 1.252 1.252 0 0 1-.639 1.651c-1.365.604-2.733 1.22-4.103 1.846Zm12.867-5.592a1.253 1.253 0 0 1-1.635-.68 354.442 354.442 0 0 1 5.369-2.182l.583-.23.582-.23c.254.643-.06 1.37-.703 1.625-1.395.554-2.794 1.12-4.196 1.697Zm13.073-5.077a1.253 1.253 0 0 1-1.605-.746 348.48 348.48 0 0 1 1.176-.431 321.639 321.639 0 0 1 4.893-1.739l.592-.204a1.253 1.253 0 0 1-.771 1.593 322.703 322.703 0 0 0-4.285 1.527Zm13.312-4.517a1.252 1.252 0 0 1-1.569-.818 274.366 274.366 0 0 1 1.194-.377 288.888 288.888 0 0 1 5.543-1.678 1.252 1.252 0 0 1-.846 1.554c-1.435.426-2.876.866-4.322 1.32Zm13.493-3.866a1.253 1.253 0 0 1-1.526-.896 225.474 225.474 0 0 1 1.212-.317 257.826 257.826 0 0 1 5.587-1.38 1.253 1.253 0 0 1-.927 1.508c-1.442.347-2.891.709-4.346 1.085Zm13.645-3.127a1.253 1.253 0 0 1-1.472-.981 223.522 223.522 0 0 1 6.307-1.197l.617-.107a1.252 1.252 0 0 1-1.014 1.45c-1.472.261-2.951.54-4.438.835Zm13.82-2.289a1.253 1.253 0 0 1-1.405-1.075 188.759 188.759 0 0 1 1.242-.167 195.367 195.367 0 0 1 5.758-.67 1.253 1.253 0 0 1-1.112 1.376c-1.485.16-2.979.339-4.483.536Zm13.943-1.31a1.253 1.253 0 0 1-1.319-1.177 165.717 165.717 0 0 1 5.755-.26 163.968 163.968 0 0 1 1.253-.03 1.253 1.253 0 0 1-1.218 1.283c-1.479.04-2.97.102-4.471.184Zm13.953-.159c-.69-.023-1.23-.6-1.209-1.29a148.612 148.612 0 0 1 1.252.038 141.267 141.267 0 0 1 5.795.318 1.253 1.253 0 0 1-1.333 1.161c-1.488-.1-2.99-.175-4.505-.227Zm13.913 1.197a1.253 1.253 0 0 1-1.066-1.41 130.69 130.69 0 0 1 1.241.17 118.659 118.659 0 0 1 5.702.946 1.253 1.253 0 0 1-1.454 1.004c-1.458-.263-2.932-.5-4.423-.71Zm13.641 2.786a1.253 1.253 0 0 1-.881-1.53 123.03 123.03 0 0 1 1.21.322 99.915 99.915 0 0 1 5.519 1.677 1.252 1.252 0 0 1-1.573.8 98.83 98.83 0 0 0-4.275-1.269Zm13.089 4.608a1.253 1.253 0 0 1-.646-1.643 87.404 87.404 0 0 1 6.372 3.004 1.252 1.252 0 0 1-1.678.546 85.472 85.472 0 0 0-4.048-1.907Zm12.185 6.613a1.253 1.253 0 0 1-.362-1.728 76.127 76.127 0 0 1 1.051.682 79.245 79.245 0 0 1 4.709 3.359 1.253 1.253 0 0 1-1.747.247 77.674 77.674 0 0 0-3.651-2.56Z" fill="url(#a)"/>
  <rect x="327.11" y="301.38" width="121.958" height="121.958" rx="60.979" transform="rotate(-180 327.11 301.38)" fill="#27272A" stroke="url(#b)" stroke-width=".5"/>
  <path fill-rule="evenodd" clip-rule="evenodd" d="m274.927 248.16-18.701-32.392H237.15l28.24 48.912 9.537-16.52Z" fill="#fff" fill-opacity=".4"/>
  <path fill-rule="evenodd" clip-rule="evenodd" d="m274.813 215.768 9.408 16.296-9.294 16.096-18.701-32.392h18.587Z" fill="#fff" fill-opacity=".7"/>
  <path d="m284.221 232.064-9.409-16.296h18.817l-9.408 16.296Z" fill="#fff"/>
  <g clip-path="url(#c)">
    <path d="M245.636 441.461c.268.268.468.553.468.951.001.806-.777 1.305-1.504.956-.293-.141-.521-.366-.748-.593-1.754-1.755-3.508-3.511-5.264-5.264-.426-.425-.442-.424-.869.001-1.788 1.785-3.575 3.573-5.362 5.36-.216.217-.436.425-.73.534-.724.267-1.424-.216-1.424-1.04-.016-.345.19-.632.459-.901 1.833-1.827 3.661-3.659 5.49-5.49.299-.3.303-.596.012-.889-1.787-1.786-3.575-3.571-5.362-5.36a3.07 3.07 0 0 1-.416-.482c-.298-.462-.241-1.039.117-1.387.362-.351.932-.397 1.388-.093.163.109.304.253.443.392 1.778 1.775 3.554 3.552 5.331 5.327.327.327.659.321.996-.017 1.809-1.807 3.62-3.614 5.427-5.423.315-.316.663-.548 1.131-.47.754.128 1.129.95.733 1.62-.115.193-.279.361-.44.522-1.794 1.8-3.585 3.605-5.397 5.389-.327.322-.338.509-.005.838 1.854 1.827 3.683 3.679 5.526 5.519Z" fill="#fff"/>
    <path d="M261.877 433.839c.297 1.332-.398 2.28-1.741 2.489a5.795 5.795 0 0 1-.863.07c-1.675.006-3.351.003-5.026.003-1.767 0-3.534-.002-5.3 0-.607 0-.679.081-.491.67.707 2.206 2.144 3.675 4.442 4.142 2.28.462 4.171-.298 5.652-2.076.636-.762 1.247-.931 1.824-.466.52.418.463 1.214-.126 1.909-2.237 2.635-5.063 3.493-8.375 2.665-3.158-.789-5.506-3.788-5.794-7.017-.353-3.941 2.438-8.185 7.17-8.663 4.191-.423 7.736 2.274 8.628 6.273v.001ZM269.741 429.727c-.216.062-.449.075-.676.09-1.773.128-2.553.946-2.678 2.72-.131 1.856-.055 3.713-.078 5.569-.017 1.34-.005 2.68-.007 4.02-.001.804-.389 1.269-1.054 1.267-.628-.001-1.054-.507-1.055-1.283-.004-2.192-.002-4.385-.002-6.577-.001-2.163.005-4.325-.004-6.487-.002-.54.088-1.004.66-1.224.501-.192.872-.077 1.337.479.192.229.338.121.507.014.8-.502 1.685-.686 2.615-.683.36.001.7.087.947.374a1.057 1.057 0 0 1-.512 1.721ZM286.057 435.552v.046c-.022 4.324-3.611 7.925-7.968 7.933-4.51.007-8.031-3.548-8.045-8.123-.013-4.299 3.564-7.811 7.888-7.9 4.204-.086 8.125 3.334 8.125 8.044Z" fill="#fff"/>
    <path d="M222.477 435.851v-.456c.028-.195.08-.39.078-.584-.01-1.282.101-2.555.27-3.824 1.048-7.822 4.335-14.568 9.769-20.27 2.304-2.417 4.93-4.437 7.823-6.111 6.65-3.847 13.822-5.314 21.438-4.636a33.96 33.96 0 0 1 11.204 2.988c7.447 3.412 13.13 8.715 16.961 15.942 3.94 7.431 5.061 15.336 3.481 23.576-1.483 7.741-5.216 14.271-11.018 19.613-3.219 2.963-6.881 5.219-10.936 6.847a34.252 34.252 0 0 1-10.421 2.39c-3.081.217-6.153.13-9.191-.446-8.388-1.591-15.409-5.599-20.921-12.123-5.419-6.416-8.257-13.856-8.453-22.275-.004-.214-.011-.426-.084-.63v-.001Zm31.723.549c1.675 0 3.351.004 5.026-.002.289-.001.579-.026.863-.07 1.343-.21 2.038-1.157 1.741-2.488-.891-3.999-4.437-6.697-8.628-6.273-4.732.478-7.523 4.722-7.17 8.663.288 3.229 2.636 6.227 5.794 7.017 3.312.828 6.139-.03 8.375-2.666.589-.694.646-1.49.126-1.909-.577-.464-1.188-.296-1.823.466-1.482 1.777-3.373 2.539-5.653 2.076-2.298-.466-3.736-1.936-4.442-4.142-.188-.589-.116-.669.491-.67 1.767-.002 3.534 0 5.3-.001v-.001Zm15.797-.993c.014 4.576 3.535 8.131 8.045 8.124 4.357-.008 7.945-3.609 7.968-7.932.026-4.734-3.907-8.177-8.125-8.091-4.325.089-7.901 3.601-7.888 7.899Zm-39.841 6.959c0 .823.7 1.307 1.424 1.04.295-.109.514-.317.731-.534 1.786-1.787 3.573-3.575 5.361-5.361.427-.425.443-.425.87 0 1.756 1.754 3.51 3.509 5.264 5.264.227.227.455.452.748.593.726.349 1.505-.151 1.504-.956 0-.398-.2-.683-.468-.951-1.843-1.84-3.673-3.692-5.526-5.519-.334-.329-.322-.516.005-.838 1.812-1.784 3.603-3.588 5.397-5.389.16-.161.325-.329.439-.522.397-.67.021-1.492-.732-1.62-.468-.079-.816.154-1.131.469-1.807 1.81-3.618 3.616-5.426 5.425-.337.336-.669.341-.996.015-1.777-1.775-3.553-3.552-5.331-5.327-.14-.139-.28-.283-.443-.392-.457-.305-1.027-.258-1.388.093-.358.348-.416.925-.116 1.387.114.177.266.333.416.483 1.785 1.788 3.574 3.573 5.361 5.36.292.292.288.588-.011.889-1.83 1.831-3.657 3.663-5.49 5.49-.269.268-.475.556-.459.901h-.003Zm33.988-6.834c0 2.192-.003 4.385.002 6.578.002.775.426 1.281 1.056 1.282.663.002 1.052-.463 1.054-1.267.003-1.34-.009-2.68.007-4.02.022-1.857-.054-3.713.077-5.57.125-1.773.905-2.592 2.679-2.719.227-.016.459-.029.676-.089a1.058 1.058 0 0 0 .512-1.722c-.248-.287-.587-.373-.948-.374-.93-.003-1.814.181-2.615.684-.169.106-.316.215-.508-.015-.465-.556-.835-.671-1.336-.479-.573.22-.662.684-.66 1.224.01 2.162.004 4.325.005 6.486l-.001.001Z" fill="#1AB4D7"/>
    <path d="M253.999 434.206c-1.689 0-3.379.002-5.068-.001-.533-.001-.591-.091-.42-.591 1.277-3.743 5.997-5.106 9.08-2.637.872.699 1.472 1.571 1.857 2.603.218.585.185.625-.425.626-1.675.002-3.349 0-5.023 0h-.001ZM272.243 435.47c-.034-3.061 2.582-5.695 5.698-5.735 3.204-.042 5.82 2.589 5.85 5.885.028 2.992-2.708 5.67-5.791 5.669-3.168-.002-5.722-2.582-5.757-5.818v-.001Zm5.786-1.909c-1.118-.002-1.992.845-1.994 1.934-.002 1.107.853 1.985 1.946 1.997a1.944 1.944 0 0 0 1.984-1.947c.008-1.119-.835-1.983-1.937-1.984h.001Z" fill="#1AB4D7"/>
  </g>
  <circle cx="258.335" cy="53.786" r="35.857" fill="#4A154B"/>
  <g clip-path="url(#d)">
    <path d="M267.766 54.731h4.663c1.821 0 3.347 1.199 3.738 2.973.267 1.212-.021 2.307-.824 3.254-.67.79-1.531 1.22-2.565 1.309a7.068 7.068 0 0 1-.611.025c-3.012 0-6.025.014-9.037-.005-1.542-.01-2.723-.705-3.434-2.082-1.052-2.04-.029-4.516 2.14-5.265.405-.14.821-.21 1.25-.21 1.56.002 3.12 0 4.68 0v.001Z" fill="#ECB22E"/>
    <path d="M257.383 63.224v4.68c0 1.804-1.234 3.351-2.997 3.72-1.208.251-2.297-.034-3.237-.837-.896-.765-1.321-1.76-1.325-2.924-.01-3.097-.006-6.195-.002-9.292.001-1.786 1.159-3.281 2.872-3.724 1.99-.514 4.064.724 4.566 2.722.082.326.125.655.125.992-.003 1.555-.002 3.109-.002 4.663Z" fill="#E01E5A"/>
    <path d="M248.88 52.827c-1.554 0-3.108-.006-4.662 0-1.89.01-3.498-1.376-3.757-3.208-.18-1.276.193-2.386 1.113-3.283a3.625 3.625 0 0 1 2.294-1.035c.244-.02.487-.027.73-.027 2.966-.001 5.932-.005 8.898 0 1.151.003 2.151.4 2.916 1.271.858.98 1.172 2.128.85 3.403-.343 1.357-1.212 2.25-2.533 2.704-.333.114-.68.173-1.034.174h-4.815Z" fill="#36C5F0"/>
    <path d="M259.286 44.334c0-1.526.004-3.05-.002-4.576-.003-.893.238-1.706.785-2.411.702-.904 1.631-1.407 2.779-1.472 1.108-.062 2.068.304 2.855 1.08a3.647 3.647 0 0 1 1.111 2.416c.035.499.024.997.025 1.495.003 2.677.003 5.354 0 8.03-.001 1.13-.376 2.106-1.196 2.902-1.262 1.225-3.363 1.37-4.774.32-1.055-.787-1.579-1.843-1.582-3.157-.004-1.542-.001-3.084-.001-4.627Z" fill="#2EB67D"/>
    <path d="M259.282 66.251c0-.629.003-1.259-.002-1.888-.002-.153.046-.208.204-.207 1.242.005 2.486-.043 3.725.014 1.56.072 2.689.867 3.318 2.297a3.704 3.704 0 0 1-.774 4.107 3.717 3.717 0 0 1-2.414 1.12c-1.864.146-3.564-1.128-3.964-2.95a3.655 3.655 0 0 1-.095-.808c.006-.561.002-1.123.002-1.684Z" fill="#ECB22E"/>
    <path d="M247.957 56.837v1.701c-.002 1.86-1.439 3.485-3.285 3.717-2.051.257-3.897-1.14-4.221-3.196-.315-1.999 1.094-3.945 3.085-4.268.259-.042.517-.063.778-.062 1.135.002 2.269 0 3.403.001.238 0 .239.002.24.235v1.872Z" fill="#E01E5A"/>
    <path d="M257.377 41.306c0 .63-.003 1.26.003 1.889.002.157-.054.206-.208.205-1.253-.005-2.507.019-3.76-.01-.899-.02-1.685-.373-2.349-.983a3.678 3.678 0 0 1-1.186-2.239c-.159-1.11.135-2.1.849-2.961a3.626 3.626 0 0 1 2.035-1.248c1.169-.264 2.231-.013 3.171.713.867.669 1.317 1.58 1.441 2.66.006.056.004.114.004.17v1.804Z" fill="#36C5F0"/>
    <path d="M268.713 50.731v-1.667c.002-1.804 1.277-3.376 3.054-3.705 1.219-.225 2.322.069 3.245.919 1.313 1.208 1.625 3.035.764 4.595-.619 1.122-1.593 1.754-2.866 1.924-.407.055-.815.026-1.223.029-.908.005-1.815.002-2.723.001-.167 0-.251-.086-.251-.258v-1.837Z" fill="#2EB67D"/>
  </g>
  <circle cx="35.608" cy="446.909" r="35.446" fill="#1C0C3C"/>
  <path d="M38.402 450.344c.175-.011.281-.025.388-.025 1.456 0 2.91-.031 4.366.011.854.025 1.712.138 2.49.562 1.1.599 1.676 1.591 2.022 2.73.421 1.4.784 2.816 1.186 4.225.32 1.127.646 2.254.99 3.376.27.885.983 1.389 1.91 1.391.316 0 .63.012.943-.002.247-.012.368.064.354.334-.017.337-.017.675 0 1.012.008.214-.096.298-.279.323a2.884 2.884 0 0 1-.382.023c-1.968 0-3.935.022-5.9-.014-.596-.011-1.198-.138-1.777-.287-1.11-.289-1.731-1.122-2.06-2.145-.408-1.268-.714-2.569-1.074-3.854-.458-1.63-.9-3.269-1.4-4.885-.259-.83-.585-1.648-1.217-2.289-.152-.154-.326-.286-.554-.48l-.006-.006ZM31.844 450.344c-.174-.011-.281-.025-.388-.025-1.456 0-2.91-.031-4.366.011-.854.025-1.712.138-2.49.562-1.1.599-1.676 1.591-2.021 2.73-.422 1.4-.785 2.816-1.187 4.225a180.14 180.14 0 0 1-.99 3.376c-.269.885-.983 1.389-1.91 1.391-.316 0-.63.012-.942-.002-.248-.012-.369.064-.355.334.017.337.017.675 0 1.012-.008.214.096.298.279.323.126.017.256.023.382.023 1.968 0 3.935.022 5.9-.014.596-.011 1.198-.138 1.777-.287 1.11-.289 1.732-1.122 2.06-2.145.408-1.268.715-2.569 1.074-3.854.459-1.63.9-3.269 1.4-4.885.259-.83.585-1.648 1.218-2.289.151-.154.326-.286.553-.48l.006-.006ZM35.206 450.257c-.838 0-1.678-.02-2.513.008-.335.012-.436-.12-.439-.413-.005-.452-.017-.905-.017-1.358-.003-1.234 0-2.468 0-3.702 0-.421.06-.483.487-.48 1.582.011 3.165.031 4.748.042.71.005.71 0 .71.739 0 1.594-.008 3.191.01 4.785.002.314-.094.393-.397.385-.86-.02-1.723-.009-2.584-.009l-.005.003ZM38.402 444.255c.175.012.281.026.388.026 1.456 0 2.91.031 4.366-.012.854-.025 1.712-.137 2.49-.562 1.1-.598 1.676-1.591 2.022-2.729.421-1.4.784-2.817 1.186-4.225.32-1.128.646-2.255.99-3.376.27-.886.983-1.389 1.91-1.392.316 0 .63-.011.943.003.247.011.368-.065.354-.335a10.166 10.166 0 0 1 0-1.012c.008-.213-.096-.298-.279-.323a2.883 2.883 0 0 0-.382-.022c-1.968 0-3.935-.023-5.9.014-.596.011-1.198.137-1.777.286-1.11.29-1.731 1.122-2.06 2.145-.408 1.268-.714 2.57-1.074 3.854-.458 1.631-.9 3.27-1.4 4.886-.259.829-.585 1.647-1.217 2.288-.152.155-.326.287-.554.481l-.006.005ZM31.844 444.255c-.174.012-.281.026-.388.026-1.456 0-2.91.031-4.366-.012-.854-.025-1.712-.137-2.49-.562-1.1-.599-1.676-1.591-2.021-2.729-.422-1.4-.785-2.817-1.187-4.225a176.59 176.59 0 0 0-.99-3.377c-.269-.885-.983-1.388-1.91-1.391-.316 0-.63-.011-.942.003-.245.014-.369-.062-.355-.332.017-.337.017-.675 0-1.012-.008-.214.099-.298.282-.323.126-.017.255-.023.382-.023 1.968 0 3.935-.022 5.9.014.596.012 1.198.138 1.777.287 1.11.29 1.731 1.122 2.06 2.145.408 1.268.714 2.569 1.074 3.854.458 1.63.9 3.269 1.4 4.886.259.829.585 1.647 1.217 2.288.152.154.326.287.554.48l.003.003Z" fill="#fff"/>
  <circle cx="469.482" cy="36.342" r="35.446" fill="#635BFF"/>
  <g clip-path="url(#e)">
    <path d="M466.272 54.682c-.019-.113-.093-.144-.198-.15-2.833-.182-5.523-.935-8.13-2.026-.127-.053-.167-.13-.167-.258.003-2.994.003-5.988.005-8.981 0-.239.035-.253.256-.138a29.21 29.21 0 0 0 5.699 2.28c1.289.366 2.598.617 3.928.72 1.104.086 2.213.073 3.277-.348 1.625-.643 1.777-2.66.516-3.681-.749-.607-1.602-1.013-2.492-1.352-1.407-.538-2.833-1.031-4.23-1.593-1.325-.533-2.609-1.163-3.771-2.007-1.76-1.277-2.928-2.952-3.383-5.102-.166-.789-.269-1.584-.23-2.39.096-2.02.569-3.933 1.67-5.66.634-.992 1.46-1.797 2.395-2.503 1.514-1.143 3.239-1.794 5.063-2.233 1.109-.265 2.238-.342 3.372-.406 1.225-.067 2.443-.01 3.656.1 1.97.18 3.892.602 5.761 1.25.327.114.655.22.985.32.16.049.209.138.209.305-.008.982-.003 1.965-.003 2.948v5.995c0 .118-.061.134-.155.086l-.16-.081c-1.383-.722-2.838-1.253-4.342-1.661a23.565 23.565 0 0 0-3.598-.655c-.943-.104-1.893-.155-2.834.029-.437.086-.865.205-1.241.464a1.839 1.839 0 0 0-.489 2.506c.301.461.739.754 1.21 1.01.773.42 1.59.73 2.418 1.021 1.434.503 2.881.968 4.281 1.564 1.282.545 2.503 1.202 3.572 2.103 1.548 1.302 2.578 2.924 2.993 4.923.209 1.013.301 2.035.248 3.066-.083 1.658-.472 3.234-1.292 4.697-.912 1.631-2.199 2.88-3.804 3.81-1.599.927-3.333 1.472-5.147 1.777-.523.088-1.054.11-1.584.133-.058.003-.12-.011-.191.038.186.074.381-.006.548.082h-4.621v-.002Z" fill="#fff"/>
  </g>
  <circle cx="36.02" cy="35.857" r="35.857" fill="#F3F5F6"/>
  <g clip-path="url(#f)">
    <path d="m24.883 53.786-.003-.015.207-.003H46.12c.07 0 .138.002.207.003a.037.037 0 0 0-.002.015H24.882Z" fill="#7EBF98"/>
    <path d="m48.615 27.689-.06-.066-.754-.76c-.03-.022-.064-.041-.09-.068-1.38-1.377-2.757-2.756-4.136-4.134-.025-.025-.052-.049-.079-.073l-.003-.033c-.014-.011-.028-.022-.04-.035-.696-.694-1.391-1.39-2.086-2.085-.013-.012-.023-.027-.035-.04l-.074-.075c-.113-.11-.227-.221-.34-.334l-.92-.925-.037-.038-.624-.618-.472-.465-.003.199.002.126c0 2.34.003 4.682 0 7.023-.002.578.194 1.082.547 1.527.104.13.241.234.362.35.023.022.044.048.065.072l.039.02.015.015c.199.098.394.207.599.291.197.082.407.129.624.129l1.515-.002.066-.297-.066.297 5.985-.001Z" fill="#7DCAAA"/>
    <path d="M48.635 29.436c0-.15-.003-.299-.004-.448.001-.11.004-.22.004-.331l-.005-.948-7.275-.001c-.08 0-.16-.01-.24-.016-.217 0-.426-.047-.624-.129-.205-.084-.4-.193-.599-.29.043.059.08.124.13.175.205.205.414.404.621.606.034.034.064.07.096.105l.485.475.326.318c.098.007.197.018.295.026-.098-.008-.197-.019-.295-.026.015.018.03.038.046.054l2.242 2.242c.017.017.036.031.054.047l.447.455.473.482.346.338.518.509c.016.018.03.038.046.054l1.72 1.72c.016.017.036.03.054.046.035.02.076.032.102.06.07.074.15.106.254.104.26-.005.519-.002.778-.002.002-.18.005-.358.004-.538l-.003-1.264.004-1.086c0-.293-.003-.586-.004-.879.001-.032.004-.065.004-.098v-1.76Z" fill="#009E56"/>
    <path d="M47.496 34.899c.034.02.076.032.102.06.07.075.15.106.254.104.26-.005.519-.002.778-.002v.937c-.037-.022-.08-.039-.111-.069-.141-.136-.277-.278-.418-.415-.18-.177-.364-.352-.546-.53-.024-.024-.04-.056-.06-.085Z" fill="#009F56"/>
    <path d="m48.63 27.709-7.275-.001c-.08 0-.16-.01-.24-.016l1.516-.002 5.985-.001.014.02Z" fill="#57BF96"/>
    <path d="M40 19.061Z" fill="#FDFEFD"/>
    <path d="m32.054 53.57 4.18-.019c.032.006.063.018.094.018 3.353 0 6.706.002 10.059-.002.252 0 .495-.075.729-.17.309-.123.582-.306.814-.544.289-.295.5-.638.614-1.04.006-.024.033-.042.05-.064a2.226 2.226 0 0 1-.428 1.019 2.513 2.513 0 0 1-.762.687c-.262.15-.544.253-.845.295-.076.01-.154.014-.232.021l-.206-.002-21.034-.001c-.069 0-.138.002-.206.003a2.364 2.364 0 0 1-1.454-.582c-.427-.36-.683-.82-.81-1.358-.018-.074-.026-.15-.038-.226.017.023.044.043.049.067.097.456.323.841.641 1.173.183.19.397.344.635.463.303.153.621.259.96.26 2.397.004 4.794.002 7.19.002Z" fill="#009F56"/>
    <path d="m29.088 38.519-.005-.034c.001-.036.005-.071.005-.107V36.09c.004-.032.01-.064.01-.096l.003-.536.09-.001h12.423l.495-.002V45.16l-.002 2.1c-.564 0-1.129 0-1.693.002l-.125.003-.072-.003h-5.695c-.024 0-.047.002-.071.003l-.108-.003h-5.134l-.108-.003-.002-.126v-8.5c0-.038-.007-.076-.01-.115Zm5.688 7.105c.006-.015.016-.031.016-.047l-.002-1.972c-.027-.007-.054-.019-.082-.019h-3.904c-.028 0-.056.01-.084.016l-.004 1.571c0 .15.003.299.005.448.027.006.055.018.082.018h3.888c.028 0 .057-.01.085-.015Zm1.643-.003c.027.006.054.018.082.018h3.904c.027 0 .054-.012.082-.018.001-.032.004-.066.004-.098v-1.577c0-.114-.003-.228-.005-.342-.033-.006-.066-.018-.1-.018h-3.842c-.032 0-.064.006-.097.009a.023.023 0 0 0-.015.006c-.006.03-.017.06-.017.09v.853c0 .359.002.718.004 1.076Zm0-3.262c.027.007.054.018.081.018h3.906c.027 0 .054-.011.08-.017v-2.023h-3.972c-.028 0-.054.002-.082.004-.005.03-.017.06-.017.09v.996c0 .31.003.621.004.932Zm-1.63 0c0-.008.003-.017.003-.026v-1.937c0-.018-.011-.035-.018-.053l-1.296-.002c-.018-.001-.036-.004-.054-.004H30.716v1.365c0 .22.003.439.005.657.027.007.054.018.081.018h3.905c.027 0 .055-.012.082-.018Zm5.698-3.261v-1.424l.006-.575-.008-.019-.054-.002h-3.935l-.063.003c-.006.027-.018.053-.018.08v1.873c0 .026.003.052.005.079l.06.003h3.936c.024 0 .048-.012.071-.018Zm-9.316-2.017h-.45v2.017c.03.006.059.017.089.017l3.88.001h.097c.003-.023.005-.034.005-.046v-1.936c0-.018-.012-.036-.018-.053-.02-.002-.041-.004-.062-.004h-3.478c-.021 0-.042.003-.063.004Z" fill="#F3F3F3"/>
    <path d="M42.108 35.458c.006.033.018.067.018.1v2.64l.003.107-.002.135c0 2.904 0 5.808-.002 8.712 0 .036-.012.072-.019.108l.002-2.1v-9.702Z" fill="#89CEB2"/>
    <path d="M39.877 27.258Z" fill="#009255"/>
    <path d="M48.634 51.228V36.926c0-.038-.002-.078-.004-.116v-.811c-.037-.023-.08-.04-.111-.07-.141-.136-.277-.277-.418-.414-.181-.178-.365-.353-.546-.53-.024-.024-.04-.057-.06-.086-.018-.015-.037-.029-.054-.046l-1.72-1.719c-.016-.017-.03-.036-.045-.055l-.518-.509-.347-.338-.472-.481-.447-.456c-.018-.015-.038-.03-.055-.046l-2.241-2.242c-.017-.017-.031-.036-.046-.055-.11-.105-.218-.211-.327-.317l-.484-.475c-.032-.035-.062-.072-.096-.105-.207-.202-.417-.401-.621-.606-.051-.051-.087-.117-.13-.176l-.015-.015a2.35 2.35 0 0 0-.039-.02c-.021-.024-.041-.05-.065-.072-.12-.117-.258-.22-.362-.35a2.392 2.392 0 0 1-.548-1.527c.004-2.342.002-4.683.002-7.024 0-.042-.002-.084-.003-.125l.003-.2c-.029-.003-.058-.01-.087-.01H35.62c-.03 0-.06.004-.089.006-.032-.002-.065-.006-.098-.006h-4.852c-1.918.001-3.835.005-5.753.007a2.451 2.451 0 0 0-2.248 2.22l-.007.125c.001.021.004.042.004.063v6.193l.002.107-.002.072v6.525l.002.071-.002.233.002 2.02-.002.063v4.29l.002.062.156.005-.155-.005-.003.063v4.344l.002.063-.002.072v6.488l.002.072-.006.361.007.161c.016.022.043.042.048.067.097.455.323.841.642 1.173.182.19.396.344.635.463.303.153.62.259.96.26 2.397.004 4.793.002 7.19.002l4.18-.018c.03.006.062.017.093.017 3.353 0 6.706.002 10.06-.001.251 0 .494-.076.728-.17.31-.124.583-.307.815-.545.288-.294.5-.638.613-1.04.007-.024.034-.042.051-.063l.006-.034.01-.056.025-.18v-.252h-.002ZM23.2 39.998c.07.001.138 0 .207-.001-.069.002-.138.002-.207.002Zm18.93-1.693c0 .045-.003.09-.003.136v8.712c0 .035-.013.071-.02.107l-1.692.003-.126.002-.072-.002h-5.694l-.072.002-.108-.002h-5.134l-.108-.003c-.006-.033-.019-.066-.019-.098V43.36l-.003-.117a8.9 8.9 0 0 1-.12.043l.12-.043.002-.107v-4.501c0-.038.005-.077.008-.116l-.006-.033c.002-.036.005-.072.005-.108v-2.287c0-.21-.003-.421-.004-.632.03-.006.06-.018.09-.018l.935-.003.08.002h7.334l.081-.002.649.002 3.754.001c.034 0 .069.01.103.015l-.001.002c.006.033.017.067.017.1l.001 2.64.003.107c.013-.012.029-.022.041-.034l-.041.034Z" fill="#00A961"/>
    <path d="m30.108 35.438.081.002h7.334l.081-.002.648.002h3.755c.034 0 .068.01.102.016l-.495.002H29.192l-.09.001a.054.054 0 0 0-.018 0c.03-.006.06-.018.09-.018l.934-.003Z" fill="#57BF96"/>
    <path d="M29.083 35.459a.06.06 0 0 1 .018 0c0 .179-.001.357-.003.536 0 .032-.006.064-.01.096l-.005-.632ZM29.088 38.519c.004.038.01.076.01.115l.001 8.5.002.126c-.007-.033-.02-.066-.02-.099v-3.8c0-.04-.002-.079-.003-.118l.003-.108v-4.5c0-.039.005-.078.007-.116Z" fill="#89CEB2"/>
    <path d="m34.775 37.081-.063-.003h-3.478l-.063.003c-.06.058-.118.12-.183.172-.086.066-.178.125-.267.187v1.658c1.319 0 2.638 0 3.958.002.072 0 .098-.015.098-.093-.004-.642-.002-1.284-.002-1.926ZM39.514 42.359l.973.001V40.337h-3.973c-.028 0-.054.003-.081.004l.002 2.018h3.079ZM34.656 43.604l-3.936-.002-.004 1.571c0 .15.003.3.005.449h2.504l.108-.003c.017-.02.03-.043.05-.057.386-.292.774-.583 1.162-.873.075-.057.152-.11.229-.166v-.916l-.118-.003ZM40.486 43.605c-.678 0-1.357 0-2.035.002l-1.888-.004c-.039 0-.077-.005-.116-.008a.023.023 0 0 0-.015.006c0 .673.002 1.346.003 2.018h.106l.72.003h3.225c.002-.033.005-.066.005-.099v-1.577c0-.114-.003-.228-.005-.342ZM33.395 40.433c.028-.03.054-.062.083-.091-.018-.002-.036-.005-.054-.005H30.716V41.703l.005.657.072-.002 3.503.002.477-.001.002-2.016-1.297-.001-.083.09ZM40.487 39.098v-1.423l.006-.576-.008-.018c-.018-.001-.035-.003-.053-.003h-3.936l-.063.003v2.017h4.054Z" fill="#00A961"/>
    <path d="M39.586 39.098h.901c-.024.006-.047.018-.071.018H36.48l-.061-.003c-.002-.027-.006-.053-.006-.078l.001-1.874c0-.026.012-.053.018-.08v2.017h3.153Z" fill="#00A961"/>
    <path d="M30.72 39.098c1.32 0 2.64 0 3.959.002.071 0 .098-.015.097-.093-.003-.642-.002-1.284-.002-1.926.006.018.018.036.018.053v1.937c0 .011-.002.023-.005.046H30.81c-.03 0-.06-.013-.09-.019Z" fill="#00B47B"/>
    <path d="M31.171 37.081c-.06.058-.118.12-.184.172-.085.066-.177.125-.266.187v-.359h.45Z" fill="#00A75C"/>
    <path d="m30.72 42.36.073-.002 3.502.002.478-.001a.14.14 0 0 0 .016 0c-.027.007-.055.018-.082.018h-3.905c-.027 0-.054-.011-.081-.017ZM39.514 42.358l.972.002c-.027.006-.054.017-.08.017H36.5c-.027 0-.054-.011-.081-.017.005 0 .01 0 .016-.002h3.079Z" fill="#2AB785"/>
    <path d="m34.773 43.606-.117-.003-3.936-.001c.027-.006.055-.016.083-.016h3.905c.027 0 .054.013.082.02h-.017Z" fill="#7DCAAA"/>
    <path d="M36.435 45.62h.106l.72.002h3.225c-.027.005-.054.017-.081.017H36.5c-.027 0-.054-.012-.081-.018.005 0 .01 0 .016-.002ZM30.72 45.621h2.505l.108-.002c.154 0 .306.003.46.002.326 0 .653-.003.98-.005l.003.009c-.029.005-.057.014-.085.014h-3.888c-.028 0-.055-.011-.082-.017Z" fill="#57BF96"/>
    <path d="m38.45 43.606-1.887-.003c-.039 0-.077-.005-.116-.008.033-.003.065-.009.097-.009h3.842c.034 0 .067.012.1.019l-2.035.001Z" fill="#7DCAAA"/>
    <path d="M36.435 42.358a.14.14 0 0 1-.016.002l-.004-.933v-.996c0-.03.011-.06.017-.09l.003 2.017ZM34.773 43.606h.017l.002 1.971c0 .016-.01.032-.016.048l-.002-.009v-2.01ZM36.435 45.62a.123.123 0 0 1-.016.001l-.004-1.076v-.853c0-.03.011-.06.017-.09l.003 2.017ZM34.789 42.36a.12.12 0 0 1-.016-.002l.001-2.015c.007.018.018.035.018.053v1.937l-.003.027Z" fill="#00B47B"/>
    <path d="M34.774 44.523v1.093l-.981.005-.46-.002c.017-.02.03-.043.05-.058l1.163-.873c.075-.056.152-.11.228-.165Z" fill="#00A559"/>
  </g>
  <circle cx="469.554" cy="446.909" r="35.446" fill="#F3F5F6"/>
  <circle cx="457.416" cy="459.871" r="4.482" fill="#E37400"/>
  <rect x="464.587" y="441.942" width="8.964" height="22.411" rx="4.482" fill="#E37400"/>
  <rect x="476.241" y="428.496" width="8.964" height="35.857" rx="4.482" fill="#F9AB00"/>
  <g clip-path="url(#g)">
    <rect x="45.88" y="209.766" width="54.682" height="51.993" rx="25.997" fill="#fff"/>
    <path d="M36.02 239.029v-6.434c.037-.18.092-.361.113-.543.527-4.786 1.848-9.341 4.255-13.513 6.427-11.145 16.088-17.391 28.903-18.5 6.965-.603 13.634.826 19.731 4.302 11.203 6.388 17.458 16.083 18.576 28.923.603 6.914-.8 13.542-4.228 19.611-6.37 11.28-16.085 17.577-28.983 18.711-6.889.605-13.473-.826-19.555-4.181-9.073-5.004-14.987-12.534-17.73-22.54-.526-1.917-.761-3.883-1.082-5.836Zm37.799-8.097v17.762c0 .906.061.976.936.976 3.24-.001 6.481.059 9.719-.033 7.954-.227 14.478-7.691 12.957-16.19-1.298-7.256-7.488-11.956-14.928-11.495-.49.03-.722.206-.716.716.015 1.212.015 2.424 0 3.636-.007.526.248.691.732.69.721-.004 1.44-.004 2.162.085 4.496.558 7.856 4.24 7.873 8.651.017 4.509-3.265 8.232-7.774 8.81-1.625.209-3.26.066-4.89.092-.896.016-.96-.061-.96-.947-.005-2.681-.002-5.361-.003-8.041 0-6.06.005-12.121-.005-18.181-.004-2.427-1.73-4.529-4.033-4.96-1.031-.193-1.075-.159-1.075.879v17.551l.005-.001Zm-3.986 9.717c0-5.921-.006-11.84.008-17.761.002-.624-.141-.95-.85-.943-3.263.029-6.53-.055-9.79.044-8.19.249-14.409 7.935-13.034 16.031 1.235 7.268 7.65 12.239 15.023 11.653.463-.036.675-.219.67-.688-.01-1.212-.014-2.424.003-3.637.007-.506-.202-.717-.706-.714-.744.005-1.487 0-2.233-.091-4.263-.519-7.63-4.038-7.822-8.202-.204-4.411 2.68-8.178 6.983-9.128 1.683-.372 3.39-.195 5.087-.22 1.728-.027 1.546-.065 1.547 1.551.004 8.532-.001 17.062.006 25.594.001 2.464 1.743 4.577 4.077 4.992.992.176 1.03.146 1.03-.859v-17.622Z" fill="#2CA01C"/>
  </g>
  <circle cx="452.861" cy="235.762" r="35.857" fill="#FF5C35"/>
  <path d="M440.235 217.833c.562.16 1.117.339 1.585.705 1.186.926 1.684 2.141 1.48 3.627-.038.276.035.432.238.591 3.055 2.373 6.107 4.752 9.16 7.129.653.508 1.31 1.011 1.958 1.526.162.13.279.144.454.01a9.041 9.041 0 0 1 3.864-1.71c.195-.037.281-.136.28-.331-.002-1.236-.004-2.471.003-3.707.001-.214-.127-.301-.281-.399-1.764-1.128-2.155-3.402-.818-5.011.896-1.078 2.096-1.42 3.437-1.072 1.353.351 2.196 1.262 2.422 2.649.239 1.465-.292 2.629-1.55 3.436-.189.122-.272.253-.27.478.008 1.177.01 2.355 0 3.532-.003.28.112.38.375.435 4.024.828 7.005 4.092 7.457 8.15.557 5.005-3.08 9.648-8.047 10.268-2.401.3-4.611-.218-6.6-1.604-.247-.172-.375-.152-.577.054a207.73 207.73 0 0 1-2.892 2.895c-.186.183-.239.349-.192.612.211 1.199-.189 2.2-1.139 2.934-.965.747-2.056.865-3.16.332-1.083-.522-1.704-1.41-1.738-2.626-.057-2.05 1.639-3.473 3.665-3.105.168.031.286.007.406-.114 1.027-1.033 2.054-2.067 3.093-3.088.201-.197.114-.336.002-.511a9.206 9.206 0 0 1-1.49-5.131 9.017 9.017 0 0 1 1.345-4.716c.151-.248.156-.379-.089-.569-3.639-2.82-7.27-5.649-10.899-8.48-.161-.125-.295-.184-.503-.083-2.39 1.157-5.07-.5-5.335-2.952-.006-.057-.033-.111-.05-.166v-.49c.119-.691.298-1.357.713-1.94.602-.848 1.448-1.312 2.434-1.558h1.259Zm20.511 16.303c-2.637-.002-4.757 2.091-4.764 4.705a4.744 4.744 0 0 0 4.757 4.793 4.736 4.736 0 0 0 4.739-4.733c.004-2.66-2.084-4.763-4.732-4.765Z" fill="#fff"/>
  <defs>
    <clipPath id="c">
      <path fill="#fff" transform="translate(222.478 399.81)" d="M0 0h71.715v71.624H0z"/>
    </clipPath>
    <clipPath id="d">
      <path fill="#fff" transform="translate(240.407 35.857)" d="M0 0h35.857v35.854H0z"/>
    </clipPath>
    <clipPath id="e">
      <path fill="#fff" transform="translate(457.344 18.825)" d="M0 0h25.034v35.857H0z"/>
    </clipPath>
    <clipPath id="f">
      <path fill="#fff" transform="translate(22.573 17.929)" d="M0 0h26.062v35.857H0z"/>
    </clipPath>
    <clipPath id="g">
      <path fill="#fff" transform="translate(36.02 199.905)" d="M0 0h71.715v71.816H0z"/>
    </clipPath>
    <linearGradient id="a" x1="286.602" y1="4.369" x2="286.602" y2="484.992" gradientUnits="userSpaceOnUse">
      <stop offset="0%" stop-color="#BDF0FF">
        <animate attributeName="offset" values="1;.9;.6;.4;.1;0;.1;.4;.6;.9;1" dur="10s" repeatCount="indefinite"/>
      </stop>
      <stop offset="100%" stop-color="#555">
        <animate attributeName="offset" values="1;.9;.6;.4;.1;0;.1;.4;.6;.9;1" dur="10s" repeatCount="indefinite"/>
      </stop>
    </linearGradient>
    <linearGradient id="b" x1="388.589" y1="301.63" x2="388.589" y2="424.088" gradientUnits="userSpaceOnUse">
      <stop stop-color="#333"/>
      <stop offset="1" stop-color="#fff" stop-opacity=".56"/>
    </linearGradient>
  </defs>
</svg>