<svg xmlns="http://www.w3.org/2000/svg" fill="none" viewBox="0 0 294 207">
  <path stroke="#71717A" stroke-dasharray="4 4" d="M65.49 27.847h-35c-16.568 0-30 13.432-30 30v71.611">
    <animate attributeName="stroke-dashoffset" dur="2s" repeatCount="indefinite" values="40;0"/>
  </path>
  <path stroke="#71717A" stroke-dasharray="4 4" d="M65.49 104.542h-35c-16.568 0-30 13.432-30 30v71.611">
    <animate attributeName="stroke-dashoffset" dur="2s" repeatCount="indefinite" values="40;0"/>
  </path>
  <rect width="237" height="63" x="25.036" y="81" fill="#18181B" rx="5"/>
  <path fill="#fff" d="M83.46 117.16c-1.776 0-3.232-.592-4.576-1.792l.784-.928c1.168 1.056 2.288 1.584 3.84 1.584 1.504 0 2.496-.8 2.496-1.904v-.032c0-1.04-.56-1.632-2.912-2.128-2.576-.56-3.76-1.392-3.76-3.232v-.032c0-1.76 1.552-3.056 3.68-3.056 1.632 0 2.8.464 3.936 1.376l-.736.976c-1.04-.848-2.08-1.216-3.232-1.216-1.456 0-2.384.8-2.384 1.808v.032c0 1.056.576 1.648 3.04 2.176 2.496.544 3.648 1.456 3.648 3.168v.032c0 1.92-1.6 3.168-3.824 3.168Zm6.922-3.792c.176 1.744 1.456 2.752 2.912 2.752 1.136 0 1.936-.464 2.608-1.168l.768.688c-.832.928-1.84 1.552-3.408 1.552-2.272 0-4.128-1.744-4.128-4.32 0-2.4 1.68-4.32 3.968-4.32 2.448 0 3.856 1.952 3.856 4.384 0 .112 0 .24-.016.432h-6.56Zm0-.992h5.328c-.144-1.504-1.008-2.784-2.64-2.784-1.424 0-2.512 1.184-2.688 2.784Zm12.397 7.216c-1.376 0-2.656-.384-3.76-1.152l.56-.96c.944.688 2 1.056 3.184 1.056 1.824 0 3.008-1.008 3.008-2.944v-.976c-.72.96-1.728 1.744-3.248 1.744-1.984 0-3.888-1.488-3.888-3.872v-.032c0-2.416 1.92-3.904 3.888-3.904 1.552 0 2.56.768 3.232 1.664v-1.488h1.232v6.832c0 1.28-.384 2.256-1.056 2.928-.736.736-1.84 1.104-3.152 1.104Zm-.016-4.32c1.568 0 3.04-1.136 3.04-2.8v-.032c0-1.696-1.472-2.8-3.04-2.8s-2.864 1.088-2.864 2.784v.032c0 1.664 1.328 2.816 2.864 2.816ZM109.74 117v-8.272h1.232v1.392c.544-.816 1.28-1.568 2.672-1.568 1.344 0 2.208.72 2.656 1.648.592-.912 1.472-1.648 2.912-1.648 1.904 0 3.072 1.28 3.072 3.328V117h-1.232v-4.832c0-1.6-.8-2.496-2.144-2.496-1.248 0-2.288.928-2.288 2.56V117h-1.216v-4.864c0-1.552-.816-2.464-2.128-2.464-1.312 0-2.304 1.088-2.304 2.608V117h-1.232Zm15.955-3.632c.176 1.744 1.456 2.752 2.912 2.752 1.136 0 1.936-.464 2.608-1.168l.768.688c-.832.928-1.84 1.552-3.408 1.552-2.272 0-4.128-1.744-4.128-4.32 0-2.4 1.68-4.32 3.968-4.32 2.448 0 3.856 1.952 3.856 4.384 0 .112 0 .24-.016.432h-6.56Zm0-.992h5.328c-.144-1.504-1.008-2.784-2.64-2.784-1.424 0-2.512 1.184-2.688 2.784Zm8.732 4.624v-8.272h1.232v1.44c.544-.896 1.408-1.616 2.832-1.616 2 0 3.168 1.344 3.168 3.312V117h-1.232v-4.832c0-1.536-.832-2.496-2.288-2.496-1.424 0-2.48 1.04-2.48 2.592V117h-1.232Zm12.628.144c-1.328 0-2.336-.656-2.336-2.336v-4.992h-1.152v-1.088h1.152v-2.496h1.232v2.496h2.624v1.088h-2.624v4.832c0 1.008.56 1.376 1.392 1.376.416 0 .768-.08 1.2-.288v1.056a3.099 3.099 0 0 1-1.488.352Zm13.825.048c-3.232 0-5.616-2.544-5.616-5.76v-.032c0-3.168 2.368-5.792 5.664-5.792 2.032 0 3.248.72 4.368 1.776l-.864.928c-.944-.896-2-1.536-3.52-1.536-2.48 0-4.336 2.016-4.336 4.592v.032c0 2.592 1.872 4.624 4.336 4.624 1.536 0 2.544-.592 3.616-1.616l.832.816c-1.168 1.184-2.448 1.968-4.48 1.968Zm10.105 0c-2.48 0-4.288-1.952-4.288-4.288v-.032c0-2.336 1.824-4.32 4.32-4.32 2.48 0 4.304 1.952 4.304 4.288v.032c0 2.336-1.84 4.32-4.336 4.32Zm.032-1.104c1.792 0 3.04-1.44 3.04-3.184v-.032c0-1.776-1.328-3.232-3.072-3.232-1.792 0-3.024 1.456-3.024 3.2v.032c0 1.776 1.312 3.216 3.056 3.216Zm6.535.912v-8.272h1.232v1.392c.544-.816 1.28-1.568 2.672-1.568 1.344 0 2.208.72 2.656 1.648.592-.912 1.472-1.648 2.912-1.648 1.904 0 3.072 1.28 3.072 3.328V117h-1.232v-4.832c0-1.6-.8-2.496-2.144-2.496-1.248 0-2.288.928-2.288 2.56V117h-1.216v-4.864c0-1.552-.816-2.464-2.128-2.464-1.312 0-2.304 1.088-2.304 2.608V117h-1.232Zm15.219 2.56v-10.832h1.232v1.664c.672-.992 1.648-1.84 3.168-1.84 1.984 0 3.952 1.568 3.952 4.288v.032c0 2.704-1.952 4.304-3.952 4.304-1.536 0-2.528-.832-3.168-1.76v4.144h-1.232Zm4.176-3.488c1.6 0 2.912-1.184 2.912-3.184v-.032c0-1.952-1.344-3.2-2.912-3.2-1.536 0-2.992 1.296-2.992 3.184v.032c0 1.92 1.456 3.2 2.992 3.2Zm8.913 1.104c-1.552 0-3.088-.88-3.088-2.576v-.032c0-1.776 1.44-2.704 3.536-2.704 1.056 0 1.792.144 2.528.352v-.256c0-1.472-.896-2.24-2.448-2.24-.976 0-1.744.24-2.512.592l-.368-1.008c.912-.416 1.792-.704 3.008-.704 1.168 0 2.08.32 2.672.912.576.576.864 1.376.864 2.432V117h-1.216v-1.232c-.576.736-1.52 1.408-2.976 1.408Zm.24-.992c1.52 0 2.752-.912 2.752-2.224v-.768a8.504 8.504 0 0 0-2.416-.352c-1.536 0-2.416.672-2.416 1.664v.032c0 1.04.96 1.648 2.08 1.648Zm6.562.816v-8.272h1.232v1.44c.544-.896 1.408-1.616 2.832-1.616 2 0 3.168 1.344 3.168 3.312V117h-1.232v-4.832c0-1.536-.832-2.496-2.288-2.496-1.424 0-2.48 1.04-2.48 2.592V117h-1.232Zm9.891-10.08v-1.36h1.408v1.36h-1.408Zm.08 10.08v-8.272h1.232V117h-1.232Zm4.827-3.632c.176 1.744 1.456 2.752 2.912 2.752 1.136 0 1.936-.464 2.608-1.168l.768.688c-.832.928-1.84 1.552-3.408 1.552-2.272 0-4.128-1.744-4.128-4.32 0-2.4 1.68-4.32 3.968-4.32 2.448 0 3.856 1.952 3.856 4.384 0 .112 0 .24-.016.432h-6.56Zm0-.992h5.328c-.144-1.504-1.008-2.784-2.64-2.784-1.424 0-2.512 1.184-2.688 2.784Zm11.469 4.784c-1.184 0-2.496-.464-3.424-1.216l.624-.88c.896.672 1.888 1.056 2.864 1.056.992 0 1.712-.512 1.712-1.312v-.032c0-.832-.976-1.152-2.064-1.456-1.296-.368-2.736-.816-2.736-2.336v-.032c0-1.424 1.184-2.368 2.816-2.368 1.008 0 2.128.352 2.976.912l-.56.928c-.768-.496-1.648-.8-2.448-.8-.976 0-1.6.512-1.6 1.2v.032c0 .784 1.024 1.088 2.128 1.424 1.28.384 2.656.88 2.656 2.368v.032c0 1.568-1.296 2.48-2.944 2.48Z"/>
  <rect width="28.372" height="28.372" x="38.849" y="98.314" stroke="url(#a)" stroke-width="1.628" rx="7.186"/>
  <path fill="#fff" d="M0 0h18.91v18.91H0z" style="mix-blend-mode:multiply" transform="translate(43.58 103.045)"/>
  <path fill="url(#b)" d="M45.944 114.864v1.182h2.71l-3.892 3.892.836.835 3.892-3.892v2.71h1.182v-4.727h-4.728Z"/>
  <path fill="url(#c)" d="M52.445 119.591v-1.182a5.322 5.322 0 0 0 5.285-4.727h-4.694a1.18 1.18 0 0 1-1.182-1.182v-4.695a5.325 5.325 0 0 0-4.728 5.286h-1.182a6.507 6.507 0 0 1 6.5-6.5.59.59 0 0 1 .592.591v5.318h5.318a.59.59 0 0 1 .591.591 6.507 6.507 0 0 1-6.5 6.5Z"/>
  <path fill="url(#d)" d="M60.721 111.318h-5.325a1.186 1.186 0 0 1-.834-.346 1.178 1.178 0 0 1-.344-.836v-5.318a.595.595 0 0 1 .602-.591 6.506 6.506 0 0 1 6.489 6.488.594.594 0 0 1-.588.603Zm-5.322-1.182h4.695a5.331 5.331 0 0 0-4.695-4.695v4.695Z"/>
  <rect width="268.695" height="63" x="25.036" fill="#18181B" rx="5"/>
  <path fill="#fff" d="M82.62 36V24.8h4.768c1.28 0 2.288.368 2.928.992.464.48.72 1.072.72 1.792v.032c0 1.456-.896 2.208-1.776 2.592 1.328.4 2.4 1.168 2.4 2.704v.032c0 1.92-1.616 3.056-4.064 3.056H82.62Zm1.248-6.208h3.312c1.52 0 2.576-.688 2.576-2v-.032c0-1.104-.88-1.824-2.48-1.824h-3.408v3.856Zm0 5.072h3.76c1.696 0 2.752-.752 2.752-2v-.032c0-1.216-1.024-1.92-2.976-1.92h-3.536v3.952Zm10.827-2.496c.176 1.744 1.456 2.752 2.912 2.752 1.136 0 1.936-.464 2.608-1.168l.768.688c-.832.928-1.84 1.552-3.409 1.552-2.272 0-4.127-1.744-4.127-4.32 0-2.4 1.68-4.32 3.968-4.32 2.447 0 3.856 1.952 3.856 4.384 0 .112 0 .24-.016.432h-6.56Zm0-.992h5.328c-.144-1.504-1.008-2.784-2.64-2.784-1.424 0-2.512 1.184-2.688 2.784ZM103.427 36v-8.272h1.232v1.44c.544-.896 1.408-1.616 2.832-1.616 2 0 3.168 1.344 3.168 3.312V36h-1.232v-4.832c0-1.536-.832-2.496-2.288-2.496-1.424 0-2.48 1.04-2.48 2.592V36h-1.232Zm13.588.192c-2.416 0-4.24-1.968-4.24-4.288v-.032c0-2.336 1.824-4.32 4.24-4.32 1.568 0 2.544.656 3.312 1.472l-.816.864c-.656-.688-1.392-1.248-2.512-1.248-1.68 0-2.96 1.424-2.96 3.2v.032c0 1.792 1.312 3.216 3.04 3.216 1.056 0 1.872-.528 2.528-1.232l.784.736c-.832.928-1.824 1.6-3.376 1.6Zm5.412-.192V24.32h1.232v4.848c.544-.896 1.408-1.616 2.832-1.616 2 0 3.168 1.344 3.168 3.312V36h-1.232v-4.832c0-1.536-.832-2.496-2.288-2.496-1.424 0-2.48 1.04-2.48 2.592V36h-1.232Zm9.86 0v-8.272h1.232v1.392c.544-.816 1.28-1.568 2.672-1.568 1.344 0 2.208.72 2.656 1.648.592-.912 1.472-1.648 2.912-1.648 1.904 0 3.072 1.28 3.072 3.328V36h-1.232v-4.832c0-1.6-.8-2.496-2.144-2.496-1.248 0-2.288.928-2.288 2.56V36h-1.216v-4.864c0-1.552-.816-2.464-2.128-2.464-1.312 0-2.304 1.088-2.304 2.608V36h-1.232Zm17.682.176c-1.552 0-3.088-.88-3.088-2.576v-.032c0-1.776 1.44-2.704 3.536-2.704 1.056 0 1.792.144 2.528.352v-.256c0-1.472-.896-2.24-2.448-2.24-.976 0-1.744.24-2.512.592l-.368-1.008c.912-.416 1.792-.704 3.008-.704 1.168 0 2.08.32 2.672.912.576.576.864 1.376.864 2.432V36h-1.216v-1.232c-.576.736-1.52 1.408-2.976 1.408Zm.24-.992c1.52 0 2.752-.912 2.752-2.224v-.768a8.504 8.504 0 0 0-2.416-.352c-1.536 0-2.416.672-2.416 1.664v.032c0 1.04.96 1.648 2.08 1.648Zm6.562.816v-8.272h1.232v2.16c.608-1.376 1.808-2.368 3.376-2.304v1.328h-.096c-1.808 0-3.28 1.296-3.28 3.792V36h-1.232Zm6.484 0V24.32h1.232v8.064l4.464-4.656h1.536l-3.472 3.552 3.584 4.72h-1.472l-2.96-3.856-1.68 1.696V36h-1.232Zm14.115 0V24.8h4.192c2.528 0 4.192 1.344 4.192 3.552v.032c0 2.416-2.016 3.664-4.4 3.664h-2.72V36h-1.264Zm1.264-5.104h2.768c1.856 0 3.072-.992 3.072-2.464V28.4c0-1.6-1.2-2.432-3.008-2.432h-2.832v4.928Zm9.873 1.472c.176 1.744 1.456 2.752 2.912 2.752 1.136 0 1.936-.464 2.608-1.168l.768.688c-.832.928-1.84 1.552-3.408 1.552-2.272 0-4.128-1.744-4.128-4.32 0-2.4 1.68-4.32 3.968-4.32 2.448 0 3.856 1.952 3.856 4.384 0 .112 0 .24-.016.432h-6.56Zm0-.992h5.328c-.144-1.504-1.008-2.784-2.64-2.784-1.424 0-2.512 1.184-2.688 2.784ZM197.24 36v-8.272h1.232v2.16c.608-1.376 1.808-2.368 3.376-2.304v1.328h-.096c-1.808 0-3.28 1.296-3.28 3.792V36h-1.232Zm6.948 0v-7.184h-1.136v-1.072h1.136v-.72c0-.944.256-1.664.72-2.128.416-.416 1.024-.64 1.776-.64.576 0 .96.064 1.36.208v1.072c-.448-.128-.784-.208-1.2-.208-.96 0-1.44.576-1.44 1.76v.672h2.624v1.056h-2.608V36h-1.232Zm9.031.192c-2.48 0-4.288-1.952-4.288-4.288v-.032c0-2.336 1.824-4.32 4.32-4.32 2.48 0 4.304 1.952 4.304 4.288v.032c0 2.336-1.84 4.32-4.336 4.32Zm.032-1.104c1.792 0 3.04-1.44 3.04-3.184v-.032c0-1.776-1.328-3.232-3.072-3.232-1.792 0-3.024 1.456-3.024 3.2v.032c0 1.776 1.312 3.216 3.056 3.216Zm6.536.912v-8.272h1.232v2.16c.608-1.376 1.808-2.368 3.376-2.304v1.328h-.096c-1.808 0-3.28 1.296-3.28 3.792V36h-1.232Zm6.484 0v-8.272h1.232v1.392c.544-.816 1.28-1.568 2.672-1.568 1.344 0 2.208.72 2.656 1.648.592-.912 1.472-1.648 2.912-1.648 1.904 0 3.072 1.28 3.072 3.328V36h-1.232v-4.832c0-1.6-.8-2.496-2.144-2.496-1.248 0-2.288.928-2.288 2.56V36h-1.216v-4.864c0-1.552-.816-2.464-2.128-2.464-1.312 0-2.304 1.088-2.304 2.608V36h-1.232Zm17.683.176c-1.552 0-3.088-.88-3.088-2.576v-.032c0-1.776 1.44-2.704 3.536-2.704 1.056 0 1.792.144 2.528.352v-.256c0-1.472-.896-2.24-2.448-2.24-.976 0-1.744.24-2.512.592l-.368-1.008c.912-.416 1.792-.704 3.008-.704 1.168 0 2.08.32 2.672.912.576.576.864 1.376.864 2.432V36h-1.216v-1.232c-.576.736-1.52 1.408-2.976 1.408Zm.24-.992c1.52 0 2.752-.912 2.752-2.224v-.768a8.504 8.504 0 0 0-2.416-.352c-1.536 0-2.416.672-2.416 1.664v.032c0 1.04.96 1.648 2.08 1.648Zm6.561.816v-8.272h1.232v1.44c.544-.896 1.408-1.616 2.832-1.616 2 0 3.168 1.344 3.168 3.312V36h-1.232v-4.832c0-1.536-.832-2.496-2.288-2.496-1.424 0-2.48 1.04-2.48 2.592V36h-1.232Zm13.588.192c-2.416 0-4.24-1.968-4.24-4.288v-.032c0-2.336 1.824-4.32 4.24-4.32 1.568 0 2.544.656 3.312 1.472l-.816.864c-.656-.688-1.392-1.248-2.512-1.248-1.68 0-2.96 1.424-2.96 3.2v.032c0 1.792 1.312 3.216 3.04 3.216 1.056 0 1.872-.528 2.528-1.232l.784.736c-.832.928-1.824 1.6-3.376 1.6Zm5.914-3.824c.176 1.744 1.456 2.752 2.912 2.752 1.136 0 1.936-.464 2.608-1.168l.768.688c-.832.928-1.84 1.552-3.408 1.552-2.272 0-4.128-1.744-4.128-4.32 0-2.4 1.68-4.32 3.968-4.32 2.448 0 3.856 1.952 3.856 4.384 0 .112 0 .24-.016.432h-6.56Zm0-.992h5.328c-.144-1.504-1.008-2.784-2.64-2.784-1.424 0-2.512 1.184-2.688 2.784Z"/>
  <rect width="28.372" height="28.372" x="41.849" y="17.314" stroke="url(#e)" stroke-width="1.628" rx="7.186"/>
  <path fill="#fff" d="M0 0h18.91v18.91H0z" style="mix-blend-mode:multiply" transform="translate(46.58 22.045)"/>
  <path fill="url(#f)" d="M64.309 33.864a8.187 8.187 0 0 0-1.317-4.45l-.854.855a7.032 7.032 0 0 1 .989 3.595h1.182Z"/>
  <path fill="url(#g)" d="m63.127 27.608-.836-.835-5.062 5.062a2.335 2.335 0 0 0-2.507.063 2.364 2.364 0 1 0 3.677 1.966 2.336 2.336 0 0 0-.335-1.193l5.063-5.063Zm-7.091 7.438a1.182 1.182 0 1 1 0-2.364 1.182 1.182 0 0 1 0 2.364Z"/>
  <path fill="url(#h)" d="M56.036 26.773c1.265 0 2.507.342 3.594.989l.86-.86a8.26 8.26 0 0 0-12.727 6.962h1.181a7.1 7.1 0 0 1 7.092-7.091Z"/>
  <defs>
    <linearGradient id="a" x1="53.036" x2="53.036" y1="97.5" y2="127.5" gradientUnits="userSpaceOnUse">
      <stop stop-color="#4CCE94"/>
      <stop offset="1" stop-color="#4CCE94" stop-opacity=".18"/>
    </linearGradient>
    <linearGradient id="b" x1="53.036" x2="53.036" y1="104.227" y2="120.773" gradientUnits="userSpaceOnUse">
      <stop stop-color="#4CCE94"/>
      <stop offset="1" stop-color="#fff"/>
    </linearGradient>
    <linearGradient id="c" x1="53.036" x2="53.036" y1="104.227" y2="120.773" gradientUnits="userSpaceOnUse">
      <stop stop-color="#4CCE94"/>
      <stop offset="1" stop-color="#fff"/>
    </linearGradient>
    <linearGradient id="d" x1="53.036" x2="53.036" y1="104.227" y2="120.773" gradientUnits="userSpaceOnUse">
      <stop stop-color="#4CCE94"/>
      <stop offset="1" stop-color="#fff"/>
    </linearGradient>
    <linearGradient id="e" x1="56.036" x2="56.036" y1="16.5" y2="46.5" gradientUnits="userSpaceOnUse">
      <stop stop-color="#5CB7F2"/>
      <stop offset="1" stop-color="#5CB7F2" stop-opacity=".18"/>
    </linearGradient>
    <linearGradient id="f" x1="56.036" x2="56.036" y1="25.591" y2="36.227" gradientUnits="userSpaceOnUse">
      <stop stop-color="#5CB7F2"/>
      <stop offset="1" stop-color="#fff"/>
    </linearGradient>
    <linearGradient id="g" x1="56.036" x2="56.036" y1="25.591" y2="36.227" gradientUnits="userSpaceOnUse">
      <stop stop-color="#5CB7F2"/>
      <stop offset="1" stop-color="#fff"/>
    </linearGradient>
    <linearGradient id="h" x1="56.036" x2="56.036" y1="25.591" y2="36.227" gradientUnits="userSpaceOnUse">
      <stop stop-color="#5CB7F2"/>
      <stop offset="1" stop-color="#fff"/>
    </linearGradient>
  </defs>
</svg>