<svg xmlns="http://www.w3.org/2000/svg" fill="none" viewBox="0 0 398 382">
  <path fill="#A1A1AA" fill-rule="evenodd" d="M40.57 22.045a59.822 59.822 0 0 1 .727-.664.985.985 0 0 1-.058 1.386 59.812 59.812 0 0 0-2.506 2.466.985.985 0 0 1-1.387.036 57.186 57.186 0 0 1 .676-.717 60.676 60.676 0 0 1 2.547-2.507Zm6.382-3.956a.985.985 0 0 1-1.37-.216 59.43 59.43 0 0 1 .794-.582 62 62 0 0 1 3.784-2.522.985.985 0 0 1-.306 1.353 61.062 61.062 0 0 0-2.902 1.968Zm9.357-5.563a.985.985 0 0 1-1.313-.45 62.347 62.347 0 0 1 .884-.436 68.073 68.073 0 0 1 4.163-1.846.985.985 0 0 1-.529 1.284 67.27 67.27 0 0 0-3.205 1.448Zm10.176-3.962a.985.985 0 0 1-1.228-.649 75.736 75.736 0 0 1 .94-.293 78.803 78.803 0 0 1 4.375-1.194.985.985 0 0 1-.712 1.192c-1.14.292-2.266.607-3.375.944Zm10.647-2.46a.985.985 0 0 1-1.13-.807 89.535 89.535 0 0 1 .97-.165 93.298 93.298 0 0 1 4.501-.625.985.985 0 0 1-.855 1.094 92.253 92.253 0 0 0-3.486.503Zm10.893-1.147a.985.985 0 0 1-1.034-.93 106.908 106.908 0 0 1 4.56-.177 112.795 112.795 0 0 1 .984-.013.985.985 0 0 1-.967.998c-1.192.022-2.373.063-3.543.122Zm10.996-.023a.985.985 0 0 1-.94-1.023 126.67 126.67 0 0 1 5.013.278l.491.037a.984.984 0 0 1-1.051.91c-1.18-.084-2.35-.151-3.513-.202Zm10.938.928a.985.985 0 0 1-.856-1.096 142.818 142.818 0 0 1 .978.118 153.964 153.964 0 0 1 4.513.628.984.984 0 0 1-1.117.828 152.82 152.82 0 0 0-3.518-.478ZM120.833 7.6a.985.985 0 0 1-.779-1.152 157.735 157.735 0 0 1 .967.185 178.705 178.705 0 0 1 4.459.926.985.985 0 0 1-1.17.753c-1.165-.25-2.324-.488-3.477-.712Zm10.761 2.434a.985.985 0 0 1-.709-1.196 169.914 169.914 0 0 1 .954.243 202.206 202.206 0 0 1 3.894 1.043l.475.132a.986.986 0 0 1-1.211.685 200.867 200.867 0 0 0-3.403-.907Zm10.579 3.025a.984.984 0 0 1-.645-1.233l.47.146.47.147a225.786 225.786 0 0 1 3.863 1.25l.467.157a.985.985 0 0 1-1.244.623 226.466 226.466 0 0 0-3.381-1.09Zm10.439 3.553a.986.986 0 0 1-.587-1.261c.155.055.309.111.463.168l.463.169a251.22 251.22 0 0 1 4.28 1.612.984.984 0 0 1-1.271.566 250.64 250.64 0 0 0-3.348-1.254Zm10.283 4.023a.986.986 0 0 1-.532-1.286 107.508 107.508 0 0 1 .91.376 271.435 271.435 0 0 1 3.741 1.587l.452.196a.985.985 0 0 1-1.293.514 276.473 276.473 0 0 0-3.278-1.387Zm10.119 4.44a.985.985 0 0 1-.481-1.305 295.916 295.916 0 0 1 4.107 1.92 26.026 26.026 0 0 1 .444.212c.148.07.296.14.444.212a.985.985 0 0 1-1.312.464 293.52 293.52 0 0 0-3.202-1.502Zm9.942 4.815a.985.985 0 0 1-.435-1.322l.44.221.439.223c1.049.53 2.098 1.07 3.149 1.616l.437.228.436.228a.984.984 0 0 1-1.327.418 324.852 324.852 0 0 0-3.139-1.612Zm9.758 5.151a.984.984 0 0 1-.39-1.336l.2.11.232.126.265.145.167.092a345.526 345.526 0 0 1 3.958 2.208.985.985 0 0 1-1.341.374 343.523 343.523 0 0 0-3.091-1.719Zm9.591 5.468a.986.986 0 0 1-.348-1.347l.425.25.2.117.224.132c1.016.6 2.032 1.208 3.05 1.823l.421.255.421.255a.986.986 0 0 1-1.352.333 358.317 358.317 0 0 0-3.041-1.818Zm9.422 5.762a.986.986 0 0 1-.307-1.358 477.695 477.695 0 0 1 .834.525 415.91 415.91 0 0 1 3.41 2.18l.265.172.149.097a.985.985 0 0 1-1.361.292 374.15 374.15 0 0 0-2.99-1.908Zm9.254 6.034a.984.984 0 0 1-.268-1.365l.192.128.217.146.409.274c.981.66 1.962 1.326 2.943 1.998l.406.28.198.135.208.143a.986.986 0 0 1-1.369.255 422.959 422.959 0 0 0-2.936-1.994Zm9.084 6.291a.984.984 0 0 1-.231-1.372l.402.285.401.285c.963.687 1.926 1.38 2.888 2.078l.398.29.398.289a.984.984 0 0 1-1.374.218 431.122 431.122 0 0 0-2.882-2.073Zm8.914 6.533a.985.985 0 0 1-.195-1.378l.394.295.394.296c.944.712 1.889 1.429 2.832 2.152l.391.3.39.3a.985.985 0 0 1-1.38.181 404.947 404.947 0 0 0-2.826-2.146Zm8.744 6.761a.985.985 0 0 1-.16-1.382l.386.305.386.306c.926.735 1.852 1.475 2.776 2.222l.383.309.383.31a.985.985 0 0 1-1.384.147 459.25 459.25 0 0 0-2.77-2.217Zm8.573 6.98a.984.984 0 0 1-.126-1.386l.379.315.378.315c.907.757 1.813 1.52 2.719 2.288l.375.318.375.32a.984.984 0 0 1-1.387.113 482.936 482.936 0 0 0-2.713-2.283Zm8.4 7.188a.986.986 0 0 1-.092-1.39l.371.325.371.324c.888.779 1.775 1.563 2.661 2.351l.367.328.368.328a.985.985 0 0 1-1.39.08 441.52 441.52 0 0 0-2.656-2.346Zm8.228 7.387a.985.985 0 0 1-.059-1.39l.363.332.363.334c.869.798 1.736 1.602 2.603 2.41l.359.337.36.337a.985.985 0 0 1-1.391.047c-.865-.807-1.731-1.61-2.598-2.407Zm8.048 7.575a.984.984 0 0 1-.027-1.392l.355.341.355.342c.851.82 1.701 1.645 2.55 2.474l.352.345.351.345a.985.985 0 0 1-1.392.014 535.02 535.02 0 0 0-2.544-2.469Zm7.868 7.756a.984.984 0 0 1 .005-1.392l.347.349.347.349 1.258 1.274c.419.426.837.852 1.254 1.279l.344.352.343.353a.983.983 0 0 1-1.391-.017 497.453 497.453 0 0 0-2.507-2.547Zm7.707 7.954a.984.984 0 0 1 .038-1.391l.339.357.338.357c.816.862 1.627 1.725 2.434 2.589l.336.36.335.361a.985.985 0 0 1-1.391-.049 486.787 486.787 0 0 0-2.429-2.584Zm7.509 8.116a.986.986 0 0 1 .07-1.391l.331.365.33.365c.795.879 1.585 1.76 2.369 2.641l.328.368.327.368a.985.985 0 0 1-1.39-.081c-.783-.88-1.572-1.758-2.365-2.635Zm7.317 8.287a.985.985 0 0 1 .102-1.388l.322.372.322.373c.774.899 1.544 1.798 2.308 2.699l.319.375.318.376a.986.986 0 0 1-1.388-.114c-.762-.899-1.53-1.796-2.303-2.693Zm7.117 8.458a.985.985 0 0 1 .135-1.385l.313.38.313.38c.753.918 1.502 1.836 2.244 2.755l.31.383.308.384a.985.985 0 0 1-1.384-.148 457.404 457.404 0 0 0-2.239-2.749Zm6.909 8.627a.984.984 0 0 1 .169-1.381l.304.387.303.388c.731.937 1.457 1.874 2.177 2.811l.3.391.299.391a.984.984 0 0 1-1.38-.182c-.718-.935-1.442-1.87-2.172-2.805Zm6.692 8.796a.985.985 0 0 1 .204-1.377l.294.395.293.396c.708.955 1.41 1.91 2.106 2.866l.29.398.289.399a.986.986 0 0 1-1.375-.217 409.038 409.038 0 0 0-2.101-2.86Zm6.465 8.963a.984.984 0 0 1 .239-1.371l.284.402.283.403a454.565 454.565 0 0 1 2.588 3.733.983.983 0 0 1-1.368-.253 464.89 464.89 0 0 0-2.026-2.914Zm6.225 9.13a.983.983 0 0 1 .276-1.364l.273.41.272.41c.656.992 1.307 1.983 1.951 2.975l.171.263.097.15.267.414a.985.985 0 0 1-1.361-.291 418.235 418.235 0 0 0-1.946-2.967Zm5.971 9.297a.985.985 0 0 1 .315-1.356l.261.417.26.418c.629 1.01 1.251 2.019 1.866 3.027l.123.202.133.219.151.249.104.172a.985.985 0 0 1-1.352-.329 378.856 378.856 0 0 0-1.861-3.019Zm5.703 9.462a.985.985 0 0 1 .354-1.346l.248.425.248.426c.599 1.027 1.19 2.053 1.774 3.078l.243.428.243.429a.985.985 0 0 1-1.342-.369 375.895 375.895 0 0 0-1.768-3.071Zm5.413 9.629a.984.984 0 0 1 .396-1.334l.235.432.235.433a318.735 318.735 0 0 1 1.674 3.128l.23.435.229.436a.985.985 0 0 1-1.329-.411 339.777 339.777 0 0 0-1.67-3.119Zm5.103 9.793a.984.984 0 0 1 .439-1.32l.221.44.124.247.097.193c.53 1.059 1.052 2.118 1.566 3.174l.215.443.214.443a.984.984 0 0 1-1.315-.455 329.987 329.987 0 0 0-1.561-3.165Zm4.765 9.956a.985.985 0 0 1 .485-1.304 88.91 88.91 0 0 1 .411.895c.494 1.081.979 2.159 1.456 3.236l.199.45.198.451a.985.985 0 0 1-1.298-.502 282.288 282.288 0 0 0-1.451-3.226Zm4.396 10.115a.985.985 0 0 1 .534-1.285l.189.455.188.455c.455 1.106.902 2.21 1.339 3.311l.181.458.18.458a.986.986 0 0 1-1.277-.553c-.435-1.097-.88-2.196-1.334-3.299Zm3.992 10.278a.984.984 0 0 1 .586-1.262l.129.35.041.112.169.462c.412 1.131.814 2.258 1.205 3.382l.162.465.16.465a.984.984 0 0 1-1.252-.606c-.39-1.12-.79-2.243-1.2-3.368Zm3.55 10.464a.986.986 0 0 1 .643-1.234l.149.47.148.47c.358 1.141.705 2.278 1.041 3.412l.139.472.139.473a.985.985 0 0 1-1.222-.665c-.335-1.129-.68-2.261-1.037-3.398Zm3.039 10.607a.985.985 0 0 1 .705-1.2l.125.477.124.476a197.772 197.772 0 0 1 .971 3.913l.113.479a.985.985 0 0 1-1.185-.728 207.837 207.837 0 0 0-.853-3.417Zm2.458 10.727a.984.984 0 0 1 .772-1.157l.098.482.096.483a174.724 174.724 0 0 1 .83 4.478.984.984 0 0 1-1.139-.798 181.44 181.44 0 0 0-.657-3.488Zm1.8 10.864a.985.985 0 0 1 .845-1.105l.066.488.065.488c.156 1.19.298 2.372.425 3.548l.052.489.05.49a.984.984 0 0 1-1.081-.874 155.455 155.455 0 0 0-.422-3.524ZM392 299.26a.985.985 0 0 1 .926-1.037l.03.491.02.349.008.143a129.736 129.736 0 0 1 .159 4.034l.011.492a.985.985 0 0 1-1.008-.957 131.949 131.949 0 0 0-.146-3.515Zm.126 10.968a.983.983 0 0 1 1.013-.95l-.005.211-.008.281-.01.293-.006.199a115.118 115.118 0 0 1-.18 3.573l-.034.491-.036.491a.984.984 0 0 1-.913-1.047c.078-1.17.138-2.35.179-3.542Zm-.941 10.937a.985.985 0 0 1 1.108-.838l-.041.305-.024.184-.068.487a92.618 92.618 0 0 1-.564 3.514l-.052.283-.037.202-.091.483a.985.985 0 0 1-.79-1.143c.207-1.145.393-2.304.559-3.477Zm-2.191 10.724a.986.986 0 0 1 1.204-.693l-.125.477c-.043.158-.085.317-.129.475a77.967 77.967 0 0 1-1.01 3.403c-.051.156-.101.313-.153.468l-.086.26-.069.208a.986.986 0 0 1-.63-1.238c.356-1.104.688-2.224.998-3.36Zm-3.622 10.29a.985.985 0 0 1 1.292-.508 88.06 88.06 0 0 1-.296.688l-.094.216a68.624 68.624 0 0 1-1.522 3.229l-.133.263-.09.176-.227.437a.984.984 0 0 1-.429-1.319 67.092 67.092 0 0 0 1.499-3.182Zm-5.198 9.578a.985.985 0 0 1 1.358-.284l-.146.228-.12.186-.27.412a62.47 62.47 0 0 1-2.213 3.14l-.128.171-.299.391a.985.985 0 0 1-.195-1.374 61.212 61.212 0 0 0 2.013-2.87Zm-6.782 8.508a.985.985 0 0 1 1.387-.035l-.217.232-.119.127-.257.272-.082.085a60.26 60.26 0 0 1-2.548 2.507l-.362.334-.365.33a.986.986 0 0 1 .057-1.386 58.225 58.225 0 0 0 2.506-2.466Zm-8.219 7.144a.985.985 0 0 1 1.37.217l-.395.293-.132.096-.267.193a61.75 61.75 0 0 1-3.365 2.262l-.418.259a.985.985 0 0 1 .305-1.353 59.794 59.794 0 0 0 2.902-1.967Zm-9.356 5.563a.984.984 0 0 1 1.312.451l-.441.22-.442.216a68.29 68.29 0 0 1-3.253 1.47l-.454.189-.197.081-.259.105a.984.984 0 0 1 .528-1.283 66.775 66.775 0 0 0 3.206-1.449Zm-10.176 3.962a.985.985 0 0 1 1.227.65l-.47.148c-.156.048-.313.097-.47.144a77.757 77.757 0 0 1-4.375 1.195.986.986 0 0 1 .712-1.193 76.8 76.8 0 0 0 3.376-.944Zm-10.648 2.461a.985.985 0 0 1 1.131.807l-.222.038-.264.046-.485.081c-1.162.19-2.336.359-3.523.508l-.489.06-.489.057a.985.985 0 0 1 .856-1.094 93.612 93.612 0 0 0 3.485-.503Zm-10.892 1.147a.985.985 0 0 1 1.033.929l-.492.028a110.38 110.38 0 0 1-4.067.149l-.492.008-.493.006a.985.985 0 0 1 .967-.998c1.192-.022 2.373-.063 3.544-.122Zm-10.997.023a.984.984 0 0 1 .941 1.023l-.492-.019-.492-.02a135.233 135.233 0 0 1-3.539-.203l-.491-.036-.491-.037a.985.985 0 0 1 1.052-.91c1.179.084 2.35.151 3.512.202Zm-10.938-.928a.984.984 0 0 1 .856 1.095l-.488-.058-.489-.06a152.806 152.806 0 0 1-3.54-.481l-.487-.073-.25-.037-.237-.037a.986.986 0 0 1 1.118-.827c1.179.174 2.352.333 3.517.478Zm-10.874-1.738a.985.985 0 0 1 .78 1.152l-.484-.092-.483-.094c-1.16-.225-2.326-.464-3.497-.716l-.482-.104-.48-.106a.984.984 0 0 1 1.169-.753c1.165.251 2.324.489 3.477.713Zm-10.761-2.435a.987.987 0 0 1 .71 1.197l-.18-.045-.298-.076-.477-.122a209.63 209.63 0 0 1-3.419-.911l-.475-.132a83.909 83.909 0 0 1-.474-.133.985.985 0 0 1 1.21-.685c1.139.314 2.274.617 3.403.907Zm-10.579-3.024a.985.985 0 0 1 .646 1.232l-.471-.145-.47-.147c-1.128-.355-2.26-.72-3.395-1.096l-.467-.155a85.363 85.363 0 0 1-.467-.157.985.985 0 0 1 1.244-.623c1.13.375 2.257.738 3.38 1.091Zm-10.439-3.554a.985.985 0 0 1 .587 1.262l-.463-.168-.462-.169a244.622 244.622 0 0 1-3.822-1.436l-.459-.177a.985.985 0 0 1 1.271-.566c1.119.428 2.235.846 3.348 1.254Zm-10.283-4.022c.502.208.74.784.532 1.286l-.207-.086-.248-.102-.19-.079a273.334 273.334 0 0 1-3.554-1.501l-.452-.196-.452-.196a.986.986 0 0 1 1.294-.513c1.095.472 2.187.934 3.277 1.387Zm-10.119-4.441a.985.985 0 0 1 .482 1.305l-.448-.205-.447-.206c-1.069-.494-2.14-.996-3.212-1.507l-.445-.213a89.42 89.42 0 0 1-.444-.212.985.985 0 0 1 1.312-.464c1.069.509 2.137 1.01 3.202 1.502Zm-9.941-4.815a.985.985 0 0 1 .434 1.323l-.44-.222-.439-.222a348.7 348.7 0 0 1-3.149-1.616l-.437-.228-.436-.228a.985.985 0 0 1 1.328-.418c1.047.545 2.094 1.082 3.139 1.611Zm-9.758-5.151c.476.262.65.86.389 1.336a92.04 92.04 0 0 1-.432-.236l-.252-.138-.179-.098a372.515 372.515 0 0 1-3.101-1.724l-.429-.242-.428-.242a.984.984 0 0 1 1.34-.375c1.032.581 2.062 1.154 3.092 1.719Zm-9.591-5.468c.467.277.623.88.347 1.348l-.424-.25a365.672 365.672 0 0 1-3.474-2.072l-.422-.255-.42-.256a.985.985 0 0 1 1.351-.332c1.015.613 2.028 1.219 3.042 1.817Zm-9.423-5.761c.459.29.597.898.307 1.357a95.477 95.477 0 0 1-.417-.262l-.416-.263a384.55 384.55 0 0 1-2.997-1.913l-.276-.178-.138-.089-.413-.268a.985.985 0 0 1 1.36-.293 402.61 402.61 0 0 0 2.99 1.909Zm-9.254-6.035a.986.986 0 0 1 .269 1.366l-.156-.105-.253-.169-.409-.275a382.825 382.825 0 0 1-2.944-1.998l-.406-.278-.288-.199-.117-.081a.985.985 0 0 1 1.368-.254c.979.671 1.958 1.335 2.936 1.993Zm-9.084-6.291c.443.316.546.93.231 1.373l-.401-.285-.401-.286a433.126 433.126 0 0 1-2.889-2.077l-.398-.289-.398-.29a.985.985 0 0 1 1.375-.218c.96.697 1.921 1.388 2.881 2.072Zm-8.914-6.532a.985.985 0 0 1 .195 1.378l-.394-.296-.393-.296a415.032 415.032 0 0 1-2.833-2.151l-.391-.3-.39-.3a.985.985 0 0 1 1.38-.182c.942.721 1.884 1.437 2.826 2.147Zm-8.744-6.762a.984.984 0 0 1 .16 1.383l-.386-.305-.386-.306a457.469 457.469 0 0 1-2.776-2.222l-.383-.309-.383-.31a.985.985 0 0 1 1.385-.147c.922.744 1.845 1.483 2.769 2.216Zm-8.572-6.979a.984.984 0 0 1 .125 1.386l-.378-.315-.378-.315c-.908-.758-1.814-1.52-2.719-2.288l-.376-.319-.375-.319a.985.985 0 0 1 1.388-.113 437.32 437.32 0 0 0 2.713 2.283Zm-8.401-7.188c.409.358.45.98.092 1.389l-.371-.324-.37-.325a410.83 410.83 0 0 1-2.661-2.351l-.368-.327-.367-.328a.983.983 0 0 1 1.389-.08c.884.787 1.77 1.569 2.656 2.346Zm-8.228-7.388c.4.368.427.991.059 1.391l-.363-.333-.362-.333a485.59 485.59 0 0 1-2.603-2.411l-.36-.336-.36-.337a.986.986 0 0 1 1.392-.047c.864.807 1.73 1.609 2.597 2.406Zm-8.047-7.574c.391.377.403 1 .026 1.391l-.355-.341-.355-.341c-.851-.82-1.701-1.645-2.549-2.475l-.352-.344-.352-.345a.985.985 0 0 1 1.392-.015c.847.828 1.695 1.651 2.545 2.47Zm-7.868-7.756a.985.985 0 0 1-.005 1.392l-.348-.349-.347-.35a506.931 506.931 0 0 1-2.512-2.552l-.344-.353-.343-.353a.986.986 0 0 1 1.392.017 500.135 500.135 0 0 0 2.507 2.548Zm-7.708-7.955a.985.985 0 0 1-.037 1.392l-.339-.357-.339-.357a530.973 530.973 0 0 1-2.434-2.589l-.335-.361-.336-.36a.986.986 0 0 1 1.392.049c.804.862 1.614 1.724 2.428 2.583Zm-7.509-8.115a.985.985 0 0 1-.07 1.39l-.33-.365-.331-.365a482.108 482.108 0 0 1-2.369-2.641l-.327-.368-.327-.368a.984.984 0 0 1 1.389.081c.784.88 1.572 1.759 2.365 2.636Zm-7.317-8.288a.986.986 0 0 1-.102 1.389l-.322-.373-.322-.373a450.788 450.788 0 0 1-2.308-2.698l-.318-.375-.318-.376a.984.984 0 0 1 1.387.114c.763.898 1.53 1.796 2.303 2.692Zm-7.117-8.458a.986.986 0 0 1-.135 1.386l-.313-.38-.313-.381a422.657 422.657 0 0 1-2.244-2.755l-.31-.383-.308-.383a.985.985 0 0 1 1.384.147c.741.918 1.488 1.834 2.24 2.749Zm-6.909-8.627a.985.985 0 0 1-.169 1.382l-.304-.388-.303-.388a424.686 424.686 0 0 1-2.177-2.811l-.3-.391-.299-.391a.985.985 0 0 1 1.38.182c.719.936 1.443 1.871 2.172 2.805Zm-6.692-8.795a.985.985 0 0 1-.204 1.377l-.293-.395-.294-.396a436.03 436.03 0 0 1-2.106-2.866l-.29-.399-.289-.398a.984.984 0 0 1 1.375.217 473.54 473.54 0 0 0 2.101 2.86Zm-6.464-8.963a.985.985 0 0 1-.24 1.371l-.283-.403-.283-.403a401.61 401.61 0 0 1-2.031-2.921l-.28-.405-.278-.406a.985.985 0 0 1 1.369.252c.669.972 1.344 1.943 2.026 2.915Zm-6.225-9.13a.985.985 0 0 1-.277 1.364l-.272-.41-.272-.411a397.124 397.124 0 0 1-2.487-3.801.985.985 0 0 1 1.362.29 416.89 416.89 0 0 0 1.946 2.968Zm-5.972-9.297a.985.985 0 0 1-.314 1.356 115.76 115.76 0 0 1-.522-.835 387.38 387.38 0 0 1-1.865-3.028l-.257-.42-.255-.421a.984.984 0 0 1 1.352.328 367.641 367.641 0 0 0 1.861 3.02Zm-5.702-9.463a.985.985 0 0 1-.354 1.346l-.249-.425-.248-.425a359.12 359.12 0 0 1-1.774-3.079l-.243-.428-.243-.428a.985.985 0 0 1 1.342.369 354.48 354.48 0 0 0 1.769 3.07Zm-5.414-9.629a.986.986 0 0 1-.395 1.335 123.926 123.926 0 0 1-.47-.865 341.616 341.616 0 0 1-1.675-3.128l-.15-.285-.08-.15-.229-.436a.984.984 0 0 1 1.33.411 341.99 341.99 0 0 0 1.67 3.118Zm-5.103-9.793a.985.985 0 0 1-.439 1.321l-.22-.44c-.075-.147-.148-.294-.221-.44-.53-1.06-1.052-2.118-1.566-3.174l-.215-.443-.215-.444a.985.985 0 0 1 1.315.456 320.885 320.885 0 0 0 1.561 3.164Zm-4.765-9.956a.986.986 0 0 1-.485 1.305 559.427 559.427 0 0 0-.41-.895c-.495-1.081-.98-2.16-1.456-3.236l-.2-.451-.198-.451a.985.985 0 0 1 1.298.503 300.73 300.73 0 0 0 1.451 3.225Zm-4.396-10.115a.984.984 0 0 1-.534 1.285l-.188-.455-.091-.219-.097-.236a274.879 274.879 0 0 1-1.34-3.31l-.108-.276-.073-.182-.18-.458a.984.984 0 0 1 1.277.552c.435 1.097.88 2.197 1.334 3.299Zm-3.991-10.277a.985.985 0 0 1-.586 1.262l-.17-.462-.17-.463c-.411-1.13-.813-2.257-1.205-3.381l-.106-.307-.055-.158a42.778 42.778 0 0 1-.16-.466.986.986 0 0 1 1.251.607 258.4 258.4 0 0 0 1.2 3.368Zm-3.55-10.465a.985.985 0 0 1-.644 1.234c-.05-.156-.1-.313-.148-.469-.05-.157-.1-.313-.148-.47a227.914 227.914 0 0 1-1.041-3.412l-.14-.473-.138-.472a.985.985 0 0 1 1.222.665c.334 1.128.68 2.261 1.036 3.397Zm-3.04-10.606a.984.984 0 0 1-.704 1.199l-.125-.476-.124-.477a201.421 201.421 0 0 1-.857-3.433l-.114-.479-.114-.479a.984.984 0 0 1 1.186.728c.272 1.134.556 2.273.852 3.417Zm-2.458-10.727a.985.985 0 0 1-.771 1.157 206.51 206.51 0 0 1-.195-.966 178.21 178.21 0 0 1-.83-4.477.984.984 0 0 1 1.14.797c.205 1.157.424 2.32.656 3.489Zm-1.8-10.864a.985.985 0 0 1-.844 1.104 145.865 145.865 0 0 1-.132-.976 154.326 154.326 0 0 1-.527-4.526.985.985 0 0 1 1.082.873c.126 1.168.266 2.343.422 3.525Zm-1.029-10.96a.985.985 0 0 1-.926 1.036 118.725 118.725 0 0 1-.057-.983 131.453 131.453 0 0 1-.17-4.526.985.985 0 0 1 1.008.957c.032 1.163.08 2.335.145 3.515ZM20 75.27a.985.985 0 0 1-1.014.95 99.664 99.664 0 0 1 .03-.983 111.006 111.006 0 0 1 .25-4.556c.54.039.948.507.912 1.048A110.25 110.25 0 0 0 20 75.27Zm.94-10.937a.985.985 0 0 1-1.107.838 94.082 94.082 0 0 1 .877-5.458c.532.1.885.61.789 1.143a92.338 92.338 0 0 0-.558 3.477Zm2.191-10.723a.985.985 0 0 1-1.203.692 81.016 81.016 0 0 1 1.416-4.823l.155-.467a.985.985 0 0 1 .63 1.237 77.75 77.75 0 0 0-.998 3.36Zm3.622-10.29a.985.985 0 0 1-1.291.508 69.957 69.957 0 0 1 2.134-4.572c.076-.146.15-.292.227-.437a.985.985 0 0 1 .43 1.319 67.083 67.083 0 0 0-1.5 3.182Zm5.198-9.578a.985.985 0 0 1-1.358.284 61.991 61.991 0 0 1 3.177-4.528c.43.326.518.94.195 1.373a60.929 60.929 0 0 0-2.014 2.87Zm344.815-6.486a170.398 170.398 0 0 1 .664.728.985.985 0 0 1-1.386-.058 59.084 59.084 0 0 0-2.467-2.506.985.985 0 0 1-.035-1.386 100.6 100.6 0 0 1 .717.675 63.191 63.191 0 0 1 2.507 2.547Zm3.955 6.383a.985.985 0 0 1 .217-1.37 63.208 63.208 0 0 1 .582.794 62.051 62.051 0 0 1 2.522 3.784.984.984 0 0 1-1.353-.306 60.999 60.999 0 0 0-1.968-2.902Zm5.564 9.357a.985.985 0 0 1 .451-1.312 259.283 259.283 0 0 1 .435.883 68.278 68.278 0 0 1 1.846 4.163.985.985 0 0 1-1.284-.528 67.247 67.247 0 0 0-1.448-3.206Zm3.962 10.176a.984.984 0 0 1 .649-1.227l.075.237.073.232.145.471c.342 1.124.661 2.264.956 3.419l.12.477a26.221 26.221 0 0 1 .118.478.984.984 0 0 1-1.192-.711 79.426 79.426 0 0 0-.944-3.376Zm2.46 10.647a.984.984 0 0 1 .807-1.13c.029.161.056.323.084.485l.081.486a93.453 93.453 0 0 1 .568 4.011c.019.163.039.326.057.49a.985.985 0 0 1-1.094-.856 93.422 93.422 0 0 0-.503-3.486Zm1.147 10.893a.985.985 0 0 1 .929-1.033l.029.491.026.492c.059 1.181.1 2.373.123 3.575l.008.493.005.492a.985.985 0 0 1-.998-.966 111.137 111.137 0 0 0-.122-3.544Zm.023 10.997a.985.985 0 0 1 1.023-.941l-.018.492-.013.294-.008.198c-.051 1.17-.119 2.35-.203 3.538-.012.164-.023.328-.036.491l-.01.137-.027.354a.984.984 0 0 1-.909-1.051c.083-1.18.15-2.35.201-3.512Zm-.928 10.938a.985.985 0 0 1 1.096-.857l-.059.489-.029.245-.03.244a153.017 153.017 0 0 1-.554 4.027l-.04.263-.034.224a.986.986 0 0 1-.828-1.118c.174-1.18.334-2.352.478-3.517Zm-1.738 10.873a.985.985 0 0 1 1.152-.779l-.092.483-.093.484a175.235 175.235 0 0 1-.821 3.978l-.064.292-.042.189a.984.984 0 0 1-.752-1.169c.25-1.165.488-2.325.712-3.478Zm-2.434 10.761a.984.984 0 0 1 1.196-.709l-.121.477-.122.477a188.95 188.95 0 0 1-.911 3.42l-.131.474-.133.475a.985.985 0 0 1-.685-1.211c.314-1.139.616-2.273.907-3.403Zm-3.025 10.579a.985.985 0 0 1 1.233-.645l-.096.309-.05.161-.147.47c-.354 1.128-.719 2.26-1.096 3.396l-.155.467-.156.467a.985.985 0 0 1-.623-1.244c.374-1.131.738-2.258 1.09-3.381Zm-3.553 10.439a.984.984 0 0 1 1.261-.586l-.168.462-.085.233-.084.23a249.605 249.605 0 0 1-1.613 4.281.986.986 0 0 1-.566-1.271c.429-1.12.847-2.236 1.255-3.349Zm-4.023 10.284a.986.986 0 0 1 1.286-.533l-.104.252-.084.204-.188.454a283.12 283.12 0 0 1-1.587 3.741l-.196.452a.985.985 0 0 1-.514-1.293c.472-1.095.934-2.187 1.387-3.277Zm-4.441 10.119a.985.985 0 0 1 1.306-.482l-.206.447-.206.448a316.285 316.285 0 0 1-1.507 3.212l-.212.444-.213.444a.984.984 0 0 1-.464-1.312 304.4 304.4 0 0 0 1.502-3.201Zm-4.814 9.941a.985.985 0 0 1 1.322-.435l-.222.44-.067.135-.155.305a303.469 303.469 0 0 1-1.616 3.148l-.228.437-.078.15-.15.286a.985.985 0 0 1-.418-1.327 322.694 322.694 0 0 0 1.612-3.139Zm-5.151 9.758a.985.985 0 0 1 1.336-.39l-.236.432-.237.432a345.557 345.557 0 0 1-1.966 3.529l-.131.233-.111.196a.985.985 0 0 1-.374-1.341c.58-1.031 1.153-2.062 1.719-3.091Zm-5.468 9.591a.985.985 0 0 1 1.347-.348l-.153.262-.096.163-.251.424c-.6 1.016-1.207 2.033-1.822 3.05l-.255.421-.255.421a.985.985 0 0 1-.333-1.352 363.747 363.747 0 0 0 1.818-3.041Zm-5.762 9.423a.985.985 0 0 1 1.358-.307l-.173.274-.089.142-.263.417c-.631.998-1.269 1.998-1.914 2.997l-.267.414-.268.413a.985.985 0 0 1-.292-1.361 402.27 402.27 0 0 0 1.908-2.989Zm-6.034 9.253a.984.984 0 0 1 1.365-.268l-.274.409-.274.409c-.66.981-1.326 1.962-1.998 2.943l-.279.406-.279.406a.986.986 0 0 1-.255-1.369c.671-.978 1.335-1.957 1.994-2.936Zm-6.291 9.084a.984.984 0 0 1 1.372-.231l-.285.402-.285.401c-.687.963-1.379 1.926-2.078 2.888l-.289.399-.29.398a.986.986 0 0 1-.218-1.375c.697-.96 1.388-1.921 2.073-2.882Zm-6.533 8.914a.985.985 0 0 1 1.378-.195l-.295.394-.296.394c-.712.944-1.429 1.889-2.152 2.832l-.299.391-.3.39a.984.984 0 0 1-.182-1.38c.721-.941 1.436-1.883 2.146-2.826Zm-6.761 8.744a.984.984 0 0 1 1.382-.16l-.305.386-.306.386a428.41 428.41 0 0 1-2.222 2.776l-.309.383-.31.383a.985.985 0 0 1-.147-1.384c.744-.923 1.483-1.846 2.217-2.77Zm-6.98 8.573a.985.985 0 0 1 1.386-.126l-.315.379-.315.378a464.58 464.58 0 0 1-2.288 2.719l-.318.375-.32.375a.985.985 0 0 1-.113-1.387c.766-.904 1.527-1.808 2.283-2.713Zm-7.188 8.401a.984.984 0 0 1 1.389-.092l-.324.37-.324.371c-.779.888-1.563 1.775-2.351 2.661l-.328.368-.328.367a.986.986 0 0 1-.08-1.39c.787-.884 1.569-1.769 2.346-2.655Zm-7.387 8.227a.984.984 0 0 1 1.39-.059l-.332.363-.334.363c-.798.869-1.602 1.736-2.411 2.603l-.336.36-.337.359a.985.985 0 0 1-.047-1.391c.807-.865 1.609-1.731 2.407-2.598Zm-7.575 8.048a.985.985 0 0 1 1.392-.027l-.341.355-.342.355c-.82.852-1.645 1.702-2.474 2.55l-.345.352-.345.351a.985.985 0 0 1-.015-1.392c.828-.846 1.651-1.694 2.47-2.544Zm-7.756 7.868a.984.984 0 0 1 1.392.005l-.349.347-.35.347c-.272.271-.546.541-.82.811-.151.149-.302.299-.454.447-.425.42-.851.837-1.278 1.254l-.352.344-.353.344a.984.984 0 0 1 .017-1.392l1.276-1.251a757.1 757.1 0 0 0 1.271-1.256Zm-7.954 7.707a.984.984 0 0 1 1.391.038l-.357.339-.357.339c-.862.815-1.725 1.627-2.589 2.433l-.36.336-.361.335a.985.985 0 0 1 .049-1.391c.863-.805 1.724-1.614 2.584-2.429Zm-8.116 7.51a.985.985 0 0 1 1.391.069l-.365.331-.365.33c-.879.795-1.76 1.585-2.641 2.37l-.368.327-.369.327a.986.986 0 0 1 .082-1.39 475.82 475.82 0 0 0 2.635-2.364Zm-8.287 7.316a.985.985 0 0 1 1.388.102l-.372.322-.373.322c-.899.775-1.798 1.544-2.699 2.308l-.375.319-.376.318a.985.985 0 0 1 .114-1.387c.899-.763 1.796-1.531 2.693-2.304Zm-8.458 7.117a.984.984 0 0 1 1.385.136l-.38.313-.38.312c-.918.754-1.836 1.502-2.755 2.244l-.383.31-.384.309a.985.985 0 0 1 .148-1.384 499.95 499.95 0 0 0 2.749-2.24Zm-8.627 6.909a.985.985 0 0 1 1.381.169l-.387.304-.388.303c-.937.732-1.874 1.457-2.812 2.177l-.39.3-.391.299a.984.984 0 0 1 .182-1.38c.935-.718 1.87-1.442 2.805-2.172Zm-8.796 6.692a.986.986 0 0 1 1.377.204l-.395.294-.396.293c-.955.708-1.91 1.41-2.866 2.106l-.398.29-.399.289a.986.986 0 0 1 .217-1.375c.954-.694 1.907-1.395 2.86-2.101Zm-8.963 6.465a.985.985 0 0 1 1.371.239l-.402.284-.403.283c-.974.683-1.948 1.36-2.921 2.031l-.406.279-.406.279a.984.984 0 0 1 .253-1.369 464.89 464.89 0 0 0 2.914-2.026Zm-9.13 6.225a.984.984 0 0 1 1.364.276l-.41.273-.41.272c-.992.657-1.984 1.307-2.975 1.951l-.413.268-.414.267a.985.985 0 0 1 .291-1.361c.989-.642 1.978-1.291 2.967-1.946Zm-9.297 5.971a.985.985 0 0 1 1.356.315l-.236.148-.181.113-.418.26c-1.01.629-2.019 1.251-3.027 1.866l-.17.103-.251.153-.421.256a.986.986 0 0 1 .329-1.353 351.795 351.795 0 0 0 3.019-1.861Zm-9.462 5.703a.985.985 0 0 1 1.346.354l-.425.248-.218.127-.208.122a377.783 377.783 0 0 1-3.078 1.773l-.428.244-.429.242a.985.985 0 0 1 .369-1.342 375.895 375.895 0 0 0 3.071-1.768Zm-9.629 5.413a.985.985 0 0 1 1.334.396l-.432.235-.433.235a318.735 318.735 0 0 1-3.128 1.674l-.435.23-.436.229a.985.985 0 0 1 .411-1.329 339.777 339.777 0 0 0 3.119-1.67Zm-9.793 5.103a.985.985 0 0 1 1.32.439l-.44.221-.44.221c-1.059.53-2.118 1.052-3.174 1.566l-.443.215-.443.214a.985.985 0 0 1 .455-1.315 308.027 308.027 0 0 0 3.165-1.561Zm-9.956 4.765a.986.986 0 0 1 1.304.485l-.447.206-.448.205a302.792 302.792 0 0 1-4.137 1.853.984.984 0 0 1 .502-1.297c1.073-.476 2.149-.959 3.226-1.452Zm-10.115 4.396a.985.985 0 0 1 1.285.534l-.455.189-.455.188c-1.106.456-2.21.902-3.311 1.339l-.228.09-.23.091-.458.181a.985.985 0 0 1 .553-1.277c1.097-.436 2.196-.881 3.299-1.335Zm-10.278 3.992a.985.985 0 0 1 1.262.586l-.462.17-.462.169c-1.131.412-2.258.814-3.382 1.205l-.201.07-.264.092-.465.16a.984.984 0 0 1 .606-1.252c1.12-.39 2.243-.79 3.368-1.2Zm-10.464 3.55a.986.986 0 0 1 1.234.643l-.47.149-.47.148c-1.141.358-2.278.705-3.412 1.041l-.472.14-.312.091-.161.047a.985.985 0 0 1 .665-1.222c1.129-.335 2.261-.68 3.398-1.037Zm-10.607 3.039a.986.986 0 0 1 1.2.705l-.477.125-.476.124c-1.149.297-2.294.583-3.434.857l-.479.114-.479.113a.985.985 0 0 1 .728-1.185c1.134-.272 2.273-.557 3.417-.853Zm-10.727 2.458a.985.985 0 0 1 1.157.772l-.482.098-.483.096a174.724 174.724 0 0 1-4.264.794l-.214.037a.985.985 0 0 1 .798-1.14c1.156-.205 2.319-.424 3.488-.657Zm-10.864 1.8a.985.985 0 0 1 1.105.845l-.351.048-.137.018-.488.065c-1.19.157-2.372.298-3.548.425l-.489.052-.255.026-.235.024a.984.984 0 0 1 .874-1.081c1.167-.126 2.342-.267 3.524-.422Zm-10.96 1.03a.984.984 0 0 1 1.036.925l-.491.03-.492.028c-1.189.065-2.37.114-3.541.146l-.492.013-.493.011a.985.985 0 0 1 .957-1.008c1.163-.032 2.335-.081 3.515-.145Zm-10.97.125a.984.984 0 0 1 .951 1.014l-.492-.014-.492-.016a109.302 109.302 0 0 1-4.555-.25.985.985 0 0 1 1.047-.913c1.17.078 2.35.138 3.542.179Zm-10.936-.941a.985.985 0 0 1 .838 1.108 76.414 76.414 0 0 1-.976-.133 92.645 92.645 0 0 1-3.514-.564l-.194-.035a797.792 797.792 0 0 1-.774-.145.984.984 0 0 1 1.143-.789 94.64 94.64 0 0 0 3.477.558Zm-10.724-2.191a.985.985 0 0 1 .693 1.204l-.477-.125-.475-.128a79.427 79.427 0 0 1-4.339-1.319.984.984 0 0 1 1.238-.629 76.97 76.97 0 0 0 3.36.997Zm-10.29-3.622a.985.985 0 0 1 .508 1.292l-.453-.193-.451-.197a68.664 68.664 0 0 1-4.105-1.971.985.985 0 0 1 1.32-.43 66.683 66.683 0 0 0 3.181 1.499Zm-9.578-5.198a.985.985 0 0 1 .284 1.358 66.224 66.224 0 0 1-.826-.536 61.542 61.542 0 0 1-2.917-2.045l-.394-.296a63.12 63.12 0 0 1-.39-.299.984.984 0 0 1 1.373-.195 60.482 60.482 0 0 0 2.87 2.013Zm-8.508-6.782c.39.375.406.994.035 1.387l-.36-.336-.356-.339a60.228 60.228 0 0 1-3.171-3.275.985.985 0 0 1 1.386.058 61.277 61.277 0 0 0 2.466 2.505Zm-7.144-8.218a.985.985 0 0 1-.217 1.37 91.376 91.376 0 0 1-.293-.396l-.29-.399a61.246 61.246 0 0 1-2.52-3.783.985.985 0 0 1 1.353.305 61.064 61.064 0 0 0 1.967 2.903Zm-5.563-9.357a.985.985 0 0 1-.451 1.312 45.28 45.28 0 0 1-.436-.883 68.088 68.088 0 0 1-1.845-4.163.985.985 0 0 1 1.283.528c.457 1.087.94 2.155 1.449 3.206Zm-3.962-10.176a.985.985 0 0 1-.65 1.227 64.53 64.53 0 0 1-.292-.94 78.91 78.91 0 0 1-1.195-4.375.985.985 0 0 1 1.193.712 77.67 77.67 0 0 0 .944 3.376Zm-2.46-10.648a.986.986 0 0 1-.808 1.131 102.826 102.826 0 0 1-.165-.971 93.364 93.364 0 0 1-.625-4.501.986.986 0 0 1 1.095.856 92.28 92.28 0 0 0 .502 3.485Zm-1.148-10.892a.985.985 0 0 1-.929 1.033 115.841 115.841 0 0 1-.054-.983 111.434 111.434 0 0 1-.137-4.56.984.984 0 0 1 .998.966c.022 1.192.063 2.373.122 3.544Zm-.023-10.997a.985.985 0 0 1-1.023.941 115.519 115.519 0 0 1 .04-.984 131.83 131.83 0 0 1 .275-4.521c.541.04.948.51.91 1.052-.084 1.179-.15 2.35-.202 3.512Zm.928-10.938a.985.985 0 0 1-1.095.857 135.678 135.678 0 0 1 .118-.978 153.91 153.91 0 0 1 .628-4.514.985.985 0 0 1 .827 1.118 153.018 153.018 0 0 0-.478 3.517Zm1.738-10.873a.985.985 0 0 1-1.152.779 265.525 265.525 0 0 1 .186-.967c.225-1.16.464-2.326.716-3.497l.104-.481.106-.481c.53.115.867.638.753 1.169a180.63 180.63 0 0 0-.713 3.478Zm2.435-10.761a.985.985 0 0 1-1.197.709l.12-.478.123-.477c.292-1.135.596-2.275.911-3.419l.132-.475.133-.474c.522.146.83.687.685 1.211a200.867 200.867 0 0 0-.907 3.403Zm3.024-10.58a.985.985 0 0 1-1.232.646l.146-.471.146-.47c.355-1.128.72-2.259 1.096-3.395l.088-.265.067-.202.157-.467a.985.985 0 0 1 .623 1.244 228.703 228.703 0 0 0-1.091 3.38Zm3.554-10.438a.984.984 0 0 1-1.262.586l.168-.463.094-.257.075-.205c.41-1.118.83-2.238 1.26-3.362l.176-.46.177-.459c.507.195.76.764.566 1.271a250.763 250.763 0 0 0-1.254 3.349Zm4.022-10.284a.984.984 0 0 1-1.286.532l.188-.455.189-.455c.454-1.094.918-2.19 1.391-3.289l.085-.197.11-.255.197-.451a.984.984 0 0 1 .513 1.293 278.018 278.018 0 0 0-1.387 3.277Zm4.441-10.119a.985.985 0 0 1-1.305.482l.205-.448a296.52 296.52 0 0 1 1.713-3.659l.213-.445.212-.444c.49.235.698.822.465 1.312-.51 1.069-1.01 2.137-1.503 3.202Zm4.815-9.941a.984.984 0 0 1-1.323.434l.222-.439.135-.268.087-.172c.53-1.048 1.07-2.098 1.616-3.149l.228-.436.228-.437a.986.986 0 0 1 .418 1.328 324.852 324.852 0 0 0-1.611 3.139Zm5.15-9.758a.986.986 0 0 1-1.335.39c.04-.076.082-.152.124-.228l.112-.205.236-.431a348.152 348.152 0 0 1 1.966-3.53l.242-.428a.983.983 0 0 1 .374 1.34 343.658 343.658 0 0 0-1.718 3.092Zm5.469-9.591a.984.984 0 0 1-1.348.347l.25-.424.25-.424a363.03 363.03 0 0 1 1.822-3.05l.255-.421.256-.421a.984.984 0 0 1 .332 1.351 377.827 377.827 0 0 0-1.817 3.042Zm5.761-9.423a.985.985 0 0 1-1.357.307l.262-.417.263-.416a373.172 373.172 0 0 1 2.18-3.411l.145-.223.123-.19a.984.984 0 0 1 .293 1.36c-.643.997-1.28 1.994-1.909 2.99Zm6.035-9.254a.986.986 0 0 1-1.366.269l.274-.409.275-.409a401.449 401.449 0 0 1 2.276-3.349l.28-.406c.447.308.561.92.254 1.368-.67.979-1.335 1.958-1.993 2.936Zm6.29-9.084a.984.984 0 0 1-1.372.231l.285-.401.286-.401a433.19 433.19 0 0 1 2.077-2.889l.29-.398.29-.398c.439.32.536.935.217 1.375a430.89 430.89 0 0 0-2.072 2.881Zm6.533-8.914a.984.984 0 0 1-1.378.195l.296-.394.296-.393c.71-.945 1.428-1.889 2.151-2.833l.3-.39.3-.391a.985.985 0 0 1 .182 1.38 458.42 458.42 0 0 0-2.147 2.826Zm6.762-8.743a.985.985 0 0 1-1.383.159l.305-.386.306-.386c.735-.926 1.476-1.851 2.222-2.776l.31-.383.31-.382a.985.985 0 0 1 .146 1.384 426.32 426.32 0 0 0-2.216 2.77Zm6.98-8.573a.985.985 0 0 1-1.387.125l.315-.378.315-.378c.758-.907 1.52-1.814 2.288-2.719l.319-.375.319-.375a.984.984 0 0 1 .113 1.387 468.82 468.82 0 0 0-2.283 2.713Zm7.187-8.401a.984.984 0 0 1-1.389.092l.324-.371.325-.37a439.26 439.26 0 0 1 2.351-2.661l.327-.368.328-.367a.984.984 0 0 1 .08 1.39c-.787.884-1.569 1.769-2.346 2.655Zm7.388-8.228a.985.985 0 0 1-1.391.059l.333-.363.333-.362a485.59 485.59 0 0 1 2.411-2.603l.336-.36.337-.359a.984.984 0 0 1 .047 1.391 445.65 445.65 0 0 0-2.406 2.597Zm7.574-8.047a.984.984 0 0 1-1.391.026l.341-.355.341-.355c.82-.851 1.645-1.701 2.475-2.549l.344-.352.345-.352a.985.985 0 0 1 .015 1.392c-.828.847-1.651 1.695-2.47 2.545Zm7.756-7.868a.985.985 0 0 1-1.392-.005l.349-.347.35-.347a379.215 379.215 0 0 1 2.552-2.513l.353-.343.353-.344a.986.986 0 0 1-.017 1.392 500.135 500.135 0 0 0-2.548 2.507Zm7.955-7.708a.985.985 0 0 1-1.392-.037l.357-.339.357-.339a507.49 507.49 0 0 1 2.589-2.433l.36-.336.361-.336a.985.985 0 0 1-.049 1.392c-.862.805-1.724 1.614-2.583 2.428Zm8.115-7.509a.984.984 0 0 1-1.39-.07l.365-.33.365-.33a454.98 454.98 0 0 1 2.641-2.37l.368-.327.368-.327a.985.985 0 0 1-.081 1.39 453.17 453.17 0 0 0-2.636 2.364Zm8.288-7.317a.986.986 0 0 1-1.389-.102l.373-.322.373-.322c.898-.774 1.797-1.543 2.698-2.308l.375-.318.376-.318a.984.984 0 0 1-.114 1.387c-.898.763-1.796 1.53-2.692 2.303Zm8.458-7.116a.985.985 0 0 1-1.386-.136l.38-.313.381-.313c.917-.753 1.835-1.501 2.755-2.244l.383-.31.383-.308a.986.986 0 0 1-.147 1.384c-.918.741-1.834 1.488-2.749 2.24Zm8.627-6.91a.985.985 0 0 1-1.382-.169l.388-.303.388-.304a461.48 461.48 0 0 1 2.811-2.177l.391-.3.391-.299a.985.985 0 0 1-.182 1.38c-.936.719-1.871 1.443-2.805 2.172Zm8.795-6.691a.985.985 0 0 1-1.377-.204l.395-.294.396-.294c.955-.708 1.91-1.41 2.866-2.106l.399-.29.398-.289a.984.984 0 0 1-.217 1.375 449.09 449.09 0 0 0-2.86 2.102Zm8.963-6.465a.985.985 0 0 1-1.371-.24l.403-.283.403-.283c.973-.683 1.947-1.36 2.921-2.031l.405-.28.406-.278a.985.985 0 0 1-.252 1.369c-.972.67-1.944 1.345-2.915 2.026Zm9.13-6.225a.985.985 0 0 1-1.364-.276l.41-.273.41-.272a418.922 418.922 0 0 1 3.802-2.487.985.985 0 0 1-.29 1.362 416.91 416.91 0 0 0-2.968 1.946Zm9.297-5.972a.985.985 0 0 1-1.356-.314 103.244 103.244 0 0 1 .835-.522 387.38 387.38 0 0 1 3.235-1.991l.213-.13.421-.256a.984.984 0 0 1-.328 1.352 370.406 370.406 0 0 0-3.02 1.861Zm9.463-5.702a.985.985 0 0 1-1.346-.354l.225-.132.2-.117.425-.248a356.5 356.5 0 0 1 3.507-2.017l.428-.243a.985.985 0 0 1-.369 1.342 359.762 359.762 0 0 0-3.07 1.769Zm9.629-5.414a.986.986 0 0 1-1.335-.395 97.667 97.667 0 0 1 .865-.47 341.631 341.631 0 0 1 3.999-2.134.984.984 0 0 1-.411 1.33 341.99 341.99 0 0 0-3.118 1.67Zm9.793-5.103a.985.985 0 0 1-1.321-.439l.44-.22.44-.221a334.32 334.32 0 0 1 3.174-1.566l.443-.215.444-.215a.985.985 0 0 1-.456 1.315 320.87 320.87 0 0 0-3.164 1.561Zm9.956-4.765a.985.985 0 0 1-1.305-.485l.448-.206.447-.205c1.081-.493 2.16-.979 3.236-1.455l.222-.098.229-.101.451-.199a.985.985 0 0 1-.503 1.298 300.73 300.73 0 0 0-3.225 1.451Zm10.115-4.396a.984.984 0 0 1-1.285-.534l.454-.188.301-.124.155-.064a287.04 287.04 0 0 1 3.31-1.34l.458-.18.458-.18a.984.984 0 0 1-.552 1.276c-1.097.436-2.197.88-3.299 1.334Zm10.277-3.991a.985.985 0 0 1-1.262-.586l.462-.17.463-.17a249.67 249.67 0 0 1 3.846-1.366l.466-.16a.985.985 0 0 1-.607 1.251c-1.119.39-2.242.79-3.368 1.201Zm10.465-3.55a.984.984 0 0 1-1.234-.643l.469-.15.47-.147a226.74 226.74 0 0 1 3.412-1.041l.473-.14.235-.069.237-.07a.985.985 0 0 1-.665 1.223c-1.128.334-2.261.68-3.397 1.036Zm10.606-3.04a.984.984 0 0 1-1.199-.704 208.678 208.678 0 0 1 5.344-1.333.984.984 0 0 1-.728 1.185 201.9 201.9 0 0 0-3.417.852Zm10.727-2.458a.985.985 0 0 1-1.157-.771 168.58 168.58 0 0 1 .966-.195 177.989 177.989 0 0 1 4.477-.83.984.984 0 0 1-.797 1.14c-1.157.205-2.32.424-3.489.656Zm10.864-1.8a.984.984 0 0 1-1.104-.844 143.154 143.154 0 0 1 .976-.132 153.592 153.592 0 0 1 4.526-.527.984.984 0 0 1-.873 1.082 149.39 149.39 0 0 0-3.525.422Zm10.961-1.029a.985.985 0 0 1-1.037-.926 141.817 141.817 0 0 1 .983-.057 131.571 131.571 0 0 1 4.526-.17.985.985 0 0 1-.957 1.008c-1.163.032-2.335.08-3.515.145Zm10.969-.125a.985.985 0 0 1-.951-1.014 117.076 117.076 0 0 1 .984.03 111.02 111.02 0 0 1 4.556.25.985.985 0 0 1-1.048.912 110.1 110.1 0 0 0-3.541-.178Zm10.937.94a.985.985 0 0 1-.838-1.107 105.862 105.862 0 0 1 .976.133 93.612 93.612 0 0 1 4.482.744.985.985 0 0 1-1.143.789 92.46 92.46 0 0 0-3.477-.558Zm10.723 2.191a.984.984 0 0 1-.692-1.203 73.047 73.047 0 0 1 .951.253 78.35 78.35 0 0 1 4.339 1.319.985.985 0 0 1-1.237.63 77.914 77.914 0 0 0-3.361-.999Zm10.29 3.622a.985.985 0 0 1-.508-1.291 87.954 87.954 0 0 1 .904.39 68.021 68.021 0 0 1 4.105 1.971.984.984 0 0 1-1.319.43 67.227 67.227 0 0 0-3.182-1.5Zm9.578 5.199a.986.986 0 0 1-.284-1.358l.415.266.193.126.219.143a62.137 62.137 0 0 1 3.701 2.641.984.984 0 0 1-1.373.195 60.506 60.506 0 0 0-2.871-2.014Z" clip-rule="evenodd"/>
  <rect width="95.873" height="95.873" x="257.378" y="237.319" fill="#27272A" stroke="url(#integrations-grid-a)" stroke-width=".393" rx="47.937" transform="rotate(-180 257.378 237.319)"/>
  <path fill="#fff" fill-opacity=".4" fill-rule="evenodd" d="m216.359 195.483-14.701-25.463h-14.996l22.199 38.45 7.498-12.987Z" clip-rule="evenodd"/>
  <path fill="#fff" fill-opacity=".7" fill-rule="evenodd" d="m216.269 170.02 7.396 12.81-7.306 12.653-14.701-25.463h14.611Z" clip-rule="evenodd"/>
  <path fill="#fff" d="m223.665 182.83-7.396-12.81h14.792l-7.396 12.81Z"/>
  <g clip-path="url(#b)">
    <path fill="#fff" d="M193.331 347.441c.211.211.368.435.368.748.001.633-.611 1.026-1.182.751-.231-.111-.41-.288-.588-.466-1.379-1.38-2.758-2.759-4.139-4.138-.334-.334-.347-.334-.682.001a5581.4 5581.4 0 0 0-4.216 4.213c-.17.171-.342.335-.574.42-.569.21-1.119-.169-1.119-.818-.012-.271.149-.496.361-.707 1.441-1.437 2.877-2.877 4.315-4.317.236-.235.239-.468.01-.698-1.405-1.404-2.811-2.808-4.215-4.214a2.451 2.451 0 0 1-.327-.379c-.235-.363-.19-.817.092-1.09.284-.276.732-.312 1.091-.073.128.085.239.199.348.308 1.398 1.395 2.794 2.792 4.191 4.188.257.257.518.252.783-.013 1.422-1.421 2.846-2.842 4.267-4.264.247-.248.52-.431.888-.369a.838.838 0 0 1 .576 1.273 2.17 2.17 0 0 1-.345.41c-1.411 1.416-2.819 2.835-4.243 4.237-.258.253-.266.4-.004.659 1.457 1.436 2.895 2.892 4.344 4.338Z"/>
    <path fill="#fff" d="M206.097 341.449c.234 1.047-.313 1.792-1.368 1.957a4.671 4.671 0 0 1-.678.054c-1.317.005-2.635.003-3.952.003h-4.166c-.477 0-.534.063-.386.527.556 1.734 1.686 2.889 3.492 3.256 1.793.363 3.279-.235 4.444-1.633.499-.598.979-.731 1.433-.366.409.329.364.955-.099 1.501-1.758 2.071-3.98 2.746-6.584 2.095-2.482-.621-4.328-2.978-4.555-5.516-.277-3.098 1.917-6.435 5.637-6.81 3.295-.333 6.082 1.787 6.782 4.931v.001Zm6.184-3.233c-.17.048-.353.058-.531.07-1.395.101-2.008.744-2.106 2.138-.103 1.46-.043 2.919-.061 4.378-.013 1.053-.004 2.107-.005 3.161-.002.632-.307.997-.829.996-.494-.002-.829-.399-.829-1.009-.004-1.723-.002-3.447-.002-5.171-.001-1.699.004-3.399-.003-5.099-.002-.425.069-.789.519-.962.393-.151.685-.06 1.05.376.151.181.266.095.399.012.629-.395 1.325-.54 2.056-.538.283.001.55.069.744.295a.83.83 0 0 1-.402 1.353Zm12.827 4.579v.036c-.018 3.399-2.838 6.231-6.264 6.236-3.545.006-6.313-2.789-6.324-6.385-.01-3.379 2.801-6.14 6.201-6.21 3.305-.068 6.387 2.621 6.387 6.323Z"/>
    <path fill="#1AB4D7" d="M175.125 343.03v-.359c.022-.153.063-.306.062-.459a21.44 21.44 0 0 1 .212-3.006c.824-6.149 3.407-11.452 7.679-15.934 1.811-1.901 3.876-3.488 6.15-4.804 5.228-3.024 10.866-4.178 16.853-3.645a26.738 26.738 0 0 1 8.808 2.349c5.854 2.682 10.321 6.851 13.333 12.533 3.097 5.841 3.978 12.055 2.737 18.533-1.167 6.085-4.101 11.219-8.662 15.418-2.53 2.329-5.409 4.103-8.597 5.383a26.911 26.911 0 0 1-8.192 1.878c-2.422.171-4.837.103-7.225-.35-6.594-1.251-12.114-4.402-16.447-9.53-4.26-5.044-6.49-10.892-6.644-17.511a1.558 1.558 0 0 0-.067-.495v-.001Zm24.938.432c1.317 0 2.634.003 3.952-.002.226-.001.454-.021.678-.055 1.055-.165 1.602-.909 1.368-1.956-.7-3.144-3.487-5.264-6.782-4.931-3.72.375-5.914 3.712-5.637 6.81.227 2.538 2.073 4.895 4.555 5.516 2.603.651 4.826-.024 6.584-2.095.463-.546.508-1.172.099-1.501-.454-.366-.934-.233-1.434.366-1.164 1.397-2.651 1.996-4.443 1.632-1.807-.367-2.937-1.522-3.492-3.256-.148-.464-.091-.526.386-.527l4.166-.001Zm12.419-.781c.01 3.597 2.778 6.392 6.324 6.386 3.425-.006 6.246-2.836 6.264-6.235.02-3.722-3.072-6.428-6.387-6.36-3.4.069-6.211 2.83-6.201 6.209Zm-31.32 5.47c0 .648.55 1.028 1.119.818.232-.085.404-.249.575-.42 1.404-1.405 2.809-2.81 4.215-4.214.335-.334.348-.334.683 0 1.38 1.378 2.759 2.758 4.139 4.138.178.178.357.355.587.466.571.275 1.184-.119 1.183-.751 0-.313-.158-.537-.368-.748-1.449-1.446-2.887-2.902-4.345-4.339-.262-.258-.252-.405.005-.659 1.424-1.402 2.832-2.82 4.242-4.236.126-.127.256-.258.346-.41.311-.527.016-1.173-.576-1.273-.368-.063-.641.121-.889.368-1.421 1.423-2.844 2.843-4.266 4.264-.264.265-.525.269-.782.013l-4.191-4.188c-.111-.109-.221-.223-.349-.308-.359-.24-.807-.203-1.091.073-.281.273-.326.727-.091 1.091.09.138.209.261.327.379l4.215 4.214c.229.229.226.462-.01.698-1.438 1.44-2.874 2.88-4.315 4.316-.212.211-.373.437-.361.708h-.002Zm26.718-5.372c0 1.724-.002 3.447.002 5.171.001.609.335 1.007.83 1.008.522.002.827-.364.829-.996.002-1.053-.007-2.107.005-3.16.018-1.46-.042-2.919.061-4.379.098-1.393.711-2.037 2.106-2.137.178-.013.361-.023.531-.071a.83.83 0 0 0 .402-1.353c-.195-.226-.461-.293-.744-.294-.732-.002-1.427.142-2.056.537-.133.084-.248.169-.399-.011-.366-.437-.657-.527-1.051-.376-.45.172-.521.537-.518.961.007 1.7.002 3.4.003 5.099l-.001.001Z"/>
    <path fill="#1AB4D7" d="M199.905 341.737c-1.328 0-2.656.002-3.984-.001-.418 0-.464-.071-.33-.464 1.005-2.942 4.714-4.014 7.139-2.073a4.64 4.64 0 0 1 1.459 2.046c.171.46.146.491-.334.492-1.317.002-2.632 0-3.949 0h-.001Zm14.342.993c-.027-2.407 2.03-4.477 4.479-4.509 2.519-.033 4.576 2.036 4.599 4.626.022 2.353-2.129 4.458-4.553 4.457-2.49-.002-4.497-2.029-4.525-4.573v-.001Zm4.548-1.501c-.879-.002-1.566.665-1.567 1.521-.002.87.67 1.56 1.53 1.569a1.528 1.528 0 0 0 1.56-1.53c.005-.88-.657-1.559-1.523-1.56Z"/>
  </g>
  <circle cx="203.316" cy="42.682" r="28.188" fill="#4A154B"/>
  <g clip-path="url(#c)">
    <path fill="#ECB22E" d="M210.727 43.427h3.665c1.432 0 2.632.942 2.939 2.337.21.953-.017 1.814-.648 2.558-.527.621-1.204.959-2.017 1.029-.16.014-.32.02-.48.02-2.368 0-4.736.01-7.103-.005-1.213-.008-2.141-.554-2.7-1.636-.828-1.603-.023-3.55 1.682-4.14a2.97 2.97 0 0 1 .983-.164h3.679Z"/>
    <path fill="#E01E5A" d="M202.567 50.102v3.68c0 1.417-.97 2.634-2.356 2.923-.95.198-1.806-.026-2.545-.657-.704-.601-1.039-1.383-1.042-2.299-.007-2.435-.004-4.87-.001-7.305.001-1.403.911-2.579 2.257-2.927 1.565-.404 3.196.57 3.59 2.14a3.2 3.2 0 0 1 .098.78c-.002 1.222-.001 2.444-.001 3.666Z"/>
    <path fill="#36C5F0" d="M195.882 41.93c-1.222 0-2.444-.005-3.665 0-1.486.007-2.75-1.082-2.953-2.522-.142-1.004.151-1.876.874-2.581a2.851 2.851 0 0 1 1.804-.814c.192-.016.383-.021.574-.021 2.331-.001 4.663-.003 6.995 0 .905.002 1.691.314 2.292 1 .675.77.921 1.672.668 2.674-.269 1.068-.953 1.77-1.991 2.126-.262.09-.535.136-.813.137h-3.785Z"/>
    <path fill="#2EB67D" d="M204.062 35.253c0-1.2.004-2.399-.001-3.598-.003-.702.187-1.341.617-1.895.552-.71 1.282-1.106 2.185-1.157a2.852 2.852 0 0 1 2.244.848 2.87 2.87 0 0 1 .873 1.9c.028.392.019.784.02 1.176.002 2.104.003 4.208 0 6.312-.001.888-.295 1.656-.94 2.282-.993.962-2.644 1.076-3.753.25-.83-.618-1.241-1.448-1.244-2.48-.003-1.213-.001-2.426-.001-3.638Z"/>
    <path fill="#ECB22E" d="M204.059 52.483c0-.495.003-.99-.002-1.485-.001-.12.037-.163.161-.163.976.004 1.954-.033 2.928.012 1.227.056 2.114.681 2.609 1.805a2.912 2.912 0 0 1-.609 3.229 2.97 2.97 0 0 1-5.014-1.438 2.823 2.823 0 0 1-.074-.636c.004-.441.001-.883.001-1.324Z"/>
    <path fill="#E01E5A" d="M195.156 45.081v1.338c-.001 1.462-1.131 2.74-2.582 2.921-1.613.202-3.063-.896-3.318-2.512-.248-1.571.86-3.101 2.425-3.355.204-.033.406-.05.612-.049.892.002 1.783 0 2.675.001.187 0 .188.002.188.185v1.471Z"/>
    <path fill="#36C5F0" d="M202.562 32.872c0 .495-.002.99.003 1.485.001.123-.043.161-.164.16-.985-.003-1.971.015-2.956-.007-.706-.015-1.325-.293-1.846-.773a2.894 2.894 0 0 1-.933-1.76c-.125-.873.106-1.651.668-2.328.42-.506.956-.835 1.6-.98.918-.208 1.754-.011 2.493.56.681.526 1.035 1.242 1.132 2.091.005.044.003.09.003.134v1.418Z"/>
    <path fill="#2EB67D" d="M211.473 40.28v-1.31c.002-1.418 1.005-2.654 2.401-2.913.959-.177 1.826.054 2.551.722 1.032.95 1.278 2.386.601 3.613-.487.881-1.253 1.378-2.253 1.513-.32.043-.641.02-.962.022-.713.004-1.427.001-2.14.001-.132 0-.197-.067-.198-.203v-1.444Z"/>
  </g>
  <circle cx="28.226" cy="351.722" r="27.864" fill="#1C0C3C"/>
  <path fill="#fff" d="M30.419 354.423c.136-.009.22-.02.304-.02 1.145 0 2.288-.024 3.432.009.672.02 1.346.108 1.958.442.864.471 1.317 1.251 1.59 2.146.33 1.1.616 2.214.932 3.321.252.886.508 1.772.778 2.654.212.696.773 1.092 1.502 1.094.248 0 .495.009.74-.002.195-.009.29.051.279.263-.013.265-.013.53 0 .795.007.168-.075.235-.219.254-.1.014-.201.018-.3.018-1.547 0-3.094.018-4.639-.011-.468-.009-.941-.108-1.397-.225-.872-.228-1.36-.882-1.62-1.686-.32-.997-.56-2.02-.843-3.03-.36-1.282-.708-2.57-1.1-3.841-.204-.652-.46-1.295-.958-1.799-.12-.121-.256-.225-.435-.378l-.004-.004Zm-5.156 0c-.137-.009-.221-.02-.305-.02-1.145 0-2.287-.024-3.432.009-.672.02-1.346.108-1.958.442-.864.471-1.317 1.251-1.589 2.146-.331 1.1-.616 2.214-.932 3.321a146.21 146.21 0 0 1-.778 2.654c-.212.696-.774 1.092-1.503 1.094-.247 0-.495.009-.74-.002-.195-.009-.29.051-.279.263.014.265.014.53 0 .795-.006.168.076.235.22.254.099.014.2.018.3.018 1.547 0 3.093.018 4.638-.011.469-.009.942-.108 1.397-.225.873-.228 1.361-.882 1.62-1.686.32-.997.56-2.02.844-3.03.36-1.282.707-2.57 1.1-3.841.204-.652.46-1.295.957-1.799.12-.121.256-.225.435-.378l.005-.004Zm2.642-.069c-.658 0-1.319-.016-1.975.006-.263.009-.343-.095-.345-.325-.004-.355-.013-.711-.013-1.067-.002-.97 0-1.94 0-2.91 0-.332.046-.38.382-.378 1.244.009 2.488.024 3.732.033.56.004.56 0 .56.581 0 1.253-.007 2.508.006 3.761.002.248-.073.31-.311.303-.677-.015-1.355-.007-2.031-.007l-.005.003Zm2.514-4.718c.136.009.22.02.304.02 1.145 0 2.288.024 3.432-.009.672-.02 1.346-.109 1.958-.442.864-.471 1.317-1.251 1.59-2.146.33-1.1.616-2.214.932-3.321.252-.886.508-1.773.778-2.654.212-.696.773-1.092 1.502-1.094.248 0 .495-.009.74.002.195.009.29-.051.279-.263a7.925 7.925 0 0 1 0-.795c.007-.168-.075-.235-.219-.255a2.329 2.329 0 0 0-.3-.017c-1.547 0-3.094-.018-4.639.011-.468.009-.941.108-1.397.225-.872.228-1.36.882-1.62 1.686-.32.997-.56 2.02-.843 3.03-.36 1.282-.708 2.57-1.1 3.841-.204.651-.46 1.295-.958 1.798-.12.122-.256.226-.435.378l-.004.005Zm-5.156-.001c-.137.009-.221.02-.305.02-1.145 0-2.287.025-3.432-.009-.672-.019-1.346-.108-1.958-.441-.864-.471-1.317-1.251-1.589-2.146-.331-1.101-.616-2.214-.932-3.322a146.21 146.21 0 0 0-.778-2.654c-.212-.696-.774-1.091-1.503-1.093-.247 0-.495-.009-.74.002-.192.011-.29-.049-.279-.261.014-.265.014-.53 0-.796-.006-.167.078-.234.221-.254.1-.013.201-.017.3-.017 1.548 0 3.095-.018 4.64.011.468.009.94.108 1.396.225.873.228 1.361.882 1.62 1.686.32.997.561 2.02.844 3.03.36 1.282.707 2.57 1.1 3.841.204.651.46 1.295.957 1.798.12.122.257.226.436.378l.002.002Z"/>
  <circle cx="369.304" cy="28.97" r="27.864" fill="#635BFF"/>
  <g clip-path="url(#d)">
    <path fill="#fff" d="M366.775 43.387c-.015-.089-.073-.113-.156-.118-2.226-.143-4.341-.735-6.391-1.593-.099-.041-.131-.102-.131-.202.003-2.354.003-4.708.004-7.06 0-.188.028-.2.201-.109a22.95 22.95 0 0 0 4.481 1.793c1.012.287 2.041.484 3.087.566.868.067 1.74.057 2.577-.274 1.277-.506 1.396-2.091.405-2.894-.589-.477-1.26-.796-1.959-1.063-1.106-.423-2.227-.81-3.325-1.252-1.042-.419-2.051-.915-2.964-1.578-1.384-1.004-2.303-2.32-2.66-4.01-.131-.62-.212-1.246-.181-1.879.075-1.589.448-3.092 1.313-4.45.498-.78 1.148-1.413 1.882-1.967 1.19-.899 2.547-1.41 3.981-1.756.872-.208 1.759-.269 2.651-.32.962-.052 1.92-.007 2.873.08 1.549.141 3.06.473 4.53.983.256.09.514.172.773.251.126.038.165.108.165.24-.006.772-.002 1.544-.002 2.317v4.713c0 .093-.048.105-.122.068l-.126-.065c-1.087-.567-2.231-.985-3.413-1.305-.93-.252-1.876-.41-2.829-.515-.741-.082-1.488-.122-2.228.023-.343.068-.679.16-.975.364a1.446 1.446 0 0 0-.385 1.97c.237.363.581.593.951.795.608.33 1.251.573 1.901.802 1.128.395 2.265.761 3.366 1.23 1.007.428 1.967.944 2.808 1.653 1.216 1.024 2.027 2.298 2.353 3.87.164.796.236 1.6.195 2.41-.066 1.304-.372 2.543-1.016 3.693-.717 1.282-1.728 2.263-2.99 2.995-1.257.729-2.621 1.157-4.046 1.397-.412.069-.83.085-1.246.104-.045.003-.094-.009-.15.03.146.058.3-.005.431.065h-3.633v-.002Z"/>
  </g>
  <circle cx="28.55" cy="28.588" r="28.188" fill="#F3F5F6"/>
  <g clip-path="url(#e)">
    <path fill="#7EBF98" d="M18.573 44.725c0-.004 0-.01-.002-.014l.186-.002H37.69l.186.003a.032.032 0 0 0-.002.013H18.573Z"/>
    <path fill="#7DCAAA" d="m39.936 21.234-.055-.059-.678-.683c-.027-.02-.058-.038-.082-.062L35.4 16.709c-.023-.023-.048-.044-.072-.066l-.003-.03c-.012-.01-.025-.02-.036-.031l-1.877-1.877c-.012-.011-.021-.024-.032-.037l-.066-.066c-.102-.1-.205-.2-.306-.301l-.828-.833a3.667 3.667 0 0 0-.034-.034l-.562-.556-.424-.419-.003.179.002.113c0 2.107.002 4.215-.001 6.322 0 .52.175.974.493 1.375.093.117.217.21.326.315.021.02.04.043.059.064a2.3 2.3 0 0 0 .034.019l.014.013c.179.088.355.186.539.262.178.074.367.116.562.116l1.364-.002.059-.267-.059.267h5.387Z"/>
    <path fill="#009E56" d="m39.954 22.807-.003-.404c0-.099.004-.198.003-.297 0-.285-.002-.57-.004-.854H33.4c-.072 0-.144-.01-.216-.015-.195 0-.384-.042-.561-.116-.185-.076-.36-.173-.54-.262.04.054.072.113.118.159.184.184.372.363.559.545.03.03.057.063.086.095l.436.427.294.286.265.024-.265-.024c.014.017.026.034.041.05l2.018 2.017c.015.015.033.028.05.042l.401.41.426.433.312.305.466.458c.014.016.026.034.041.05l1.548 1.547c.015.015.033.028.049.041.031.018.069.03.092.054a.285.285 0 0 0 .229.094c.233-.005.467-.002.7-.002.002-.161.004-.322.004-.484 0-.38-.002-.759-.004-1.138.002-.326.004-.651.004-.977 0-.264-.002-.527-.004-.791.002-.03.004-.06.004-.089v-1.584Z"/>
    <path fill="#009F56" d="M38.928 27.725c.032.017.07.029.093.054a.285.285 0 0 0 .228.093c.234-.004.467-.001.7-.001v.843c-.033-.02-.072-.035-.1-.062-.127-.123-.25-.25-.376-.374-.163-.16-.328-.317-.491-.477-.022-.021-.036-.05-.054-.076Z"/>
    <path fill="#57BF96" d="M39.949 21.252h-6.55c-.071 0-.143-.01-.215-.015l1.365-.002h5.386l.014.017Z"/>
    <path fill="#FDFEFD" d="m32.18 13.468-.035-.034.034.034Z"/>
    <path fill="#009F56" d="m25.029 44.53 3.763-.017c.028.006.056.016.084.016 3.018 0 6.036.002 9.055-.001.227 0 .445-.069.656-.153a2.12 2.12 0 0 0 .733-.49c.26-.266.45-.575.552-.936.006-.022.03-.039.046-.057-.05.338-.182.643-.386.916-.188.25-.413.462-.686.618-.236.136-.49.228-.76.266-.07.01-.14.013-.21.019l-.185-.002H18.758c-.062 0-.124 0-.186.002a2.128 2.128 0 0 1-1.309-.524c-.383-.324-.614-.738-.73-1.222-.015-.067-.022-.136-.033-.203.016.02.04.038.044.06.087.41.29.757.578 1.056.164.171.357.309.571.417.273.137.56.232.865.233 2.157.004 4.314.002 6.471.002Z"/>
    <path fill="#F3F3F3" d="m22.36 30.982-.006-.03c.002-.033.004-.065.004-.097l.001-2.059c.003-.029.009-.058.01-.086 0-.16 0-.322.002-.482l.08-.002h11.183l.446-.001-.001.001v8.734l-.002 1.89c-.507 0-1.015 0-1.523.002l-.113.002-.065-.002H27.25l-.064.002-.097-.002h-4.621c-.033 0-.065-.002-.098-.003l-.001-.113v-7.651c0-.035-.007-.07-.01-.104Zm5.119 6.396c.005-.014.014-.029.014-.043l-.002-1.775c-.024-.006-.049-.017-.073-.017h-3.515c-.025 0-.05.01-.076.014 0 .472-.002.943-.003 1.414 0 .135.003.27.004.404.025.005.05.016.074.016h3.5c.026 0 .051-.009.077-.013Zm1.479-.004c.024.006.049.017.073.017h3.514c.025 0 .05-.01.074-.016.002-.03.004-.06.004-.089v-1.42c0-.102-.003-.204-.004-.307-.03-.005-.06-.016-.09-.016H29.07c-.03 0-.059.005-.088.008a.02.02 0 0 0-.014.005c-.005.028-.015.055-.015.082v.767l.003.97Zm0-2.935c.024.005.049.016.073.016h3.515c.025 0 .049-.01.073-.016v-1.821h-3.577c-.024 0-.048.003-.072.004-.006.027-.016.054-.016.08v.897c0 .28.002.56.004.84Zm-1.468 0c.001-.008.004-.016.004-.024v-1.743c0-.016-.011-.032-.017-.048l-1.167-.002c-.016-.001-.032-.004-.048-.004h-2.438v1.23l.004.59c.025.006.05.017.074.017h3.515c.024 0 .049-.01.073-.016Zm5.13-2.936v-1.282l.005-.517a1.17 1.17 0 0 1-.007-.017c-.016-.001-.032-.003-.049-.003h-3.542c-.02 0-.038.002-.057.003-.005.024-.016.048-.016.073v1.686c0 .023.003.046.005.07.023.002.038.004.054.004h3.542c.022 0 .043-.011.065-.017Zm-8.386-1.816h-.406v1.816c.027.005.054.016.08.016h3.582c.002-.02.005-.03.005-.041l-.001-1.743c0-.016-.01-.032-.016-.048-.019 0-.037-.003-.056-.003h-3.13c-.02 0-.038.002-.057.003Z"/>
    <path fill="#89CEB2" d="M34.08 28.227c.006.03.016.06.016.09v2.375c0 .033.002.065.003.098l-.002.121-.001 7.842c0 .033-.011.065-.017.097l.001-1.89v-8.733Z"/>
    <path fill="#009255" d="m32.07 20.847-.034-.019.035.019Z"/>
    <path fill="#00A961" d="M39.953 42.422V29.55l-.003-.105v-.73c-.034-.02-.073-.035-.1-.062-.127-.123-.25-.25-.377-.373-.163-.16-.328-.318-.491-.477-.022-.022-.036-.051-.054-.077-.016-.014-.034-.027-.049-.042a2822.43 2822.43 0 0 1-1.547-1.547c-.015-.015-.028-.033-.042-.05l-.466-.458-.312-.304-.425-.433-.402-.41c-.017-.014-.034-.027-.05-.042l-2.017-2.018c-.016-.015-.028-.033-.042-.05l-.294-.285-.436-.428c-.028-.031-.056-.064-.086-.094-.186-.182-.375-.361-.559-.546-.046-.046-.078-.105-.117-.158l-.014-.014-.034-.018c-.02-.022-.038-.045-.059-.065-.109-.104-.232-.197-.325-.314a2.153 2.153 0 0 1-.494-1.375c.003-2.108.002-4.215.001-6.322l-.002-.113.003-.18c-.026-.003-.053-.008-.079-.008H28.24c-.027 0-.053.003-.08.005-.03-.002-.06-.006-.088-.006h-4.368l-5.178.006a2.207 2.207 0 0 0-2.024 1.999l-.006.113c0 .018.003.037.003.056v5.574l.002.097-.002.065v5.873l.002.064-.002.21.002 1.818-.002.056v3.862l.002.056.14.004-.14-.004-.002.057v3.91l.002.056-.002.065v5.84l.002.065-.005.325.006.146c.015.02.039.037.043.06.087.41.291.757.578 1.055.164.172.357.31.571.417.273.137.56.233.865.234 2.157.003 4.314.002 6.471.002l3.763-.017c.028.006.056.016.084.016 3.018 0 6.036.002 9.055-.001.227 0 .445-.069.656-.153a2.12 2.12 0 0 0 .733-.49c.26-.266.45-.575.552-.936.006-.022.03-.039.046-.058l.006-.03.009-.05.022-.163v-.226h-.002ZM17.058 32.315Zm17.04-1.524c-.001.04-.003.08-.003.121v7.842c0 .032-.012.065-.018.097l-1.523.002c-.038 0-.076.002-.113.003-.022-.001-.043-.003-.065-.003H27.25l-.064.003-.097-.003h-4.622l-.097-.002c-.006-.03-.017-.059-.017-.088V35.34l-.003-.105a7.206 7.206 0 0 1-.108.038l.108-.038.002-.098v-4.05c0-.035.005-.07.007-.105l-.005-.03c.001-.032.004-.065.004-.097l.001-2.059-.005-.568c.028-.006.055-.017.082-.017.28-.002.56-.002.84-.002l.074.002h6.601l.073-.002.584.002h3.379c.03 0 .062.01.093.014l-.001.001c.005.03.015.06.015.09l.001 2.376c0 .033.002.065.003.098.011-.011.025-.02.037-.031l-.037.03Z"/>
    <path fill="#57BF96" d="m23.276 28.209.073.002h6.602l.072-.002.584.002h3.38c.03 0 .061.01.092.014l-.446.002H22.451l-.08.002a.048.048 0 0 0-.017 0c.027-.006.055-.017.082-.017l.84-.003Z"/>
    <path fill="#89CEB2" d="M22.354 28.229h.016c0 .161 0 .322-.003.482 0 .03-.005.058-.009.087 0-.19-.003-.38-.004-.57v.001Zm.004 2.754c.003.034.009.069.009.103v7.651l.002.113c-.006-.03-.017-.059-.017-.088l-.001-3.422-.003-.105.003-.097v-4.051c0-.035.004-.07.006-.104Z"/>
    <path fill="#00A961" d="m27.478 29.689-.056-.003H24.29c-.019 0-.038.002-.056.003-.055.052-.107.108-.166.154-.077.06-.16.113-.24.169v1.492c1.187 0 2.375 0 3.563.002.064 0 .088-.014.088-.084-.003-.578-.002-1.156-.002-1.733Zm4.265 4.75.876.001v-1.82h-3.577c-.024 0-.048.003-.073.004l.002 1.816h2.772Zm-4.372 1.121-3.543-.002c-.001.472-.003.943-.003 1.415 0 .134.002.269.004.403h2.254l.097-.002c.015-.018.027-.039.044-.052l1.047-.786.206-.149v-.825l-.106-.002Zm5.248 0-1.832.001c-.567 0-1.133-.002-1.7-.003-.035 0-.07-.005-.104-.007a.02.02 0 0 0-.014.005l.003 1.817h.095l.649.002h2.903c.002-.03.004-.06.004-.089v-1.42c0-.102-.003-.204-.004-.307Zm-6.383-2.855.074-.082c-.016-.001-.032-.004-.048-.004h-2.437v1.23c0 .197.003.394.004.59h.065l3.153.001.43-.001v-1.814l-1.166-.002-.075.082Zm6.383-1.201v-1.281l.005-.518-.007-.017-.049-.002h-3.542c-.02 0-.038.002-.057.003v1.815h3.651Z"/>
    <path fill="#00A961" d="M31.808 31.505h.812c-.022.006-.043.016-.064.016h-3.543l-.054-.002c-.002-.025-.005-.048-.005-.071v-1.686c0-.024.01-.049.016-.073v1.816h2.838Z"/>
    <path fill="#00B47B" d="M23.829 31.503c1.187 0 2.375 0 3.563.002.064 0 .088-.014.088-.084-.003-.578-.002-1.156-.002-1.733.005.015.016.031.016.047v1.743c0 .01-.002.021-.005.042h-3.58c-.026 0-.053-.011-.08-.017Z"/>
    <path fill="#00A75C" d="M24.234 29.688c-.055.051-.106.107-.166.154-.076.06-.16.113-.24.169v-.323h.406Z"/>
    <path fill="#2AB785" d="M23.829 34.44h.064l3.153.001.43-.001h.014c-.024.006-.048.017-.073.017h-3.515c-.024 0-.049-.01-.073-.016Zm7.914 0h.876c-.024.006-.049.017-.073.017h-3.515c-.025 0-.05-.01-.073-.016.004 0 .01 0 .014-.002h2.771Z"/>
    <path fill="#7DCAAA" d="m27.477 35.562-.105-.003-3.543-.001c.025-.005.05-.014.075-.014h3.515c.024 0 .049.01.073.017h-.015Z"/>
    <path fill="#57BF96" d="M28.972 37.375h.095l.649.002h2.903c-.024.005-.05.016-.074.016h-3.514c-.024 0-.049-.01-.073-.016l.014-.002Zm-5.143.001h2.254c.033 0 .065-.002.097-.003l.414.003.883-.005.002.008c-.026.004-.051.012-.077.012h-3.5c-.024 0-.049-.01-.073-.015Z"/>
    <path fill="#7DCAAA" d="m30.786 35.562-1.7-.003c-.034 0-.069-.005-.103-.008.03-.002.058-.008.087-.008h3.459c.03 0 .06.011.09.017l-1.833.002Z"/>
    <path fill="#00B47B" d="M28.972 34.44a.137.137 0 0 1-.014 0l-.004-.84v-.896c0-.027.01-.054.016-.08l.002 1.815Zm-1.495 1.122a.048.048 0 0 1 .015-.001l.002 1.775c0 .014-.01.028-.014.043l-.003-.008v-1.809Zm1.495 1.811a.115.115 0 0 1-.014.002l-.004-.97v-.766c0-.028.01-.055.015-.082l.003 1.816ZM27.49 34.44h-.015l.002-1.815c.005.016.015.032.015.048v1.743l-.003.024Z"/>
    <path fill="#00A559" d="M27.477 36.387v.984l-.884.005-.413-.002c.015-.018.027-.039.044-.052l1.047-.786c.068-.051.137-.1.206-.15Z"/>
  </g>
  <circle cx="369.357" cy="351.724" r="27.864" fill="#F3F5F6"/>
  <circle cx="359.815" cy="361.912" r="3.524" fill="#E37400"/>
  <rect width="7.047" height="17.618" x="365.452" y="347.818" fill="#E37400" rx="3.524"/>
  <rect width="7.047" height="28.188" x="374.614" y="337.248" fill="#F9AB00" rx="3.524"/>
  <g clip-path="url(#f)">
    <rect width="42.987" height="40.873" x="36.299" y="165.303" fill="#fff" rx="20.436"/>
    <path fill="#2CA01C" d="M28.547 188.307v-5.058c.03-.142.073-.284.09-.427.414-3.762 1.453-7.343 3.344-10.623 5.053-8.761 12.648-13.671 22.721-14.543 5.476-.473 10.719.649 15.512 3.382 8.807 5.022 13.724 12.643 14.603 22.737.473 5.436-.63 10.645-3.324 15.417-5.008 8.867-12.645 13.817-22.784 14.708-5.416.476-10.591-.649-15.373-3.286-7.132-3.934-11.781-9.853-13.938-17.719-.413-1.508-.598-3.053-.85-4.588Zm29.715-6.365v13.962c0 .713.048.768.736.768 2.547-.001 5.095.046 7.64-.026 6.253-.179 11.381-6.046 10.186-12.727-1.02-5.704-5.886-9.399-11.735-9.037-.386.024-.567.162-.563.563.012.953.012 1.906 0 2.859-.005.413.195.543.575.542.567-.003 1.133-.003 1.7.067 3.534.439 6.176 3.333 6.19 6.801.012 3.544-2.568 6.471-6.112 6.925-1.278.164-2.562.052-3.844.073-.705.012-.754-.049-.755-.745-.004-2.108-.001-4.214-.002-6.322 0-4.763.004-9.528-.004-14.292-.003-1.908-1.36-3.56-3.17-3.898-.811-.152-.846-.126-.846.69v13.798l.004-.001Zm-3.133 7.639c0-4.655-.005-9.308.006-13.963.001-.49-.111-.747-.668-.741-2.565.023-5.133-.043-7.696.035-6.439.195-11.327 6.238-10.246 12.602.97 5.713 6.013 9.621 11.81 9.16.363-.028.53-.171.526-.541-.008-.952-.01-1.905.002-2.858.006-.398-.158-.564-.555-.562-.585.004-1.169 0-1.755-.072-3.351-.407-5.998-3.174-6.15-6.447-.16-3.468 2.108-6.429 5.49-7.176 1.323-.292 2.665-.153 4-.173 1.358-.021 1.215-.051 1.216 1.219.003 6.707-.002 13.413.004 20.12.001 1.937 1.37 3.598 3.205 3.925.78.138.81.114.81-.676v-13.852Z"/>
  </g>
  <circle cx="356.232" cy="185.737" r="28.188" fill="#FF5C35"/>
  <path fill="#fff" d="M346.306 171.643c.442.125.878.266 1.246.553.933.728 1.324 1.683 1.163 2.851-.029.218.028.34.188.465 2.401 1.866 4.8 3.736 7.2 5.605.514.399 1.03.794 1.539 1.199.128.102.22.113.357.008a7.109 7.109 0 0 1 3.038-1.344c.154-.03.221-.107.22-.26-.001-.972-.003-1.943.002-2.914.001-.168-.099-.237-.22-.314-1.387-.887-1.694-2.674-.644-3.939.705-.848 1.648-1.116 2.702-.843 1.064.276 1.726.992 1.904 2.082.188 1.152-.229 2.067-1.218 2.702-.148.095-.214.198-.212.375.006.925.007 1.851 0 2.777-.003.22.088.298.295.341 3.163.651 5.506 3.217 5.861 6.408.438 3.934-2.42 7.584-6.325 8.071-1.888.236-3.625-.171-5.189-1.261-.194-.135-.295-.119-.453.043-.75.766-1.509 1.524-2.273 2.275-.147.144-.188.275-.152.481.166.944-.148 1.73-.895 2.307-.759.588-1.616.68-2.484.261-.852-.41-1.34-1.108-1.366-2.064-.045-1.612 1.288-2.731 2.881-2.441.132.025.224.006.319-.09.807-.812 1.614-1.625 2.432-2.427.158-.155.089-.264.001-.402a7.231 7.231 0 0 1-1.171-4.034 7.092 7.092 0 0 1 1.057-3.707c.119-.194.122-.298-.07-.447-2.86-2.217-5.715-4.441-8.568-6.666-.126-.099-.232-.145-.395-.066-1.879.91-3.986-.393-4.194-2.32-.005-.045-.026-.087-.04-.131v-.385c.094-.543.235-1.067.561-1.525.473-.666 1.138-1.032 1.914-1.224h.989Zm16.124 12.815c-2.073-.001-3.74 1.644-3.745 3.699a3.73 3.73 0 0 0 3.74 3.768 3.724 3.724 0 0 0 3.725-3.721c.003-2.091-1.638-3.744-3.72-3.746Z"/>
  <defs>
    <clipPath id="b">
      <path fill="#fff" d="M175.125 314.697h56.376v56.305h-56.376z"/>
    </clipPath>
    <clipPath id="c">
      <path fill="#fff" d="M189.221 28.588h28.188v28.186h-28.188z"/>
    </clipPath>
    <clipPath id="d">
      <path fill="#fff" d="M359.758 15.2h19.68v28.187h-19.68z"/>
    </clipPath>
    <clipPath id="e">
      <path fill="#fff" d="M16.493 12.451h23.459v32.276h-23.46z"/>
    </clipPath>
    <clipPath id="f">
      <path fill="#fff" d="M28.547 157.549h56.376v56.456H28.547z"/>
    </clipPath>
    <linearGradient id="integrations-grid-a" x1="305.708" x2="305.708" y1="237.516" y2="333.782" gradientUnits="userSpaceOnUse">
      <stop stop-color="#333"/>
      <stop offset="1" stop-color="#fff" stop-opacity=".56"/>
    </linearGradient>
  </defs>
</svg>