<svg xmlns="http://www.w3.org/2000/svg" fill="none" viewBox="0 0 99 50">
  <g clip-path="url(#a)">
    <path fill="#9B9B9B" d="M90.94 6.601c.78.01 1.558.06 2.306.3 2.805.897 4.537 2.786 5.194 5.656.064.277.093.562.138.843v1.023c-.05.308-.088.62-.155.924-.52 2.352-1.853 4.094-4.002 5.174-1.222.616-2.537.83-3.915.707-.774-.07-1.561-.06-2.332.09-.79.151-1.385.602-1.842 1.254-.364.521-.733 1.04-1.104 1.557-.135.189-.26.388-.455.527-.364.258-.643.179-.803-.236-.145-.375-.175-.777-.24-1.168-.106-.654-.219-1.312-.254-1.973-.04-.745-.16-1.485-.114-2.239.038-.633.045-1.272-.018-1.907a1.76 1.76 0 0 1 .01-.43c.069-.467.071-.938.096-1.408.011-.202.178-.425.033-.596-.139-.163-.395-.015-.587-.093a.43.43 0 0 1-.049-.022c.147-.122.33-.146.504-.14.76.027 1.523.015 2.283.002 1.234-.02 2.184.476 2.885 1.48.385.552.771 1.103 1.17 1.645l.031.044c.151.197.314.396.594.339.286-.06.312-.322.352-.55.215-1.192.391-2.388.46-3.599.047-.823.12-1.646.096-2.47-.042-1.424-.115-2.848-.344-4.257-.026-.16-.091-.336.062-.477Z"/>
    <path fill="#fff" d="M19.907 37.905c0 1.623-.004 3.247.004 4.871.001.218-.053.292-.282.29-1.14-.012-2.28-.013-3.42 0-.24.002-.301-.066-.3-.301.007-3.087.003-6.172.005-9.259 0-.521-.076-1.018-.391-1.453a1.937 1.937 0 0 0-2.17-.733 1.973 1.973 0 0 0-1.391 1.88c-.003 3.166 0 6.333-.002 9.5 0 .41.035.359-.36.36H8.314c-.234 0-.351-.114-.351-.341 0-3.158.001-6.316-.001-9.474-.001-1.047-.718-1.863-1.74-1.997-1.078-.142-2.107.696-2.19 1.783-.009.116-.009.233-.009.35 0 3.121-.003 6.244.004 9.366 0 .239-.05.322-.308.319-1.15-.015-2.299-.01-3.448-.003-.194.002-.264-.043-.264-.251.006-3.203-.026-6.407.012-9.609.05-4.183 4.06-6.987 7.992-5.626.652.225 1.24.568 1.768 1.009.132.11.211.124.357.009 3.731-2.96 9.017-.865 9.715 3.848.036.247.052.5.053.75.005 1.57.002 3.14.002 4.71v.002Zm56.196-15.62c0-.24-.07-.304-.304-.302-1.14.011-2.28.012-3.421 0-.237-.003-.302.059-.3.298.01 1.866.005 3.732.005 5.598 0 .31-.001.31-.275.164-3.041-1.609-6.937-1-9.32 1.455-3.124 3.22-3.085 8.129.09 11.296 3.212 3.204 8.642 2.971 11.583-.495 1.294-1.525 1.933-3.289 1.936-5.285.002-2.073 0-4.144 0-6.217 0-2.072-.004-4.342.006-6.512Zm-7.977 16.777a3.95 3.95 0 0 1-3.929-3.926 3.924 3.924 0 0 1 3.957-3.939 3.921 3.921 0 0 1 3.916 3.926c0 2.17-1.777 3.946-3.944 3.939ZM38.774 28.11c0-.22-.071-.27-.277-.268-1.113.008-2.226.006-3.34.002-.245-.001-.503-.04-.385.395-1.794-.985-3.644-1.3-5.593-.902-1.952.4-3.534 1.411-4.748 2.989-2.055 2.67-2.174 6.4-.282 9.212 1.162 1.725 2.763 2.852 4.788 3.331 2.026.48 3.964.182 5.819-.839 0 .296.012.547-.004.797-.013.21.055.278.272.277 1.158-.01 2.316-.01 3.474 0 .213.001.275-.058.275-.272-.006-4.907-.006-9.815 0-14.722Zm-7.997 10.978c-2.164.004-3.956-1.777-3.959-3.934-.003-2.19 1.761-3.971 3.937-3.977a3.978 3.978 0 0 1 3.981 3.94c.016 2.153-1.793 3.966-3.959 3.97Zm26.657-10.964c0-.227-.069-.286-.29-.284-1.086.01-2.172.004-3.259.007-.142 0-.297-.046-.422.032-.103.064.011.223-.08.314-3.66-2.074-8.038-.864-10.286 2.107a7.985 7.985 0 0 0-.01 9.642 8.05 8.05 0 0 0 10.336 2.091c0 .274.012.516-.004.756-.015.217.05.296.281.294 1.15-.012 2.299-.011 3.448 0 .226.001.285-.07.285-.29-.006-4.89-.006-9.78 0-14.669Zm-8.007 10.95a3.943 3.943 0 0 1-3.947-3.96c.002-2.162 1.777-3.944 3.938-3.95 2.184-.007 3.967 1.784 3.964 3.98-.002 2.162-1.783 3.931-3.955 3.93Z"/>
    <path fill="#636363" d="M81.6 14.378a7.193 7.193 0 0 1-3.195-1.795c-1.328-1.272-2.098-2.837-2.259-4.658-.177-2.007.415-3.804 1.725-5.346 1.172-1.38 2.66-2.251 4.45-2.498 3.936-.541 7.566 1.644 8.49 5.814.03.13.043.265.064.397.043.056.024.12.025.181.002.278-.023.306-.3.327a7.782 7.782 0 0 0-2.373.56c-1.54.63-2.67 1.712-3.465 3.16-.576 1.047-.814 2.192-.977 3.36-.099.715-.002.682-.754.677h-.215c-.416.011-.811-.123-1.217-.18h.001Z"/>
    <path fill="gray" d="m82.845 14.534.08-.002c.767.002.626.045.725-.664.166-1.195.408-2.365 1.004-3.432 1.197-2.142 3.02-3.368 5.445-3.711.133-.02.266-.041.4-.05.367-.022.367-.02.376-.382.067.094.051.204.064.309.206 1.292.32 2.59.38 3.899.105 2.357-.115 4.684-.528 6.998-.048.266-.088.563-.414.626-.344.066-.567-.143-.756-.408a95.803 95.803 0 0 0-1.431-1.983c-.572-.764-1.366-1.122-2.302-1.143-1.013-.023-2.028-.005-3.041-.005-.037-.016-.038-.033-.002-.052Z"/>
    <path fill="#9B9B9B" d="m82.845 14.534.002.052a3.905 3.905 0 0 1-1.246-.207c.421-.002.821.171 1.244.155Z"/>
  </g>
  <defs>
    <clipPath id="a">
      <path fill="#fff" d="M0 0h98.631v50H0z"/>
    </clipPath>
  </defs>
</svg>