<svg xmlns="http://www.w3.org/2000/svg" fill="none" viewBox="0 0 211 30">
  <g fill="#fff" clip-path="url(#a)">
    <path fill-opacity=".5" d="M39.928.039S13.13.326 13.13 29.286h26.797V.039Z"/>
    <path fill-opacity=".8" d="M.366.039s26.798.287 26.798 29.247H.366V.039Z"/>
    <path d="M27.164 29.286H13.13c0-9.71 3.013-16.198 7.018-20.532 4.003 4.334 7.016 10.822 7.016 20.532Zm183.354-6.046c-.06-.012-.033-.172-.12-.097-.385.33-.869.365-1.326.397-1.584.111-3.027-.254-4.253-1.325-.963-.84-1.451-1.916-1.679-3.137-.126-.672-.092-1.354-.099-2.031-.024-2.189-.01-4.375-.007-6.564 0-.442 0-.442-.46-.442-.745 0-1.489-.005-2.232.007-.288.005-.396-.109-.394-.39.007-.858.005-1.719-.002-2.577 0-.259.101-.353.362-.344.402.015.806.008 1.207-.004 1.158-.037 2.051-.939 2.058-2.083a74.5 74.5 0 0 0-.007-1.949c-.005-.222.077-.3.297-.297.815.007 1.63.012 2.445 0 .264-.005.361.09.351.348-.046 1.187-.007 2.375-.005 3.565 0 .423.007.408.443.435.996.056 1.99.034 2.986.036.157 0 .288.082.438.08v3.178c-.184-.143-.365.012-.549.01-.934-.017-1.869-.005-2.803-.01-.525 0-.534-.003-.539.532a195.66 195.66 0 0 0-.003 2.541c.01 1.635-.046 3.27.039 4.905.058 1.158.999 2.123 2.15 2.278.573.077 1.139-.022 1.707 0v2.938h-.005ZM54.217 15.03V7.144c0-.414 0-.416.416-.414.45 0 .897-.022 1.34.145.623.235 1.14.586 1.486 1.161.117.191.22.227.392.05.748-.773 1.7-1.126 2.726-1.375.895-.215 1.763-.194 2.65.017 1.272.302 2.27.989 3.06 2.002.21.271.253.278.47.032.89-1.011 2.018-1.63 3.3-2.005a5.876 5.876 0 0 1 3.62.08c1.726.595 2.836 1.838 3.465 3.52.358.963.554 1.95.547 2.987-.02 3.168-.008 6.336-.008 9.504 0 .311-.16.468-.483.47-.936 0-1.872-.008-2.808.004-.242.003-.343-.06-.34-.314.006-.9-.006-1.8-.008-2.699-.005-2.46.038-4.919-.032-7.376-.05-1.746-1.586-3.3-3.535-3.023-.946.133-1.678.743-2.165 1.587a3.912 3.912 0 0 0-.532 1.976c-.002 3.138 0 6.275 0 9.414 0 .287-.143.43-.43.43-.946 0-1.891-.004-2.837.005-.242.003-.355-.067-.336-.321.015-.199 0-.4 0-.6-.017-3.149.012-6.297-.07-9.444-.048-1.82-1.637-3.305-3.545-3.05-.62.083-1.197.417-1.642.89-.718.765-1.045 1.684-1.045 2.729.005 3.107 0 6.217 0 9.325 0 .31-.151.466-.455.466-.945 0-1.89-.01-2.836.005-.295.005-.373-.096-.373-.38.01-2.638.005-5.276.005-7.915l.003.003Zm72.24 6.138c-.54.425-1.028.788-1.589 1.042a6.693 6.693 0 0 1-3.376.583c-.663-.053-1.325-.095-1.964-.288-1.552-.472-2.771-1.41-3.799-2.638-1.233-1.473-1.736-3.17-1.802-5.062-.053-1.494.249-2.875.989-4.167 1.224-2.133 3.072-3.42 5.485-3.9 1.746-.346 3.422-.085 5.023.672.404.19.747.471 1.049.796.131.14.196.113.288-.042.68-1.148 1.773-1.45 3.018-1.438.184 0 .249.094.247.26-.002.25 0 .501 0 .75 0 4.796 0 9.594-.005 14.39 0 1.67-.305 3.266-1.323 4.647-.8 1.084-1.835 1.858-3.134 2.286-.962.316-1.951.56-2.95.573-2.3.029-4.452-.48-6.218-2.08-.848-.771-1.344-1.758-1.75-2.8-.121-.31-.027-.43.309-.433.984-.005 1.971 0 2.955-.008.177 0 .329.049.402.21.865 1.926 4.017 2.557 6.062 1.474 1.152-.61 1.802-1.505 2.032-2.728.126-.668.043-1.352.051-2.107v.008ZM122.094 9.86c-.264.017-.525.004-.784.065-1.782.42-2.914 1.57-3.521 3.226-.788 2.155.143 4.597 2.145 5.756 1.185.684 2.421.945 3.744.362.629-.278 1.149-.684 1.63-1.163 1.504-1.504 1.879-3.744.858-5.603-.87-1.589-2.162-2.607-4.072-2.643Zm28.58 5.213V7.257c0-.51 0-.51.517-.51 1.122 0 2.044.397 2.67 1.354.138.21.22.136.368.015 1.419-1.159 3.025-1.739 4.87-1.442 1.48.24 2.692.97 3.606 2.16.138.181.213.24.399.036 1.257-1.356 2.8-2.15 4.672-2.27 1.175-.075 2.3.12 3.299.744 1.286.803 2.162 1.95 2.614 3.403.266.856.382 1.729.379 2.626-.012 3.159-.004 6.317-.004 9.473 0 .31-.162.466-.484.466h-2.655c-.436 0-.44 0-.44-.43-.003-3.229-.008-6.457-.003-9.683a3.18 3.18 0 0 0-.365-1.528c-.651-1.224-1.637-1.923-3.069-1.795-1.296.116-2.099.917-2.592 2.058-.218.5-.295 1.035-.295 1.582v9.383c0 .413 0 .413-.416.413h-2.747c-.409 0-.414-.004-.414-.423-.002-3.248 0-6.495-.015-9.743-.004-1.071-.457-1.964-1.291-2.634-1.492-1.194-3.594-.72-4.554 1a3.657 3.657 0 0 0-.466 1.808v9.564c0 .428 0 .428-.433.428-.926 0-1.853-.007-2.776.005-.247.003-.339-.043-.346-.326-.068-2.709.009-5.415-.029-7.923v.005ZM93.97 17.842c0 1.7-.005 3.398.005 5.098 0 .283-.077.394-.375.385a42.77 42.77 0 0 0-1.932 0c-.225.005-.356-.08-.438-.283-.128-.315-.273-.624-.404-.936-.087-.208-.188-.257-.374-.095a5.901 5.901 0 0 1-2.963 1.396c-2.02.329-4.007.273-5.772-.938-1.168-.803-1.795-1.952-1.89-3.362a7.69 7.69 0 0 1 .088-1.76c.184-1.118.808-1.923 1.727-2.525 1.143-.75 2.43-1.14 3.77-1.369a28.59 28.59 0 0 1 4.377-.428c.07 0 .14-.02.21-.017.273.005.353-.126.353-.39 0-1.62-1.064-2.703-2.7-2.746-.767-.022-1.525-.049-2.257.251-.697.286-1.229.718-1.46 1.451-.056.172-.153.235-.33.235a250.937 250.937 0 0 0-3.018 0c-.237 0-.295-.107-.283-.312.066-1.093.506-2.024 1.248-2.82.98-1.052 2.276-1.521 3.625-1.84 2.111-.499 4.152-.25 6.039.827 1.555.887 2.406 2.28 2.653 4.043.15 1.064.08 2.133.094 3.2.014.979.002 1.958.002 2.938h.007l-.002-.003Zm-3.52-1.214c0-.527 0-.515-.523-.522-1.14-.02-2.269.126-3.393.268-.84.107-1.671.308-2.39.78-1.12.732-1.027 2.415.175 2.993.991.476 2.04.549 3.112.256 1.903-.52 3.01-1.9 3.018-3.772v-.003Zm49.764-10.024c2.773-.004 4.914.973 6.57 2.927 1.127 1.332 1.683 2.926 1.836 4.645.116 1.31.017 2.612-.416 3.874-.803 2.331-2.341 3.976-4.634 4.91-2.145.872-4.329.812-6.447-.018-2.034-.795-3.448-2.302-4.326-4.297-1.016-2.312-1.031-4.68-.09-6.974 1.11-2.704 3.159-4.402 6.106-4.938.528-.097 1.055-.148 1.401-.131v.002Zm-.373 13.693c1.376-.003 2.23-.242 2.963-.806 1.477-1.139 2.171-2.679 2.171-4.505 0-1.589-.626-2.943-1.784-4.058-1.422-1.37-3.8-1.518-5.338-.28-1.417 1.144-2.142 2.667-2.183 4.46-.037 1.595.609 2.964 1.782 4.05.788.73 1.746 1.12 2.389 1.136v.003Zm43.618-3.171c0-1.869-.024-3.738.01-5.608.019-1.059-.034-2.116-.002-3.175.012-.44.024-.878.026-1.318 0-.184.07-.273.264-.28 1.214-.046 2.251.28 2.916 1.376.131.215.249.142.385.026 1.018-.868 2.225-1.32 3.531-1.502 1.835-.253 3.593.015 5.122 1.103 1.296.924 2.239 2.136 2.648 3.715.196.752.295 1.502.29 2.278-.015 2.198 0 4.396.002 6.595 0 .9-.017 1.796-.007 2.696 0 .23-.08.29-.297.288a122.21 122.21 0 0 0-2.84 0c-.287.005-.345-.107-.353-.37-.082-2.898-.021-5.797-.031-8.694-.005-1.108-.305-2.097-1.028-2.934-1.688-1.951-4.111-1.835-5.782-.348-.897.798-1.306 1.797-1.294 3.009.027 2.967.01 5.936.012 8.906 0 .416-.007.426-.413.426h-2.779c-.392 0-.394 0-.394-.406v-5.787h.014v.004Zm-86.651-2.094V7.267c0-.518 0-.515.51-.52.767-.005 1.475.16 2.08.66.237.196.42.433.57.692.122.213.221.242.409.077 1.018-.887 2.235-1.352 3.55-1.526 2.356-.31 4.467.235 6.157 1.971 1.067 1.098 1.652 2.44 1.841 3.957.06.478.063.955.063 1.436v8.875c0 .426 0 .428-.433.428h-2.718c-.429 0-.433 0-.429-.44.008-.858.042-1.72.029-2.578-.021-1.697.01-3.398-.004-5.095-.008-.716.041-1.442-.097-2.152-.295-1.538-1.623-2.886-3.163-3.15-2.281-.388-4.387 1.215-4.723 3.292-.191 1.18-.097 2.373-.104 3.56a653.717 653.717 0 0 0-.01 6.263c0 .247-.084.305-.312.303-.936-.01-1.872-.003-2.807-.005-.395 0-.404-.008-.404-.404v-7.884h-.003l-.002.005Zm80.118-.007V7.17c0-.413.008-.435.419-.416.974.046 1.951.051 2.926.02.215-.008.227.123.227.268.003.53 0 1.057 0 1.587.003 4.776.005 9.554.012 14.33 0 .269-.077.37-.36.368-.946-.015-1.891-.005-2.837-.005-.389 0-.389 0-.389-.409v-7.886l.002-.002Zm3.901-12.761c.133 1.023-.82 2.099-2.136 2.094-1.175-.005-2.176-.987-2.176-2.15 0-1.069 1.001-2.017 2.15-1.995 1.306.024 2.258.873 2.162 2.05Z"/>
  </g>
  <defs>
    <clipPath id="a">
      <path fill="#fff" d="M.366.039H210.52v29.6H.366z"/>
    </clipPath>
  </defs>
</svg>