<svg xmlns="http://www.w3.org/2000/svg" fill="none" viewBox="0 0 104 26">
  <path fill="#fff" d="M2.272 7.9c.096-.111.173-.2.25-.284.61-.669 1.36-1.134 2.201-1.472a6.461 6.461 0 0 1 2.283-.472c.96-.02 1.89.138 2.774.522.738.323 1.41.734 1.964 1.322.3.319.576.653.787 1.038.104.184.12.188.266.027.21-.235.418-.477.618-.723a4.75 4.75 0 0 1 .58-.565c.93-.784 1.99-1.314 3.197-1.518 1.657-.28 3.232-.034 4.677.834 1.433.861 2.325 2.129 2.72 3.74.185.76.258 1.536.254 2.32-.004 2.525 0 5.05 0 7.574v.119c-.011.177-.03.204-.207.227-.461.061-.922.03-1.387.03-.173 0-.243-.073-.273-.242a.776.776 0 0 1-.008-.211c.03-.211.027-.427.027-.638 0-1.871.015-3.739-.008-5.61-.011-.93-.023-1.86-.18-2.782-.231-1.372-.946-2.41-2.148-3.113-.515-.3-1.076-.457-1.676-.518a5.925 5.925 0 0 0-1.356.034c-.665.085-1.257.346-1.814.692a6.875 6.875 0 0 0-2.171 2.102c-.142.219-.227.45-.204.714.212 2.56.07 5.127.116 7.686.007.488.046.976 0 1.464-.008.069 0 .142-.016.211-.03.15-.107.215-.265.22-.438 0-.876 0-1.314-.009-.196 0-.27-.076-.273-.276 0-.12.02-.235.023-.354.027-2.225.027-4.45.004-6.674-.008-.827-.046-1.657-.234-2.467-.327-1.418-1.16-2.444-2.506-3.028-.71-.308-1.468-.404-2.248-.323-.6.061-1.176.2-1.725.45-.895.41-1.599 1.045-2.236 1.779-.366.422-.515.887-.504 1.433.058 2.878.023 5.756.035 8.638 0 .18.015.361.011.546-.004.18-.046.223-.219.25-.446.061-.891.03-1.337.03-.123 0-.192-.073-.211-.188-.016-.1-.02-.204-.02-.307V6.52c0-.089 0-.173.012-.261.027-.185.092-.243.28-.258h.073c.373.012.75.023 1.123.042.165.008.207.05.238.212.019.092.023.188.023.28 0 .346-.008.696-.008 1.042 0 .092-.011.188.035.322h-.023Zm41.991 10.737-.096.103c-1.03 1.226-2.382 1.872-3.938 2.133-1.549.258-3.04.027-4.446-.653-2.09-1.018-3.42-2.66-3.997-4.892a8.1 8.1 0 0 1-.276-2.106c.004-.434.065-.864.142-1.29a7.829 7.829 0 0 1 1.437-3.344c1.038-1.395 2.429-2.248 4.104-2.686.503-.134 1.014-.184 1.533-.207a6.788 6.788 0 0 1 2.083.207 7.53 7.53 0 0 1 3.14 1.691c.118.104.2.246.341.33.066-.061.043-.134.039-.2l-.039-1.348c0-.062 0-.127.004-.188.004-.1.062-.158.162-.177a.893.893 0 0 1 .142-.016h1.126c.053 0 .111.012.165.02.157.019.238.115.253.265.008.077.016.157.016.234v13.58c0 .48-.066.542-.554.542h-1.099c-.192 0-.21-.008-.21-.196-.005-.503 0-1.01 0-1.514 0-.085.014-.173-.035-.288h.003ZM33.44 13.44c0 .281.03.658.092 1.034.088.523.254 1.026.476 1.506.4.865.973 1.587 1.764 2.133a5.773 5.773 0 0 0 3.512 1.038 5.17 5.17 0 0 0 2.164-.523c.96-.473 1.744-1.141 2.397-1.987.308-.395.465-.81.45-1.306-.038-1.065-.046-2.129-.038-3.193 0-.15 0-.3.011-.45a6.83 6.83 0 0 0-.008-1.156.99.99 0 0 0-.215-.516c-.415-.537-.922-.98-1.471-1.375-1.418-1.015-2.99-1.399-4.708-1.05-1.56.316-2.77 1.161-3.589 2.53-.591.99-.833 2.07-.837 3.312v.003Zm63.61.086h-5.503c-.376 0-.376 0-.346.365a6.144 6.144 0 0 0 1.292 3.332 4.722 4.722 0 0 0 2.64 1.737c1.471.372 2.916.269 4.288-.4a5.55 5.55 0 0 0 1.802-1.38c.146-.172.169-.176.334-.015.296.288.588.58.88.869.035.034.069.069.096.103.108.135.104.18-.004.308a6.2 6.2 0 0 1-1.314 1.164 8.147 8.147 0 0 1-3.72 1.318 7.639 7.639 0 0 1-3.546-.453c-1.86-.711-3.174-1.98-3.985-3.77-.453-1-.665-2.048-.695-3.143a8.579 8.579 0 0 1 .43-2.96c.415-1.244 1.091-2.324 2.079-3.212a6.51 6.51 0 0 1 2.613-1.433c1.71-.488 3.381-.361 4.976.43 2.079 1.034 3.243 2.733 3.604 4.984.1.62.07 1.242.066 1.868 0 .219-.069.277-.289.292h-5.694l-.004-.004Zm-.834-1.752h4.519c.088 0 .177 0 .261-.008.196-.019.235-.069.185-.265-.292-1.172-.838-2.19-1.806-2.963a4.676 4.676 0 0 0-1.84-.922 5.39 5.39 0 0 0-1.757-.107 4.671 4.671 0 0 0-2.321.86c-.826.584-1.406 1.364-1.817 2.271-.124.273-.227.554-.331.838-.088.25-.07.277.188.284.185.008.365.008.55.008h4.161l.008.004Zm-43.79.868c.073-.453.038-.899.126-1.333a1.18 1.18 0 0 0 .02-.115c.1-.877.265-1.745.345-2.621.039-.407.146-.807.25-1.203.085-.327.135-.66.227-.991.134-.488.277-.972.442-1.449.215-.634.45-1.264.718-1.879.373-.85.827-1.652 1.28-2.455l.023-.043c.2-.319.35-.353.661-.142.269.185.553.342.841.496.266.142.3.246.143.51-.15.262-.277.535-.415.8a22.676 22.676 0 0 0-1.05 2.386A25.288 25.288 0 0 0 54.9 8.63c-.127.642-.207 1.292-.307 1.937a.717.717 0 0 0-.008.096c-.015 1.118-.104 2.24-.038 3.359.034.565 0 1.137.161 1.69.05.173.046.358.07.538.026.212.05.423.126.627a.73.73 0 0 1 .046.184c.108.83.334 1.633.58 2.433.216.703.446 1.398.719 2.082.23.58.5 1.142.768 1.706.15.316.289.634.473.93.03.046.05.1.07.15.057.154.038.254-.104.323-.37.173-.688.434-1.05.615-.307.153-.438.119-.603-.18-.41-.75-.841-1.484-1.195-2.264a21.767 21.767 0 0 1-1.064-2.909c-.28-.938-.507-1.89-.657-2.855-.096-.615-.154-1.237-.239-1.852-.057-.404-.038-.819-.153-1.218a.758.758 0 0 1-.016-.092c-.015-.435.008-.869-.065-1.284l.012-.004Zm16.718 4.78v3.006c-.015.172-.057.226-.234.234a5.546 5.546 0 0 1-.669-.004 8.379 8.379 0 0 0-.618-.035c-.335-.007-.4-.069-.396-.41.004-.228.034-.458.038-.685 0-1.43.004-2.855 0-4.284 0-.27-.023-.534-.042-.803-.011-.154-.05-.193-.204-.208-.073-.008-.142-.004-.215-.004-1.498 0-2.997.004-4.496 0-.35 0-.699.016-1.049.039-.08.003-.161 0-.238-.008-.154-.02-.2-.058-.204-.207a43.525 43.525 0 0 1 0-1.419c0-.195.062-.25.266-.253a4.62 4.62 0 0 1 .691.02c.15.018.304.022.454.022h4.761c.246-.011.284-.05.284-.3V7.037c0-.235-.035-.473-.042-.707-.008-.27.053-.315.319-.308.388.008.78.008 1.168.012.073 0 .142 0 .215.008.161.019.2.061.211.226.004.062 0 .127 0 .189v5.418c0 .119 0 .238.012.353.011.12.08.185.2.196.073.004.142.004.215.004 1.913 0 3.827 0 5.74-.004.193 0 .293.108.27.323-.027.261-.016.519-.02.78 0 .165.004.33.027.496.024.184-.034.242-.222.253h-.073c-.78-.077-1.56-.03-2.344-.038-1.165-.008-2.33 0-3.493 0h-.096c-.181.008-.212.03-.22.204-.007.165-.003.33-.003.495v2.486h.007Zm14.676-4.465c.03.78-.05 1.557-.111 2.337-.05.614-.139 1.222-.212 1.832-.023.216-.096.415-.142.623-.138.63-.288 1.26-.461 1.883a23.488 23.488 0 0 1-1.241 3.424c-.143.319-.32.618-.48.926-.193.365-.385.726-.573 1.091-.215.423-.3.446-.715.196-.257-.157-.53-.292-.772-.473-.07-.053-.139-.103-.192-.176-.066-.093-.081-.185-.035-.289.062-.13.104-.265.177-.388.338-.591.591-1.222.868-1.84a19.84 19.84 0 0 0 .688-1.818c.17-.519.327-1.041.469-1.564.2-.715.373-1.433.496-2.167.153-.903.226-1.814.276-2.724a20.932 20.932 0 0 0-.088-3.067c-.08-.85-.25-1.683-.407-2.52-.146-.78-.389-1.53-.592-2.29-.127-.477-.311-.942-.496-1.407-.173-.434-.338-.869-.523-1.295-.111-.261-.234-.515-.357-.773-.146-.315-.265-.641-.457-.933a.543.543 0 0 1-.089-.242c-.015-.127.008-.239.116-.315.096-.07.188-.15.292-.204.242-.127.46-.277.688-.427.3-.2.491-.107.626.12a.76.76 0 0 1 .077.146c.127.36.334.68.518 1.01.316.557.57 1.145.819 1.733.25.588.461 1.191.676 1.795.13.365.208.745.32 1.114.226.78.387 1.58.518 2.379.092.564.177 1.133.196 1.713.02.52.077 1.038.111 1.557.023.346.004.695.004 1.041l.008-.008Z"/>
</svg>