<svg xmlns="http://www.w3.org/2000/svg" fill="none" viewBox="0 0 311 1102">
  <path stroke="#71717A" stroke-dasharray="4 4" d="M147.797 394.743v219.531"/>
  <rect width="119" height="22" x="91" y="612.92" fill="#D9D9D9" rx="11"/>
  <path fill="#000" d="M104.188 627.92v-8.4h2.916c2.64 0 4.464 1.812 4.464 4.176v.024c0 2.364-1.824 4.2-4.464 4.2h-2.916Zm.948-.876h1.968c2.124 0 3.48-1.44 3.48-3.3v-.024c0-1.86-1.356-3.324-3.48-3.324h-1.968v6.648Zm7.698.876 3.828-8.46h.888l3.828 8.46h-1.02l-.984-2.22h-4.572l-.996 2.22h-.972Zm2.34-3.072h3.828l-1.908-4.284-1.92 4.284Zm9.533 3.072v-7.524h-2.82v-.876h6.6v.876h-2.82v7.524h-.96Zm4.294 0 3.828-8.46h.888l3.828 8.46h-1.02l-.984-2.22h-4.572l-.996 2.22h-.972Zm2.34-3.072h3.828l-1.908-4.284-1.92 4.284Zm16.419 3.216c-2.556 0-4.272-2.004-4.272-4.32v-.024c0-2.316 1.74-4.344 4.296-4.344s4.272 2.004 4.272 4.32v.024c0 2.316-1.74 4.344-4.296 4.344Zm.024-.876c1.92 0 3.288-1.536 3.288-3.444v-.024c0-1.908-1.392-3.468-3.312-3.468s-3.288 1.536-3.288 3.444v.024c0 1.908 1.392 3.468 3.312 3.468Zm10.162.864c-2.076 0-3.492-1.272-3.492-3.648v-4.884h.948v4.824c0 1.812.96 2.832 2.568 2.832 1.548 0 2.532-.936 2.532-2.772v-4.884h.948v4.812c0 2.448-1.404 3.72-3.504 3.72Zm8.496-.132v-7.524h-2.82v-.876h6.6v.876h-2.82v7.524h-.96Zm6.092 0v-8.4h3.144c1.896 0 3.144 1.008 3.144 2.664v.024c0 1.812-1.512 2.748-3.3 2.748h-2.04v2.964h-.948Zm.948-3.828h2.076c1.392 0 2.304-.744 2.304-1.848v-.024c0-1.2-.9-1.824-2.256-1.824h-2.124v3.696Zm10.958 3.96c-2.076 0-3.492-1.272-3.492-3.648v-4.884h.948v4.824c0 1.812.96 2.832 2.568 2.832 1.548 0 2.532-.936 2.532-2.772v-4.884h.948v4.812c0 2.448-1.404 3.72-3.504 3.72Zm8.496-.132v-7.524h-2.82v-.876h6.6v.876h-2.82v7.524h-.96Z"/>
  <rect width="104" height="22" x="98.5" y="375.215" fill="#D9D9D9" rx="11"/>
  <path fill="#000" d="M111.688 390.215v-8.4h2.916c2.64 0 4.464 1.812 4.464 4.176v.024c0 2.364-1.824 4.2-4.464 4.2h-2.916Zm.948-.876h1.968c2.124 0 3.48-1.44 3.48-3.3v-.024c0-1.86-1.356-3.324-3.48-3.324h-1.968v6.648Zm7.698.876 3.828-8.46h.888l3.828 8.46h-1.02l-.984-2.22h-4.572l-.996 2.22h-.972Zm2.34-3.072h3.828l-1.908-4.284-1.92 4.284Zm9.533 3.072v-7.524h-2.82v-.876h6.6v.876h-2.82v7.524h-.96Zm4.294 0 3.828-8.46h.888l3.828 8.46h-1.02l-.984-2.22h-4.572l-.996 2.22h-.972Zm2.34-3.072h3.828l-1.908-4.284-1.92 4.284Zm12.603 3.072v-8.4h.948v8.4h-.948Zm3.939 0v-8.4h.888l5.292 6.732v-6.732h.924v8.4h-.756l-5.424-6.888v6.888h-.924Zm10.011 0v-8.4h3.144c1.896 0 3.144 1.008 3.144 2.664v.024c0 1.812-1.512 2.748-3.3 2.748h-2.04v2.964h-.948Zm.948-3.828h2.076c1.392 0 2.304-.744 2.304-1.848v-.024c0-1.2-.9-1.824-2.256-1.824h-2.124v3.696Zm10.958 3.96c-2.076 0-3.492-1.272-3.492-3.648v-4.884h.948v4.824c0 1.812.96 2.832 2.568 2.832 1.548 0 2.532-.936 2.532-2.772v-4.884h.948v4.812c0 2.448-1.404 3.72-3.504 3.72Zm8.496-.132v-7.524h-2.82v-.876h6.6v.876h-2.82v7.524h-.96Z"/>
  <g filter="url(#a)">
    <rect width="151.705" height="151.705" x="74.647" y="429.215" fill="#18181B" rx="6.372"/>
  </g>
  <path fill="#fff" fill-opacity=".4" fill-rule="evenodd" d="m153.721 538.697-39.474-68.372h78.949-52.284l26.142 45.28-13.333 23.092Z" clip-rule="evenodd"/>
  <path fill="#fff" fill-opacity=".6" fill-rule="evenodd" d="m166.893 470.325 13.152 22.779 13.151-22.779-26.142 45.279-26.142-45.279h25.981Z" clip-rule="evenodd"/>
  <path fill="#fff" d="m180.045 493.104-13.152-22.779h26.303l-13.151 22.779Z"/>
  <path stroke="#71717A" stroke-dasharray="4 4" d="M66.277 1075.01h-35c-16.568 0-30-13.43-30-30V682.832"/>
  <path stroke="#71717A" stroke-dasharray="4 4" d="M66.277 980.314h-35c-16.568 0-30-13.431-30-30v-71.61m229-846.898h35c16.569 0 30 13.431 30 30v71.61"/>
  <path stroke="#71717A" stroke-dasharray="4 4" d="M66.277 903.619h-35c-16.568 0-30-13.431-30-30v-71.61m229-693.508h35c16.569 0 30 13.431 30 30v71.61"/>
  <path stroke="#71717A" stroke-dasharray="4 4" d="M66.277 826.925h-35c-16.568 0-30-13.432-30-30v-71.611m229-540.118h35c16.569 0 30 13.431 30 30v71.61"/>
  <path stroke="#71717A" stroke-dasharray="4 4" d="M66.277 745.62h-35c-16.568 0-30-13.432-30-30v-32.014m229-417.106h35c16.569 0 30 13.432 30 30v32.015m-294 354.317v-29.268c0-16.569 13.432-30 30-30h71.611m192.389-294.276v29.268c0 16.569-13.431 30-30 30h-71.61"/>
  <rect width="288" height="63" x="22.893" y="1038.21" fill="#18181B" rx="5"/>
  <path fill="#fff" d="M77.477 1074.21v-11.2h4.192c2.528 0 4.192 1.34 4.192 3.55v.03c0 2.42-2.016 3.67-4.4 3.67h-2.72v3.95h-1.264Zm1.264-5.1h2.768c1.856 0 3.072-1 3.072-2.47v-.03c0-1.6-1.2-2.43-3.008-2.43h-2.832v4.93Zm12.913 5.29c-2.48 0-4.287-1.95-4.287-4.29v-.03c0-2.33 1.823-4.32 4.32-4.32 2.48 0 4.303 1.95 4.303 4.29v.03c0 2.34-1.84 4.32-4.335 4.32Zm.032-1.1c1.792 0 3.04-1.44 3.04-3.19v-.03c0-1.77-1.328-3.23-3.072-3.23-1.791 0-3.023 1.46-3.023 3.2v.03c0 1.78 1.311 3.22 3.055 3.22Zm6.536.91v-8.27h1.232v2.16c.608-1.38 1.808-2.37 3.376-2.31v1.33h-.096c-1.808 0-3.28 1.3-3.28 3.79v3.3h-1.232Zm9.253.14c-1.328 0-2.336-.65-2.336-2.33v-4.99h-1.152v-1.09h1.152v-2.5h1.232v2.5h2.624v1.09h-2.624v4.83c0 1.01.56 1.37 1.392 1.37.416 0 .768-.08 1.2-.28v1.05c-.432.23-.896.35-1.488.35Zm4.164-.14v-7.18h-1.136v-1.08h1.136v-.72c0-.94.256-1.66.72-2.12.416-.42 1.024-.64 1.776-.64.576 0 .96.06 1.36.2v1.08c-.448-.13-.784-.21-1.2-.21-.96 0-1.44.57-1.44 1.76v.67h2.624v1.06h-2.608v7.18h-1.232Zm9.031.19c-2.48 0-4.288-1.95-4.288-4.29v-.03c0-2.33 1.824-4.32 4.32-4.32 2.48 0 4.304 1.95 4.304 4.29v.03c0 2.34-1.84 4.32-4.336 4.32Zm.032-1.1c1.792 0 3.04-1.44 3.04-3.19v-.03c0-1.77-1.328-3.23-3.072-3.23-1.792 0-3.024 1.46-3.024 3.2v.03c0 1.78 1.312 3.22 3.056 3.22Zm6.648.91v-11.68h1.232v11.68h-1.232Zm4.123-10.08v-1.36h1.408v1.36h-1.408Zm.08 10.08v-8.27h1.232v8.27h-1.232Zm7.867.19c-2.48 0-4.288-1.95-4.288-4.29v-.03c0-2.33 1.824-4.32 4.32-4.32 2.48 0 4.304 1.95 4.304 4.29v.03c0 2.34-1.84 4.32-4.336 4.32Zm.032-1.1c1.792 0 3.04-1.44 3.04-3.19v-.03c0-1.77-1.328-3.23-3.072-3.23-1.792 0-3.024 1.46-3.024 3.2v.03c0 1.78 1.312 3.22 3.056 3.22Zm11.541.91v-11.2h4.816c1.376 0 2.48.42 3.184 1.12.544.54.864 1.33.864 2.21v.03c0 1.86-1.28 2.94-3.04 3.26l3.44 4.58h-1.552l-3.248-4.35h-3.2v4.35h-1.264Zm1.264-5.49h3.44c1.68 0 2.88-.86 2.88-2.3v-.03c0-1.38-1.056-2.21-2.864-2.21h-3.456v4.54Zm10.67 1.86c.176 1.74 1.456 2.75 2.912 2.75 1.136 0 1.936-.46 2.608-1.17l.768.69c-.832.93-1.84 1.55-3.408 1.55-2.272 0-4.128-1.74-4.128-4.32 0-2.4 1.68-4.32 3.968-4.32 2.448 0 3.856 1.95 3.856 4.39 0 .11 0 .24-.016.43h-6.56Zm0-.99h5.328c-.144-1.51-1.008-2.79-2.64-2.79-1.424 0-2.512 1.19-2.688 2.79Zm11.095 4.68-3.584-8.33h1.36l2.784 6.86 2.8-6.86h1.328l-3.6 8.33h-1.088Zm6.654-10.14v-1.36h1.408v1.36h-1.408Zm.08 10.08v-8.27h1.232v8.27h-1.232Zm4.827-3.63c.176 1.74 1.456 2.75 2.912 2.75 1.136 0 1.936-.46 2.608-1.17l.768.69c-.832.93-1.84 1.55-3.408 1.55-2.272 0-4.128-1.74-4.128-4.32 0-2.4 1.68-4.32 3.968-4.32 2.448 0 3.856 1.95 3.856 4.39 0 .11 0 .24-.016.43h-6.56Zm0-.99h5.328c-.144-1.51-1.008-2.79-2.64-2.79-1.424 0-2.512 1.19-2.688 2.79Zm10.519 4.68-2.896-8.33h1.312l2.176 6.64 2.224-6.67h1.024l2.24 6.67 2.176-6.64h1.28l-2.912 8.33h-1.072l-2.224-6.52-2.24 6.52h-1.088Zm16.594-.06v-11.2h3.888c3.52 0 5.952 2.42 5.952 5.57v.03c0 3.15-2.432 5.6-5.952 5.6h-3.888Zm1.264-1.17h2.624c2.832 0 4.64-1.92 4.64-4.4v-.03c0-2.48-1.808-4.43-4.64-4.43h-2.624v8.86Zm13.508 1.35c-1.552 0-3.088-.88-3.088-2.58v-.03c0-1.78 1.44-2.71 3.536-2.71 1.056 0 1.792.15 2.528.36v-.26c0-1.47-.896-2.24-2.448-2.24-.976 0-1.744.24-2.512.59l-.368-1.01c.912-.41 1.792-.7 3.008-.7 1.168 0 2.08.32 2.672.91.576.58.864 1.38.864 2.43v5.06h-1.216v-1.23c-.576.73-1.52 1.41-2.976 1.41Zm.24-1c1.52 0 2.752-.91 2.752-2.22v-.77a8.735 8.735 0 0 0-2.416-.35c-1.536 0-2.416.67-2.416 1.66v.04c0 1.04.96 1.64 2.08 1.64Zm9.297.98c-1.184 0-2.496-.46-3.424-1.22l.624-.88c.896.68 1.888 1.06 2.864 1.06.992 0 1.712-.51 1.712-1.31v-.03c0-.84-.976-1.16-2.064-1.46-1.296-.37-2.736-.82-2.736-2.34v-.03c0-1.42 1.184-2.37 2.816-2.37 1.008 0 2.128.36 2.976.92l-.56.92c-.768-.49-1.648-.8-2.448-.8-.976 0-1.6.52-1.6 1.2v.04c0 .78 1.024 1.08 2.128 1.42 1.28.38 2.656.88 2.656 2.37v.03c0 1.57-1.296 2.48-2.944 2.48Zm5.233-.16v-11.68h1.232v4.85c.544-.9 1.408-1.62 2.832-1.62 2 0 3.168 1.35 3.168 3.31v5.14h-1.232v-4.83c0-1.54-.832-2.5-2.288-2.5-1.424 0-2.48 1.04-2.48 2.59v4.74h-1.232Zm14.259.18c-1.536 0-2.528-.84-3.168-1.76v1.58h-1.232v-11.68h1.232v5.07c.672-.99 1.648-1.84 3.168-1.84 1.984 0 3.952 1.57 3.952 4.29v.03c0 2.71-1.952 4.31-3.952 4.31Zm-.224-1.11c1.6 0 2.912-1.18 2.912-3.18v-.03c0-1.96-1.344-3.2-2.912-3.2-1.536 0-2.992 1.29-2.992 3.18v.03c0 1.92 1.456 3.2 2.992 3.2Zm10.225 1.12c-2.48 0-4.288-1.95-4.288-4.29v-.03c0-2.33 1.824-4.32 4.32-4.32 2.48 0 4.304 1.95 4.304 4.29v.03c0 2.34-1.84 4.32-4.336 4.32Zm.032-1.1c1.792 0 3.04-1.44 3.04-3.19v-.03c0-1.77-1.328-3.23-3.072-3.23-1.792 0-3.024 1.46-3.024 3.2v.03c0 1.78 1.312 3.22 3.056 3.22Zm9 1.09c-1.552 0-3.088-.88-3.088-2.58v-.03c0-1.78 1.44-2.71 3.536-2.71 1.056 0 1.792.15 2.528.36v-.26c0-1.47-.896-2.24-2.448-2.24-.976 0-1.744.24-2.512.59l-.368-1.01c.912-.41 1.792-.7 3.008-.7 1.168 0 2.08.32 2.672.91.576.58.864 1.38.864 2.43v5.06h-1.216v-1.23c-.576.73-1.52 1.41-2.976 1.41Zm.24-1c1.52 0 2.752-.91 2.752-2.22v-.77a8.735 8.735 0 0 0-2.416-.35c-1.536 0-2.416.67-2.416 1.66v.04c0 1.04.96 1.64 2.08 1.64Zm6.562.82v-8.27h1.232v2.16c.608-1.38 1.808-2.37 3.376-2.31v1.33h-.096c-1.808 0-3.28 1.3-3.28 3.79v3.3h-1.232Zm9.612.18c-1.984 0-3.952-1.57-3.952-4.29v-.03c0-2.71 1.968-4.31 3.952-4.31 1.536 0 2.528.83 3.168 1.76v-4.99h1.232v11.68h-1.232v-1.66c-.672.99-1.648 1.84-3.168 1.84Zm.224-1.11c1.536 0 2.992-1.29 2.992-3.2v-.03c0-1.9-1.456-3.18-2.992-3.18-1.6 0-2.912 1.18-2.912 3.18v.03c0 1.95 1.344 3.2 2.912 3.2Z"/>
  <rect width="28.372" height="28.372" x="36.707" y="1055.52" stroke="url(#b)" stroke-width="1.628" rx="7.186"/>
  <path fill="url(#c)" d="m58.7 1062.21-.809-.81-7.596 7.6a.553.553 0 0 0-.16.4.58.58 0 0 0 .167.4.585.585 0 0 0 .801 0l2.389-2.38c.444.62.665 1.38.627 2.15-.038.76-.333 1.5-.836 2.07-.504.58-1.188.98-1.943 1.12-.754.15-1.535.03-2.217-.32a3.401 3.401 0 0 1-1.544-1.62 3.429 3.429 0 0 1-.21-2.23c.181-.75.608-1.41 1.213-1.89.604-.47 1.35-.73 2.117-.73v-1.14c-1.034 0-2.04.35-2.85.99s-1.38 1.54-1.614 2.55a4.579 4.579 0 0 0 8.008 3.93 4.612 4.612 0 0 0 1.027-2.84 4.572 4.572 0 0 0-.961-2.86l1.627-1.63a6.809 6.809 0 0 1 1.62 4.43c0 1.36-.402 2.68-1.155 3.81a6.773 6.773 0 0 1-3.078 2.52 6.804 6.804 0 0 1-3.961.39 6.806 6.806 0 0 1-3.511-1.87 6.859 6.859 0 0 1 4.848-11.71v-1.14c-1.582 0-3.128.47-4.444 1.35a7.993 7.993 0 0 0-3.402 8.21 8.023 8.023 0 0 0 2.19 4.1 8.076 8.076 0 0 0 4.096 2.19 8.008 8.008 0 0 0 9.56-7.85 7.92 7.92 0 0 0-1.955-5.24l1.955-1.95Z"/>
  <rect width="277" height="63" x="22.893" y="795.21" fill="#18181B" rx="5"/>
  <path fill="#fff" d="m87.685 831.546-1.472-1.344c-.944.752-2.144 1.2-3.536 1.2-3.408 0-5.696-2.672-5.696-5.76v-.032c0-3.088 2.32-5.792 5.728-5.792s5.696 2.672 5.696 5.76v.032c0 1.408-.48 2.736-1.344 3.76l1.488 1.232-.864.944Zm-4.976-1.312c.992 0 1.888-.32 2.576-.848l-2.08-1.776.848-.944 2.064 1.872a4.713 4.713 0 0 0 .976-2.896v-.032c0-2.544-1.856-4.624-4.416-4.624-2.56 0-4.384 2.048-4.384 4.592v.032c0 2.544 1.856 4.624 4.416 4.624Zm11.194 1.152c-2 0-3.168-1.344-3.168-3.312v-5.136h1.232v4.832c0 1.536.832 2.496 2.288 2.496 1.408 0 2.48-1.04 2.48-2.592v-4.736h1.216v8.272h-1.216v-1.44c-.56.896-1.408 1.616-2.832 1.616Zm9.283 0c-1.552 0-3.088-.88-3.088-2.576v-.032c0-1.776 1.44-2.704 3.536-2.704 1.056 0 1.792.144 2.528.352v-.256c0-1.472-.896-2.24-2.448-2.24-.976 0-1.744.24-2.512.592l-.368-1.008c.912-.416 1.792-.704 3.008-.704 1.168 0 2.08.32 2.672.912.576.576.864 1.376.864 2.432v5.056h-1.216v-1.232c-.576.736-1.52 1.408-2.976 1.408Zm.24-.992c1.52 0 2.752-.912 2.752-2.224v-.768a8.504 8.504 0 0 0-2.416-.352c-1.536 0-2.416.672-2.416 1.664v.032c0 1.04.96 1.648 2.08 1.648Zm6.562.816v-8.272h1.232v2.16c.608-1.376 1.808-2.368 3.376-2.304v1.328h-.096c-1.808 0-3.28 1.296-3.28 3.792v3.296h-1.232Zm9.252.144c-1.328 0-2.336-.656-2.336-2.336v-4.992h-1.152v-1.088h1.152v-2.496h1.232v2.496h2.624v1.088h-2.624v4.832c0 1.008.56 1.376 1.392 1.376.416 0 .768-.08 1.2-.288v1.056a3.099 3.099 0 0 1-1.488.352Zm4.203-3.776c.176 1.744 1.456 2.752 2.912 2.752 1.136 0 1.936-.464 2.608-1.168l.768.688c-.832.928-1.84 1.552-3.408 1.552-2.272 0-4.128-1.744-4.128-4.32 0-2.4 1.68-4.32 3.968-4.32 2.448 0 3.856 1.952 3.856 4.384 0 .112 0 .24-.016.432h-6.56Zm0-.992h5.328c-.144-1.504-1.008-2.784-2.64-2.784-1.424 0-2.512 1.184-2.688 2.784Zm8.732 4.624v-8.272h1.232v2.16c.608-1.376 1.808-2.368 3.376-2.304v1.328h-.096c-1.808 0-3.28 1.296-3.28 3.792v3.296h-1.232Zm6.597 0v-11.68h1.232v11.68h-1.232Zm5.371 2.608c-.688 0-1.2-.144-1.76-.416l.416-.976c.4.208.768.304 1.296.304.736 0 1.2-.384 1.696-1.552l-3.76-8.24h1.36l3.008 6.896 2.656-6.896h1.312l-3.472 8.544c-.704 1.712-1.504 2.336-2.752 2.336Zm13.178-2.608v-11.2h4.192c2.528 0 4.192 1.344 4.192 3.552v.032c0 2.416-2.016 3.664-4.4 3.664h-2.72v3.952h-1.264Zm1.264-5.104h2.768c1.856 0 3.072-.992 3.072-2.464v-.032c0-1.6-1.2-2.432-3.008-2.432h-2.832v4.928Zm12.913 5.296c-2.48 0-4.288-1.952-4.288-4.288v-.032c0-2.336 1.824-4.32 4.32-4.32 2.48 0 4.304 1.952 4.304 4.288v.032c0 2.336-1.84 4.32-4.336 4.32Zm.032-1.104c1.792 0 3.04-1.44 3.04-3.184v-.032c0-1.776-1.328-3.232-3.072-3.232-1.792 0-3.024 1.456-3.024 3.2v.032c0 1.776 1.312 3.216 3.056 3.216Zm6.536.912v-8.272h1.232v2.16c.608-1.376 1.808-2.368 3.376-2.304v1.328h-.096c-1.808 0-3.28 1.296-3.28 3.792v3.296h-1.232Zm9.252.144c-1.328 0-2.336-.656-2.336-2.336v-4.992h-1.152v-1.088h1.152v-2.496h1.232v2.496h2.624v1.088h-2.624v4.832c0 1.008.56 1.376 1.392 1.376.416 0 .768-.08 1.2-.288v1.056a3.099 3.099 0 0 1-1.488.352Zm4.165-.144v-7.184h-1.136v-1.072h1.136v-.72c0-.944.256-1.664.72-2.128.416-.416 1.024-.64 1.776-.64.576 0 .96.064 1.36.208v1.072c-.448-.128-.784-.208-1.2-.208-.96 0-1.44.576-1.44 1.76v.672h2.624v1.056h-2.608v7.184h-1.232Zm9.031.192c-2.48 0-4.288-1.952-4.288-4.288v-.032c0-2.336 1.824-4.32 4.32-4.32 2.48 0 4.304 1.952 4.304 4.288v.032c0 2.336-1.84 4.32-4.336 4.32Zm.032-1.104c1.792 0 3.04-1.44 3.04-3.184v-.032c0-1.776-1.328-3.232-3.072-3.232-1.792 0-3.024 1.456-3.024 3.2v.032c0 1.776 1.312 3.216 3.056 3.216Zm6.648.912v-11.68h1.232v11.68h-1.232Zm4.123-10.08v-1.36h1.408v1.36h-1.408Zm.08 10.08v-8.272h1.232v8.272h-1.232Zm7.867.192c-2.48 0-4.288-1.952-4.288-4.288v-.032c0-2.336 1.824-4.32 4.32-4.32 2.48 0 4.304 1.952 4.304 4.288v.032c0 2.336-1.84 4.32-4.336 4.32Zm.032-1.104c1.792 0 3.04-1.44 3.04-3.184v-.032c0-1.776-1.328-3.232-3.072-3.232-1.792 0-3.024 1.456-3.024 3.2v.032c0 1.776 1.312 3.216 3.056 3.216Zm11.541.912v-11.2h4.816c1.376 0 2.48.416 3.184 1.12.544.544.864 1.328.864 2.208v.032c0 1.856-1.28 2.944-3.04 3.264l3.44 4.576h-1.552l-3.248-4.352h-3.2v4.352h-1.264Zm1.264-5.488h3.44c1.68 0 2.88-.864 2.88-2.304v-.032c0-1.376-1.056-2.208-2.864-2.208h-3.456v4.544Zm10.67 1.856c.176 1.744 1.456 2.752 2.912 2.752 1.136 0 1.936-.464 2.608-1.168l.768.688c-.832.928-1.84 1.552-3.408 1.552-2.272 0-4.128-1.744-4.128-4.32 0-2.4 1.68-4.32 3.968-4.32 2.448 0 3.856 1.952 3.856 4.384 0 .112 0 .24-.016.432h-6.56Zm0-.992h5.328c-.144-1.504-1.008-2.784-2.64-2.784-1.424 0-2.512 1.184-2.688 2.784Zm11.094 4.688-3.584-8.336h1.36l2.784 6.864 2.8-6.864h1.328l-3.6 8.336h-1.088Zm6.655-10.144v-1.36h1.408v1.36h-1.408Zm.08 10.08v-8.272h1.232v8.272H260.6Zm4.827-3.632c.176 1.744 1.456 2.752 2.912 2.752 1.136 0 1.936-.464 2.608-1.168l.768.688c-.832.928-1.84 1.552-3.408 1.552-2.272 0-4.128-1.744-4.128-4.32 0-2.4 1.68-4.32 3.968-4.32 2.448 0 3.856 1.952 3.856 4.384 0 .112 0 .24-.016.432h-6.56Zm0-.992h5.328c-.144-1.504-1.008-2.784-2.64-2.784-1.424 0-2.512 1.184-2.688 2.784Zm10.519 4.688-2.896-8.336h1.312l2.176 6.64 2.224-6.672h1.024l2.24 6.672 2.176-6.64h1.28l-2.912 8.336h-1.072l-2.224-6.528-2.24 6.528h-1.088Z"/>
  <rect width="28.372" height="28.372" x="36.707" y="812.524" stroke="url(#d)" stroke-width="1.628" rx="7.186"/>
  <path fill="#fff" d="M0 0h18.91v18.91H0z" style="mix-blend-mode:multiply" transform="translate(41.438 817.255)"/>
  <path fill="url(#e)" d="M56.803 832.62h-4.728v1.181h4.727v-1.181Z"/>
  <path fill="url(#f)" d="M59.166 830.256h-7.091v1.182h7.091v-1.182Z"/>
  <path fill="url(#g)" d="M59.166 827.892h-7.091v1.182h7.091v-1.182Z"/>
  <path fill="url(#h)" d="m53.581 823.884-2.688-5.447-2.688 5.447-6.01.873 4.349 4.24-1.027 5.986 4.194-2.205v-1.335l-2.624 1.38.727-4.239-3.08-3.002 4.256-.618 1.903-3.857 1.904 3.857 5.019.73.168-1.17-4.403-.64Z"/>
  <rect width="237" height="63" x="22.893" y="714.21" fill="#18181B" rx="5"/>
  <path fill="#fff" d="M80.477 750.21v-11.2h4.192c2.528 0 4.192 1.344 4.192 3.552v.032c0 2.416-2.016 3.664-4.4 3.664h-2.72v3.952h-1.264Zm1.264-5.104h2.768c1.856 0 3.072-.992 3.072-2.464v-.032c0-1.6-1.2-2.432-3.008-2.432h-2.832v4.928Zm12.914 5.296c-2.48 0-4.288-1.952-4.288-4.288v-.032c0-2.336 1.824-4.32 4.32-4.32 2.48 0 4.304 1.952 4.304 4.288v.032c0 2.336-1.84 4.32-4.336 4.32Zm.032-1.104c1.792 0 3.04-1.44 3.04-3.184v-.032c0-1.776-1.328-3.232-3.072-3.232-1.792 0-3.024 1.456-3.024 3.2v.032c0 1.776 1.312 3.216 3.056 3.216Zm6.535.912v-8.272h1.232v2.16c.608-1.376 1.808-2.368 3.376-2.304v1.328h-.096c-1.808 0-3.28 1.296-3.28 3.792v3.296h-1.232Zm9.253.144c-1.328 0-2.336-.656-2.336-2.336v-4.992h-1.152v-1.088h1.152v-2.496h1.232v2.496h2.624v1.088h-2.624v4.832c0 1.008.56 1.376 1.392 1.376.416 0 .768-.08 1.2-.288v1.056a3.099 3.099 0 0 1-1.488.352Zm4.164-.144v-7.184h-1.136v-1.072h1.136v-.72c0-.944.256-1.664.72-2.128.416-.416 1.024-.64 1.776-.64.576 0 .96.064 1.36.208v1.072c-.448-.128-.784-.208-1.2-.208-.96 0-1.44.576-1.44 1.76v.672h2.624v1.056h-2.608v7.184h-1.232Zm9.031.192c-2.48 0-4.288-1.952-4.288-4.288v-.032c0-2.336 1.824-4.32 4.32-4.32 2.48 0 4.304 1.952 4.304 4.288v.032c0 2.336-1.84 4.32-4.336 4.32Zm.032-1.104c1.792 0 3.04-1.44 3.04-3.184v-.032c0-1.776-1.328-3.232-3.072-3.232-1.792 0-3.024 1.456-3.024 3.2v.032c0 1.776 1.312 3.216 3.056 3.216Zm6.648.912v-11.68h1.232v11.68h-1.232Zm4.123-10.08v-1.36h1.408v1.36h-1.408Zm.08 10.08v-8.272h1.232v8.272h-1.232Zm7.867.192c-2.48 0-4.288-1.952-4.288-4.288v-.032c0-2.336 1.824-4.32 4.32-4.32 2.48 0 4.304 1.952 4.304 4.288v.032c0 2.336-1.84 4.32-4.336 4.32Zm.032-1.104c1.792 0 3.04-1.44 3.04-3.184v-.032c0-1.776-1.328-3.232-3.072-3.232-1.792 0-3.024 1.456-3.024 3.2v.032c0 1.776 1.312 3.216 3.056 3.216Zm11.653.912v-11.2h1.264v11.2h-1.264Zm4.336 0v-8.272h1.232v1.44c.544-.896 1.408-1.616 2.832-1.616 2 0 3.168 1.344 3.168 3.312v5.136h-1.232v-4.832c0-1.536-.832-2.496-2.288-2.496-1.424 0-2.48 1.04-2.48 2.592v4.736h-1.232Zm12.627.144c-1.328 0-2.336-.656-2.336-2.336v-4.992h-1.152v-1.088h1.152v-2.496h1.232v2.496h2.624v1.088h-2.624v4.832c0 1.008.56 1.376 1.392 1.376.416 0 .768-.08 1.2-.288v1.056a3.099 3.099 0 0 1-1.488.352Zm4.203-3.776c.176 1.744 1.456 2.752 2.912 2.752 1.136 0 1.936-.464 2.608-1.168l.768.688c-.832.928-1.84 1.552-3.408 1.552-2.272 0-4.128-1.744-4.128-4.32 0-2.4 1.68-4.32 3.968-4.32 2.448 0 3.856 1.952 3.856 4.384 0 .112 0 .24-.016.432h-6.56Zm0-.992h5.328c-.144-1.504-1.008-2.784-2.64-2.784-1.424 0-2.512 1.184-2.688 2.784Zm8.845 4.624v-11.68h1.232v11.68h-1.232Zm4.203 0v-11.68h1.232v11.68h-1.232Zm4.123-10.08v-1.36h1.408v1.36h-1.408Zm.08 10.08v-8.272h1.232v8.272h-1.232Zm7.755 2.592c-1.376 0-2.656-.384-3.76-1.152l.56-.96c.944.688 2 1.056 3.184 1.056 1.824 0 3.008-1.008 3.008-2.944v-.976c-.72.96-1.728 1.744-3.248 1.744-1.984 0-3.888-1.488-3.888-3.872v-.032c0-2.416 1.92-3.904 3.888-3.904 1.552 0 2.56.768 3.232 1.664v-1.488h1.232v6.832c0 1.28-.384 2.256-1.056 2.928-.736.736-1.84 1.104-3.152 1.104Zm-.016-4.32c1.568 0 3.04-1.136 3.04-2.8v-.032c0-1.696-1.472-2.8-3.04-2.8s-2.864 1.088-2.864 2.784v.032c0 1.664 1.328 2.816 2.864 2.816Zm7.713-1.904c.176 1.744 1.456 2.752 2.912 2.752 1.136 0 1.936-.464 2.608-1.168l.768.688c-.832.928-1.84 1.552-3.408 1.552-2.272 0-4.128-1.744-4.128-4.32 0-2.4 1.68-4.32 3.968-4.32 2.448 0 3.856 1.952 3.856 4.384 0 .112 0 .24-.016.432h-6.56Zm0-.992h5.328c-.144-1.504-1.008-2.784-2.64-2.784-1.424 0-2.512 1.184-2.688 2.784Zm8.733 4.624v-8.272h1.232v1.44c.544-.896 1.408-1.616 2.832-1.616 2 0 3.168 1.344 3.168 3.312v5.136h-1.232v-4.832c0-1.536-.832-2.496-2.288-2.496-1.424 0-2.48 1.04-2.48 2.592v4.736h-1.232Zm13.587.192c-2.416 0-4.24-1.968-4.24-4.288v-.032c0-2.336 1.824-4.32 4.24-4.32 1.568 0 2.544.656 3.312 1.472l-.816.864c-.656-.688-1.392-1.248-2.512-1.248-1.68 0-2.96 1.424-2.96 3.2v.032c0 1.792 1.312 3.216 3.04 3.216 1.056 0 1.872-.528 2.528-1.232l.784.736c-.832.928-1.824 1.6-3.376 1.6Zm5.914-3.824c.176 1.744 1.456 2.752 2.912 2.752 1.136 0 1.936-.464 2.608-1.168l.768.688c-.832.928-1.84 1.552-3.408 1.552-2.272 0-4.128-1.744-4.128-4.32 0-2.4 1.68-4.32 3.968-4.32 2.448 0 3.856 1.952 3.856 4.384 0 .112 0 .24-.016.432h-6.56Zm0-.992h5.328c-.144-1.504-1.008-2.784-2.64-2.784-1.424 0-2.512 1.184-2.688 2.784Z"/>
  <rect width="28.372" height="28.372" x="39.707" y="731.524" stroke="url(#i)" stroke-width="1.628" rx="7.186"/>
  <g clip-path="url(#j)">
    <path fill="url(#k)" d="M59.803 748.62H58.62v2.955h1.181v-2.955Z"/>
    <path fill="#000" fill-opacity=".1" d="M59.803 748.62H58.62v2.955h1.181v-2.955Z"/>
    <path fill="url(#l)" d="M57.439 745.665h-1.182v5.91h1.182v-5.91Z"/>
    <path fill="#000" fill-opacity=".1" d="M57.439 745.665h-1.182v5.91h1.182v-5.91Z"/>
    <path fill="url(#m)" d="M50.938 751.575a2.959 2.959 0 0 1-2.954-2.955h1.182a1.773 1.773 0 1 0 1.772-1.773v-1.182a2.956 2.956 0 0 1 0 5.91Z"/>
    <path fill="#000" fill-opacity=".1" d="M50.938 751.575a2.959 2.959 0 0 1-2.954-2.955h1.182a1.773 1.773 0 1 0 1.772-1.773v-1.182a2.956 2.956 0 0 1 0 5.91Z"/>
    <path fill="url(#n)" d="M60.984 737.392H46.802a1.18 1.18 0 0 0-1.182 1.182v14.182a1.185 1.185 0 0 0 1.182 1.182h14.182a1.183 1.183 0 0 0 1.182-1.182v-14.182a1.182 1.182 0 0 0-1.182-1.182Zm0 5.319h-8.273v-4.137h8.273v4.137Zm-9.455-4.137v4.137h-4.727v-4.137h4.727Zm-4.727 14.182v-8.864h14.183v8.864H46.803Z"/>
    <path fill="#000" fill-opacity=".1" d="M60.984 737.392H46.802a1.18 1.18 0 0 0-1.182 1.182v14.182a1.185 1.185 0 0 0 1.182 1.182h14.182a1.183 1.183 0 0 0 1.182-1.182v-14.182a1.182 1.182 0 0 0-1.182-1.182Zm0 5.319h-8.273v-4.137h8.273v4.137Zm-9.455-4.137v4.137h-4.727v-4.137h4.727Zm-4.727 14.182v-8.864h14.183v8.864H46.803Z"/>
  </g>
  <rect width="157" height="63" x="22.893" y="876.21" fill="#18181B" rx="5"/>
  <path fill="#fff" d="M78.477 912.21v-11.2h1.264v10.032h6.304v1.168h-7.568Zm9.906 0v-11.2h4.192c2.528 0 4.192 1.344 4.192 3.552v.032c0 2.416-2.016 3.664-4.4 3.664h-2.72v3.952h-1.264Zm1.264-5.104h2.768c1.856 0 3.072-.992 3.072-2.464v-.032c0-1.6-1.2-2.432-3.008-2.432h-2.832v4.928Zm14.221 5.104v-11.2h4.816c1.376 0 2.48.416 3.184 1.12.544.544.864 1.328.864 2.208v.032c0 1.856-1.28 2.944-3.04 3.264l3.44 4.576h-1.552l-3.248-4.352h-3.2v4.352h-1.264Zm1.264-5.488h3.44c1.68 0 2.88-.864 2.88-2.304v-.032c0-1.376-1.056-2.208-2.864-2.208h-3.456v4.544Zm10.67 1.856c.176 1.744 1.456 2.752 2.912 2.752 1.136 0 1.936-.464 2.608-1.168l.768.688c-.832.928-1.84 1.552-3.408 1.552-2.272 0-4.128-1.744-4.128-4.32 0-2.4 1.68-4.32 3.968-4.32 2.448 0 3.856 1.952 3.856 4.384 0 .112 0 .24-.016.432h-6.56Zm0-.992h5.328c-.144-1.504-1.008-2.784-2.64-2.784-1.424 0-2.512 1.184-2.688 2.784Zm8.733 7.184v-10.832h1.232v1.664c.672-.992 1.648-1.84 3.168-1.84 1.984 0 3.952 1.568 3.952 4.288v.032c0 2.704-1.952 4.304-3.952 4.304-1.536 0-2.528-.832-3.168-1.76v4.144h-1.232Zm4.176-3.488c1.6 0 2.912-1.184 2.912-3.184v-.032c0-1.952-1.344-3.2-2.912-3.2-1.536 0-2.992 1.296-2.992 3.184v.032c0 1.92 1.456 3.2 2.992 3.2Zm10.225 1.12c-2.48 0-4.288-1.952-4.288-4.288v-.032c0-2.336 1.824-4.32 4.32-4.32 2.48 0 4.304 1.952 4.304 4.288v.032c0 2.336-1.84 4.32-4.336 4.32Zm.032-1.104c1.792 0 3.04-1.44 3.04-3.184v-.032c0-1.776-1.328-3.232-3.072-3.232-1.792 0-3.024 1.456-3.024 3.2v.032c0 1.776 1.312 3.216 3.056 3.216Zm6.536.912v-8.272h1.232v2.16c.608-1.376 1.808-2.368 3.376-2.304v1.328h-.096c-1.808 0-3.28 1.296-3.28 3.792v3.296h-1.232Zm9.252.144c-1.328 0-2.336-.656-2.336-2.336v-4.992h-1.152v-1.088h1.152v-2.496h1.232v2.496h2.624v1.088h-2.624v4.832c0 1.008.56 1.376 1.392 1.376.416 0 .768-.08 1.2-.288v1.056a3.099 3.099 0 0 1-1.488.352Zm6.437.016c-1.184 0-2.496-.464-3.424-1.216l.624-.88c.896.672 1.888 1.056 2.864 1.056.992 0 1.712-.512 1.712-1.312v-.032c0-.832-.976-1.152-2.064-1.456-1.296-.368-2.736-.816-2.736-2.336v-.032c0-1.424 1.184-2.368 2.816-2.368 1.008 0 2.128.352 2.976.912l-.56.928c-.768-.496-1.648-.8-2.448-.8-.976 0-1.6.512-1.6 1.2v.032c0 .784 1.024 1.088 2.128 1.424 1.28.384 2.656.88 2.656 2.368v.032c0 1.568-1.296 2.48-2.944 2.48Z"/>
  <rect width="28.372" height="28.372" x="37.707" y="893.524" stroke="url(#o)" stroke-width="1.628" rx="7.186"/>
  <path fill="url(#p)" fill-rule="evenodd" d="M57.63 899.142H46.156c-.584 0-1.059.499-1.059 1.114v14.908c0 .616.474 1.115 1.06 1.115H57.63c.585 0 1.059-.499 1.059-1.115v-14.908c0-.615-.474-1.114-1.059-1.114Zm0 8.008v8.058H46.156v-14.995H57.63v6.937Zm-2.191-1.213v1.182h-7.092v-1.182h7.092Zm-1.182-1.181v-1.182h-5.91v1.182h5.91Zm1.182 5.909v1.182h-7.092v-1.182h7.092Zm-1.182-1.182v-1.182h-5.91v1.182h5.91Z" clip-rule="evenodd"/>
  <rect width="220" height="63" x="22.893" y="957.21" fill="#18181B" rx="5"/>
  <path fill="#fff" d="m83.833 993.29-4.816-11.28h1.408l3.984 9.648 4-9.648h1.36l-4.816 11.28h-1.12Zm7.656-10.16v-1.36h1.408v1.36h-1.408Zm.08 10.08v-8.272H92.8v8.272h-1.232Zm6.827.16c-1.184 0-2.496-.464-3.424-1.216l.624-.88c.896.672 1.888 1.056 2.864 1.056.992 0 1.712-.512 1.712-1.312v-.032c0-.832-.976-1.152-2.064-1.456-1.296-.368-2.736-.816-2.736-2.336v-.032c0-1.424 1.184-2.368 2.816-2.368 1.008 0 2.128.352 2.976.912l-.56.928c-.768-.496-1.648-.8-2.448-.8-.976 0-1.6.512-1.6 1.2v.032c0 .784 1.024 1.088 2.128 1.424 1.28.384 2.656.88 2.656 2.368v.032c0 1.568-1.296 2.48-2.944 2.48Zm5.265-10.24v-1.36h1.408v1.36h-1.408Zm.08 10.08v-8.272h1.232v8.272h-1.232Zm8.491.176c-1.536 0-2.528-.832-3.168-1.76v1.584h-1.232v-11.68h1.232v5.072c.672-.992 1.648-1.84 3.168-1.84 1.984 0 3.952 1.568 3.952 4.288v.032c0 2.704-1.952 4.304-3.952 4.304Zm-.224-1.104c1.6 0 2.912-1.184 2.912-3.184v-.032c0-1.952-1.344-3.2-2.912-3.2-1.536 0-2.992 1.296-2.992 3.184v.032c0 1.92 1.456 3.2 2.992 3.2Zm6.561.928v-11.68h1.232v11.68h-1.232Zm4.827-3.632c.176 1.744 1.456 2.752 2.912 2.752 1.136 0 1.936-.464 2.608-1.168l.768.688c-.832.928-1.84 1.552-3.408 1.552-2.272 0-4.128-1.744-4.128-4.32 0-2.4 1.68-4.32 3.968-4.32 2.448 0 3.856 1.952 3.856 4.384 0 .112 0 .24-.016.432h-6.56Zm0-.992h5.328c-.144-1.504-1.008-2.784-2.64-2.784-1.424 0-2.512 1.184-2.688 2.784Zm16.697 4.624v-10.032h-3.76v-1.168h8.8v1.168h-3.76v10.032h-1.28Zm5.912-3.632c.176 1.744 1.456 2.752 2.912 2.752 1.136 0 1.936-.464 2.608-1.168l.768.688c-.832.928-1.84 1.552-3.408 1.552-2.272 0-4.128-1.744-4.128-4.32 0-2.4 1.68-4.32 3.968-4.32 2.448 0 3.856 1.952 3.856 4.384 0 .112 0 .24-.016.432h-6.56Zm0-.992h5.328c-.144-1.504-1.008-2.784-2.64-2.784-1.424 0-2.512 1.184-2.688 2.784Zm11.197 4.8c-1.552 0-3.088-.88-3.088-2.576v-.032c0-1.776 1.44-2.704 3.536-2.704 1.056 0 1.792.144 2.528.352v-.256c0-1.472-.896-2.24-2.448-2.24-.976 0-1.744.24-2.512.592l-.368-1.008c.912-.416 1.792-.704 3.008-.704 1.168 0 2.08.32 2.672.912.576.576.864 1.376.864 2.432v5.056h-1.216v-1.232c-.576.736-1.52 1.408-2.976 1.408Zm.24-.992c1.52 0 2.752-.912 2.752-2.224v-.768a8.504 8.504 0 0 0-2.416-.352c-1.536 0-2.416.672-2.416 1.664v.032c0 1.04.96 1.648 2.08 1.648Zm6.562.816v-8.272h1.232v2.16c.608-1.376 1.808-2.368 3.376-2.304v1.328h-.096c-1.808 0-3.28 1.296-3.28 3.792v3.296h-1.232Zm15.329.16c-1.776 0-3.232-.592-4.576-1.792l.784-.928c1.168 1.056 2.288 1.584 3.84 1.584 1.504 0 2.496-.8 2.496-1.904v-.032c0-1.04-.56-1.632-2.912-2.128-2.576-.56-3.76-1.392-3.76-3.232v-.032c0-1.76 1.552-3.056 3.68-3.056 1.632 0 2.8.464 3.936 1.376l-.736.976c-1.04-.848-2.08-1.216-3.232-1.216-1.456 0-2.384.8-2.384 1.808v.032c0 1.056.576 1.648 3.04 2.176 2.496.544 3.648 1.456 3.648 3.168v.032c0 1.92-1.6 3.168-3.824 3.168Zm6.186-.16v-11.68h1.232v4.848c.544-.896 1.408-1.616 2.832-1.616 2 0 3.168 1.344 3.168 3.312v5.136h-1.232v-4.832c0-1.536-.832-2.496-2.288-2.496-1.424 0-2.48 1.04-2.48 2.592v4.736h-1.232Zm10.596-3.632c.176 1.744 1.456 2.752 2.912 2.752 1.136 0 1.936-.464 2.608-1.168l.768.688c-.832.928-1.84 1.552-3.408 1.552-2.272 0-4.128-1.744-4.128-4.32 0-2.4 1.68-4.32 3.968-4.32 2.448 0 3.856 1.952 3.856 4.384 0 .112 0 .24-.016.432h-6.56Zm0-.992h5.328c-.144-1.504-1.008-2.784-2.64-2.784-1.424 0-2.512 1.184-2.688 2.784Zm9.468.992c.176 1.744 1.456 2.752 2.912 2.752 1.136 0 1.936-.464 2.608-1.168l.768.688c-.832.928-1.84 1.552-3.408 1.552-2.272 0-4.128-1.744-4.128-4.32 0-2.4 1.68-4.32 3.968-4.32 2.448 0 3.856 1.952 3.856 4.384 0 .112 0 .24-.016.432h-6.56Zm0-.992h5.328c-.144-1.504-1.008-2.784-2.64-2.784-1.424 0-2.512 1.184-2.688 2.784Zm11.501 4.768c-1.328 0-2.336-.656-2.336-2.336v-4.992h-1.152v-1.088h1.152v-2.496h1.232v2.496h2.624v1.088h-2.624v4.832c0 1.008.56 1.376 1.392 1.376.416 0 .768-.08 1.2-.288v1.056a3.099 3.099 0 0 1-1.488.352Zm6.437.016c-1.184 0-2.496-.464-3.424-1.216l.624-.88c.896.672 1.888 1.056 2.864 1.056.992 0 1.712-.512 1.712-1.312v-.032c0-.832-.976-1.152-2.064-1.456-1.296-.368-2.736-.816-2.736-2.336v-.032c0-1.424 1.184-2.368 2.816-2.368 1.008 0 2.128.352 2.976.912l-.56.928c-.768-.496-1.648-.8-2.448-.8-.976 0-1.6.512-1.6 1.2v.032c0 .784 1.024 1.088 2.128 1.424 1.28.384 2.656.88 2.656 2.368v.032c0 1.568-1.296 2.48-2.944 2.48Z"/>
  <rect width="28.372" height="28.372" x="39.207" y="974.524" stroke="url(#q)" stroke-width="1.628" rx="7.186"/>
  <path fill="#fff" d="M0 0h18.91v18.91H0z" style="mix-blend-mode:multiply" transform="translate(43.938 979.255)"/>
  <path fill="url(#r)" d="M53.984 991.074h-1.182v2.364h1.182v-2.364Z"/>
  <path fill="url(#s)" d="M56.939 989.892h-1.182v3.546h1.182v-3.546Z"/>
  <path fill="url(#t)" d="M51.03 987.528h-1.183v5.91h1.182v-5.91Z"/>
  <path fill="url(#u)" d="M58.712 982.21h-1.773v-.591a1.182 1.182 0 0 0-1.182-1.182h-4.728a1.185 1.185 0 0 0-1.182 1.182v.591h-1.772a1.18 1.18 0 0 0-1.182 1.182v12.409a1.182 1.182 0 0 0 1.182 1.182H58.71a1.18 1.18 0 0 0 1.182-1.182v-12.409a1.182 1.182 0 0 0-1.181-1.182Zm-7.683-.591h4.728v2.364h-4.728v-2.364Zm7.682 14.182H48.076v-12.409h1.772v1.773h7.092v-1.773h1.773v12.409Z"/>
  <rect width="185" height="63" x="67.5" fill="#18181B" rx="5"/>
  <path fill="#fff" d="M127.084 36V24.8h1.28l4.08 6.112 4.08-6.112h1.28V36h-1.264v-9.072l-4.08 6h-.064l-4.08-5.984V36h-1.232Zm14.419-3.632c.176 1.744 1.456 2.752 2.912 2.752 1.136 0 1.936-.464 2.608-1.168l.768.688c-.832.928-1.84 1.552-3.408 1.552-2.272 0-4.128-1.744-4.128-4.32 0-2.4 1.68-4.32 3.968-4.32 2.448 0 3.856 1.952 3.856 4.384 0 .112 0 .24-.016.432h-6.56Zm0-.992h5.328c-.144-1.504-1.008-2.784-2.64-2.784-1.424 0-2.512 1.184-2.688 2.784Zm11.5 4.768c-1.328 0-2.336-.656-2.336-2.336v-4.992h-1.152v-1.088h1.152v-2.496h1.232v2.496h2.624v1.088h-2.624v4.832c0 1.008.56 1.376 1.392 1.376.416 0 .768-.08 1.2-.288v1.056a3.099 3.099 0 0 1-1.488.352Zm3.701-.144v-8.272h1.232v2.16c.608-1.376 1.808-2.368 3.376-2.304v1.328h-.096c-1.808 0-3.28 1.296-3.28 3.792V36h-1.232Zm6.517-10.08v-1.36h1.408v1.36h-1.408Zm.08 10.08v-8.272h1.232V36h-1.232Zm7.819.192c-2.416 0-4.24-1.968-4.24-4.288v-.032c0-2.336 1.824-4.32 4.24-4.32 1.568 0 2.544.656 3.312 1.472l-.816.864c-.656-.688-1.392-1.248-2.512-1.248-1.68 0-2.96 1.424-2.96 3.2v.032c0 1.792 1.312 3.216 3.04 3.216 1.056 0 1.872-.528 2.528-1.232l.784.736c-.832.928-1.824 1.6-3.376 1.6ZM181.649 36V24.8h1.264V36h-1.264Zm4.336 0v-8.272h1.232v1.392c.544-.816 1.28-1.568 2.672-1.568 1.344 0 2.208.72 2.656 1.648.592-.912 1.472-1.648 2.912-1.648 1.904 0 3.072 1.28 3.072 3.328V36h-1.232v-4.832c0-1.6-.8-2.496-2.144-2.496-1.248 0-2.288.928-2.288 2.56V36h-1.216v-4.864c0-1.552-.816-2.464-2.128-2.464-1.312 0-2.304 1.088-2.304 2.608V36h-1.232Zm15.219 2.56V27.728h1.232v1.664c.672-.992 1.648-1.84 3.168-1.84 1.984 0 3.952 1.568 3.952 4.288v.032c0 2.704-1.952 4.304-3.952 4.304-1.536 0-2.528-.832-3.168-1.76v4.144h-1.232Zm4.176-3.488c1.6 0 2.912-1.184 2.912-3.184v-.032c0-1.952-1.344-3.2-2.912-3.2-1.536 0-2.992 1.296-2.992 3.184v.032c0 1.92 1.456 3.2 2.992 3.2Zm10.225 1.12c-2.48 0-4.288-1.952-4.288-4.288v-.032c0-2.336 1.824-4.32 4.32-4.32 2.48 0 4.304 1.952 4.304 4.288v.032c0 2.336-1.84 4.32-4.336 4.32Zm.032-1.104c1.792 0 3.04-1.44 3.04-3.184v-.032c0-1.776-1.328-3.232-3.072-3.232-1.792 0-3.024 1.456-3.024 3.2v.032c0 1.776 1.312 3.216 3.056 3.216Zm6.536.912v-8.272h1.232v2.16c.608-1.376 1.808-2.368 3.376-2.304v1.328h-.096c-1.808 0-3.28 1.296-3.28 3.792V36h-1.232Zm9.252.144c-1.328 0-2.336-.656-2.336-2.336v-4.992h-1.152v-1.088h1.152v-2.496h1.232v2.496h2.624v1.088h-2.624v4.832c0 1.008.56 1.376 1.392 1.376.416 0 .768-.08 1.2-.288v1.056a3.099 3.099 0 0 1-1.488.352Z"/>
  <rect width="28.372" height="28.372" x="84.048" y="17.314" stroke="url(#v)" stroke-width="1.628" rx="7.186"/>
  <path fill="#fff" d="M0 0h18.91v18.91H0z" style="mix-blend-mode:multiply" transform="translate(88.78 22.045)"/>
  <path fill="url(#w)" d="M104.734 25.59v2.955h-5.909v-2.954h5.909Zm0-1.181h-5.909a1.181 1.181 0 0 0-1.182 1.182v2.954a1.182 1.182 0 0 0 1.182 1.182h5.909a1.182 1.182 0 0 0 1.182-1.182v-2.954a1.18 1.18 0 0 0-1.182-1.182Z"/>
  <path fill="url(#x)" d="M95.87 36.818h-3.545v-4.727h3.545v-1.182h-3.545a1.181 1.181 0 0 0-1.182 1.182v4.727A1.182 1.182 0 0 0 92.325 38h3.545v-1.182Z"/>
  <path fill="url(#y)" d="M106.507 33.864h-7.784l1.529-1.528-.836-.836-2.955 2.955 2.955 2.954.836-.835-1.529-1.528h7.784v-1.182Z"/>
  <path fill="url(#z)" d="M95.28 25.59v2.955h-2.955v-2.954h2.954Zm0-1.181h-2.955a1.181 1.181 0 0 0-1.182 1.182v2.954a1.182 1.182 0 0 0 1.182 1.182h2.954a1.182 1.182 0 0 0 1.182-1.182v-2.954a1.182 1.182 0 0 0-1.182-1.182Z"/>
  <rect width="199" height="63" x="53.5" y="162.833" fill="#18181B" rx="5"/>
  <path fill="#fff" d="M122.284 199.025c-3.52 0-5.696-2.56-5.696-5.76v-.032c0-3.072 2.256-5.792 5.616-5.792 1.888 0 3.056.544 4.176 1.488l-.816.96c-.864-.752-1.824-1.28-3.408-1.28-2.48 0-4.256 2.096-4.256 4.592v.032c0 2.672 1.712 4.656 4.432 4.656 1.28 0 2.464-.496 3.232-1.12v-2.784h-3.408v-1.136h4.624v4.464a6.787 6.787 0 0 1-4.496 1.712Zm10.915 0c-2.48 0-4.288-1.952-4.288-4.288v-.032c0-2.336 1.824-4.32 4.32-4.32 2.48 0 4.304 1.952 4.304 4.288v.032c0 2.336-1.84 4.32-4.336 4.32Zm.032-1.104c1.792 0 3.04-1.44 3.04-3.184v-.032c0-1.776-1.328-3.232-3.072-3.232-1.792 0-3.024 1.456-3.024 3.2v.032c0 1.776 1.312 3.216 3.056 3.216Zm10.312 1.104c-2.48 0-4.288-1.952-4.288-4.288v-.032c0-2.336 1.824-4.32 4.32-4.32 2.48 0 4.304 1.952 4.304 4.288v.032c0 2.336-1.84 4.32-4.336 4.32Zm.032-1.104c1.792 0 3.04-1.44 3.04-3.184v-.032c0-1.776-1.328-3.232-3.072-3.232-1.792 0-3.024 1.456-3.024 3.2v.032c0 1.776 1.312 3.216 3.056 3.216Zm10.199 3.504c-1.376 0-2.656-.384-3.76-1.152l.56-.96c.944.688 2 1.056 3.184 1.056 1.824 0 3.008-1.008 3.008-2.944v-.976c-.72.96-1.728 1.744-3.248 1.744-1.984 0-3.888-1.488-3.888-3.872v-.032c0-2.416 1.92-3.904 3.888-3.904 1.552 0 2.56.768 3.232 1.664v-1.488h1.232v6.832c0 1.28-.384 2.256-1.056 2.928-.736.736-1.84 1.104-3.152 1.104Zm-.016-4.32c1.568 0 3.04-1.136 3.04-2.8v-.032c0-1.696-1.472-2.8-3.04-2.8s-2.864 1.088-2.864 2.784v.032c0 1.664 1.328 2.816 2.864 2.816Zm7.089 1.728v-11.68h1.232v11.68h-1.232Zm4.827-3.632c.177 1.744 1.457 2.752 2.913 2.752 1.136 0 1.936-.464 2.608-1.168l.768.688c-.832.928-1.84 1.552-3.408 1.552-2.272 0-4.128-1.744-4.128-4.32 0-2.4 1.68-4.32 3.968-4.32 2.448 0 3.856 1.952 3.856 4.384 0 .112 0 .24-.016.432h-6.561Zm0-.992h5.329c-.144-1.504-1.008-2.784-2.64-2.784-1.424 0-2.512 1.184-2.689 2.784Zm17.578 4.784c-1.776 0-3.232-.592-4.576-1.792l.784-.928c1.168 1.056 2.288 1.584 3.84 1.584 1.504 0 2.496-.8 2.496-1.904v-.032c0-1.04-.56-1.632-2.912-2.128-2.576-.56-3.76-1.392-3.76-3.232v-.032c0-1.76 1.552-3.056 3.68-3.056 1.632 0 2.8.464 3.936 1.376l-.736.976c-1.04-.848-2.08-1.216-3.232-1.216-1.456 0-2.384.8-2.384 1.808v.032c0 1.056.576 1.648 3.04 2.176 2.496.544 3.648 1.456 3.648 3.168v.032c0 1.92-1.6 3.168-3.824 3.168Zm6.187-.16v-11.68h1.232v4.848c.544-.896 1.408-1.616 2.832-1.616 2 0 3.168 1.344 3.168 3.312v5.136h-1.232v-4.832c0-1.536-.832-2.496-2.288-2.496-1.424 0-2.48 1.04-2.48 2.592v4.736h-1.232Zm10.595-3.632c.176 1.744 1.456 2.752 2.912 2.752 1.136 0 1.936-.464 2.608-1.168l.768.688c-.832.928-1.84 1.552-3.408 1.552-2.272 0-4.128-1.744-4.128-4.32 0-2.4 1.68-4.32 3.968-4.32 2.448 0 3.856 1.952 3.856 4.384 0 .112 0 .24-.016.432h-6.56Zm0-.992h5.328c-.144-1.504-1.008-2.784-2.64-2.784-1.424 0-2.512 1.184-2.688 2.784Zm9.469.992c.176 1.744 1.456 2.752 2.912 2.752 1.136 0 1.936-.464 2.608-1.168l.768.688c-.832.928-1.84 1.552-3.408 1.552-2.272 0-4.128-1.744-4.128-4.32 0-2.4 1.68-4.32 3.968-4.32 2.448 0 3.856 1.952 3.856 4.384 0 .112 0 .24-.016.432h-6.56Zm0-.992h5.328c-.144-1.504-1.008-2.784-2.64-2.784-1.424 0-2.512 1.184-2.688 2.784Zm11.5 4.768c-1.328 0-2.336-.656-2.336-2.336v-4.992h-1.152v-1.088h1.152v-2.496h1.232v2.496h2.624v1.088h-2.624v4.832c0 1.008.56 1.376 1.392 1.376.416 0 .768-.08 1.2-.288v1.056a3.099 3.099 0 0 1-1.488.352Zm6.437.016c-1.184 0-2.496-.464-3.424-1.216l.624-.88c.896.672 1.888 1.056 2.864 1.056.992 0 1.712-.512 1.712-1.312v-.032c0-.832-.976-1.152-2.064-1.456-1.296-.368-2.736-.816-2.736-2.336v-.032c0-1.424 1.184-2.368 2.816-2.368 1.008 0 2.128.352 2.976.912l-.56.928c-.768-.496-1.648-.8-2.448-.8-.976 0-1.6.512-1.6 1.2v.032c0 .784 1.024 1.088 2.128 1.424 1.28.384 2.656.88 2.656 2.368v.032c0 1.568-1.296 2.48-2.944 2.48Z"/>
  <rect width="28.372" height="28.372" x="70.048" y="180.147" stroke="url(#A)" stroke-width="1.628" rx="7.186"/>
  <path fill="url(#B)" d="M91.325 189.606h-2.363v-2.364a1.183 1.183 0 0 0-1.182-1.182H77.143a1.185 1.185 0 0 0-1.182 1.182v10.637a1.183 1.183 0 0 0 1.182 1.182h2.364v2.364a1.184 1.184 0 0 0 1.181 1.182h10.637a1.185 1.185 0 0 0 1.182-1.182v-10.637a1.18 1.18 0 0 0-1.182-1.182Zm-3.545 8.273h-4.728v-2.955h4.728v2.955Zm0-4.137h-4.728v-2.954h4.728v2.954Zm-5.91 0h-4.727v-2.954h4.727v2.954Zm5.91-6.5v2.364H77.143v-2.364H87.78Zm-10.637 10.637v-2.955h4.727v2.955h-4.727Zm14.182 3.546H80.688v-2.364h7.092a1.18 1.18 0 0 0 1.182-1.182v-7.091h2.363v10.637Z"/>
  <rect width="155.964" height="63" x="96.536" y="244.25" fill="#18181B" rx="5"/>
  <path fill="#fff" d="m163.976 280.33-4.816-11.28h1.408l3.984 9.648 4-9.648h1.36l-4.816 11.28h-1.12Zm7.656-10.16v-1.36h1.408v1.36h-1.408Zm.08 10.08v-8.272h1.232v8.272h-1.232Zm6.827.16c-1.184 0-2.496-.464-3.424-1.216l.624-.88c.896.672 1.888 1.056 2.864 1.056.992 0 1.712-.512 1.712-1.312v-.032c0-.832-.976-1.152-2.064-1.456-1.296-.368-2.736-.816-2.736-2.336v-.032c0-1.424 1.184-2.368 2.816-2.368 1.008 0 2.128.352 2.976.912l-.56.928c-.768-.496-1.648-.8-2.448-.8-.976 0-1.6.512-1.6 1.2v.032c0 .784 1.024 1.088 2.128 1.424 1.28.384 2.656.88 2.656 2.368v.032c0 1.568-1.296 2.48-2.944 2.48Zm5.265-10.24v-1.36h1.408v1.36h-1.408Zm.08 10.08v-8.272h1.232v8.272h-1.232Zm8.491.176c-1.536 0-2.528-.832-3.168-1.76v1.584h-1.232v-11.68h1.232v5.072c.672-.992 1.648-1.84 3.168-1.84 1.984 0 3.952 1.568 3.952 4.288v.032c0 2.704-1.952 4.304-3.952 4.304Zm-.224-1.104c1.6 0 2.912-1.184 2.912-3.184v-.032c0-1.952-1.344-3.2-2.912-3.2-1.536 0-2.992 1.296-2.992 3.184v.032c0 1.92 1.456 3.2 2.992 3.2Zm6.561.928v-11.68h1.232v11.68h-1.232Zm4.827-3.632c.176 1.744 1.456 2.752 2.912 2.752 1.136 0 1.936-.464 2.608-1.168l.768.688c-.832.928-1.84 1.552-3.408 1.552-2.272 0-4.128-1.744-4.128-4.32 0-2.4 1.68-4.32 3.968-4.32 2.448 0 3.856 1.952 3.856 4.384 0 .112 0 .24-.016.432h-6.56Zm0-.992h5.328c-.144-1.504-1.008-2.784-2.64-2.784-1.424 0-2.512 1.184-2.688 2.784Zm12.777 4.624 5.104-11.28h1.184l5.104 11.28h-1.36l-1.312-2.96h-6.096l-1.328 2.96h-1.296Zm3.12-4.096h5.104l-2.544-5.712-2.56 5.712Zm10.593 4.096v-11.2h1.264v11.2h-1.264Z"/>
  <rect width="28.372" height="28.372" x="113.084" y="261.564" stroke="url(#C)" stroke-width="1.628" rx="7.186"/>
  <path fill="url(#D)" fill-rule="evenodd" d="M118.996 284.024h16.548v-7.24h-1.034v6.206h-14.48v-14.48h6.206v-1.034h-7.24v16.548Zm16.549-14.48h-2.069v-2.068h-1.034v2.068h-2.069v1.035h2.069v2.068h1.034v-2.068h2.069v-1.035Zm-7.499 9.309h-1.034l-.32-1.034h-2.471l-.311 1.034h-1.034l1.809-5.689h1.551l1.81 5.689Zm-2.671-4.867-.843 2.798h1.84l-.865-2.799-.132.001Zm3.447 3.833v1.034h2.068v-1.034h-.517v-3.62h.517v-1.035h-2.068v1.035h.517v3.62h-.517Zm5.688-4.137h1.034v1.034h-1.034v-1.034Zm-5.171-6.206h-1.034v1.034h1.034v-1.034Z" clip-rule="evenodd"/>
  <rect width="204" height="63" x="48.5" y="81.417" fill="#18181B" rx="5"/>
  <path fill="#fff" d="m110.94 117.497-4.816-11.28h1.408l3.984 9.648 4-9.648h1.36l-4.816 11.28h-1.12Zm7.656-10.16v-1.36h1.408v1.36h-1.408Zm.08 10.08v-8.272h1.232v8.272h-1.232Zm6.827.16c-1.184 0-2.496-.464-3.424-1.216l.624-.88c.896.672 1.888 1.056 2.864 1.056.992 0 1.712-.512 1.712-1.312v-.032c0-.832-.976-1.152-2.064-1.456-1.296-.368-2.736-.816-2.736-2.336v-.032c0-1.424 1.184-2.368 2.816-2.368 1.008 0 2.128.352 2.976.912l-.56.928c-.768-.496-1.648-.8-2.448-.8-.976 0-1.6.512-1.6 1.2v.032c0 .784 1.024 1.088 2.128 1.424 1.28.384 2.656.88 2.656 2.368v.032c0 1.568-1.296 2.48-2.944 2.48Zm5.264-10.24v-1.36h1.408v1.36h-1.408Zm.08 10.08v-8.272h1.232v8.272h-1.232Zm8.492.176c-1.536 0-2.528-.832-3.168-1.76v1.584h-1.232v-11.68h1.232v5.072c.672-.992 1.648-1.84 3.168-1.84 1.984 0 3.952 1.568 3.952 4.288v.032c0 2.704-1.952 4.304-3.952 4.304Zm-.224-1.104c1.6 0 2.912-1.184 2.912-3.184v-.032c0-1.952-1.344-3.2-2.912-3.2-1.536 0-2.992 1.296-2.992 3.184v.032c0 1.92 1.456 3.2 2.992 3.2Zm6.561.928v-11.68h1.232v11.68h-1.232Zm4.827-3.632c.176 1.744 1.456 2.752 2.912 2.752 1.136 0 1.936-.464 2.608-1.168l.768.688c-.832.928-1.84 1.552-3.408 1.552-2.272 0-4.128-1.744-4.128-4.32 0-2.4 1.68-4.32 3.968-4.32 2.448 0 3.856 1.952 3.856 4.384 0 .112 0 .24-.016.432h-6.56Zm0-.992h5.328c-.144-1.504-1.008-2.784-2.64-2.784-1.424 0-2.512 1.184-2.688 2.784Zm13.737 4.624v-11.2h4.816c1.376 0 2.48.416 3.184 1.12.544.544.864 1.328.864 2.208v.032c0 1.856-1.28 2.944-3.04 3.264l3.44 4.576h-1.552l-3.248-4.352h-3.2v4.352h-1.264Zm1.264-5.488h3.44c1.68 0 2.88-.864 2.88-2.304v-.032c0-1.376-1.056-2.208-2.864-2.208h-3.456v4.544Zm10.67 1.856c.177 1.744 1.457 2.752 2.913 2.752 1.136 0 1.936-.464 2.608-1.168l.768.688c-.832.928-1.84 1.552-3.408 1.552-2.272 0-4.128-1.744-4.128-4.32 0-2.4 1.68-4.32 3.968-4.32 2.448 0 3.856 1.952 3.856 4.384 0 .112 0 .24-.016.432h-6.561Zm0-.992h5.329c-.144-1.504-1.008-2.784-2.64-2.784-1.424 0-2.512 1.184-2.689 2.784Zm15.373 7.184v-4.224c-.672.992-1.648 1.84-3.168 1.84-1.984 0-3.952-1.568-3.952-4.288v-.032c0-2.704 1.968-4.304 3.952-4.304 1.536 0 2.528.832 3.168 1.76v-1.584h1.232v10.832h-1.232Zm-2.944-3.488c1.536 0 2.992-1.296 2.992-3.2v-.032c0-1.904-1.456-3.184-2.992-3.184-1.6 0-2.912 1.184-2.912 3.184v.032c0 1.952 1.344 3.2 2.912 3.2Zm9.969 1.104c-2 0-3.168-1.344-3.168-3.312v-5.136h1.232v4.832c0 1.536.832 2.496 2.288 2.496 1.408 0 2.48-1.04 2.48-2.592v-4.736h1.216v8.272h-1.216v-1.44c-.56.896-1.408 1.616-2.832 1.616Zm7.556-3.808c.176 1.744 1.456 2.752 2.912 2.752 1.136 0 1.936-.464 2.608-1.168l.768.688c-.832.928-1.84 1.552-3.408 1.552-2.272 0-4.128-1.744-4.128-4.32 0-2.4 1.68-4.32 3.968-4.32 2.448 0 3.856 1.952 3.856 4.384 0 .112 0 .24-.016.432h-6.56Zm0-.992h5.328c-.144-1.504-1.008-2.784-2.64-2.784-1.424 0-2.512 1.184-2.688 2.784Zm11.468 4.784c-1.184 0-2.496-.464-3.424-1.216l.624-.88c.896.672 1.888 1.056 2.864 1.056.992 0 1.712-.512 1.712-1.312v-.032c0-.832-.976-1.152-2.064-1.456-1.296-.368-2.736-.816-2.736-2.336v-.032c0-1.424 1.184-2.368 2.816-2.368 1.008 0 2.128.352 2.976.912l-.56.928c-.768-.496-1.648-.8-2.448-.8-.976 0-1.6.512-1.6 1.2v.032c0 .784 1.024 1.088 2.128 1.424 1.28.384 2.656.88 2.656 2.368v.032c0 1.568-1.296 2.48-2.944 2.48Zm7.845-.016c-1.328 0-2.336-.656-2.336-2.336v-4.992h-1.152v-1.088h1.152v-2.496h1.232v2.496h2.624v1.088h-2.624v4.832c0 1.008.56 1.376 1.392 1.376.416 0 .768-.08 1.2-.288v1.056a3.099 3.099 0 0 1-1.488.352Zm6.437.016c-1.184 0-2.496-.464-3.424-1.216l.624-.88c.896.672 1.888 1.056 2.864 1.056.992 0 1.712-.512 1.712-1.312v-.032c0-.832-.976-1.152-2.064-1.456-1.296-.368-2.736-.816-2.736-2.336v-.032c0-1.424 1.184-2.368 2.816-2.368 1.008 0 2.128.352 2.976.912l-.56.928c-.768-.496-1.648-.8-2.448-.8-.976 0-1.6.512-1.6 1.2v.032c0 .784 1.024 1.088 2.128 1.424 1.28.384 2.656.88 2.656 2.368v.032c0 1.568-1.296 2.48-2.944 2.48Z"/>
  <rect width="28.372" height="28.372" x="65.048" y="98.731" stroke="url(#E)" stroke-width="1.628" rx="7.186"/>
  <path fill="url(#F)" d="M77.341 111.748H73.73v.992h3.611v-.992Z"/>
  <path fill="url(#G)" d="m73.369 117.284.602.602 2.407-2.408 3.01 2.408 2.408-3.01-.602-.602-1.806 2.408-3.01-2.408-3.01 3.01Z"/>
  <path fill="url(#H)" d="m83.24 112.259.001-.001v.001Z"/>
  <path fill="url(#I)" fill-rule="evenodd" d="M87.507 109.297a4.656 4.656 0 0 1-3.303 4.455v6.406c0 .57-.462 1.032-1.032 1.032h-11.18c-.57 0-1.031-.462-1.031-1.032v-13.799c0-.57.462-1.031 1.032-1.031h8.43a4.653 4.653 0 0 1 7.084 3.969Zm-4.335 10.902v-6.259a4.655 4.655 0 0 1-4.687-3.035H73.95v-.992h4.29a4.71 4.71 0 0 1-.035-.842h-4.149v-.992h4.305a4.645 4.645 0 0 1 .916-1.76h-7.284v13.88h11.179Zm-.006-7.891a.233.233 0 0 0 .075-.049v.017l.35-.337a.2.2 0 0 0 .074-.151.147.147 0 0 0-.018-.075.165.165 0 0 0-.056-.058l-2.085-1.849h4.597a.225.225 0 0 0 .158-.058.185.185 0 0 0 .064-.143v-.47a.178.178 0 0 0-.016-.077.215.215 0 0 0-.205-.124h-4.598l2.086-1.846a.155.155 0 0 0 .074-.134.204.204 0 0 0-.074-.151l-.351-.319a.253.253 0 0 0-.165-.068.197.197 0 0 0-.084.017.17.17 0 0 0-.065.051l-3.047 2.751a.175.175 0 0 0-.055.135.23.23 0 0 0 .055.151l3.047 2.755c.038.033.087.05.148.05a.278.278 0 0 0 .09-.018Z" clip-rule="evenodd"/>
  <defs>
    <linearGradient id="b" x1="50.893" x2="50.893" y1="1054.71" y2="1084.71" gradientUnits="userSpaceOnUse">
      <stop stop-color="#702EDC"/>
      <stop offset="1" stop-color="#702EDC" stop-opacity=".18"/>
    </linearGradient>
    <linearGradient id="c" x1="50.699" x2="50.699" y1="1061.4" y2="1077.4" gradientUnits="userSpaceOnUse">
      <stop stop-color="#702EDC"/>
      <stop offset="1" stop-color="#fff"/>
    </linearGradient>
    <linearGradient id="d" x1="50.893" x2="50.893" y1="811.71" y2="841.71" gradientUnits="userSpaceOnUse">
      <stop stop-color="#4CCE94"/>
      <stop offset="1" stop-color="#4CCE94" stop-opacity=".18"/>
    </linearGradient>
    <linearGradient id="e" x1="50.68" x2="50.68" y1="818.437" y2="834.983" gradientUnits="userSpaceOnUse">
      <stop stop-color="#4CCE94"/>
      <stop offset="1" stop-color="#fff"/>
    </linearGradient>
    <linearGradient id="f" x1="50.68" x2="50.68" y1="818.437" y2="834.983" gradientUnits="userSpaceOnUse">
      <stop stop-color="#4CCE94"/>
      <stop offset="1" stop-color="#fff"/>
    </linearGradient>
    <linearGradient id="g" x1="50.68" x2="50.68" y1="818.437" y2="834.983" gradientUnits="userSpaceOnUse">
      <stop stop-color="#4CCE94"/>
      <stop offset="1" stop-color="#fff"/>
    </linearGradient>
    <linearGradient id="h" x1="50.68" x2="50.68" y1="818.437" y2="834.983" gradientUnits="userSpaceOnUse">
      <stop stop-color="#4CCE94"/>
      <stop offset="1" stop-color="#fff"/>
    </linearGradient>
    <linearGradient id="i" x1="53.893" x2="53.893" y1="730.71" y2="760.71" gradientUnits="userSpaceOnUse">
      <stop stop-color="#5CB7F2"/>
      <stop offset="1" stop-color="#5CB7F2" stop-opacity=".18"/>
    </linearGradient>
    <linearGradient id="k" x1="59.273" x2="59.273" y1="748.62" y2="751.575" gradientUnits="userSpaceOnUse">
      <stop stop-color="#5CB7F2"/>
      <stop offset="1" stop-color="#fff"/>
    </linearGradient>
    <linearGradient id="l" x1="56.909" x2="56.909" y1="745.665" y2="751.575" gradientUnits="userSpaceOnUse">
      <stop stop-color="#5CB7F2"/>
      <stop offset="1" stop-color="#fff"/>
    </linearGradient>
    <linearGradient id="m" x1="51.243" x2="51.243" y1="745.665" y2="751.575" gradientUnits="userSpaceOnUse">
      <stop stop-color="#5CB7F2"/>
      <stop offset="1" stop-color="#fff"/>
    </linearGradient>
    <linearGradient id="n" x1="54.746" x2="54.746" y1="737.392" y2="753.938" gradientUnits="userSpaceOnUse">
      <stop stop-color="#5CB7F2"/>
      <stop offset="1" stop-color="#fff"/>
    </linearGradient>
    <linearGradient id="o" x1="51.893" x2="51.893" y1="892.71" y2="922.71" gradientUnits="userSpaceOnUse">
      <stop stop-color="#9385FF"/>
      <stop offset="1" stop-color="#9385FF" stop-opacity=".18"/>
    </linearGradient>
    <linearGradient id="p" x1="51.893" x2="51.893" y1="899.142" y2="916.279" gradientUnits="userSpaceOnUse">
      <stop stop-color="#9385FF"/>
      <stop offset="1" stop-color="#fff"/>
    </linearGradient>
    <linearGradient id="q" x1="53.393" x2="53.393" y1="973.71" y2="1003.71" gradientUnits="userSpaceOnUse">
      <stop stop-color="#0F52DE"/>
      <stop offset="1" stop-color="#0F52DE" stop-opacity=".18"/>
    </linearGradient>
    <linearGradient id="r" x1="53.393" x2="53.393" y1="980.437" y2="996.983" gradientUnits="userSpaceOnUse">
      <stop stop-color="#0F52DE"/>
      <stop offset="1" stop-color="#fff"/>
    </linearGradient>
    <linearGradient id="s" x1="53.393" x2="53.393" y1="980.437" y2="996.983" gradientUnits="userSpaceOnUse">
      <stop stop-color="#0F52DE"/>
      <stop offset="1" stop-color="#fff"/>
    </linearGradient>
    <linearGradient id="t" x1="53.393" x2="53.393" y1="980.437" y2="996.983" gradientUnits="userSpaceOnUse">
      <stop stop-color="#0F52DE"/>
      <stop offset="1" stop-color="#fff"/>
    </linearGradient>
    <linearGradient id="u" x1="53.393" x2="53.393" y1="980.437" y2="996.983" gradientUnits="userSpaceOnUse">
      <stop stop-color="#0F52DE"/>
      <stop offset="1" stop-color="#fff"/>
    </linearGradient>
    <linearGradient id="v" x1="98.234" x2="98.234" y1="16.5" y2="46.5" gradientUnits="userSpaceOnUse">
      <stop stop-color="#0F52DE"/>
      <stop offset="1" stop-color="#0F52DE" stop-opacity=".18"/>
    </linearGradient>
    <linearGradient id="w" x1="98.825" x2="98.825" y1="24.409" y2="38" gradientUnits="userSpaceOnUse">
      <stop stop-color="#0F52DE"/>
      <stop offset="1" stop-color="#fff"/>
    </linearGradient>
    <linearGradient id="x" x1="98.825" x2="98.825" y1="24.409" y2="38" gradientUnits="userSpaceOnUse">
      <stop stop-color="#0F52DE"/>
      <stop offset="1" stop-color="#fff"/>
    </linearGradient>
    <linearGradient id="y" x1="98.825" x2="98.825" y1="24.409" y2="38" gradientUnits="userSpaceOnUse">
      <stop stop-color="#0F52DE"/>
      <stop offset="1" stop-color="#fff"/>
    </linearGradient>
    <linearGradient id="z" x1="98.825" x2="98.825" y1="24.409" y2="38" gradientUnits="userSpaceOnUse">
      <stop stop-color="#0F52DE"/>
      <stop offset="1" stop-color="#fff"/>
    </linearGradient>
    <linearGradient id="A" x1="84.234" x2="84.234" y1="179.333" y2="209.333" gradientUnits="userSpaceOnUse">
      <stop stop-color="#4CCE94"/>
      <stop offset="1" stop-color="#4CCE94" stop-opacity=".18"/>
    </linearGradient>
    <linearGradient id="B" x1="84.234" x2="84.234" y1="186.06" y2="202.607" gradientUnits="userSpaceOnUse">
      <stop stop-color="#4CCE94"/>
      <stop offset="1" stop-color="#fff"/>
    </linearGradient>
    <linearGradient id="C" x1="127.27" x2="127.27" y1="260.75" y2="290.75" gradientUnits="userSpaceOnUse">
      <stop stop-color="#5CB7F2"/>
      <stop offset="1" stop-color="#5CB7F2" stop-opacity=".18"/>
    </linearGradient>
    <linearGradient id="D" x1="127.27" x2="127.27" y1="267.476" y2="284.024" gradientUnits="userSpaceOnUse">
      <stop stop-color="#5CB7F2"/>
      <stop offset="1" stop-color="#fff"/>
    </linearGradient>
    <linearGradient id="E" x1="79.234" x2="79.234" y1="97.917" y2="127.917" gradientUnits="userSpaceOnUse">
      <stop stop-color="#702EDC"/>
      <stop offset="1" stop-color="#702EDC" stop-opacity=".18"/>
    </linearGradient>
    <linearGradient id="F" x1="79.234" x2="79.234" y1="104.644" y2="121.19" gradientUnits="userSpaceOnUse">
      <stop stop-color="#702EDC"/>
      <stop offset="1" stop-color="#fff"/>
    </linearGradient>
    <linearGradient id="G" x1="79.234" x2="79.234" y1="104.644" y2="121.19" gradientUnits="userSpaceOnUse">
      <stop stop-color="#702EDC"/>
      <stop offset="1" stop-color="#fff"/>
    </linearGradient>
    <linearGradient id="H" x1="79.234" x2="79.234" y1="104.644" y2="121.19" gradientUnits="userSpaceOnUse">
      <stop stop-color="#702EDC"/>
      <stop offset="1" stop-color="#fff"/>
    </linearGradient>
    <linearGradient id="I" x1="79.234" x2="79.234" y1="104.644" y2="121.19" gradientUnits="userSpaceOnUse">
      <stop stop-color="#702EDC"/>
      <stop offset="1" stop-color="#fff"/>
    </linearGradient>
    <clipPath id="j">
      <path fill="#fff" d="M44.438 736.21h18.91v18.91h-18.91z"/>
    </clipPath>
    <filter id="a" width="159.705" height="159.705" x="70.647" y="429.215" color-interpolation-filters="sRGB" filterUnits="userSpaceOnUse">
      <feFlood flood-opacity="0" result="BackgroundImageFix"/>
      <feColorMatrix in="SourceAlpha" result="hardAlpha" values="0 0 0 0 0 0 0 0 0 0 0 0 0 0 0 0 0 0 127 0"/>
      <feOffset dy="4"/>
      <feGaussianBlur stdDeviation="2"/>
      <feComposite in2="hardAlpha" operator="out"/>
      <feColorMatrix values="0 0 0 0 0 0 0 0 0 0 0 0 0 0 0 0 0 0 0.25 0"/>
      <feBlend in2="BackgroundImageFix" result="effect1_dropShadow_654_10541"/>
      <feBlend in="SourceGraphic" in2="effect1_dropShadow_654_10541" result="shape"/>
    </filter>
  </defs>
</svg>