<svg xmlns="http://www.w3.org/2000/svg" fill="none" viewBox="0 0 1288 387">
  <path stroke="#71717A" stroke-dasharray="4 4" d="M500.887 191.226h498.629">
    <animate attributeName="stroke-dashoffset" dur="2s" repeatCount="indefinite" values="40;0"/>
  </path>
  <rect width="288" height="63" x="999.516" y="324" fill="#18181B" rx="5"/>
  <path fill="#fff" d="M1054.1 360v-11.2h4.19c2.53 0 4.19 1.344 4.19 3.552v.032c0 2.416-2.01 3.664-4.4 3.664h-2.72V360h-1.26Zm1.26-5.104h2.77c1.86 0 3.07-.992 3.07-2.464v-.032c0-1.6-1.2-2.432-3-2.432h-2.84v4.928Zm12.92 5.296c-2.48 0-4.29-1.952-4.29-4.288v-.032c0-2.336 1.82-4.32 4.32-4.32 2.48 0 4.3 1.952 4.3 4.288v.032c0 2.336-1.84 4.32-4.33 4.32Zm.03-1.104c1.79 0 3.04-1.44 3.04-3.184v-.032c0-1.776-1.33-3.232-3.07-3.232-1.8 0-3.03 1.456-3.03 3.2v.032c0 1.776 1.31 3.216 3.06 3.216Zm6.53.912v-8.272h1.24v2.16c.6-1.376 1.8-2.368 3.37-2.304v1.328h-.09c-1.81 0-3.28 1.296-3.28 3.792V360h-1.24Zm9.26.144c-1.33 0-2.34-.656-2.34-2.336v-4.992h-1.15v-1.088h1.15v-2.496h1.23v2.496h2.63v1.088h-2.63v4.832c0 1.008.56 1.376 1.4 1.376.41 0 .76-.08 1.2-.288v1.056c-.44.224-.9.352-1.49.352Zm4.16-.144v-7.184h-1.13v-1.072h1.13v-.72c0-.944.26-1.664.72-2.128.42-.416 1.03-.64 1.78-.64.57 0 .96.064 1.36.208v1.072c-.45-.128-.79-.208-1.2-.208-.96 0-1.44.576-1.44 1.76v.672h2.62v1.056h-2.61V360h-1.23Zm9.03.192c-2.48 0-4.29-1.952-4.29-4.288v-.032c0-2.336 1.83-4.32 4.32-4.32 2.48 0 4.31 1.952 4.31 4.288v.032c0 2.336-1.84 4.32-4.34 4.32Zm.03-1.104c1.8 0 3.04-1.44 3.04-3.184v-.032c0-1.776-1.32-3.232-3.07-3.232-1.79 0-3.02 1.456-3.02 3.2v.032c0 1.776 1.31 3.216 3.05 3.216Zm6.65.912v-11.68h1.23V360h-1.23Zm4.13-10.08v-1.36h1.4v1.36h-1.4Zm.08 10.08v-8.272h1.23V360h-1.23Zm7.86.192c-2.48 0-4.29-1.952-4.29-4.288v-.032c0-2.336 1.83-4.32 4.32-4.32 2.48 0 4.31 1.952 4.31 4.288v.032c0 2.336-1.84 4.32-4.34 4.32Zm.03-1.104c1.8 0 3.04-1.44 3.04-3.184v-.032c0-1.776-1.32-3.232-3.07-3.232-1.79 0-3.02 1.456-3.02 3.2v.032c0 1.776 1.31 3.216 3.05 3.216Zm11.55.912v-11.2h4.81c1.38 0 2.48.416 3.19 1.12.54.544.86 1.328.86 2.208v.032c0 1.856-1.28 2.944-3.04 3.264l3.44 4.576h-1.55l-3.25-4.352h-3.2V360h-1.26Zm1.26-5.488h3.44c1.68 0 2.88-.864 2.88-2.304v-.032c0-1.376-1.06-2.208-2.86-2.208h-3.46v4.544Zm10.67 1.856c.18 1.744 1.46 2.752 2.91 2.752 1.14 0 1.94-.464 2.61-1.168l.77.688c-.83.928-1.84 1.552-3.41 1.552-2.27 0-4.13-1.744-4.13-4.32 0-2.4 1.68-4.32 3.97-4.32 2.45 0 3.86 1.952 3.86 4.384 0 .112 0 .24-.02.432h-6.56Zm0-.992h5.33c-.15-1.504-1.01-2.784-2.64-2.784-1.43 0-2.51 1.184-2.69 2.784Zm11.09 4.688-3.58-8.336h1.36l2.78 6.864 2.8-6.864h1.33l-3.6 8.336h-1.09Zm6.66-10.144v-1.36h1.41v1.36h-1.41Zm.08 10.08v-8.272h1.23V360h-1.23Zm4.83-3.632c.17 1.744 1.45 2.752 2.91 2.752 1.13 0 1.93-.464 2.61-1.168l.76.688c-.83.928-1.84 1.552-3.4 1.552-2.28 0-4.13-1.744-4.13-4.32 0-2.4 1.68-4.32 3.97-4.32 2.44 0 3.85 1.952 3.85 4.384 0 .112 0 .24-.01.432h-6.56Zm0-.992h5.32c-.14-1.504-1-2.784-2.64-2.784-1.42 0-2.51 1.184-2.68 2.784Zm10.51 4.688-2.89-8.336h1.31l2.18 6.64 2.22-6.672h1.02l2.24 6.672 2.18-6.64h1.28l-2.91 8.336h-1.07l-2.23-6.528-2.24 6.528h-1.09Zm16.6-.064v-11.2h3.89c3.52 0 5.95 2.416 5.95 5.568v.032c0 3.152-2.43 5.6-5.95 5.6h-3.89Zm1.26-1.168h2.63c2.83 0 4.64-1.92 4.64-4.4v-.032c0-2.48-1.81-4.432-4.64-4.432h-2.63v8.864Zm13.51 1.344c-1.55 0-3.09-.88-3.09-2.576v-.032c0-1.776 1.44-2.704 3.54-2.704 1.05 0 1.79.144 2.53.352v-.256c0-1.472-.9-2.24-2.45-2.24-.98 0-1.75.24-2.51.592l-.37-1.008c.91-.416 1.79-.704 3.01-.704 1.16 0 2.08.32 2.67.912.57.576.86 1.376.86 2.432V360h-1.21v-1.232c-.58.736-1.52 1.408-2.98 1.408Zm.24-.992c1.52 0 2.75-.912 2.75-2.224v-.768a8.516 8.516 0 0 0-2.41-.352c-1.54 0-2.42.672-2.42 1.664v.032c0 1.04.96 1.648 2.08 1.648Zm9.3.976c-1.19 0-2.5-.464-3.43-1.216l.63-.88c.89.672 1.89 1.056 2.86 1.056.99 0 1.71-.512 1.71-1.312v-.032c0-.832-.97-1.152-2.06-1.456-1.3-.368-2.74-.816-2.74-2.336v-.032c0-1.424 1.19-2.368 2.82-2.368 1.01 0 2.13.352 2.98.912l-.56.928c-.77-.496-1.65-.8-2.45-.8-.98 0-1.6.512-1.6 1.2v.032c0 .784 1.02 1.088 2.13 1.424 1.28.384 2.65.88 2.65 2.368v.032c0 1.568-1.29 2.48-2.94 2.48Zm5.23-.16v-11.68h1.23v4.848c.55-.896 1.41-1.616 2.83-1.616 2 0 3.17 1.344 3.17 3.312V360h-1.23v-4.832c0-1.536-.83-2.496-2.29-2.496-1.42 0-2.48 1.04-2.48 2.592V360h-1.23Zm14.26.176c-1.54 0-2.53-.832-3.17-1.76V360h-1.23v-11.68h1.23v5.072c.67-.992 1.65-1.84 3.17-1.84 1.98 0 3.95 1.568 3.95 4.288v.032c0 2.704-1.95 4.304-3.95 4.304Zm-.22-1.104c1.6 0 2.91-1.184 2.91-3.184v-.032c0-1.952-1.35-3.2-2.91-3.2-1.54 0-3 1.296-3 3.184v.032c0 1.92 1.46 3.2 3 3.2Zm10.22 1.12c-2.48 0-4.29-1.952-4.29-4.288v-.032c0-2.336 1.83-4.32 4.32-4.32 2.48 0 4.31 1.952 4.31 4.288v.032c0 2.336-1.84 4.32-4.34 4.32Zm.03-1.104c1.79 0 3.04-1.44 3.04-3.184v-.032c0-1.776-1.33-3.232-3.07-3.232-1.79 0-3.02 1.456-3.02 3.2v.032c0 1.776 1.31 3.216 3.05 3.216Zm9 1.088c-1.55 0-3.09-.88-3.09-2.576v-.032c0-1.776 1.44-2.704 3.54-2.704 1.06 0 1.79.144 2.53.352v-.256c0-1.472-.9-2.24-2.45-2.24-.98 0-1.74.24-2.51.592l-.37-1.008c.91-.416 1.79-.704 3.01-.704 1.17 0 2.08.32 2.67.912.58.576.86 1.376.86 2.432V360h-1.21v-1.232c-.58.736-1.52 1.408-2.98 1.408Zm.24-.992c1.52 0 2.75-.912 2.75-2.224v-.768a8.4 8.4 0 0 0-2.41-.352c-1.54 0-2.42.672-2.42 1.664v.032c0 1.04.96 1.648 2.08 1.648Zm6.56.816v-8.272h1.24v2.16c.6-1.376 1.8-2.368 3.37-2.304v1.328h-.09c-1.81 0-3.28 1.296-3.28 3.792V360h-1.24Zm9.62.176c-1.99 0-3.96-1.568-3.96-4.288v-.032c0-2.704 1.97-4.304 3.96-4.304 1.53 0 2.52.832 3.16 1.76v-4.992h1.24V360h-1.24v-1.664c-.67.992-1.64 1.84-3.16 1.84Zm.22-1.104c1.54 0 2.99-1.296 2.99-3.2v-.032c0-1.904-1.45-3.184-2.99-3.184-1.6 0-2.91 1.184-2.91 3.184v.032c0 1.952 1.34 3.2 2.91 3.2Z"/>
  <rect width="28.372" height="28.372" x="1013.33" y="341.314" stroke="url(#a)" stroke-width="1.628" rx="3.186"/>
  <path fill="url(#b)" d="m1035.32 347.997-.81-.808-7.59 7.596a.552.552 0 0 0-.16.402c0 .15.06.293.17.399.1.106.24.166.39.167.15.002.3-.056.41-.16l2.38-2.388c.45.626.67 1.384.63 2.151a3.452 3.452 0 0 1-.83 2.078 3.45 3.45 0 0 1-1.95 1.118c-.75.144-1.53.03-2.21-.323a3.405 3.405 0 0 1-1.55-1.623 3.427 3.427 0 0 1 3.12-4.846v-1.142a4.58 4.58 0 0 0-2.85.99 4.552 4.552 0 0 0-1.61 2.55 4.565 4.565 0 0 0 2.44 5.147c.93.456 1.99.583 3 .362a4.603 4.603 0 0 0 2.57-1.582 4.576 4.576 0 0 0 1.02-2.837 4.495 4.495 0 0 0-.96-2.86l1.63-1.627a6.779 6.779 0 0 1 1.62 4.428c0 1.356-.4 2.682-1.16 3.81a6.838 6.838 0 0 1-7.04 2.915 6.853 6.853 0 0 1-3.51-1.876 6.806 6.806 0 0 1-1.87-3.511 6.805 6.805 0 0 1 .39-3.962 6.84 6.84 0 0 1 6.33-4.233v-1.143a8.011 8.011 0 0 0-7.39 4.938 8.036 8.036 0 0 0-.45 4.623 7.929 7.929 0 0 0 2.19 4.096 7.948 7.948 0 0 0 4.09 2.189 7.994 7.994 0 0 0 8.21-3.402 7.992 7.992 0 0 0 1.35-4.444 7.927 7.927 0 0 0-1.95-5.236l1.95-1.956Z"/>
  <rect width="277" height="63" x="999.516" y="81" fill="#18181B" rx="5"/>
  <path fill="#fff" d="m1064.31 117.336-1.47-1.344c-.95.752-2.15 1.2-3.54 1.2-3.41 0-5.7-2.672-5.7-5.76v-.032c0-3.088 2.32-5.792 5.73-5.792 3.41 0 5.7 2.672 5.7 5.76v.032c0 1.408-.48 2.736-1.35 3.76l1.49 1.232-.86.944Zm-4.98-1.312c.99 0 1.89-.32 2.58-.848l-2.08-1.776.85-.944 2.06 1.872c.61-.784.98-1.792.98-2.896v-.032c0-2.544-1.86-4.624-4.42-4.624-2.56 0-4.38 2.048-4.38 4.592v.032c0 2.544 1.85 4.624 4.41 4.624Zm11.2 1.152c-2 0-3.17-1.344-3.17-3.312v-5.136h1.23v4.832c0 1.536.83 2.496 2.29 2.496 1.41 0 2.48-1.04 2.48-2.592v-4.736h1.21V117h-1.21v-1.44c-.56.896-1.41 1.616-2.83 1.616Zm9.28 0c-1.55 0-3.09-.88-3.09-2.576v-.032c0-1.776 1.44-2.704 3.54-2.704 1.05 0 1.79.144 2.52.352v-.256c0-1.472-.89-2.24-2.44-2.24-.98 0-1.75.24-2.52.592l-.36-1.008c.91-.416 1.79-.704 3-.704 1.17 0 2.08.32 2.68.912.57.576.86 1.376.86 2.432V117h-1.22v-1.232c-.57.736-1.52 1.408-2.97 1.408Zm.24-.992c1.52 0 2.75-.912 2.75-2.224v-.768a8.535 8.535 0 0 0-2.42-.352c-1.53 0-2.41.672-2.41 1.664v.032c0 1.04.96 1.648 2.08 1.648Zm6.56.816v-8.272h1.23v2.16c.61-1.376 1.81-2.368 3.38-2.304v1.328h-.1c-1.81 0-3.28 1.296-3.28 3.792V117h-1.23Zm9.25.144c-1.33 0-2.33-.656-2.33-2.336v-4.992h-1.16v-1.088h1.16v-2.496h1.23v2.496h2.62v1.088h-2.62v4.832c0 1.008.56 1.376 1.39 1.376.42 0 .77-.08 1.2-.288v1.056c-.43.224-.9.352-1.49.352Zm4.21-3.776c.17 1.744 1.45 2.752 2.91 2.752 1.13 0 1.93-.464 2.61-1.168l.76.688c-.83.928-1.84 1.552-3.4 1.552-2.28 0-4.13-1.744-4.13-4.32 0-2.4 1.68-4.32 3.97-4.32 2.44 0 3.85 1.952 3.85 4.384 0 .112 0 .24-.01.432h-6.56Zm0-.992h5.32c-.14-1.504-1-2.784-2.64-2.784-1.42 0-2.51 1.184-2.68 2.784Zm8.73 4.624v-8.272h1.23v2.16c.61-1.376 1.81-2.368 3.38-2.304v1.328h-.1c-1.81 0-3.28 1.296-3.28 3.792V117h-1.23Zm6.59 0v-11.68h1.24V117h-1.24Zm5.38 2.608c-.69 0-1.2-.144-1.76-.416l.41-.976c.4.208.77.304 1.3.304.73 0 1.2-.384 1.69-1.552l-3.76-8.24h1.36l3.01 6.896 2.66-6.896h1.31l-3.47 8.544c-.71 1.712-1.51 2.336-2.75 2.336Zm13.17-2.608v-11.2h4.2c2.52 0 4.19 1.344 4.19 3.552v.032c0 2.416-2.02 3.664-4.4 3.664h-2.72V117h-1.27Zm1.27-5.104h2.77c1.85 0 3.07-.992 3.07-2.464v-.032c0-1.6-1.2-2.432-3.01-2.432h-2.83v4.928Zm12.91 5.296c-2.48 0-4.29-1.952-4.29-4.288v-.032c0-2.336 1.83-4.32 4.32-4.32 2.48 0 4.31 1.952 4.31 4.288v.032c0 2.336-1.84 4.32-4.34 4.32Zm.03-1.104c1.79 0 3.04-1.44 3.04-3.184v-.032c0-1.776-1.33-3.232-3.07-3.232-1.79 0-3.02 1.456-3.02 3.2v.032c0 1.776 1.31 3.216 3.05 3.216Zm6.54.912v-8.272h1.23v2.16c.61-1.376 1.81-2.368 3.38-2.304v1.328h-.1c-1.81 0-3.28 1.296-3.28 3.792V117h-1.23Zm9.25.144c-1.33 0-2.34-.656-2.34-2.336v-4.992h-1.15v-1.088h1.15v-2.496h1.24v2.496h2.62v1.088h-2.62v4.832c0 1.008.56 1.376 1.39 1.376.41 0 .77-.08 1.2-.288v1.056c-.43.224-.9.352-1.49.352Zm4.17-.144v-7.184h-1.14v-1.072h1.14v-.72c0-.944.25-1.664.72-2.128.41-.416 1.02-.64 1.77-.64.58 0 .96.064 1.36.208v1.072c-.45-.128-.78-.208-1.2-.208-.96 0-1.44.576-1.44 1.76v.672h2.63v1.056h-2.61V117h-1.23Zm9.03.192c-2.48 0-4.29-1.952-4.29-4.288v-.032c0-2.336 1.82-4.32 4.32-4.32 2.48 0 4.3 1.952 4.3 4.288v.032c0 2.336-1.84 4.32-4.33 4.32Zm.03-1.104c1.79 0 3.04-1.44 3.04-3.184v-.032c0-1.776-1.33-3.232-3.07-3.232-1.8 0-3.03 1.456-3.03 3.2v.032c0 1.776 1.31 3.216 3.06 3.216Zm6.65.912v-11.68h1.23V117h-1.23Zm4.12-10.08v-1.36h1.41v1.36h-1.41Zm.08 10.08v-8.272h1.23V117h-1.23Zm7.87.192c-2.48 0-4.29-1.952-4.29-4.288v-.032c0-2.336 1.82-4.32 4.32-4.32 2.48 0 4.3 1.952 4.3 4.288v.032c0 2.336-1.84 4.32-4.33 4.32Zm.03-1.104c1.79 0 3.04-1.44 3.04-3.184v-.032c0-1.776-1.33-3.232-3.07-3.232-1.8 0-3.03 1.456-3.03 3.2v.032c0 1.776 1.31 3.216 3.06 3.216Zm11.54.912v-11.2h4.81c1.38 0 2.48.416 3.19 1.12.54.544.86 1.328.86 2.208v.032c0 1.856-1.28 2.944-3.04 3.264l3.44 4.576h-1.55l-3.25-4.352h-3.2V117h-1.26Zm1.26-5.488h3.44c1.68 0 2.88-.864 2.88-2.304v-.032c0-1.376-1.05-2.208-2.86-2.208h-3.46v4.544Zm10.67 1.856c.18 1.744 1.46 2.752 2.92 2.752 1.13 0 1.93-.464 2.6-1.168l.77.688c-.83.928-1.84 1.552-3.41 1.552-2.27 0-4.12-1.744-4.12-4.32 0-2.4 1.68-4.32 3.96-4.32 2.45 0 3.86 1.952 3.86 4.384 0 .112 0 .24-.02.432h-6.56Zm0-.992h5.33c-.14-1.504-1.01-2.784-2.64-2.784-1.42 0-2.51 1.184-2.69 2.784Zm11.1 4.688-3.59-8.336h1.36l2.79 6.864 2.8-6.864h1.33l-3.6 8.336h-1.09Zm6.65-10.144v-1.36h1.41v1.36h-1.41Zm.08 10.08v-8.272h1.23V117h-1.23Zm4.83-3.632c.18 1.744 1.46 2.752 2.91 2.752 1.14 0 1.94-.464 2.61-1.168l.77.688c-.83.928-1.84 1.552-3.41 1.552-2.27 0-4.13-1.744-4.13-4.32 0-2.4 1.68-4.32 3.97-4.32 2.45 0 3.86 1.952 3.86 4.384 0 .112 0 .24-.02.432h-6.56Zm0-.992h5.33c-.15-1.504-1.01-2.784-2.64-2.784-1.43 0-2.51 1.184-2.69 2.784Zm10.52 4.688-2.9-8.336h1.31l2.18 6.64 2.22-6.672h1.03l2.24 6.672 2.17-6.64h1.28l-2.91 8.336h-1.07l-2.22-6.528-2.24 6.528h-1.09Z"/>
  <rect width="28.372" height="28.372" x="1013.33" y="98.314" stroke="url(#c)" stroke-width="1.628" rx="3.186"/>
  <g clip-path="url(#d)">
    <path fill="url(#e)" d="M1033.42 118.409h-4.72v1.182h4.72v-1.182Z"/>
    <path fill="url(#f)" d="M1035.79 116.045h-7.09v1.182h7.09v-1.182Z"/>
    <path fill="url(#g)" d="M1035.79 113.682h-7.09v1.181h7.09v-1.181Z"/>
    <path fill="url(#h)" d="m1030.2 109.673-2.68-5.446-2.69 5.446-6.01.874 4.35 4.24-1.03 5.986 4.19-2.205v-1.335l-2.62 1.379.73-4.238-3.08-3.002 4.25-.619 1.91-3.856 1.9 3.856 5.02.731.17-1.171-4.41-.64Z"/>
  </g>
  <rect width="237" height="63" x="999.516" fill="#18181B" rx="5"/>
  <path fill="#fff" d="M1057.1 36V24.8h4.19c2.53 0 4.19 1.344 4.19 3.552v.032c0 2.416-2.01 3.664-4.4 3.664h-2.72V36h-1.26Zm1.26-5.104h2.77c1.86 0 3.07-.992 3.07-2.464V28.4c0-1.6-1.2-2.432-3-2.432h-2.84v4.928Zm12.92 5.296c-2.48 0-4.29-1.952-4.29-4.288v-.032c0-2.336 1.82-4.32 4.32-4.32 2.48 0 4.3 1.952 4.3 4.288v.032c0 2.336-1.84 4.32-4.33 4.32Zm.03-1.104c1.79 0 3.04-1.44 3.04-3.184v-.032c0-1.776-1.33-3.232-3.07-3.232-1.8 0-3.03 1.456-3.03 3.2v.032c0 1.776 1.31 3.216 3.06 3.216Zm6.53.912v-8.272h1.24v2.16c.6-1.376 1.8-2.368 3.37-2.304v1.328h-.09c-1.81 0-3.28 1.296-3.28 3.792V36h-1.24Zm9.26.144c-1.33 0-2.34-.656-2.34-2.336v-4.992h-1.15v-1.088h1.15v-2.496h1.23v2.496h2.63v1.088h-2.63v4.832c0 1.008.56 1.376 1.4 1.376.41 0 .76-.08 1.2-.288v1.056c-.44.224-.9.352-1.49.352Zm4.16-.144v-7.184h-1.13v-1.072h1.13v-.72c0-.944.26-1.664.72-2.128.42-.416 1.03-.64 1.78-.64.57 0 .96.064 1.36.208v1.072c-.45-.128-.79-.208-1.2-.208-.96 0-1.44.576-1.44 1.76v.672h2.62v1.056h-2.61V36h-1.23Zm9.03.192c-2.48 0-4.29-1.952-4.29-4.288v-.032c0-2.336 1.83-4.32 4.32-4.32 2.48 0 4.31 1.952 4.31 4.288v.032c0 2.336-1.84 4.32-4.34 4.32Zm.03-1.104c1.8 0 3.04-1.44 3.04-3.184v-.032c0-1.776-1.32-3.232-3.07-3.232-1.79 0-3.02 1.456-3.02 3.2v.032c0 1.776 1.31 3.216 3.05 3.216Zm6.65.912V24.32h1.23V36h-1.23Zm4.13-10.08v-1.36h1.4v1.36h-1.4Zm.08 10.08v-8.272h1.23V36h-1.23Zm7.86.192c-2.48 0-4.29-1.952-4.29-4.288v-.032c0-2.336 1.83-4.32 4.32-4.32 2.48 0 4.31 1.952 4.31 4.288v.032c0 2.336-1.84 4.32-4.34 4.32Zm.03-1.104c1.8 0 3.04-1.44 3.04-3.184v-.032c0-1.776-1.32-3.232-3.07-3.232-1.79 0-3.02 1.456-3.02 3.2v.032c0 1.776 1.31 3.216 3.05 3.216Zm11.66.912V24.8h1.26V36h-1.26Zm4.33 0v-8.272h1.24v1.44c.54-.896 1.4-1.616 2.83-1.616 2 0 3.17 1.344 3.17 3.312V36h-1.24v-4.832c0-1.536-.83-2.496-2.28-2.496-1.43 0-2.48 1.04-2.48 2.592V36h-1.24Zm12.63.144c-1.33 0-2.34-.656-2.34-2.336v-4.992h-1.15v-1.088h1.15v-2.496h1.24v2.496h2.62v1.088h-2.62v4.832c0 1.008.56 1.376 1.39 1.376.41 0 .77-.08 1.2-.288v1.056c-.43.224-.9.352-1.49.352Zm4.2-3.776c.18 1.744 1.46 2.752 2.92 2.752 1.13 0 1.93-.464 2.6-1.168l.77.688c-.83.928-1.84 1.552-3.41 1.552-2.27 0-4.12-1.744-4.12-4.32 0-2.4 1.68-4.32 3.96-4.32 2.45 0 3.86 1.952 3.86 4.384 0 .112 0 .24-.02.432h-6.56Zm0-.992h5.33c-.14-1.504-1.01-2.784-2.64-2.784-1.42 0-2.51 1.184-2.69 2.784Zm8.85 4.624V24.32h1.23V36h-1.23Zm4.2 0V24.32h1.23V36h-1.23Zm4.12-10.08v-1.36h1.41v1.36h-1.41Zm.08 10.08v-8.272h1.24V36h-1.24Zm7.76 2.592c-1.38 0-2.66-.384-3.76-1.152l.56-.96c.94.688 2 1.056 3.18 1.056 1.83 0 3.01-1.008 3.01-2.944v-.976c-.72.96-1.73 1.744-3.25 1.744-1.98 0-3.88-1.488-3.88-3.872v-.032c0-2.416 1.92-3.904 3.88-3.904 1.56 0 2.56.768 3.24 1.664v-1.488h1.23v6.832c0 1.28-.39 2.256-1.06 2.928-.73.736-1.84 1.104-3.15 1.104Zm-.02-4.32c1.57 0 3.04-1.136 3.04-2.8v-.032c0-1.696-1.47-2.8-3.04-2.8-1.56 0-2.86 1.088-2.86 2.784v.032c0 1.664 1.33 2.816 2.86 2.816Zm7.72-1.904c.17 1.744 1.45 2.752 2.91 2.752 1.13 0 1.93-.464 2.61-1.168l.76.688c-.83.928-1.84 1.552-3.4 1.552-2.28 0-4.13-1.744-4.13-4.32 0-2.4 1.68-4.32 3.97-4.32 2.44 0 3.85 1.952 3.85 4.384 0 .112 0 .24-.01.432h-6.56Zm0-.992h5.32c-.14-1.504-1-2.784-2.64-2.784-1.42 0-2.51 1.184-2.68 2.784Zm8.73 4.624v-8.272h1.23v1.44c.55-.896 1.41-1.616 2.83-1.616 2 0 3.17 1.344 3.17 3.312V36h-1.23v-4.832c0-1.536-.83-2.496-2.29-2.496-1.42 0-2.48 1.04-2.48 2.592V36h-1.23Zm13.59.192c-2.42 0-4.24-1.968-4.24-4.288v-.032c0-2.336 1.82-4.32 4.24-4.32 1.56 0 2.54.656 3.31 1.472l-.82.864c-.65-.688-1.39-1.248-2.51-1.248-1.68 0-2.96 1.424-2.96 3.2v.032c0 1.792 1.31 3.216 3.04 3.216 1.06 0 1.87-.528 2.53-1.232l.78.736c-.83.928-1.82 1.6-3.37 1.6Zm5.91-3.824c.18 1.744 1.46 2.752 2.91 2.752 1.14 0 1.94-.464 2.61-1.168l.77.688c-.83.928-1.84 1.552-3.41 1.552-2.27 0-4.13-1.744-4.13-4.32 0-2.4 1.68-4.32 3.97-4.32 2.45 0 3.86 1.952 3.86 4.384 0 .112 0 .24-.02.432h-6.56Zm0-.992h5.33c-.15-1.504-1.01-2.784-2.64-2.784-1.43 0-2.51 1.184-2.69 2.784Z"/>
  <rect width="28.372" height="28.372" x="1016.33" y="17.314" stroke="url(#i)" stroke-width="1.628" rx="3.186"/>
  <g clip-path="url(#j)">
    <path fill="url(#k)" d="M1036.42 34.41h-1.18v2.954h1.18V34.41Z"/>
    <path fill="#000" fill-opacity=".1" d="M1036.42 34.41h-1.18v2.954h1.18V34.41Z"/>
    <path fill="url(#l)" d="M1034.06 31.455h-1.18v5.91h1.18v-5.91Z"/>
    <path fill="#000" fill-opacity=".1" d="M1034.06 31.455h-1.18v5.91h1.18v-5.91Z"/>
    <path fill="url(#m)" d="M1027.56 37.364a2.98 2.98 0 0 1-2.09-.866 2.965 2.965 0 0 1-.86-2.088h1.18c0 .35.1.693.3.985a1.762 1.762 0 0 0 2.72.268c.25-.248.42-.563.49-.907.07-.344.03-.7-.1-1.025-.14-.324-.36-.6-.65-.795a1.81 1.81 0 0 0-.99-.299v-1.182c.78 0 1.54.311 2.09.866.55.554.87 1.305.87 2.089 0 .783-.32 1.535-.87 2.089s-1.31.865-2.09.865Z"/>
    <path fill="#000" fill-opacity=".1" d="M1027.56 37.364a2.98 2.98 0 0 1-2.09-.866 2.965 2.965 0 0 1-.86-2.088h1.18c0 .35.1.693.3.985a1.762 1.762 0 0 0 2.72.268c.25-.248.42-.563.49-.907.07-.344.03-.7-.1-1.025-.14-.324-.36-.6-.65-.795a1.81 1.81 0 0 0-.99-.299v-1.182c.78 0 1.54.311 2.09.866.55.554.87 1.305.87 2.089 0 .783-.32 1.535-.87 2.089s-1.31.865-2.09.865Z"/>
    <path fill="url(#n)" d="M1037.61 23.182h-14.19a1.192 1.192 0 0 0-1.18 1.182v14.182a1.191 1.191 0 0 0 1.18 1.182h14.19a1.192 1.192 0 0 0 1.18-1.182V24.363a1.192 1.192 0 0 0-1.18-1.181Zm0 5.318h-8.28v-4.137h8.28V28.5Zm-9.46-4.137V28.5h-4.73v-4.137h4.73Zm-4.73 14.183v-8.864h14.19v8.864h-14.19Z"/>
    <path fill="#000" fill-opacity=".1" d="M1037.61 23.182h-14.19a1.192 1.192 0 0 0-1.18 1.182v14.182a1.191 1.191 0 0 0 1.18 1.182h14.19a1.192 1.192 0 0 0 1.18-1.182V24.363a1.192 1.192 0 0 0-1.18-1.181Zm0 5.318h-8.28v-4.137h8.28V28.5Zm-9.46-4.137V28.5h-4.73v-4.137h4.73Zm-4.73 14.183v-8.864h14.19v8.864h-14.19Z"/>
  </g>
  <rect width="157" height="63" x="999.516" y="162" fill="#18181B" rx="5"/>
  <path fill="#fff" d="M1055.1 198v-11.2h1.26v10.032h6.31V198h-7.57Zm9.91 0v-11.2h4.19c2.53 0 4.19 1.344 4.19 3.552v.032c0 2.416-2.02 3.664-4.4 3.664h-2.72V198h-1.26Zm1.26-5.104h2.77c1.85 0 3.07-.992 3.07-2.464v-.032c0-1.6-1.2-2.432-3.01-2.432h-2.83v4.928Zm14.22 5.104v-11.2h4.82c1.37 0 2.48.416 3.18 1.12.54.544.86 1.328.86 2.208v.032c0 1.856-1.28 2.944-3.04 3.264l3.44 4.576h-1.55l-3.25-4.352h-3.2V198h-1.26Zm1.26-5.488h3.44c1.68 0 2.88-.864 2.88-2.304v-.032c0-1.376-1.05-2.208-2.86-2.208h-3.46v4.544Zm10.67 1.856c.18 1.744 1.46 2.752 2.92 2.752 1.13 0 1.93-.464 2.6-1.168l.77.688c-.83.928-1.84 1.552-3.41 1.552-2.27 0-4.12-1.744-4.12-4.32 0-2.4 1.68-4.32 3.96-4.32 2.45 0 3.86 1.952 3.86 4.384 0 .112 0 .24-.02.432h-6.56Zm0-.992h5.33c-.14-1.504-1.01-2.784-2.64-2.784-1.42 0-2.51 1.184-2.69 2.784Zm8.74 7.184v-10.832h1.23v1.664c.67-.992 1.65-1.84 3.17-1.84 1.98 0 3.95 1.568 3.95 4.288v.032c0 2.704-1.95 4.304-3.95 4.304-1.54 0-2.53-.832-3.17-1.76v4.144h-1.23Zm4.17-3.488c1.6 0 2.92-1.184 2.92-3.184v-.032c0-1.952-1.35-3.2-2.92-3.2-1.53 0-2.99 1.296-2.99 3.184v.032c0 1.92 1.46 3.2 2.99 3.2Zm10.23 1.12c-2.48 0-4.29-1.952-4.29-4.288v-.032c0-2.336 1.82-4.32 4.32-4.32 2.48 0 4.3 1.952 4.3 4.288v.032c0 2.336-1.84 4.32-4.33 4.32Zm.03-1.104c1.79 0 3.04-1.44 3.04-3.184v-.032c0-1.776-1.33-3.232-3.07-3.232-1.79 0-3.03 1.456-3.03 3.2v.032c0 1.776 1.32 3.216 3.06 3.216Zm6.54.912v-8.272h1.23v2.16c.61-1.376 1.81-2.368 3.37-2.304v1.328h-.09c-1.81 0-3.28 1.296-3.28 3.792V198h-1.23Zm9.25.144c-1.33 0-2.34-.656-2.34-2.336v-4.992h-1.15v-1.088h1.15v-2.496h1.23v2.496h2.63v1.088h-2.63v4.832c0 1.008.56 1.376 1.4 1.376.41 0 .76-.08 1.2-.288v1.056c-.44.224-.9.352-1.49.352Zm6.44.016c-1.19 0-2.5-.464-3.43-1.216l.63-.88c.89.672 1.88 1.056 2.86 1.056.99 0 1.71-.512 1.71-1.312v-.032c0-.832-.97-1.152-2.06-1.456-1.3-.368-2.74-.816-2.74-2.336v-.032c0-1.424 1.19-2.368 2.82-2.368 1.01 0 2.13.352 2.97.912l-.56.928c-.76-.496-1.64-.8-2.44-.8-.98 0-1.6.512-1.6 1.2v.032c0 .784 1.02 1.088 2.12 1.424 1.28.384 2.66.88 2.66 2.368v.032c0 1.568-1.3 2.48-2.94 2.48Z"/>
  <rect width="28.372" height="28.372" x="1014.33" y="179.314" stroke="url(#o)" stroke-width="1.628" rx="3.186"/>
  <g clip-path="url(#p)">
    <path fill="url(#q)" fill-rule="evenodd" d="M1034.25 184.931h-11.47c-.59 0-1.06.499-1.06 1.115v14.908c0 .615.47 1.114 1.06 1.114h11.47c.59 0 1.06-.499 1.06-1.114v-14.908c0-.616-.47-1.115-1.06-1.115Zm0 8.008v8.059h-11.47v-14.995h11.47v6.936Zm-2.19-1.212v1.182h-7.09v-1.182h7.09Zm-1.18-1.182v-1.182h-5.91v1.182h5.91Zm1.18 5.909v1.182h-7.09v-1.182h7.09Zm-1.18-1.181v-1.182h-5.91v1.182h5.91Z" clip-rule="evenodd"/>
  </g>
  <rect width="220" height="63" x="999.516" y="243" fill="#18181B" rx="5"/>
  <path fill="#fff" d="m1060.46 279.08-4.82-11.28h1.41l3.98 9.648 4-9.648h1.36l-4.81 11.28h-1.12Zm7.65-10.16v-1.36h1.41v1.36h-1.41Zm.08 10.08v-8.272h1.23V279h-1.23Zm6.83.16c-1.19 0-2.5-.464-3.43-1.216l.63-.88c.89.672 1.89 1.056 2.86 1.056.99 0 1.71-.512 1.71-1.312v-.032c0-.832-.97-1.152-2.06-1.456-1.3-.368-2.74-.816-2.74-2.336v-.032c0-1.424 1.19-2.368 2.82-2.368 1.01 0 2.13.352 2.98.912l-.56.928c-.77-.496-1.65-.8-2.45-.8-.98 0-1.6.512-1.6 1.2v.032c0 .784 1.02 1.088 2.13 1.424 1.28.384 2.65.88 2.65 2.368v.032c0 1.568-1.29 2.48-2.94 2.48Zm5.26-10.24v-1.36h1.41v1.36h-1.41Zm.08 10.08v-8.272h1.23V279h-1.23Zm8.49.176c-1.53 0-2.52-.832-3.16-1.76V279h-1.24v-11.68h1.24v5.072c.67-.992 1.64-1.84 3.16-1.84 1.99 0 3.96 1.568 3.96 4.288v.032c0 2.704-1.96 4.304-3.96 4.304Zm-.22-1.104c1.6 0 2.91-1.184 2.91-3.184v-.032c0-1.952-1.34-3.2-2.91-3.2-1.54 0-2.99 1.296-2.99 3.184v.032c0 1.92 1.45 3.2 2.99 3.2Zm6.56.928v-11.68h1.23V279h-1.23Zm4.83-3.632c.17 1.744 1.45 2.752 2.91 2.752 1.14 0 1.94-.464 2.61-1.168l.77.688c-.84.928-1.84 1.552-3.41 1.552-2.27 0-4.13-1.744-4.13-4.32 0-2.4 1.68-4.32 3.97-4.32 2.45 0 3.85 1.952 3.85 4.384 0 .112 0 .24-.01.432h-6.56Zm0-.992h5.33c-.15-1.504-1.01-2.784-2.64-2.784-1.43 0-2.52 1.184-2.69 2.784Zm16.7 4.624v-10.032h-3.76V267.8h8.8v1.168H1118V279h-1.28Zm5.91-3.632c.17 1.744 1.45 2.752 2.91 2.752 1.14 0 1.94-.464 2.61-1.168l.77.688c-.84.928-1.84 1.552-3.41 1.552-2.27 0-4.13-1.744-4.13-4.32 0-2.4 1.68-4.32 3.97-4.32 2.45 0 3.85 1.952 3.85 4.384 0 .112 0 .24-.01.432h-6.56Zm0-.992h5.33c-.15-1.504-1.01-2.784-2.64-2.784-1.43 0-2.52 1.184-2.69 2.784Zm11.19 4.8c-1.55 0-3.08-.88-3.08-2.576v-.032c0-1.776 1.44-2.704 3.53-2.704 1.06 0 1.79.144 2.53.352v-.256c0-1.472-.9-2.24-2.45-2.24-.97 0-1.74.24-2.51.592l-.37-1.008c.91-.416 1.79-.704 3.01-.704 1.17 0 2.08.32 2.67.912.58.576.87 1.376.87 2.432V279h-1.22v-1.232c-.58.736-1.52 1.408-2.98 1.408Zm.24-.992c1.52 0 2.76-.912 2.76-2.224v-.768a8.535 8.535 0 0 0-2.42-.352c-1.54 0-2.42.672-2.42 1.664v.032c0 1.04.96 1.648 2.08 1.648Zm6.57.816v-8.272h1.23v2.16c.61-1.376 1.81-2.368 3.37-2.304v1.328h-.09c-1.81 0-3.28 1.296-3.28 3.792V279h-1.23Zm15.33.16c-1.78 0-3.24-.592-4.58-1.792l.78-.928c1.17 1.056 2.29 1.584 3.84 1.584 1.51 0 2.5-.8 2.5-1.904v-.032c0-1.04-.56-1.632-2.91-2.128-2.58-.56-3.76-1.392-3.76-3.232v-.032c0-1.76 1.55-3.056 3.68-3.056 1.63 0 2.8.464 3.93 1.376l-.73.976c-1.04-.848-2.08-1.216-3.23-1.216-1.46 0-2.39.8-2.39 1.808v.032c0 1.056.58 1.648 3.04 2.176 2.5.544 3.65 1.456 3.65 3.168v.032c0 1.92-1.6 3.168-3.82 3.168Zm6.18-.16v-11.68h1.23v4.848c.55-.896 1.41-1.616 2.84-1.616 2 0 3.16 1.344 3.16 3.312V279h-1.23v-4.832c0-1.536-.83-2.496-2.29-2.496-1.42 0-2.48 1.04-2.48 2.592V279h-1.23Zm10.6-3.632c.17 1.744 1.45 2.752 2.91 2.752 1.13 0 1.93-.464 2.61-1.168l.76.688c-.83.928-1.84 1.552-3.4 1.552-2.28 0-4.13-1.744-4.13-4.32 0-2.4 1.68-4.32 3.97-4.32 2.44 0 3.85 1.952 3.85 4.384 0 .112 0 .24-.01.432h-6.56Zm0-.992h5.32c-.14-1.504-1-2.784-2.64-2.784-1.42 0-2.51 1.184-2.68 2.784Zm9.47.992c.17 1.744 1.45 2.752 2.91 2.752 1.13 0 1.93-.464 2.61-1.168l.76.688c-.83.928-1.84 1.552-3.4 1.552-2.28 0-4.13-1.744-4.13-4.32 0-2.4 1.68-4.32 3.97-4.32 2.44 0 3.85 1.952 3.85 4.384 0 .112 0 .24-.01.432h-6.56Zm0-.992h5.32c-.14-1.504-1-2.784-2.64-2.784-1.42 0-2.51 1.184-2.68 2.784Zm11.5 4.768c-1.33 0-2.34-.656-2.34-2.336v-4.992h-1.15v-1.088h1.15v-2.496h1.23v2.496h2.63v1.088h-2.63v4.832c0 1.008.56 1.376 1.39 1.376.42 0 .77-.08 1.2-.288v1.056c-.43.224-.89.352-1.48.352Zm6.43.016c-1.18 0-2.49-.464-3.42-1.216l.62-.88c.9.672 1.89 1.056 2.87 1.056.99 0 1.71-.512 1.71-1.312v-.032c0-.832-.98-1.152-2.06-1.456-1.3-.368-2.74-.816-2.74-2.336v-.032c0-1.424 1.18-2.368 2.82-2.368 1 0 2.12.352 2.97.912l-.56.928c-.77-.496-1.65-.8-2.45-.8-.97 0-1.6.512-1.6 1.2v.032c0 .784 1.03 1.088 2.13 1.424 1.28.384 2.66.88 2.66 2.368v.032c0 1.568-1.3 2.48-2.95 2.48Z"/>
  <rect width="28.372" height="28.372" x="1015.83" y="260.314" stroke="url(#r)" stroke-width="1.628" rx="3.186"/>
  <path fill="url(#s)" d="M1030.61 276.863h-1.19v2.364h1.19v-2.364Z"/>
  <path fill="url(#t)" d="M1033.56 275.682h-1.18v3.545h1.18v-3.545Z"/>
  <path fill="url(#u)" d="M1027.65 273.318h-1.18v5.909h1.18v-5.909Z"/>
  <path fill="url(#v)" d="M1035.33 267.999h-1.77v-.591c0-.313-.12-.614-.34-.835a1.211 1.211 0 0 0-.84-.346h-4.73c-.31 0-.61.124-.83.346a1.15 1.15 0 0 0-.35.835v.591h-1.77c-.32 0-.62.125-.84.347-.22.221-.34.522-.34.835v12.41c0 .313.12.614.34.836.22.221.52.346.84.346h10.63c.32 0 .62-.125.84-.346.22-.222.35-.523.35-.836v-12.41a1.19 1.19 0 0 0-1.19-1.182Zm-7.68-.591h4.73v2.364h-4.73v-2.364Zm7.68 14.183h-10.63v-12.41h1.77v1.773h7.09v-1.773h1.77v12.41Z"/>
  <path stroke="#71717A" stroke-dasharray="4 4" d="M999.516 279h-35.214c-16.568 0-30-13.431-30-30v-27.774c0-16.569-13.431-30-30-30h-55.786m151-75.127h-35.214c-16.568 0-30 13.431-30 30v15.127c0 16.568-13.431 30-30 30h-55.786">
    <animate attributeName="stroke-dashoffset" dur="2s" repeatCount="indefinite" values="0;40"/>
  </path>
  <path stroke="#71717A" stroke-dasharray="4 4" d="M999.516 353.807h-35c-16.569 0-30-13.432-30-30V249.93m65-218.32h-35c-16.569 0-30 13.432-30 30v71.611">
    <animate attributeName="stroke-dashoffset" dur="2s" repeatCount="indefinite" values="0;40"/>
  </path>
  <rect width="119" height="22" x="767.598" y="180.226" fill="#D9D9D9" rx="11"/>
  <path fill="#000" d="M780.786 195.226v-8.4h2.916c2.64 0 4.464 1.812 4.464 4.176v.024c0 2.364-1.824 4.2-4.464 4.2h-2.916Zm.948-.876h1.968c2.124 0 3.48-1.44 3.48-3.3v-.024c0-1.86-1.356-3.324-3.48-3.324h-1.968v6.648Zm7.698.876 3.828-8.46h.888l3.828 8.46h-1.02l-.984-2.22H791.4l-.996 2.22h-.972Zm2.34-3.072h3.828l-1.908-4.284-1.92 4.284Zm9.533 3.072v-7.524h-2.82v-.876h6.6v.876h-2.82v7.524h-.96Zm4.294 0 3.828-8.46h.888l3.828 8.46h-1.02l-.984-2.22h-4.572l-.996 2.22h-.972Zm2.34-3.072h3.828l-1.908-4.284-1.92 4.284Zm16.419 3.216c-2.556 0-4.272-2.004-4.272-4.32v-.024c0-2.316 1.74-4.344 4.296-4.344s4.272 2.004 4.272 4.32v.024c0 2.316-1.74 4.344-4.296 4.344Zm.024-.876c1.92 0 3.288-1.536 3.288-3.444v-.024c0-1.908-1.392-3.468-3.312-3.468s-3.288 1.536-3.288 3.444v.024c0 1.908 1.392 3.468 3.312 3.468Zm10.162.864c-2.076 0-3.492-1.272-3.492-3.648v-4.884H832v4.824c0 1.812.96 2.832 2.568 2.832 1.548 0 2.532-.936 2.532-2.772v-4.884h.948v4.812c0 2.448-1.404 3.72-3.504 3.72Zm8.496-.132v-7.524h-2.82v-.876h6.6v.876H844v7.524h-.96Zm6.091 0v-8.4h3.144c1.896 0 3.144 1.008 3.144 2.664v.024c0 1.812-1.512 2.748-3.3 2.748h-2.04v2.964h-.948Zm.948-3.828h2.076c1.392 0 2.304-.744 2.304-1.848v-.024c0-1.2-.9-1.824-2.256-1.824h-2.124v3.696Zm10.959 3.96c-2.076 0-3.492-1.272-3.492-3.648v-4.884h.948v4.824c0 1.812.96 2.832 2.568 2.832 1.548 0 2.532-.936 2.532-2.772v-4.884h.948v4.812c0 2.448-1.404 3.72-3.504 3.72Zm8.496-.132v-7.524h-2.82v-.876h6.6v.876h-2.82v7.524h-.96Z"/>
  <g filter="url(#w)">
    <rect width="151.705" height="151.705" x="567.977" y="117.647" fill="#18181B" rx="6.372"/>
  </g>
  <path fill="#fff" fill-opacity=".4" fill-rule="evenodd" d="m643.048 231.131-39.474-68.372h78.949-52.284l26.142 45.28-13.333 23.092Z" clip-rule="evenodd"/>
  <path fill="#fff" fill-opacity=".6" fill-rule="evenodd" d="m656.222 162.759 13.152 22.779-12.991 22.5-26.142-45.279h25.981Z" clip-rule="evenodd"/>
  <path fill="#fff" d="m669.372 185.538-13.152-22.779h26.303l-13.151 22.779Z"/>
  <path stroke="#71717A" stroke-dasharray="4 4" d="M296 149.107h56.662c11.63 0 21.059 9.429 21.059 21.06 0 11.63 9.428 21.059 21.059 21.059h81.181M296 237.934h54.367c12.898 0 23.354-10.456 23.354-23.354s10.456-23.354 23.354-23.354h78.886">
    <animate attributeName="stroke-dashoffset" dur="2s" repeatCount="indefinite" values="40;0"/>
  </path>
  <path stroke="#71717A" stroke-dasharray="4 4" d="M296 70.905h47.721c16.568 0 30 13.432 30 30v63.371">
    <animate attributeName="stroke-dashoffset" dur="2s" repeatCount="indefinite" values="40;0"/>
  </path>
  <rect width="104" height="22" x="416.158" y="180.226" fill="#D9D9D9" rx="11"/>
  <path fill="#000" d="M429.346 195.226v-8.4h2.916c2.64 0 4.464 1.812 4.464 4.176v.024c0 2.364-1.824 4.2-4.464 4.2h-2.916Zm.948-.876h1.968c2.124 0 3.48-1.44 3.48-3.3v-.024c0-1.86-1.356-3.324-3.48-3.324h-1.968v6.648Zm7.699.876 3.828-8.46h.888l3.828 8.46h-1.02l-.984-2.22h-4.572l-.996 2.22h-.972Zm2.34-3.072h3.828l-1.908-4.284-1.92 4.284Zm9.532 3.072v-7.524h-2.82v-.876h6.6v.876h-2.82v7.524h-.96Zm4.294 0 3.828-8.46h.888l3.828 8.46h-1.02l-.984-2.22h-4.572l-.996 2.22h-.972Zm2.34-3.072h3.828l-1.908-4.284-1.92 4.284Zm12.603 3.072v-8.4h.948v8.4h-.948Zm3.939 0v-8.4h.888l5.292 6.732v-6.732h.924v8.4h-.756l-5.424-6.888v6.888h-.924Zm10.011 0v-8.4h3.144c1.896 0 3.144 1.008 3.144 2.664v.024c0 1.812-1.512 2.748-3.3 2.748H484v2.964h-.948Zm.948-3.828h2.076c1.392 0 2.304-.744 2.304-1.848v-.024c0-1.2-.9-1.824-2.256-1.824H484v3.696Zm10.958 3.96c-2.076 0-3.492-1.272-3.492-3.648v-4.884h.948v4.824c0 1.812.96 2.832 2.568 2.832 1.548 0 2.532-.936 2.532-2.772v-4.884h.948v4.812c0 2.448-1.404 3.72-3.504 3.72Zm8.496-.132v-7.524h-2.82v-.876h6.6v.876h-2.82v7.524h-.96Z"/>
  <path stroke="#71717A" stroke-dasharray="4 4" d="M267.764 319.954h75.957c16.568 0 30-13.431 30-30V218.52">
    <animate attributeName="stroke-dashoffset" dur="2s" repeatCount="indefinite" values="40;0"/>
  </path>
  <rect width="199" height="63" x="111" y="202.708" fill="#18181B" rx="5"/>
  <rect width="185" height="63" x="111" y="39.875" fill="#18181B" rx="5"/>
  <path fill="#fff" d="M170.584 75.875v-11.2h1.28l4.08 6.112 4.08-6.112h1.28v11.2h-1.264v-9.072l-4.08 6h-.064l-4.08-5.984v9.056h-1.232Zm14.419-3.632c.176 1.744 1.456 2.752 2.912 2.752 1.136 0 1.936-.464 2.608-1.168l.768.688c-.832.928-1.84 1.552-3.408 1.552-2.272 0-4.128-1.744-4.128-4.32 0-2.4 1.68-4.32 3.968-4.32 2.448 0 3.856 1.952 3.856 4.384 0 .112 0 .24-.016.432h-6.56Zm0-.992h5.328c-.144-1.504-1.008-2.784-2.64-2.784-1.424 0-2.512 1.184-2.688 2.784Zm11.5 4.768c-1.328 0-2.336-.656-2.336-2.336v-4.992h-1.152v-1.088h1.152v-2.496h1.232v2.496h2.624v1.088h-2.624v4.832c0 1.008.56 1.376 1.392 1.376.416 0 .768-.08 1.2-.288v1.056a3.099 3.099 0 0 1-1.488.352Zm3.701-.144v-8.272h1.232v2.16c.608-1.376 1.808-2.368 3.376-2.304v1.328h-.096c-1.808 0-3.28 1.296-3.28 3.792v3.296h-1.232Zm6.517-10.08v-1.36h1.408v1.36h-1.408Zm.08 10.08v-8.272h1.232v8.272h-1.232Zm7.819.192c-2.416 0-4.24-1.968-4.24-4.288v-.032c0-2.336 1.824-4.32 4.24-4.32 1.568 0 2.544.656 3.312 1.472l-.816.864c-.656-.688-1.392-1.248-2.512-1.248-1.68 0-2.96 1.424-2.96 3.2v.032c0 1.792 1.312 3.216 3.04 3.216 1.056 0 1.872-.528 2.528-1.232l.784.736c-.832.928-1.824 1.6-3.376 1.6Zm10.529-.192v-11.2h1.264v11.2h-1.264Zm4.336 0v-8.272h1.232v1.392c.544-.816 1.28-1.568 2.672-1.568 1.344 0 2.208.72 2.656 1.648.592-.912 1.472-1.648 2.912-1.648 1.904 0 3.072 1.28 3.072 3.328v5.12h-1.232v-4.832c0-1.6-.8-2.496-2.144-2.496-1.248 0-2.288.928-2.288 2.56v4.768h-1.216v-4.864c0-1.552-.816-2.464-2.128-2.464-1.312 0-2.304 1.088-2.304 2.608v4.72h-1.232Zm15.219 2.56V67.603h1.232v1.664c.672-.992 1.648-1.84 3.168-1.84 1.984 0 3.952 1.568 3.952 4.288v.032c0 2.704-1.952 4.304-3.952 4.304-1.536 0-2.528-.832-3.168-1.76v4.144h-1.232Zm4.176-3.488c1.6 0 2.912-1.184 2.912-3.184v-.032c0-1.952-1.344-3.2-2.912-3.2-1.536 0-2.992 1.296-2.992 3.184v.032c0 1.92 1.456 3.2 2.992 3.2Zm10.225 1.12c-2.48 0-4.288-1.952-4.288-4.288v-.032c0-2.336 1.824-4.32 4.32-4.32 2.48 0 4.304 1.952 4.304 4.288v.032c0 2.336-1.84 4.32-4.336 4.32Zm.032-1.104c1.792 0 3.04-1.44 3.04-3.184v-.032c0-1.776-1.328-3.232-3.072-3.232-1.792 0-3.024 1.456-3.024 3.2v.032c0 1.776 1.312 3.216 3.056 3.216Zm6.536.912v-8.272h1.232v2.16c.608-1.376 1.808-2.368 3.376-2.304v1.328h-.096c-1.808 0-3.28 1.296-3.28 3.792v3.296h-1.232Zm9.252.144c-1.328 0-2.336-.656-2.336-2.336v-4.992h-1.152v-1.088h1.152v-2.496h1.232v2.496h2.624v1.088h-2.624v4.832c0 1.008.56 1.376 1.392 1.376.416 0 .768-.08 1.2-.288v1.056a3.099 3.099 0 0 1-1.488.352Z"/>
  <rect width="28.372" height="28.372" x="127.548" y="57.189" stroke="url(#x)" stroke-width="1.628" rx="3.186"/>
  <path fill="url(#y)" d="M148.235 65.466v2.954h-5.91v-2.954h5.91Zm0-1.182h-5.91a1.18 1.18 0 0 0-1.182 1.182v2.954a1.181 1.181 0 0 0 1.182 1.182h5.91a1.18 1.18 0 0 0 1.181-1.182v-2.954a1.18 1.18 0 0 0-1.181-1.182Z"/>
  <path fill="url(#z)" d="M139.371 76.693h-3.546v-4.727h3.546v-1.182h-3.546a1.182 1.182 0 0 0-1.182 1.182v4.727a1.185 1.185 0 0 0 1.182 1.182h3.546v-1.182Z"/>
  <path fill="url(#A)" d="M150.007 73.739h-7.783l1.528-1.529-.836-.835-2.955 2.955 2.955 2.954.836-.835-1.528-1.528h7.783v-1.182Z"/>
  <path fill="url(#B)" d="M138.78 65.466v2.954h-2.955v-2.954h2.955Zm0-1.182h-2.955a1.182 1.182 0 0 0-1.182 1.182v2.954a1.185 1.185 0 0 0 1.182 1.182h2.955a1.18 1.18 0 0 0 1.181-1.182v-2.954a1.18 1.18 0 0 0-1.181-1.182Z"/>
  <path fill="#fff" d="M179.784 238.9c-3.52 0-5.696-2.56-5.696-5.76v-.032c0-3.072 2.256-5.792 5.616-5.792 1.888 0 3.056.544 4.176 1.488l-.816.96c-.864-.752-1.824-1.28-3.408-1.28-2.48 0-4.256 2.096-4.256 4.592v.032c0 2.672 1.712 4.656 4.432 4.656 1.28 0 2.464-.496 3.232-1.12v-2.784h-3.408v-1.136h4.624v4.464a6.787 6.787 0 0 1-4.496 1.712Zm10.915 0c-2.48 0-4.288-1.952-4.288-4.288v-.032c0-2.336 1.824-4.32 4.32-4.32 2.48 0 4.304 1.952 4.304 4.288v.032c0 2.336-1.84 4.32-4.336 4.32Zm.032-1.104c1.792 0 3.04-1.44 3.04-3.184v-.032c0-1.776-1.328-3.232-3.072-3.232-1.792 0-3.024 1.456-3.024 3.2v.032c0 1.776 1.312 3.216 3.056 3.216Zm10.312 1.104c-2.48 0-4.288-1.952-4.288-4.288v-.032c0-2.336 1.824-4.32 4.32-4.32 2.48 0 4.304 1.952 4.304 4.288v.032c0 2.336-1.84 4.32-4.336 4.32Zm.032-1.104c1.792 0 3.04-1.44 3.04-3.184v-.032c0-1.776-1.328-3.232-3.072-3.232-1.792 0-3.024 1.456-3.024 3.2v.032c0 1.776 1.312 3.216 3.056 3.216Zm10.199 3.504c-1.376 0-2.656-.384-3.76-1.152l.56-.96c.944.688 2 1.056 3.184 1.056 1.824 0 3.008-1.008 3.008-2.944v-.976c-.72.96-1.728 1.744-3.248 1.744-1.984 0-3.888-1.488-3.888-3.872v-.032c0-2.416 1.92-3.904 3.888-3.904 1.552 0 2.56.768 3.232 1.664v-1.488h1.232v6.832c0 1.28-.384 2.256-1.056 2.928-.736.736-1.84 1.104-3.152 1.104Zm-.016-4.32c1.568 0 3.04-1.136 3.04-2.8v-.032c0-1.696-1.472-2.8-3.04-2.8s-2.864 1.088-2.864 2.784v.032c0 1.664 1.328 2.816 2.864 2.816Zm7.089 1.728v-11.68h1.232v11.68h-1.232Zm4.827-3.632c.176 1.744 1.456 2.752 2.912 2.752 1.136 0 1.936-.464 2.608-1.168l.768.688c-.832.928-1.84 1.552-3.408 1.552-2.272 0-4.128-1.744-4.128-4.32 0-2.4 1.68-4.32 3.968-4.32 2.448 0 3.856 1.952 3.856 4.384 0 .112 0 .24-.016.432h-6.56Zm0-.992h5.328c-.144-1.504-1.008-2.784-2.64-2.784-1.424 0-2.512 1.184-2.688 2.784Zm17.578 4.784c-1.776 0-3.232-.592-4.576-1.792l.784-.928c1.168 1.056 2.288 1.584 3.84 1.584 1.504 0 2.496-.8 2.496-1.904v-.032c0-1.04-.56-1.632-2.912-2.128-2.576-.56-3.76-1.392-3.76-3.232v-.032c0-1.76 1.552-3.056 3.68-3.056 1.632 0 2.8.464 3.936 1.376l-.736.976c-1.04-.848-2.08-1.216-3.232-1.216-1.456 0-2.384.8-2.384 1.808v.032c0 1.056.576 1.648 3.04 2.176 2.496.544 3.648 1.456 3.648 3.168v.032c0 1.92-1.6 3.168-3.824 3.168Zm6.186-.16v-11.68h1.232v4.848c.544-.896 1.408-1.616 2.832-1.616 2 0 3.168 1.344 3.168 3.312v5.136h-1.232v-4.832c0-1.536-.832-2.496-2.288-2.496-1.424 0-2.48 1.04-2.48 2.592v4.736h-1.232Zm10.596-3.632c.176 1.744 1.456 2.752 2.912 2.752 1.136 0 1.936-.464 2.608-1.168l.768.688c-.832.928-1.84 1.552-3.408 1.552-2.272 0-4.128-1.744-4.128-4.32 0-2.4 1.68-4.32 3.968-4.32 2.448 0 3.856 1.952 3.856 4.384 0 .112 0 .24-.016.432h-6.56Zm0-.992h5.328c-.144-1.504-1.008-2.784-2.64-2.784-1.424 0-2.512 1.184-2.688 2.784Zm9.469.992c.176 1.744 1.456 2.752 2.912 2.752 1.136 0 1.936-.464 2.608-1.168l.768.688c-.832.928-1.84 1.552-3.408 1.552-2.272 0-4.128-1.744-4.128-4.32 0-2.4 1.68-4.32 3.968-4.32 2.448 0 3.856 1.952 3.856 4.384 0 .112 0 .24-.016.432h-6.56Zm0-.992h5.328c-.144-1.504-1.008-2.784-2.64-2.784-1.424 0-2.512 1.184-2.688 2.784Zm11.5 4.768c-1.328 0-2.336-.656-2.336-2.336v-4.992h-1.152v-1.088h1.152v-2.496h1.232v2.496h2.624v1.088h-2.624v4.832c0 1.008.56 1.376 1.392 1.376.416 0 .768-.08 1.2-.288v1.056a3.099 3.099 0 0 1-1.488.352Zm6.437.016c-1.184 0-2.496-.464-3.424-1.216l.624-.88c.896.672 1.888 1.056 2.864 1.056.992 0 1.712-.512 1.712-1.312v-.032c0-.832-.976-1.152-2.064-1.456-1.296-.368-2.736-.816-2.736-2.336v-.032c0-1.424 1.184-2.368 2.816-2.368 1.008 0 2.128.352 2.976.912l-.56.928c-.768-.496-1.648-.8-2.448-.8-.976 0-1.6.512-1.6 1.2v.032c0 .784 1.024 1.088 2.128 1.424 1.28.384 2.656.88 2.656 2.368v.032c0 1.568-1.296 2.48-2.944 2.48Z"/>
  <rect width="28.372" height="28.372" x="127.548" y="220.022" stroke="url(#C)" stroke-width="1.628" rx="3.186"/>
  <path fill="url(#D)" d="M148.826 229.481h-2.364v-2.364a1.183 1.183 0 0 0-1.182-1.182h-10.637a1.183 1.183 0 0 0-1.182 1.182v10.637a1.183 1.183 0 0 0 1.182 1.182h2.364v2.363a1.185 1.185 0 0 0 1.182 1.182h10.637a1.184 1.184 0 0 0 1.181-1.182v-10.636a1.185 1.185 0 0 0-1.181-1.182Zm-3.546 8.273h-4.728v-2.955h4.728v2.955Zm0-4.137h-4.728v-2.954h4.728v2.954Zm-5.909 0h-4.728v-2.954h4.728v2.954Zm5.909-6.5v2.364h-10.637v-2.364h10.637Zm-10.637 10.637v-2.955h4.728v2.955h-4.728Zm14.183 3.545h-10.637v-2.363h7.091a1.183 1.183 0 0 0 1.182-1.182v-7.091h2.364v10.636Z"/>
  <rect width="155.964" height="63" x="111" y="284.125" fill="#18181B" rx="5"/>
  <path fill="#fff" d="m178.44 320.205-4.816-11.28h1.408l3.984 9.648 4-9.648h1.36l-4.816 11.28h-1.12Zm7.656-10.16v-1.36h1.408v1.36h-1.408Zm.08 10.08v-8.272h1.232v8.272h-1.232Zm6.827.16c-1.184 0-2.496-.464-3.424-1.216l.624-.88c.896.672 1.888 1.056 2.864 1.056.992 0 1.712-.512 1.712-1.312v-.032c0-.832-.976-1.152-2.064-1.456-1.296-.368-2.736-.816-2.736-2.336v-.032c0-1.424 1.184-2.368 2.816-2.368 1.008 0 2.128.352 2.976.912l-.56.928c-.768-.496-1.648-.8-2.448-.8-.976 0-1.6.512-1.6 1.2v.032c0 .784 1.024 1.088 2.128 1.424 1.28.384 2.656.88 2.656 2.368v.032c0 1.568-1.296 2.48-2.944 2.48Zm5.264-10.24v-1.36h1.408v1.36h-1.408Zm.08 10.08v-8.272h1.232v8.272h-1.232Zm8.492.176c-1.536 0-2.528-.832-3.168-1.76v1.584h-1.232v-11.68h1.232v5.072c.672-.992 1.648-1.84 3.168-1.84 1.984 0 3.952 1.568 3.952 4.288v.032c0 2.704-1.952 4.304-3.952 4.304Zm-.224-1.104c1.6 0 2.912-1.184 2.912-3.184v-.032c0-1.952-1.344-3.2-2.912-3.2-1.536 0-2.992 1.296-2.992 3.184v.032c0 1.92 1.456 3.2 2.992 3.2Zm6.561.928v-11.68h1.232v11.68h-1.232Zm4.827-3.632c.176 1.744 1.456 2.752 2.912 2.752 1.136 0 1.936-.464 2.608-1.168l.768.688c-.832.928-1.84 1.552-3.408 1.552-2.272 0-4.128-1.744-4.128-4.32 0-2.4 1.68-4.32 3.968-4.32 2.448 0 3.856 1.952 3.856 4.384 0 .112 0 .24-.016.432h-6.56Zm0-.992h5.328c-.144-1.504-1.008-2.784-2.64-2.784-1.424 0-2.512 1.184-2.688 2.784Zm12.777 4.624 5.104-11.28h1.184l5.104 11.28h-1.36l-1.312-2.96h-6.096l-1.328 2.96h-1.296Zm3.12-4.096h5.104l-2.544-5.712-2.56 5.712Zm10.593 4.096v-11.2h1.264v11.2h-1.264Z"/>
  <rect width="28.372" height="28.372" x="127.548" y="301.439" stroke="url(#E)" stroke-width="1.628" rx="3.186"/>
  <path fill="url(#F)" fill-rule="evenodd" d="M133.461 323.899h16.548v-7.24h-1.034v6.206h-14.48v-14.48h6.206v-1.034h-7.24v16.548Zm10.343-16.548h-1.034v1.034h1.034v-1.034Zm6.205 2.068h-2.068v-2.068h-1.035v2.068h-2.068v1.035h2.068v2.068h1.035v-2.068h2.068v-1.035Zm-7.497 9.309h-1.035l-.319-1.034h-2.471l-.312 1.034h-1.033l1.808-5.689h1.551l1.811 5.689Zm-2.672-4.867-.842 2.798h1.84l-.866-2.799-.132.001Zm3.447 3.833v1.034h2.069v-1.034h-.517v-3.62h.517v-1.035h-2.069v1.035h.517v3.62h-.517Zm5.688-4.137h1.034v1.034h-1.034v-1.034Z" clip-rule="evenodd"/>
  <rect width="204" height="63" x="111" y="121.291" fill="#18181B" rx="5"/>
  <path fill="#fff" d="m173.44 156.112-4.816-11.28h1.408l3.984 9.648 4-9.648h1.36l-4.816 11.28h-1.12Zm7.656-10.16v-1.36h1.408v1.36h-1.408Zm.08 10.08v-8.272h1.232v8.272h-1.232Zm6.827.16c-1.184 0-2.496-.464-3.424-1.216l.624-.88c.896.672 1.888 1.056 2.864 1.056.992 0 1.712-.512 1.712-1.312v-.032c0-.832-.976-1.152-2.064-1.456-1.296-.368-2.736-.816-2.736-2.336v-.032c0-1.424 1.184-2.368 2.816-2.368 1.008 0 2.128.352 2.976.912l-.56.928c-.768-.496-1.648-.8-2.448-.8-.976 0-1.6.512-1.6 1.2v.032c0 .784 1.024 1.088 2.128 1.424 1.28.384 2.656.88 2.656 2.368v.032c0 1.568-1.296 2.48-2.944 2.48Zm5.264-10.24v-1.36h1.408v1.36h-1.408Zm.08 10.08v-8.272h1.232v8.272h-1.232Zm8.492.176c-1.536 0-2.528-.832-3.168-1.76v1.584h-1.232v-11.68h1.232v5.072c.672-.992 1.648-1.84 3.168-1.84 1.984 0 3.952 1.568 3.952 4.288v.032c0 2.704-1.952 4.304-3.952 4.304Zm-.224-1.104c1.6 0 2.912-1.184 2.912-3.184v-.032c0-1.952-1.344-3.2-2.912-3.2-1.536 0-2.992 1.296-2.992 3.184v.032c0 1.92 1.456 3.2 2.992 3.2Zm6.561.928v-11.68h1.232v11.68h-1.232Zm4.827-3.632c.176 1.744 1.456 2.752 2.912 2.752 1.136 0 1.936-.464 2.608-1.168l.768.688c-.832.928-1.84 1.552-3.408 1.552-2.272 0-4.128-1.744-4.128-4.32 0-2.4 1.68-4.32 3.968-4.32 2.448 0 3.856 1.952 3.856 4.384 0 .112 0 .24-.016.432h-6.56Zm0-.992h5.328c-.144-1.504-1.008-2.784-2.64-2.784-1.424 0-2.512 1.184-2.688 2.784Zm13.737 4.624v-11.2h4.816c1.376 0 2.48.416 3.184 1.12.544.544.864 1.328.864 2.208v.032c0 1.856-1.28 2.944-3.04 3.264l3.44 4.576h-1.552l-3.248-4.352h-3.2v4.352h-1.264Zm1.264-5.488h3.44c1.68 0 2.88-.864 2.88-2.304v-.032c0-1.376-1.056-2.208-2.864-2.208h-3.456v4.544Zm10.67 1.856c.177 1.744 1.457 2.752 2.913 2.752 1.136 0 1.936-.464 2.608-1.168l.768.688c-.832.928-1.84 1.552-3.408 1.552-2.272 0-4.128-1.744-4.128-4.32 0-2.4 1.68-4.32 3.968-4.32 2.448 0 3.856 1.952 3.856 4.384 0 .112 0 .24-.016.432h-6.561Zm0-.992h5.329c-.144-1.504-1.008-2.784-2.64-2.784-1.424 0-2.512 1.184-2.689 2.784Zm15.373 7.184v-4.224c-.672.992-1.648 1.84-3.168 1.84-1.984 0-3.952-1.568-3.952-4.288v-.032c0-2.704 1.968-4.304 3.952-4.304 1.536 0 2.528.832 3.168 1.76v-1.584h1.232v10.832h-1.232Zm-2.944-3.488c1.536 0 2.992-1.296 2.992-3.2v-.032c0-1.904-1.456-3.184-2.992-3.184-1.6 0-2.912 1.184-2.912 3.184v.032c0 1.952 1.344 3.2 2.912 3.2Zm9.969 1.104c-2 0-3.168-1.344-3.168-3.312v-5.136h1.232v4.832c0 1.536.832 2.496 2.288 2.496 1.408 0 2.48-1.04 2.48-2.592v-4.736h1.216v8.272h-1.216v-1.44c-.56.896-1.408 1.616-2.832 1.616Zm7.556-3.808c.176 1.744 1.456 2.752 2.912 2.752 1.136 0 1.936-.464 2.608-1.168l.768.688c-.832.928-1.84 1.552-3.408 1.552-2.272 0-4.128-1.744-4.128-4.32 0-2.4 1.68-4.32 3.968-4.32 2.448 0 3.856 1.952 3.856 4.384 0 .112 0 .24-.016.432h-6.56Zm0-.992h5.328c-.144-1.504-1.008-2.784-2.64-2.784-1.424 0-2.512 1.184-2.688 2.784Zm11.468 4.784c-1.184 0-2.496-.464-3.424-1.216l.624-.88c.896.672 1.888 1.056 2.864 1.056.992 0 1.712-.512 1.712-1.312v-.032c0-.832-.976-1.152-2.064-1.456-1.296-.368-2.736-.816-2.736-2.336v-.032c0-1.424 1.184-2.368 2.816-2.368 1.008 0 2.128.352 2.976.912l-.56.928c-.768-.496-1.648-.8-2.448-.8-.976 0-1.6.512-1.6 1.2v.032c0 .784 1.024 1.088 2.128 1.424 1.28.384 2.656.88 2.656 2.368v.032c0 1.568-1.296 2.48-2.944 2.48Zm7.845-.016c-1.328 0-2.336-.656-2.336-2.336v-4.992h-1.152v-1.088h1.152v-2.496h1.232v2.496h2.624v1.088h-2.624v4.832c0 1.008.56 1.376 1.392 1.376.416 0 .768-.08 1.2-.288v1.056a3.099 3.099 0 0 1-1.488.352Zm6.437.016c-1.184 0-2.496-.464-3.424-1.216l.624-.88c.896.672 1.888 1.056 2.864 1.056.992 0 1.712-.512 1.712-1.312v-.032c0-.832-.976-1.152-2.064-1.456-1.296-.368-2.736-.816-2.736-2.336v-.032c0-1.424 1.184-2.368 2.816-2.368 1.008 0 2.128.352 2.976.912l-.56.928c-.768-.496-1.648-.8-2.448-.8-.976 0-1.6.512-1.6 1.2v.032c0 .784 1.024 1.088 2.128 1.424 1.28.384 2.656.88 2.656 2.368v.032c0 1.568-1.296 2.48-2.944 2.48Z"/>
  <rect width="28.37" height="28.37" x="127.336" y="137.347" stroke="url(#G)" stroke-width="1.63" rx="3.185"/>
  <path fill="url(#H)" d="M139.629 150.363h-3.612v.992h3.612v-.992Z"/>
  <path fill="url(#I)" d="m135.656 155.899.602.602 2.408-2.407 3.009 2.407 2.408-3.009-.602-.602-1.806 2.407-3.009-2.407-3.01 3.009Z"/>
  <path fill="url(#J)" d="M145.528 150.874h.001l-.001-.001v.001Z"/>
  <path fill="url(#K)" fill-rule="evenodd" d="M149.795 147.912a4.655 4.655 0 0 1-3.304 4.455v6.406c0 .57-.462 1.032-1.032 1.032H134.28c-.57 0-1.032-.462-1.032-1.032v-13.799c0-.569.462-1.031 1.032-1.031h8.431a4.654 4.654 0 0 1 7.084 3.969Zm-4.336 10.902v-6.259a4.657 4.657 0 0 1-4.687-3.035h-4.535v-.992h4.291a4.63 4.63 0 0 1-.035-.841h-4.15v-.992h4.305a4.632 4.632 0 0 1 .916-1.76h-7.284v13.879h11.179Zm-.006-7.891a.212.212 0 0 0 .075-.049v.017l.351-.337a.198.198 0 0 0 .074-.15.159.159 0 0 0-.019-.076.17.17 0 0 0-.055-.058l-2.086-1.848h4.597c.03 0 .059-.005.086-.015a.212.212 0 0 0 .072-.044.187.187 0 0 0 .065-.143v-.47a.187.187 0 0 0-.065-.142.224.224 0 0 0-.157-.059h-4.598l2.086-1.845a.156.156 0 0 0 .074-.135.198.198 0 0 0-.019-.083.212.212 0 0 0-.055-.068l-.351-.319a.234.234 0 0 0-.249-.051.182.182 0 0 0-.065.051l-3.047 2.752a.172.172 0 0 0-.055.134.23.23 0 0 0 .055.151l3.047 2.755c.038.033.087.05.148.05a.23.23 0 0 0 .091-.018Z" clip-rule="evenodd"/>
  <defs>
    <linearGradient id="a" x1="1027.52" x2="1027.52" y1="340.5" y2="370.5" gradientUnits="userSpaceOnUse">
      <stop stop-color="#702EDC"/>
      <stop offset="1" stop-color="#702EDC" stop-opacity=".18"/>
    </linearGradient>
    <linearGradient id="b" x1="1027.32" x2="1027.32" y1="347.189" y2="363.189" gradientUnits="userSpaceOnUse">
      <stop stop-color="#702EDC"/>
      <stop offset="1" stop-color="#fff"/>
    </linearGradient>
    <linearGradient id="c" x1="1027.52" x2="1027.52" y1="97.5" y2="127.5" gradientUnits="userSpaceOnUse">
      <stop stop-color="#4CCE94"/>
      <stop offset="1" stop-color="#4CCE94" stop-opacity=".18"/>
    </linearGradient>
    <linearGradient id="e" x1="1027.3" x2="1027.3" y1="104.227" y2="120.773" gradientUnits="userSpaceOnUse">
      <stop stop-color="#4CCE94"/>
      <stop offset="1" stop-color="#fff"/>
    </linearGradient>
    <linearGradient id="f" x1="1027.3" x2="1027.3" y1="104.227" y2="120.773" gradientUnits="userSpaceOnUse">
      <stop stop-color="#4CCE94"/>
      <stop offset="1" stop-color="#fff"/>
    </linearGradient>
    <linearGradient id="g" x1="1027.3" x2="1027.3" y1="104.227" y2="120.773" gradientUnits="userSpaceOnUse">
      <stop stop-color="#4CCE94"/>
      <stop offset="1" stop-color="#fff"/>
    </linearGradient>
    <linearGradient id="h" x1="1027.3" x2="1027.3" y1="104.227" y2="120.773" gradientUnits="userSpaceOnUse">
      <stop stop-color="#4CCE94"/>
      <stop offset="1" stop-color="#fff"/>
    </linearGradient>
    <linearGradient id="i" x1="1030.52" x2="1030.52" y1="16.5" y2="46.5" gradientUnits="userSpaceOnUse">
      <stop stop-color="#5CB7F2"/>
      <stop offset="1" stop-color="#5CB7F2" stop-opacity=".18"/>
    </linearGradient>
    <linearGradient id="k" x1="1035.89" x2="1035.89" y1="34.41" y2="37.364" gradientUnits="userSpaceOnUse">
      <stop stop-color="#5CB7F2"/>
      <stop offset="1" stop-color="#fff"/>
    </linearGradient>
    <linearGradient id="l" x1="1033.53" x2="1033.53" y1="31.455" y2="37.364" gradientUnits="userSpaceOnUse">
      <stop stop-color="#5CB7F2"/>
      <stop offset="1" stop-color="#fff"/>
    </linearGradient>
    <linearGradient id="m" x1="1027.87" x2="1027.87" y1="31.455" y2="37.364" gradientUnits="userSpaceOnUse">
      <stop stop-color="#5CB7F2"/>
      <stop offset="1" stop-color="#fff"/>
    </linearGradient>
    <linearGradient id="n" x1="1031.37" x2="1031.37" y1="23.182" y2="39.728" gradientUnits="userSpaceOnUse">
      <stop stop-color="#5CB7F2"/>
      <stop offset="1" stop-color="#fff"/>
    </linearGradient>
    <linearGradient id="o" x1="1028.52" x2="1028.52" y1="178.5" y2="208.5" gradientUnits="userSpaceOnUse">
      <stop stop-color="#9385FF"/>
      <stop offset="1" stop-color="#9385FF" stop-opacity=".18"/>
    </linearGradient>
    <linearGradient id="q" x1="1028.52" x2="1028.52" y1="184.931" y2="202.068" gradientUnits="userSpaceOnUse">
      <stop stop-color="#9385FF"/>
      <stop offset="1" stop-color="#fff"/>
    </linearGradient>
    <linearGradient id="r" x1="1030.02" x2="1030.02" y1="259.5" y2="289.5" gradientUnits="userSpaceOnUse">
      <stop stop-color="#0F52DE"/>
      <stop offset="1" stop-color="#0F52DE" stop-opacity=".18"/>
    </linearGradient>
    <linearGradient id="s" x1="1030.02" x2="1030.02" y1="266.227" y2="282.773" gradientUnits="userSpaceOnUse">
      <stop stop-color="#0F52DE"/>
      <stop offset="1" stop-color="#fff"/>
    </linearGradient>
    <linearGradient id="t" x1="1030.02" x2="1030.02" y1="266.227" y2="282.773" gradientUnits="userSpaceOnUse">
      <stop stop-color="#0F52DE"/>
      <stop offset="1" stop-color="#fff"/>
    </linearGradient>
    <linearGradient id="u" x1="1030.02" x2="1030.02" y1="266.227" y2="282.773" gradientUnits="userSpaceOnUse">
      <stop stop-color="#0F52DE"/>
      <stop offset="1" stop-color="#fff"/>
    </linearGradient>
    <linearGradient id="v" x1="1030.02" x2="1030.02" y1="266.227" y2="282.773" gradientUnits="userSpaceOnUse">
      <stop stop-color="#0F52DE"/>
      <stop offset="1" stop-color="#fff"/>
    </linearGradient>
    <linearGradient id="x" x1="141.734" x2="141.734" y1="56.375" y2="86.375" gradientUnits="userSpaceOnUse">
      <stop stop-color="#0F52DE"/>
      <stop offset="1" stop-color="#0F52DE" stop-opacity=".18"/>
    </linearGradient>
    <linearGradient id="y" x1="142.325" x2="142.325" y1="64.284" y2="77.875" gradientUnits="userSpaceOnUse">
      <stop stop-color="#0F52DE"/>
      <stop offset="1" stop-color="#fff"/>
    </linearGradient>
    <linearGradient id="z" x1="142.325" x2="142.325" y1="64.284" y2="77.875" gradientUnits="userSpaceOnUse">
      <stop stop-color="#0F52DE"/>
      <stop offset="1" stop-color="#fff"/>
    </linearGradient>
    <linearGradient id="A" x1="142.325" x2="142.325" y1="64.284" y2="77.875" gradientUnits="userSpaceOnUse">
      <stop stop-color="#0F52DE"/>
      <stop offset="1" stop-color="#fff"/>
    </linearGradient>
    <linearGradient id="B" x1="142.325" x2="142.325" y1="64.284" y2="77.875" gradientUnits="userSpaceOnUse">
      <stop stop-color="#0F52DE"/>
      <stop offset="1" stop-color="#fff"/>
    </linearGradient>
    <linearGradient id="C" x1="141.734" x2="141.734" y1="219.208" y2="249.208" gradientUnits="userSpaceOnUse">
      <stop stop-color="#4CCE94"/>
      <stop offset="1" stop-color="#4CCE94" stop-opacity=".18"/>
    </linearGradient>
    <linearGradient id="D" x1="141.734" x2="141.734" y1="225.935" y2="242.481" gradientUnits="userSpaceOnUse">
      <stop stop-color="#4CCE94"/>
      <stop offset="1" stop-color="#fff"/>
    </linearGradient>
    <linearGradient id="E" x1="141.734" x2="141.734" y1="300.625" y2="330.625" gradientUnits="userSpaceOnUse">
      <stop stop-color="#5CB7F2"/>
      <stop offset="1" stop-color="#5CB7F2" stop-opacity=".18"/>
    </linearGradient>
    <linearGradient id="F" x1="141.735" x2="141.735" y1="307.351" y2="323.899" gradientUnits="userSpaceOnUse">
      <stop stop-color="#5CB7F2"/>
      <stop offset="1" stop-color="#fff"/>
    </linearGradient>
    <linearGradient id="G" x1="141.521" x2="141.521" y1="136.532" y2="166.532" gradientUnits="userSpaceOnUse">
      <stop stop-color="#702EDC"/>
      <stop offset="1" stop-color="#702EDC" stop-opacity=".18"/>
    </linearGradient>
    <linearGradient id="H" x1="141.521" x2="141.521" y1="143.259" y2="159.805" gradientUnits="userSpaceOnUse">
      <stop stop-color="#702EDC"/>
      <stop offset="1" stop-color="#fff"/>
    </linearGradient>
    <linearGradient id="I" x1="141.521" x2="141.521" y1="143.259" y2="159.805" gradientUnits="userSpaceOnUse">
      <stop stop-color="#702EDC"/>
      <stop offset="1" stop-color="#fff"/>
    </linearGradient>
    <linearGradient id="J" x1="141.521" x2="141.521" y1="143.259" y2="159.805" gradientUnits="userSpaceOnUse">
      <stop stop-color="#702EDC"/>
      <stop offset="1" stop-color="#fff"/>
    </linearGradient>
    <linearGradient id="K" x1="141.521" x2="141.521" y1="143.259" y2="159.805" gradientUnits="userSpaceOnUse">
      <stop stop-color="#702EDC"/>
      <stop offset="1" stop-color="#fff"/>
    </linearGradient>
    <clipPath id="d">
      <path fill="#fff" d="M1018.06 103.045h18.91v18.91h-18.91z"/>
    </clipPath>
    <clipPath id="j">
      <path fill="#fff" d="M1021.06 22h18.91v18.91h-18.91z"/>
    </clipPath>
    <clipPath id="p">
      <path fill="#fff" d="M1019.06 184.045h18.91v18.91h-18.91z"/>
    </clipPath>
    <filter id="w" width="159.705" height="159.705" x="563.977" y="117.647" color-interpolation-filters="sRGB" filterUnits="userSpaceOnUse">
      <feFlood flood-opacity="0" result="BackgroundImageFix"/>
      <feColorMatrix in="SourceAlpha" result="hardAlpha" values="0 0 0 0 0 0 0 0 0 0 0 0 0 0 0 0 0 0 127 0"/>
      <feOffset dy="4"/>
      <feGaussianBlur stdDeviation="2"/>
      <feComposite in2="hardAlpha" operator="out"/>
      <feColorMatrix values="0 0 0 0 0 0 0 0 0 0 0 0 0 0 0 0 0 0 0.25 0"/>
      <feBlend in2="BackgroundImageFix" result="effect1_dropShadow_32_271"/>
      <feBlend in="SourceGraphic" in2="effect1_dropShadow_32_271" result="shape"/>
    </filter>
  </defs>
</svg>