<svg xmlns="http://www.w3.org/2000/svg" width="87" height="41" fill="none" viewBox="0 0 87 41">
  <g clip-path="url(#a)">
    <path fill="#fff" d="M17.204.317c-.095.281-.21.56-.282.85-.13.536-.288 1.074-.338 1.62-.304 3.307-.1 6.622-.133 9.933-.036 3.437-.014 6.873-.007 10.31.002.994.089 1.983.363 2.945.087.302.219.594.338.887.06.146.087.243-.121.305a31.41 31.41 0 0 0-1.724.552c-.922.33-1.836.68-2.754 1.023-.238.089-.475.184-.77.299.032-.148.046-.233.067-.318.205-.822.416-1.644.609-2.47a3.2 3.2 0 0 0 .062-.664c.03-1.714.07-3.426.075-5.14.005-1.54-.029-3.081-.045-4.622-.007-.699-.012-1.396-.016-2.095 0-.3-.059-.616.02-.893.094-.335.08-.653.05-.98a.604.604 0 0 0-.102-.29c-.429.82-.685 1.698-1.04 2.538-.36.85-.66 1.724-.98 2.588-.321.865-.641 1.731-.953 2.598-.311.868-.612 1.74-.939 2.674-1.395-2.929-2.61-5.87-3.802-8.823l-.082.017c-.014.042-.042.083-.042.125.003 5.1.01 10.202.01 15.302 0 .748.135 1.474.317 2.194.105.417.277.816.407 1.227.016.05-.025.15-.07.18-1.593.996-3.19 1.983-4.785 2.975-.163.103-.316.222-.475.333l-.067-.036c.039-.161.087-.321.117-.484.158-.84.33-1.677.464-2.52.33-2.048.168-4.112.175-6.168C.769 19.25.763 12.21.747 5.174A15.646 15.646 0 0 0 .54 2.815C.427 2.057.219 1.315.041.567.005.411.004.35.2.35 1.489.349 2.775.33 4.063.324c.36 0 .367.005.477.335.244.732.475 1.468.72 2.198.118.349.262.687.381 1.034.223.647.427 1.3.655 1.946.185.524.397 1.038.59 1.558.154.413.289.83.44 1.242.203.555.415 1.107.62 1.662.167.453.328.909.501 1.36.03.078.1.14.151.21.05-.066.12-.127.144-.201.433-1.293.856-2.587 1.292-3.878.18-.532.386-1.056.575-1.587.45-1.263.896-2.527 1.345-3.79.238-.671.476-1.345.724-2.012.02-.052.103-.115.156-.115 1.443-.003 2.886 0 4.329.004.012 0 .023.013.042.027h-.001ZM74.748.284h.435c1.739 0 3.478-.006 5.217 0 1.708.007 3.417.028 5.125.044.31.003.326.019.326.317v5.642c0 .062-.006.124-.011.216-.272-.175-.52-.336-.77-.494-.554-.347-1.166-.513-1.815-.572-.742-.068-1.484-.14-2.226-.207-.25-.022-.501-.03-.75-.055a4.15 4.15 0 0 1-.564-.092c-.239-.058-.342.003-.347.24-.004.209 0 .419 0 .627 0 2.78 0 5.561-.007 8.342 0 .207.057.306.279.354.978.22 1.948.468 2.927.69a3.38 3.38 0 0 0 1.855-.093c.109-.037.22-.06.338-.09-.28 2.187-.56 4.349-.841 6.538-.072-.042-.116-.054-.143-.083-.846-.935-1.926-1.504-3.13-1.88-.337-.107-.668-.228-1.004-.34-.256-.084-.278-.07-.278.197v5.36c0 .323 0 .647-.018.97-.008.177.1.24.232.3.67.302 1.343.597 2.01.907.786.366 1.551.777 2.352 1.11.731.304 1.493.542 2.25.778.193.06.426.015.637-.004.14-.012.198 0 .157.154a255.95 255.95 0 0 0-.633 2.51c-.114.462-.212.925-.324 1.387-.12.496-.244.99-.368 1.485-.038.149-.123.152-.248.08-.711-.426-1.416-.863-2.14-1.267a147.351 147.351 0 0 0-3.425-1.861 97.696 97.696 0 0 0-2.9-1.445c-.693-.337-1.4-.65-2.102-.968-.143-.064-.192-.146-.112-.288.288-.52.407-1.091.501-1.667.064-.396.071-.807.194-1.182.096-.288.027-.546.029-.818.007-1.563.028-3.126.032-4.69.007-2.888.003-5.778.01-8.666.006-2.276.02-4.552.025-6.828 0-.432.018-.865-.032-1.292a15.17 15.17 0 0 0-.288-1.587c-.133-.587-.3-1.166-.459-1.775l.004-.004ZM20.773 3.001c.007-.024.012-.033.01-.038-.19-.32.029-.541.203-.765.733-.935 1.665-1.617 2.82-1.969a5.488 5.488 0 0 1 1.242-.201c.52-.035 1.05-.04 1.572-.009 1.297.078 2.398.6 3.364 1.435.698.603 1.185 1.337 1.522 2.173.241.607.391 1.237.391 1.891.002 4.467.016 8.934-.009 13.4-.007 1.291-.484 2.459-1.26 3.507a7.137 7.137 0 0 1-2.549 2.137c-.753.38-1.574.6-2.416.761-.706.136-1.416.2-2.112.068-1.524-.29-2.722-1.037-3.392-2.467a4.97 4.97 0 0 1-.452-1.745 25.16 25.16 0 0 1-.07-1.832c-.003-4.439-.016-8.876.015-13.314a5.91 5.91 0 0 1 .676-2.746c.11-.207.258-.303.445-.288v.002Zm7.283 5.674h.034c-.034-1.013-.054-2.026-.11-3.037-.034-.621-.331-1.102-.919-1.405-.476-.248-.983-.231-1.492-.22-1.126.02-1.913.78-2.012 1.856-.054.572-.032 1.15-.032 1.726.001 2.636.01 5.271.016 7.908.003 1.46-.016 2.923.02 4.384.014.565.305 1.027.86 1.29.47.224.956.195 1.452.118.971-.145 2.16-.876 2.12-2.293-.024-.942.01-1.887.019-2.83.014-1.807.032-3.614.044-5.422.005-.692 0-1.383 0-2.075ZM65.222.36c-.083.119-.126.192-.181.254-.833.965-1.388 2.085-1.916 3.22-.295.635-.54 1.29-.799 1.94-.2.504-.375 1.014-.567 1.519-.221.58-.443 1.157-.67 1.733-.366.933-.734 1.864-1.104 2.796a.741.741 0 0 0 .009.566c.226.607.434 1.22.653 1.831.14.394.288.785.428 1.178.404 1.142.805 2.283 1.207 3.423.32.904.674 1.797.955 2.711.319 1.034.81 1.992 1.308 2.946.245.472.567.907.854 1.36.037.059.07.121.13.218l-5.692-1.184c.023-.358.073-.722.063-1.083a5.874 5.874 0 0 0-.137-1.13 47.813 47.813 0 0 0-.59-2.256c-.316-1.128-.652-2.252-.976-3.378-.077-.267-.135-.539-.201-.808l-.071-.012c-.036.05-.087.095-.103.15-.187.59-.369 1.184-.552 1.774l-.783 2.49c-.265.853-.537 1.706-.548 2.608-.003.3.04.602.059.902l.01.196-5.76-.477c.626-.593 1.101-1.271 1.509-1.986.332-.581.598-1.204.855-1.823.477-1.147.924-2.304 1.386-3.456.6-1.494 1.201-2.987 1.808-4.477.09-.224.071-.432-.014-.649-.46-1.17-.91-2.34-1.369-3.51-.597-1.524-1.167-3.061-1.814-4.567A9.796 9.796 0 0 0 50.673.453c-.02-.02-.032-.045-.073-.104h5.683c0 .5-.041.99.01 1.472.059.554.178 1.104.31 1.647.183.747.4 1.486.606 2.229.19.676.381 1.353.577 2.03.03.103.089.197.133.298l.063-.012c.042-.156.087-.313.128-.47.254-.96.503-1.92.761-2.878.201-.743.416-1.484.62-2.226a1.48 1.48 0 0 0 .06-.402A54.806 54.806 0 0 0 59.51.635c-.01-.288 0-.309.299-.307 1.213.009 2.426.02 3.64.028.567.003 1.135 0 1.77 0l.004.003ZM48.675.324c-.26.325-.467.592-.681.854-.566.694-.996 1.467-1.352 2.274-.639 1.452-1.224 2.926-1.829 4.392-.384.934-.763 1.869-1.146 2.804-.081.2-.19.395-.233.602a.98.98 0 0 0 .025.522c.233.63.498 1.245.742 1.871.406 1.041.8 2.087 1.208 3.128.317.812.635 1.626.971 2.43.305.726.605 1.454.961 2.155.416.82.934 1.586 1.534 2.292.032.036.057.08.07.102-.346 0-.695.002-1.044 0-.124 0-.25-.023-.375-.024a523.266 523.266 0 0 0-4.04-.042c-.192 0-.258-.064-.228-.238.027-.163.055-.326.085-.487.09-.467.006-.918-.126-1.362-.459-1.546-.927-3.09-1.386-4.637-.117-.393-.208-.793-.322-1.186-.02-.07-.092-.127-.142-.19-.046.058-.117.108-.135.172-.159.547-.297 1.099-.461 1.643-.395 1.31-.788 2.62-1.204 3.924-.23.718-.24 1.447-.153 2.177.028.241-.086.253-.25.262-.332.017-.663.028-.996.045-1.144.057-2.286.115-3.43.179-.227.012-.453.054-.681.076-.086.009-.171 0-.283 0 .02-.057.023-.085.04-.104a13.358 13.358 0 0 0 2.294-4.161c.206-.615.466-1.213.715-1.812.102-.24.24-.468.361-.702.008-.012.02-.024.02-.038.012-.621.367-1.138.571-1.699.475-1.299 1.005-2.58 1.503-3.873a.56.56 0 0 0 0-.373c-.38-.966-.782-1.926-1.167-2.892-.56-1.407-1.1-2.824-1.676-4.226-.265-.647-.539-1.299-.909-1.892-.404-.649-.921-1.228-1.39-1.839-.02-.028-.037-.059-.074-.116h5.747c-.02.433-.086.852-.047 1.26a9.9 9.9 0 0 0 .285 1.632c.324 1.231.687 2.452 1.032 3.677.062.22.117.444.187.663.017.054.07.097.108.146.036-.047.09-.09.103-.143.173-.616.335-1.235.507-1.852.2-.715.422-1.423.607-2.141.16-.62.318-1.242.406-1.874.051-.37-.013-.76-.07-1.134-.03-.2-.003-.253.203-.253 1.703.005 3.403.001 5.106.001h.434l.005.007ZM66.786.29h5.503c-.112.345-.217.673-.324 1a9.275 9.275 0 0 0-.453 2.865c-.006 3.962-.002 7.924-.01 11.886-.003 2.507-.02 5.013-.028 7.52a13.063 13.063 0 0 0 .408 3.287c.097.382.245.751.384 1.171l-5.492-1.714c.363-.583.49-1.197.628-1.804.176-.775.187-1.572.189-2.36.008-3.913.005-7.824.007-11.736 0-2.06.005-4.118-.006-6.178-.001-.5-.009-1.01-.097-1.504-.114-.633-.306-1.255-.477-1.878C66.97.666 66.875.5 66.786.29ZM35.384 40.886c-.493 0-.95.003-1.41-.006-.056 0-.147-.05-.165-.099-.347-.908-.69-1.817-1.023-2.732-.167-.46-.311-.926-.473-1.388-.018-.05-.077-.088-.116-.131-.032.057-.09.112-.09.17 0 .777.016 1.552.008 2.33-.005.619-.008 1.234.26 1.84h-1.841c.055-.272.114-.536.162-.8a2.21 2.21 0 0 0 .039-.407c.002-2.004.01-4.006-.005-6.01-.002-.308-.118-.615-.184-.924-.014-.068-.046-.13-.08-.23.102-.004.171-.01.242-.01l.822-.003c.523-.003.518 0 .692.482.404 1.112.813 2.22 1.219 3.331.059.163.096.333.164.493.032.074.117.126.19.2v-1.33c0-.626-.007-1.254 0-1.88a2.798 2.798 0 0 0-.231-1.135c-.016-.036-.02-.08-.034-.142h1.893c-.388.808-.276 1.645-.281 2.465-.011 1.412.007 2.824-.007 4.236-.006.566.039 1.117.249 1.678v.002Zm22.548-.002c-.626 0-1.208.003-1.79-.007-.048 0-.135-.097-.133-.146.039-.72-.287-1.358-.475-2.026-.006-.02-.015-.04-.022-.06-.146-.448-.276-.528-.747-.434-.05.01-.12.09-.12.137.015.695-.07 1.398.129 2.083.04.142.09.283.14.437h-1.832c.064-.345.128-.671.187-.999a1.84 1.84 0 0 0 .028-.278c.004-2.017.015-4.033-.001-6.05-.002-.276-.13-.555-.221-.826-.066-.2-.064-.226.155-.226.733 0 1.466-.015 2.197.006 1.29.04 1.984.714 2.083 1.98.052.657.025 1.326-.039 1.982a1.798 1.798 0 0 1-.683 1.266c-.06.047-.112.175-.09.241.29.85.451 1.747.95 2.52.081.127.175.245.287.4h-.003Zm-3.297-5.513h.01c0 .461.003.921 0 1.382 0 .169.049.259.245.235.131-.016.267-.004.398-.006.705-.008.811-.282.88-.825.065-.503.033-1.022.008-1.532-.03-.609-.32-.86-.947-.873-.11-.001-.222.006-.332 0-.187-.008-.265.068-.262.257.01.453.004.907.004 1.362h-.004Zm-6.248-2.866h1.877c-.021.083-.032.148-.055.205-.157.381-.183.784-.183 1.186-.004 1.67-.025 3.343.007 5.014.023 1.202-.966 2.128-2.249 2.085a2.397 2.397 0 0 1-1.509-.581 1.676 1.676 0 0 1-.613-1.248 33.535 33.535 0 0 1-.045-1.618c-.007-1.08-.021-2.162.007-3.242.013-.45.014-.89-.101-1.326-.041-.15-.102-.296-.166-.475h1.868c-.005.052 0 .097-.017.135-.207.469-.217.963-.216 1.463.008 1.592.004 3.185 0 4.775 0 .205.052.377.198.531.293.313.669.259 1.01.172.381-.097.465-.442.468-.779.01-.827.004-1.657.004-2.486v-1.6c-.005-.735.094-1.484-.287-2.214l.002.003Zm21.795 2.979c.043-.262.054-.495.121-.708.079-.243-.021-.453-.089-.663-.087-.274-.43-.41-.8-.362-.262.033-.555.284-.564.537a20.15 20.15 0 0 0 0 1.574c.014.319.345.543.733.562.628.03 1.194.201 1.603.704.307.378.453.815.49 1.294.047.61-.017 1.199-.375 1.718a1.752 1.752 0 0 1-.455.461c-1.34.892-3.073.2-3.355-1.28-.006-.028-.025-.063-.016-.084.101-.235.037-.464-.02-.695-.01-.04-.005-.085-.01-.151h1.522c-.044.144-.1.281-.131.423-.072.332.069.623.355.764.28.135.746.05.941-.174.225-.257.196-1.252-.076-1.455a1.178 1.178 0 0 0-.584-.21c-.882-.063-1.496-.477-1.86-1.255-.098-.206-.09-.414-.066-.647.046-.456.083-.933-.004-1.377-.107-.546.086-.966.404-1.353.388-.47.927-.66 1.544-.673.737-.016 1.354.219 1.792.807.261.35.384.76.4 1.193.01.295.009.592 0 .887 0 .053-.062.152-.098.154-.462.01-.925.007-1.402.007v.002ZM25.279 37.69v.812c0 .281.012.562-.006.843-.012.184.073.233.232.23.658-.015 1.314-.022 1.973-.05.162-.006.32-.083.524-.14-.028.127-.039.217-.065.3-.112.342-.22.687-.35 1.022-.031.076-.154.17-.234.17-1.176.012-2.352.009-3.53.012-.131 0-.195-.057-.13-.17.194-.331.178-.7.18-1.051.016-1.915.023-3.832.007-5.747-.003-.411-.112-.823-.188-1.23-.027-.144-.006-.203.151-.203 1.192.002 2.382 0 3.574.007.059 0 .166.067.167.107.013.43.008.86.008 1.306-.233-.043-.438-.104-.646-.114-.486-.024-.975-.024-1.463-.033-.146-.003-.208.057-.206.208.005.743.005 1.483 0 2.226 0 .154.055.237.215.227.49-.031.991.083 1.468-.123.144-.063.212.026.189.165-.045.276-.097.551-.145.827-.016.1-.026.2-.04.299-.032.23-.075.256-.303.187-.446-.139-.902-.089-1.384-.085l.002-.002Zm39.733 1.705c-.06.212-.103.387-.158.557a12.18 12.18 0 0 1-.276.793c-.023.06-.115.135-.176.137-1.183.009-2.368.005-3.55.007-.175 0-.182-.066-.14-.217.079-.274.167-.558.171-.838.025-2.022.027-4.045.041-6.066 0-.127.034-.255.043-.382a.35.35 0 0 0-.023-.16c-.098-.225-.203-.447-.322-.709.119-.01.188-.022.258-.022 1.154-.004 2.307 0 3.462-.01.199-.002.256.062.25.247-.012.401-.003.802-.003 1.216-.72-.319-1.452-.147-2.163-.18-.049-.002-.145.104-.145.16-.008.777-.008 1.556 0 2.333 0 .057.096.161.146.161.436-.003.872-.014 1.306-.047.153-.012.3-.088.52-.158-.054.224-.102.386-.13.55-.047.262-.084.524-.121.788-.037.262-.08.265-.343.229-.408-.056-.82-.07-1.232-.097-.133-.009-.154.08-.154.185 0 .496.003.994-.002 1.49-.002.172.073.226.242.22.65-.018 1.3-.022 1.95-.05.162-.006.322-.076.55-.135v-.002Zm-44.247-6.848c-.082.146-.197.29-.25.453-.122.374-.227.756-.31 1.14-.242 1.094-.474 2.192-.707 3.288a431.32 431.32 0 0 0-.608 2.915c-.112.542-.109.542-.678.54-.23 0-.459.011-.688-.006-.072-.005-.184-.08-.196-.139-.194-.862-.377-1.728-.555-2.593-.196-.942-.38-1.888-.578-2.83-.145-.68-.294-1.36-.463-2.033-.053-.21-.181-.4-.277-.6-.024-.05-.05-.099-.086-.168.08-.01.135-.023.192-.023.466-.002.933 0 1.399-.007.14-.001.222.038.194.182-.121.62.028 1.217.149 1.815.167.83.336 1.664.5 2.496.059.304.1.61.16.913.021.107.08.21.121.314l.064-.014c.018-.037.043-.071.05-.108l.473-2.65c.123-.686.262-1.37.363-2.06.032-.222-.018-.458-.048-.685-.014-.109-.018-.196.121-.196.532-.003 1.064 0 1.598.002.01 0 .02.017.06.052v.002ZM38.12 33.91c.121-.458.228-.89.358-1.315.016-.052.147-.1.226-.102.91-.01 1.82-.01 2.73-.014.319 0 .637-.01.954-.007.053 0 .14.038.153.075.132.433.251.869.372 1.306.007.024-.005.054-.012.1-.452-.204-.924-.2-1.395-.204-.207-.002-.287.075-.287.283.006 1.894-.007 3.79.013 5.684.003.378.12.755.19 1.154 0 0-.046.019-.092.019-.48 0-.963 0-1.443-.004-.235 0-.239-.034-.192-.258.065-.32.138-.649.142-.975.014-1.78.007-3.56.009-5.34 0-.093 0-.187.01-.28.025-.241 0-.274-.254-.276-.457-.004-.918-.026-1.356.152-.03.013-.069 0-.124 0l-.002.002Z"/>
  </g>
  <defs>
    <clipPath id="a">
      <path fill="#fff" d="M0 0h87v41H0z"/>
    </clipPath>
  </defs>
</svg>
