<svg xmlns="http://www.w3.org/2000/svg" fill="none" viewBox="0 0 190 67">
  <path fill="#fff" d="M19.888.583c.719.132 1.438.254 2.151.402 7.838 1.607 14.977 8.46 16.797 16.2.663 2.816.592 5.615-.729 8.277-.719 1.448-1.749 2.62-3.075 3.554-.26.184-.5.444-.652.719a9.931 9.931 0 0 1-2.973 3.304c-.23.163-.47.357-.602.597-2.009 3.595-5.176 5.237-9.199 5.318-5.752.123-10.448-2.33-14.512-6.16-3.034-2.854-5.222-6.26-6.15-10.361-.75-3.305-.581-6.522 1.428-9.408a9.595 9.595 0 0 1 1.866-1.989c.678-.535 1.163-1.173 1.673-1.851.688-.913 1.565-1.688 2.355-2.53.311-.33.684-.632.913-1.02 1.744-2.91 4.365-4.43 7.664-4.905.215-.03.424-.096.633-.147h2.412Zm-8.399 9.693c-.495.026-.984.051-1.474.072-.428.02-.668.188-.596.662.204 1.316.224 2.688.627 3.932 2.014 6.196 6.236 10.428 12.131 13.044 2.392 1.06 4.921 1.565 7.573 1.275.55-.061.683-.29.627-.765-.117-.969-.138-1.963-.367-2.907-1.153-4.783-3.978-8.45-7.843-11.366-3.151-2.376-6.67-3.84-10.673-3.947h-.005ZM4.365 13.31c-.056-.025-.112-.046-.163-.071-.234.316-.49.617-.693.948-1.54 2.489-1.652 5.176-1 7.925 1.061 4.446 3.631 7.94 7.13 10.78 3.222 2.62 6.852 4.329 11.085 4.487 2.636.102 5.048-.52 7.032-2.371.112-.108.199-.24.336-.413-.943.112-1.78.26-2.62.295-3.371.148-6.512-.719-9.43-2.34-5.593-3.116-9.59-7.567-11.314-13.834-.49-1.77-.638-3.585-.352-5.421l-.01.015Zm27.649 15.354c1.157-.24 1.33-.377 1.611-1.326a10.386 10.386 0 0 0 0-6.058c-2.274-7.516-7.358-12.274-14.808-14.553-2.637-.806-5.324-.785-7.935.28-.877.358-1.101.73-1.076 1.75 5.84-.413 10.745 1.774 14.987 5.563 4.263 3.804 6.986 8.444 7.216 14.344h.005ZM11.637 5.014c.29-.026.403-.026.505-.051 1.989-.46 3.993-.423 5.976-.02 5.344 1.086 9.617 3.93 13.024 8.092 2.61 3.192 4.304 6.792 4.461 10.994.026.719 0 1.438 0 2.157.495-.525.908-1.096 1.199-1.724 1.214-2.656 1.08-5.384.184-8.072-1.903-5.686-5.752-9.704-11.05-12.37-3.01-1.515-6.206-2.24-9.592-1.586-1.765.341-3.325 1.101-4.712 2.575l.005.005ZM30.05 30.857c-5.91.382-10.84-1.785-15.098-5.61-4.253-3.819-6.92-8.485-7.155-14.323-.933.132-1.422.591-1.652 1.504-.51 2.024-.474 4.039.133 6.002 2.238 7.215 7.123 11.876 14.237 14.242 2.703.898 5.471.969 8.215-.015.872-.311 1.305-.852 1.32-1.8Zm81.395-6.915V6.946h4.105v24.757c-1.311 0-2.642.016-3.973-.02-.168 0-.362-.286-.484-.474-3.738-5.701-7.465-11.412-11.193-17.113-.117-.179-.245-.347-.48-.684v18.24h-4.14V6.89c.77 0 1.545-.01 2.315 0 .847.01 1.831-.219 2.494.138.642.342.959 1.295 1.407 1.984 3.152 4.834 6.303 9.668 9.454 14.497.107.163.225.316.342.474l.158-.046-.005.005Zm-58.32-1.861v9.571h-4.248V6.89h.643c2.973 0 5.945-.04 8.913.016 2.356.045 4.518.668 6.318 2.325 2.948 2.718 3.106 9.525-2.004 11.886-.178.082-.362.163-.637.29a4012 4012 0 0 1 2.998 5.136c.984 1.688 1.968 3.37 3.004 5.15-1.673 0-3.228.015-4.783-.02-.184 0-.408-.291-.526-.5a938.887 938.887 0 0 1-4.875-8.526c-.234-.418-.49-.607-.984-.591-1.244.035-2.493.01-3.824.01l.005.015Zm.03-3.31c2.132-.091 4.228-.086 6.298-.305 1.24-.133 2.249-.893 2.713-2.127.806-2.141.25-5.19-3.264-5.594-1.545-.178-3.12-.107-4.68-.142-.348-.01-.7 0-1.066 0v8.174-.005Zm130.047 2.652c1.03 1.765 2.019 3.452 3.008 5.145.974 1.673 1.948 3.34 2.998 5.14h-2.187c-.739 0-1.474-.025-2.213.01-.459.021-.709-.127-.938-.535-1.602-2.855-3.254-5.68-4.855-8.536-.24-.428-.51-.586-.994-.571-1.245.036-2.489.01-3.794.01v9.577h-4.238V6.93c.189-.015.383-.036.577-.036 2.993 0 5.991-.045 8.984.01 2.356.046 4.518.674 6.313 2.341 2.938 2.723 3.091 9.526-2.034 11.881-.179.082-.357.169-.617.296h-.01Zm-8.975-2.738c1.509 0 2.952.005 4.401 0 .443 0 .897 0 1.336-.077 1.483-.244 2.774-.83 3.314-2.345.79-2.224.122-5.14-3.309-5.518-1.658-.183-3.34-.107-5.013-.142-.235 0-.474.02-.729.03v8.057-.005ZM122.495 31.78V6.926c.255-.01.474-.03.689-.03 2.478 0 4.961-.006 7.439 0 6.211.015 10.831 4.247 11.423 10.402.239 2.473.112 4.9-.755 7.236-1.509 4.074-4.513 6.491-8.781 6.96-3.289.362-6.634.21-10.015.286Zm4.263-3.942c1.311 0 2.555.025 3.799-.005 3.457-.092 5.976-2.05 6.879-5.38.602-2.213.591-4.451-.097-6.639-.816-2.6-2.524-4.39-5.273-4.819-1.698-.265-3.462-.143-5.196-.188-.03 0-.061.056-.117.101v16.93h.005Zm-49.07-17.083v6.329h10v3.636h-9.985v7.098h11.58v3.85H73.43V6.93h15.267v3.82H77.688v.005Zm74.699 9.97v7.098h11.58v3.83h-15.838V6.935h15.277v3.825h-11.024v6.307h9.989v3.657h-9.984Zm36.427 45.282c-4.666-.01-9.332-.016-14.002-.026h-.979V41.214h4.206v20.785h10.77v4.008h.005ZM79.037 41.188h5.548c2.749 8.246 5.492 16.481 8.261 24.793-1.489 0-2.87.015-4.253-.02-.168 0-.418-.276-.484-.47a117.376 117.376 0 0 1-1.295-4.135c-.123-.423-.286-.607-.77-.602a443.9 443.9 0 0 1-8.644 0c-.515-.005-.693.194-.82.638-.398 1.366-.837 2.718-1.24 4.084-.107.372-.275.525-.688.515-1.295-.03-2.59-.01-4.008-.01 2.815-8.307 5.604-16.542 8.398-24.793h-.005ZM85.503 57.2c-1.25-4.039-2.473-7.975-3.692-11.912h-.143c-1.244 3.947-2.493 7.899-3.758 11.912h7.593Zm66.505 8.76h-4.528l8.393-24.772h5.548c2.738 8.21 5.482 16.445 8.261 24.788-1.525 0-2.963.01-4.401-.02-.122 0-.285-.296-.347-.48a203.72 203.72 0 0 1-1.305-4.202c-.112-.377-.285-.52-.699-.52-2.926.02-5.853.02-8.78 0-.413 0-.587.133-.699.52-.459 1.556-.954 3.1-1.443 4.681v.006Zm10.331-8.76c-1.244-4.013-2.463-7.96-3.687-11.907-.051 0-.102 0-.153.005a31405.74 31405.74 0 0 1-3.753 11.902h7.593ZM97.002 41.168c2.907 0 5.762-.02 8.618.01.887.01 1.795.077 2.656.27 3.131.704 5.38 2.433 5.977 5.717.918 5.074-1.846 8.638-6.757 9.321-.724.102-1.468.117-2.203.128-1.315.02-2.636.005-4.033.005v9.311h-4.258V41.168Zm4.263 11.744c1.734 0 3.411.096 5.074-.026 2.218-.158 3.63-1.57 3.773-3.544.158-2.223-.902-3.86-3.095-4.222-1.872-.306-3.804-.24-5.752-.342v8.134Zm-37.306 4.92 3.799 1.714c-.163.367-.3.709-.464 1.035-3.707 7.389-12.978 7.108-16.98 2.743-1.8-1.963-2.764-4.283-3.137-6.873-.469-3.254-.23-6.44 1.138-9.48 3.176-7.063 11.463-7.46 15.675-4.472 1.59 1.127 3.039 2.978 3.717 4.86-.632.295-1.275.591-1.912.887-.627.29-1.25.576-1.907.877-.235-.454-.439-.892-.679-1.31-1.218-2.142-3.049-3.274-5.543-3.172-2.462.102-4.278 1.32-5.226 3.559-1.54 3.63-1.606 7.353.097 10.938 1.994 4.197 7.434 4.594 10.157.82.464-.642.821-1.366 1.27-2.126h-.005Zm76.463 8.113h-4.268V45.186h-7.077V41.21h18.403v3.921c-.25.015-.485.041-.724.041-1.856 0-3.713.026-5.564-.01-.637-.016-.78.209-.78.805.021 6.37.01 12.743.01 19.113v.877-.01Zm-20.636-24.741h4.201v24.72h-4.201v-24.72Z"/>
</svg>