<svg xmlns="http://www.w3.org/2000/svg" fill="none" viewBox="0 0 223 442">
  <circle cx="20.917" cy="325.603" r="19.211" fill="#000" fill-opacity=".05" stroke="url(#a)" stroke-width="1.578"/>
  <path fill="#fff" d="m18.352 330.778-5.038-5.037a.775.775 0 0 1 0-1.096l1.096-1.096a.774.774 0 0 1 1.096 0l3.393 3.393 7.269-7.268a.774.774 0 0 1 1.096 0l1.096 1.096a.775.775 0 0 1 0 1.096l-8.912 8.912a.774.774 0 0 1-1.096 0Z"/>
  <circle cx="111.5" cy="325.603" r="19.211" fill="#000" fill-opacity=".05" stroke="url(#b)" stroke-width="1.578"/>
  <path fill="#fff" d="m108.934 330.778-5.037-5.037a.774.774 0 0 1 0-1.096l1.096-1.096a.774.774 0 0 1 1.096 0l3.393 3.393 7.269-7.268a.774.774 0 0 1 1.096 0l1.096 1.096a.774.774 0 0 1 0 1.096l-8.913 8.912a.774.774 0 0 1-1.096 0Z"/>
  <circle cx="202.083" cy="325.603" r="19.211" fill="#000" fill-opacity=".05" stroke="url(#c)" stroke-width="1.578"/>
  <path fill="#fff" d="m199.517 330.778-5.037-5.037a.774.774 0 0 1 0-1.096l1.096-1.096a.774.774 0 0 1 1.096 0l3.393 3.393 7.269-7.268a.774.774 0 0 1 1.096 0l1.096 1.096a.774.774 0 0 1 0 1.096l-8.913 8.912a.774.774 0 0 1-1.096 0Z"/>
  <path stroke="#71717A" stroke-dasharray="4 4" d="M18.768 289.09v-61.327c0-16.569 13.431-30 30-30h32.498c16.569 0 30-13.432 30-30v-55.787m92.966 177.114v-61.327c0-16.569-13.431-30-30-30h-32.498c-16.568 0-30-13.432-30-30v-55.787m-.129 66.499v106.07"/>
  <rect width="151.705" height="151.705" x="35.648" y=".62" fill="#18181B" rx="6.372"/>
  <path fill="#fff" fill-opacity=".4" fill-rule="evenodd" d="M111.478 115.104 72.003 46.732h78.949-52.284l26.142 45.28-13.332 23.092Z" clip-rule="evenodd"/>
  <path fill="#fff" fill-opacity=".6" fill-rule="evenodd" d="m98.668 46.732 26.142 45.28 12.991-22.501-13.151-22.78h26.302-52.284Z" clip-rule="evenodd"/>
  <path fill="#fff" d="M137.801 69.51 124.65 46.733h26.302L137.801 69.51Z"/>
  <path stroke="#71717A" stroke-dasharray="4 4" d="M204.232 441.705v-77.181M111.5 441.849v-77.468m-92.732 77.612v-77.468"/>
  <defs>
    <linearGradient id="a" x1="20.917" x2="20.917" y1="305.603" y2="345.603" gradientUnits="userSpaceOnUse">
      <stop stop-color="#0F52DE"/>
      <stop offset="1" stop-color="#0F52DE" stop-opacity=".08"/>
    </linearGradient>
    <linearGradient id="b" x1="111.5" x2="111.5" y1="305.603" y2="345.603" gradientUnits="userSpaceOnUse">
      <stop stop-color="#0F52DE"/>
      <stop offset="1" stop-color="#0F52DE" stop-opacity=".08"/>
    </linearGradient>
    <linearGradient id="c" x1="202.083" x2="202.083" y1="305.603" y2="345.603" gradientUnits="userSpaceOnUse">
      <stop stop-color="#0F52DE"/>
      <stop offset="1" stop-color="#0F52DE" stop-opacity=".08"/>
    </linearGradient>
  </defs>
</svg>