<svg xmlns="http://www.w3.org/2000/svg" fill="none" viewBox="0 0 468 388">
  <rect width="288" height="63" x="179.688" y="324.361" fill="#18181B" rx="5"/>
  <path fill="#fff" d="M238.272 360.361v-11.2h4.192c2.528 0 4.192 1.344 4.192 3.552v.032c0 2.416-2.016 3.664-4.4 3.664h-2.72v3.952h-1.264Zm1.264-5.104h2.768c1.856 0 3.072-.992 3.072-2.464v-.032c0-1.6-1.2-2.432-3.008-2.432h-2.832v4.928Zm12.913 5.296c-2.48 0-4.288-1.952-4.288-4.288v-.032c0-2.336 1.824-4.32 4.32-4.32 2.48 0 4.304 1.952 4.304 4.288v.032c0 2.336-1.84 4.32-4.336 4.32Zm.032-1.104c1.792 0 3.04-1.44 3.04-3.184v-.032c0-1.776-1.328-3.232-3.072-3.232-1.792 0-3.024 1.456-3.024 3.2v.032c0 1.776 1.312 3.216 3.056 3.216Zm6.536.912v-8.272h1.232v2.16c.608-1.376 1.808-2.368 3.376-2.304v1.328h-.096c-1.808 0-3.28 1.296-3.28 3.792v3.296h-1.232Zm9.252.144c-1.328 0-2.336-.656-2.336-2.336v-4.992h-1.152v-1.088h1.152v-2.496h1.232v2.496h2.624v1.088h-2.624v4.832c0 1.008.56 1.376 1.392 1.376.416 0 .768-.08 1.2-.288v1.056a3.099 3.099 0 0 1-1.488.352Zm4.165-.144v-7.184h-1.136v-1.072h1.136v-.72c0-.944.256-1.664.72-2.128.416-.416 1.024-.64 1.776-.64.576 0 .96.064 1.36.208v1.072c-.448-.128-.784-.208-1.2-.208-.96 0-1.44.576-1.44 1.76v.672h2.624v1.056h-2.608v7.184h-1.232Zm9.031.192c-2.48 0-4.288-1.952-4.288-4.288v-.032c0-2.336 1.824-4.32 4.32-4.32 2.48 0 4.304 1.952 4.304 4.288v.032c0 2.336-1.84 4.32-4.336 4.32Zm.032-1.104c1.792 0 3.039-1.44 3.039-3.184v-.032c0-1.776-1.327-3.232-3.071-3.232-1.792 0-3.024 1.456-3.024 3.2v.032c0 1.776 1.312 3.216 3.056 3.216Zm6.647.912v-11.68h1.232v11.68h-1.232Zm4.123-10.08v-1.36h1.408v1.36h-1.408Zm.08 10.08v-8.272h1.232v8.272h-1.232Zm7.868.192c-2.48 0-4.288-1.952-4.288-4.288v-.032c0-2.336 1.824-4.32 4.32-4.32 2.48 0 4.304 1.952 4.304 4.288v.032c0 2.336-1.84 4.32-4.336 4.32Zm.032-1.104c1.792 0 3.039-1.44 3.039-3.184v-.032c0-1.776-1.327-3.232-3.071-3.232-1.792 0-3.024 1.456-3.024 3.2v.032c0 1.776 1.312 3.216 3.056 3.216Zm11.54.912v-11.2h4.816c1.376 0 2.48.416 3.184 1.12.544.544.864 1.328.864 2.208v.032c0 1.856-1.28 2.944-3.04 3.264l3.44 4.576h-1.552l-3.248-4.352h-3.2v4.352h-1.264Zm1.264-5.488h3.44c1.68 0 2.88-.864 2.88-2.304v-.032c0-1.376-1.056-2.208-2.864-2.208h-3.456v4.544Zm10.67 1.856c.176 1.744 1.456 2.752 2.912 2.752 1.136 0 1.936-.464 2.608-1.168l.768.688c-.832.928-1.84 1.552-3.408 1.552-2.272 0-4.128-1.744-4.128-4.32 0-2.4 1.68-4.32 3.968-4.32 2.448 0 3.856 1.952 3.856 4.384 0 .112 0 .24-.016.432h-6.56Zm0-.992h5.328c-.144-1.504-1.008-2.784-2.64-2.784-1.424 0-2.512 1.184-2.688 2.784Zm11.095 4.688-3.584-8.336h1.36l2.784 6.864 2.8-6.864h1.328l-3.6 8.336h-1.088Zm6.655-10.144v-1.36h1.408v1.36h-1.408Zm.08 10.08v-8.272h1.232v8.272h-1.232Zm4.827-3.632c.176 1.744 1.456 2.752 2.912 2.752 1.136 0 1.936-.464 2.608-1.168l.768.688c-.832.928-1.84 1.552-3.408 1.552-2.272 0-4.128-1.744-4.128-4.32 0-2.4 1.68-4.32 3.968-4.32 2.448 0 3.856 1.952 3.856 4.384 0 .112 0 .24-.016.432h-6.56Zm0-.992h5.328c-.144-1.504-1.008-2.784-2.64-2.784-1.424 0-2.512 1.184-2.688 2.784Zm10.518 4.688L354 352.089h1.312l2.176 6.64 2.224-6.672h1.024l2.24 6.672 2.176-6.64h1.28l-2.912 8.336h-1.072l-2.224-6.528-2.24 6.528h-1.088Zm16.594-.064v-11.2h3.888c3.52 0 5.952 2.416 5.952 5.568v.032c0 3.152-2.432 5.6-5.952 5.6h-3.888Zm1.264-1.168h2.624c2.832 0 4.64-1.92 4.64-4.4v-.032c0-2.48-1.808-4.432-4.64-4.432h-2.624v8.864Zm13.508 1.344c-1.552 0-3.088-.88-3.088-2.576v-.032c0-1.776 1.44-2.704 3.536-2.704 1.056 0 1.792.144 2.528.352v-.256c0-1.472-.896-2.24-2.448-2.24-.976 0-1.744.24-2.512.592l-.368-1.008c.912-.416 1.792-.704 3.008-.704 1.168 0 2.08.32 2.672.912.576.576.864 1.376.864 2.432v5.056h-1.216v-1.232c-.576.736-1.52 1.408-2.976 1.408Zm.24-.992c1.52 0 2.752-.912 2.752-2.224v-.768a8.504 8.504 0 0 0-2.416-.352c-1.536 0-2.416.672-2.416 1.664v.032c0 1.04.96 1.648 2.08 1.648Zm9.297.976c-1.183 0-2.495-.464-3.423-1.216l.624-.88c.896.672 1.888 1.056 2.864 1.056.992 0 1.712-.512 1.712-1.312v-.032c0-.832-.976-1.152-2.064-1.456-1.296-.368-2.736-.816-2.736-2.336v-.032c0-1.424 1.184-2.368 2.816-2.368 1.008 0 2.128.352 2.976.912l-.56.928c-.768-.496-1.648-.8-2.448-.8-.976 0-1.6.512-1.6 1.2v.032c0 .784 1.024 1.088 2.128 1.424 1.28.384 2.656.88 2.656 2.368v.032c0 1.568-1.296 2.48-2.945 2.48Zm5.233-.16v-11.68h1.232v4.848c.544-.896 1.408-1.616 2.832-1.616 2 0 3.168 1.344 3.168 3.312v5.136h-1.232v-4.832c0-1.536-.832-2.496-2.288-2.496-1.424 0-2.48 1.04-2.48 2.592v4.736h-1.232Zm14.26.176c-1.536 0-2.528-.832-3.168-1.76v1.584h-1.232v-11.68h1.232v5.072c.672-.992 1.648-1.84 3.168-1.84 1.984 0 3.952 1.568 3.952 4.288v.032c0 2.704-1.952 4.304-3.952 4.304Zm-.224-1.104c1.6 0 2.912-1.184 2.912-3.184v-.032c0-1.952-1.344-3.2-2.912-3.2-1.536 0-2.992 1.296-2.992 3.184v.032c0 1.92 1.456 3.2 2.992 3.2Zm10.225 1.12c-2.48 0-4.288-1.952-4.288-4.288v-.032c0-2.336 1.824-4.32 4.32-4.32 2.48 0 4.304 1.952 4.304 4.288v.032c0 2.336-1.84 4.32-4.336 4.32Zm.032-1.104c1.792 0 3.04-1.44 3.04-3.184v-.032c0-1.776-1.328-3.232-3.072-3.232-1.792 0-3.024 1.456-3.024 3.2v.032c0 1.776 1.312 3.216 3.056 3.216Zm8.999 1.088c-1.552 0-3.088-.88-3.088-2.576v-.032c0-1.776 1.44-2.704 3.536-2.704 1.056 0 1.792.144 2.528.352v-.256c0-1.472-.896-2.24-2.448-2.24-.976 0-1.744.24-2.512.592l-.368-1.008c.912-.416 1.792-.704 3.008-.704 1.168 0 2.08.32 2.672.912.576.576.864 1.376.864 2.432v5.056H439.3v-1.232c-.576.736-1.52 1.408-2.976 1.408Zm.24-.992c1.52 0 2.752-.912 2.752-2.224v-.768a8.504 8.504 0 0 0-2.416-.352c-1.536 0-2.416.672-2.416 1.664v.032c0 1.04.96 1.648 2.08 1.648Zm6.562.816v-8.272h1.232v2.16c.608-1.376 1.808-2.368 3.376-2.304v1.328h-.096c-1.808 0-3.28 1.296-3.28 3.792v3.296h-1.232Zm9.613.176c-1.984 0-3.952-1.568-3.952-4.288v-.032c0-2.704 1.968-4.304 3.952-4.304 1.536 0 2.528.832 3.168 1.76v-4.992h1.232v11.68h-1.232v-1.664c-.672.992-1.648 1.84-3.168 1.84Zm.224-1.104c1.536 0 2.992-1.296 2.992-3.2v-.032c0-1.904-1.456-3.184-2.992-3.184-1.6 0-2.912 1.184-2.912 3.184v.032c0 1.952 1.344 3.2 2.912 3.2Z"/>
  <rect width="28.372" height="28.372" x="196.693" y="341.676" stroke="url(#a)" stroke-width="1.628" rx="3.186"/>
  <path fill="url(#b)" d="m218.683 348.36-.808-.808-7.596 7.596a.573.573 0 0 0 .407.968.57.57 0 0 0 .401-.16l2.389-2.388a3.426 3.426 0 1 1-2.793-1.445v-1.143a4.58 4.58 0 0 0-4.464 3.54 4.575 4.575 0 0 0 2.443 5.148 4.577 4.577 0 0 0 5.631-6.918l1.626-1.626a6.784 6.784 0 0 1 1.622 4.428 6.858 6.858 0 1 1-10.667-5.702 6.857 6.857 0 0 1 3.809-1.155v-1.143a7.998 7.998 0 0 0-7.846 9.56 8.005 8.005 0 0 0 6.286 6.286 8 8 0 0 0 9.56-7.846 7.916 7.916 0 0 0-1.955-5.237l1.955-1.955Z"/>
  <rect width="277" height="63" x="179.688" y="81.361" fill="#18181B" rx="5"/>
  <path fill="#fff" d="m248.479 117.694-1.472-1.344c-.944.752-2.144 1.2-3.536 1.2-3.408 0-5.696-2.672-5.696-5.76v-.032c0-3.088 2.32-5.792 5.728-5.792s5.696 2.672 5.696 5.76v.032c0 1.408-.48 2.736-1.344 3.76l1.488 1.232-.864.944Zm-4.976-1.312c.992 0 1.888-.32 2.576-.848l-2.08-1.776.848-.944 2.064 1.872a4.713 4.713 0 0 0 .976-2.896v-.032c0-2.544-1.856-4.624-4.416-4.624-2.56 0-4.384 2.048-4.384 4.592v.032c0 2.544 1.856 4.624 4.416 4.624Zm11.194 1.152c-2 0-3.168-1.344-3.168-3.312v-5.136h1.232v4.832c0 1.536.832 2.496 2.288 2.496 1.408 0 2.48-1.04 2.48-2.592v-4.736h1.216v8.272h-1.216v-1.44c-.56.896-1.408 1.616-2.832 1.616Zm9.283 0c-1.552 0-3.088-.88-3.088-2.576v-.032c0-1.776 1.44-2.704 3.536-2.704 1.056 0 1.792.144 2.528.352v-.256c0-1.472-.896-2.24-2.448-2.24-.976 0-1.744.24-2.512.592l-.368-1.008c.912-.416 1.792-.704 3.008-.704 1.168 0 2.08.32 2.672.912.576.576.864 1.376.864 2.432v5.056h-1.216v-1.232c-.576.736-1.52 1.408-2.976 1.408Zm.24-.992c1.52 0 2.752-.912 2.752-2.224v-.768a8.504 8.504 0 0 0-2.416-.352c-1.536 0-2.416.672-2.416 1.664v.032c0 1.04.96 1.648 2.08 1.648Zm6.562.816v-8.272h1.232v2.16c.608-1.376 1.808-2.368 3.376-2.304v1.328h-.096c-1.808 0-3.28 1.296-3.28 3.792v3.296h-1.232Zm9.252.144c-1.328 0-2.336-.656-2.336-2.336v-4.992h-1.152v-1.088h1.152v-2.496h1.232v2.496h2.624v1.088h-2.624v4.832c0 1.008.56 1.376 1.392 1.376.416 0 .768-.08 1.2-.288v1.056a3.099 3.099 0 0 1-1.488.352Zm4.203-3.776c.176 1.744 1.456 2.752 2.912 2.752 1.136 0 1.936-.464 2.608-1.168l.768.688c-.832.928-1.84 1.552-3.408 1.552-2.272 0-4.128-1.744-4.128-4.32 0-2.4 1.68-4.32 3.968-4.32 2.448 0 3.856 1.952 3.856 4.384 0 .112 0 .24-.016.432h-6.56Zm0-.992h5.328c-.144-1.504-1.008-2.784-2.64-2.784-1.424 0-2.512 1.184-2.688 2.784Zm8.732 4.624v-8.272h1.232v2.16c.608-1.376 1.808-2.368 3.376-2.304v1.328h-.096c-1.808 0-3.28 1.296-3.28 3.792v3.296h-1.232Zm6.597 0v-11.68h1.232v11.68h-1.232Zm5.371 2.608c-.688 0-1.2-.144-1.76-.416l.416-.976c.4.208.768.304 1.296.304.736 0 1.2-.384 1.696-1.552l-3.76-8.24h1.36l3.008 6.896 2.656-6.896h1.312l-3.472 8.544c-.704 1.712-1.504 2.336-2.752 2.336Zm13.178-2.608v-11.2h4.192c2.528 0 4.192 1.344 4.192 3.552v.032c0 2.416-2.016 3.664-4.4 3.664h-2.72v3.952h-1.264Zm1.264-5.104h2.768c1.856 0 3.072-.992 3.072-2.464v-.032c0-1.6-1.2-2.432-3.008-2.432h-2.832v4.928Zm12.913 5.296c-2.48 0-4.288-1.952-4.288-4.288v-.032c0-2.336 1.824-4.32 4.32-4.32 2.48 0 4.304 1.952 4.304 4.288v.032c0 2.336-1.84 4.32-4.336 4.32Zm.032-1.104c1.792 0 3.04-1.44 3.04-3.184v-.032c0-1.776-1.328-3.232-3.072-3.232-1.792 0-3.024 1.456-3.024 3.2v.032c0 1.776 1.312 3.216 3.056 3.216Zm6.536.912v-8.272h1.232v2.16c.608-1.376 1.808-2.368 3.376-2.304v1.328h-.096c-1.808 0-3.28 1.296-3.28 3.792v3.296h-1.232Zm9.252.144c-1.328 0-2.336-.656-2.336-2.336v-4.992h-1.152v-1.088h1.152v-2.496h1.232v2.496h2.624v1.088h-2.624v4.832c0 1.008.56 1.376 1.392 1.376.416 0 .768-.08 1.2-.288v1.056a3.099 3.099 0 0 1-1.488.352Zm4.165-.144v-7.184h-1.136v-1.072h1.136v-.72c0-.944.256-1.664.72-2.128.416-.416 1.024-.64 1.776-.64.576 0 .96.064 1.36.208v1.072c-.448-.128-.784-.208-1.2-.208-.96 0-1.44.576-1.44 1.76v.672h2.624v1.056h-2.608v7.184h-1.232Zm9.031.192c-2.48 0-4.288-1.952-4.288-4.288v-.032c0-2.336 1.824-4.32 4.32-4.32 2.48 0 4.304 1.952 4.304 4.288v.032c0 2.336-1.84 4.32-4.336 4.32Zm.032-1.104c1.792 0 3.04-1.44 3.04-3.184v-.032c0-1.776-1.328-3.232-3.072-3.232-1.792 0-3.024 1.456-3.024 3.2v.032c0 1.776 1.312 3.216 3.056 3.216Zm6.648.912v-11.68h1.232v11.68h-1.232Zm4.123-10.08v-1.36h1.408v1.36h-1.408Zm.08 10.08v-8.272h1.232v8.272h-1.232Zm7.867.192c-2.48 0-4.288-1.952-4.288-4.288v-.032c0-2.336 1.824-4.32 4.32-4.32 2.48 0 4.304 1.952 4.304 4.288v.032c0 2.336-1.84 4.32-4.336 4.32Zm.032-1.104c1.792 0 3.04-1.44 3.04-3.184v-.032c0-1.776-1.328-3.232-3.072-3.232-1.792 0-3.024 1.456-3.024 3.2v.032c0 1.776 1.312 3.216 3.056 3.216Zm11.54.912v-11.2h4.816c1.376 0 2.48.416 3.184 1.12.544.544.864 1.328.864 2.208v.032c0 1.856-1.28 2.944-3.04 3.264l3.44 4.576h-1.552l-3.248-4.352h-3.2v4.352h-1.264Zm1.264-5.488h3.44c1.68 0 2.88-.864 2.88-2.304v-.032c0-1.376-1.056-2.208-2.864-2.208h-3.456v4.544Zm10.671 1.856c.176 1.744 1.456 2.752 2.912 2.752 1.136 0 1.936-.464 2.608-1.168l.768.688c-.832.928-1.84 1.552-3.408 1.552-2.272 0-4.128-1.744-4.128-4.32 0-2.4 1.68-4.32 3.968-4.32 2.448 0 3.856 1.952 3.856 4.384 0 .112 0 .24-.016.432h-6.56Zm0-.992h5.328c-.144-1.504-1.008-2.784-2.64-2.784-1.424 0-2.512 1.184-2.688 2.784Zm11.094 4.688-3.584-8.336h1.36l2.784 6.864 2.8-6.864h1.328l-3.6 8.336h-1.088Zm6.655-10.144v-1.36h1.408v1.36h-1.408Zm.08 10.08v-8.272h1.232v8.272h-1.232Zm4.827-3.632c.176 1.744 1.456 2.752 2.912 2.752 1.136 0 1.936-.464 2.608-1.168l.768.688c-.832.928-1.84 1.552-3.408 1.552-2.272 0-4.128-1.744-4.128-4.32 0-2.4 1.68-4.32 3.968-4.32 2.448 0 3.856 1.952 3.856 4.384 0 .112 0 .24-.016.432h-6.56Zm0-.992h5.328c-.144-1.504-1.008-2.784-2.64-2.784-1.424 0-2.512 1.184-2.688 2.784Zm10.518 4.688-2.896-8.336h1.312l2.176 6.64 2.224-6.672h1.024l2.24 6.672 2.176-6.64h1.28l-2.912 8.336h-1.072l-2.224-6.528-2.24 6.528h-1.088Z"/>
  <rect width="28.372" height="28.372" x="196.692" y="98.675" stroke="url(#c)" stroke-width="1.628" rx="3.186"/>
  <path fill="#fff" d="M0 0h18.91v18.91H0z" style="mix-blend-mode:multiply" transform="translate(201.424 103.406)"/>
  <path fill="url(#d)" d="M216.788 118.77h-4.728v1.182h4.728v-1.182Z"/>
  <path fill="url(#e)" d="M219.152 116.406h-7.092v1.182h7.092v-1.182Z"/>
  <path fill="url(#f)" d="M219.152 114.043h-7.092v1.182h7.092v-1.182Z"/>
  <path fill="url(#g)" d="m213.567 110.034-2.688-5.446-2.689 5.446-6.01.874 4.349 4.24-1.027 5.986 4.195-2.205v-1.335l-2.625 1.379.727-4.238-3.079-3.002 4.255-.618 1.904-3.857 1.903 3.857 5.019.73.169-1.171-4.403-.64Z"/>
  <rect width="237" height="63" x="179.688" y=".361" fill="#18181B" rx="5"/>
  <path fill="#fff" d="M238.272 36.36v-11.2h4.192c2.528 0 4.192 1.344 4.192 3.552v.032c0 2.416-2.016 3.664-4.4 3.664h-2.72v3.952h-1.264Zm1.264-5.104h2.768c1.856 0 3.072-.992 3.072-2.464v-.032c0-1.6-1.2-2.432-3.008-2.432h-2.832v4.928Zm12.913 5.296c-2.48 0-4.288-1.952-4.288-4.288v-.032c0-2.336 1.824-4.32 4.32-4.32 2.48 0 4.304 1.952 4.304 4.288v.032c0 2.336-1.84 4.32-4.336 4.32Zm.032-1.104c1.792 0 3.04-1.44 3.04-3.184v-.032c0-1.776-1.328-3.232-3.072-3.232-1.792 0-3.024 1.456-3.024 3.2v.032c0 1.776 1.312 3.216 3.056 3.216Zm6.536.912v-8.272h1.232v2.16c.608-1.376 1.808-2.368 3.376-2.304v1.328h-.096c-1.808 0-3.28 1.296-3.28 3.792v3.296h-1.232Zm9.252.144c-1.328 0-2.336-.656-2.336-2.336v-4.992h-1.152v-1.088h1.152v-2.496h1.232v2.496h2.624v1.088h-2.624v4.832c0 1.008.56 1.376 1.392 1.376.416 0 .768-.08 1.2-.288v1.056a3.099 3.099 0 0 1-1.488.352Zm4.165-.144v-7.184h-1.136v-1.072h1.136v-.72c0-.944.256-1.664.72-2.128.416-.416 1.024-.64 1.776-.64.576 0 .96.064 1.36.208v1.072c-.448-.128-.784-.208-1.2-.208-.96 0-1.44.576-1.44 1.76v.672h2.624v1.056h-2.608v7.184h-1.232Zm9.031.192c-2.48 0-4.288-1.952-4.288-4.288v-.032c0-2.336 1.824-4.32 4.32-4.32 2.48 0 4.304 1.952 4.304 4.288v.032c0 2.336-1.84 4.32-4.336 4.32Zm.032-1.104c1.792 0 3.039-1.44 3.039-3.184v-.032c0-1.776-1.327-3.232-3.071-3.232-1.792 0-3.024 1.456-3.024 3.2v.032c0 1.776 1.312 3.216 3.056 3.216Zm6.647.912V24.68h1.232v11.68h-1.232Zm4.123-10.08v-1.36h1.408v1.36h-1.408Zm.08 10.08v-8.272h1.232v8.272h-1.232Zm7.868.192c-2.48 0-4.288-1.952-4.288-4.288v-.032c0-2.336 1.824-4.32 4.32-4.32 2.48 0 4.304 1.952 4.304 4.288v.032c0 2.336-1.84 4.32-4.336 4.32Zm.032-1.104c1.792 0 3.039-1.44 3.039-3.184v-.032c0-1.776-1.327-3.232-3.071-3.232-1.792 0-3.024 1.456-3.024 3.2v.032c0 1.776 1.312 3.216 3.056 3.216Zm11.652.912v-11.2h1.264v11.2h-1.264Zm4.336 0v-8.272h1.232v1.44c.544-.896 1.408-1.616 2.832-1.616 2 0 3.168 1.344 3.168 3.312v5.136h-1.232v-4.832c0-1.536-.832-2.496-2.288-2.496-1.424 0-2.48 1.04-2.48 2.592v4.736h-1.232Zm12.628.144c-1.328 0-2.336-.656-2.336-2.336v-4.992h-1.152v-1.088h1.152v-2.496h1.232v2.496h2.624v1.088h-2.624v4.832c0 1.008.56 1.376 1.392 1.376.416 0 .768-.08 1.2-.288v1.056a3.099 3.099 0 0 1-1.488.352Zm4.202-3.776c.176 1.744 1.456 2.752 2.912 2.752 1.136 0 1.936-.464 2.608-1.168l.768.688c-.832.928-1.84 1.552-3.408 1.552-2.272 0-4.128-1.744-4.128-4.32 0-2.4 1.68-4.32 3.968-4.32 2.448 0 3.856 1.952 3.856 4.384 0 .112 0 .24-.016.432h-6.56Zm0-.992h5.328c-.144-1.504-1.008-2.784-2.64-2.784-1.424 0-2.512 1.184-2.688 2.784Zm8.845 4.624V24.68h1.232v11.68h-1.232Zm4.203 0V24.68h1.232v11.68h-1.232Zm4.123-10.08v-1.36h1.408v1.36h-1.408Zm.08 10.08v-8.272h1.232v8.272h-1.232Zm7.755 2.592c-1.376 0-2.656-.384-3.76-1.152l.56-.96c.944.688 2 1.056 3.184 1.056 1.824 0 3.008-1.008 3.008-2.944v-.976c-.72.96-1.728 1.744-3.248 1.744-1.984 0-3.888-1.488-3.888-3.872v-.032c0-2.416 1.92-3.904 3.888-3.904 1.552 0 2.56.768 3.232 1.664v-1.488h1.232v6.832c0 1.28-.384 2.256-1.056 2.928-.736.736-1.84 1.104-3.152 1.104Zm-.016-4.32c1.568 0 3.04-1.136 3.04-2.8V31.8c0-1.696-1.472-2.8-3.04-2.8s-2.864 1.088-2.864 2.784v.032c0 1.664 1.328 2.816 2.864 2.816Zm7.713-1.904c.176 1.744 1.456 2.752 2.912 2.752 1.136 0 1.936-.464 2.608-1.168l.768.688c-.832.928-1.84 1.552-3.408 1.552-2.272 0-4.128-1.744-4.128-4.32 0-2.4 1.68-4.32 3.968-4.32 2.448 0 3.856 1.952 3.856 4.384 0 .112 0 .24-.016.432h-6.56Zm0-.992h5.328c-.144-1.504-1.008-2.784-2.64-2.784-1.424 0-2.512 1.184-2.688 2.784Zm8.733 4.624v-8.272h1.232v1.44c.544-.896 1.408-1.616 2.832-1.616 2 0 3.168 1.344 3.168 3.312v5.136h-1.232v-4.832c0-1.536-.832-2.496-2.288-2.496-1.424 0-2.48 1.04-2.48 2.592v4.736h-1.232Zm13.587.192c-2.416 0-4.24-1.968-4.24-4.288v-.032c0-2.336 1.824-4.32 4.24-4.32 1.568 0 2.544.656 3.312 1.472l-.816.864c-.656-.688-1.392-1.248-2.512-1.248-1.68 0-2.96 1.424-2.96 3.2v.032c0 1.792 1.312 3.216 3.04 3.216 1.056 0 1.872-.528 2.528-1.232l.784.736c-.832.928-1.824 1.6-3.376 1.6Zm5.915-3.824c.176 1.744 1.456 2.752 2.912 2.752 1.136 0 1.936-.464 2.608-1.168l.768.688c-.832.928-1.84 1.552-3.408 1.552-2.272 0-4.128-1.744-4.128-4.32 0-2.4 1.68-4.32 3.968-4.32 2.448 0 3.856 1.952 3.856 4.384 0 .112 0 .24-.016.432h-6.56Zm0-.992h5.328c-.144-1.504-1.008-2.784-2.64-2.784-1.424 0-2.512 1.184-2.688 2.784Z"/>
  <rect width="28.372" height="28.372" x="196.692" y="17.674" stroke="url(#h)" stroke-width="1.628" rx="3.186"/>
  <g clip-path="url(#i)">
    <path fill="url(#j)" d="M216.788 34.773h-1.182v2.954h1.182v-2.954Z"/>
    <path fill="#000" fill-opacity=".1" d="M216.788 34.773h-1.182v2.954h1.182v-2.954Z"/>
    <path fill="url(#k)" d="M214.424 31.818h-1.182v5.91h1.182v-5.91Z"/>
    <path fill="#000" fill-opacity=".1" d="M214.424 31.818h-1.182v5.91h1.182v-5.91Z"/>
    <path fill="url(#l)" d="M207.924 37.727a2.959 2.959 0 0 1-2.955-2.954h1.182a1.772 1.772 0 0 0 3.511.345A1.77 1.77 0 0 0 207.924 33v-1.182a2.955 2.955 0 0 1 0 5.91Z"/>
    <path fill="#000" fill-opacity=".1" d="M207.924 37.727a2.959 2.959 0 0 1-2.955-2.954h1.182a1.772 1.772 0 0 0 3.511.345A1.77 1.77 0 0 0 207.924 33v-1.182a2.955 2.955 0 0 1 0 5.91Z"/>
    <path fill="url(#m)" d="M217.97 23.545h-14.183a1.182 1.182 0 0 0-1.182 1.182v14.182a1.185 1.185 0 0 0 1.182 1.182h14.183a1.184 1.184 0 0 0 1.181-1.182V24.727a1.184 1.184 0 0 0-1.181-1.182Zm0 5.318h-8.274v-4.136h8.274v4.136Zm-9.455-4.136v4.136h-4.728v-4.136h4.728Zm-4.728 14.182v-8.864h14.183l.001 8.864h-14.184Z"/>
    <path fill="#000" fill-opacity=".1" d="M217.97 23.545h-14.183a1.182 1.182 0 0 0-1.182 1.182v14.182a1.185 1.185 0 0 0 1.182 1.182h14.183a1.184 1.184 0 0 0 1.181-1.182V24.727a1.184 1.184 0 0 0-1.181-1.182Zm0 5.318h-8.274v-4.136h8.274v4.136Zm-9.455-4.136v4.136h-4.728v-4.136h4.728Zm-4.728 14.182v-8.864h14.183l.001 8.864h-14.184Z"/>
  </g>
  <rect width="157" height="63" x="179.688" y="162.361" fill="#18181B" rx="5"/>
  <path fill="#fff" d="M238.272 198.356v-11.2h1.264v10.032h6.304v1.168h-7.568Zm9.906 0v-11.2h4.192c2.528 0 4.192 1.344 4.192 3.552v.032c0 2.416-2.016 3.664-4.4 3.664h-2.72v3.952h-1.264Zm1.264-5.104h2.768c1.856 0 3.072-.992 3.072-2.464v-.032c0-1.6-1.2-2.432-3.008-2.432h-2.832v4.928Zm14.22 5.104v-11.2h4.816c1.376 0 2.48.416 3.184 1.12.544.544.864 1.328.864 2.208v.032c0 1.856-1.28 2.944-3.04 3.264l3.44 4.576h-1.552l-3.248-4.352h-3.2v4.352h-1.264Zm1.264-5.488h3.44c1.68 0 2.88-.864 2.88-2.304v-.032c0-1.376-1.056-2.208-2.864-2.208h-3.456v4.544Zm10.67 1.856c.176 1.744 1.456 2.752 2.912 2.752 1.136 0 1.936-.464 2.608-1.168l.768.688c-.832.928-1.84 1.552-3.408 1.552-2.272 0-4.128-1.744-4.128-4.32 0-2.4 1.68-4.32 3.968-4.32 2.448 0 3.856 1.952 3.856 4.384 0 .112 0 .24-.016.432h-6.56Zm0-.992h5.328c-.144-1.504-1.008-2.784-2.64-2.784-1.424 0-2.512 1.184-2.688 2.784Zm8.733 7.184v-10.832h1.232v1.664c.672-.992 1.648-1.84 3.168-1.84 1.984 0 3.952 1.568 3.952 4.288v.032c0 2.704-1.952 4.304-3.952 4.304-1.536 0-2.528-.832-3.168-1.76v4.144h-1.232Zm4.176-3.488c1.6 0 2.912-1.184 2.912-3.184v-.032c0-1.952-1.344-3.2-2.912-3.2-1.536 0-2.992 1.296-2.992 3.184v.032c0 1.92 1.456 3.2 2.992 3.2Zm10.225 1.12c-2.48 0-4.288-1.952-4.288-4.288v-.032c0-2.336 1.824-4.32 4.32-4.32 2.48 0 4.304 1.952 4.304 4.288v.032c0 2.336-1.84 4.32-4.336 4.32Zm.032-1.104c1.792 0 3.04-1.44 3.04-3.184v-.032c0-1.776-1.328-3.232-3.072-3.232-1.792 0-3.024 1.456-3.024 3.2v.032c0 1.776 1.312 3.216 3.056 3.216Zm6.536.912v-8.272h1.232v2.16c.608-1.376 1.808-2.368 3.376-2.304v1.328h-.096c-1.808 0-3.28 1.296-3.28 3.792v3.296h-1.232Zm9.252.144c-1.328 0-2.336-.656-2.336-2.336v-4.992h-1.152v-1.088h1.152v-2.496h1.232v2.496h2.624v1.088h-2.624v4.832c0 1.008.56 1.376 1.392 1.376.416 0 .768-.08 1.2-.288v1.056a3.099 3.099 0 0 1-1.488.352Zm6.437.016c-1.184 0-2.496-.464-3.424-1.216l.624-.88c.896.672 1.888 1.056 2.864 1.056.992 0 1.712-.512 1.712-1.312v-.032c0-.832-.976-1.152-2.064-1.456-1.296-.368-2.736-.816-2.736-2.336v-.032c0-1.424 1.184-2.368 2.816-2.368 1.008 0 2.128.352 2.976.912l-.56.928c-.768-.496-1.648-.8-2.448-.8-.976 0-1.6.512-1.6 1.2v.032c0 .784 1.024 1.088 2.128 1.424 1.28.384 2.656.88 2.656 2.368v.032c0 1.568-1.296 2.48-2.944 2.48Z"/>
  <rect width="28.372" height="28.372" x="196.692" y="179.673" stroke="url(#n)" stroke-width="1.628" rx="3.186"/>
  <path fill="url(#o)" fill-rule="evenodd" d="M216.615 185.291h-11.474c-.584 0-1.059.499-1.059 1.114v14.908c0 .616.475 1.115 1.059 1.115h11.474c.585 0 1.059-.499 1.059-1.115v-14.908c0-.615-.474-1.114-1.059-1.114Zm0 8.008v8.058h-11.474v-14.995h11.474v6.937Zm-2.191-1.213v1.182h-7.091v-1.182h7.091Zm-1.182-1.182v-1.181h-5.909v1.181h5.909Zm1.182 5.91v1.182h-7.091v-1.182h7.091Zm-1.182-1.182v-1.182h-5.909v1.182h5.909Z" clip-rule="evenodd"/>
  <rect width="220" height="63" x="179.688" y="243.361" fill="#18181B" rx="5"/>
  <path fill="#fff" d="m242.127 279.443-4.816-11.28h1.408l3.984 9.648 4-9.648h1.36l-4.816 11.28h-1.12Zm7.656-10.16v-1.36h1.408v1.36h-1.408Zm.08 10.08v-8.272h1.232v8.272h-1.232Zm6.827.16c-1.184 0-2.496-.464-3.424-1.216l.624-.88c.896.672 1.888 1.056 2.864 1.056.992 0 1.712-.512 1.712-1.312v-.032c0-.832-.976-1.152-2.064-1.456-1.296-.368-2.736-.816-2.736-2.336v-.032c0-1.424 1.184-2.368 2.816-2.368 1.008 0 2.128.352 2.976.912l-.56.928c-.768-.496-1.648-.8-2.448-.8-.976 0-1.6.512-1.6 1.2v.032c0 .784 1.024 1.088 2.128 1.424 1.28.384 2.656.88 2.656 2.368v.032c0 1.568-1.296 2.48-2.944 2.48Zm5.265-10.24v-1.36h1.408v1.36h-1.408Zm.08 10.08v-8.272h1.232v8.272h-1.232Zm8.491.176c-1.536 0-2.528-.832-3.168-1.76v1.584h-1.232v-11.68h1.232v5.072c.672-.992 1.648-1.84 3.168-1.84 1.984 0 3.952 1.568 3.952 4.288v.032c0 2.704-1.952 4.304-3.952 4.304Zm-.224-1.104c1.6 0 2.912-1.184 2.912-3.184v-.032c0-1.952-1.344-3.2-2.912-3.2-1.536 0-2.992 1.296-2.992 3.184v.032c0 1.92 1.456 3.2 2.992 3.2Zm6.561.928v-11.68h1.232v11.68h-1.232Zm4.827-3.632c.176 1.744 1.456 2.752 2.912 2.752 1.136 0 1.936-.464 2.608-1.168l.768.688c-.832.928-1.84 1.552-3.408 1.552-2.272 0-4.128-1.744-4.128-4.32 0-2.4 1.68-4.32 3.968-4.32 2.448 0 3.856 1.952 3.856 4.384 0 .112 0 .24-.016.432h-6.56Zm0-.992h5.328c-.144-1.504-1.008-2.784-2.64-2.784-1.424 0-2.512 1.184-2.688 2.784Zm16.698 4.624v-10.032h-3.76v-1.168h8.8v1.168h-3.76v10.032h-1.28Zm5.911-3.632c.176 1.744 1.456 2.752 2.912 2.752 1.136 0 1.936-.464 2.608-1.168l.768.688c-.832.928-1.84 1.552-3.408 1.552-2.272 0-4.128-1.744-4.128-4.32 0-2.4 1.68-4.32 3.968-4.32 2.448 0 3.856 1.952 3.856 4.384 0 .112 0 .24-.016.432h-6.56Zm0-.992h5.328c-.144-1.504-1.008-2.784-2.64-2.784-1.424 0-2.512 1.184-2.688 2.784Zm11.197 4.8c-1.552 0-3.088-.88-3.088-2.576v-.032c0-1.776 1.44-2.704 3.536-2.704 1.056 0 1.792.144 2.528.352v-.256c0-1.472-.896-2.24-2.448-2.24-.976 0-1.744.24-2.512.592l-.368-1.008c.912-.416 1.792-.704 3.008-.704 1.168 0 2.08.32 2.672.912.576.576.864 1.376.864 2.432v5.056h-1.216v-1.232c-.576.736-1.52 1.408-2.976 1.408Zm.24-.992c1.52 0 2.752-.912 2.752-2.224v-.768a8.504 8.504 0 0 0-2.416-.352c-1.536 0-2.416.672-2.416 1.664v.032c0 1.04.96 1.648 2.08 1.648Zm6.562.816v-8.272h1.232v2.16c.608-1.376 1.808-2.368 3.376-2.304v1.328h-.096c-1.808 0-3.28 1.296-3.28 3.792v3.296h-1.232Zm15.329.16c-1.776 0-3.232-.592-4.576-1.792l.784-.928c1.168 1.056 2.288 1.584 3.84 1.584 1.504 0 2.496-.8 2.496-1.904v-.032c0-1.04-.56-1.632-2.912-2.128-2.576-.56-3.76-1.392-3.76-3.232v-.032c0-1.76 1.552-3.056 3.68-3.056 1.632 0 2.8.464 3.936 1.376l-.736.976c-1.04-.848-2.08-1.216-3.232-1.216-1.456 0-2.384.8-2.384 1.808v.032c0 1.056.576 1.648 3.04 2.176 2.496.544 3.648 1.456 3.648 3.168v.032c0 1.92-1.6 3.168-3.824 3.168Zm6.186-.16v-11.68h1.232v4.848c.544-.896 1.408-1.616 2.832-1.616 2 0 3.168 1.344 3.168 3.312v5.136h-1.232v-4.832c0-1.536-.832-2.496-2.288-2.496-1.424 0-2.48 1.04-2.48 2.592v4.736h-1.232Zm10.596-3.632c.176 1.744 1.456 2.752 2.912 2.752 1.136 0 1.936-.464 2.608-1.168l.768.688c-.832.928-1.84 1.552-3.408 1.552-2.272 0-4.128-1.744-4.128-4.32 0-2.4 1.68-4.32 3.968-4.32 2.448 0 3.856 1.952 3.856 4.384 0 .112 0 .24-.016.432h-6.56Zm0-.992h5.328c-.144-1.504-1.008-2.784-2.64-2.784-1.424 0-2.512 1.184-2.688 2.784Zm9.468.992c.176 1.744 1.456 2.752 2.912 2.752 1.136 0 1.936-.464 2.608-1.168l.768.688c-.832.928-1.84 1.552-3.408 1.552-2.272 0-4.128-1.744-4.128-4.32 0-2.4 1.68-4.32 3.968-4.32 2.448 0 3.856 1.952 3.856 4.384 0 .112 0 .24-.016.432h-6.56Zm0-.992h5.328c-.144-1.504-1.008-2.784-2.64-2.784-1.424 0-2.512 1.184-2.688 2.784Zm11.501 4.768c-1.328 0-2.336-.656-2.336-2.336v-4.992h-1.152v-1.088h1.152v-2.496h1.232v2.496h2.624v1.088h-2.624v4.832c0 1.008.56 1.376 1.392 1.376.416 0 .768-.08 1.2-.288v1.056a3.099 3.099 0 0 1-1.488.352Zm6.437.016c-1.184 0-2.496-.464-3.424-1.216l.624-.88c.896.672 1.888 1.056 2.864 1.056.992 0 1.712-.512 1.712-1.312v-.032c0-.832-.976-1.152-2.064-1.456-1.296-.368-2.736-.816-2.736-2.336v-.032c0-1.424 1.184-2.368 2.816-2.368 1.008 0 2.128.352 2.976.912l-.56.928c-.768-.496-1.648-.8-2.448-.8-.976 0-1.6.512-1.6 1.2v.032c0 .784 1.024 1.088 2.128 1.424 1.28.384 2.656.88 2.656 2.368v.032c0 1.568-1.296 2.48-2.944 2.48Z"/>
  <rect width="28.372" height="28.372" x="196.692" y="260.678" stroke="url(#p)" stroke-width="1.628" rx="3.186"/>
  <path fill="#fff" d="M0 0h18.91v18.91H0z" style="mix-blend-mode:multiply" transform="translate(201.423 265.409)"/>
  <path fill="url(#q)" d="M211.469 277.227h-1.182v2.364h1.182v-2.364Z"/>
  <path fill="url(#r)" d="M214.424 276.046h-1.182v3.545h1.182v-3.545Z"/>
  <path fill="url(#s)" d="M208.514 273.682h-1.182v5.909h1.182v-5.909Z"/>
  <path fill="url(#t)" d="M216.196 268.363h-1.772v-.591a1.18 1.18 0 0 0-1.182-1.181h-4.728a1.18 1.18 0 0 0-1.182 1.181v.591h-1.772a1.18 1.18 0 0 0-1.182 1.182v12.41a1.182 1.182 0 0 0 1.182 1.182h10.636a1.185 1.185 0 0 0 1.182-1.182v-12.41a1.182 1.182 0 0 0-1.182-1.182Zm-7.682-.591h4.728v2.364h-4.728v-2.364Zm7.682 14.183H205.56v-12.41h1.772v1.773h7.092v-1.773h1.772v12.41Z"/>
  <path stroke="#71717A" stroke-dasharray="4 4" d="M179.687 279.361h-35.213c-16.568 0-30-13.432-30-30v-27.774c0-16.569-13.431-30-30-30H28.687m151.001-75.128h-35.214c-16.568 0-30 13.432-30 30v15.128c0 16.568-13.431 30-30 30H28.687"/>
  <path stroke="#71717A" stroke-dasharray="4 4" d="M179.687 354.167h-34.999c-16.569 0-30-13.431-30-30V250.29m65-218.32h-35c-16.569 0-30 13.432-30 30v71.611M.5 191.586h179.188"/>
  <defs>
    <linearGradient id="a" x1="210.879" x2="210.879" y1="340.862" y2="370.862" gradientUnits="userSpaceOnUse">
      <stop stop-color="#702EDC"/>
      <stop offset="1" stop-color="#702EDC" stop-opacity=".18"/>
    </linearGradient>
    <linearGradient id="b" x1="210.683" x2="210.683" y1="347.552" y2="363.552" gradientUnits="userSpaceOnUse">
      <stop stop-color="#702EDC"/>
      <stop offset="1" stop-color="#fff"/>
    </linearGradient>
    <linearGradient id="c" x1="210.879" x2="210.879" y1="97.861" y2="127.861" gradientUnits="userSpaceOnUse">
      <stop stop-color="#4CCE94"/>
      <stop offset="1" stop-color="#4CCE94" stop-opacity=".18"/>
    </linearGradient>
    <linearGradient id="d" x1="210.666" x2="210.666" y1="104.588" y2="121.134" gradientUnits="userSpaceOnUse">
      <stop stop-color="#4CCE94"/>
      <stop offset="1" stop-color="#fff"/>
    </linearGradient>
    <linearGradient id="e" x1="210.666" x2="210.666" y1="104.588" y2="121.134" gradientUnits="userSpaceOnUse">
      <stop stop-color="#4CCE94"/>
      <stop offset="1" stop-color="#fff"/>
    </linearGradient>
    <linearGradient id="f" x1="210.666" x2="210.666" y1="104.588" y2="121.134" gradientUnits="userSpaceOnUse">
      <stop stop-color="#4CCE94"/>
      <stop offset="1" stop-color="#fff"/>
    </linearGradient>
    <linearGradient id="g" x1="210.666" x2="210.666" y1="104.588" y2="121.134" gradientUnits="userSpaceOnUse">
      <stop stop-color="#4CCE94"/>
      <stop offset="1" stop-color="#fff"/>
    </linearGradient>
    <linearGradient id="h" x1="210.878" x2="210.878" y1="16.861" y2="46.861" gradientUnits="userSpaceOnUse">
      <stop stop-color="#5CB7F2"/>
      <stop offset="1" stop-color="#5CB7F2" stop-opacity=".18"/>
    </linearGradient>
    <linearGradient id="j" x1="216.258" x2="216.258" y1="34.773" y2="37.727" gradientUnits="userSpaceOnUse">
      <stop stop-color="#5CB7F2"/>
      <stop offset="1" stop-color="#fff"/>
    </linearGradient>
    <linearGradient id="k" x1="213.894" x2="213.894" y1="31.818" y2="37.727" gradientUnits="userSpaceOnUse">
      <stop stop-color="#5CB7F2"/>
      <stop offset="1" stop-color="#fff"/>
    </linearGradient>
    <linearGradient id="l" x1="208.228" x2="208.228" y1="31.818" y2="37.727" gradientUnits="userSpaceOnUse">
      <stop stop-color="#5CB7F2"/>
      <stop offset="1" stop-color="#fff"/>
    </linearGradient>
    <linearGradient id="m" x1="211.731" x2="211.731" y1="23.545" y2="40.091" gradientUnits="userSpaceOnUse">
      <stop stop-color="#5CB7F2"/>
      <stop offset="1" stop-color="#fff"/>
    </linearGradient>
    <linearGradient id="n" x1="210.878" x2="210.878" y1="178.859" y2="208.859" gradientUnits="userSpaceOnUse">
      <stop stop-color="#9385FF"/>
      <stop offset="1" stop-color="#9385FF" stop-opacity=".18"/>
    </linearGradient>
    <linearGradient id="o" x1="210.878" x2="210.878" y1="185.291" y2="202.428" gradientUnits="userSpaceOnUse">
      <stop stop-color="#9385FF"/>
      <stop offset="1" stop-color="#fff"/>
    </linearGradient>
    <linearGradient id="p" x1="210.878" x2="210.878" y1="259.864" y2="289.864" gradientUnits="userSpaceOnUse">
      <stop stop-color="#0F52DE"/>
      <stop offset="1" stop-color="#0F52DE" stop-opacity=".18"/>
    </linearGradient>
    <linearGradient id="q" x1="210.878" x2="210.878" y1="266.591" y2="283.137" gradientUnits="userSpaceOnUse">
      <stop stop-color="#0F52DE"/>
      <stop offset="1" stop-color="#fff"/>
    </linearGradient>
    <linearGradient id="r" x1="210.878" x2="210.878" y1="266.591" y2="283.137" gradientUnits="userSpaceOnUse">
      <stop stop-color="#0F52DE"/>
      <stop offset="1" stop-color="#fff"/>
    </linearGradient>
    <linearGradient id="s" x1="210.878" x2="210.878" y1="266.591" y2="283.137" gradientUnits="userSpaceOnUse">
      <stop stop-color="#0F52DE"/>
      <stop offset="1" stop-color="#fff"/>
    </linearGradient>
    <linearGradient id="t" x1="210.878" x2="210.878" y1="266.591" y2="283.137" gradientUnits="userSpaceOnUse">
      <stop stop-color="#0F52DE"/>
      <stop offset="1" stop-color="#fff"/>
    </linearGradient>
    <clipPath id="i">
      <path fill="#fff" d="M201.423 22.363h18.91v18.91h-18.91z"/>
    </clipPath>
  </defs>
</svg>