<svg xmlns="http://www.w3.org/2000/svg" fill="none" viewBox="0 0 142 38">
  <g fill="#fff" clip-path="url(#a)">
    <path d="M.665 13.638c.052-.336.092-.676.161-1.01.515-2.496 2.43-4.009 5.223-4.253 2.603-.227 5.16.12 7.725.433.322.04.459.172.453.537-.026 1.412-.078 1.41-1.486 1.262-2.203-.231-4.409-.567-6.634-.227-2.838.434-4.232 3.355-2.789 5.848.316.546.815.855 1.373 1.09 1.229.521 2.52.824 3.826 1.083 1.01.201 2.002.474 2.973.83 1.873.686 3.011 1.923 3.184 3.966.15 1.79.02 3.537-.934 5.1-1.097 1.796-2.913 2.385-4.87 2.515-2.453.16-4.892-.112-7.32-.476-.61-.09-.695-.373-.626-.876.146-1.07.135-1.032 1.233-.931 1.89.172 3.785.341 5.68.416 2.221.088 3.818-.865 4.428-2.567.439-1.22.412-2.463.01-3.696-.274-.84-.94-1.262-1.699-1.585-1.234-.523-2.562-.679-3.856-.968-1.094-.245-2.19-.47-3.213-.969C1.81 18.334.87 17.022.756 15.133c-.008-.133-.058-.266-.09-.398v-1.098l-.001.001ZM76.23.048c.48.29.672.733.674 1.27.005.961.006 1.923-.007 2.883a2.019 2.019 0 0 1-.108.605c-.157.47-.506.722-.996.662-.455-.053-.786-.352-.797-.815-.03-1.257-.018-2.516-.005-3.774.004-.379.293-.603.55-.832h.69v.001Zm17.309 23.898c-1.398 0-2.797.013-4.195-.007-.49-.006-.688.152-.703.666-.06 1.99.689 2.804 2.709 2.853a43.173 43.173 0 0 0 5.486-.224c.457-.047.625.085.54.574-.452 2.566.185 2.023-2.497 2.483-1.377.237-2.773.314-4.166.384a7.7 7.7 0 0 1-3.102-.47c-1.791-.67-2.476-2.121-2.578-3.863-.165-2.828.313-5.57 1.617-8.105 1.386-2.695 3.625-4.097 6.702-4.096.94 0 1.872-.007 2.79.274 1.76.539 2.889 1.89 3.113 3.712.229 1.861-.195 3.626-.696 5.388-.115.408-.422.431-.754.431H93.54v.003l-.001-.003Zm-1.174-2.91v.003h1.716c1.649 0 1.731-.09 1.651-1.785-.056-1.186-.547-1.834-1.723-2.04-2.871-.502-4.235 1.008-4.759 3.317-.1.435.165.508.507.507h2.608v-.001Zm16.57-6.865c.619 0 1.247-.069 1.855.013 2.344.311 3.668 1.452 3.245 4.553-.351 2.577-.855 5.134-1.317 7.693-.114.637.049 1.093.658 1.322.37.139.406.377.333.7-.061.267-.109.537-.168.804-.325 1.454-.327 1.465-1.801 1.29-.733-.088-1.466-.258-2.061-.703-.422-.315-.763-.25-1.2-.087-1.688.624-3.422.955-5.241.828-2.769-.191-3.484-2.08-3.344-4.092.025-.363.089-.726.163-1.082.555-2.7 2.072-4.125 4.91-4.515 1.495-.206 3.002-.321 4.508-.42.509-.032.743-.21.835-.692.345-1.794.172-2.638-2.116-2.56-1.534.052-3.063.13-4.592.255-1.007.083-1.155.14-.989-.904.312-1.974-.16-1.58 1.821-1.992 1.478-.307 2.98-.51 4.502-.41h-.001Zm-3.393 13.453c1.017 0 2.002-.199 2.974-.47.265-.075.513-.162.569-.509.164-1.014.352-2.022.535-3.033.077-.429-.065-.56-.517-.509-.862.1-1.734.121-2.601.196-1.894.161-2.689.92-2.903 2.746-.114.978.354 1.539 1.324 1.577.205.008.412 0 .619 0v.002Zm32.766 2.67h-.825c-.98-.002-.981-.014-.821-.95.528-3.082 1.175-6.143 1.559-9.248.073-.587-.015-1.141-.159-1.69-.167-.636-.682-.924-1.278-.991-1.344-.153-2.647.056-3.898.581-.29.121-.403.328-.455.624-.641 3.62-1.301 7.235-1.929 10.855-.103.597-.321.883-.973.832a14.495 14.495 0 0 0-2.062-.002c-.626.04-.729-.211-.627-.766.442-2.403.856-4.81 1.28-7.216.405-2.292.813-4.585 1.218-6.879.118-.673.524-1.01 1.218-1.012.596 0 1.193-.01 1.788.004.346.008.778-.106.685.536-.048.336.229.18.38.124.429-.163.847-.349 1.276-.507 1.412-.522 2.875-.61 4.333-.332 1.981.377 2.809 1.51 2.903 3.73.077 1.82-.28 3.593-.587 5.368-.339 1.957-.7 3.91-1.047 5.865-.192 1.074-.188 1.075-1.29 1.075h-.687l-.002-.001Zm-61.817 0c-1.79 0-3.58-.014-5.368.008-.588.007-.742-.165-.635-.769 1.19-6.654 2.362-13.313 3.513-19.976.12-.69.386-.987 1.116-.913.635.065 1.283.011 1.926.014.8.004.85.05.72.81-.32 1.846-.653 3.688-.981 5.533-.668 3.755-1.327 7.511-2.013 11.264-.119.648.074.812.719.8 2.294-.037 4.588-.016 6.882-.012.792.002.815.04.679.828-.098.562-.236 1.122-.283 1.69-.05.603-.354.742-.907.734-1.79-.027-3.578-.01-5.368-.01v-.001Zm-60.008-4.067V15.873c0-1.043.002-1.049 1.005-1.043.523.003 1.134-.176 1.148.723.006.33.327.112.482.032a9.943 9.943 0 0 1 3.803-1.091c2.707-.228 4.761.806 5.6 3.462.612 1.936.752 3.932.579 5.956-.068.774-.117 1.546-.29 2.306-.694 3.035-2.53 4.592-5.64 4.742-1.283.062-2.567.035-3.829-.233-.544-.115-.777-.023-.763.614.041 1.826-.014 3.656.028 5.484.016.706-.233.972-.914.877-.09-.013-.183 0-.274-.002-.906-.004-.931-.022-.931-.916-.003-3.52 0-7.039 0-10.559l-.004.002Zm2.088-3.043v4.936c.011.32-.016.647.438.72 1.337.213 2.681.38 4.03.246 1.946-.191 3.019-1.138 3.531-3.021.495-1.815.414-3.66.266-5.507a6.92 6.92 0 0 0-.472-2.061c-.567-1.393-1.568-2.057-3.063-2.105-1.49-.048-2.827.45-4.152 1.041-.443.197-.594.483-.587.957.023 1.598.008 3.197.008 4.795h.001Zm24.363.066c0 1.599-.003 2.902 0 4.205.004 1.063.244 1.373 1.258 1.652.63.174.975 1.086.62 1.647-.169.264-.441.224-.682.194-.96-.124-1.918-.285-2.672-.962-.29-.26-.529-.146-.813-.037-1.769.683-3.593 1.058-5.5 1.03-2.575-.037-4.2-1.635-4.239-4.217-.008-.547-.034-1.105.053-1.642.336-2.102 1.66-3.248 4.105-3.55a130.4 130.4 0 0 1 5.118-.533c.521-.043.668-.241.646-.721-.033-.729.04-1.462-.173-2.178-.312-1.045-1.12-1.685-2.222-1.721-1.86-.06-3.704.13-5.547.351-.327.04-.747.226-.948-.126-.21-.371-.245-.831-.151-1.27.053-.251.293-.272.489-.306 2.322-.413 4.652-.789 7.022-.49 2.038.257 3.313 1.644 3.527 3.694.183 1.758.05 3.517.104 4.98h.005Zm-2.111 2.17v-2.328c0-.286-.07-.5-.428-.46-1.703.186-3.412.325-5.106.565-1.38.195-2.123 1.017-2.227 2.303a7.72 7.72 0 0 0 .003 1.3c.12 1.351.83 2.215 1.923 2.31 1.859.16 3.638-.227 5.382-.834.328-.114.465-.315.459-.665-.017-.73-.006-1.46-.006-2.19Zm15.713-6.18V8.743c0-.9.018-.91.928-.915.184 0 .368.014.55 0 .48-.04.65.18.64.645-.017 1.098-.003 2.196-.003 3.293 0 2.904.016 5.81-.013 8.714-.006.628.193.767.813.835 1.247.135 2.02-.324 2.703-1.359 1.045-1.582 2.254-3.055 3.39-4.578.413-.552 1.877-.931 2.478-.603.38.208.068.432-.056.602-.842 1.142-1.7 2.273-2.553 3.407-.688.915-1.361 1.84-2.071 2.739-.29.368-.285.653-.026 1.037 1.631 2.434 3.244 4.879 4.855 7.326.128.194.41.387.235.654-.137.211-.424.1-.643.137-1.084.183-1.76-.255-2.335-1.202-1.203-1.971-2.543-3.859-3.805-5.795-.27-.413-.578-.571-1.072-.558-1.896.052-1.898.036-1.898 1.939 0 1.6-.027 3.202.013 4.803.017.651-.241.872-.846.813-.113-.011-.229 0-.344-.002-.884-.008-.939-.055-.94-.934-.003-3.5 0-6.999 0-10.497v-.004Zm60.981 11.054h-.412c-1.726-.005-1.47.104-1.193-1.491.784-4.52 1.608-9.03 2.383-13.55.108-.623.348-.87.979-.83.684.042 1.376.04 2.061 0 .58-.034.719.203.633.73-.048.294-.319.684-.018.877.228.146.52-.203.78-.33a18.843 18.843 0 0 1 4.131-1.473c.445-.103.596.008.504.475a76.44 76.44 0 0 0-.448 2.562c-.058.354-.27.478-.6.546a27.4 27.4 0 0 0-4.478 1.305c-.429.168-.649.388-.73.868-.511 3.014-1.065 6.022-1.594 9.032-.268 1.515-.095 1.247-1.516 1.28-.16.004-.321 0-.481 0l-.001-.002ZM46.764 22.71c0-2.31-.002-4.62 0-6.93 0-1.04.02-1.056 1.092-1.055.138 0 .276.007.414.003.44-.015.593.205.608.631.017.464-.235 1.142.142 1.34.353.182.812-.382 1.236-.595 1.17-.582 2.342-1.151 3.625-1.456.868-.207.912-.182.918.674 0 .183-.018.368.002.548.061.514-.191.726-.672.84-1.546.367-2.988 1.015-4.427 1.675-.61.28-.86.666-.851 1.376.041 3.338.005 6.676.029 10.016.004.646-.126.964-.867.931-1.175-.052-1.248-.055-1.25-.93-.005-2.355 0-4.71 0-7.066v-.003Zm35.41-19.917c.754.014 1.281.757.9 1.302-.773 1.103-1.768 2.024-2.827 2.856-.332.26-.753.154-1.064-.157-.309-.308-.424-.711-.167-1.058.792-1.065 1.77-1.958 2.78-2.817.11-.093.295-.1.378-.126ZM69.456 9.247c.48 0 .962-.024 1.44.007.53.035.945.257.945.864 0 .558-.362.847-.872.864-1.003.033-2.01.034-3.013-.008-.522-.022-.95-.295-.922-.893.026-.587.445-.814.984-.834.48-.018.96-.004 1.44-.004v.004h-.002Zm12.947.006c.504 0 1.011-.032 1.513.01.507.04.869.296.872.868.002.54-.335.8-.816.841a16.91 16.91 0 0 1-3.158-.006c-.49-.05-.83-.346-.83-.85 0-.552.41-.807.907-.85.5-.042 1.008-.009 1.513-.009v-.004h-.001Zm-9.987-1.771c-.272.005-.483-.124-.666-.305-.63-.629-1.266-1.254-1.891-1.89-.393-.4-.57-.85-.14-1.329.331-.366.866-.301 1.324.148.67.655 1.331 1.318 1.986 1.99.26.266.344.589.17.941-.158.324-.432.455-.783.444v.001Z"/>
  </g>
  <defs>
    <clipPath id="a">
      <path fill="#fff" d="M.665.036H141.93v37.697H.665z"/>
    </clipPath>
  </defs>
</svg>