<svg xmlns="http://www.w3.org/2000/svg" fill="none" viewBox="0 0 293 23">
  <g fill="#fff" clip-path="url(#a)">
    <path d="M257.644 22.294c-3.292 0-6.579-.015-9.871.01-.612 0-1.01-.173-1.373-.684-2.016-2.853-4.078-5.68-6.109-8.523-.219-.306-.439-.46-.827-.465-2.087-.04-2.103-.05-2.082 2.016.02 1.756-.133 3.517.082 5.268.158 1.29.423 1.51 1.704 1.73.271.046.546.046.822.066.194.015.403.036.393.301-.01.266-.225.276-.419.281-.464.01-.934.005-1.398.01h-5.987c-.168 0-.342 0-.51-.01-.179-.01-.347-.056-.342-.286.005-.22.163-.286.342-.29.444-.011.888-.026 1.322-.144.714-.194 1.122-.633 1.225-1.368a9.98 9.98 0 0 0 .112-1.454V4.778c0-.296 0-.592-.046-.888-.199-1.373-.72-1.823-2.128-1.93-.291-.02-.822.22-.807-.3.01-.49.536-.276.832-.282 2.547-.02 5.094-.01 7.641-.01 1.255 0 2.506.097 3.72.403 2.904.73 4.686 3.512 3.991 6.196-.459 1.782-1.725 2.813-3.327 3.512-.485.214-.995.362-1.496.536-.291.102-.459.235-.209.546 1.894 2.343 3.45 4.935 5.425 7.212.832.96 1.884 1.51 3.134 1.811.98.235 1.909.154 2.858-.035.679-.133 1.067-.556 1.2-1.235a6.08 6.08 0 0 0 .107-1.133c0-4.829 0-9.657-.005-14.485 0-.419-.056-.842-.112-1.26-.102-.746-.557-1.226-1.307-1.353-.419-.072-.842-.087-1.266-.128-.183-.02-.337-.076-.321-.301.015-.184.138-.255.301-.265a6.45 6.45 0 0 1 .444-.016h7.13c.148 0 .296 0 .444.016.179.015.342.066.332.296-.01.224-.179.255-.358.275-.316.036-.632.067-.949.107-1.143.154-1.679.74-1.694 1.91-.016 1.352-.005 2.71-.005 4.067v10.861c0 .296.01.597.061.883.199 1.02.602 1.398 1.643 1.393 1.695 0 3.394.107 5.089-.097 1.276-.153 2.291-.724 3.011-1.791.464-.684.868-1.404 1.164-2.184.081-.22.183-.496.464-.424.337.087.179.398.123.592-.414 1.531-.858 3.057-1.266 4.588-.123.46-.454.429-.796.429h-10.126.02ZM237.377 7.253v3.685c0 .275-.036.571.383.587 1.648.056 3.276-.066 4.782-.817 1.74-.867 2.521-2.485 2.266-4.557-.204-1.644-1.511-3.022-3.21-3.481-1.236-.332-2.435-.148-3.65.086-.428.082-.592.296-.581.74.025 1.251.01 2.501.01 3.747v.01Zm-37.089 9.957c.521-1.939 1.011-3.771 1.511-5.609.719-2.654 1.419-5.313 2.184-7.956.22-.75-.301-1.394-1.01-1.542-.271-.056-.546-.092-.817-.133-.224-.035-.454-.086-.418-.367.03-.255.27-.23.454-.235 1.25-.005 2.506 0 3.756 0 .531 0 1.062 0 1.593.005.199 0 .464-.025.484.281.016.25-.199.316-.387.337-1.19.107-1.741.934-2.17 1.904-.576 1.306-.903 2.684-1.27 4.052-1.266 4.68-2.537 9.355-3.818 14.03-.087.312-.087.75-.521.787-.485.035-.597-.424-.724-.766-1.261-3.348-2.501-6.707-3.752-10.06-.275-.735-.541-1.47-.821-2.2-.072-.188-.062-.5-.296-.515-.251-.015-.251.306-.317.485-.602 1.674-1.194 3.353-1.786 5.027-.853 2.414-1.7 4.834-2.562 7.248-.108.3-.133.76-.562.745-.393-.016-.464-.455-.571-.76-1.098-3.073-2.175-6.146-3.272-9.218-1.051-2.95-2.123-5.9-3.164-8.855-.368-1.036-.955-1.787-2.124-1.92-.234-.025-.515-.086-.479-.387.03-.286.326-.215.52-.215h6.37c.194 0 .495-.081.52.21.031.306-.265.326-.5.367a5.06 5.06 0 0 0-.561.112c-.878.25-1.128.664-.97 1.552.245 1.342.796 2.588 1.24 3.869 1.036 2.98 2.093 5.95 3.139 8.926.133.378.255.756.531 1.133.255-.3.296-.663.408-.98 1.087-3.052 2.159-6.109 3.236-9.166.072-.204.158-.403.077-.618-.449-1.117-.761-2.291-1.337-3.358-.445-.827-1.103-1.322-2.032-1.465-.235-.036-.536-.056-.515-.352.02-.332.352-.24.561-.24 2.271-.005 4.543 0 6.814 0 .127 0 .255.005.383.026.132.02.245.086.255.234.01.179-.092.276-.261.302-.188.025-.382.025-.571.056-1.174.194-1.562.73-1.363 1.903.158.945.459 1.848.791 2.741 1.189 3.195 2.384 6.39 3.573 9.58.117.317.235.633.546 1l.005.006Zm76.214 5.084h-4.644c-.169 0-.342 0-.511-.01-.199-.01-.398-.046-.383-.311.016-.225.184-.266.363-.266a5.29 5.29 0 0 0 1.199-.127c.847-.2 1.184-.552 1.337-1.399.077-.439.113-.878.113-1.327V6.217c0-.868-.011-1.73-.113-2.598-.107-.898-.515-1.383-1.408-1.541-.352-.061-.715-.087-1.072-.123-.189-.02-.408-.01-.424-.275-.015-.312.235-.301.444-.312.128-.01.255-.005.383-.005 2.843 0 5.686-.025 8.529.01 1.801.026 3.598.194 5.348.674 3.206.883 5.211 3.022 6.191 6.1.756 2.367.761 4.802-.035 7.18-1.225 3.67-3.864 5.763-7.59 6.57-1.306.28-2.638.407-3.976.397-1.25-.01-2.501 0-3.756 0h.005Zm.112-10.447c0 2.73.021 5.46-.015 8.186-.005.607.23.817.776.898 1.49.23 2.986.393 4.491.133 3.001-.515 5.252-2.057 6.528-4.869.883-1.944 1.031-3.991.76-6.089-.418-3.246-2.113-5.568-5.119-6.89-2.245-.99-4.578-.878-6.926-.413-.459.091-.5.352-.495.724.005 2.772 0 5.543 0 8.314v.006Zm-246.382-.822c1.506 0 3.016-.02 4.522.01.562.01.786-.123.776-.735-.036-1.97-.005-3.94-.016-5.91-.01-1.715-.581-2.312-2.301-2.425-.148-.01-.296-.005-.444-.025-.169-.02-.27-.107-.27-.291 0-.189.127-.255.285-.27.128-.01.255-.016.383-.016h7.451c.215.03.526-.066.541.28.016.358-.29.287-.51.312-.296.036-.592.041-.883.097-1.138.225-1.587.756-1.608 1.924-.02.996-.005 1.99-.005 2.986v12.515c.016 1.429.378 1.863 1.802 2.128.23.04.46.061.694.087.22.025.53-.036.505.316-.02.342-.332.27-.546.27-2.526.006-5.053.006-7.579 0-.214 0-.526.062-.52-.295.01-.347.31-.281.53-.291 2.016-.118 2.475-.597 2.475-2.619 0-2.077-.015-4.149.01-6.226.006-.536-.117-.745-.704-.74-3.077.025-6.155.02-9.232 0-.521 0-.7.148-.695.684.026 2.138 0 4.277.016 6.415 0 .398.066.802.132 1.194.113.69.618.986 1.225 1.134.368.086.756.107 1.133.158.225.03.521-.016.5.331-.015.302-.295.256-.495.26-.913.011-1.827.006-2.735.006-1.613 0-3.226 0-4.839-.005-.23 0-.581.092-.561-.312.015-.336.327-.25.546-.28h.061c1.853-.072 2.358-.567 2.384-2.44.025-1.694.005-3.389.005-5.083V4.196c-.026-1.536-.388-1.94-1.904-2.149l-.822-.107c-.163-.02-.285-.087-.29-.27-.01-.225.132-.292.321-.302.148-.01.296-.01.444-.01h7.13c.148 0 .296 0 .444.015.159.01.301.062.312.25.015.22-.128.296-.317.317-.357.036-.72.04-1.072.112-1.112.22-1.592.756-1.607 1.868-.026 2.18 0 4.364-.016 6.543 0 .475.215.562.623.557 1.572-.016 3.139-.005 4.71-.005l.011.01Zm124.584 1.133c.087 2.736-.133 5.318.117 7.89.108 1.108.419 1.338 1.532 1.532.331.056.673.086 1.01.132.179.02.352.062.363.276.015.27-.2.29-.393.301-.21.01-.424.01-.638.01h-6.686c-.189 0-.383 0-.572-.01-.174-.01-.357-.025-.362-.26-.011-.26.178-.317.382-.317a6.54 6.54 0 0 0 1.261-.137c.74-.143 1.143-.587 1.25-1.327a8.76 8.76 0 0 0 .118-1.327c-.005-4.762 0-9.53 0-14.291v-.255c-.021-1.705-.393-2.185-2.317-2.41-.148-.015-.296-.01-.444-.03-.169-.026-.266-.128-.25-.306.01-.148.107-.23.245-.245.148-.016.296-.02.444-.02h7.512c.205.02.47-.01.45.306-.021.3-.276.26-.48.28-.276.03-.551.041-.822.092-1.138.204-1.603.72-1.694 1.873-.016.19-.011.383-.011.572v7.13c.516-.47.95-.847 1.363-1.245 2.057-1.955 4.201-3.828 6.069-5.972a4.76 4.76 0 0 0 .316-.398c.822-1.153.536-1.842-.842-2.036-.245-.036-.587.01-.546-.358.035-.311.357-.24.576-.24 2.124-.005 4.247-.005 6.37 0 .209 0 .531-.102.551.25.021.317-.27.332-.5.368-1.577.225-2.878 1.005-3.996 2.082-2.231 2.15-4.415 4.334-6.635 6.492-.296.286-.317.485 0 .771 2.868 2.67 5.696 5.39 8.605 8.018 1.245 1.123 2.669 2.026 4.399 2.292.235.036.577.071.516.429-.051.321-.373.22-.582.22-2.822.01-5.645.004-8.467 0-.174 0-.439.096-.49-.149-.041-.21.199-.306.372-.378.215-.091.444-.148.664-.224.755-.27.929-.76.505-1.43a4.712 4.712 0 0 0-.867-1.01c-2.425-2.128-4.64-4.47-7.028-6.63-.077-.071-.159-.132-.363-.306l-.005-.005Zm54.454-.342c-.194-5.477 3.833-9.554 7.855-10.57 5.262-1.332 10.207 1.123 12.305 6.242 1.741 4.241.858 9.61-3.077 12.882-5.885 4.89-14.694 2.098-16.67-5.277-.296-1.108-.49-2.23-.413-3.272v-.005Zm17.843-.24c.01-.776-.102-2.144-.398-3.491-.689-3.139-2.583-5.747-6.033-6.058-3.072-.281-5.272.653-6.905 3.373-.893 1.486-1.21 3.15-1.317 4.854-.163 2.69.025 5.308 1.306 7.778 1.389 2.68 3.573 3.89 6.538 3.66 2.854-.225 4.875-1.69 5.977-4.343.684-1.65.822-3.4.837-5.768l-.005-.005ZM50.602 1.363h7.575c.857 0 .862 0 .862.888 0 1.057.005 2.119-.005 3.175 0 .204.102.52-.255.546-.296.02-.358-.255-.434-.47-.056-.158-.087-.326-.133-.49-.485-1.76-1.352-2.495-3.17-2.53-2.224-.042-4.455-.006-6.685-.016-.373 0-.536.122-.536.515.01 2.522.01 5.038 0 7.559 0 .352.143.49.495.485 1.909-.01 3.823.03 5.731-.02 1.435-.041 1.93-.588 2.287-2.154.066-.281-.102-.848.378-.807.515.041.265.582.27.888a247.92 247.92 0 0 1 0 5.589c0 .22.133.577-.26.602-.347.026-.383-.326-.398-.55-.169-2.017-1.143-2.45-3.144-2.446-1.572 0-3.139.02-4.711-.01-.5-.01-.663.158-.658.653.02 2.307 0 4.614.01 6.926 0 1.082.388 1.5 1.444 1.485 2.057-.025 4.114.118 6.17-.086 1.282-.128 2.287-.756 3.068-1.74.46-.577.847-1.215 1.266-1.823.133-.189.265-.464.536-.326.28.148.092.413.015.617-.485 1.286-.985 2.567-1.46 3.859-.158.439-.408.622-.893.622-5.053-.015-10.1-.01-15.153-.01-.107 0-.214 0-.316-.01-.184-.015-.337-.072-.327-.296.01-.23.173-.276.352-.276.45 0 .888-.046 1.317-.173.954-.28 1.322-.725 1.342-1.74.02-.93.005-1.863.005-2.797V4.742c0-.424-.02-.842-.092-1.266-.148-.918-.495-1.28-1.429-1.413-.316-.046-.633-.072-.949-.103-.225-.02-.53.036-.536-.296-.005-.408.352-.29.577-.296 1.398-.01 2.802-.005 4.2-.005h3.644Zm32.894 3.119c0 .974.01 1.95-.005 2.919 0 .22.127.577-.26.597-.328.015-.368-.316-.414-.556-.128-.69-.286-1.368-.526-2.021-.919-2.48-3.522-3.946-5.936-3.302-1.25.331-2.128 1.092-2.455 2.403-.316 1.276.21 2.241 1.128 3.037 1.389 1.2 3.022 2.037 4.614 2.92.893.495 1.776 1.005 2.598 1.602 1.97 1.44 3.144 3.292 2.634 5.824-.51 2.526-2.205 3.97-4.624 4.634-1.572.429-3.155.342-4.711-.087a38.498 38.498 0 0 0-2.404-.602c-.567-.117-.996-.051-1.271.515-.097.2-.24.465-.52.358-.246-.092-.154-.368-.154-.567-.005-1.97-.01-3.94 0-5.905 0-.225-.122-.572.266-.607.382-.036.408.306.454.571.214 1.297.643 2.491 1.52 3.507 1.66 1.924 5.35 2.608 7.29 1.332 1.535-1.01 2.046-2.685 1.372-4.395-.485-1.224-1.358-2.077-2.47-2.725-1.797-1.041-3.614-2.057-5.39-3.129-1.24-.745-2.266-1.715-2.792-3.113-.658-1.76.03-4.093 1.593-5.323C74.962.853 77.126.53 79.463 1.185c.674.188 1.333.418 2.006.622.567.174 1.047.107 1.322-.505.092-.21.215-.465.505-.398.322.076.205.378.21.592.015.995.005 1.99.005 2.986h-.015Zm32.312 10.698c-1.25 0-2.506.014-3.756-.006-.419-.005-.674.128-.842.516-.546 1.265-1.144 2.506-1.572 3.817-.414 1.271-.097 1.792 1.225 2.072.122.026.255.031.372.077.25.097.715-.015.664.413-.046.373-.449.225-.694.225-1.399.015-2.802.005-4.201.005h-1.337c-.158 0-.388.051-.419-.179-.025-.199.102-.357.296-.449.021-.01.036-.025.057-.025 1.495-.164 2.031-1.332 2.541-2.48 1.97-4.451 3.915-8.917 5.87-13.378.627-1.434 1.25-2.873 1.883-4.308.107-.244.163-.571.505-.586.363-.016.398.331.506.571 2.562 5.86 5.119 11.719 7.681 17.578.127.29.275.571.423.852.485.929 1.164 1.608 2.256 1.771.235.036.582.067.511.424-.061.306-.378.21-.592.21-2.231.004-4.456.004-6.686 0-.174 0-.439.086-.485-.164-.041-.23.158-.368.388-.429.265-.066.536-.133.801-.204.781-.22 1.062-.684.873-1.485-.245-1.036-.817-1.965-1.077-2.976-.414-1.592-1.332-2.103-2.894-1.873-.745.112-1.526.02-2.292.02l-.005-.01Zm-.025-1.108c1.082 0 2.159-.01 3.241 0 .439 0 .643-.067.418-.572-1.118-2.531-2.21-5.078-3.317-7.615-.067-.158-.056-.434-.312-.413-.224.015-.25.27-.321.434-1.113 2.536-2.215 5.078-3.333 7.61-.194.438-.061.566.383.56 1.082-.01 2.159 0 3.241 0v-.004Zm12.959-1.991c.199-4.46 1.837-8.09 6.038-10.187 2.455-1.225 5.012-1.281 7.62-.561.449.122.903.245 1.337.413.653.25 1.189.168 1.623-.424.148-.199.337-.454.613-.388.316.077.229.43.25.654.127 1.368.229 2.74.311 4.108.036.613.036 1.225.123 1.838.025.183.112.46-.2.515-.26.051-.377-.153-.459-.352-.138-.332-.26-.674-.398-1.005-.418-1-.903-1.976-1.654-2.767-3.179-3.363-8.962-2.322-10.906 1.955-1.093 2.399-1.256 4.93-1.083 7.518.097 1.434.445 2.802 1.118 4.073 1.409 2.659 4.435 4.052 7.508 3.7 2.292-.26 3.91-1.495 5.313-3.16.23-.275.439-.576.745-.775.107-.071.24-.128.352-.03.123.107.051.234-.01.347-1.572 2.735-3.675 4.675-6.982 5.144-5.594.796-10.162-2.945-11.116-8.646a11.513 11.513 0 0 1-.153-1.97h.01Zm-118.108-.816v8.191c.066 1.603.607 2.15 2.204 2.241.169.01.342.01.51.026.164.015.282.091.282.28 0 .19-.123.255-.286.276-.128.015-.255.02-.383.02H5.642c-.107 0-.214 0-.316-.01-.179-.015-.347-.046-.342-.28 0-.22.158-.292.342-.292.51 0 1.01-.071 1.505-.204.633-.173.965-.582 1.047-1.21.05-.418.112-.841.112-1.26.01-5.252-.005-10.499.02-15.75 0-.633-.158-.873-.816-.822-.95.076-1.904-.036-2.859.066-1.48.153-2.255 1.036-2.602 2.399-.067.265-.113.541-.18.806-.045.184-.162.291-.367.281-.209-.015-.3-.148-.3-.337-.01-1.332-.01-2.644-.01-3.955 0-.23.127-.347.356-.352.169 0 .337-.01.51-.01h15.154c.873 0 .873 0 .878.872 0 1.082 0 2.16-.005 3.241 0 .22.056.505-.301.526-.312.02-.378-.204-.424-.45-.051-.25-.097-.5-.168-.74-.434-1.485-1.552-2.291-3.252-2.337-.786-.02-1.572.026-2.352-.015-.531-.026-.638.204-.638.673.015 2.71.01 5.42.005 8.13l-.005-.004Zm86.622.041v8.068c.035 1.69.622 2.272 2.312 2.323.148 0 .296.005.444.025.138.016.24.092.25.24.01.174-.082.281-.25.306-.128.02-.255.02-.383.026h-7.385c-.087 0-.169 0-.255-.005-.169-.015-.363-.015-.373-.25-.015-.25.163-.327.373-.332.47 0 .928-.05 1.383-.173.673-.18 1.046-.592 1.143-1.281.056-.399.112-.797.112-1.2V3.298c0-.827 0-.843-.847-.827-.954.02-1.909-.067-2.858.081-1.496.235-2.292.985-2.578 2.476-.045.23-.097.454-.168.673-.066.2-.2.327-.434.281-.22-.04-.24-.224-.24-.393V1.777c0-.296.148-.419.434-.414h15.536c.616 0 .924.317.924.95 0 1.056 0 2.118-.005 3.174 0 .2.051.46-.255.5-.307.041-.404-.178-.455-.423-.168-.746-.342-1.475-.883-2.078-.704-.775-1.617-.97-2.587-1.015-.74-.036-1.485.02-2.23-.02-.557-.031-.735.147-.73.714.025 2.71.01 5.42.01 8.13l-.005.01Z"/>
  </g>
  <defs>
    <clipPath id="a">
      <path fill="#fff" d="M.875.863h291.547v21.952H.875z"/>
    </clipPath>
  </defs>
</svg>