<svg xmlns="http://www.w3.org/2000/svg" fill="none" viewBox="0 0 239 22">
  <g fill="#fff" clip-path="url(#a)">
    <path d="M125.945.903c.133-.026.254-.07.373-.068 2.362.023 4.725.006 7.083.097a5.807 5.807 0 0 1 3.584 1.392c2.274 1.918 1.93 5.422-.679 6.84-.24.132-.489.245-.773.387.51.244.981.469 1.45.695-.015.046-.03.09-.043.136h-10.995V.902Zm1.767 7.985c1.9 0 3.706.032 5.511-.02.507-.016 1.032-.22 1.504-.435 1.408-.643 2.056-1.736 1.941-3.163-.097-1.22-.954-2.23-2.351-2.627-2.164-.616-4.376-.254-6.606-.337v6.582h.001Zm-89.431.053v1.447h-11.09V8.632c0-2.384.004-4.767-.005-7.151 0-.399.035-.663.552-.66 3.87.019 7.743.013 11.613.019.071 0 .144.036.257.066V2.28H29.004v6.66h9.277Zm140.692 2.379c-.312.89-.582 1.659-.872 2.481h7.917l-.867-2.479c.514 0 .955-.034 1.385.017.172.02.406.2.468.364 1.16 3.01 2.298 6.03 3.437 9.049.015.039-.015.096-.024.145-.048.013-.095.037-.142.04-1.036.059-1.732-.401-2.088-1.379-.447-1.22-.919-2.434-1.343-3.664-.156-.45-.394-.597-.873-.593-2.587.024-5.177.024-7.765 0-.505-.004-.751.138-.92.634-.49 1.444-1.076 2.856-1.559 4.304-.179.537-.403.804-.993.716-.318-.046-.649-.009-1.054-.009.061-.232.093-.416.158-.587 1.008-2.668 2.06-5.32 3.006-8.01.293-.83.691-1.19 1.55-1.031.143.025.295.003.577.003h.002Zm-62.872 9.564c-1.105.143-1.841-.279-2.209-1.266-.469-1.266-.912-2.544-1.419-3.795-.09-.223-.443-.482-.677-.486-2.688-.034-5.376-.01-8.065-.033-.459-.004-.598.225-.725.581-.504 1.414-1.057 2.811-1.521 4.237-.212.654-.525.957-1.223.835-.266-.047-.548-.008-.94-.008.279-.742.528-1.41.78-2.078a6159.44 6159.44 0 0 1 2.441-6.456c.28-.74.827-1.104 1.643-1.09.126.002.249.012.471.024l-.846 2.452h7.899l-.85-2.476c.518 0 .945-.034 1.361.017.175.02.417.19.477.348 1.152 2.988 2.28 5.983 3.409 8.979.024.063-.003.145-.008.217l.002-.002Zm83.622-10.517V.959c.066-.041.11-.09.15-.09 2.908.062 5.858-.156 8.712.268 3.98.591 5.821 5.1 3.761 8.524-.323.537-.676.889-1.371.781-.439-.066-.897-.012-1.346-.012-.059-.074-.116-.15-.175-.223.136-.051.302-.068.404-.159 1.533-1.332 1.794-3.037 1.245-4.864-.519-1.727-1.879-2.623-3.599-2.74-1.967-.132-3.952-.03-6.036-.03v7.951h-1.745v.002Zm-73.781.99h1.695v7.933c.137.075.201.138.264.138 1.883.002 3.774.101 5.648-.03 2.778-.195 4.313-2.339 3.774-5.19-.181-.957-.602-1.872-.939-2.878.418 0 1.002-.041 1.576.024.181.021.394.299.483.504.766 1.779 1.047 3.626.411 5.488-.712 2.09-2.346 3.2-4.454 3.42-1.989.206-4.008.137-6.013.177-.798.017-1.598.003-2.443.003v-9.59h-.002Zm98.582 9.555v-9.557h1.67v8.114c2.411-.169 4.82.433 7.059-.738 2.497-1.305 3.52-3.508 3.695-6.205.024-.37.056-.74.088-1.156h1.669a9.518 9.518 0 0 1-.791 4.651c-1.313 2.982-3.683 4.602-6.876 4.86-2.143.172-4.311.034-6.514.034v-.003Zm14.27-10.513h-1.717c-.103-.892-.147-1.767-.311-2.618-.64-3.329-3.252-5.467-6.644-5.48-1.274-.005-2.547 0-3.884 0v8.072h-1.726c-.016-.226-.043-.447-.043-.665-.003-2.707.012-5.413-.013-8.12-.006-.573.134-.792.751-.774 1.981.056 3.972-.051 5.944.098 3.941.297 6.911 3.219 7.433 7.164.098.74.136 1.487.21 2.323Zm-39.046.955h10.747l.059.137-1.538.786 5.082 8.665c-.686 0-1.231.05-1.756-.026-.204-.029-.417-.31-.543-.527a677.458 677.458 0 0 1-4.18-7.215c-.24-.421-.509-.595-1.005-.586-1.68.032-3.359.012-5.115.012v8.283h-1.751V11.35v.003Zm-34.612-.954h-1.619c-.118-1.064-.153-2.117-.362-3.132-.497-2.412-1.702-4.314-4.238-4.97-3.678-.951-6.809 1.203-7.49 5.107-.167.957-.207 1.936-.311 2.967h-1.58c-.79-4.099 1.989-8.712 5.781-9.597 4.51-1.052 8.449 1.4 9.499 5.933.157.68.244 1.38.311 2.076.048.516.009 1.04.009 1.618V10.4Zm-15.799.96h1.77c.104 1.026.127 2.03.322 3.003.473 2.364 1.602 4.291 4.053 5.058 3.683 1.152 6.945-.956 7.679-4.93.185-1.003.232-2.033.35-3.11h1.604a11.12 11.12 0 0 1-.518 4.463c-1.162 3.578-4.051 5.573-7.757 5.383-3.503-.18-6.329-2.662-7.07-6.299-.232-1.14-.286-2.317-.433-3.567v-.001Zm-91.195-.038c1.331 0 2.671-.084 3.99.04.563.052 1.147.467 1.614.848 2.412 1.957 2.31 5.718-.184 7.565-1.752 1.298-3.781 1.633-5.865 1.389a12.25 12.25 0 0 1-3.66-1.02c-1.991-.92-2.946-2.629-3.056-4.883h1.69c.717 3.346 3.277 5.003 6.897 4.406.803-.133 1.637-.36 2.34-.753 2.424-1.35 2.44-4.574.022-5.932-1.016-.57-2.166-.905-3.255-1.343-.18-.072-.368-.122-.552-.182.006-.046.012-.091.016-.136l.003.001Zm1.668-.923c-1.571 0-3.172.188-4.708-.047-2.031-.31-3.669-2.87-3.468-4.96.144-1.49.831-2.644 2.046-3.511 2.722-1.945 7.313-1.761 9.772.403 1.266 1.113 1.984 2.817 1.787 4.294h-1.574c-.044-.193-.098-.382-.128-.575-.337-2.064-1.474-3.324-3.528-3.787-1.471-.332-2.944-.272-4.348.335-1.312.567-2.186 1.516-2.258 3.005-.071 1.436.64 2.483 1.9 3.06 1.223.562 2.518.965 3.782 1.434.245.09.497.165.746.245-.008.033-.014.068-.021.1v.004Zm24.061-8.114v8.087h-1.768v-8.06h-6.82V.883h15.451v1.402h-6.863ZM39.692 20.912H27.237v-9.534h1.67v8.062h10.785v1.472Zm-31.832.034-3.587-9.624c.55 0 1.002-.065 1.418.027.214.047.451.34.537.574.815 2.201 1.6 4.415 2.45 6.789.15-.37.254-.602.34-.844.664-1.859 1.366-3.706 1.968-5.585.249-.778.63-1.113 1.432-.965.192.036.392.025.68.04-.485 1.312-.949 2.572-1.416 3.832-.601 1.616-1.242 3.22-1.786 4.854-.236.712-.571 1.049-1.33.908-.218-.039-.447-.006-.707-.006h.002Zm178.625-10.519c-.498 0-.953.055-1.381-.024-.195-.036-.415-.31-.497-.523-.772-2.033-1.516-4.076-2.271-6.116-.068-.184-.144-.365-.277-.7-.483 1.284-.922 2.443-1.355 3.605-.365.983-.764 1.958-1.07 2.96-.193.63-.498.925-1.17.809-.241-.042-.494-.006-.836-.006.103-.305.174-.534.259-.758 1.032-2.735 2.082-5.465 3.087-8.211.194-.53.481-.682.999-.642.484.038.928-.083 1.175.603 1.014 2.821 2.108 5.614 3.169 8.42.06.16.095.328.168.583Zm-74.35.003c-.264 0-.537-.028-.799.006-.613.08-.922-.137-1.134-.757-.697-2.034-1.472-4.04-2.219-6.055-.051-.14-.115-.274-.231-.55-.35.927-.662 1.74-.964 2.555-.486 1.313-1.01 2.613-1.431 3.946-.22.697-.573.975-1.281.861-.217-.034-.443-.006-.778-.006.573-1.51 1.11-2.93 1.649-4.348.602-1.59 1.227-3.17 1.794-4.773.17-.483.48-.533.866-.474.4.06.908-.254 1.148.392 1.117 2.999 2.259 5.986 3.391 8.98.015.042-.003.097-.009.225l-.002-.002ZM17.03.827c-.696 1.879-1.342 3.63-1.994 5.38-.418 1.124-.9 2.23-1.245 3.375-.216.72-.593.955-1.287.853-.219-.032-.447-.005-.78-.005.143-.46.252-.852.39-1.235.886-2.498 1.805-4.983 2.655-7.492.23-.684.557-.995 1.28-.882.267.043.546.006.98.006ZM.383.897c1.23-.139 2.033.318 2.41 1.37l2.642 7.412c.073.21.138.422.244.748-.528 0-.993.021-1.453-.012-.136-.009-.33-.145-.377-.268C2.693 7.09 1.552 4.029.383.897Zm81.765 10.446H83.8v9.55h-1.652v-9.55Z"/>
  </g>
  <defs>
    <clipPath id="a">
      <path fill="#fff" d="M.383.507h238.41v20.755H.384z"/>
    </clipPath>
  </defs>
</svg>