<svg width="21" height="29" viewBox="0 0 21 29" fill="none" xmlns="http://www.w3.org/2000/svg">
<path d="M8.24808 16.6277L1.00831 3.12277C0.354198 1.9026 1.23814 0.425781 2.62259 0.425781C3.32069 0.425781 3.95809 0.82262 4.26618 1.44906L8.72847 10.5224C8.91596 10.9036 9.06309 11.3265 9.36349 11.6269C9.47165 11.735 9.51297 11.8432 9.57005 11.9927L9.57008 11.9927L9.57028 11.9933C9.59984 12.0706 9.63364 12.159 9.68311 12.2643C9.70275 12.306 9.73016 12.3436 9.7628 12.3763L9.80971 12.4232C9.86018 12.4736 9.88854 12.5421 9.88854 12.6135C9.88854 12.6553 9.8985 12.6964 9.91633 12.7342C9.98584 12.8814 10.0247 12.998 10.0636 13.1146C10.0716 13.1387 10.0797 13.1629 10.088 13.1873C10.1724 13.4349 10.3309 13.654 10.4136 13.9021C10.471 14.0743 10.6615 14.0511 10.7439 13.8895C10.7868 13.8052 10.8326 13.7224 10.8793 13.6381L10.8793 13.638C11.0293 13.3669 11.1879 13.08 11.2887 12.677C11.4637 12.152 11.8137 11.6269 12.1638 11.1019L12.1638 11.1019L16.9514 1.36709C17.2348 0.790831 17.8211 0.425781 18.4633 0.425781C19.7337 0.425781 20.5471 1.77821 19.9516 2.9004L12.5721 16.808C12.304 17.3133 12.1638 17.8766 12.1638 18.4487V26.6784C12.1638 27.645 11.3802 28.4286 10.4136 28.4286C9.447 28.4286 8.66341 27.645 8.66341 26.6784V18.2816C8.66341 17.7045 8.52074 17.1363 8.24808 16.6277Z" fill="#202020"/>
</svg>
