<svg xmlns="http://www.w3.org/2000/svg" fill="none" viewBox="0 0 184 58">
  <path fill="#fff" d="M25.561 57.674c.124-.045.25-.094.399-.149-.117-.136-.269-.142-.405-.149-2.404-.113-4.662-.823-6.865-1.717a28.234 28.234 0 0 1-9.272-6.11 28.416 28.416 0 0 1-5.246-7.053A30.82 30.82 0 0 1 2.387 38.4a2.642 2.642 0 0 1-.1-.346c-.075-.402.071-.587.48-.596.375-.01.754.01 1.13-.007.334-.013.512.13.625.44.778 2.146 1.792 4.17 3.091 6.046 2.394 3.46 5.417 6.234 9.104 8.291a25.889 25.889 0 0 0 10.02 3.162c1.53.162 3.062.114 4.598.045 2.012-.087 3.946-.502 5.854-1.095a24.675 24.675 0 0 0 5.741-2.647c2.103-1.312 4.02-2.84 5.702-4.655 2.709-2.922 4.692-6.266 5.897-10.07a26.51 26.51 0 0 0 1.16-5.666c.026-.295.003-.59.029-.884.029-.363-.136-.464-.477-.457-.916.016-1.833.003-2.747.006h-5.216c-1.87 0-3.14-1.25-3.13-3.1a47.096 47.096 0 0 0-.077-2.534 1.173 1.173 0 0 0-.098-.47c-.13-.272-.356-.408-.65-.375-.302.032-.493.22-.529.524-.042.36-.078.723-.078 1.083-.006 3.852 0 7.704-.01 11.556 0 1.205-.826 2.258-1.937 2.657-1.578.57-3.343-.57-3.641-2.23a6.622 6.622 0 0 1-.091-1.162c.003-5.92.003-11.839.003-17.761 0-.389 0-.778-.013-1.166-.016-.405-.246-.626-.632-.632-.408-.007-.618.181-.644.602-.02.363-.013.726-.013 1.09 0 7.558 0 15.113-.004 22.671 0 .823-.064 1.636-.599 2.333-.752.978-1.921 1.377-3.042 1.02a2.869 2.869 0 0 1-2.018-2.598c-.062-1.14-.065-2.28-.065-3.421 0-9.976 0-19.948-.003-29.923 0-.243.003-.486-.02-.722-.042-.402-.262-.616-.609-.626-.334-.01-.586.21-.654.59-.072.398-.085.8-.085 1.202 0 13.746 0 27.493.004 41.24 0 .894-.308 1.636-.956 2.264-1.422 1.38-3.532.674-4.306-.8a3.107 3.107 0 0 1-.346-1.474c.01-3.84.006-7.679 0-11.518-.004-6.227-.01-12.454-.02-18.68 0-.833-.03-1.663-.052-2.495-.013-.476-.23-.736-.609-.752-.382-.02-.619.21-.683.687a6.049 6.049 0 0 0-.059.8v19.008c0 .444.01.885-.003 1.329-.045 1.496-1.121 2.569-2.718 2.718-1.147.107-2.466-.927-2.777-2.178a3.95 3.95 0 0 1-.11-.955c.003-4.348 0-8.7 0-13.047 0-.269.003-.538-.113-.79-.14-.295-.357-.48-.697-.435-.347.049-.505.285-.538.613-.02.2-.013.402-.016.602-.02.898.032 1.795-.065 2.696-.139 1.28-1.153 2.332-2.43 2.491a9.403 9.403 0 0 1-1.17.068H2.204c-1.4 0-1.416 0-1.397-1.364C.884 22.96 2.44 17.76 5.52 13.013c1.824-2.809 4.047-5.261 6.732-7.27a28.835 28.835 0 0 1 7.394-4.01C21.512 1.048 23.423.54 25.39.28c1.801-.237 3.609-.353 5.436-.233 1.873.123 3.73.304 5.547.793 4.348 1.167 8.261 3.143 11.66 6.114 3.865 3.38 6.603 7.503 8.294 12.33.304.869.24.953-.67.95-1.446-.01-1.2.143-1.721-1.163-1.536-3.855-3.823-7.212-6.898-10.001-4.033-3.661-8.763-5.907-14.184-6.652-5.517-.758-10.73.214-15.638 2.803-3.519 1.856-6.46 4.403-8.864 7.558-2.68 3.522-4.351 7.484-5.07 11.842-.15.897-.27 1.804-.286 2.718-.003.243.046.427.35.415 2.709-.1 5.417-.02 8.122-.046h.12c.632-.01.85-.217.852-.849.007-.871-.013-1.746.013-2.617.036-1.329.872-2.476 2.028-2.829 1.75-.538 3.584.778 3.632 2.608.01.415.003.833.003 1.248v12.282c0 .227-.01.456.078.677.117.298.302.528.655.483.36-.049.58-.28.615-.645.023-.227.013-.457.013-.684V17.45c0-.554.052-1.099.298-1.607.587-1.225 1.811-1.876 3.068-1.627 1.316.26 2.233 1.335 2.297 2.702.017.35.007.697.007 1.047v31.29c0 .295 0 .59.08.878.092.31.29.49.607.502.333.013.505-.2.605-.492.098-.276.069-.558.069-.84 0-13.422 0-26.848.006-40.27 0-.59-.006-1.18.049-1.77.158-1.69 1.52-2.705 2.919-2.653 1.542.055 2.634 1.28 2.699 2.962.01.268.006.537.006.806v32.58c0 .282-.023.563.178.806.159.192.347.305.596.263a.628.628 0 0 0 .506-.415c.097-.246.077-.502.077-.755V17.578c0-.46.03-.91.156-1.354.376-1.312 1.539-2.129 2.929-2.044 1.257.078 2.33 1.095 2.53 2.387.055.363.058.723.058 1.083v18.444c0 .24-.02.483.065.716.11.301.34.46.645.46.301 0 .49-.195.59-.47.077-.207.055-.424.058-.638v-11.68c0-1.127.363-2.09 1.344-2.73 1.912-1.248 3.898.122 4.245 1.797.194.94.07 1.902.084 2.851.016 1.26.061 1.316 1.328 1.316h9.58c.648.016.73.107.745.758.097 3.962-.635 7.775-2.154 11.43-1.286 3.094-3.02 5.925-5.297 8.417-2.514 2.754-5.417 4.98-8.783 6.596-2.502 1.202-5.12 2.057-7.883 2.427-.476.064-.956.094-1.435.171.282.13.606 0 .878.162h-7.682l.016-.003Zm158.307-26.258c-.103-.03-.149.038-.178.116-.431 1.08-1.338 1.461-2.391 1.575-1.344.142-2.549-.253-3.641-1.037-.272-.198-.302-.382-.088-.628.201-.234.412-.464.59-.713.188-.263.35-.26.593-.059.764.632 1.642.891 2.63.73.321-.052.561-.195.613-.542.055-.369-.104-.619-.431-.78-.463-.227-.969-.321-1.452-.49-.343-.12-.69-.223-1.027-.363-.936-.382-1.419-1.095-1.419-2.092 0-.97.415-1.737 1.29-2.216 1.383-.759 3.301-.305 4.435.502.152.11.204.252.101.418-.23.363-.467.722-.7 1.082-.127.194-.246.116-.399.013-.622-.431-1.302-.69-2.076-.651-.366.019-.671.142-.752.537-.081.399.159.626.486.784.402.195.842.273 1.267.412.369.12.745.236 1.101.389.519.22.956.547 1.228 1.059.049.09.078.21.227.181v1.773h-.007Zm-53.619-2.553c0-1.235.009-2.47-.007-3.707-.003-.366.104-.547.506-.531 1.344.049 2.695-.09 4.036.09 2.051.276 3.072 2.35 2.064 4.157-.23.412-.547.745-.965.946-.389.188-.353.373-.14.674.516.723 1.008 1.458 1.507 2.194.058.084.181.155.117.275-.062.113-.192.078-.295.078-.392.003-.784-.023-1.173.01-.437.035-.7-.153-.92-.51-.376-.605-.797-1.182-1.17-1.788-.178-.288-.395-.385-.729-.375-.965.02-.952.006-.9.962.026.48-.02.965-.026 1.448 0 .194-.11.256-.282.26h-1.293c-.311 0-.33-.205-.33-.438v-3.745Zm3.091-.208c.301-.016.677.036 1.049-.071.59-.165.901-.567.868-1.137-.032-.518-.424-.924-.991-.998a11.776 11.776 0 0 0-1.691-.084c-.331.006-.463.152-.424.476.058.505.081 1.014.032 1.523-.02.217.078.295.275.291h.882Zm-59.262 4.393c-.619 0-1.241-.01-1.86.004-.32.006-.45-.084-.447-.434.003-1.384.065-2.764-.039-4.147-.026-.344.09-.48.454-.473.93.019 1.86.006 2.79.006.352 0 .699-.058 1.026-.185.289-.113.467-.324.467-.641 0-.308-.159-.531-.44-.668a1.646 1.646 0 0 0-.746-.152h-3.032c-.46 0-.512-.068-.486-.518.016-.282.019-.564.019-.846 0-.227.087-.363.33-.36 1.4.033 2.806-.103 4.2.082 1.512.2 2.358 1.393 1.982 2.73-.1.36-.279.681-.577.901-.301.224-.285.328.036.519 1.089.648 1.396 1.863.784 2.958-.288.515-.765.784-1.293.968-.46.163-.942.234-1.428.24-.58.01-1.16 0-1.74 0v.016Zm.816-1.717c.528-.045 1.005.055 1.465-.097.291-.097.489-.272.528-.593.045-.34-.068-.609-.357-.793a1.007 1.007 0 0 0-.531-.175c-.687-.013-1.374-.02-2.06-.03-.243-.003-.337.11-.331.347.01.32.013.645 0 .966-.013.275.094.395.376.382.324-.013.648 0 .91 0v-.007Zm93.245-3.23c.632-.693 1.261-1.39 1.892-2.08.363-.395.732-.787 1.099-1.18a.63.63 0 0 1 .469-.2c.525-.006 1.05-.006 1.575-.006.091 0 .207-.013.243.097.039.11-.081.155-.143.22-.942.995-1.879 1.996-2.835 2.977-.213.22-.213.383-.038.62 1.01 1.357 2.008 2.724 3.009 4.088.068.094.211.181.166.301-.059.159-.23.1-.357.104-.418.006-.836-.013-1.254.006-.33.017-.56-.1-.751-.369-.661-.93-1.335-1.853-2.006-2.777-.275-.379-.278-.353-.638-.051-.415.35-.593.748-.541 1.296.049.492 0 .991.013 1.487.01.317-.126.434-.434.42-.337-.012-.674-.002-1.011-.006-.502 0-.528-.026-.528-.518v-6.924c.006-1.069-.146-.978 1.004-.975 1.099.007.953-.11.966.979.009.816 0 1.633 0 2.45l.094.044.006-.003Zm-58.55.036c.755-.826 1.49-1.604 2.197-2.41.949-1.08.939-1.092 2.384-1.083.243 0 .596-.152.7.098.071.168-.275.35-.437.521-.836.891-1.672 1.782-2.521 2.663-.191.201-.22.363-.049.593 1.024 1.38 2.038 2.767 3.056 4.154.061.084.187.152.149.265-.052.146-.204.097-.318.1-.269.007-.544-.032-.807.01-.742.12-1.198-.204-1.587-.813-.518-.813-1.124-1.571-1.678-2.365-.191-.272-.324-.301-.596-.062-.438.386-.652.807-.584 1.4.052.476 0 .966.013 1.448.007.295-.113.412-.408.399a14.658 14.658 0 0 0-1.131 0c-.268.006-.379-.078-.379-.37.007-2.55 0-5.096-.009-7.646 0-.298.132-.41.414-.404.363.006.729.016 1.092 0 .311-.01.431.116.428.427a113.93 113.93 0 0 0 0 2.615c0 .13-.036.265.078.46h-.007Zm-18.95 4.905c-1.001-.01-.878.12-1.263-.862-.39-.988-.383-.988-1.452-.988-.66 0-1.319.01-1.98-.016-.34-.013-.521.107-.625.427-.116.357-.282.697-.401 1.053-.098.285-.276.405-.574.395-.363-.01-.726-.01-1.092 0-.353.01-.379-.139-.256-.42.716-1.663 1.426-3.331 2.135-4.996.373-.878.749-1.753 1.099-2.638.103-.265.265-.369.531-.408 1.17-.162 1.29-.094 1.74.975.981 2.323 1.966 4.646 2.951 6.97.191.45.159.505-.33.511h-.486l.003-.003Zm-3.35-6.049h-.107c-.295.736-.593 1.474-.881 2.213-.062.155-.01.262.178.262.496 0 .992 0 1.487-.006.169 0 .27-.09.204-.256-.288-.742-.586-1.477-.88-2.213Zm58.452 4.186c-.456 0-.917.01-1.373-.003-.253-.007-.399.084-.486.324-.136.379-.308.745-.444 1.124-.104.292-.276.437-.599.424-.35-.013-.7-.01-1.05 0-.321.01-.415-.093-.279-.408 1.027-2.407 2.048-4.814 3.072-7.225.239-.568.669-.852 1.289-.852.752 0 .742.004 1.027.68 1.021 2.437 2.051 4.873 3.078 7.31.188.444.162.48-.311.486-1.39.02-1.41.026-1.915-1.257-.181-.46-.418-.665-.92-.603-.36.042-.726.01-1.089.01v-.01Zm.062-4.173c-.039.003-.075.01-.113.013-.292.716-.58 1.432-.872 2.148-.074.178-.036.295.172.295.508.003 1.02.003 1.529 0 .185 0 .23-.117.165-.275-.291-.726-.586-1.452-.881-2.18ZM95.23 28.892c.003-2.265 1.64-4.086 3.859-4.351 1.299-.156 2.446.171 3.463.994.24.195.276.366.062.6-.253.278-.506.56-.729.858-.159.21-.272.185-.451.026-.683-.602-1.474-.865-2.387-.687-1.228.24-1.892 1.48-1.802 2.65.01.146.042.292.068.438.166.855.574 1.545 1.442 1.84.933.314 1.808.178 2.569-.476.444-.383.441-.386.843.039.158.165.304.343.473.495.275.24.22.431-.026.658-1.261 1.163-2.741 1.461-4.348.991-1.636-.476-2.556-1.658-2.939-3.281-.064-.273-.113-.555-.094-.794h-.003Zm62.963 2.511c.654.032 1.253-.243 1.752-.733.243-.236.418-.223.629.023.197.237.408.467.628.68.221.214.172.38-.035.57-.626.584-1.335 1.002-2.187 1.141-1.627.262-3.071-.097-4.154-1.39-1.127-1.348-1.37-2.893-.709-4.526.622-1.532 1.804-2.4 3.45-2.618 1.306-.171 2.479.146 3.499.992.24.197.272.36.052.593a7.798 7.798 0 0 0-.696.835c-.166.234-.295.208-.483.04-.551-.5-1.196-.756-1.951-.73a2.232 2.232 0 0 0-2.122 1.72 3.26 3.26 0 0 0 .124 1.935c.353.959 1.088 1.468 2.196 1.468h.007Zm-35.943-6.765h2.91c.495 0 .515.026.518.531 0 .256-.023.512.007.765.045.42-.14.538-.538.512-.483-.03-.972.02-1.455-.013-.402-.026-.538.094-.531.512.022 1.824.009 3.65.009 5.478 0 .413-.209.62-.628.622-.269 0-.541-.016-.807 0-.353.023-.47-.123-.47-.47.01-1.824.007-3.65.004-5.478 0-.081-.007-.162 0-.243.035-.308-.088-.438-.412-.428-.551.02-1.105-.003-1.655.013-.311.01-.447-.1-.438-.415a14.7 14.7 0 0 0 0-1.007c-.009-.298.123-.399.415-.399 1.024.01 2.048.004 3.071.004v.016Z"/>
</svg>