<svg xmlns="http://www.w3.org/2000/svg" width="143" height="31" fill="none" viewBox="0 0 143 31">
  <path fill="#fff" d="M109.801 25.352c1.342.488 2.565 1.05 3.848 1.369 1.425.355 2.879.174 4.243-.415 1.977-.855 3.189-3.13 2.633-5.018-.208.172-.396.317-.572.475-2.285 2.04-4.928 2.441-7.734 1.457-2.81-.987-4.49-3.065-5.006-5.995-.445-2.53-.144-4.954 1.353-7.126 1.869-2.71 4.969-3.979 7.851-3.247 1.096.278 2.007.858 2.801 1.64.169.167.349.324.712.66 0-.673.021-1.128-.006-1.583-.028-.497.138-.728.676-.716 1.123.027 2.245.02 3.368.003.451-.006.614.175.613.62-.011 5.146.081 10.293-.041 15.433-.093 3.972-3.03 7.126-6.993 7.804-3.04.52-5.887-.05-8.561-1.575-.626-.357-.871-.685-.429-1.39.51-.813.892-1.705 1.244-2.397v.001Zm6.198-14.76c-1.868-.003-3.434.97-3.987 2.67-.261.802-.319 1.705-.289 2.557.067 1.947 1.549 3.583 3.46 3.967 1.726.346 3.521-.547 4.339-2.202.594-1.199.672-2.464.402-3.77-.393-1.901-1.977-3.219-3.924-3.222h-.001ZM46.117 8.815c.556-.44.91-.746 1.289-1.016 2.305-1.647 6.104-1.504 8.558.562 4.694 3.95 3.862 12.266-1.557 15.163-2.616 1.398-5.44 1.004-7.57-1.05-.17-.164-.36-.313-.72-.623 0 .6-.027 1.009.006 1.41.048.575-.159.807-.761.784a43.99 43.99 0 0 0-3.142 0c-.604.023-.763-.214-.761-.785.02-3.826.01-7.654.01-11.48 0-3.529.02-7.058-.016-10.586-.008-.738.235-.949.942-.912.97.053 1.946.044 2.917.003.62-.025.825.19.817.81-.03 2.236-.012 4.472-.012 6.708v1.012Zm8.374 6.717c-.203-.809-.302-1.663-.631-2.416-.661-1.507-1.823-2.519-3.527-2.62-1.482-.09-2.623.63-3.453 1.851-1.172 1.724-1.217 4.402-.093 6.153 1.469 2.29 4.294 2.593 6.199.652.973-.992 1.422-2.194 1.505-3.618v-.002Zm-26.725-.168c-.699 0-1.397-.018-2.094.006-.462.017-.657-.134-.704-.622-.201-2.04-.853-3.92-2.18-5.526-1.725-2.089-3.901-3.301-6.64-3.573C10.48 5.09 5.908 9.728 5.7 14.7c-.02.462-.143.679-.645.671-1.47-.02-2.942-.02-4.412 0-.489.006-.674-.173-.64-.66C.474 7.912 4.821 2.503 10.916.656c8.648-2.618 17.657 2.874 19.347 11.746.146.775.197 1.57.286 2.355.05.451-.166.623-.613.611-.723-.02-1.446-.004-2.169-.004l-.001.001Z"/>
  <path fill="#fff" d="M138.473 21.813c-.317.225-.456.284-.54.39-2.329 2.88-6.963 2.858-9.871-.122-3.967-4.065-3.333-11.191 1.283-14.268 2.556-1.703 5.752-1.543 8.218.409.222.175.455.336.821.604.041-.432.111-.694.08-.946-.095-.75.25-.941.945-.904.946.05 1.896.035 2.842.005.538-.017.751.151.749.718-.016 5.217-.015 10.434-.001 15.653 0 .521-.186.703-.7.69a49.94 49.94 0 0 0-3.067.004c-.596.02-.813-.201-.765-.78.034-.412.006-.828.006-1.453Zm-8.414-6.32c.074.512.112 1.035.233 1.537.429 1.773 1.968 3.173 3.677 3.383 1.541.189 3.128-.65 3.901-2.23.986-2.02.926-4.065-.357-5.943-1.537-2.25-4.331-2.362-6.122-.318-.893 1.02-1.28 2.223-1.331 3.57h-.001Zm-54.467 1.661c.237 1.546 1.106 2.423 2.326 2.94 2.252.955 4.28.42 6.223-1.161.812.87 1.63 1.75 2.537 2.721-.41.335-.77.661-1.161.942-4.032 2.897-9.993 2.132-12.839-1.676-1.439-1.925-1.795-4.13-1.59-6.487.297-3.406 2.058-5.76 5.142-7.093 3.302-1.429 7.91-.712 10.342 2.387 1.26 1.607 1.651 3.458 1.504 5.451-.03.42-.09.838-.118 1.258-.039.565-.337.728-.887.725-3.419-.02-6.836-.01-10.255-.01H75.59l.002.003Zm.16-3.284h6.35c1.432 0 1.624-.339.925-1.63a2.655 2.655 0 0 0-.198-.317c-.921-1.264-2.227-1.674-3.693-1.44-1.533.244-2.751 1.019-3.286 2.58-.075.22-.06.47-.098.807Zm17.908 3.284c.06 1.515 1.365 2.858 3.064 3.244 1.782.404 3.419.055 4.858-1.059.43-.332.676-.353 1.034.075.634.757 1.325 1.465 2.031 2.236-1.306 1.258-2.766 2.087-4.459 2.421-3.687.726-6.943-.022-9.417-3.032-1.177-1.431-1.643-3.134-1.712-4.976-.085-2.305.294-4.47 1.842-6.272 1.628-1.895 3.677-2.984 6.223-3.103 2.244-.105 4.314.348 6.112 1.739 2.347 1.815 3.137 4.282 2.816 7.125-.181 1.611-.262 1.602-1.878 1.602H93.657h.004Zm.175-3.364h7.531c-.023-2.138-1.7-3.505-4.023-3.338-1.701.123-3.756 1.627-3.508 3.338ZM65.45 9.165c.98-.678 1.715-1.273 2.53-1.73.597-.332 1.288-.513 1.955-.704.457-.13.76.018.745.594a59.247 59.247 0 0 0 .003 3.054c.01.476-.16.648-.648.668-2.783.113-4.362 1.702-4.446 4.503-.075 2.503-.098 5.01-.135 7.514-.015.968-.006.97-1.006.97-.922 0-1.845-.019-2.767.008-.527.017-.76-.132-.756-.709.016-5.214.015-10.43.003-15.644 0-.502.148-.722.68-.709 1.046.027 2.094.032 3.14 0 .58-.018.745.234.71.759-.028.428-.006.861-.006 1.426h-.001ZM26.916 25.427c-.755.963-1.419 1.64-2.781 1.617a566.949 566.949 0 0 0-17.497-.004c-1.367.02-2.197-.504-2.915-1.614h23.195l-.002.001Zm-2.594-6.184c.2-.815.34-1.515.556-2.191.05-.159.354-.331.544-.336 1.515-.027 3.032-.012 4.549-.018.394 0 .577.087.51.565-.28 1.977-.262 1.98-2.264 1.98h-3.895Zm-18.015 0H5.186c-1.345 0-2.69-.02-4.032.01-.5.013-.734-.176-.81-.64-.39-2.331-.384-1.888 1.468-1.91 1.045-.014 2.092.022 3.135-.012.552-.02.817.165.906.72.09.558.268 1.102.454 1.834v-.002Zm23.263 1.799c-.34.712-.57 1.257-.865 1.767-.09.156-.353.3-.538.301-2.185.021-4.37.014-6.656.014.6-.685 1.124-1.297 1.667-1.892a.603.603 0 0 1 .39-.183c1.933-.012 3.868-.007 6-.007h.002ZM1.08 21.03h3.31c.922.008 1.95-.235 2.737.095.776.325 1.31 1.227 2.073 2H7.25c-1.42 0-2.844-.046-4.262.019-.752.034-1.17-.234-1.404-.91-.128-.366-.299-.717-.506-1.205v.001Zm8.69 8.781h10.75c.049 0 .098.008.148.012-2.335 1.273-7.326 1.571-10.898-.012Z"/>
</svg>
