<svg xmlns="http://www.w3.org/2000/svg" fill="none" viewBox="0 0 210 52">
  <g clip-path="url(#a)">
    <path fill="#fff" d="M209.559 26.866c-.073.17-.035.354-.069.53-.3 1.528-.962 2.889-2.044 4.004a8.975 8.975 0 0 1-3.384 2.185c-1.187.434-2.408.666-3.667.749-.828.054-1.656.038-2.484.04-2.831.006-5.664.002-8.495 0-.543 0-.547-.004-.547-.536v-15.65c0-.35.172-.524.516-.524 3.593 0 7.185-.006 10.779.01a12.77 12.77 0 0 1 4.373.778c1.527.56 2.835 1.434 3.775 2.783.676.967 1.122 2.03 1.203 3.225.004.065.029.13.042.195v2.211h.002Zm-15.838-.84v4.654c0 .386.006.39.398.39.784 0 1.567.01 2.349 0 1.061-.015 2.123.039 3.186-.046a6.176 6.176 0 0 0 2.042-.496c1.286-.57 2.173-1.51 2.588-2.864a6.012 6.012 0 0 0 .232-2.548c-.216-1.71-1.098-2.914-2.687-3.596-.93-.397-1.91-.548-2.914-.552-1.577-.005-3.155 0-4.732 0-.068 0-.135-.002-.201.002-.214.018-.245.049-.261.263-.005.1-.003.2-.003.3v4.49l.003.002Zm-68.187-9.16c1.463-.02 2.883.123 4.284.453 1.195.284 2.328.726 3.372 1.374.407.253.782.56 1.141.879.2.177.395.36.588.548.172.168.172.216-.013.374-.477.407-.956.809-1.436 1.21-.377.317-.753.635-1.131.946-.255.21-.288.21-.487-.035-.71-.87-1.646-1.395-2.684-1.762-1.697-.6-3.447-.73-5.229-.56a5.437 5.437 0 0 0-1.499.338c-.4.16-.764.37-.961.788a1.195 1.195 0 0 0 .395 1.488c.301.206.643.306.994.386.645.146 1.303.204 1.959.272 1.079.11 2.158.222 3.239.316.982.087 1.959.2 2.92.417.623.141 1.235.32 1.812.6 1.205.583 2.056 1.463 2.316 2.812.22 1.133.164 2.25-.361 3.305-.476.957-1.206 1.68-2.132 2.213-1.095.628-2.287.954-3.519 1.162a19.758 19.758 0 0 1-3.979.25c-1.707-.059-3.39-.279-5.013-.84-1.586-.548-3.026-1.338-4.174-2.59a7.674 7.674 0 0 1-.508-.624c-.154-.21-.148-.249.066-.405.442-.323.891-.637 1.339-.954a172.93 172.93 0 0 1 1.569-1.092c.259-.178.311-.178.494.073.477.65 1.091 1.155 1.761 1.585a7.97 7.97 0 0 0 2.136.957c.884.255 1.789.373 2.71.425A12.68 12.68 0 0 0 128.44 31a3.516 3.516 0 0 0 1.193-.43c.585-.348.841-.965.677-1.606a1.106 1.106 0 0 0-.582-.737c-.412-.218-.857-.33-1.313-.392-.797-.108-1.6-.187-2.399-.284-1.488-.18-2.982-.293-4.464-.527a8.456 8.456 0 0 1-2.399-.733c-1.478-.718-2.355-1.867-2.519-3.536-.075-.76-.05-1.502.234-2.208.434-1.08 1.22-1.85 2.229-2.414.861-.48 1.797-.738 2.754-.934a15.996 15.996 0 0 1 3.677-.334h.006Zm47.809 17.51h-7.824c-.373 0-.561-.186-.562-.556V18.202c0-.358.178-.536.535-.536h15.548c.347 0 .52.172.519.517v2.347c0 .1 0 .2-.008.3-.007.132-.083.205-.214.211a7.86 7.86 0 0 1-.369.008H170.29c-.57 0-.57-.046-.568.57.002.713.002 1.43 0 2.143 0 .6.016.54.562.54h10.243c.123 0 .247-.003.368.005.212.015.251.054.265.262.009.145.003.29.003.437 0 .692.002 1.385 0 2.078 0 .373-.025.398-.405.398-1.635.002-3.269 0-4.902 0h-5.674c-.452 0-.458.006-.458.442v2.547c0 .089.002.18.008.268.008.134.083.203.214.21.112.007.224.009.336.009 3.615 0 7.232.002 10.847 0 .669 0 .569.054.573.567.004.793 0 1.587 0 2.38 0 .463-.006.47-.467.47h-7.892ZM74.54 16.863c1.17-.023 2.324.092 3.464.345 1.709.377 3.283 1.052 4.613 2.208 1.058.919 1.841 2.034 2.262 3.385.097.307.081.344-.235.402-1.222.224-2.444.44-3.665.66-.209.037-.417.081-.628.114-.287.044-.345.01-.44-.274-.063-.191-.115-.384-.21-.564-.513-.978-1.268-1.704-2.306-2.09-1.755-.654-3.544-.71-5.337-.181-1.079.318-1.988.912-2.675 1.816-.48.629-.716 1.36-.837 2.128-.11.701-.1 1.4.042 2.098.305 1.473 1.14 2.544 2.451 3.266.85.469 1.772.687 2.727.757.85.061 1.702.06 2.54-.124.898-.197 1.725-.55 2.434-1.148.494-.42.85-.944 1.115-1.533.033-.071.056-.146.087-.218.122-.291.15-.31.452-.247.963.205 1.926.411 2.887.618.448.096.896.197 1.341.303.33.079.342.098.213.4-.612 1.439-1.511 2.65-2.806 3.556-1.2.842-2.525 1.388-3.947 1.706-1.293.29-2.608.413-3.932.392-1.436-.023-2.86-.166-4.238-.598-1.534-.48-2.947-1.2-4.098-2.341-1.017-1.008-1.733-2.202-2.103-3.604a8.745 8.745 0 0 1-.303-2.316c.013-1.93.594-3.672 1.826-5.172.818-.998 1.824-1.768 2.974-2.362 1.31-.678 2.713-1.025 4.159-1.25a12.65 12.65 0 0 1 2.175-.136l-.002.004Zm25.47 14.162c-1.4 0-2.799.01-4.198-.006-.328-.004-.492.108-.627.41a64.06 64.06 0 0 1-1.243 2.674c-.09.181-.199.276-.41.274-1.499-.004-2.998-.002-4.498-.002-.033 0-.068 0-.1-.004-.201-.027-.24-.079-.168-.262.052-.135.121-.265.187-.394l6.021-12.018c.616-1.23 1.24-2.455 1.842-3.688.125-.259.285-.352.569-.35 1.747.012 3.491.012 5.238 0 .276 0 .421.095.54.338 2.396 4.798 4.798 9.594 7.199 14.39.28.56.552 1.124.823 1.687.117.243.086.297-.184.3-.795.005-1.59.003-2.383.003-.695 0-1.388-.01-2.083.004-.26.006-.407-.087-.513-.328-.388-.878-.805-1.745-1.187-2.627-.129-.3-.303-.413-.631-.409-1.4.015-2.799.008-4.198.008h.004Zm-.016-10.299c-.058.137-.092.216-.125.3-.403 1.053-.784 2.113-1.274 3.132-.552 1.146-1.077 2.306-1.613 3.46-.023.05-.049.1-.064.155-.027.083.015.127.094.137.056.007.112.007.168.007h5.671c.285 0 .305-.032.189-.283-.328-.709-.66-1.417-.994-2.123-.656-1.394-1.33-2.78-1.82-4.246-.056-.166-.093-.342-.234-.539h.002Zm49.853-3.061h8.764c.347 0 .521.17.521.512v2.748c0 .338-.166.508-.496.508h-5.91c-.509 0-.511 0-.511.52v11.9c0 .345-.173.519-.518.52h-3.794c-.484 0-.49-.005-.49-.482V21.992c0-.567.052-.561-.573-.561-1.948 0-3.895 0-5.844.002h-.068c-.386-.004-.419-.031-.419-.425-.002-.982 0-1.967 0-2.95 0-.055.002-.111.006-.167.01-.145.077-.23.23-.228.112 0 .224-.004.335-.004h8.765l.002.006Z"/>
    <path fill="#fff" d="M27.672.524c.003.166.135.12.223.125.759.06 1.512.172 2.259.309 1.312.24 2.597.587 3.852 1.038a25.195 25.195 0 0 1 4.653 2.227 26.598 26.598 0 0 1 3.812 2.845 24.832 24.832 0 0 1 4.095 4.725c.292.436.556.892.82 1.345.228.392.307.816.195 1.26-.295 1.162-1.717 1.595-2.624.803-.267-.231-.46-.517-.633-.818a18.975 18.975 0 0 0-1.402-2.046 21.917 21.917 0 0 0-5.191-4.86c-2.457-1.646-5.15-2.725-8.05-3.302-1.813-.36-3.644-.451-5.48-.343-1.723.1-3.416.415-5.07.93a22.036 22.036 0 0 0-4.744 2.1 22.338 22.338 0 0 0-3.474 2.567 22.202 22.202 0 0 0-3.534 4.06c-.303.442-.577.905-.864 1.357-.158.25-.37.438-.631.585-.842.477-2.087-.035-2.338-1.03a1.512 1.512 0 0 1 .17-1.165A28.374 28.374 0 0 1 6.26 9.582c.724-.888 1.534-1.687 2.364-2.468.755-.715 1.583-1.348 2.434-1.948a25.304 25.304 0 0 1 3.91-2.273 25.206 25.206 0 0 1 5.464-1.82 22.03 22.03 0 0 1 2.82-.421c.094-.008.243.058.258-.126h4.165l-.003-.001Z"/>
    <path fill="#fff" d="M25.597 41.483c1.73.024 3.41-.26 5.043-.824.986-.34 1.915-.799 2.826-1.306 1.386-.772 2.578-1.772 3.648-2.926.6-.649 1.12-1.363 1.607-2.102.172-.26.34-.525.523-.78.429-.592 1.133-.826 1.809-.608a1.659 1.659 0 0 1 1.135 1.581c0 .351-.145.65-.317.942a19.7 19.7 0 0 1-1.442 2.098c-.43.557-.9 1.086-1.397 1.582-1.264 1.26-2.663 2.35-4.23 3.218a19.21 19.21 0 0 1-2.996 1.347c-1.367.477-2.77.8-4.215.942-.836.08-1.674.148-2.513.114-1.888-.076-3.735-.371-5.531-.975-1.527-.514-2.951-1.235-4.306-2.09-1.63-1.029-3.04-2.316-4.268-3.797a19.148 19.148 0 0 1-2.885-4.734 18.839 18.839 0 0 1-1.314-4.8 16.068 16.068 0 0 1-.172-2.468c.012-.846.058-1.693.183-2.536a20.95 20.95 0 0 1 .774-3.391c.5-1.537 1.183-2.99 2.062-4.35.766-1.188 1.615-2.313 2.636-3.29 1.841-1.763 3.92-3.18 6.317-4.1.282-.109.56-.23.847-.323.992-.316 2.046.369 2.123 1.401.048.65-.226 1.174-.799 1.517-.25.15-.527.247-.799.35a15.195 15.195 0 0 0-4.46 2.624 15.657 15.657 0 0 0-3.561 4.283 15.548 15.548 0 0 0-1.604 4.07 15.08 15.08 0 0 0-.392 2.579c-.027.446-.054.892-.046 1.337a15.216 15.216 0 0 0 1.42 6.257 16.129 16.129 0 0 0 2.135 3.4c.587.717 1.249 1.368 1.942 1.991.88.791 1.856 1.432 2.893 1.994a14.562 14.562 0 0 0 3.931 1.424c1.12.237 2.249.378 3.397.353l-.004-.004Z"/>
    <path fill="#fff" d="M25.735 35.252c1.594.07 3.129-.494 4.603-1.31 1.257-.697 2.187-1.72 3.019-2.857.166-.225.309-.466.486-.683.434-.529.986-.77 1.668-.58.677.189 1.082.65 1.21 1.337.075.403-.039.776-.245 1.121a13.085 13.085 0 0 1-1.286 1.799c-1.501 1.758-3.354 3.009-5.533 3.773a12.156 12.156 0 0 1-4.59.674c-1.522-.066-2.995-.369-4.404-.956-.83-.345-1.592-.81-2.339-1.306a11.793 11.793 0 0 1-2.766-2.567 12.67 12.67 0 0 1-1.754-3 12.137 12.137 0 0 1-.855-3.226c-.064-.556-.127-1.108-.127-1.668 0-.888.146-1.758.324-2.62.426-2.054 1.341-3.88 2.68-5.486 1.417-1.698 3.175-2.932 5.248-3.721a13.642 13.642 0 0 1 3.256-.776c1.14-.135 2.28-.066 3.407.145 1.991.37 3.808 1.152 5.421 2.378 1.359 1.03 2.52 2.242 3.35 3.748.53.959.093 2.075-.926 2.385-.67.205-1.428-.075-1.853-.695-.303-.442-.588-.895-.934-1.308-1.56-1.863-3.534-3.007-5.939-3.349-2.543-.36-4.869.24-6.934 1.774-1.92 1.426-3.128 3.327-3.615 5.663a9.2 9.2 0 0 0 .34 5.016 9.378 9.378 0 0 0 2.208 3.52c1.495 1.511 3.288 2.442 5.421 2.694.446.052.892.072 1.46.076v.005Z"/>
    <path fill="#fff" d="M18.46 50.08a1.833 1.833 0 0 1-.596-.096 20.445 20.445 0 0 1-2.897-1.155c-.91-.453-1.843-.874-2.694-1.434-1.299-.853-2.57-1.744-3.715-2.808a29.754 29.754 0 0 1-1.93-1.955 23.746 23.746 0 0 1-2.17-2.81 25.92 25.92 0 0 1-3.024-6.332c-.46-1.442-.753-2.92-.951-4.416C.342 28.012.236 26.94.276 25.87c.033-.869.066-1.737.158-2.605.14-1.294.388-2.56.691-3.82.091-.374.23-.716.525-.99.514-.477 1.193-.58 1.828-.247.602.314.967 1.002.857 1.644-.056.33-.133.656-.21.983-.26 1.088-.411 2.192-.508 3.306-.089 1.005-.075 2.009-.044 3.012.023.736.129 1.467.235 2.197.162 1.12.442 2.212.78 3.288.237.759.542 1.49.863 2.218.716 1.625 1.644 3.123 2.732 4.522.805 1.033 1.708 1.973 2.67 2.868a20.525 20.525 0 0 0 3.545 2.636 21.339 21.339 0 0 0 4.267 1.944c.17.056.34.116.5.193.8.394 1.162 1.376.757 2.167-.296.575-.801.884-1.465.894h.004Z"/>
    <path fill="#fff" d="M26.316 51.15c-.247 0-.494-.016-.739.004-.544.042-1.322-.412-1.58-1.149-.23-.654.171-1.804 1.175-2.034.492-.112 1-.102 1.501-.122 2.755-.098 5.381-.745 7.883-1.877a21.88 21.88 0 0 0 4.371-2.61 20.417 20.417 0 0 0 3.154-2.997 40.102 40.102 0 0 0 1.764-2.28c.3-.414.556-.864.833-1.296.182-.282.435-.477.742-.607.727-.304 1.422.022 1.777.42.471.526.566 1.279.212 1.902a22.838 22.838 0 0 1-1.478 2.276 25.982 25.982 0 0 1-2.152 2.567 25.325 25.325 0 0 1-6.259 4.79 25.121 25.121 0 0 1-5.377 2.152 22.504 22.504 0 0 1-3.922.726c-.635.057-1.268.129-1.907.129l.002.006Z"/>
    <path fill="#fff" d="M26.046 6.952c2.155.054 4.24.465 6.253 1.235a18.782 18.782 0 0 1 5.462 3.224c1.044.883 2.019 1.833 2.843 2.927.511.678 1.005 1.37 1.38 2.137.21.43.264.866.085 1.328-.267.685-1.037 1.117-1.759.976-.534-.104-.95-.37-1.229-.845a15.03 15.03 0 0 0-1.571-2.21 16.335 16.335 0 0 0-3.408-3.007 15.474 15.474 0 0 0-3.206-1.596 14.913 14.913 0 0 0-3.453-.814 23.392 23.392 0 0 0-1.872-.134c-.6-.019-1.062-.32-1.396-.81-.503-.737-.171-2.272 1.267-2.409.198-.02.403-.002.604-.002Z"/>
  </g>
  <defs>
    <clipPath id="a">
      <path fill="#fff" d="M.267.523h209.288v50.632H.267z"/>
    </clipPath>
  </defs>
</svg>
