<svg xmlns="http://www.w3.org/2000/svg" fill="none" viewBox="0 0 160 23">
  <g fill="#fff" clip-path="url(#a)">
    <path d="M107.13 1.008c2.874-.066 5.293.668 7.404 2.29 2.081 1.596 3.414 3.695 3.868 6.286.58 3.309-.027 6.357-2.204 9-1.483 1.8-3.403 2.916-5.641 3.521-1.924.52-3.88.552-5.808.155-3.46-.713-6.061-2.622-7.638-5.827a10.25 10.25 0 0 1-1.073-4.934c.163-4.535 2.84-8.42 7.309-9.902.447-.148.903-.27 1.362-.378.865-.206 1.747-.234 2.421-.211Zm.179 16.182c3.076.127 5.642-2.403 5.646-5.381.005-3.256-2.53-5.557-5.646-5.56-3.23-.002-5.513 2.595-5.558 5.441-.046 2.963 2.552 5.651 5.558 5.5Zm29.631-6.73c1.578 0 3.156.012 4.732-.007.432-.005.575.14.574.572-.006 1.997-.169 3.956-1.034 5.802-1.312 2.803-3.537 4.46-6.477 5.285-1.502.422-3.04.515-4.547.328-3.992-.492-6.949-2.485-8.496-6.303-.762-1.88-.905-3.84-.714-5.843.172-1.808.743-3.463 1.752-4.974 1.066-1.597 2.529-2.69 4.272-3.455 1.996-.877 4.106-1.03 6.218-.81 3.443.357 6.076 2.03 7.709 5.15.208.396.134.583-.271.746-1.36.546-2.714 1.107-4.061 1.682-.428.181-.649.073-.839-.347-.756-1.677-2.122-2.54-3.917-2.582-1.409-.033-2.718.413-3.685 1.525-1.019 1.172-1.506 2.558-1.554 4.109-.035 1.157.036 2.293.479 3.382.96 2.36 2.984 3.242 5.429 2.989 1.099-.114 2.097-.454 2.777-1.401.249-.348.412-.736.547-1.144.118-.354.022-.45-.326-.446-1.072.01-2.145.005-3.219.003-.619-.001-.665-.05-.667-.681-.003-.96-.001-1.922 0-2.882 0-.685.013-.697.68-.697 1.546-.002 3.092 0 4.639 0h-.001Zm15.571-9.44c2.083-.059 4.011.53 5.875 1.398.314.146.432.307.25.653a149.064 149.064 0 0 0-1.739 3.407c-.169.342-.338.406-.646.166-.736-.572-1.573-.913-2.488-1.09a2.647 2.647 0 0 0-2.148.472c-.788.572-.765 1.683.028 2.243.643.454 1.383.676 2.125.893 1.339.392 2.634.874 3.751 1.742 1.237.962 1.903 2.215 2.059 3.779.16 1.583-.059 3.075-.86 4.459-.903 1.56-2.293 2.501-4.002 2.952-3.546.936-6.832.27-9.892-1.69-.28-.181-.288-.352-.142-.62a182.9 182.9 0 0 0 1.907-3.589c.187-.364.353-.365.641-.12.923.786 1.944 1.399 3.147 1.659.797.172 1.596.211 2.373-.086.599-.23 1.012-.657 1.117-1.297.117-.72-.065-1.34-.738-1.749-.928-.563-1.98-.809-2.982-1.184-.884-.332-1.789-.615-2.581-1.154-1.247-.85-1.991-2.04-2.165-3.509-.232-1.95.092-3.807 1.384-5.38 1.232-1.498 2.873-2.207 4.781-2.352.313-.024.63-.004.946-.004l-.001.002ZM93.55 5.243c0 .819.008 1.637-.003 2.456-.003.21.11.502-.118.609-.246.116-.371-.18-.513-.327a5.506 5.506 0 0 0-2.562-1.533c-2.525-.695-5.345.485-6.357 3.016-.863 2.158-.588 4.185.902 5.977.902 1.085 2.117 1.647 3.543 1.747 1.783.125 3.272-.494 4.53-1.728.12-.118.239-.3.435-.215.194.085.14.298.141.465.004 1.747-.002 3.496.007 5.243 0 .348-.12.559-.462.67-1.594.515-3.195.922-4.902.87-2.312-.07-4.362-.832-6.156-2.23-2.226-1.737-3.617-4.032-4.04-6.826-.847-5.588 2.334-10.286 7.144-11.89 2.701-.902 5.335-.662 7.95.32.325.123.464.341.462.685-.008.897-.003 1.795-.003 2.692l.003-.001Zm-27.169 6.792V2.49c0-.614.316-.921.947-.921 1.12.001 2.241-.008 3.36.01 3.228.053 5.44 2.313 5.44 5.542.002 3.087-2.007 5.107-4.933 5.44-1.013.114-1.023.107-.448.938 1.835 2.657 3.682 5.306 5.51 7.97.186.272.596.577.444.874-.16.312-.636.09-.97.134-.386.052-.642-.11-.862-.437-1.444-2.142-2.905-4.273-4.363-6.406-.603-.884-1.214-1.765-1.821-2.647-.118-.17-.238-.362-.487-.29-.266.077-.213.322-.213.517-.004 2.82 0 5.638-.008 8.458 0 .254.125.61-.172.729-.393.158-.844.139-1.25.005-.232-.077-.171-.349-.171-.546-.004-2.362-.003-4.725-.003-7.087v-2.74.002ZM69.723 3h-1.098c-.619.004-.642.023-.642.636 0 2.124-.006 4.247.002 6.37.005 1.405-.177 1.201 1.235 1.221.964.014 1.926-.012 2.838-.362 2.016-.776 2.66-2.54 2.412-4.462-.18-1.384-.796-2.5-2.154-3.033A5.964 5.964 0 0 0 69.724 3ZM62.48 22.48c-.527 0-.885-.23-1.073-.688-.769-1.879-1.546-3.755-2.298-5.64-.14-.353-.34-.476-.706-.475-2.572.01-5.145.014-7.715-.002-.407-.003-.583.17-.722.518-.76 1.899-1.554 3.785-2.3 5.69-.18.46-.424.62-.909.605-1.071-.03-1.057-.01-.645-1.005 1.418-3.433 2.822-6.872 4.23-10.31l3.935-9.613c.035-.087.076-.173.112-.26.043-.101.076-.224.207-.231.16-.01.199.129.246.246.366.905.734 1.81 1.097 2.715l6.576 16.34c.206.51.429 1.015.626 1.53.208.54.178.572-.423.578h-.237l-.001.001Zm-7.987-8.228c1.057 0 2.115.003 3.172 0 .585-.002.64-.082.42-.64-.397-1.011-.801-2.02-1.202-3.03-.702-1.77-1.402-3.541-2.107-5.31-.044-.11-.05-.283-.207-.282-.155.003-.16.175-.205.286-.256.626-.51 1.253-.762 1.882-.885 2.206-1.765 4.416-2.663 6.617-.158.387-.07.491.333.485 1.073-.018 2.147-.007 3.22-.007ZM11.808 22.8c-3.885-.064-6.978-1.654-9.127-4.903C1.32 15.843.783 13.547 1 11.068c.228-2.568 1.235-4.785 3.02-6.6C5.708 2.75 7.783 1.72 10.203 1.354c2.963-.447 5.59.277 7.968 2.032.716.527.996 1.366.728 2.198-.134.417-.336.13-.47-.006-.586-.599-1.214-1.142-1.934-1.58-3.132-1.903-7.135-1.796-10.077.363-2.251 1.653-3.5 3.914-3.788 6.699-.267 2.595.311 4.961 2.01 6.966 1.755 2.07 4.023 3.189 6.755 3.322 2.749.134 5.042-.899 7.014-2.746.109-.102.207-.288.387-.198.163.08.098.28.127.428.197 1.026-.278 1.668-1.122 2.202-1.835 1.163-3.797 1.822-5.995 1.764l.002.001Zm21.889-10.765v-9.78c0-.675.014-.687.689-.687h8.756c.637 0 .683.046.686.66.004.683-.068.77-.696.771-2.398.004-4.797 0-7.195.001-.482 0-.724.248-.725.743 0 1.985.01 3.969-.007 5.953-.004.455.152.6.602.595 2.383-.016 4.766-.01 7.147-.003.225 0 .535-.093.628.19.118.357.147.756-.033 1.102-.107.206-.37.13-.568.13-2.351.004-4.703.003-7.053.003-.475 0-.712.233-.713.698 0 2.678.01 5.355-.01 8.032-.004.482.156.62.628.616 2.429-.019 4.858-.011 7.29-.005.237 0 .563-.103.656.216.1.344.13.728-.033 1.063-.102.21-.365.143-.564.143-2.303.002-4.608.002-6.911.002h-1.846c-.7-.001-.725-.025-.725-.711v-9.733h-.003Zm-10.5-.038V2.41c0-.562.29-.843.868-.842h.047c.68.002.687.007.687.683V20.29c0 .506.249.76.746.76 1.482 0 2.965-.002 4.447.002.567.001.595.04.596.687 0 .681-.037.737-.605.737-2.05.003-4.1.003-6.15 0-.588 0-.636-.052-.637-.66v-9.823l.001.004Z"/>
  </g>
  <defs>
    <clipPath id="a">
      <path fill="#fff" d="M.943.965H159.64v21.84H.943z"/>
    </clipPath>
  </defs>
</svg>