<svg xmlns="http://www.w3.org/2000/svg" fill="none" viewBox="0 0 269 494">
  <path stroke="#71717A" stroke-dasharray="4 4" d="M71.888 466.598h-35c-16.569 0-30-13.432-30-30V0">
    <animate attributeName="stroke-dashoffset" dur="2s" repeatCount="indefinite" values="0; 40"/>
  </path>
  <path stroke="#71717A" stroke-dasharray="4 4" d="M71.888 371.903h-35c-16.569 0-30-13.432-30-30v-71.611">
    <animate attributeName="stroke-dashoffset" dur="2s" repeatCount="indefinite" values="0; 40"/>
  </path>
  <path stroke="#71717A" stroke-dasharray="4 4" d="M71.888 295.208h-35c-16.569 0-30-13.431-30-30v-71.61">
    <animate attributeName="stroke-dashoffset" dur="2s" repeatCount="indefinite" values="0; 40"/>
  </path>
  <path stroke="#71717A" stroke-dasharray="4 4" d="M71.888 218.513h-35c-16.569 0-30-13.431-30-30v-71.61">
    <animate attributeName="stroke-dashoffset" dur="2s" repeatCount="indefinite" values="0; 40"/>
  </path>
  <path stroke="#71717A" stroke-dasharray="4 4" d="M71.888 141.818h-35c-16.569 0-30-13.431-30-30v-71.61">
    <animate attributeName="stroke-dashoffset" dur="2s" repeatCount="indefinite" values="0; 40"/>
  </path>
  <rect width="238.033" height="63" x="30.037" y="430.598" fill="#18181B" rx="5"/>
  <path fill="#fff" d="M84.62 466.598v-11.2h8.049v1.168h-6.784v4h6.064v1.152h-6.064v4.88H84.62Zm13.333.176c-2 0-3.168-1.344-3.168-3.312v-5.136h1.232v4.832c0 1.536.832 2.496 2.288 2.496 1.408 0 2.48-1.04 2.48-2.592v-4.736h1.216v8.272h-1.216v-1.44c-.56.896-1.408 1.616-2.832 1.616Zm6.819-.176v-8.272h1.232v1.44c.544-.896 1.408-1.616 2.832-1.616 2 0 3.168 1.344 3.168 3.312v5.136h-1.232v-4.832c0-1.536-.832-2.496-2.288-2.496-1.424 0-2.48 1.04-2.48 2.592v4.736h-1.232Zm13.331.176c-1.984 0-3.952-1.568-3.952-4.288v-.032c0-2.704 1.968-4.304 3.952-4.304 1.536 0 2.528.832 3.168 1.76v-4.992h1.232v11.68h-1.232v-1.664c-.672.992-1.648 1.84-3.168 1.84Zm.224-1.104c1.536 0 2.992-1.296 2.992-3.2v-.032c0-1.904-1.456-3.184-2.992-3.184-1.6 0-2.912 1.184-2.912 3.184v.032c0 1.952 1.344 3.2 2.912 3.2Zm6.929.928v-8.272h1.232v2.16c.608-1.376 1.808-2.368 3.376-2.304v1.328h-.096c-1.808 0-3.28 1.296-3.28 3.792v3.296h-1.232Zm8.542.176c-1.552 0-3.088-.88-3.088-2.576v-.032c0-1.776 1.44-2.704 3.536-2.704 1.056 0 1.792.144 2.528.352v-.256c0-1.472-.896-2.24-2.448-2.24-.976 0-1.744.24-2.512.592l-.368-1.008c.912-.416 1.792-.704 3.008-.704 1.168 0 2.08.32 2.672.912.576.576.864 1.376.864 2.432v5.056h-1.216v-1.232c-.576.736-1.52 1.408-2.976 1.408Zm.24-.992c1.52 0 2.752-.912 2.752-2.224v-.768a8.504 8.504 0 0 0-2.416-.352c-1.536 0-2.416.672-2.416 1.664v.032c0 1.04.96 1.648 2.08 1.648Zm6.594-9.264v-1.36h1.408v1.36h-1.408Zm.08 10.08v-8.272h1.232v8.272h-1.232Zm6.827.16c-1.184 0-2.496-.464-3.424-1.216l.624-.88c.896.672 1.888 1.056 2.864 1.056.992 0 1.712-.512 1.712-1.312v-.032c0-.832-.976-1.152-2.064-1.456-1.296-.368-2.736-.816-2.736-2.336v-.032c0-1.424 1.184-2.368 2.816-2.368 1.008 0 2.128.352 2.976.912l-.56.928c-.768-.496-1.648-.8-2.448-.8-.976 0-1.6.512-1.6 1.2v.032c0 .784 1.024 1.088 2.128 1.424 1.28.384 2.656.88 2.656 2.368v.032c0 1.568-1.296 2.48-2.944 2.48Zm5.265-10.24v-1.36h1.408v1.36h-1.408Zm.08 10.08v-8.272h1.232v8.272h-1.232Zm4.091 0v-8.272h1.232v1.44c.544-.896 1.408-1.616 2.832-1.616 2 0 3.168 1.344 3.168 3.312v5.136h-1.232v-4.832c0-1.536-.832-2.496-2.288-2.496-1.424 0-2.48 1.04-2.48 2.592v4.736h-1.232Zm13.523 2.592c-1.376 0-2.656-.384-3.76-1.152l.56-.96c.944.688 2 1.056 3.184 1.056 1.824 0 3.008-1.008 3.008-2.944v-.976c-.72.96-1.728 1.744-3.248 1.744-1.984 0-3.888-1.488-3.888-3.872v-.032c0-2.416 1.92-3.904 3.888-3.904 1.552 0 2.56.768 3.232 1.664v-1.488h1.232v6.832c0 1.28-.384 2.256-1.056 2.928-.736.736-1.84 1.104-3.152 1.104Zm-.016-4.32c1.568 0 3.04-1.136 3.04-2.8v-.032c0-1.696-1.472-2.8-3.04-2.8s-2.864 1.088-2.864 2.784v.032c0 1.664 1.328 2.816 2.864 2.816Zm16.462 1.904c-2.768 0-4.656-1.696-4.656-4.864v-6.512h1.264v6.432c0 2.416 1.28 3.776 3.424 3.776 2.064 0 3.376-1.248 3.376-3.696v-6.512h1.264v6.416c0 3.264-1.872 4.96-4.672 4.96Zm7.453 2.384v-10.832h1.232v1.664c.672-.992 1.648-1.84 3.168-1.84 1.984 0 3.952 1.568 3.952 4.288v.032c0 2.704-1.952 4.304-3.952 4.304-1.536 0-2.528-.832-3.168-1.76v4.144h-1.232Zm4.176-3.488c1.6 0 2.912-1.184 2.912-3.184v-.032c0-1.952-1.344-3.2-2.912-3.2-1.536 0-2.992 1.296-2.992 3.184v.032c0 1.92 1.456 3.2 2.992 3.2Zm9.921 1.104c-1.984 0-3.952-1.568-3.952-4.288v-.032c0-2.704 1.968-4.304 3.952-4.304 1.536 0 2.528.832 3.168 1.76v-4.992h1.232v11.68h-1.232v-1.664c-.672.992-1.648 1.84-3.168 1.84Zm.224-1.104c1.536 0 2.992-1.296 2.992-3.2v-.032c0-1.904-1.456-3.184-2.992-3.184-1.6 0-2.912 1.184-2.912 3.184v.032c0 1.952 1.344 3.2 2.912 3.2Zm9.393 1.104c-1.552 0-3.088-.88-3.088-2.576v-.032c0-1.776 1.44-2.704 3.536-2.704 1.056 0 1.792.144 2.528.352v-.256c0-1.472-.896-2.24-2.448-2.24-.976 0-1.744.24-2.512.592l-.368-1.008c.912-.416 1.792-.704 3.008-.704 1.168 0 2.08.32 2.672.912.576.576.864 1.376.864 2.432v5.056h-1.216v-1.232c-.576.736-1.52 1.408-2.976 1.408Zm.24-.992c1.52 0 2.752-.912 2.752-2.224v-.768a8.504 8.504 0 0 0-2.416-.352c-1.536 0-2.416.672-2.416 1.664v.032c0 1.04.96 1.648 2.08 1.648Zm9.251.96c-1.328 0-2.336-.656-2.336-2.336v-4.992h-1.152v-1.088h1.152v-2.496h1.232v2.496h2.624v1.088h-2.624v4.832c0 1.008.56 1.376 1.392 1.376.416 0 .768-.08 1.2-.288v1.056a3.099 3.099 0 0 1-1.488.352Zm4.203-3.776c.176 1.744 1.456 2.752 2.912 2.752 1.136 0 1.936-.464 2.608-1.168l.768.688c-.832.928-1.84 1.552-3.408 1.552-2.272 0-4.128-1.744-4.128-4.32 0-2.4 1.68-4.32 3.968-4.32 2.448 0 3.856 1.952 3.856 4.384 0 .112 0 .24-.016.432h-6.56Zm0-.992h5.328c-.144-1.504-1.008-2.784-2.64-2.784-1.424 0-2.512 1.184-2.688 2.784Zm11.469 4.784c-1.184 0-2.496-.464-3.424-1.216l.624-.88c.896.672 1.888 1.056 2.864 1.056.992 0 1.712-.512 1.712-1.312v-.032c0-.832-.976-1.152-2.064-1.456-1.296-.368-2.736-.816-2.736-2.336v-.032c0-1.424 1.184-2.368 2.816-2.368 1.008 0 2.128.352 2.976.912l-.56.928c-.768-.496-1.648-.8-2.448-.8-.976 0-1.6.512-1.6 1.2v.032c0 .784 1.024 1.088 2.128 1.424 1.28.384 2.656.88 2.656 2.368v.032c0 1.568-1.296 2.48-2.944 2.48Z"/>
  <rect width="208.523" height="63" x="30.037" y="106.598" fill="#18181B" rx="5"/>
  <path fill="#fff" d="M87.733 142.598v-11.2h1.264v11.2h-1.264Zm4.336 0v-8.272H93.3v1.44c.544-.896 1.408-1.616 2.832-1.616 2 0 3.168 1.344 3.168 3.312v5.136h-1.232v-4.832c0-1.536-.832-2.496-2.288-2.496-1.424 0-2.48 1.04-2.48 2.592v4.736h-1.232Zm12.315.064-3.584-8.336h1.36l2.784 6.864 2.8-6.864h1.328l-3.6 8.336h-1.088Zm6.874-3.696c.176 1.744 1.456 2.752 2.912 2.752 1.136 0 1.936-.464 2.608-1.168l.768.688c-.832.928-1.84 1.552-3.408 1.552-2.272 0-4.128-1.744-4.128-4.32 0-2.4 1.68-4.32 3.968-4.32 2.448 0 3.856 1.952 3.856 4.384 0 .112 0 .24-.016.432h-6.56Zm0-.992h5.328c-.144-1.504-1.008-2.784-2.64-2.784-1.424 0-2.512 1.184-2.688 2.784Zm11.469 4.784c-1.184 0-2.496-.464-3.424-1.216l.624-.88c.896.672 1.888 1.056 2.864 1.056.992 0 1.712-.512 1.712-1.312v-.032c0-.832-.976-1.152-2.064-1.456-1.296-.368-2.736-.816-2.736-2.336v-.032c0-1.424 1.184-2.368 2.816-2.368 1.008 0 2.128.352 2.976.912l-.56.928c-.768-.496-1.648-.8-2.448-.8-.976 0-1.6.512-1.6 1.2v.032c0 .784 1.024 1.088 2.128 1.424 1.28.384 2.656.88 2.656 2.368v.032c0 1.568-1.296 2.48-2.944 2.48Zm7.844-.016c-1.328 0-2.336-.656-2.336-2.336v-4.992h-1.152v-1.088h1.152v-2.496h1.232v2.496h2.624v1.088h-2.624v4.832c0 1.008.56 1.376 1.392 1.376.416 0 .768-.08 1.2-.288v1.056a3.099 3.099 0 0 1-1.488.352Zm7.243.048c-2.48 0-4.288-1.952-4.288-4.288v-.032c0-2.336 1.824-4.32 4.32-4.32 2.48 0 4.304 1.952 4.304 4.288v.032c0 2.336-1.84 4.32-4.336 4.32Zm.032-1.104c1.792 0 3.04-1.44 3.04-3.184v-.032c0-1.776-1.328-3.232-3.072-3.232-1.792 0-3.024 1.456-3.024 3.2v.032c0 1.776 1.312 3.216 3.056 3.216Zm6.535.912v-8.272h1.232v2.16c.608-1.376 1.808-2.368 3.376-2.304v1.328h-.096c-1.808 0-3.28 1.296-3.28 3.792v3.296h-1.232Zm15.97.176c-2.768 0-4.656-1.696-4.656-4.864v-6.512h1.264v6.432c0 2.416 1.28 3.776 3.424 3.776 2.064 0 3.376-1.248 3.376-3.696v-6.512h1.264v6.416c0 3.264-1.872 4.96-4.672 4.96Zm7.452 2.384v-10.832h1.232v1.664c.672-.992 1.648-1.84 3.168-1.84 1.984 0 3.952 1.568 3.952 4.288v.032c0 2.704-1.952 4.304-3.952 4.304-1.536 0-2.528-.832-3.168-1.76v4.144h-1.232Zm4.176-3.488c1.6 0 2.912-1.184 2.912-3.184v-.032c0-1.952-1.344-3.2-2.912-3.2-1.536 0-2.992 1.296-2.992 3.184v.032c0 1.92 1.456 3.2 2.992 3.2Zm9.921 1.104c-1.984 0-3.952-1.568-3.952-4.288v-.032c0-2.704 1.968-4.304 3.952-4.304 1.536 0 2.528.832 3.168 1.76v-4.992h1.232v11.68h-1.232v-1.664c-.672.992-1.648 1.84-3.168 1.84Zm.224-1.104c1.536 0 2.992-1.296 2.992-3.2v-.032c0-1.904-1.456-3.184-2.992-3.184-1.6 0-2.912 1.184-2.912 3.184v.032c0 1.952 1.344 3.2 2.912 3.2Zm9.393 1.104c-1.552 0-3.088-.88-3.088-2.576v-.032c0-1.776 1.44-2.704 3.536-2.704 1.056 0 1.792.144 2.528.352v-.256c0-1.472-.896-2.24-2.448-2.24-.976 0-1.744.24-2.512.592l-.368-1.008c.912-.416 1.792-.704 3.008-.704 1.168 0 2.08.32 2.672.912.576.576.864 1.376.864 2.432v5.056h-1.216v-1.232c-.576.736-1.52 1.408-2.976 1.408Zm.24-.992c1.52 0 2.752-.912 2.752-2.224v-.768a8.504 8.504 0 0 0-2.416-.352c-1.536 0-2.416.672-2.416 1.664v.032c0 1.04.96 1.648 2.08 1.648Zm9.252.96c-1.328 0-2.336-.656-2.336-2.336v-4.992h-1.152v-1.088h1.152v-2.496h1.232v2.496h2.624v1.088h-2.624v4.832c0 1.008.56 1.376 1.392 1.376.416 0 .768-.08 1.2-.288v1.056a3.099 3.099 0 0 1-1.488.352Zm4.202-3.776c.176 1.744 1.456 2.752 2.912 2.752 1.136 0 1.936-.464 2.608-1.168l.768.688c-.832.928-1.84 1.552-3.408 1.552-2.272 0-4.128-1.744-4.128-4.32 0-2.4 1.68-4.32 3.968-4.32 2.448 0 3.856 1.952 3.856 4.384 0 .112 0 .24-.016.432h-6.56Zm0-.992h5.328c-.144-1.504-1.008-2.784-2.64-2.784-1.424 0-2.512 1.184-2.688 2.784Zm11.469 4.784c-1.184 0-2.496-.464-3.424-1.216l.624-.88c.896.672 1.888 1.056 2.864 1.056.992 0 1.712-.512 1.712-1.312v-.032c0-.832-.976-1.152-2.064-1.456-1.296-.368-2.736-.816-2.736-2.336v-.032c0-1.424 1.184-2.368 2.816-2.368 1.008 0 2.128.352 2.976.912l-.56.928c-.768-.496-1.648-.8-2.448-.8-.976 0-1.6.512-1.6 1.2v.032c0 .784 1.024 1.088 2.128 1.424 1.28.384 2.656.88 2.656 2.368v.032c0 1.568-1.296 2.48-2.944 2.48Z"/>
  <rect width="168.098" height="63" x="30.037" y="268.598" fill="#18181B" rx="5"/>
  <rect width="197.755" height="63" x="30.037" y="349.598" fill="#18181B" rx="5"/>
  <path fill="#fff" d="M87.12 385.598v-11.2h4.769c1.28 0 2.288.368 2.928.992.464.48.72 1.072.72 1.792v.032c0 1.456-.896 2.208-1.776 2.592 1.328.4 2.4 1.168 2.4 2.704v.032c0 1.92-1.616 3.056-4.064 3.056H87.12Zm1.249-6.208h3.312c1.52 0 2.576-.688 2.576-2v-.032c0-1.104-.88-1.824-2.48-1.824h-3.408v3.856Zm0 5.072h3.76c1.696 0 2.752-.752 2.752-2v-.032c0-1.216-1.024-1.92-2.976-1.92h-3.536v3.952Zm13.866 1.328c-2.48 0-4.287-1.952-4.287-4.288v-.032c0-2.336 1.824-4.32 4.319-4.32 2.48 0 4.304 1.952 4.304 4.288v.032c0 2.336-1.84 4.32-4.336 4.32Zm.032-1.104c1.792 0 3.04-1.44 3.04-3.184v-.032c0-1.776-1.328-3.232-3.072-3.232-1.792 0-3.023 1.456-3.023 3.2v.032c0 1.776 1.311 3.216 3.055 3.216Zm9 1.088c-1.552 0-3.088-.88-3.088-2.576v-.032c0-1.776 1.44-2.704 3.536-2.704 1.056 0 1.792.144 2.528.352v-.256c0-1.472-.896-2.24-2.448-2.24-.976 0-1.744.24-2.512.592l-.368-1.008c.912-.416 1.792-.704 3.008-.704 1.168 0 2.08.32 2.672.912.576.576.864 1.376.864 2.432v5.056h-1.216v-1.232c-.576.736-1.52 1.408-2.976 1.408Zm.24-.992c1.52 0 2.752-.912 2.752-2.224v-.768a8.504 8.504 0 0 0-2.416-.352c-1.536 0-2.416.672-2.416 1.664v.032c0 1.04.96 1.648 2.08 1.648Zm6.562.816v-8.272h1.232v2.16c.608-1.376 1.808-2.368 3.376-2.304v1.328h-.096c-1.808 0-3.28 1.296-3.28 3.792v3.296h-1.232Zm9.612.176c-1.984 0-3.952-1.568-3.952-4.288v-.032c0-2.704 1.968-4.304 3.952-4.304 1.536 0 2.528.832 3.168 1.76v-4.992h1.232v11.68h-1.232v-1.664c-.672.992-1.648 1.84-3.168 1.84Zm.224-1.104c1.536 0 2.992-1.296 2.992-3.2v-.032c0-1.904-1.456-3.184-2.992-3.184-1.6 0-2.912 1.184-2.912 3.184v.032c0 1.952 1.344 3.2 2.912 3.2Zm11.934.928v-11.2h1.28l4.08 6.112 4.08-6.112h1.28v11.2h-1.264v-9.072l-4.08 6h-.064l-4.08-5.984v9.056h-1.232Zm14.419-3.632c.176 1.744 1.456 2.752 2.912 2.752 1.136 0 1.936-.464 2.608-1.168l.768.688c-.832.928-1.84 1.552-3.408 1.552-2.272 0-4.128-1.744-4.128-4.32 0-2.4 1.68-4.32 3.968-4.32 2.448 0 3.856 1.952 3.856 4.384 0 .112 0 .24-.016.432h-6.56Zm0-.992h5.328c-.144-1.504-1.008-2.784-2.64-2.784-1.424 0-2.512 1.184-2.688 2.784Zm9.469.992c.176 1.744 1.456 2.752 2.912 2.752 1.136 0 1.936-.464 2.608-1.168l.768.688c-.832.928-1.84 1.552-3.408 1.552-2.272 0-4.128-1.744-4.128-4.32 0-2.4 1.68-4.32 3.968-4.32 2.448 0 3.856 1.952 3.856 4.384 0 .112 0 .24-.016.432h-6.56Zm0-.992h5.328c-.144-1.504-1.008-2.784-2.64-2.784-1.424 0-2.512 1.184-2.688 2.784Zm11.5 4.768c-1.328 0-2.336-.656-2.336-2.336v-4.992h-1.152v-1.088h1.152v-2.496h1.232v2.496h2.624v1.088h-2.624v4.832c0 1.008.56 1.376 1.392 1.376.416 0 .768-.08 1.2-.288v1.056a3.099 3.099 0 0 1-1.488.352Zm3.733-10.224v-1.36h1.408v1.36h-1.408Zm.08 10.08v-8.272h1.232v8.272h-1.232Zm4.091 0v-8.272h1.232v1.44c.544-.896 1.408-1.616 2.832-1.616 2 0 3.168 1.344 3.168 3.312v5.136h-1.232v-4.832c0-1.536-.832-2.496-2.288-2.496-1.424 0-2.48 1.04-2.48 2.592v4.736h-1.232Zm13.524 2.592c-1.376 0-2.656-.384-3.76-1.152l.56-.96c.944.688 2 1.056 3.184 1.056 1.824 0 3.008-1.008 3.008-2.944v-.976c-.72.96-1.728 1.744-3.248 1.744-1.984 0-3.888-1.488-3.888-3.872v-.032c0-2.416 1.92-3.904 3.888-3.904 1.552 0 2.56.768 3.232 1.664v-1.488h1.232v6.832c0 1.28-.384 2.256-1.056 2.928-.736.736-1.84 1.104-3.152 1.104Zm-.016-4.32c1.568 0 3.04-1.136 3.04-2.8v-.032c0-1.696-1.472-2.8-3.04-2.8s-2.864 1.088-2.864 2.784v.032c0 1.664 1.328 2.816 2.864 2.816Zm9.713 1.888c-1.184 0-2.496-.464-3.424-1.216l.624-.88c.896.672 1.888 1.056 2.864 1.056.992 0 1.712-.512 1.712-1.312v-.032c0-.832-.976-1.152-2.064-1.456-1.296-.368-2.736-.816-2.736-2.336v-.032c0-1.424 1.184-2.368 2.816-2.368 1.008 0 2.128.352 2.976.912l-.56.928c-.768-.496-1.648-.8-2.448-.8-.976 0-1.6.512-1.6 1.2v.032c0 .784 1.024 1.088 2.128 1.424 1.28.384 2.656.88 2.656 2.368v.032c0 1.568-1.296 2.48-2.944 2.48Z"/>
  <rect width="117.186" height="21.665" y="43.433" fill="#D9D9D9" rx="10.832"/>
  <path fill="#000" d="M13.263 58.265v-8.272h2.871c2.6 0 4.396 1.785 4.396 4.113v.023c0 2.328-1.796 4.136-4.396 4.136h-2.871Zm.933-.862h1.938c2.092 0 3.427-1.418 3.427-3.25v-.024c0-1.831-1.335-3.273-3.427-3.273h-1.938v6.547Zm7.581.862 3.77-8.33h.874l3.77 8.33h-1.004l-.97-2.186h-4.502l-.98 2.186h-.958Zm2.305-3.025h3.77l-1.88-4.218-1.89 4.218Zm9.387 3.025v-7.409h-2.777v-.863h6.5v.863h-2.778v7.41h-.945Zm4.228 0 3.77-8.33h.874l3.77 8.33h-1.004l-.97-2.186h-4.502l-.98 2.186h-.958Zm2.305-3.025h3.77l-1.88-4.218-1.89 4.218Zm16.168 3.167c-2.517 0-4.206-1.973-4.206-4.254v-.024c0-2.28 1.713-4.277 4.23-4.277 2.517 0 4.207 1.973 4.207 4.254v.023c0 2.281-1.714 4.278-4.23 4.278Zm.024-.862c1.89 0 3.238-1.513 3.238-3.392v-.024c0-1.878-1.37-3.415-3.262-3.415-1.89 0-3.237 1.513-3.237 3.392v.023c0 1.88 1.37 3.416 3.261 3.416Zm10.007.85c-2.044 0-3.439-1.252-3.439-3.592v-4.81h.934v4.75c0 1.785.945 2.79 2.529 2.79 1.524 0 2.493-.922 2.493-2.73v-4.81h.934v4.74c0 2.41-1.383 3.662-3.451 3.662Zm8.366-.13v-7.409H71.79v-.863h6.5v.863h-2.777v7.41h-.946Zm6 0v-8.272h3.095c1.867 0 3.096.993 3.096 2.624v.024c0 1.784-1.489 2.706-3.25 2.706H81.5v2.918h-.934Zm.933-3.77h2.044c1.371 0 2.27-.732 2.27-1.82v-.023c0-1.181-.887-1.796-2.222-1.796H81.5v3.64Zm10.791 3.9c-2.044 0-3.439-1.252-3.439-3.592v-4.81h.934v4.75c0 1.785.945 2.79 2.529 2.79 1.524 0 2.493-.922 2.493-2.73v-4.81h.933v4.74c0 2.41-1.382 3.662-3.45 3.662Zm8.366-.13v-7.409H97.88v-.863h6.5v.863h-2.777v7.41h-.946Z"/>
  <rect width="27.92" height="27.92" x="46.043" y="124.138" stroke="url(#a)" stroke-width="2.08" rx="2.96"/>
  <path fill="url(#b)" d="M56.593 132.826h6.89v1.01h-6.89v-1.01Z"/>
  <path fill="url(#c)" d="M56.49 134.692h6.596v1.01H56.49v-1.01Z"/>
  <path fill="url(#d)" d="m56.51 142.809-.582-.613 2.911-3.064 2.91 2.451 1.747-2.451.582.613-2.328 3.064-2.911-2.451-2.328 2.451Z"/>
  <path fill="url(#e)" d="M61.77 136.56h-5.492v1.01h5.493v-1.01Z"/>
  <path fill="url(#f)" d="M65.409 130.024H54.598c-.551 0-.998.471-.998 1.051v14.047c0 .58.447 1.05.998 1.05h10.81c.552 0 .999-.47.999-1.05v-7.552h-.998v7.593H54.598v-14.129h10.81v6.536h.999v-6.495c0-.58-.447-1.051-.998-1.051Z"/>
  <rect width="168.098" height="63" x="30.037" y="187.598" fill="#18181B" rx="5"/>
  <path fill="#fff" d="M84.621 223.598v-11.2h3.888c3.52 0 5.952 2.416 5.952 5.568v.032c0 3.152-2.432 5.6-5.952 5.6h-3.888Zm1.264-1.168h2.624c2.832 0 4.64-1.92 4.64-4.4v-.032c0-2.48-1.808-4.432-4.64-4.432h-2.624v8.864Zm13.508 1.344c-1.552 0-3.088-.88-3.088-2.576v-.032c0-1.776 1.44-2.704 3.536-2.704 1.056 0 1.792.144 2.528.352v-.256c0-1.472-.896-2.24-2.448-2.24-.976 0-1.744.24-2.512.592l-.368-1.008c.912-.416 1.792-.704 3.008-.704 1.168 0 2.08.32 2.672.912.576.576.864 1.376.864 2.432v5.056h-1.216v-1.232c-.576.736-1.52 1.408-2.976 1.408Zm.24-.992c1.52 0 2.752-.912 2.752-2.224v-.768a8.505 8.505 0 0 0-2.416-.352c-1.536 0-2.416.672-2.416 1.664v.032c0 1.04.96 1.648 2.08 1.648Zm9.251.96c-1.328 0-2.336-.656-2.336-2.336v-4.992h-1.152v-1.088h1.152v-2.496h1.232v2.496h2.624v1.088h-2.624v4.832c0 1.008.56 1.376 1.392 1.376.416 0 .768-.08 1.2-.288v1.056a3.099 3.099 0 0 1-1.488.352Zm6.165.032c-1.552 0-3.088-.88-3.088-2.576v-.032c0-1.776 1.44-2.704 3.536-2.704 1.056 0 1.792.144 2.528.352v-.256c0-1.472-.896-2.24-2.448-2.24-.976 0-1.744.24-2.512.592l-.368-1.008c.912-.416 1.792-.704 3.008-.704 1.168 0 2.08.32 2.672.912.576.576.864 1.376.864 2.432v5.056h-1.216v-1.232c-.576.736-1.52 1.408-2.976 1.408Zm.24-.992c1.52 0 2.752-.912 2.752-2.224v-.768a8.504 8.504 0 0 0-2.416-.352c-1.536 0-2.416.672-2.416 1.664v.032c0 1.04.96 1.648 2.08 1.648Zm11.566.816v-11.2h4.816c1.376 0 2.48.416 3.184 1.12.544.544.864 1.328.864 2.208v.032c0 1.856-1.28 2.944-3.04 3.264l3.44 4.576h-1.552l-3.248-4.352h-3.2v4.352h-1.264Zm1.264-5.488h3.44c1.68 0 2.88-.864 2.88-2.304v-.032c0-1.376-1.056-2.208-2.864-2.208h-3.456v4.544Zm13.711 5.68c-2.48 0-4.288-1.952-4.288-4.288v-.032c0-2.336 1.824-4.32 4.32-4.32 2.48 0 4.304 1.952 4.304 4.288v.032c0 2.336-1.84 4.32-4.336 4.32Zm.032-1.104c1.792 0 3.04-1.44 3.04-3.184v-.032c0-1.776-1.328-3.232-3.072-3.232-1.792 0-3.024 1.456-3.024 3.2v.032c0 1.776 1.312 3.216 3.056 3.216Zm10.311 1.104c-2.48 0-4.288-1.952-4.288-4.288v-.032c0-2.336 1.824-4.32 4.32-4.32 2.48 0 4.304 1.952 4.304 4.288v.032c0 2.336-1.84 4.32-4.336 4.32Zm.032-1.104c1.792 0 3.04-1.44 3.04-3.184v-.032c0-1.776-1.328-3.232-3.072-3.232-1.792 0-3.024 1.456-3.024 3.2v.032c0 1.776 1.312 3.216 3.056 3.216Zm6.536.912v-8.272h1.232v1.392c.544-.816 1.28-1.568 2.672-1.568 1.344 0 2.208.72 2.656 1.648.592-.912 1.472-1.648 2.912-1.648 1.904 0 3.072 1.28 3.072 3.328v5.12h-1.232v-4.832c0-1.6-.8-2.496-2.144-2.496-1.248 0-2.288.928-2.288 2.56v4.768h-1.216v-4.864c0-1.552-.816-2.464-2.128-2.464-1.312 0-2.304 1.088-2.304 2.608v4.72h-1.232Zm17.955.16c-1.184 0-2.496-.464-3.424-1.216l.624-.88c.896.672 1.888 1.056 2.864 1.056.992 0 1.712-.512 1.712-1.312v-.032c0-.832-.976-1.152-2.064-1.456-1.296-.368-2.736-.816-2.736-2.336v-.032c0-1.424 1.184-2.368 2.816-2.368 1.008 0 2.128.352 2.976.912l-.56.928c-.768-.496-1.648-.8-2.448-.8-.976 0-1.6.512-1.6 1.2v.032c0 .784 1.024 1.088 2.128 1.424 1.28.384 2.656.88 2.656 2.368v.032c0 1.568-1.296 2.48-2.944 2.48Z"/>
  <rect width="27.92" height="27.92" x="46.043" y="205.138" stroke="url(#g)" stroke-width="2.08" rx="2.96"/>
  <rect width="18.913" height="18.913" x="50.546" y="209.642" fill="#fff" rx="4" style="mix-blend-mode:multiply"/>
  <path fill="url(#h)" d="M65.913 226.191h-11.82a1.185 1.185 0 0 1-1.183-1.182v-8.866a1.182 1.182 0 0 1 1.182-1.182h3.35c.255 0 .504.083.709.236l2.049 1.537h5.713a1.185 1.185 0 0 1 1.182 1.182v7.093a1.182 1.182 0 0 1-1.182 1.182Zm-8.472-10.048h-3.35l.001 8.866h11.821v-7.093h-6.107l-2.365-1.773Z"/>
  <path fill="url(#i)" d="M67.095 214.961h-6.107l-2.365-1.773h-4.53v-1.182h4.53c.256 0 .505.083.71.236l2.049 1.537h5.713v1.182Z"/>
  <path fill="#fff" d="M85.621 304.598v-11.2h3.888c3.52 0 5.952 2.416 5.952 5.568v.032c0 3.152-2.432 5.6-5.952 5.6h-3.888Zm1.264-1.168h2.624c2.832 0 4.64-1.92 4.64-4.4v-.032c0-2.48-1.808-4.432-4.64-4.432h-2.624v8.864Zm13.508 1.344c-1.552 0-3.088-.88-3.088-2.576v-.032c0-1.776 1.44-2.704 3.536-2.704 1.056 0 1.792.144 2.528.352v-.256c0-1.472-.896-2.24-2.448-2.24-.976 0-1.744.24-2.512.592l-.368-1.008c.912-.416 1.792-.704 3.008-.704 1.168 0 2.08.32 2.672.912.576.576.864 1.376.864 2.432v5.056h-1.216v-1.232c-.576.736-1.52 1.408-2.976 1.408Zm.24-.992c1.52 0 2.752-.912 2.752-2.224v-.768a8.504 8.504 0 0 0-2.416-.352c-1.536 0-2.416.672-2.416 1.664v.032c0 1.04.96 1.648 2.08 1.648Zm9.297.976c-1.184 0-2.496-.464-3.424-1.216l.624-.88c.896.672 1.888 1.056 2.864 1.056.992 0 1.712-.512 1.712-1.312v-.032c0-.832-.976-1.152-2.064-1.456-1.296-.368-2.736-.816-2.736-2.336v-.032c0-1.424 1.184-2.368 2.816-2.368 1.008 0 2.128.352 2.976.912l-.56.928c-.768-.496-1.648-.8-2.448-.8-.976 0-1.6.512-1.6 1.2v.032c0 .784 1.024 1.088 2.128 1.424 1.28.384 2.656.88 2.656 2.368v.032c0 1.568-1.296 2.48-2.944 2.48Zm5.233-.16v-11.68h1.232v4.848c.544-.896 1.408-1.616 2.832-1.616 2 0 3.168 1.344 3.168 3.312v5.136h-1.232v-4.832c0-1.536-.832-2.496-2.288-2.496-1.424 0-2.48 1.04-2.48 2.592v4.736h-1.232Zm14.259.176c-1.536 0-2.528-.832-3.168-1.76v1.584h-1.232v-11.68h1.232v5.072c.672-.992 1.648-1.84 3.168-1.84 1.984 0 3.952 1.568 3.952 4.288v.032c0 2.704-1.952 4.304-3.952 4.304Zm-.224-1.104c1.6 0 2.912-1.184 2.912-3.184v-.032c0-1.952-1.344-3.2-2.912-3.2-1.536 0-2.992 1.296-2.992 3.184v.032c0 1.92 1.456 3.2 2.992 3.2Zm10.225 1.12c-2.48 0-4.288-1.952-4.288-4.288v-.032c0-2.336 1.824-4.32 4.32-4.32 2.48 0 4.304 1.952 4.304 4.288v.032c0 2.336-1.84 4.32-4.336 4.32Zm.032-1.104c1.792 0 3.04-1.44 3.04-3.184v-.032c0-1.776-1.328-3.232-3.072-3.232-1.792 0-3.024 1.456-3.024 3.2v.032c0 1.776 1.312 3.216 3.056 3.216Zm9 1.088c-1.552 0-3.088-.88-3.088-2.576v-.032c0-1.776 1.44-2.704 3.536-2.704 1.056 0 1.792.144 2.528.352v-.256c0-1.472-.896-2.24-2.448-2.24-.976 0-1.744.24-2.512.592l-.368-1.008c.912-.416 1.792-.704 3.008-.704 1.168 0 2.08.32 2.672.912.576.576.864 1.376.864 2.432v5.056h-1.216v-1.232c-.576.736-1.52 1.408-2.976 1.408Zm.24-.992c1.52 0 2.752-.912 2.752-2.224v-.768a8.504 8.504 0 0 0-2.416-.352c-1.536 0-2.416.672-2.416 1.664v.032c0 1.04.96 1.648 2.08 1.648Zm6.562.816v-8.272h1.232v2.16c.608-1.376 1.808-2.368 3.376-2.304v1.328h-.096c-1.808 0-3.28 1.296-3.28 3.792v3.296h-1.232Zm9.612.176c-1.984 0-3.952-1.568-3.952-4.288v-.032c0-2.704 1.968-4.304 3.952-4.304 1.536 0 2.528.832 3.168 1.76v-4.992h1.232v11.68h-1.232v-1.664c-.672.992-1.648 1.84-3.168 1.84Zm.224-1.104c1.536 0 2.992-1.296 2.992-3.2v-.032c0-1.904-1.456-3.184-2.992-3.184-1.6 0-2.912 1.184-2.912 3.184v.032c0 1.952 1.344 3.2 2.912 3.2Zm9.665 1.088c-1.184 0-2.496-.464-3.424-1.216l.624-.88c.896.672 1.888 1.056 2.864 1.056.992 0 1.712-.512 1.712-1.312v-.032c0-.832-.976-1.152-2.064-1.456-1.296-.368-2.736-.816-2.736-2.336v-.032c0-1.424 1.184-2.368 2.816-2.368 1.008 0 2.128.352 2.976.912l-.56.928c-.768-.496-1.648-.8-2.448-.8-.976 0-1.6.512-1.6 1.2v.032c0 .784 1.024 1.088 2.128 1.424 1.28.384 2.656.88 2.656 2.368v.032c0 1.568-1.296 2.48-2.944 2.48Z"/>
  <rect width="27.92" height="27.92" x="46.043" y="286.138" stroke="url(#j)" stroke-width="2.08" rx="2.96"/>
  <g clip-path="url(#k)">
    <path fill="url(#l)" d="M65.912 303.005H64.73v2.955h1.182v-2.955Z"/>
    <path fill="url(#m)" d="M63.549 300.051h-1.182v5.909h1.182v-5.909Z"/>
    <path fill="url(#n)" d="M57.048 305.96a2.959 2.959 0 0 1-2.955-2.955h1.182a1.77 1.77 0 0 0 2.12 1.739 1.77 1.77 0 0 0 1.392-1.393 1.772 1.772 0 0 0-1.739-2.119v-1.181a2.955 2.955 0 1 1 0 5.909Z"/>
    <path fill="url(#o)" d="M67.094 291.777H52.912a1.185 1.185 0 0 0-1.182 1.182v14.183a1.184 1.184 0 0 0 1.182 1.182h14.182a1.185 1.185 0 0 0 1.182-1.182v-14.183a1.182 1.182 0 0 0-1.182-1.182Zm0 5.319h-8.273v-4.137h8.273v4.137Zm-9.455-4.137v4.137h-4.727v-4.137h4.727Zm-4.727 14.183v-8.864h14.182l.001 8.864H52.912Z"/>
  </g>
  <rect width="27.92" height="27.92" x="46.043" y="367.138" stroke="url(#p)" stroke-width="2.08" rx="2.96"/>
  <path fill="url(#q)" d="M60.593 377.507h-1.182v4.729h1.182v-4.729Z"/>
  <path fill="url(#r)" d="M63.549 379.872h-1.182v2.364h1.182v-2.364Z"/>
  <path fill="url(#s)" d="M57.638 378.689h-1.182v3.547h1.182v-3.547Z"/>
  <path fill="url(#t)" d="M65.322 373.961h-4.729v-1.182h-1.182v1.182h-4.728a1.185 1.185 0 0 0-1.182 1.182v8.275a1.184 1.184 0 0 0 1.182 1.182h4.728v3.546h-2.364v1.182h5.91v-1.182h-2.364V384.6h4.729a1.185 1.185 0 0 0 1.182-1.182v-8.275a1.184 1.184 0 0 0-1.182-1.182Zm0 9.457H54.683v-8.275h10.639v8.275Z"/>
  <rect width="27.92" height="27.92" x="46.043" y="448.138" stroke="url(#u)" stroke-width="2.08" rx="2.96"/>
  <g clip-path="url(#v)">
    <path fill="url(#w)" d="M60.002 452.642a9.454 9.454 0 0 0-9.456 9.456 9.455 9.455 0 0 0 9.456 9.457 9.455 9.455 0 0 0 9.457-9.457 9.455 9.455 0 0 0-9.457-9.456Zm0 17.693c-4.54 0-8.236-3.695-8.236-8.237 0-4.541 3.695-8.236 8.236-8.236 4.542 0 8.237 3.695 8.237 8.236 0 4.542-3.695 8.237-8.237 8.237Zm1.537-8.439-2.745-.77a1.07 1.07 0 0 1-.786-1.018c0-.584.488-1.06 1.087-1.06h1.716c.427 0 .835.137 1.167.385.122.091.29.076.396-.031l.431-.438a.307.307 0 0 0-.03-.458 3.147 3.147 0 0 0-1.968-.682h-.194v-1.526a.306.306 0 0 0-.305-.305h-.61a.306.306 0 0 0-.306.305v1.526h-.297c-1.27 0-2.307 1.022-2.307 2.28 0 1.014.69 1.914 1.674 2.193l2.745.77c.462.129.786.549.786 1.018 0 .583-.488 1.06-1.087 1.06H59.19c-.427 0-.835-.137-1.166-.385a.303.303 0 0 0-.397.03l-.431.439a.306.306 0 0 0 .03.457 3.143 3.143 0 0 0 1.968.683h.198v1.525c0 .168.138.305.305.305h.61a.306.306 0 0 0 .306-.305v-1.525h.297c1.27 0 2.307-1.022 2.307-2.28a2.298 2.298 0 0 0-1.678-2.193Z"/>
  </g>
  <defs>
    <linearGradient id="a" x1="60.003" x2="60.003" y1="123.098" y2="153.098" gradientUnits="userSpaceOnUse">
      <stop stop-color="#5CB7F2"/>
      <stop offset="1" stop-color="#5CB7F2" stop-opacity=".18"/>
    </linearGradient>
    <linearGradient id="b" x1="60.663" x2="60.663" y1="130.024" y2="146.172" gradientUnits="userSpaceOnUse">
      <stop stop-color="#5CB7F2"/>
      <stop offset="1" stop-color="#fff"/>
    </linearGradient>
    <linearGradient id="c" x1="60.663" x2="60.663" y1="130.024" y2="146.172" gradientUnits="userSpaceOnUse">
      <stop stop-color="#5CB7F2"/>
      <stop offset="1" stop-color="#fff"/>
    </linearGradient>
    <linearGradient id="d" x1="60.663" x2="60.663" y1="130.024" y2="146.172" gradientUnits="userSpaceOnUse">
      <stop stop-color="#5CB7F2"/>
      <stop offset="1" stop-color="#fff"/>
    </linearGradient>
    <linearGradient id="e" x1="60.663" x2="60.663" y1="130.024" y2="146.172" gradientUnits="userSpaceOnUse">
      <stop stop-color="#5CB7F2"/>
      <stop offset="1" stop-color="#fff"/>
    </linearGradient>
    <linearGradient id="f" x1="60.663" x2="60.663" y1="130.024" y2="146.172" gradientUnits="userSpaceOnUse">
      <stop stop-color="#5CB7F2"/>
      <stop offset="1" stop-color="#fff"/>
    </linearGradient>
    <linearGradient id="g" x1="60.003" x2="60.003" y1="204.098" y2="234.098" gradientUnits="userSpaceOnUse">
      <stop stop-color="#4CCE94"/>
      <stop offset="1" stop-color="#4CCE94" stop-opacity=".18"/>
    </linearGradient>
    <linearGradient id="h" x1="60.003" x2="60.003" y1="212.006" y2="226.191" gradientUnits="userSpaceOnUse">
      <stop stop-color="#4CCE94"/>
      <stop offset="1" stop-color="#fff"/>
    </linearGradient>
    <linearGradient id="i" x1="60.003" x2="60.003" y1="212.006" y2="226.191" gradientUnits="userSpaceOnUse">
      <stop stop-color="#4CCE94"/>
      <stop offset="1" stop-color="#fff"/>
    </linearGradient>
    <linearGradient id="j" x1="60.003" x2="60.003" y1="285.098" y2="315.098" gradientUnits="userSpaceOnUse">
      <stop stop-color="#9385FF"/>
      <stop offset="1" stop-color="#9385FF" stop-opacity=".18"/>
    </linearGradient>
    <linearGradient id="l" x1="65.321" x2="65.321" y1="303.005" y2="305.96" gradientUnits="userSpaceOnUse">
      <stop stop-color="#9385FF"/>
      <stop offset="1" stop-color="#fff"/>
    </linearGradient>
    <linearGradient id="m" x1="62.958" x2="62.958" y1="300.051" y2="305.96" gradientUnits="userSpaceOnUse">
      <stop stop-color="#9385FF"/>
      <stop offset="1" stop-color="#fff"/>
    </linearGradient>
    <linearGradient id="n" x1="57.048" x2="57.048" y1="300.051" y2="305.96" gradientUnits="userSpaceOnUse">
      <stop stop-color="#9385FF"/>
      <stop offset="1" stop-color="#fff"/>
    </linearGradient>
    <linearGradient id="o" x1="60.003" x2="60.003" y1="291.777" y2="308.324" gradientUnits="userSpaceOnUse">
      <stop stop-color="#9385FF"/>
      <stop offset="1" stop-color="#fff"/>
    </linearGradient>
    <linearGradient id="p" x1="60.003" x2="60.003" y1="366.098" y2="396.098" gradientUnits="userSpaceOnUse">
      <stop stop-color="#0F52DE"/>
      <stop offset="1" stop-color="#0F52DE" stop-opacity=".18"/>
    </linearGradient>
    <linearGradient id="q" x1="60.002" x2="60.002" y1="372.779" y2="389.328" gradientUnits="userSpaceOnUse">
      <stop stop-color="#0F52DE"/>
      <stop offset="1" stop-color="#fff"/>
    </linearGradient>
    <linearGradient id="r" x1="60.002" x2="60.002" y1="372.779" y2="389.328" gradientUnits="userSpaceOnUse">
      <stop stop-color="#0F52DE"/>
      <stop offset="1" stop-color="#fff"/>
    </linearGradient>
    <linearGradient id="s" x1="60.002" x2="60.002" y1="372.779" y2="389.328" gradientUnits="userSpaceOnUse">
      <stop stop-color="#0F52DE"/>
      <stop offset="1" stop-color="#fff"/>
    </linearGradient>
    <linearGradient id="t" x1="60.002" x2="60.002" y1="372.779" y2="389.328" gradientUnits="userSpaceOnUse">
      <stop stop-color="#0F52DE"/>
      <stop offset="1" stop-color="#fff"/>
    </linearGradient>
    <linearGradient id="u" x1="60.003" x2="60.003" y1="447.098" y2="477.098" gradientUnits="userSpaceOnUse">
      <stop stop-color="#702EDC"/>
      <stop offset="1" stop-color="#702EDC" stop-opacity=".18"/>
    </linearGradient>
    <linearGradient id="w" x1="60.002" x2="60.002" y1="452.642" y2="471.555" gradientUnits="userSpaceOnUse">
      <stop stop-color="#702EDC"/>
      <stop offset="1" stop-color="#fff"/>
    </linearGradient>
    <clipPath id="k">
      <rect width="18.91" height="18.91" x="50.548" y="290.595" fill="#fff" rx="4"/>
    </clipPath>
    <clipPath id="v">
      <rect width="18.913" height="18.913" x="50.546" y="452.642" fill="#fff" rx="4"/>
    </clipPath>
  </defs>
</svg>