<svg xmlns="http://www.w3.org/2000/svg" width="159" height="40" fill="none" viewBox="0 0 159 40">
  <g clip-path="url(#a)">
    <path fill="#fff" d="M69.166 14.52c.833 0 1.658-.055 2.464.035.222.025.48.456.577.75.862 2.599 1.69 5.206 2.53 7.812.042.133.099.262.21.552.123-.315.198-.481.253-.654.844-2.634 1.67-5.274 2.551-7.896.089-.26.494-.548.779-.582.72-.083 1.454-.028 2.227-.028v11.547h-1.704v-9.178c-.072-.01-.145-.023-.217-.034-.53 1.638-1.055 3.278-1.585 4.916-.407 1.26-.865 2.505-1.212 3.78-.218.8-.787.517-1.267.569-.47.05-.789-.014-.97-.595a166.748 166.748 0 0 0-2.947-8.688v9.208h-1.69V14.516l.001.004Zm59.665 11.547h-1.79V14.514c.667 0 1.314-.057 1.942.028.248.034.526.34.669.589 1.53 2.648 3.034 5.313 4.548 7.971.054.094.123.18.276.407v-3.338l-.001-4.417c-.003-.866.438-1.28 1.323-1.242.143.007.285.039.483.067v11.53c-.644 0-1.316.068-1.964-.031-.262-.04-.531-.403-.693-.681-1.573-2.685-3.124-5.383-4.793-8.27v8.942-.002ZM93.983 14.425c2.049.099 4.111.076 6.135.338 1.486.193 2.307 1.293 2.429 2.648.152 1.682-.43 2.827-1.792 3.52-.179.09-.361.177-.6.294l2.707 4.888c-.709 0-1.286.048-1.847-.023-.23-.028-.497-.274-.624-.492-.593-1.017-1.186-2.04-1.692-3.1-.39-.824-.932-1.211-1.847-1.043-.253.046-.516.032-.877.05v4.551H93.98v-11.63l.002-.001Zm2.043 1.56v3.866c1.03 0 2.003.093 2.951-.027.97-.122 1.465-.837 1.486-1.797.021-.96-.446-1.677-1.42-1.844-.968-.164-1.97-.138-3.017-.198Zm18.162 10.082h-1.292l-.285-1.574c-.753.994-1.611 1.67-2.823 1.84-2.39.334-4.431-.761-5.304-3.011-.851-2.192-.833-4.398.292-6.498 1.554-2.896 6.079-3.526 8.297-1.152.476.51.75 1.21 1.208 1.976-.714.137-1.192.278-1.673.292-.211.005-.541-.203-.625-.398-.436-1.024-1.181-1.594-2.282-1.686-1.252-.106-2.255.349-2.942 1.414-1.047 1.62-.994 4.668.089 6.248.761 1.111 2.346 1.564 3.726 1.067 1.204-.434 1.892-1.584 1.79-3.1h-3.015v-1.5h4.839v6.082Zm34.507-7.755-1.937.287c-.08-.266-.142-.482-.209-.694-.354-1.107-1.074-1.808-2.249-1.97-1.183-.163-2.156.247-2.855 1.202-1.164 1.589-1.116 4.772.044 6.366.696.955 1.653 1.317 2.776 1.185 1.107-.131 1.893-.75 2.28-1.826.08-.22.168-.435.29-.746l1.853.352c-.273 2.354-2.178 3.932-4.697 3.946-3.201.018-5.339-2.085-5.477-5.445-.032-.787.019-1.596.168-2.367.384-1.992 1.452-3.497 3.465-4.072 1.93-.552 3.852-.474 5.334 1.075.635.662.975 1.605 1.449 2.42l-.239.289.004-.002Zm9.691-3.802v1.525h-5.367v3.347h5.022v1.562h-5.008v3.572h5.415l.072 1.528h-7.564c-.013-.263-.037-.543-.037-.822-.004-3.24.017-6.48-.02-9.72-.009-.743.149-1.035.964-1.011 2.141.058 4.285.019 6.523.019Zm-67.18 0v1.56h-4.26c-1.137 0-1.139.002-1.139 1.174 0 .62.012 1.237.028 1.855.002.08.066.159.128.302h4.983v1.523h-5.06v3.643h5.469v1.5h-7.482c-.02-.28-.058-.536-.058-.79-.004-3.302.021-6.603-.016-9.904-.009-.722.22-.894.906-.881 2.144.04 4.29.016 6.505.016l-.004.002Zm-24.64 11.554h-7.47V14.577h7.343v1.493c-1.29 0-2.573-.009-3.855.002-1.76.016-1.515-.225-1.543 1.562-.009.554 0 1.107 0 1.759h5.148v1.553h-5.084v3.582h5.463v1.538l-.002-.002Zm52.279-6.666h5.104v1.535h-5.033v3.606h5.477v1.528h-7.46v-11.49h7.333v1.495h-3.487c-1.29 0-1.935.652-1.934 1.955v1.37ZM8.336.005H0v39.972h8.336V.005ZM44.995.004h-8.336v39.972h8.336V.004Z"/>
    <path fill="#fff" d="M43.818 7.65h-8.336v18.475h8.336V7.65Z"/>
    <path fill="#fff" d="M44.994 15.986V7.65H16.03v8.336h28.963Zm0 16.245v-8.336H16.03v8.336h28.963Z"/>
  </g>
  <defs>
    <clipPath id="a">
      <path fill="#fff" d="M0 0h158.519v39.98H0z"/>
    </clipPath>
  </defs>
</svg>
