<svg xmlns="http://www.w3.org/2000/svg" width="109" height="36" fill="none" viewBox="0 0 109 36">
  <g clip-path="url(#a)">
    <path fill="#fff" d="M75.735 22.123c1.214-.339 1.82-1.168 1.82-2.487v-7.345c-.672-.154-1.28-.292-1.945-.442.069-1.175.136-2.305.2-3.434h7.545l-.678 2.243c1.485-1.966 3.485-2.885 5.924-2.934 2.469-.05 4.46.823 5.802 3.066 1.898-2.637 4.48-3.395 7.45-2.953 2.803.417 4.666 2.383 4.973 5.408.239 2.36.179 4.751.23 7.129.027 1.317.005 1.317 1.271 1.597.201.045.4.096.575.137v3.447h-9.474v-3.421c-.01.007.03-.047.08-.062 1.457-.403 1.463-.401 1.455-1.935-.007-1.627.017-3.257-.047-4.88-.07-1.78-.962-2.816-2.37-2.894-1.563-.085-2.872.89-3.033 2.599-.197 2.092-.152 4.211-.137 6.316 0 .206.488.53.792.59.65.13.891.401.831 1.087-.074.859-.018 1.73-.018 2.598h-9.264v-3.428c-.03.027.006-.031.056-.046 1.498-.436 1.51-.436 1.496-2-.015-1.687.001-3.376-.1-5.058-.096-1.597-.938-2.517-2.219-2.644-1.49-.148-2.645.648-3.067 2.208-.17.632-.213 1.306-.233 1.962-.036 1.145-.01 2.292-.01 3.436 0 1.101.522 1.815 1.569 2.143v3.429h-9.472v-3.432h-.002Zm-1.813-.016v3.378h-7.665l.76-2.279c-.042-.056-.088-.112-.131-.168-.027.096-.027.21-.083.286-2.141 2.964-5.896 3.385-8.7 2.604-2.85-.792-4.116-2.964-4.366-5.7-.219-2.393-.128-4.814-.173-7.224-.004-.208 0-.416 0-.702-.626-.154-1.223-.298-1.89-.463.052-1.166.105-2.295.155-3.427h7.836v.915c0 2.803-.005 5.606.005 8.41 0 .478.024.966.114 1.435.308 1.617 1.1 2.279 2.876 2.454 1.27.127 2.389-.546 2.911-1.834.212-.52.38-1.1.393-1.656.047-1.926.018-3.852.018-5.85l-1.89-.438c.052-1.154.105-2.28.159-3.436h7.856v.948c0 3.707.036 7.414-.026 11.121-.016.962.196 1.481 1.22 1.48.2 0 .4.09.623.142l-.002.004Zm-50.874 4.307c-1.211-.302-2.758-.503-4.152-1.07-3.485-1.42-5.414-4.73-5.215-8.587.28-5.447 3.826-8.848 9.394-9.004 2.328-.065 4.568.29 6.58 1.541 3.1 1.93 4.574 5.592 3.874 9.52-.669 3.752-3.202 6.394-6.947 7.159-1.053.215-2.138.273-3.534.443v-.002Zm-3.202-9.346c.146.713.227 1.501.477 2.23.53 1.55 1.774 2.387 3.354 2.378 1.606-.009 2.794-.837 3.351-2.389.512-1.43.521-2.893.078-4.336-.523-1.702-1.743-2.566-3.488-2.554-1.73.015-2.906.91-3.398 2.657-.177.631-.242 1.293-.37 2.014h-.005ZM8.038 8.337H13.2l-.182 3.527c-1.686.137-3.299.267-5.008.407v4.105c0 1.446.042 2.895-.016 4.34-.03.78.175 1.193 1.01 1.197.288 0 .574.128.845.195v3.449H.112v-3.424s.062-.061.14-.08c1.124-.254 1.687-.944 1.687-2.07 0-2.231-.04-4.463.02-6.693.023-.842-.236-1.22-1.073-1.235-.266-.005-.528-.112-.89-.193l.19-3.492 1.678-.076c.094-.81.167-1.608.28-2.4.66-4.53 3.654-6.235 8.099-5.837.906.081 1.812.421 2.66.783.3.128.58.667.595 1.03.036.927-.084 1.858-.143 2.84-1.559-.201-3.149-.953-4.498.334-.893.854-.746 2.038-.817 3.293h-.002Zm36.255 17.136h-9.888c0-1.043-.024-2.06.023-3.07.01-.177.288-.425.492-.492.423-.141.879-.185 1.42-.288v-4.15c0-1.447-.042-2.895.018-4.338.03-.742-.14-1.141-.948-1.127-.293.006-.586-.11-.895-.173V8.359h7.544c-.226.722-.446 1.43-.669 2.137l.118.084c.25-.33.499-.659.752-.988 1.646-2.143 4.917-2.636 7.129-1.085.544.382.804.838.66 1.53-.177.846-.286 1.707-.436 2.642-.32-.081-.573-.145-.827-.211-3.284-.874-5.907.835-6.26 4.222-.166 1.604-.029 3.24-.029 4.854.063.045.105.098.156.11 1.111.271 1.659.997 1.643 2.177-.007.534 0 1.067 0 1.642h-.003Zm.479 6.797v3.052H.067V32.27h44.705Zm17.046 1.871h-2.34c.204.794.613.863 1.228.624.318-.123.687-.115 1.173-.188-.629 1.03-1.603 1.342-2.515.962-.705-.293-1.11-1.237-.884-2.058.248-.904 1.074-1.427 2-1.266.922.16 1.365.753 1.338 1.928v-.002Zm39.332-.027h-2.371c.168.83.593.883 1.208.658.324-.117.689-.123 1.17-.2-.608 1.032-1.602 1.349-2.506.962-.722-.31-1.096-1.212-.86-2.064.256-.915.974-1.39 1.91-1.267.953.124 1.422.716 1.449 1.911ZM67.01 32.45c.757-.089 1.377-.188 2.003-.23.749-.048 1.226.402 1.295 1.192.03.358.012.72.014 1.08v1.043l-1.054.063c0-.573.067-1.114-.025-1.623-.056-.317-.355-.59-.543-.881-.233.293-.591.555-.67.886-.117.477-.03 1.002-.03 1.555h-.989V32.45h-.002Zm15.124-.074h1.053c0 .541-.083 1.066.029 1.545.076.325.428.586.656.875.2-.28.516-.539.577-.846.098-.487.025-1.008.025-1.577l1.073-.053c-.21 1.085.506 2.338-.633 3.035-.53.324-1.568.34-2.105.027-1.154-.671-.503-1.933-.675-3.007v.001Zm25.37.764c.429.392.924.77 1.304 1.244.107.132-.068.584-.226.817-.419.624-1.454.628-2.353.05.076-1.258 1.245.133 1.556-.713-.454-.534-2.013-.487-1.246-1.789.466-.794 1.275-.605 2.007-.347l.105.273-1.147.467v-.002Zm-57.584-.72c1.465-.49 1.324.888 1.88 1.475.68-.403.397-2.036 1.945-1.448-.484.955-.946 1.919-1.461 2.855-.253.462-.662.436-.902 0-.52-.938-.975-1.911-1.462-2.88v-.002Zm25.863-1.138h.544c.333.443.619.785.854 1.158.081.128.096.464.042.49-.991.455-.45 1.336-.58 2.023-.034.17-.023.35-.035.582-.324.02-.612.039-1.018.062 0-.577.03-1.108-.011-1.635-.024-.298-.186-.582-.246-.879-.045-.218-.085-.466-.025-.672.097-.344.274-.666.477-1.129h-.002Zm15.91 4.252h-.875V32.41l2.234-.118v.857c-1.937-.061-.934 1.532-1.357 2.385h-.002Z"/>
  </g>
  <defs>
    <clipPath id="a">
      <path fill="#fff" d="M0 0h108.902v35.693H0z"/>
    </clipPath>
  </defs>
</svg>
