<svg xmlns="http://www.w3.org/2000/svg" width="156" height="34" fill="none" viewBox="0 0 156 34">
  <g clip-path="url(#a)">
    <path fill="#fff" d="M.275 24.829H.088v-1.74h.186c.47.58.49 1.16.001 1.74Z"/>
    <path fill="#fff" d="M.185 24.83c0-.58 0-1.159.011-1.738.31-2.397.998-4.658 2.326-6.687 2.192-3.333 5.295-5.294 9.183-6.068 1.89-.376 3.79-.396 5.652.164 3.365 1.015 5.488 3.248 6.42 6.63.038.134.076.28.115.414.184.059.214-.106.282-.202 1.852-2.657 3.693-5.323 5.545-7.98l2.967-4.233c.03-.088.06-.175.127-.232l.009-.02-.029.02c-.058.077-.145.088-.223.126-1.493 1.303-2.996 2.598-4.46 3.932-.407.367-.736.512-1.3.28-1.24-.512-2.559-.782-3.878-.995-.164-.029-.387.02-.416-.231-.02-.213.155-.3.32-.388 2.268-1.265 4.538-2.52 6.806-3.787C31.795 2.637 33.957 1.43 36.109.24c.164-.096.34-.298.573-.144.242.154.106.377.068.57-.883 4.444-1.775 8.89-2.657 13.333l-.058.28c-.03.126-.068.262-.214.3-.155.039-.233-.077-.31-.184-.562-.83-1.3-1.516-2.037-2.192a22.258 22.258 0 0 0-2.23-1.817c.282.783.533 1.43.66 2.126.126.714.049 1.304-.398 1.941-2.957 4.222-5.711 8.58-8.842 12.687-.844 1.11-1.62 2.29-2.627 3.275-3.899 3.845-10.162 4.25-14.477.879-1.862-1.449-2.918-3.4-3.277-5.73-.03-.25-.058-.492-.098-.733Zm15.233-12.289c-.563-.03-1.212.096-1.842.327-2.007.736-3.569 2.069-4.8 3.77-2.094 2.898-3.345 6.086-2.957 9.738.126 1.15.407 2.27 1.25 3.131 1.251 1.285 2.842 1.604 4.548 1.371 1.881-.25 3.404-1.217 4.644-2.588 2.108-2.334 4-4.854 5.653-7.527.107-.183.204-.358.184-.59-.087-1.169-.252-2.328-.679-3.439-.978-2.551-3.296-4.203-6-4.193Zm40.809 7.646v7.245c0 .688-.04.726-.698.726-.515 0-1.038-.011-1.551 0-.418.01-.573-.164-.563-.58.01-2.048 0-4.087.02-6.135 0-.387-.098-.484-.485-.484-2.066.02-4.14.02-6.206 0-.378 0-.446.126-.446.464.02 2 .01 3.99.01 5.99 0 .706-.03.735-.737.735h-1.6c-.34 0-.504-.163-.504-.502V12.96c0-.764.048-.812.833-.812.466 0 .942.02 1.407 0 .465-.018.62.185.61.629-.019 1.758.01 3.507-.019 5.265-.01.445.136.523.543.523 2.017-.02 4.043-.02 6.06 0 .408 0 .552-.068.543-.523-.03-1.739-.01-3.477-.01-5.217 0-.609.059-.666.66-.677.485-.008.97-.008 1.454 0 .65.011.698.06.698.736-.019 2.434-.019 4.87-.019 7.304ZM73 27.935c-1.144.29-2.278.444-3.432.358-2.152-.163-3.656-1.382-4.266-3.479a8.875 8.875 0 0 1 0-5.052c.63-2.165 2.075-3.46 4.324-3.75 1.881-.24 3.733-.028 5.537.6.466.164.64.434.64.937-.02 3.17 0 6.338-.01 9.507 0 .6-.048 1.19-.164 1.778-.33 1.759-1.3 3.014-2.967 3.72-.96.406-1.97.599-2.996.753-.291.039-.417-.077-.447-.357a37.98 37.98 0 0 0-.203-1.527c-.049-.327.077-.464.407-.512.736-.106 1.465-.262 2.143-.579 1.037-.483 1.502-1.247 1.434-2.397Zm.068-5.845c0-1.073-.009-2.155 0-3.227 0-.3-.096-.434-.387-.484-.65-.115-1.3-.221-1.969-.193-1.144.058-2.094.493-2.54 1.604-.62 1.547-.62 3.14.01 4.696.398.967 1.183 1.459 2.23 1.516.785.04 1.542-.076 2.308-.23.262-.049.358-.175.358-.455-.019-1.072-.01-2.154-.01-3.227Zm35.207 6.057c-1.746-.028-1.377.252-1.93-1.4-.194-.6-.397-1.189-.571-1.788-.068-.222-.176-.3-.417-.3-1.727.011-3.462.011-5.188 0-.272 0-.35.127-.416.35-.273.878-.583 1.738-.844 2.618-.117.386-.34.54-.737.53-.61-.019-1.232 0-1.842-.01-.543 0-.631-.124-.457-.647l2.793-8.174c.69-2.029 1.387-4.047 2.075-6.076.32-.948.601-1.14 1.59-1.15h.97c.872.01 1.144.192 1.434 1.014.514 1.46 1.009 2.918 1.514 4.376 1.134 3.286 2.258 6.57 3.393 9.856.242.715.194.792-.543.792-.271.01-.552.01-.824.01v-.001Zm-5.556-12.888c-.019.039-.067.077-.077.116-.669 2.204-1.329 4.406-1.998 6.6-.097.327.087.299.291.299 1.174 0 2.356-.02 3.529.01.416 0 .436-.117.33-.465-.641-2.038-1.251-4.086-1.881-6.125-.039-.155-.029-.329-.194-.436Zm15.921 9.575c0-2.415.01-4.831-.01-7.237 0-.493.155-.763.621-.938a12.142 12.142 0 0 1 5.623-.676c2.134.242 3.539 1.46 4.17 3.518.51 1.64.527 3.393.048 5.043-.766 2.695-2.831 4.058-5.769 3.835-.543-.038-1.095-.076-1.629-.221-.32-.087-.388.018-.378.327.009 1.257-.011 2.514.009 3.77.011.415-.116.588-.552.56-.494-.03-.999-.01-1.503-.01-.611 0-.64-.03-.64-.618.01-2.464.01-4.91.01-7.353Zm2.685-2.705c0 1.09.011 2.184-.009 3.284 0 .28.088.396.358.455.651.126 1.3.232 1.969.222 1.435-.019 2.395-.735 2.764-2.106a7.166 7.166 0 0 0 .038-3.536c-.339-1.392-1.144-2.069-2.569-2.214-.737-.076-1.445.05-2.162.185-.33.058-.408.212-.398.521.019 1.063.009 2.126.009 3.189Zm10.715-2.33v-7.68c0-.638.019-.657.649-.657.515 0 1.038.009 1.551 0 .359-.01.475.136.475.482-.009 1.305.01 2.61-.009 3.914 0 .357.087.426.436.339.989-.262 1.997-.388 3.025-.29 2.579.25 4.063 1.66 4.248 4.232.183 2.54.038 5.081.067 7.632 0 .261-.107.387-.378.387h-1.939c-.407 0-.417-.27-.417-.56v-5.314c0-.503.01-.996-.02-1.498-.116-1.749-1.028-2.59-2.783-2.57a7.765 7.765 0 0 0-1.822.221c-.32.078-.427.223-.427.561.02 2.85 0 5.7.019 8.551 0 .492-.155.657-.639.619-.466-.04-.941-.011-1.407-.011-.6 0-.629-.029-.629-.618-.011-2.59 0-5.16 0-7.74Zm-53.619.01v-7.73c0-.608.009-.617.63-.617.503 0 1 .019 1.503-.01.397-.02.543.126.543.532-.02 1.275.01 2.541-.01 3.816-.01.377.05.493.475.387.97-.262 1.968-.378 2.978-.28 2.616.25 4.09 1.69 4.274 4.318.166 2.493.04 4.985.068 7.488 0 .328-.144.463-.475.455-.551-.011-1.094-.03-1.647 0-.466.028-.621-.145-.621-.609.02-2.029.01-4.058.01-6.087 0-.58-.04-1.16-.233-1.71-.3-.851-.902-1.353-1.793-1.488-.874-.126-1.737-.03-2.6.163-.319.068-.436.213-.436.561.02 2.83.01 5.672.01 8.502 0 .677 0 .677-.67.677H79.12c-.68 0-.68 0-.689-.666-.009-2.58-.009-5.141-.009-7.701Zm76.598 3.48c0 1.14-.01 2.289.01 3.429.01.502-.184.831-.669.995-2.25.763-4.547.956-6.865.415-1.668-.395-2.569-1.448-2.715-2.995-.175-1.835.553-3.285 2.046-4.038.843-.426 1.745-.58 2.676-.59.824-.01 1.648-.01 2.473 0 .271 0 .359-.067.367-.348.03-1.428-.775-2.116-2.471-2.048-1.018.04-2.027.163-3.016.445-.378.106-.582.028-.649-.377-.068-.377-.176-.753-.272-1.12-.068-.281.029-.464.31-.552 1.959-.6 3.956-.87 5.973-.414 1.832.414 2.792 1.747 2.812 3.767-.01 1.14-.01 2.29-.01 3.43Zm-2.735.946v-1.402c0-.144.02-.308-.203-.298-1.076.038-2.172-.126-3.23.154-.939.241-1.414.918-1.366 1.894.039.88.553 1.43 1.522 1.594.999.174 1.988.038 2.967-.183.233-.058.32-.175.31-.406-.009-.455 0-.899 0-1.353Zm-40.499-5.198V12.08c0-.6.029-.618.63-.618h1.358c.727 0 .736 0 .736.715V24.88c0 1.17.156 1.333 1.338 1.189.504-.059.679.096.689.57.01.3.058.608.106.908.068.357-.088.541-.427.627-.92.242-1.841.33-2.782.165-.843-.145-1.339-.666-1.532-1.478-.116-.454-.116-.927-.116-1.392v-6.432Zm-49.353 3.15v5.352c0 .59-.02.61-.63.619h-1.406c-.611 0-.65-.04-.65-.667v-9.749c0-.338.02-.676 0-1.014-.019-.406.136-.6.562-.58.535.02 1.068.01 1.6 0 .388-.01.544.135.544.54-.03 1.827-.02 3.663-.02 5.498Zm.34-9.15c0 .938-.708 1.652-1.65 1.652-.93 0-1.657-.724-1.657-1.643 0-.927.727-1.651 1.649-1.651.94-.011 1.657.704 1.657 1.641ZM27.246 33.234c-.136-.01-.281.039-.388-.097.049-.222.243-.29.397-.386.738-.425 1.465-.86 2.221-1.285-.185-.135-.524.096-.59-.262.997.107 1.918-.105 2.742-.685.116-.077.263-.29.408-.107.116.145-.03.29-.146.406-.543.523-1.27.734-1.89 1.14-.603.397-1.26.716-1.872 1.092-.262.184-.542.32-.882.184Zm-3.694-6.974c.156-.88.573-1.643 1.066-2.407l.204 1.44c.107.155-.028.348.098.494.01.028.02.047.01.076-.136.262-.931.783-1.183.764-.263-.01-.263-.164-.195-.367Z"/>
    <path fill="#fff" d="M23.553 26.262c0 .251.088.377.35.232.339-.203.688-.406 1.027-.61.126.271.194.561.194.87.096.232-.078.32-.223.406-.34.203-.689.406-1.038.6-.455.241-.543.193-.543-.33 0-.096-.019-.193.04-.279 0-.32.057-.608.193-.889Z"/>
    <path fill="#fff" d="M23.369 27.14c.01.714.018.724.639.366.389-.232.864-.338 1.125-.764.116.213.175.445.194.687.106.232.01.396-.184.522-.456.299-.941.54-1.416.792-.543.28-.31-.262-.427-.435-.019-.387-.097-.792.069-1.169Zm3.878 6.097c.62.039 1.018-.425 1.502-.687 1.068-.56 2.056-1.254 3.162-1.729a2.069 2.069 0 0 1-.679.87c-.727.435-1.465.85-2.192 1.285-.29.174-.58.31-.92.358-.291-.039-.602.087-.873-.097Zm1.645-2.032c.272.222.602.009.96.164-1.027.608-2.016 1.189-2.996 1.768a1.176 1.176 0 0 1-.59-.29c.319-.377.775-.56 1.181-.802.457-.27.922-.521 1.35-.84h.095Z"/>
    <path fill="#fff" d="M23.28 28.307c.097.465.3.435.64.194.348-.25.736-.435 1.114-.638.194-.097.301-.232.281-.444.204.231.136.56.282.802.087.096.038.193-.049.24-.59.32-1.144.697-1.755.977-.136.068-.242.048-.34-.077a2.162 2.162 0 0 1-.174-1.054Zm2.52.377c.097.163.184.338.282.502.126.202.028.349-.136.445-.553.338-1.105.666-1.668.975-.136.077-.242.049-.34-.068a1.316 1.316 0 0 1-.29-.58c.737-.385 1.484-.763 2.153-1.275Z"/>
    <path fill="#fff" d="M25.802 28.686c-.271.541-.834.696-1.31.947-.25.135-.474.474-.842.319a1.12 1.12 0 0 1-.195-.58c.281.126.437-.125.63-.222.524-.27 1.058-.531 1.514-.918.135.116.155.29.203.454Zm1.348 1.749c.252.048.35.318.581.396.05.183-.096.27-.212.338-.64.367-1.261.773-1.93 1.101a.207.207 0 0 1-.184 0 1.263 1.263 0 0 1-.397-.386c.068-.262.3-.358.503-.473a28.175 28.175 0 0 0 1.64-.976Zm1.649.77c-.058.347-.379.406-.62.55-.631.377-1.27.735-1.911 1.101-.194-.038-.378-.105-.485-.29.437-.463 1.038-.676 1.561-.995.271-.163.563-.299.776-.56.242.01.456.107.679.194Zm-2.426-1.554c.165.126.33.261.398.483.049.212-.117.28-.251.357-.467.29-.952.551-1.407.84-.271.175-.514.165-.698-.124-.146-.097-.262-.213-.29-.387.852-.193 1.511-.764 2.248-1.169Z"/>
    <path fill="#fff" d="M24.415 31.216c.146.02.243.25.427.127.64-.416 1.357-.697 1.93-1.21.136.098.3.146.378.31 0 .223-.184.271-.34.367-.61.358-1.241.677-1.813 1.092-.223-.203-.475-.386-.582-.686Zm3.705-.21c.125.222-.059.28-.195.347l-2.144 1.21c-.146-.077-.31-.126-.388-.29.699-.406 1.386-.822 2.085-1.227.097-.058.193-.106.243-.213.164 0 .29.068.397.175l.001-.002Zm-1.748-1.353c-.008.212-.203.28-.348.367-.417.262-.854.493-1.28.744-.204.115-.398.212-.62.067-.117-.058-.175-.163-.195-.29.359.078.563-.221.834-.366.34-.175.679-.358.998-.561.156-.096.36-.175.311-.425.107.154.204.31.3.464Zm1.747 3.68c.863-.484 1.715-.967 2.57-1.459.163-.097.329-.203.532-.184-.804.986-1.794 1.614-3.102 1.643Zm4.45-28.17c.12-.118.223-.235.343-.351.155-.034.241.016.188.183-.102.118-.222.234-.325.352a2.032 2.032 0 0 1-.206-.184Zm-7.221 20.682c-.851-.15-.4-.363-.5-.545.65.16.5.352.5.545Z"/>
    <path fill="#fff" d="M32.984 5.105c-.08-.056-.14-.114-.221-.157.14-.114.3-.228.522-.386.1.286-.12.415-.301.545v-.002Z"/>
  </g>
  <defs>
    <clipPath id="a">
      <path fill="#fff" d="M0 0h155.448v33.817H0z"/>
    </clipPath>
  </defs>
</svg>
