<svg xmlns="http://www.w3.org/2000/svg" fill="none" viewBox="0 0 432 198">
  <path stroke="#71717A" stroke-dasharray="4 4" d="M151.922 21.634h-35.213c-16.569 0-30 13.431-30 30V66.76c0 16.569-13.432 30-30 30H.922m151 75.239h-35.213c-16.569 0-30-13.431-30-30v-15.127c0-16.569-13.432-30-30-30H.922">
    <animate attributeName="stroke-dashoffset" dur="2s" repeatCount="indefinite" values="40;0"/>
  </path>
  <rect width="203.782" height="63" x="159.988" y=".546" fill="#18181B" rx="5"/>
  <path fill="#fff" d="M220.692 36.738c-3.232 0-5.616-2.544-5.616-5.76v-.032c0-3.168 2.368-5.792 5.664-5.792 2.032 0 3.248.72 4.368 1.776l-.864.928c-.944-.896-2-1.536-3.52-1.536-2.48 0-4.336 2.016-4.336 4.592v.032c0 2.592 1.872 4.624 4.336 4.624 1.536 0 2.544-.592 3.616-1.616l.832.816c-1.168 1.184-2.448 1.968-4.48 1.968Zm8.949-.016c-1.552 0-3.088-.88-3.088-2.576v-.032c0-1.776 1.44-2.704 3.536-2.704 1.056 0 1.792.144 2.528.352v-.256c0-1.472-.896-2.24-2.448-2.24-.976 0-1.744.24-2.512.592l-.368-1.008c.912-.416 1.792-.704 3.008-.704 1.168 0 2.08.32 2.672.912.576.576.864 1.376.864 2.432v5.056h-1.216v-1.232c-.576.736-1.52 1.408-2.976 1.408Zm.24-.992c1.52 0 2.752-.912 2.752-2.224v-.768a8.504 8.504 0 0 0-2.416-.352c-1.536 0-2.416.672-2.416 1.664v.032c0 1.04.96 1.648 2.08 1.648Zm6.673.816v-11.68h1.232v11.68h-1.232Zm7.82.192c-2.416 0-4.24-1.968-4.24-4.288v-.032c0-2.336 1.824-4.32 4.24-4.32 1.568 0 2.544.656 3.312 1.472l-.816.864c-.656-.688-1.392-1.248-2.512-1.248-1.68 0-2.96 1.424-2.96 3.2v.032c0 1.792 1.312 3.216 3.04 3.216 1.056 0 1.872-.528 2.528-1.232l.784.736c-.832.928-1.824 1.6-3.376 1.6Zm8.452-.016c-2 0-3.168-1.344-3.168-3.312v-5.136h1.232v4.832c0 1.536.832 2.496 2.288 2.496 1.408 0 2.48-1.04 2.48-2.592v-4.736h1.216v8.272h-1.216v-1.44c-.56.896-1.408 1.616-2.832 1.616Zm6.932-.176v-11.68h1.232v11.68h-1.232Zm6.555.176c-1.552 0-3.088-.88-3.088-2.576v-.032c0-1.776 1.44-2.704 3.536-2.704 1.056 0 1.792.144 2.528.352v-.256c0-1.472-.896-2.24-2.448-2.24-.976 0-1.744.24-2.512.592l-.368-1.008c.912-.416 1.792-.704 3.008-.704 1.168 0 2.08.32 2.672.912.576.576.864 1.376.864 2.432v5.056h-1.216v-1.232c-.576.736-1.52 1.408-2.976 1.408Zm.24-.992c1.52 0 2.752-.912 2.752-2.224v-.768a8.504 8.504 0 0 0-2.416-.352c-1.536 0-2.416.672-2.416 1.664v.032c0 1.04.96 1.648 2.08 1.648Zm9.251.96c-1.328 0-2.336-.656-2.336-2.336v-4.992h-1.152v-1.088h1.152v-2.496h1.232v2.496h2.624v1.088H274.7v4.832c0 1.008.56 1.376 1.392 1.376.416 0 .768-.08 1.2-.288v1.056a3.099 3.099 0 0 1-1.488.352Zm4.203-3.776c.176 1.744 1.456 2.752 2.912 2.752 1.136 0 1.936-.464 2.608-1.168l.768.688c-.832.928-1.84 1.552-3.408 1.552-2.272 0-4.128-1.744-4.128-4.32 0-2.4 1.68-4.32 3.968-4.32 2.448 0 3.856 1.952 3.856 4.384 0 .112 0 .24-.016.432h-6.56Zm0-.992h5.328c-.144-1.504-1.008-2.784-2.64-2.784-1.424 0-2.512 1.184-2.688 2.784Zm13.737 4.624v-11.2h1.28l4.08 6.112 4.08-6.112h1.28v11.2H303.2v-9.072l-4.08 6h-.064l-4.08-5.984v9.056h-1.232Zm14.419-3.632c.176 1.744 1.456 2.752 2.912 2.752 1.136 0 1.936-.464 2.608-1.168l.768.688c-.832.928-1.84 1.552-3.408 1.552-2.272 0-4.128-1.744-4.128-4.32 0-2.4 1.68-4.32 3.968-4.32 2.448 0 3.856 1.952 3.856 4.384 0 .112 0 .24-.016.432h-6.56Zm0-.992h5.328c-.144-1.504-1.008-2.784-2.64-2.784-1.424 0-2.512 1.184-2.688 2.784Zm11.501 4.768c-1.328 0-2.336-.656-2.336-2.336v-4.992h-1.152v-1.088h1.152v-2.496h1.232v2.496h2.624v1.088h-2.624v4.832c0 1.008.56 1.376 1.392 1.376.416 0 .768-.08 1.2-.288v1.056a3.099 3.099 0 0 1-1.488.352Zm3.7-.144v-8.272h1.232v2.16c.608-1.376 1.808-2.368 3.376-2.304v1.328h-.096c-1.808 0-3.28 1.296-3.28 3.792v3.296h-1.232Zm6.517-10.08v-1.36h1.408v1.36h-1.408Zm.08 10.08v-8.272h1.232v8.272h-1.232Zm7.819.192c-2.416 0-4.24-1.968-4.24-4.288v-.032c0-2.336 1.824-4.32 4.24-4.32 1.568 0 2.544.656 3.312 1.472l-.816.864c-.656-.688-1.392-1.248-2.512-1.248-1.68 0-2.96 1.424-2.96 3.2v.032c0 1.792 1.312 3.216 3.04 3.216 1.056 0 1.872-.528 2.528-1.232l.784.736c-.832.928-1.824 1.6-3.376 1.6Zm8.148-.032c-1.184 0-2.496-.464-3.424-1.216l.624-.88c.896.672 1.888 1.056 2.864 1.056.992 0 1.712-.512 1.712-1.312v-.032c0-.832-.976-1.152-2.064-1.456-1.296-.368-2.736-.816-2.736-2.336v-.032c0-1.424 1.184-2.368 2.816-2.368 1.008 0 2.128.352 2.976.912l-.56.928c-.768-.496-1.648-.8-2.448-.8-.976 0-1.6.512-1.6 1.2v.032c0 .784 1.024 1.088 2.128 1.424 1.28.384 2.656.88 2.656 2.368v.032c0 1.568-1.296 2.48-2.944 2.48Z"/>
  <rect width="28.372" height="28.372" x="174.802" y="17.86" stroke="url(#a)" stroke-width="1.628" rx="7.186"/>
  <path fill="url(#b)" fill-rule="evenodd" d="M182.488 26.06c0-1.623 3.37-2.363 6.502-2.363 3.131 0 6.501.74 6.501 2.364v3.546c0 1.624-3.37 2.364-6.501 2.364-1.985 0-4.062-.298-5.32-.93v2.112c.073.26 1.255.877 3.547 1.1v1.18c-1.375-.127-2.664-.402-3.547-.845v2.111c.033.134.595.53 1.773.81v1.209c-1.693-.365-2.955-1.026-2.955-2.019V26.061Zm6.502-1.181c-3.458 0-5.231.863-5.321 1.19.091.31 1.863 1.174 5.321 1.174 3.426 0 5.198-.848 5.317-1.182-.119-.335-1.891-1.182-5.317-1.182Zm0 5.91c3.452 0 5.224-.86 5.319-1.19v-2.103c-1.258.63-3.335.929-5.319.929-1.985 0-4.062-.299-5.32-.93v2.112c.09.32 1.862 1.182 5.32 1.182Zm3.841 9.456a2.07 2.07 0 0 1-1.463-3.53l.836.835a.888.888 0 0 0 1.254 1.254l2.956-2.955a.888.888 0 0 0-1.255-1.253l-.837-.836a2.07 2.07 0 0 1 2.927 2.924l-2.955 2.955c-.39.391-.91.606-1.463.606Zm-3.546.592a2.07 2.07 0 0 1-1.463-3.532l2.955-2.955a2.071 2.071 0 0 1 3.532 1.463c0 .552-.215 1.072-.606 1.462l-.836-.835a.888.888 0 0 0-1.254-1.253l-2.955 2.954a.887.887 0 0 0 1.255 1.253l.836.835a2.055 2.055 0 0 1-1.464.608Z" clip-rule="evenodd"/>
  <rect width="220" height="63" x="159.988" y="134.436" fill="#18181B" rx="5"/>
  <path fill="#fff" d="M221.552 170.612c-2.768 0-4.656-1.696-4.656-4.864v-6.512h1.264v6.432c0 2.416 1.28 3.776 3.424 3.776 2.064 0 3.376-1.248 3.376-3.696v-6.512h1.264v6.416c0 3.264-1.872 4.96-4.672 4.96Zm7.453-.176v-8.272h1.232v1.44c.544-.896 1.408-1.616 2.832-1.616 2 0 3.168 1.344 3.168 3.312v5.136h-1.232v-4.832c0-1.536-.832-2.496-2.288-2.496-1.424 0-2.48 1.04-2.48 2.592v4.736h-1.232Zm13.587.192c-2.416 0-4.24-1.968-4.24-4.288v-.032c0-2.336 1.824-4.32 4.24-4.32 1.568 0 2.544.656 3.312 1.472l-.816.864c-.656-.688-1.392-1.248-2.512-1.248-1.68 0-2.96 1.424-2.96 3.2v.032c0 1.792 1.312 3.216 3.04 3.216 1.056 0 1.872-.528 2.528-1.232l.784.736c-.832.928-1.824 1.6-3.376 1.6Zm8.955 0c-2.48 0-4.288-1.952-4.288-4.288v-.032c0-2.336 1.824-4.32 4.32-4.32 2.48 0 4.304 1.952 4.304 4.288v.032c0 2.336-1.84 4.32-4.336 4.32Zm.032-1.104c1.792 0 3.04-1.44 3.04-3.184v-.032c0-1.776-1.328-3.232-3.072-3.232-1.792 0-3.024 1.456-3.024 3.2v.032c0 1.776 1.312 3.216 3.056 3.216Zm8.819.976-3.584-8.336h1.36l2.784 6.864 2.8-6.864h1.328l-3.6 8.336h-1.088Zm6.874-3.696c.176 1.744 1.456 2.752 2.912 2.752 1.136 0 1.936-.464 2.608-1.168l.768.688c-.832.928-1.84 1.552-3.408 1.552-2.272 0-4.128-1.744-4.128-4.32 0-2.4 1.68-4.32 3.968-4.32 2.448 0 3.856 1.952 3.856 4.384 0 .112 0 .24-.016.432h-6.56Zm0-.992h5.328c-.144-1.504-1.008-2.784-2.64-2.784-1.424 0-2.512 1.184-2.688 2.784Zm8.733 4.624v-8.272h1.232v2.16c.608-1.376 1.808-2.368 3.376-2.304v1.328h-.096c-1.808 0-3.28 1.296-3.28 3.792v3.296h-1.232Zm15.345.08-4.816-11.28h1.408l3.984 9.648 4-9.648h1.36l-4.816 11.28h-1.12Zm9.275.096c-1.552 0-3.088-.88-3.088-2.576v-.032c0-1.776 1.44-2.704 3.536-2.704 1.056 0 1.792.144 2.528.352v-.256c0-1.472-.896-2.24-2.448-2.24-.976 0-1.744.24-2.512.592l-.368-1.008c.912-.416 1.792-.704 3.008-.704 1.168 0 2.08.32 2.672.912.576.576.864 1.376.864 2.432v5.056h-1.216v-1.232c-.576.736-1.52 1.408-2.976 1.408Zm.24-.992c1.52 0 2.752-.912 2.752-2.224v-.768a8.504 8.504 0 0 0-2.416-.352c-1.536 0-2.416.672-2.416 1.664v.032c0 1.04.96 1.648 2.08 1.648Zm6.562.816v-8.272h1.232v2.16c.608-1.376 1.808-2.368 3.376-2.304v1.328h-.096c-1.808 0-3.28 1.296-3.28 3.792v3.296h-1.232Zm6.516-10.08v-1.36h1.408v1.36h-1.408Zm.08 10.08v-8.272h1.232v8.272h-1.232Zm6.555.176c-1.552 0-3.088-.88-3.088-2.576v-.032c0-1.776 1.44-2.704 3.536-2.704 1.056 0 1.792.144 2.528.352v-.256c0-1.472-.896-2.24-2.448-2.24-.976 0-1.744.24-2.512.592l-.368-1.008c.912-.416 1.792-.704 3.008-.704 1.168 0 2.08.32 2.672.912.576.576.864 1.376.864 2.432v5.056h-1.216v-1.232c-.576.736-1.52 1.408-2.976 1.408Zm.24-.992c1.52 0 2.752-.912 2.752-2.224v-.768a8.504 8.504 0 0 0-2.416-.352c-1.536 0-2.416.672-2.416 1.664v.032c0 1.04.96 1.648 2.08 1.648Zm6.562.816v-8.272h1.232v1.44c.544-.896 1.408-1.616 2.832-1.616 2 0 3.168 1.344 3.168 3.312v5.136h-1.232v-4.832c0-1.536-.832-2.496-2.288-2.496-1.424 0-2.48 1.04-2.48 2.592v4.736h-1.232Zm13.587.192c-2.416 0-4.24-1.968-4.24-4.288v-.032c0-2.336 1.824-4.32 4.24-4.32 1.568 0 2.544.656 3.312 1.472l-.816.864c-.656-.688-1.392-1.248-2.512-1.248-1.68 0-2.96 1.424-2.96 3.2v.032c0 1.792 1.312 3.216 3.04 3.216 1.056 0 1.872-.528 2.528-1.232l.784.736c-.832.928-1.824 1.6-3.376 1.6Zm5.915-3.824c.176 1.744 1.456 2.752 2.912 2.752 1.136 0 1.936-.464 2.608-1.168l.768.688c-.832.928-1.84 1.552-3.408 1.552-2.272 0-4.128-1.744-4.128-4.32 0-2.4 1.68-4.32 3.968-4.32 2.448 0 3.856 1.952 3.856 4.384 0 .112 0 .24-.016.432h-6.56Zm0-.992h5.328c-.144-1.504-1.008-2.784-2.64-2.784-1.424 0-2.512 1.184-2.688 2.784Z"/>
  <rect width="28.372" height="28.372" x="176.302" y="151.749" stroke="url(#c)" stroke-width="1.628" rx="7.186"/>
  <g clip-path="url(#d)">
    <path fill="url(#e)" fill-rule="evenodd" d="M183.988 159.95c0-1.624 3.37-2.364 6.502-2.364 3.131 0 6.501.74 6.501 2.364v3.547c0 1.624-3.37 2.364-6.501 2.364-1.985 0-4.062-.299-5.32-.93v2.112c.073.259 1.255.876 3.547 1.099v1.181c-1.375-.127-2.664-.403-3.547-.845v2.111c.033.134.595.53 1.773.809v1.209c-1.693-.364-2.955-1.025-2.955-2.018V159.95Zm6.502-1.182c-3.458 0-5.231.863-5.321 1.191.091.311 1.863 1.174 5.321 1.174 3.426 0 5.198-.848 5.317-1.183-.119-.334-1.891-1.182-5.317-1.182Zm0 5.911c3.452 0 5.224-.861 5.319-1.19v-2.104c-1.258.631-3.335.93-5.319.93-1.985 0-4.062-.299-5.32-.93v2.112c.09.319 1.862 1.182 5.32 1.182Zm3.841 9.456a2.07 2.07 0 0 1-1.463-3.531l.836.836a.888.888 0 0 0 1.254 1.253l2.956-2.955a.888.888 0 0 0-1.255-1.253l-.837-.835a2.07 2.07 0 0 1 2.927 2.924l-2.955 2.955c-.39.391-.91.606-1.463.606Zm-3.546.591a2.07 2.07 0 0 1-1.463-3.531l2.955-2.955a2.07 2.07 0 0 1 3.532 1.462c0 .553-.215 1.072-.606 1.463l-.836-.836a.888.888 0 0 0-1.254-1.253l-2.955 2.955a.886.886 0 1 0 1.255 1.253l.836.835a2.053 2.053 0 0 1-1.464.607Z" clip-rule="evenodd"/>
  </g>
  <defs>
    <linearGradient id="a" x1="188.988" x2="188.988" y1="17.046" y2="47.046" gradientUnits="userSpaceOnUse">
      <stop stop-color="#9385FF"/>
      <stop offset="1" stop-color="#9385FF" stop-opacity=".18"/>
    </linearGradient>
    <linearGradient id="b" x1="190.172" x2="190.172" y1="23.697" y2="40.837" gradientUnits="userSpaceOnUse">
      <stop stop-color="#9385FF"/>
      <stop offset="1" stop-color="#fff"/>
    </linearGradient>
    <linearGradient id="c" x1="190.488" x2="190.488" y1="150.936" y2="180.936" gradientUnits="userSpaceOnUse">
      <stop stop-color="#0F52DE"/>
      <stop offset="1" stop-color="#0F52DE" stop-opacity=".18"/>
    </linearGradient>
    <linearGradient id="e" x1="191.672" x2="191.672" y1="157.586" y2="174.726" gradientUnits="userSpaceOnUse">
      <stop stop-color="#0F52DE"/>
      <stop offset="1" stop-color="#fff"/>
    </linearGradient>
    <clipPath id="d">
      <rect width="18.913" height="18.913" x="181.033" y="156.404" fill="#fff" rx="8"/>
    </clipPath>
  </defs>
</svg>