<svg xmlns="http://www.w3.org/2000/svg" fill="none" viewBox="0 0 432 214">
  <path stroke="#71717A" stroke-dasharray="4 4" d="M280.055 31.863h35.213c16.569 0 30 13.432 30 30V76.99c0 16.569 13.431 30.001 30 30.001h55.787m-151 75.238h35.213c16.569 0 30-13.432 30-30v-15.128c0-16.568 13.431-30 30-30h55.787">
    <animate attributeName="stroke-dashoffset" dur="2s" repeatCount="indefinite" values="40;0"/>
  </path>
  <rect width="237" height="63" x="31.695" y="150.729" fill="#18181B" rx="5"/>
  <path fill="#fff" d="M90.12 186.889c-1.777 0-3.233-.592-4.577-1.792l.784-.928c1.168 1.056 2.288 1.584 3.84 1.584 1.504 0 2.496-.8 2.496-1.904v-.032c0-1.04-.56-1.632-2.912-2.128-2.576-.56-3.76-1.392-3.76-3.232v-.032c0-1.76 1.552-3.056 3.68-3.056 1.632 0 2.8.464 3.936 1.376l-.736.976c-1.04-.848-2.08-1.216-3.232-1.216-1.456 0-2.384.8-2.384 1.808v.032c0 1.056.576 1.648 3.04 2.176 2.496.544 3.648 1.456 3.648 3.168v.032c0 1.92-1.6 3.168-3.824 3.168Zm6.922-3.792c.176 1.744 1.456 2.752 2.912 2.752 1.136 0 1.936-.464 2.608-1.168l.768.688c-.832.928-1.84 1.552-3.408 1.552-2.272 0-4.128-1.744-4.128-4.32 0-2.4 1.68-4.32 3.968-4.32 2.448 0 3.856 1.952 3.856 4.384 0 .112 0 .24-.016.432h-6.56Zm0-.992h5.328c-.144-1.504-1.008-2.784-2.64-2.784-1.424 0-2.512 1.184-2.688 2.784Zm12.396 7.216c-1.376 0-2.656-.384-3.76-1.152l.56-.96c.944.688 2 1.056 3.184 1.056 1.824 0 3.008-1.008 3.008-2.944v-.976c-.72.96-1.728 1.744-3.248 1.744-1.984 0-3.888-1.488-3.888-3.872v-.032c0-2.416 1.92-3.904 3.888-3.904 1.552 0 2.56.768 3.232 1.664v-1.488h1.232v6.832c0 1.28-.384 2.256-1.056 2.928-.736.736-1.84 1.104-3.152 1.104Zm-.016-4.32c1.568 0 3.04-1.136 3.04-2.8v-.032c0-1.696-1.472-2.8-3.04-2.8s-2.864 1.088-2.864 2.784v.032c0 1.664 1.328 2.816 2.864 2.816Zm6.977 1.728v-8.272h1.232v1.392c.544-.816 1.28-1.568 2.672-1.568 1.344 0 2.208.72 2.656 1.648.592-.912 1.472-1.648 2.912-1.648 1.904 0 3.072 1.28 3.072 3.328v5.12h-1.232v-4.832c0-1.6-.8-2.496-2.144-2.496-1.248 0-2.288.928-2.288 2.56v4.768h-1.216v-4.864c0-1.552-.816-2.464-2.128-2.464-1.312 0-2.304 1.088-2.304 2.608v4.72h-1.232Zm15.955-3.632c.176 1.744 1.456 2.752 2.912 2.752 1.136 0 1.936-.464 2.608-1.168l.768.688c-.832.928-1.84 1.552-3.408 1.552-2.272 0-4.128-1.744-4.128-4.32 0-2.4 1.68-4.32 3.968-4.32 2.448 0 3.856 1.952 3.856 4.384 0 .112 0 .24-.016.432h-6.56Zm0-.992h5.328c-.144-1.504-1.008-2.784-2.64-2.784-1.424 0-2.512 1.184-2.688 2.784Zm8.733 4.624v-8.272h1.232v1.44c.544-.896 1.408-1.616 2.832-1.616 2 0 3.168 1.344 3.168 3.312v5.136h-1.232v-4.832c0-1.536-.832-2.496-2.288-2.496-1.424 0-2.48 1.04-2.48 2.592v4.736h-1.232Zm12.627.144c-1.328 0-2.336-.656-2.336-2.336v-4.992h-1.152v-1.088h1.152v-2.496h1.232v2.496h2.624v1.088h-2.624v4.832c0 1.008.56 1.376 1.392 1.376.416 0 .768-.08 1.2-.288v1.056a3.099 3.099 0 0 1-1.488.352Zm13.826.048c-3.232 0-5.616-2.544-5.616-5.76v-.032c0-3.168 2.368-5.792 5.664-5.792 2.032 0 3.248.72 4.368 1.776l-.864.928c-.944-.896-2-1.536-3.52-1.536-2.48 0-4.336 2.016-4.336 4.592v.032c0 2.592 1.872 4.624 4.336 4.624 1.536 0 2.544-.592 3.616-1.616l.832.816c-1.168 1.184-2.448 1.968-4.48 1.968Zm10.104 0c-2.48 0-4.288-1.952-4.288-4.288v-.032c0-2.336 1.824-4.32 4.32-4.32 2.48 0 4.304 1.952 4.304 4.288v.032c0 2.336-1.84 4.32-4.336 4.32Zm.032-1.104c1.792 0 3.04-1.44 3.04-3.184v-.032c0-1.776-1.328-3.232-3.072-3.232-1.792 0-3.024 1.456-3.024 3.2v.032c0 1.776 1.312 3.216 3.056 3.216Zm6.536.912v-8.272h1.232v1.392c.544-.816 1.28-1.568 2.672-1.568 1.344 0 2.208.72 2.656 1.648.592-.912 1.472-1.648 2.912-1.648 1.904 0 3.072 1.28 3.072 3.328v5.12h-1.232v-4.832c0-1.6-.8-2.496-2.144-2.496-1.248 0-2.288.928-2.288 2.56v4.768h-1.216v-4.864c0-1.552-.816-2.464-2.128-2.464-1.312 0-2.304 1.088-2.304 2.608v4.72h-1.232Zm15.219 2.56v-10.832h1.232v1.664c.672-.992 1.648-1.84 3.168-1.84 1.984 0 3.952 1.568 3.952 4.288v.032c0 2.704-1.952 4.304-3.952 4.304-1.536 0-2.528-.832-3.168-1.76v4.144h-1.232Zm4.176-3.488c1.6 0 2.912-1.184 2.912-3.184v-.032c0-1.952-1.344-3.2-2.912-3.2-1.536 0-2.992 1.296-2.992 3.184v.032c0 1.92 1.456 3.2 2.992 3.2Zm8.913 1.104c-1.552 0-3.088-.88-3.088-2.576v-.032c0-1.776 1.44-2.704 3.536-2.704 1.056 0 1.792.144 2.528.352v-.256c0-1.472-.896-2.24-2.448-2.24-.976 0-1.744.24-2.512.592l-.368-1.008c.912-.416 1.792-.704 3.008-.704 1.168 0 2.08.32 2.672.912.576.576.864 1.376.864 2.432v5.056h-1.216v-1.232c-.576.736-1.52 1.408-2.976 1.408Zm.24-.992c1.52 0 2.752-.912 2.752-2.224v-.768a8.504 8.504 0 0 0-2.416-.352c-1.536 0-2.416.672-2.416 1.664v.032c0 1.04.96 1.648 2.08 1.648Zm6.561.816v-8.272h1.232v1.44c.544-.896 1.408-1.616 2.832-1.616 2 0 3.168 1.344 3.168 3.312v5.136h-1.232v-4.832c0-1.536-.832-2.496-2.288-2.496-1.424 0-2.48 1.04-2.48 2.592v4.736h-1.232Zm9.892-10.08v-1.36h1.408v1.36h-1.408Zm.08 10.08v-8.272h1.232v8.272h-1.232Zm4.827-3.632c.176 1.744 1.456 2.752 2.912 2.752 1.136 0 1.936-.464 2.608-1.168l.768.688c-.832.928-1.84 1.552-3.408 1.552-2.272 0-4.128-1.744-4.128-4.32 0-2.4 1.68-4.32 3.968-4.32 2.448 0 3.856 1.952 3.856 4.384 0 .112 0 .24-.016.432h-6.56Zm0-.992h5.328c-.144-1.504-1.008-2.784-2.64-2.784-1.424 0-2.512 1.184-2.688 2.784Zm11.469 4.784c-1.184 0-2.496-.464-3.424-1.216l.624-.88c.896.672 1.888 1.056 2.864 1.056.992 0 1.712-.512 1.712-1.312v-.032c0-.832-.976-1.152-2.064-1.456-1.296-.368-2.736-.816-2.736-2.336v-.032c0-1.424 1.184-2.368 2.816-2.368 1.008 0 2.128.352 2.976.912l-.56.928c-.768-.496-1.648-.8-2.448-.8-.976 0-1.6.512-1.6 1.2v.032c0 .784 1.024 1.088 2.128 1.424 1.28.384 2.656.88 2.656 2.368v.032c0 1.568-1.296 2.48-2.944 2.48Z"/>
  <rect width="28.372" height="28.372" x="45.509" y="168.042" stroke="url(#a)" stroke-width="1.628" rx="7.186"/>
  <g clip-path="url(#b)">
    <path fill="url(#c)" fill-rule="evenodd" d="M53.195 176.243c0-1.624 3.37-2.364 6.502-2.364 3.13 0 6.5.74 6.501 2.364v3.547c0 1.624-3.37 2.364-6.501 2.364-1.985 0-4.062-.299-5.32-.93v2.112c.073.259 1.255.876 3.547 1.099v1.181c-1.375-.127-2.664-.403-3.547-.845v2.111c.033.134.595.53 1.773.809v1.209c-1.693-.364-2.955-1.025-2.955-2.018v-10.639Zm6.502-1.182c-3.458 0-5.23.863-5.32 1.191.09.311 1.862 1.174 5.32 1.174 3.426 0 5.198-.848 5.317-1.183-.12-.334-1.89-1.182-5.317-1.182Zm0 5.911c3.452 0 5.224-.861 5.319-1.19v-2.104c-1.258.631-3.335.93-5.32.93-1.984 0-4.06-.299-5.319-.93v2.112c.09.319 1.862 1.182 5.32 1.182Zm3.841 9.456a2.07 2.07 0 0 1-1.463-3.531l.836.836a.888.888 0 0 0 1.254 1.253l2.956-2.955a.888.888 0 0 0-1.255-1.253l-.837-.835a2.07 2.07 0 0 1 2.927 2.924l-2.955 2.955c-.39.391-.91.606-1.463.606Zm-3.546.591a2.07 2.07 0 0 1-1.463-3.531l2.955-2.955a2.07 2.07 0 0 1 2.926 2.925l-.836-.836a.888.888 0 0 0-1.254-1.253l-2.955 2.955a.888.888 0 0 0 1.255 1.253l.836.835a2.054 2.054 0 0 1-1.464.607Z" clip-rule="evenodd"/>
  </g>
  <rect width="268.695" height="63" y=".363" fill="#18181B" rx="5"/>
  <path fill="#fff" d="M57.584 36.363v-11.2h4.768c1.28 0 2.288.368 2.928.992.464.48.72 1.072.72 1.792v.032c0 1.456-.896 2.208-1.776 2.592 1.328.4 2.4 1.168 2.4 2.704v.032c0 1.92-1.616 3.056-4.064 3.056h-4.976Zm1.248-6.208h3.312c1.52 0 2.576-.688 2.576-2v-.032c0-1.104-.88-1.824-2.48-1.824h-3.408v3.856Zm0 5.072h3.76c1.696 0 2.752-.752 2.752-2v-.032c0-1.216-1.024-1.92-2.976-1.92h-3.536v3.952Zm10.827-2.496c.176 1.744 1.456 2.752 2.912 2.752 1.136 0 1.936-.464 2.608-1.168l.768.688c-.832.928-1.84 1.552-3.408 1.552-2.272 0-4.128-1.744-4.128-4.32 0-2.4 1.68-4.32 3.968-4.32 2.448 0 3.856 1.952 3.856 4.384 0 .112 0 .24-.016.432h-6.56Zm0-.992h5.328c-.144-1.504-1.008-2.784-2.64-2.784-1.424 0-2.512 1.184-2.688 2.784Zm8.733 4.624v-8.272h1.232v1.44c.544-.896 1.408-1.616 2.832-1.616 2 0 3.168 1.344 3.168 3.312v5.136h-1.232v-4.832c0-1.536-.832-2.496-2.288-2.496-1.424 0-2.48 1.04-2.48 2.592v4.736h-1.232Zm13.587.192c-2.416 0-4.24-1.968-4.24-4.288v-.032c0-2.336 1.824-4.32 4.24-4.32 1.568 0 2.544.656 3.312 1.472l-.816.864c-.656-.688-1.392-1.248-2.512-1.248-1.68 0-2.96 1.424-2.96 3.2v.032c0 1.792 1.312 3.216 3.04 3.216 1.056 0 1.872-.528 2.528-1.232l.784.736c-.832.928-1.824 1.6-3.376 1.6Zm5.413-.192v-11.68h1.232v4.848c.544-.896 1.408-1.616 2.832-1.616 2 0 3.168 1.344 3.168 3.312v5.136h-1.232v-4.832c0-1.536-.832-2.496-2.288-2.496-1.424 0-2.48 1.04-2.48 2.592v4.736h-1.232Zm9.859 0v-8.272h1.232v1.392c.544-.816 1.28-1.568 2.672-1.568 1.344 0 2.208.72 2.656 1.648.592-.912 1.472-1.648 2.912-1.648 1.904 0 3.072 1.28 3.072 3.328v5.12h-1.232v-4.832c0-1.6-.8-2.496-2.144-2.496-1.248 0-2.288.928-2.288 2.56v4.768h-1.216V31.5c0-1.552-.816-2.464-2.128-2.464-1.312 0-2.304 1.088-2.304 2.608v4.72h-1.232Zm17.683.176c-1.552 0-3.088-.88-3.088-2.576v-.032c0-1.776 1.44-2.704 3.536-2.704 1.056 0 1.792.144 2.528.352v-.256c0-1.472-.896-2.24-2.448-2.24-.976 0-1.744.24-2.512.592l-.368-1.008c.912-.416 1.792-.704 3.008-.704 1.168 0 2.08.32 2.672.912.576.576.864 1.376.864 2.432v5.056h-1.216v-1.232c-.576.736-1.52 1.408-2.976 1.408Zm.24-.992c1.52 0 2.752-.912 2.752-2.224v-.768a8.504 8.504 0 0 0-2.416-.352c-1.536 0-2.416.672-2.416 1.664v.032c0 1.04.96 1.648 2.08 1.648Zm6.561.816v-8.272h1.232v2.16c.608-1.376 1.808-2.368 3.376-2.304v1.328h-.096c-1.808 0-3.28 1.296-3.28 3.792v3.296h-1.232Zm6.485 0v-11.68h1.232v8.064l4.464-4.656h1.536l-3.472 3.552 3.584 4.72h-1.472l-2.96-3.856-1.68 1.696v2.16h-1.232Zm14.114 0v-11.2h4.192c2.528 0 4.192 1.344 4.192 3.552v.032c0 2.416-2.016 3.664-4.4 3.664h-2.72v3.952h-1.264Zm1.264-5.104h2.768c1.856 0 3.072-.992 3.072-2.464v-.032c0-1.6-1.2-2.432-3.008-2.432h-2.832v4.928Zm9.873 1.472c.176 1.744 1.456 2.752 2.912 2.752 1.136 0 1.936-.464 2.608-1.168l.768.688c-.832.928-1.84 1.552-3.408 1.552-2.272 0-4.128-1.744-4.128-4.32 0-2.4 1.68-4.32 3.968-4.32 2.448 0 3.856 1.952 3.856 4.384 0 .112 0 .24-.016.432h-6.56Zm0-.992h5.328c-.144-1.504-1.008-2.784-2.64-2.784-1.424 0-2.512 1.184-2.688 2.784Zm8.733 4.624v-8.272h1.232v2.16c.608-1.376 1.808-2.368 3.376-2.304v1.328h-.096c-1.808 0-3.28 1.296-3.28 3.792v3.296h-1.232Zm6.949 0V29.18h-1.136v-1.072h1.136v-.72c0-.944.256-1.664.72-2.128.416-.416 1.024-.64 1.776-.64.576 0 .96.064 1.36.208V25.9c-.448-.128-.784-.208-1.2-.208-.96 0-1.44.576-1.44 1.76v.672h2.624v1.056h-2.608v7.184h-1.232Zm9.03.192c-2.48 0-4.288-1.952-4.288-4.288v-.032c0-2.336 1.824-4.32 4.32-4.32 2.48 0 4.304 1.952 4.304 4.288v.032c0 2.336-1.84 4.32-4.336 4.32Zm.032-1.104c1.792 0 3.04-1.44 3.04-3.184v-.032c0-1.776-1.328-3.232-3.072-3.232-1.792 0-3.024 1.456-3.024 3.2v.032c0 1.776 1.312 3.216 3.056 3.216Zm6.536.912v-8.272h1.232v2.16c.608-1.376 1.808-2.368 3.376-2.304v1.328h-.096c-1.808 0-3.28 1.296-3.28 3.792v3.296h-1.232Zm6.484 0v-8.272h1.232v1.392c.544-.816 1.28-1.568 2.672-1.568 1.344 0 2.208.72 2.656 1.648.592-.912 1.472-1.648 2.912-1.648 1.904 0 3.072 1.28 3.072 3.328v5.12h-1.232v-4.832c0-1.6-.8-2.496-2.144-2.496-1.248 0-2.288.928-2.288 2.56v4.768h-1.216V31.5c0-1.552-.816-2.464-2.128-2.464-1.312 0-2.304 1.088-2.304 2.608v4.72h-1.232Zm17.683.176c-1.552 0-3.088-.88-3.088-2.576v-.032c0-1.776 1.44-2.704 3.536-2.704 1.056 0 1.792.144 2.528.352v-.256c0-1.472-.896-2.24-2.448-2.24-.976 0-1.744.24-2.512.592l-.368-1.008c.912-.416 1.792-.704 3.008-.704 1.168 0 2.08.32 2.672.912.576.576.864 1.376.864 2.432v5.056h-1.216v-1.232c-.576.736-1.52 1.408-2.976 1.408Zm.24-.992c1.52 0 2.752-.912 2.752-2.224v-.768a8.504 8.504 0 0 0-2.416-.352c-1.536 0-2.416.672-2.416 1.664v.032c0 1.04.96 1.648 2.08 1.648Zm6.562.816v-8.272h1.232v1.44c.544-.896 1.408-1.616 2.832-1.616 2 0 3.168 1.344 3.168 3.312v5.136h-1.232v-4.832c0-1.536-.832-2.496-2.288-2.496-1.424 0-2.48 1.04-2.48 2.592v4.736h-1.232Zm13.587.192c-2.416 0-4.24-1.968-4.24-4.288v-.032c0-2.336 1.824-4.32 4.24-4.32 1.568 0 2.544.656 3.312 1.472l-.816.864c-.656-.688-1.392-1.248-2.512-1.248-1.68 0-2.96 1.424-2.96 3.2v.032c0 1.792 1.312 3.216 3.04 3.216 1.056 0 1.872-.528 2.528-1.232l.784.736c-.832.928-1.824 1.6-3.376 1.6Zm5.914-3.824c.176 1.744 1.456 2.752 2.912 2.752 1.136 0 1.936-.464 2.608-1.168l.768.688c-.832.928-1.84 1.552-3.408 1.552-2.272 0-4.128-1.744-4.128-4.32 0-2.4 1.68-4.32 3.968-4.32 2.448 0 3.856 1.952 3.856 4.384 0 .112 0 .24-.016.432h-6.56Zm0-.992h5.328c-.144-1.504-1.008-2.784-2.64-2.784-1.424 0-2.512 1.184-2.688 2.784Z"/>
  <rect width="28.372" height="28.372" x="16.814" y="17.677" stroke="url(#d)" stroke-width="1.628" rx="7.186"/>
  <path fill="url(#e)" fill-rule="evenodd" d="M24.5 25.878c0-1.624 3.37-2.364 6.5-2.364 3.131 0 6.501.74 6.502 2.364v3.546c0 1.624-3.37 2.364-6.502 2.364-1.984 0-4.061-.298-5.319-.929v2.111c.073.26 1.254.877 3.546 1.1v1.18c-1.375-.126-2.663-.402-3.546-.845v2.112c.032.133.595.53 1.773.809v1.209c-1.694-.365-2.955-1.026-2.955-2.018V25.878Zm6.5-1.182c-3.457 0-5.23.863-5.32 1.191.09.31 1.863 1.173 5.32 1.173 3.427 0 5.198-.847 5.318-1.182-.12-.334-1.891-1.182-5.318-1.182Zm0 5.91c3.453 0 5.225-.86 5.32-1.19v-2.103c-1.258.63-3.335.93-5.32.93-1.984 0-4.061-.3-5.319-.93v2.111c.09.32 1.862 1.182 5.32 1.182Zm3.842 9.457a2.071 2.071 0 0 1-1.463-3.531l.836.836a.888.888 0 0 0 1.254 1.253l2.955-2.955a.888.888 0 0 0-1.255-1.253l-.836-.835a2.054 2.054 0 0 1 1.464-.608 2.07 2.07 0 0 1 1.463 3.532l-2.955 2.955c-.39.39-.91.606-1.463.606Zm-3.546.59a2.071 2.071 0 0 1-1.463-3.53l2.955-2.955a2.07 2.07 0 0 1 2.926 2.925l-.836-.836a.888.888 0 0 0-1.254-1.254l-2.955 2.956a.888.888 0 0 0 1.255 1.253l.836.835a2.055 2.055 0 0 1-1.464.607Z" clip-rule="evenodd"/>
  <defs>
    <linearGradient id="a" x1="59.695" x2="59.695" y1="167.229" y2="197.229" gradientUnits="userSpaceOnUse">
      <stop stop-color="#4CCE94"/>
      <stop offset="1" stop-color="#4CCE94" stop-opacity=".18"/>
    </linearGradient>
    <linearGradient id="c" x1="60.879" x2="60.879" y1="173.879" y2="191.019" gradientUnits="userSpaceOnUse">
      <stop stop-color="#4CCE94"/>
      <stop offset="1" stop-color="#fff"/>
    </linearGradient>
    <linearGradient id="d" x1="31" x2="31" y1="16.863" y2="46.863" gradientUnits="userSpaceOnUse">
      <stop stop-color="#5CB7F2"/>
      <stop offset="1" stop-color="#5CB7F2" stop-opacity=".18"/>
    </linearGradient>
    <linearGradient id="e" x1="32.182" x2="32.182" y1="23.514" y2="40.654" gradientUnits="userSpaceOnUse">
      <stop stop-color="#5CB7F2"/>
      <stop offset="1" stop-color="#fff"/>
    </linearGradient>
    <clipPath id="b">
      <rect width="18.913" height="18.913" x="50.24" y="172.697" fill="#fff" rx="8"/>
    </clipPath>
  </defs>
</svg>