<svg xmlns="http://www.w3.org/2000/svg" width="141" height="34" fill="none" viewBox="0 0 141 34">
  <path fill="#fff" d="M70.471 20.55h69.834c.569 0 .514-.063.518.527 0 .351-.009.703.002 1.052.007.21-.059.318-.283.294-.079-.009-.158 0-.237 0H.638c-.573 0-.514.048-.518-.53 0-.36.006-.72-.003-1.077-.004-.187.057-.281.257-.266.106.01.211 0 .316 0h69.781Zm40.658-12.372-.742 2.079c-.634 1.793-1.273 3.585-1.901 5.38-.083.238-.204.323-.456.317a77.96 77.96 0 0 0-2.369-.003c-.193 0-.301-.059-.382-.241-1.69-3.844-3.385-7.686-5.08-11.53L98.724.835c-.134-.3-.119-.33.204-.33 1.089 0 2.178.005 3.264-.004.207 0 .312.07.398.26a5402.65 5402.65 0 0 0 4.305 9.57c.035.08.076.154.12.24.115-.044.11-.14.132-.217.896-3.153 1.791-6.307 2.685-9.46.11-.388.108-.388.518-.388.588 0 1.177.008 1.765-.005.217-.004.307.08.369.277.972 3.121 1.949 6.24 2.926 9.36.042.132.086.264.149.455.301-.705.58-1.355.859-2.004 1.113-2.604 2.228-5.208 3.332-7.813.086-.2.193-.277.411-.275 1.097.009 2.195.005 3.29.005.284 0 .299.026.187.283-2.129 4.98-4.261 9.962-6.386 14.947-.072.171-.169.213-.336.213-.86-.004-1.721-.013-2.579.005-.275.006-.404-.08-.494-.34-.558-1.599-1.131-3.19-1.699-4.784-.284-.793-.565-1.585-.85-2.378-.031-.087-.044-.188-.167-.278l.002.004ZM37.409.714c4.511 0 9.023.002 13.534-.007.279 0 .448.088.606.31 1.376 1.927 2.761 3.848 4.144 5.769.183.255.187.255.37.004 1.42-1.95 2.84-3.899 4.256-5.852a.504.504 0 0 1 .459-.23c1.238.008 2.476.004 3.712.004.085 0 .202-.04.248.037.06.099-.055.171-.11.244a6232.187 6232.187 0 0 1-6.684 8.77.8.8 0 0 0-.178.529c.006 1.754.004 3.508.002 5.262 0 .386 0 .386-.373.388-1.001 0-2.002-.006-3.001.005-.26.002-.35-.07-.35-.343.012-1.824.005-3.648.01-5.472a.766.766 0 0 0-.172-.505 1530.716 1530.716 0 0 1-4.355-5.614c-.11-.142-.233-.186-.404-.186-1.203.004-2.406.002-3.607.002h-21.54c-.096 0-.193-.005-.29 0-.186.009-.272-.07-.272-.264.005-.867.007-1.736 0-2.603 0-.248.145-.253.327-.253 2.064.003 4.125 0 6.189 0h7.479v.005ZM98.99 15.945c-.545 0-1.09-.01-1.632.004-.228.007-.342-.081-.439-.283-1.548-3.234-3.104-6.463-4.658-9.694-.121-.253-.24-.508-.362-.76-.031-.062-.042-.156-.12-.16-.098-.007-.107.1-.14.167-.652 1.35-1.301 2.7-1.949 4.052-1.034 2.15-2.068 4.298-3.095 6.447-.08.167-.185.229-.367.229-1.124-.007-2.246 0-3.37-.005-.31 0-.322-.024-.184-.313 1.31-2.745 2.623-5.489 3.936-8.235 1.052-2.2 2.103-4.397 3.146-6.599.105-.224.237-.303.483-.298 1.018.013 2.035.017 3.053 0 .286-.005.418.1.532.346 1.512 3.192 3.031 6.382 4.553 9.572.819 1.716 1.64 3.433 2.458 5.15.016.03.031.064.044.096.114.262.101.286-.175.286-.571.002-1.142 0-1.713 0l-.002-.002Zm41.705-.316c-.191.143-.289.114-.382.114-1.554 0-3.106-.002-4.66.007a.714.714 0 0 1-.556-.229c-1.503-1.523-3.018-3.036-4.52-4.562-.16-.164-.232-.09-.351.029-1.493 1.497-2.99 2.99-4.485 4.485-.05.05-.099.101-.149.147-.037.033-.073.09-.132.06-.055-.03-.037-.093-.042-.143-.002-.044 0-.088 0-.132 0-1.552.003-3.104-.004-4.656 0-.209.062-.36.209-.51a6793.8 6793.8 0 0 0 9.514-9.505.662.662 0 0 1 .507-.217c1.563.006 3.124.002 4.687.004.092 0 .222-.046.266.055.046.105-.084.16-.148.224-2.359 2.353-4.724 4.704-7.084 7.058-.309.307-.333.228-.008.553 2.344 2.344 4.691 4.689 7.04 7.03.074.071.178.113.301.19l-.003-.002Zm-128.111.321c-.781 0-1.563-.007-2.342.004a.649.649 0 0 1-.51-.213c-1.501-1.513-3.01-3.019-4.509-4.536-.173-.175-.265-.164-.432.005-1.502 1.512-3.012 3.016-4.52 4.522-.06.06-.117.173-.202.145-.11-.04-.055-.17-.057-.257-.005-1.56 0-3.122-.007-4.683a.63.63 0 0 1 .196-.487C3.388 7.274 6.57 4.093 9.752.91a.607.607 0 0 1 .463-.194c1.572.005 3.142 0 4.714.005.09 0 .22-.053.256.061.029.086-.085.143-.147.202A2520.29 2520.29 0 0 1 7.9 8.1c-.195.193-.177.285.007.468 2.358 2.344 4.709 4.695 7.06 7.044.05.05.101.099.15.15.034.037.09.072.072.129-.024.079-.101.055-.158.055-.44.002-.878 0-1.315 0h-1.133l.002.004ZM71.29 8.3c.357-.14.712-.28 1.073-.416 1.427-.542 2.851-1.086 4.282-1.618.21-.079.275-.19.275-.406-.007-1.587-.005-3.174-.005-4.761 0-.378 0-.378.385-.378.974 0 1.947.007 2.922-.004.252-.003.355.059.355.335a5360.74 5360.74 0 0 0 0 14.57c0 .25-.074.336-.329.332-.992-.011-1.982-.004-2.975-.004-.349 0-.355-.007-.355-.352 0-1.587-.007-3.174.004-4.761 0-.255-.085-.367-.32-.455-1.693-.63-3.381-1.273-5.072-1.912-.079-.03-.155-.068-.234-.103a.706.706 0 0 0-.005-.068h-.002Zm-49.98.036v7.205c0 .269-.138.404-.411.404-1.01 0-2.018-.005-3.028.004-.237 0-.32-.072-.32-.316.006-4.865.006-9.73 0-14.594 0-.255.085-.332.334-.327 1.01.01 2.017.004 3.027.004.397 0 .397 0 .397.389v7.23Zm44.902-.031V1.07c0-.354 0-.356.346-.356 1.019 0 2.037.004 3.054-.004.237 0 .32.068.32.314-.006 4.831-.004 9.663-.004 14.495 0 .283-.138.424-.415.424-.992 0-1.984-.007-2.974.004-.25.002-.334-.077-.332-.331.009-2.44.005-4.876.005-7.315v.004Z"/>
  <path fill="#fff" d="M43.69 10.646v4.941c0 .347-.012.358-.352.358-1.025 0-2.053-.004-3.078.004-.237 0-.322-.072-.322-.316.006-3.321.006-6.643 0-9.964 0-.263.103-.325.342-.323 1.016.009 2.035.005 3.051.005.347 0 .358.01.358.35v4.945Zm-14.08-.025V5.704c0-.349.004-.353.35-.353 1.02 0 2.036.004 3.054-.005.24-.002.319.08.319.32-.007 3.322-.007 6.644 0 9.965 0 .244-.082.32-.319.318-1.034-.008-2.07-.008-3.104 0-.23 0-.303-.076-.3-.305.006-1.675.004-3.348.004-5.023h-.005Zm17.705 21.927c-.024-.417-.042-.764-.066-1.111-.096-1.41-.022-2.821-.044-4.233-.002-.153.066-.228.22-.224h.026c.95.011.775-.12.78.742.008 1.921.004 3.84.002 5.76 0 .35-.007.36-.351.354-.912-.015-.637.145-1.142-.612-1.074-1.603-2.195-3.175-3.185-4.83-.022-.035-.049-.068-.093-.134-.046.253.022.463.035.676.104 1.524.027 3.05.051 4.575 0 .027-.002.053 0 .08.015.18-.07.252-.248.25-.926-.014-.768.114-.773-.725-.009-1.92-.002-3.84-.002-5.76 0-.367.007-.378.362-.371.907.015.635-.147 1.142.614 1.071 1.605 2.2 3.17 3.185 4.832.013.022.033.04.103.123l-.002-.006Zm46.24-2.167v-3.104c0-.182.028-.305.254-.299 1.008.027 2.018-.052 3.025.053.358.037.707.12 1.039.274.667.31.994.848 1.007 1.566.014.671-.239 1.231-.82 1.611-.207.134-.429.253-.67.3-.266.053-.226.148-.103.323.56.806 1.11 1.62 1.661 2.433.051.075.16.151.101.25-.054.092-.177.035-.27.05-.616.112-1.016-.114-1.328-.68-.382-.698-.876-1.332-1.31-2.002-.097-.15-.209-.215-.389-.206a6.765 6.765 0 0 1-.79 0c-.248-.018-.338.063-.334.322.016.745-.002 1.49.009 2.235.004.248-.073.338-.33.338-.75-.004-.75.005-.75-.753v-2.709l-.002-.002Zm1.075-1.418v.999c0 .112.01.226.158.221.707-.017 1.423.088 2.119-.116.61-.18.893-.584.871-1.234-.017-.53-.327-.862-.944-.99-.667-.138-1.343-.096-2.017-.1-.16 0-.187.091-.187.221v.999Zm30.786-25.61c0-.84.009-1.681-.004-2.522-.004-.248.088-.316.321-.316 1.683.006 3.367.002 5.049.004.083 0 .197-.033.241.055.048.099-.066.15-.123.206a2762.269 2762.269 0 0 1-5.249 5.236c-.052.053-.103.156-.184.123-.094-.04-.051-.154-.051-.235-.002-.85 0-1.699 0-2.548v-.003ZM.07 6.376c-.083-.108-.059-.198-.059-.281V1.072c0-.355 0-.358.345-.358 1.666 0 3.332.003 5 .007.09 0 .22-.046.262.057.041.103-.084.16-.147.226C3.734 2.741 1.996 4.473.257 6.207c-.055.055-.114.105-.187.169Zm81.768 23.096c-.033.634.064 1.418-.046 2.193-.198 1.392-1.003 2.153-2.408 2.27-.617.05-1.23.013-1.811-.229-.918-.382-1.324-1.126-1.451-2.063-.095-.69-.038-1.383-.046-2.075-.01-.761.004-1.525-.007-2.287-.002-.228.079-.323.307-.303.15.011.299.013.448 0 .248-.022.336.07.334.327-.011 1.236-.002 2.472-.007 3.708 0 .24.027.474.07.705.213 1.104.97 1.506 2.005 1.391 1.06-.118 1.57-.775 1.58-1.962.011-1.262.003-2.525.005-3.787 0-.378 0-.38.382-.378.748.005.639-.083.645.64.005.57 0 1.139 0 1.852v-.002Zm-55.33.927c0-1.034.007-2.068-.004-3.104-.002-.24.075-.323.316-.32 1.341.008 2.685.006 4.026 0 .222 0 .334.065.312.298-.007.07-.007.14 0 .21.022.229-.077.308-.305.306-.984-.009-1.965 0-2.949-.009-.232-.002-.331.055-.32.307.018.472.018.947 0 1.42-.011.264.092.328.336.323.781-.01 1.56.003 2.342-.008.25-.005.365.076.33.331-.005.035 0 .07 0 .106 0 .368 0 .37-.36.37-.782 0-1.561.007-2.343-.004-.228-.004-.31.064-.303.297.016.594.013 1.192 0 1.789-.006.237.064.32.31.316 1.018-.013 2.035-.007 3.053-.002.114 0 .281-.05.303.123.027.21.077.436-.041.638-.038.062-.128.049-.198.049-1.412 0-2.825-.003-4.237.004-.237 0-.27-.116-.27-.312.005-1.043.002-2.085.002-3.13v.002Zm83.583.009c0-1.034.006-2.07-.005-3.104-.002-.257.086-.332.334-.33 1.317.01 2.634.011 3.949 0 .273-.002.369.095.336.354a.812.812 0 0 0 0 .184c.02.207-.072.28-.276.277-.72-.007-1.44-.002-2.16 0-.29 0-.58.004-.87 0-.167-.005-.239.061-.239.23.004.527.007 1.052 0 1.579-.002.215.125.235.292.235.773-.002 1.545-.005 2.318 0 .132 0 .318-.064.367.114.055.2.068.421-.016.619-.044.103-.171.066-.263.066-.79.002-1.581.01-2.371-.005-.255-.004-.336.08-.329.332.015.577.017 1.157 0 1.736-.009.275.092.34.351.336 1.001-.013 2.002-.006 3.001-.004.325 0 .336.013.338.342 0 .062-.004.123 0 .185.02.22-.083.29-.296.287-.817-.009-1.634-.002-2.45-.002-.562 0-1.124-.009-1.686.004-.248.007-.336-.072-.334-.329.013-1.034.004-2.07.004-3.104l.005-.002Zm17.961 3.541c-.683-.009-1.548-.266-2.316-.834-.18-.134-.216-.229-.033-.404.414-.398.404-.402.891-.108.698.422 1.444.621 2.265.477a1.81 1.81 0 0 0 .661-.249c.556-.35.593-1.082.077-1.488-.239-.187-.522-.285-.801-.39-.507-.196-1.017-.387-1.526-.58a2.916 2.916 0 0 1-.751-.43c-.838-.67-.834-1.834.013-2.492.696-.54 1.504-.643 2.347-.558a3.524 3.524 0 0 1 1.743.685c.143.105.178.184.035.33-.39.399-.379.397-.882.131-.733-.388-1.502-.5-2.277-.145-.656.301-.696 1.054-.096 1.45.138.09.29.166.443.225.531.207 1.069.398 1.601.606.228.09.454.189.669.307 1.212.677 1.269 2.207.108 2.973-.578.38-1.225.503-2.174.5l.003-.006ZM12.763 32.824c.16-.283.222-.54.307-.788.544-1.583 1.089-3.165 1.622-4.75.077-.23.19-.334.435-.31.165.015.334.011.5 0 .213-.01.264.068.187.266-.197.516-.386 1.034-.577 1.552l-1.72 4.634c-.15.406-.148.415-.572.406-.973-.017-.725.165-1.06-.724-.74-1.95-1.46-3.908-2.193-5.86-.084-.223-.02-.28.197-.276 1.045.03.773-.184 1.118.781.56 1.577 1.093 3.164 1.637 4.747.031.09.068.177.123.32l-.004.002Zm49.951-1.995c0 .893-.007 1.789.004 2.682.004.257-.088.332-.336.33-.75-.005-.75.004-.75-.751 0-1.658-.007-3.313.006-4.97 0-.268-.08-.35-.343-.34-.588.017-1.176 0-1.762.008-.224.005-.314-.068-.314-.3 0-.51-.009-.51.494-.51h5.08c.114 0 .283-.048.31.117.034.21.078.439-.04.639-.047.078-.163.048-.249.048-.605 0-1.211.009-1.815-.002-.215-.005-.29.068-.288.285.01.92.005 1.842.005 2.762l-.002.002Z"/>
</svg>
