<svg xmlns="http://www.w3.org/2000/svg" fill="none" viewBox="0 0 1135 441">
  <path stroke="#71717A" stroke-dasharray="3.97 3.97" stroke-width=".993" d="M922 275h-29.918c-15.188 0-27.499-12.312-27.499-27.5s-12.313-27.5-27.5-27.5H763">
    <animate attributeName="stroke-dashoffset" dur="2s" repeatCount="indefinite" values="0;39.7"/>
  </path>
  <path stroke="#71717A" stroke-dasharray="3.97 3.97" stroke-width=".993" d="M927 409h-32.196C878.344 409 865 395.656 865 379.196V239">
    <animate attributeName="stroke-dashoffset" dur="2s" repeatCount="indefinite" values="0;39.7"/>
  </path>
  <path stroke="#71717A" stroke-dasharray="3.97 3.97" stroke-width=".993" d="M922 165h-29.918c-15.188 0-27.499 12.312-27.499 27.5s-12.313 27.5-27.5 27.5H763">
    <animate attributeName="stroke-dashoffset" dur="2s" repeatCount="indefinite" values="0;39.7"/>
  </path>
  <path stroke="#71717A" stroke-dasharray="3.97 3.97" stroke-width=".993" d="M927 31h-32.196C878.344 31 865 44.344 865 60.804V201">
    <animate attributeName="stroke-dashoffset" dur="2s" repeatCount="indefinite" values="0;39.7"/>
  </path>
  <rect width="147" height="62" x="927" y="1" fill="#18181B" rx="4.967"/>
  <path fill="#fff" d="M985.574 37V25.873h1.255v9.967h6.263V37h-7.518Zm9.841 0V25.873h4.165c2.51 0 4.16 1.335 4.16 3.529v.032c0 2.4-2 3.64-4.367 3.64h-2.702V37h-1.256Zm1.256-5.07h2.75c1.839 0 3.049-.986 3.049-2.448v-.032c0-1.59-1.19-2.416-2.986-2.416h-2.813v4.895ZM1010.8 37V25.873h3.86c3.5 0 5.91 2.4 5.91 5.532v.032c0 3.131-2.41 5.563-5.91 5.563h-3.86Zm1.25-1.16h2.61c2.81 0 4.61-1.908 4.61-4.372v-.031c0-2.464-1.8-4.403-4.61-4.403h-2.61v8.806Zm11.18 1.16V25.873h3.86c3.5 0 5.92 2.4 5.92 5.532v.032c0 3.131-2.42 5.563-5.92 5.563h-3.86Zm1.26-1.16h2.6c2.82 0 4.61-1.908 4.61-4.372v-.031c0-2.464-1.79-4.403-4.61-4.403h-2.6v8.806Zm21.32 1.494-1.47-1.335c-.93.747-2.13 1.192-3.51 1.192-3.38 0-5.66-2.655-5.66-5.723v-.031c0-3.068 2.31-5.755 5.69-5.755 3.39 0 5.66 2.655 5.66 5.723v.032c0 1.398-.47 2.718-1.33 3.735l1.48 1.224-.86.938Zm-4.95-1.304c.99 0 1.88-.318 2.56-.842l-2.06-1.765.84-.937 2.05 1.86c.6-.78.97-1.78.97-2.878v-.031c0-2.528-1.84-4.594-4.39-4.594-2.54 0-4.35 2.034-4.35 4.562v.032c0 2.527 1.84 4.593 4.38 4.593Zm10.82 1.129c-1.17 0-2.48-.461-3.4-1.208l.62-.874c.89.667 1.88 1.049 2.85 1.049.98 0 1.7-.509 1.7-1.304v-.032c0-.826-.97-1.144-2.05-1.446-1.29-.366-2.72-.81-2.72-2.32v-.033c0-1.414 1.17-2.352 2.8-2.352 1 0 2.11.35 2.95.906l-.55.922c-.77-.493-1.64-.795-2.44-.795-.97 0-1.59.509-1.59 1.192v.032c0 .779 1.02 1.081 2.12 1.415 1.27.381 2.64.874 2.64 2.352v.032c0 1.558-1.29 2.464-2.93 2.464Z"/>
  <rect width="28.187" height="28.187" x="943.439" y="17.808" stroke="url(#a)" stroke-width="1.617" rx="7.139"/>
  <path fill="url(#b)" d="M957.533 23.683a8.222 8.222 0 0 0-8.062 9.822 8.222 8.222 0 0 0 11.207 5.99 8.216 8.216 0 0 0 5.074-7.593 8.217 8.217 0 0 0-8.219-8.22Zm0 15.264a7.042 7.042 0 0 1-6.509-4.35 7.045 7.045 0 1 1 6.509 4.35Z"/>
  <path fill="url(#c)" d="M957.533 37.185a.88.88 0 1 0 0-1.76.88.88 0 0 0 0 1.76Z"/>
  <path fill="url(#d)" d="M958.12 27.205h-.881a2.637 2.637 0 0 0-2.642 2.642v.293h1.174v-.293a1.469 1.469 0 0 1 1.468-1.468h.881a1.466 1.466 0 0 1 1.467 1.468 1.464 1.464 0 0 1-1.467 1.468h-1.175v2.641h1.175V32.49a2.644 2.644 0 0 0 2.641-2.642 2.643 2.643 0 0 0-2.641-2.642Z"/>
  <rect width="203" height="62" x="927" y="379" fill="#18181B" rx="4.967"/>
  <path fill="#fff" d="M985.574 415v-11.127h4.164c2.512 0 4.165 1.335 4.165 3.529v.032c0 2.4-2.003 3.64-4.371 3.64h-2.703V415h-1.255Zm1.255-5.071h2.75c1.844 0 3.052-.985 3.052-2.448v-.031c0-1.59-1.192-2.416-2.988-2.416h-2.814v4.895Zm12.829 5.262c-2.463 0-4.26-1.939-4.26-4.26v-.032c0-2.321 1.812-4.292 4.292-4.292 2.46 0 4.28 1.939 4.28 4.26v.032a4.27 4.27 0 0 1-4.312 4.292Zm.032-1.097c1.78 0 3.02-1.431 3.02-3.163v-.032c0-1.764-1.32-3.211-3.052-3.211-1.78 0-3.004 1.447-3.004 3.179v.032c0 1.764 1.304 3.195 3.036 3.195Zm6.49.906v-8.218h1.23v2.146c.6-1.367 1.79-2.353 3.35-2.289v1.319h-.09c-1.8 0-3.26 1.288-3.26 3.768V415h-1.23Zm9.2.143c-1.32 0-2.33-.652-2.33-2.321v-4.959h-1.14v-1.081h1.14v-2.48h1.23v2.48h2.61v1.081h-2.61v4.8c0 1.002.55 1.367 1.38 1.367.41 0 .76-.079 1.19-.286v1.049c-.43.223-.89.35-1.47.35Zm4.13-.143v-7.137h-1.13v-1.065h1.13v-.715c0-.938.26-1.653.72-2.114.41-.414 1.02-.636 1.76-.636.57 0 .96.063 1.35.206v1.065c-.44-.127-.78-.206-1.19-.206-.95 0-1.43.572-1.43 1.748v.668h2.61v1.049h-2.59V415h-1.23Zm8.97.191c-2.46 0-4.26-1.939-4.26-4.26v-.032c0-2.321 1.82-4.292 4.3-4.292 2.46 0 4.27 1.939 4.27 4.26v.032c0 2.321-1.83 4.292-4.31 4.292Zm.04-1.097c1.78 0 3.02-1.431 3.02-3.163v-.032c0-1.764-1.32-3.211-3.06-3.211-1.78 0-3 1.447-3 3.179v.032c0 1.764 1.3 3.195 3.04 3.195Zm6.6.906v-11.604h1.22V415h-1.22Zm4.1-10.014v-1.351h1.4v1.351h-1.4Zm.08 10.014v-8.218h1.22V415h-1.22Zm7.81.191c-2.46 0-4.26-1.939-4.26-4.26v-.032c0-2.321 1.81-4.292 4.29-4.292 2.47 0 4.28 1.939 4.28 4.26v.032c0 2.321-1.83 4.292-4.31 4.292Zm.03-1.097c1.78 0 3.02-1.431 3.02-3.163v-.032c0-1.764-1.32-3.211-3.05-3.211-1.78 0-3 1.447-3 3.179v.032c0 1.764 1.3 3.195 3.03 3.195Zm11.47.906v-11.127h4.78c1.37 0 2.47.413 3.17 1.113.54.54.85 1.319.85 2.193v.032c0 1.844-1.27 2.925-3.02 3.243l3.42 4.546h-1.54l-3.23-4.324h-3.18V415h-1.25Zm1.25-5.452h3.42c1.67 0 2.86-.858 2.86-2.289v-.032c0-1.367-1.05-2.193-2.84-2.193h-3.44v4.514Zm10.6 1.844c.18 1.732 1.45 2.734 2.9 2.734 1.13 0 1.92-.461 2.59-1.161l.76.684c-.82.922-1.83 1.542-3.38 1.542-2.26 0-4.1-1.733-4.1-4.292 0-2.384 1.66-4.292 3.94-4.292 2.43 0 3.83 1.939 3.83 4.356 0 .111 0 .238-.02.429h-6.52Zm0-.986h5.3c-.14-1.494-1-2.766-2.62-2.766-1.42 0-2.5 1.177-2.68 2.766Zm11.03 4.658-3.56-8.282h1.35l2.76 6.819 2.78-6.819h1.32l-3.57 8.282h-1.08Zm6.61-10.078v-1.351h1.4v1.351h-1.4Zm.08 10.014v-8.218h1.22V415h-1.22Zm4.79-3.608c.18 1.732 1.45 2.734 2.9 2.734 1.12 0 1.92-.461 2.59-1.161l.76.684c-.83.922-1.83 1.542-3.39 1.542-2.25 0-4.1-1.733-4.1-4.292 0-2.384 1.67-4.292 3.95-4.292 2.43 0 3.83 1.939 3.83 4.356 0 .111 0 .238-.02.429h-6.52Zm0-.986h5.3c-.15-1.494-1.01-2.766-2.63-2.766-1.41 0-2.49 1.177-2.67 2.766Zm10.45 4.658-2.87-8.282h1.3l2.16 6.597 2.21-6.629h1.02l2.22 6.629 2.16-6.597h1.28l-2.9 8.282h-1.06l-2.21-6.486-2.23 6.486h-1.08Z"/>
  <path stroke="url(#e)" stroke-width="1.617" d="M950.947 395.809h13.909a7.138 7.138 0 0 1 7.139 7.138v13.909a7.139 7.139 0 0 1-7.139 7.139h-13.909a7.138 7.138 0 0 1-7.138-7.139v-13.909a7.138 7.138 0 0 1 7.138-7.138Z"/>
  <path fill="url(#f)" d="M958.489 412.251h-1.174v2.348h1.174v-2.348Z"/>
  <path fill="url(#g)" d="M961.425 411.077h-1.175v3.522h1.175v-3.522Z"/>
  <path fill="url(#h)" d="M955.554 408.728h-1.174v5.871h1.174v-5.871Z"/>
  <path fill="url(#i)" d="M963.186 403.445h-1.761v-.587a1.174 1.174 0 0 0-1.175-1.174h-4.696a1.172 1.172 0 0 0-1.174 1.174v.587h-1.762a1.175 1.175 0 0 0-1.174 1.174v12.329a1.175 1.175 0 0 0 1.174 1.174h10.568a1.175 1.175 0 0 0 1.174-1.174v-12.329a1.175 1.175 0 0 0-1.174-1.174Zm-7.632-.587h4.696v2.348h-4.696v-2.348Zm7.632 14.09h-10.568v-12.329h1.762v1.761h7.045v-1.761h1.761v12.329Z"/>
  <rect width="203" height="62" x="927" y="244" fill="#18181B" rx="4.967"/>
  <path fill="#fff" d="M985.574 280v-11.127h4.164c2.512 0 4.165 1.335 4.165 3.529v.032c0 2.4-2.003 3.64-4.371 3.64h-2.703V280h-1.255Zm1.255-5.071h2.75c1.844 0 3.052-.985 3.052-2.448v-.031c0-1.59-1.192-2.416-2.988-2.416h-2.814v4.895Zm12.829 5.262c-2.463 0-4.26-1.939-4.26-4.26v-.032c0-2.321 1.812-4.292 4.292-4.292 2.46 0 4.28 1.939 4.28 4.26v.032a4.27 4.27 0 0 1-4.312 4.292Zm.032-1.097c1.78 0 3.02-1.431 3.02-3.163v-.032c0-1.764-1.32-3.211-3.052-3.211-1.78 0-3.004 1.447-3.004 3.179v.032c0 1.764 1.304 3.195 3.036 3.195Zm6.49.906v-8.218h1.23v2.146c.6-1.367 1.79-2.353 3.35-2.289v1.319h-.09c-1.8 0-3.26 1.288-3.26 3.768V280h-1.23Zm9.2.143c-1.32 0-2.33-.652-2.33-2.321v-4.959h-1.14v-1.081h1.14v-2.48h1.23v2.48h2.61v1.081h-2.61v4.8c0 1.002.55 1.367 1.38 1.367.41 0 .76-.079 1.19-.286v1.049c-.43.223-.89.35-1.47.35Zm4.13-.143v-7.137h-1.13v-1.065h1.13v-.715c0-.938.26-1.653.72-2.114.41-.414 1.02-.636 1.76-.636.57 0 .96.063 1.35.206v1.065c-.44-.127-.78-.206-1.19-.206-.95 0-1.43.572-1.43 1.748v.668h2.61v1.049h-2.59V280h-1.23Zm8.97.191c-2.46 0-4.26-1.939-4.26-4.26v-.032c0-2.321 1.82-4.292 4.3-4.292 2.46 0 4.27 1.939 4.27 4.26v.032c0 2.321-1.83 4.292-4.31 4.292Zm.04-1.097c1.78 0 3.02-1.431 3.02-3.163v-.032c0-1.764-1.32-3.211-3.06-3.211-1.78 0-3 1.447-3 3.179v.032c0 1.764 1.3 3.195 3.04 3.195Zm6.6.906v-11.604h1.22V280h-1.22Zm4.1-10.014v-1.351h1.4v1.351h-1.4Zm.08 10.014v-8.218h1.22V280h-1.22Zm7.81.191c-2.46 0-4.26-1.939-4.26-4.26v-.032c0-2.321 1.81-4.292 4.29-4.292 2.47 0 4.28 1.939 4.28 4.26v.032c0 2.321-1.83 4.292-4.31 4.292Zm.03-1.097c1.78 0 3.02-1.431 3.02-3.163v-.032c0-1.764-1.32-3.211-3.05-3.211-1.78 0-3 1.447-3 3.179v.032c0 1.764 1.3 3.195 3.03 3.195Zm10.51.906 5.08-11.206h1.17l5.07 11.206h-1.35l-1.3-2.941h-6.06l-1.32 2.941h-1.29Zm3.1-4.069h5.08l-2.53-5.675-2.55 5.675Zm10.21 4.069v-8.218h1.22v1.431c.54-.89 1.4-1.606 2.82-1.606 1.98 0 3.14 1.335 3.14 3.291V280h-1.22v-4.8c0-1.526-.83-2.48-2.27-2.48-1.42 0-2.47 1.033-2.47 2.575V280h-1.22Zm12.24.175c-1.54 0-3.06-.874-3.06-2.559v-.032c0-1.764 1.43-2.686 3.51-2.686 1.05 0 1.78.143 2.51.349v-.254c0-1.462-.89-2.225-2.43-2.225-.97 0-1.74.238-2.5.588l-.36-1.002c.9-.413 1.78-.699 2.98-.699 1.16 0 2.07.318 2.66.906.57.572.86 1.367.86 2.416V280h-1.21v-1.224c-.57.731-1.51 1.399-2.96 1.399Zm.24-.986c1.51 0 2.74-.906 2.74-2.209v-.763c-.61-.175-1.4-.35-2.4-.35-1.53 0-2.41.668-2.41 1.653v.032c0 1.033.96 1.637 2.07 1.637Zm6.63.811v-11.604h1.23V280h-1.23Zm5.34 2.591c-.69 0-1.19-.143-1.75-.413l.41-.97c.4.207.77.302 1.29.302.73 0 1.19-.381 1.68-1.542l-3.73-8.186h1.35l2.99 6.851 2.64-6.851h1.3l-3.45 8.488c-.7 1.701-1.49 2.321-2.73 2.321Zm10.52-2.432c-1.17 0-2.47-.461-3.4-1.208l.62-.874c.89.667 1.88 1.049 2.85 1.049.98 0 1.7-.509 1.7-1.304v-.031c0-.827-.97-1.145-2.05-1.447-1.29-.366-2.72-.811-2.72-2.321v-.031c0-1.415 1.18-2.353 2.8-2.353 1 0 2.11.35 2.95.906l-.55.922c-.76-.493-1.64-.795-2.43-.795-.97 0-1.59.509-1.59 1.192v.032c0 .779 1.01 1.081 2.11 1.415 1.27.381 2.64.874 2.64 2.352v.032c0 1.558-1.29 2.464-2.93 2.464Zm5.24-10.173v-1.351h1.39v1.351h-1.39Zm.07 10.014v-8.218h1.23V280h-1.23Zm6.79.159c-1.18 0-2.48-.461-3.4-1.208l.62-.874c.89.667 1.87 1.049 2.84 1.049.99 0 1.7-.509 1.7-1.304v-.031c0-.827-.97-1.145-2.05-1.447-1.29-.366-2.72-.811-2.72-2.321v-.031c0-1.415 1.18-2.353 2.8-2.353 1 0 2.11.35 2.96.906l-.56.922c-.76-.493-1.64-.795-2.43-.795-.97 0-1.59.509-1.59 1.192v.032c0 .779 1.02 1.081 2.11 1.415 1.27.381 2.64.874 2.64 2.352v.032c0 1.558-1.29 2.464-2.92 2.464Z"/>
  <path stroke="url(#j)" stroke-width="1.617" d="M950.947 260.809h13.909a7.138 7.138 0 0 1 7.139 7.138v13.909a7.139 7.139 0 0 1-7.139 7.139h-13.909a7.138 7.138 0 0 1-7.138-7.139v-13.909a7.138 7.138 0 0 1 7.138-7.138Z"/>
  <path fill="url(#k)" d="M961.424 280.773a1.173 1.173 0 1 0 .002-2.346 1.173 1.173 0 0 0-.002 2.346Z"/>
  <path fill="url(#l)" d="M965.99 279.293a5.074 5.074 0 0 0-4.566-3.216 5.074 5.074 0 0 0-4.566 3.216l-.13.306.13.306a5.073 5.073 0 0 0 4.566 3.217 5.073 5.073 0 0 0 4.566-3.217l.131-.306-.131-.306Zm-4.566 2.655a2.353 2.353 0 0 1-2.169-1.45 2.343 2.343 0 0 1 .509-2.559 2.343 2.343 0 0 1 2.559-.509 2.34 2.34 0 0 1 1.449 2.169 2.348 2.348 0 0 1-2.348 2.349Z"/>
  <path fill="url(#m)" d="M955.553 275.49h-2.935v1.174h2.935v-1.174Z"/>
  <path fill="url(#n)" d="M959.663 272.554h-7.045v1.174h7.045v-1.174Z"/>
  <path fill="url(#o)" d="M959.663 269.619h-7.045v1.174h7.045v-1.174Z"/>
  <path fill="url(#p)" d="M961.424 266.684h-10.567a1.173 1.173 0 0 0-1.174 1.174v14.09a1.178 1.178 0 0 0 1.174 1.174h4.696v-1.174h-4.696v-14.09h10.567v6.458h1.174v-6.458a1.18 1.18 0 0 0-1.174-1.174Z"/>
  <rect width="203" height="62" x="927" y="134" fill="#18181B" rx="4.967"/>
  <path fill="#fff" d="M985.574 170v-11.127h7.995v1.161h-6.74v3.973h6.025v1.145h-6.025V170h-1.255Zm13.743.191c-2.464 0-4.26-1.939-4.26-4.26v-.032c0-2.321 1.812-4.292 4.292-4.292 2.461 0 4.271 1.939 4.271 4.26v.032c0 2.321-1.82 4.292-4.303 4.292Zm.032-1.097c1.781 0 3.021-1.431 3.021-3.163v-.032c0-1.764-1.32-3.211-3.053-3.211-1.78 0-3.004 1.447-3.004 3.179v.032c0 1.764 1.303 3.195 3.036 3.195Zm9.511 1.081c-1.99 0-3.15-1.335-3.15-3.291v-5.102h1.23v4.8c0 1.526.83 2.48 2.27 2.48 1.4 0 2.47-1.033 2.47-2.575v-4.705h1.2V170h-1.2v-1.431c-.56.891-1.4 1.606-2.82 1.606Zm6.78-.175v-8.218h1.22v1.431c.54-.89 1.4-1.606 2.81-1.606 1.99 0 3.15 1.335 3.15 3.291V170h-1.22v-4.8c0-1.526-.83-2.48-2.28-2.48-1.41 0-2.46 1.033-2.46 2.575V170h-1.22Zm13.24.175c-1.97 0-3.93-1.558-3.93-4.26v-.032c0-2.686 1.96-4.276 3.93-4.276 1.53 0 2.51.827 3.15 1.749v-4.96h1.22V170h-1.22v-1.653c-.67.985-1.64 1.828-3.15 1.828Zm.22-1.097c1.53 0 2.98-1.287 2.98-3.179v-.032c0-1.891-1.45-3.163-2.98-3.163-1.59 0-2.89 1.176-2.89 3.163v.032c0 1.939 1.34 3.179 2.89 3.179Zm7.62-2.686c.17 1.732 1.44 2.734 2.89 2.734 1.13 0 1.92-.461 2.59-1.161l.77.684c-.83.922-1.83 1.542-3.39 1.542-2.26 0-4.1-1.733-4.1-4.292 0-2.384 1.67-4.292 3.94-4.292 2.43 0 3.83 1.939 3.83 4.356 0 .111 0 .238-.01.429h-6.52Zm0-.986h5.29c-.14-1.494-1-2.766-2.62-2.766-1.42 0-2.5 1.177-2.67 2.766Zm8.67 4.594v-8.218h1.23v2.146c.6-1.367 1.79-2.353 3.35-2.289v1.319h-.09c-1.8 0-3.26 1.288-3.26 3.768V170h-1.23Zm15.23.159c-1.76 0-3.21-.588-4.54-1.78l.78-.922c1.16 1.049 2.27 1.573 3.81 1.573 1.49 0 2.48-.794 2.48-1.891v-.032c0-1.033-.56-1.621-2.89-2.114-2.56-.556-3.74-1.383-3.74-3.211v-.032c0-1.748 1.54-3.036 3.66-3.036 1.62 0 2.78.461 3.91 1.367l-.73.97c-1.04-.843-2.07-1.208-3.21-1.208-1.45 0-2.37.795-2.37 1.796v.032c0 1.049.57 1.637 3.02 2.162 2.48.54 3.62 1.446 3.62 3.147v.032c0 1.907-1.59 3.147-3.8 3.147Zm9.17.016c-1.99 0-3.15-1.335-3.15-3.291v-5.102h1.23v4.8c0 1.526.82 2.48 2.27 2.48 1.4 0 2.46-1.033 2.46-2.575v-4.705h1.21V170h-1.21v-1.431c-.55.891-1.4 1.606-2.81 1.606Zm6.77 2.368v-10.761h1.23v1.653c.67-.985 1.63-1.828 3.15-1.828 1.97 0 3.92 1.558 3.92 4.26v.032c0 2.686-1.94 4.276-3.92 4.276-1.53 0-2.52-.827-3.15-1.749v4.117h-1.23Zm4.15-3.465c1.59 0 2.9-1.176 2.9-3.163v-.032c0-1.939-1.34-3.179-2.9-3.179-1.52 0-2.97 1.288-2.97 3.163v.032c0 1.907 1.45 3.179 2.97 3.179Zm6.41 3.465v-10.761h1.22v1.653c.67-.985 1.64-1.828 3.15-1.828 1.97 0 3.93 1.558 3.93 4.26v.032c0 2.686-1.94 4.276-3.93 4.276-1.53 0-2.51-.827-3.15-1.749v4.117h-1.22Zm4.15-3.465c1.59 0 2.89-1.176 2.89-3.163v-.032c0-1.939-1.33-3.179-2.89-3.179-1.53 0-2.97 1.288-2.97 3.163v.032c0 1.907 1.44 3.179 2.97 3.179Zm10.16 1.113c-2.47 0-4.26-1.939-4.26-4.26v-.032c0-2.321 1.81-4.292 4.29-4.292 2.46 0 4.27 1.939 4.27 4.26v.032c0 2.321-1.82 4.292-4.3 4.292Zm.03-1.097c1.78 0 3.02-1.431 3.02-3.163v-.032c0-1.764-1.32-3.211-3.05-3.211-1.78 0-3.01 1.447-3.01 3.179v.032c0 1.764 1.31 3.195 3.04 3.195Zm6.49.906v-8.218h1.22v2.146c.61-1.367 1.8-2.353 3.36-2.289v1.319h-.1c-1.79 0-3.26 1.288-3.26 3.768V170h-1.22Zm9.19.143c-1.32 0-2.32-.652-2.32-2.321v-4.959h-1.14v-1.081h1.14v-2.48h1.23v2.48h2.6v1.081h-2.6v4.8c0 1.002.55 1.367 1.38 1.367.41 0 .76-.079 1.19-.286v1.049c-.43.223-.89.35-1.48.35Z"/>
  <path stroke="url(#q)" stroke-width="1.617" d="M950.947 150.809h13.909a7.138 7.138 0 0 1 7.139 7.138v13.909a7.139 7.139 0 0 1-7.139 7.139h-13.909a7.138 7.138 0 0 1-7.138-7.139v-13.909a7.138 7.138 0 0 1 7.138-7.138Z"/>
  <path fill="url(#r)" d="M966.708 173.121h-1.174v-1.762a1.761 1.761 0 0 0-1.761-1.761h-2.349a1.761 1.761 0 0 0-1.761 1.761v1.762h-1.174v-1.762a2.932 2.932 0 0 1 2.935-2.935h2.349a2.932 2.932 0 0 1 2.935 2.935v1.762Z"/>
  <path fill="url(#s)" d="M962.598 162.553a1.767 1.767 0 0 1 1.628 1.088 1.761 1.761 0 1 1-1.628-1.088Zm0-1.174a2.939 2.939 0 0 0-2.879 3.508 2.934 2.934 0 0 0 2.307 2.307 2.94 2.94 0 0 0 3.013-1.249 2.93 2.93 0 0 0-.365-3.706 2.933 2.933 0 0 0-2.076-.86Z"/>
  <path fill="url(#t)" d="M957.315 168.424h-1.174v-1.761a1.761 1.761 0 0 0-1.762-1.761h-2.348c-.467 0-.915.185-1.245.516-.331.33-.516.778-.516 1.245v1.761h-1.174v-1.761c0-.779.309-1.525.859-2.076a2.94 2.94 0 0 1 2.076-.859h2.348a2.936 2.936 0 0 1 2.936 2.935v1.761Z"/>
  <path fill="url(#u)" d="M953.205 157.857a1.759 1.759 0 0 1 1.627 1.087 1.757 1.757 0 0 1-1.283 2.401 1.765 1.765 0 0 1-1.808-.749 1.755 1.755 0 0 1 .219-2.223c.33-.331.778-.516 1.245-.516Zm0-1.174a2.94 2.94 0 0 0-2.879 3.508 2.942 2.942 0 0 0 2.307 2.306 2.94 2.94 0 0 0 3.013-1.248 2.939 2.939 0 0 0-2.441-4.566Z"/>
  <path stroke="#71717A" stroke-dasharray="3.97 3.97" stroke-width=".993" d="M311 217h490">
    <animate attributeName="stroke-dashoffset" dur="2s" repeatCount="indefinite" values="39.7;0"/>
  </path>
  <g filter="url(#v)">
    <rect width="150.714" height="150.714" x="468" y="142" fill="#18181B" rx="6.33"/>
  </g>
  <path fill="url(#w)" d="M544.155 177.227c-2.772 0-5.482.716-7.788 2.059-2.305 1.343-4.101 3.251-5.162 5.484s-1.338 4.69-.798 7.06c.541 2.371 1.876 4.548 3.836 6.257 1.961 1.709 4.458 2.873 7.177 3.344 2.719.472 5.538.23 8.099-.695 2.561-.925 4.75-2.491 6.29-4.501 1.54-2.009 2.362-4.372 2.362-6.789-.004-3.239-1.482-6.345-4.11-8.636-2.627-2.291-6.19-3.58-9.906-3.583Zm10.355 10.692h-4.271a20.643 20.643 0 0 0-1.387-6.66c1.476.645 2.757 1.585 3.74 2.742.983 1.156 1.64 2.499 1.918 3.918Zm-10.317 10.691h-.013c-.668-.185-2.294-2.782-2.591-7.636h5.132c-.297 4.851-1.916 7.449-2.528 7.636Zm-2.604-10.691c.296-4.852 1.916-7.45 2.527-7.636h.014c.668.184 2.293 2.782 2.591 7.636h-5.132Zm-2.131-6.66a20.643 20.643 0 0 0-1.387 6.66H533.8c.278-1.419.935-2.762 1.918-3.918.983-1.157 2.264-2.097 3.74-2.742Zm-5.658 9.715h4.27c.088 2.267.555 4.51 1.387 6.659-1.476-.645-2.757-1.584-3.74-2.741-.982-1.157-1.639-2.499-1.917-3.918Zm15.05 6.659a20.64 20.64 0 0 0 1.389-6.659h4.271c-.278 1.419-.935 2.761-1.918 3.918-.983 1.157-2.265 2.096-3.742 2.741Z"/>
  <path fill="url(#x)" d="M565.18 219.996h-42.05c-.929-.001-1.82-.323-2.477-.896-.657-.573-1.027-1.349-1.028-2.159v-9.165c.001-.81.371-1.587 1.028-2.159.657-.573 1.548-.895 2.477-.896h42.05c.929.001 1.82.323 2.477.896.657.572 1.026 1.349 1.027 2.159v9.165c-.001.81-.37 1.586-1.027 2.159-.657.573-1.548.895-2.477.896Zm-42.05-12.22v9.165h42.05v-9.165h-42.05Z"/>
  <path fill="url(#y)" d="M528.386 213.886c.968 0 1.752-.684 1.752-1.528 0-.843-.784-1.527-1.752-1.527s-1.752.684-1.752 1.527c0 .844.784 1.528 1.752 1.528Z"/>
  <path fill="#fff" d="M495.215 267v-9.786h1.119l3.564 5.34 3.565-5.34h1.119V267h-1.105v-7.927l-3.565 5.243h-.055l-3.565-5.229V267h-1.077Zm17.229.168c-2.824 0-4.907-2.223-4.907-5.033v-.028c0-2.768 2.069-5.061 4.949-5.061 1.775 0 2.838.629 3.817 1.552l-.755.811c-.825-.783-1.748-1.342-3.076-1.342-2.167 0-3.789 1.761-3.789 4.012v.028c0 2.265 1.636 4.04 3.789 4.04 1.342 0 2.223-.517 3.159-1.412l.727.713c-1.02 1.035-2.139 1.72-3.914 1.72Zm6.466-.168v-9.786h3.663c2.208 0 3.662 1.174 3.662 3.103v.028c0 2.111-1.761 3.202-3.844 3.202h-2.377V267h-1.104Zm1.104-4.46h2.419c1.621 0 2.684-.866 2.684-2.153v-.028c0-1.398-1.049-2.125-2.628-2.125h-2.475v4.306Zm17.017 4.6c-1.552 0-2.824-.517-3.998-1.566l.685-.811c1.02.923 1.999 1.384 3.355 1.384 1.314 0 2.181-.699 2.181-1.663v-.028c0-.909-.49-1.426-2.545-1.86-2.251-.489-3.285-1.216-3.285-2.824v-.028c0-1.538 1.356-2.67 3.215-2.67 1.426 0 2.447.405 3.44 1.202l-.644.853c-.908-.741-1.817-1.062-2.824-1.062-1.272 0-2.083.699-2.083 1.579v.028c0 .923.504 1.44 2.657 1.902 2.181.475 3.187 1.272 3.187 2.768v.028c0 1.677-1.398 2.768-3.341 2.768Zm6.205-.14v-9.786h7.074v1.006h-5.969v3.342h5.34v1.006h-5.34v3.425h6.039V267h-7.144Zm9.984 0v-9.786h4.208c1.202 0 2.167.363 2.782.978.475.476.755 1.161.755 1.93v.028c0 1.621-1.119 2.572-2.656 2.852l3.005 3.998h-1.356l-2.838-3.803h-2.796V267h-1.104Zm1.104-4.795h3.006c1.468 0 2.516-.755 2.516-2.013v-.028c0-1.203-.922-1.93-2.502-1.93h-3.02v3.971Zm12.713 4.865-4.208-9.856h1.23l3.481 8.43 3.495-8.43h1.189l-4.208 9.856h-.979Zm7.734-.07v-9.786h7.074v1.006h-5.97v3.342h5.341v1.006h-5.341v3.425h6.04V267h-7.144Zm9.984 0v-9.786h4.208c1.202 0 2.167.363 2.782.978.475.476.755 1.161.755 1.93v.028c0 1.621-1.119 2.572-2.656 2.852l3.005 3.998h-1.356l-2.838-3.803h-2.796V267h-1.104Zm1.104-4.795h3.006c1.468 0 2.516-.755 2.516-2.013v-.028c0-1.203-.922-1.93-2.502-1.93h-3.02v3.971Z"/>
  <g filter="url(#z)">
    <rect width="150.714" height="150.714" x="670" y="145" fill="#18181B" rx="6.33"/>
  </g>
  <path stroke="#71717A" stroke-dasharray="3.97 3.97" stroke-width=".993" d="M167 275h29.918c15.188 0 27.499-12.312 27.499-27.5s12.313-27.5 27.5-27.5H326">
    <animate attributeName="stroke-dashoffset" dur="2s" repeatCount="indefinite" values="39.7;0"/>
  </path>
  <path stroke="#71717A" stroke-dasharray="3.97 3.97" stroke-width=".993" d="M162 409h32.196c16.46 0 29.804-13.344 29.804-29.804V239">
    <animate attributeName="stroke-dashoffset" dur="2s" repeatCount="indefinite" values="39.7;0"/>
  </path>
  <path stroke="#71717A" stroke-dasharray="3.97 3.97" stroke-width=".993" d="M167 165h29.918c15.188 0 27.499 12.312 27.499 27.5s12.313 27.5 27.5 27.5H326">
    <animate attributeName="stroke-dashoffset" dur="2s" repeatCount="indefinite" values="39.7;0"/>
  </path>
  <path stroke="#71717A" stroke-dasharray="3.97 3.97" stroke-width=".993" d="M162 31h32.196C210.656 31 224 44.344 224 60.804V201">
    <animate attributeName="stroke-dashoffset" dur="2s" repeatCount="indefinite" values="39.7;0"/>
  </path>
  <rect width="162" height="63" y="378" fill="#18181B" rx="4.967"/>
  <path fill="#fff" d="M66.656 413.922c-3.21 0-5.579-2.527-5.579-5.722v-.032c0-3.147 2.352-5.754 5.627-5.754 2.019 0 3.227.715 4.34 1.764l-.859.922c-.938-.89-1.987-1.526-3.497-1.526-2.464 0-4.308 2.003-4.308 4.562v.032c0 2.575 1.86 4.594 4.308 4.594 1.526 0 2.527-.588 3.592-1.606l.827.811c-1.16 1.176-2.432 1.955-4.45 1.955Zm10.038 0c-2.463 0-4.26-1.939-4.26-4.26v-.032c0-2.32 1.813-4.291 4.292-4.291 2.464 0 4.276 1.939 4.276 4.26v.031c0 2.321-1.828 4.292-4.307 4.292Zm.032-1.097c1.78 0 3.02-1.43 3.02-3.163v-.032c0-1.764-1.319-3.21-3.051-3.21-1.78 0-3.005 1.446-3.005 3.179v.031c0 1.765 1.304 3.195 3.036 3.195Zm6.493.906v-8.217h1.224v1.382c.54-.81 1.272-1.557 2.655-1.557 1.335 0 2.193.715 2.638 1.637.588-.906 1.463-1.637 2.893-1.637 1.892 0 3.052 1.271 3.052 3.306v5.086h-1.224v-4.8c0-1.59-.794-2.48-2.13-2.48-1.24 0-2.273.922-2.273 2.544v4.736h-1.208v-4.832c0-1.542-.81-2.448-2.114-2.448-1.303 0-2.289 1.081-2.289 2.591v4.689H83.22Zm15.12 2.544v-10.761h1.224v1.653c.667-.986 1.637-1.828 3.147-1.828 1.971 0 3.926 1.557 3.926 4.26v.031c0 2.687-1.939 4.276-3.926 4.276-1.526 0-2.512-.826-3.147-1.748v4.117h-1.224Zm4.148-3.465c1.59 0 2.893-1.177 2.893-3.164v-.031c0-1.94-1.335-3.18-2.893-3.18-1.526 0-2.972 1.288-2.972 3.164v.031c0 1.908 1.446 3.18 2.972 3.18Zm8.855 1.096c-1.542 0-3.068-.874-3.068-2.559v-.032c0-1.764 1.431-2.686 3.513-2.686 1.049 0 1.78.143 2.512.35v-.255c0-1.462-.891-2.225-2.432-2.225-.97 0-1.733.238-2.496.588l-.366-1.001c.906-.414 1.781-.7 2.989-.7 1.16 0 2.066.318 2.654.906.572.573.859 1.367.859 2.416v5.023h-1.208v-1.224c-.573.732-1.511 1.399-2.957 1.399Zm.238-.985c1.51 0 2.734-.906 2.734-2.21v-.763a8.441 8.441 0 0 0-2.4-.349c-1.526 0-2.4.667-2.4 1.653v.032c0 1.033.954 1.637 2.066 1.637Zm6.519.81v-8.217h1.224v1.43c.541-.89 1.399-1.605 2.814-1.605 1.987 0 3.147 1.335 3.147 3.29v5.102h-1.224v-4.8c0-1.526-.827-2.48-2.273-2.48-1.415 0-2.464 1.034-2.464 2.575v4.705h-1.224Zm9.827-10.014v-1.351h1.399v1.351h-1.399Zm.079 10.014v-8.217h1.224v8.217h-1.224Zm4.796-3.608c.175 1.733 1.446 2.734 2.893 2.734 1.128 0 1.923-.461 2.591-1.16l.763.683c-.827.922-1.828 1.542-3.386 1.542-2.257 0-4.101-1.732-4.101-4.292 0-2.384 1.669-4.291 3.942-4.291 2.432 0 3.831 1.939 3.831 4.355 0 .111 0 .238-.016.429h-6.517Zm0-.985h5.293c-.143-1.494-1.001-2.766-2.623-2.766-1.414 0-2.495 1.176-2.67 2.766Zm11.394 4.752c-1.177 0-2.48-.461-3.402-1.208l.62-.874c.89.668 1.876 1.049 2.845 1.049.986 0 1.701-.508 1.701-1.303v-.032c0-.827-.97-1.144-2.05-1.446-1.288-.366-2.719-.811-2.719-2.321v-.032c0-1.415 1.177-2.353 2.798-2.353 1.001 0 2.114.35 2.957.906l-.557.922c-.763-.492-1.637-.794-2.432-.794-.969 0-1.589.508-1.589 1.192v.032c0 .778 1.017 1.08 2.114 1.414 1.271.382 2.638.875 2.638 2.353v.032c0 1.557-1.287 2.463-2.924 2.463Z"/>
  <rect width="28.187" height="28.187" x="19.808" y="395.076" stroke="url(#A)" stroke-width="1.617" rx="7.139"/>
  <path fill="url(#B)" d="M40.36 403.299v2.936h-5.872v-2.936h5.871Zm0-1.174h-5.872a1.175 1.175 0 0 0-1.174 1.174v2.936a1.174 1.174 0 0 0 1.174 1.174h5.871a1.175 1.175 0 0 0 1.174-1.174v-2.936a1.174 1.174 0 0 0-1.174-1.174Z"/>
  <path fill="url(#C)" d="M31.553 414.454h-3.522v-4.697h3.522v-1.174h-3.522a1.175 1.175 0 0 0-1.175 1.174v4.697a1.174 1.174 0 0 0 1.175 1.174h3.522v-1.174Z"/>
  <path fill="url(#D)" d="M42.12 411.518h-7.733L35.906 410l-.83-.83-2.936 2.935 2.935 2.936.83-.83-1.518-1.519h7.733v-1.174Z"/>
  <path fill="url(#E)" d="M30.966 403.299v2.936h-2.935v-2.936h2.935Zm0-1.174h-2.935a1.175 1.175 0 0 0-1.175 1.174v2.936a1.174 1.174 0 0 0 1.175 1.174h2.935a1.175 1.175 0 0 0 1.174-1.174v-2.936a1.174 1.174 0 0 0-1.174-1.174Z"/>
  <rect width="143.178" height="62.588" x="19" y="134" fill="#18181B" rx="4.967"/>
  <path fill="#fff" d="M77.2 169.856V158.73h4.785c1.367 0 2.464.413 3.163 1.112.54.541.859 1.32.859 2.194v.032c0 1.844-1.272 2.924-3.02 3.242l3.417 4.546h-1.542l-3.227-4.323h-3.179v4.323h-1.255Zm1.256-5.452h3.418c1.669 0 2.861-.858 2.861-2.289v-.031c0-1.367-1.05-2.194-2.845-2.194h-3.434v4.514Zm10.6 1.844c.176 1.733 1.447 2.734 2.894 2.734 1.128 0 1.923-.461 2.59-1.16l.764.683c-.827.922-1.828 1.542-3.386 1.542-2.257 0-4.101-1.732-4.101-4.292 0-2.384 1.669-4.291 3.942-4.291 2.432 0 3.83 1.939 3.83 4.355 0 .111 0 .238-.015.429h-6.517Zm0-.985h5.294c-.143-1.494-1.001-2.766-2.623-2.766-1.414 0-2.495 1.176-2.67 2.766Zm15.273 7.137v-4.197c-.668.986-1.637 1.828-3.147 1.828-1.971 0-3.926-1.557-3.926-4.26v-.031c0-2.687 1.955-4.276 3.926-4.276 1.526 0 2.511.826 3.147 1.748v-1.573h1.224V172.4h-1.224Zm-2.925-3.465c1.526 0 2.973-1.288 2.973-3.18v-.031c0-1.892-1.447-3.164-2.973-3.164-1.59 0-2.893 1.177-2.893 3.164v.031c0 1.94 1.336 3.18 2.893 3.18Zm9.904 1.096c-1.987 0-3.147-1.335-3.147-3.29v-5.102h1.224v4.8c0 1.526.826 2.48 2.273 2.48 1.399 0 2.464-1.034 2.464-2.575v-4.705h1.208v8.217h-1.208v-1.43c-.557.89-1.399 1.605-2.814 1.605Zm7.506-3.783c.175 1.733 1.447 2.734 2.893 2.734 1.129 0 1.923-.461 2.591-1.16l.763.683c-.827.922-1.828 1.542-3.386 1.542-2.257 0-4.101-1.732-4.101-4.292 0-2.384 1.669-4.291 3.942-4.291 2.432 0 3.831 1.939 3.831 4.355 0 .111 0 .238-.016.429h-6.517Zm0-.985h5.293c-.143-1.494-1.001-2.766-2.622-2.766-1.415 0-2.496 1.176-2.671 2.766Zm11.394 4.752c-1.176 0-2.48-.461-3.402-1.208l.62-.874c.89.668 1.876 1.049 2.846 1.049.985 0 1.7-.508 1.7-1.303v-.032c0-.827-.969-1.144-2.05-1.446-1.288-.366-2.718-.811-2.718-2.321v-.032c0-1.415 1.176-2.353 2.797-2.353 1.002 0 2.114.35 2.957.906l-.556.922c-.763-.492-1.638-.794-2.432-.794-.97 0-1.59.508-1.59 1.192v.032c0 .778 1.017 1.08 2.114 1.414 1.272.382 2.639.875 2.639 2.353v.032c0 1.557-1.288 2.463-2.925 2.463Zm7.793-.015c-1.319 0-2.321-.652-2.321-2.321v-4.96h-1.144v-1.08h1.144v-2.48h1.224v2.48h2.607v1.08h-2.607v4.801c0 1.001.557 1.367 1.383 1.367.414 0 .763-.08 1.192-.286v1.049c-.429.222-.89.35-1.478.35Zm6.395.015c-1.176 0-2.48-.461-3.402-1.208l.62-.874c.89.668 1.876 1.049 2.845 1.049.986 0 1.701-.508 1.701-1.303v-.032c0-.827-.969-1.144-2.05-1.446-1.288-.366-2.718-.811-2.718-2.321v-.032c0-1.415 1.176-2.353 2.797-2.353 1.002 0 2.114.35 2.957.906l-.557.922c-.763-.492-1.637-.794-2.432-.794-.969 0-1.589.508-1.589 1.192v.032c0 .778 1.017 1.08 2.114 1.414 1.272.382 2.639.875 2.639 2.353v.032c0 1.557-1.288 2.463-2.925 2.463Z"/>
  <rect width="28.187" height="28.187" x="35.439" y="151.2" stroke="url(#F)" stroke-width="1.617" rx="7.139"/>
  <path fill="url(#G)" d="M56.577 160.598H54.23v-2.349a1.174 1.174 0 0 0-1.174-1.174H42.488a1.175 1.175 0 0 0-1.175 1.174v10.568a1.178 1.178 0 0 0 1.175 1.174h2.348v2.348a1.176 1.176 0 0 0 1.174 1.174h10.567a1.174 1.174 0 0 0 1.175-1.174v-10.567a1.177 1.177 0 0 0-1.175-1.174Zm-3.522 8.219h-4.697v-2.936h4.697v2.936Zm0-4.11h-4.697v-2.935h4.697v2.935Zm-5.87 0h-4.697v-2.935h4.696v2.935Zm5.87-6.458v2.349H42.488v-2.349h10.567Zm-10.567 10.568v-2.936h4.696v2.936h-4.696Zm14.09 3.522H46.01v-2.348h7.045a1.178 1.178 0 0 0 1.174-1.174v-7.045h2.348v10.567Z"/>
  <rect width="134.81" height="62.588" x="27" fill="#18181B" rx="4.967"/>
  <path fill="#fff" d="m84.248 35.855 5.07-11.206h1.177l5.07 11.206h-1.35l-1.304-2.94h-6.056l-1.32 2.94h-1.287Zm3.1-4.069h5.07l-2.527-5.674-2.544 5.674Zm10.523 4.07V24.728h1.256v11.127H97.87Zm9.391 0V24.728h1.256v11.127h-1.256Zm4.308 0v-8.219h1.224v1.431c.54-.89 1.399-1.605 2.814-1.605 1.986 0 3.147 1.335 3.147 3.29v5.102h-1.224v-4.8c0-1.526-.827-2.48-2.273-2.48-1.415 0-2.464 1.034-2.464 2.575v4.706h-1.224Zm14.166.174c-1.526 0-2.511-.826-3.147-1.748v1.574h-1.224V24.252h1.224v5.039c.668-.986 1.637-1.828 3.147-1.828 1.971 0 3.926 1.557 3.926 4.26v.032c0 2.686-1.939 4.275-3.926 4.275Zm-.222-1.096c1.589 0 2.893-1.177 2.893-3.164v-.031c0-1.94-1.336-3.18-2.893-3.18-1.526 0-2.973 1.288-2.973 3.164v.032c0 1.907 1.447 3.179 2.973 3.179Zm10.158 1.112c-2.464 0-4.26-1.939-4.26-4.26v-.032c0-2.32 1.812-4.291 4.292-4.291 2.463 0 4.276 1.939 4.276 4.26v.032c0 2.32-1.828 4.291-4.308 4.291Zm.032-1.097c1.78 0 3.02-1.43 3.02-3.163v-.032c0-1.764-1.32-3.21-3.052-3.21-1.78 0-3.004 1.446-3.004 3.179v.032c0 1.764 1.303 3.194 3.036 3.194Zm5.187.907 3.227-4.181-3.1-4.038h1.399l2.432 3.18 2.432-3.18h1.367l-3.116 4.006 3.243 4.212h-1.415l-2.543-3.353-2.559 3.353h-1.367Z"/>
  <rect width="28.187" height="28.187" x="43.44" y="17.2" stroke="url(#H)" stroke-width="1.617" rx="7.139"/>
  <path fill="url(#I)" d="M56.506 24.1H50.34v14.386h14.386v-6.165h1.027v7.193h-16.44v-16.44h7.192V24.1Zm1.798 10.276h-1.028l-.317-1.027h-2.455l-.309 1.027h-1.027l1.797-5.651h1.54l1.799 5.651Zm2.826-4.624h-.514v3.597h.514v1.027h-2.055v-1.027h.514v-3.597h-.514v-1.027h2.055v1.027Zm-5.48-.211-.837 2.78h1.829l-.86-2.781-.133.001Zm10.104.726h-1.027v-1.028h1.027v1.028Zm-2.055-5.14h2.055v1.03h-2.055v2.054h-1.028v-2.055h-2.055v-1.028h2.055v-2.055h1.028v2.055Zm-4.11-1.026h-1.027v-1.028h1.027v1.028Z"/>
  <rect width="127.372" height="62.292" x="35" y="244" fill="#18181B" rx="4.967"/>
  <path fill="#fff" d="M93.202 279.855v-11.126h1.271l4.053 6.072 4.054-6.072h1.272v11.126h-1.256v-9.012l-4.054 5.961h-.063l-4.053-5.945v8.996h-1.224Zm14.324-3.608c.175 1.733 1.446 2.734 2.893 2.734 1.128 0 1.923-.461 2.591-1.16l.763.683c-.827.922-1.828 1.542-3.386 1.542-2.257 0-4.101-1.732-4.101-4.292 0-2.384 1.669-4.291 3.942-4.291 2.432 0 3.831 1.939 3.831 4.355 0 .111 0 .238-.016.429h-6.517Zm0-.985h5.293c-.143-1.494-1.001-2.766-2.623-2.766-1.414 0-2.495 1.176-2.67 2.766Zm11.426 4.737c-1.32 0-2.321-.652-2.321-2.321v-4.96h-1.145v-1.08h1.145v-2.48h1.224v2.48h2.607v1.08h-2.607v4.801c0 1.001.556 1.367 1.383 1.367.413 0 .763-.08 1.192-.286v1.049c-.429.222-.89.35-1.478.35Zm3.676-.144v-8.217h1.224v2.145c.604-1.367 1.796-2.352 3.354-2.289v1.32h-.095c-1.797 0-3.259 1.287-3.259 3.767v3.274h-1.224Zm6.474-10.014v-1.351h1.399v1.351h-1.399Zm.079 10.014v-8.217h1.224v8.217h-1.224Zm7.768.191c-2.4 0-4.212-1.955-4.212-4.26v-.032c0-2.32 1.812-4.291 4.212-4.291 1.558 0 2.528.651 3.291 1.462l-.811.858c-.652-.683-1.383-1.239-2.496-1.239-1.669 0-2.94 1.414-2.94 3.179v.031c0 1.781 1.303 3.195 3.02 3.195 1.049 0 1.86-.524 2.511-1.224l.779.732c-.826.922-1.812 1.589-3.354 1.589Zm8.096-.032c-1.177 0-2.48-.461-3.402-1.208l.62-.874c.89.668 1.876 1.049 2.845 1.049.986 0 1.701-.508 1.701-1.303v-.032c0-.827-.97-1.144-2.05-1.446-1.288-.366-2.719-.811-2.719-2.321v-.032c0-1.415 1.177-2.353 2.798-2.353 1.001 0 2.114.35 2.957.907l-.557.921c-.763-.492-1.637-.794-2.432-.794-.969 0-1.589.508-1.589 1.192v.032c0 .779 1.017 1.081 2.114 1.414 1.271.382 2.638.875 2.638 2.353v.032c0 1.557-1.287 2.463-2.924 2.463Z"/>
  <rect width="28.187" height="28.187" x="51.44" y="261.2" stroke="url(#J)" stroke-width="1.617" rx="7.139"/>
  <path fill="url(#K)" d="M64.827 274.132H61.24v.986h3.588v-.986Z"/>
  <path fill="url(#L)" d="m60.88 279.632.598.598 2.392-2.392 2.99 2.392 2.392-2.99-.598-.598-1.794 2.392-2.99-2.392-2.99 2.99Z"/>
  <path fill="url(#M)" d="M70.688 274.64v-.001.001Z"/>
  <path fill="url(#N)" fill-rule="evenodd" d="M74.926 271.697a4.626 4.626 0 0 1-3.282 4.426v6.364c0 .566-.459 1.025-1.025 1.025H59.513a1.025 1.025 0 0 1-1.025-1.025v-13.708c0-.566.46-1.025 1.025-1.025h8.376a4.623 4.623 0 0 1 7.037 3.943Zm-4.307 10.831v-6.218a4.625 4.625 0 0 1-4.656-3.015h-4.505v-.986h4.262a4.654 4.654 0 0 1-.035-.836h-4.122v-.985h4.277c.176-.651.49-1.245.91-1.749h-7.237v13.789H70.62Zm-.005-7.84a.215.215 0 0 0 .074-.048v.016l.348-.334a.197.197 0 0 0 .074-.15.16.16 0 0 0-.074-.133l-2.072-1.836h4.567a.222.222 0 0 0 .157-.057.187.187 0 0 0 .064-.143v-.467a.18.18 0 0 0-.064-.141.212.212 0 0 0-.071-.044.242.242 0 0 0-.085-.015h-4.568l2.073-1.833a.155.155 0 0 0 .073-.134.195.195 0 0 0-.073-.15l-.35-.317a.23.23 0 0 0-.074-.048.23.23 0 0 0-.172-.002.177.177 0 0 0-.065.05l-3.027 2.734a.173.173 0 0 0-.055.134.23.23 0 0 0 .055.15l3.027 2.736a.21.21 0 0 0 .147.05.232.232 0 0 0 .09-.018Z" clip-rule="evenodd"/>
  <g filter="url(#O)">
    <rect width="150.714" height="150.714" x="266" y="145" fill="#18181B" rx="6.33"/>
  </g>
  <path fill="#fff" d="m303.753 267.07-4.208-9.856h1.23l3.482 8.43 3.495-8.43h1.188l-4.208 9.856h-.979Zm7.832-.07v-9.786h1.105V267h-1.105Zm7.944.14c-1.552 0-2.824-.517-3.998-1.566l.685-.811c1.02.923 1.999 1.384 3.355 1.384 1.314 0 2.181-.699 2.181-1.663v-.028c0-.909-.489-1.426-2.544-1.86-2.251-.489-3.286-1.216-3.286-2.824v-.028c0-1.538 1.356-2.67 3.216-2.67 1.426 0 2.446.405 3.439 1.202l-.643.853c-.909-.741-1.818-1.062-2.824-1.062-1.273 0-2.083.699-2.083 1.579v.028c0 .923.503 1.44 2.656 1.902 2.181.475 3.187 1.272 3.187 2.768v.028c0 1.677-1.398 2.768-3.341 2.768Zm6.303-.14v-9.786h1.105V267h-1.105Zm4.589 0v-9.786h4.166c1.118 0 1.999.321 2.558.867.406.419.63.936.63 1.565v.028c0 1.273-.783 1.93-1.552 2.265 1.16.35 2.097 1.021 2.097 2.363v.028c0 1.677-1.412 2.67-3.551 2.67h-4.348Zm1.09-5.424h2.894c1.328 0 2.251-.601 2.251-1.748v-.028c0-.964-.769-1.594-2.167-1.594h-2.978v3.37Zm0 4.431h3.286c1.482 0 2.404-.657 2.404-1.747v-.028c0-1.063-.894-1.678-2.6-1.678h-3.09v3.453Zm9.617.993v-9.786h1.105v8.765h5.508V267h-6.613Zm9.274 0v-9.786h7.074v1.006h-5.97v3.342h5.341v1.006h-5.341v3.425h6.04V267h-7.144Zm9.676 0v-1.468h1.286V267h-1.286Zm6.043.07-4.208-9.856h1.23l3.481 8.43 3.495-8.43h1.188l-4.208 9.856h-.978Zm11.634.098c-2.824 0-4.907-2.223-4.907-5.033v-.028c0-2.768 2.069-5.061 4.949-5.061 1.775 0 2.838.629 3.816 1.552l-.754.811c-.825-.783-1.748-1.342-3.076-1.342-2.167 0-3.789 1.761-3.789 4.012v.028c0 2.265 1.636 4.04 3.789 4.04 1.342 0 2.223-.517 3.159-1.412l.727.713c-1.02 1.035-2.139 1.72-3.914 1.72ZM725.384 267v-9.786h1.104v8.765h5.509V267h-6.613Zm9.274 0v-9.786h1.104v8.765h5.509V267h-6.613Zm9.274 0v-9.786h1.118l3.565 5.34 3.565-5.34h1.118V267h-1.104v-7.927l-3.565 5.243h-.056l-3.565-5.229V267h-1.076Zm16.11.14c-1.552 0-2.824-.517-3.998-1.566l.685-.811c1.02.923 1.999 1.384 3.355 1.384 1.314 0 2.181-.699 2.181-1.663v-.028c0-.909-.489-1.426-2.544-1.86-2.251-.489-3.286-1.216-3.286-2.824v-.028c0-1.538 1.356-2.67 3.216-2.67 1.426 0 2.446.405 3.439 1.202l-.643.853c-.909-.741-1.818-1.062-2.824-1.062-1.272 0-2.083.699-2.083 1.579v.028c0 .923.503 1.44 2.656 1.902 2.181.475 3.187 1.272 3.187 2.768v.028c0 1.677-1.398 2.768-3.341 2.768Z"/>
  <g clip-path="url(#P)">
    <path fill="#FCF2EE" d="M770.999 218.068c-.024.784-.583 1.064-1.168 1.451-1.167.772-2.29.778-3.609.437-4.195-1.083-8.421-2.05-12.636-3.061-.114-.027-.227-.06-.342-.083-.131-.026-.303-.087-.379.032-.11.171.085.264.181.364 1.718 1.778 3.583 3.399 5.404 5.067 1.635 1.497 3.263 3.004 4.894 4.507.469.432.925.88 1.406 1.3.294.258.408.583.538.938.244.67-.059 1.135-.464 1.584-.241.269-.716.225-1.185-.123-1.281-.953-2.589-1.874-3.824-2.884-2.172-1.774-4.298-3.605-6.444-5.411-.039-.032-.072-.073-.113-.1-.159-.101-.314-.369-.506-.184-.182.176.05.368.155.524 1.741 2.617 3.459 5.248 5.246 7.833.552.798.849 1.619.86 2.565.004.348.164.687.038 1.047-.226.65-1.188 1.168-1.945 1.111-.868-.066-1.432-.453-1.95-1.179-2.719-3.823-5.311-7.726-7.635-11.803a2.367 2.367 0 0 0-.132-.214c-.074-.106-.12-.265-.292-.227-.168.035-.168.189-.181.322-.17 1.804-.338 3.61-.507 5.414l-.672 7.219c-.078.836-.201 1.67-.219 2.508-.015.664-.394 1.084-.853 1.397-.405.277-.925.387-1.397.56-.071.026-.187.03-.241-.01-.536-.415-1.163-.704-1.5-1.371-.417-.822-.468-1.601-.264-2.509a248.784 248.784 0 0 0 2.126-10.415c.27-1.502.372-3.035.803-4.509.027-.094.086-.223-.022-.272-.16-.073-.239.084-.314.186-.747 1.016-1.487 2.036-2.234 3.051-1.784 2.421-3.53 4.874-5.37 7.252-1.191 1.54-2.619 2.884-3.957 4.3-.4.424-.996.455-1.519.192-.046-.022-.094-.04-.135-.068-.306-.217-.864-.225-.906-.628-.062-.584-.043-1.202.33-1.744 1.468-2.135 3.168-4.091 4.735-6.149a424.93 424.93 0 0 1 4.039-5.224c.685-.871 1.419-1.703 2.126-2.558.099-.119.323-.253.187-.412-.142-.165-.301.048-.428.129-3.132 2.027-6.26 4.06-9.39 6.091-.987.64-2.014 1.226-2.95 1.933-.903.681-1.904.903-2.986 1.043-.632.082-1.044-.084-1.452-.528-.489-.533-.552-1.832-.059-2.379.375-.418.876-.675 1.319-1.006 3.086-2.296 6.529-3.999 9.85-5.901 1.107-.635 2.227-1.25 3.339-1.876.116-.066.241-.135.326-.232.122-.139.211-.311.132-.508-.078-.194-.256-.189-.425-.196-1.678-.067-3.355-.163-5.034-.194-3.914-.073-7.821-.259-11.726-.496-.671-.04-1.339-.045-1.999-.209-.347-.086-.619-.22-.821-.52-.207-.307-.446-.59-.663-.89-.329-.451-.207-.94.203-1.32.594-.549 1.272-.48 1.98-.422 1.723.139 3.449.251 5.173.381 3.431.256 6.874.35 10.292.782.865.109 1.738.16 2.608.225.175.013.412.066.5-.138.11-.253-.158-.352-.302-.456a77.457 77.457 0 0 0-2.234-1.554c-2.723-1.823-5.462-3.623-8.173-5.463a138.958 138.958 0 0 1-4.849-3.444c-.604-.449-1.048-1.038-1.155-1.868-.199-1.558-.229-1.545.809-2.694.281-.311.569-.422.996-.435 1.168-.037 2.119.329 3.038 1.074 3.605 2.919 7.38 5.616 11.078 8.415.133.101.255.248.433.082.187-.175.059-.336-.031-.497-2.462-4.418-4.907-8.844-7.555-13.155-.571-.93-.689-2.024-.825-3.092-.025-.197.099-.35.21-.5.259-.351.546-.686.776-1.055.366-.589.803-1.069 1.514-1.217h.504c.181.111.391.096.588.116.726.075 1.417.176 1.943.789.273.319.431.676.592 1.041 1.594 3.611 3.189 7.219 5.005 10.73 1.192 2.303 2.628 4.508 3.229 7.086.034.147.069.385.297.33.177-.042.12-.252.132-.396.115-1.388.19-2.781.349-4.163.342-2.985.636-5.974.868-8.969.114-1.472.209-2.946.932-4.293.406-.756 1.177-1.004 1.821-1.435.032-.023.099-.005.147.008 1.135.281 1.72 1.152 2.224 2.101.048.089.009.23-.008.346-.419 2.976-.93 5.937-1.516 8.885-.396 1.993-.763 3.992-1.133 5.99-.027.146-.145.35.068.448.175.08.323-.039.442-.165.184-.195.379-.384.54-.598 2.216-2.96 4.472-5.888 6.936-8.645.949-1.062 1.857-2.174 3.033-3.013.195-.139.381-.25.635-.263 1.298-.068 2.306.435 3.027 1.507.046.07.084.149.141.208.494.523.56 1.098.278 1.755-.27.629-.274 1.363-.709 1.926-1.111 1.434-2.251 2.847-3.349 4.291-1.768 2.325-3.618 4.597-4.975 7.206-.088.169-.295.345-.144.545.146.193.374.072.565.031 3.731-.785 7.456-1.596 11.222-2.201 1.273-.204 2.545-.656 3.779.224.512.366.785.83.566 1.428-.139.379-.313.743-.445 1.124-.106.304-.306.455-.61.529-1.258.302-2.503.664-3.77.915-4.12.814-8.214 1.742-12.294 2.732-.15.036-.324.026-.441.235 1.698.192 3.352.412 5.007.405 2.775-.011 5.536.181 8.303.331 1.202.064 2.258.366 3.199 1.123.563.455.875 1.101 1.348 1.62v.202l.002.001Z"/>
  </g>
  <path fill="#fff" fill-opacity=".4" d="M351.422 220.569 341.358 238l-29.795-51.606h20.127l19.732 34.175Z"/>
  <path fill="#fff" fill-opacity=".6" d="m351.301 186.394 9.926 17.193-9.805 16.982-19.732-34.175h19.611Z"/>
  <path fill="#fff" d="m361.227 203.587-9.926-17.193h19.852l-9.926 17.193Z"/>
  <defs>
    <linearGradient id="a" x1="957.533" x2="957.533" y1="17" y2="46.804" gradientUnits="userSpaceOnUse">
      <stop stop-color="#0F52DE"/>
      <stop offset="1" stop-color="#0F52DE" stop-opacity=".18"/>
    </linearGradient>
    <linearGradient id="b" x1="957.533" x2="957.533" y1="23.683" y2="40.121" gradientUnits="userSpaceOnUse">
      <stop stop-color="#0F52DE"/>
      <stop offset="1" stop-color="#fff"/>
    </linearGradient>
    <linearGradient id="c" x1="957.533" x2="957.533" y1="23.683" y2="40.121" gradientUnits="userSpaceOnUse">
      <stop stop-color="#0F52DE"/>
      <stop offset="1" stop-color="#fff"/>
    </linearGradient>
    <linearGradient id="d" x1="957.533" x2="957.533" y1="23.683" y2="40.121" gradientUnits="userSpaceOnUse">
      <stop stop-color="#0F52DE"/>
      <stop offset="1" stop-color="#fff"/>
    </linearGradient>
    <linearGradient id="e" x1="957.902" x2="957.902" y1="395" y2="424.804" gradientUnits="userSpaceOnUse">
      <stop stop-color="#5CB7F2"/>
      <stop offset="1" stop-color="#5CB7F2" stop-opacity=".18"/>
    </linearGradient>
    <linearGradient id="f" x1="957.902" x2="957.902" y1="401.684" y2="418.122" gradientUnits="userSpaceOnUse">
      <stop stop-color="#5CB7F2"/>
      <stop offset="1" stop-color="#fff"/>
    </linearGradient>
    <linearGradient id="g" x1="957.902" x2="957.902" y1="401.684" y2="418.122" gradientUnits="userSpaceOnUse">
      <stop stop-color="#5CB7F2"/>
      <stop offset="1" stop-color="#fff"/>
    </linearGradient>
    <linearGradient id="h" x1="957.902" x2="957.902" y1="401.684" y2="418.122" gradientUnits="userSpaceOnUse">
      <stop stop-color="#5CB7F2"/>
      <stop offset="1" stop-color="#fff"/>
    </linearGradient>
    <linearGradient id="i" x1="957.902" x2="957.902" y1="401.684" y2="418.122" gradientUnits="userSpaceOnUse">
      <stop stop-color="#5CB7F2"/>
      <stop offset="1" stop-color="#fff"/>
    </linearGradient>
    <linearGradient id="j" x1="957.902" x2="957.902" y1="260" y2="289.804" gradientUnits="userSpaceOnUse">
      <stop stop-color="#4CCE94"/>
      <stop offset="1" stop-color="#4CCE94" stop-opacity=".18"/>
    </linearGradient>
    <linearGradient id="k" x1="957.902" x2="957.902" y1="266.684" y2="283.122" gradientUnits="userSpaceOnUse">
      <stop stop-color="#4CCE94"/>
      <stop offset="1" stop-color="#fff"/>
    </linearGradient>
    <linearGradient id="l" x1="957.902" x2="957.902" y1="266.684" y2="283.122" gradientUnits="userSpaceOnUse">
      <stop stop-color="#4CCE94"/>
      <stop offset="1" stop-color="#fff"/>
    </linearGradient>
    <linearGradient id="m" x1="957.902" x2="957.902" y1="266.684" y2="283.122" gradientUnits="userSpaceOnUse">
      <stop stop-color="#4CCE94"/>
      <stop offset="1" stop-color="#fff"/>
    </linearGradient>
    <linearGradient id="n" x1="957.902" x2="957.902" y1="266.684" y2="283.122" gradientUnits="userSpaceOnUse">
      <stop stop-color="#4CCE94"/>
      <stop offset="1" stop-color="#fff"/>
    </linearGradient>
    <linearGradient id="o" x1="957.902" x2="957.902" y1="266.684" y2="283.122" gradientUnits="userSpaceOnUse">
      <stop stop-color="#4CCE94"/>
      <stop offset="1" stop-color="#fff"/>
    </linearGradient>
    <linearGradient id="p" x1="957.902" x2="957.902" y1="266.684" y2="283.122" gradientUnits="userSpaceOnUse">
      <stop stop-color="#4CCE94"/>
      <stop offset="1" stop-color="#fff"/>
    </linearGradient>
    <linearGradient id="q" x1="957.902" x2="957.902" y1="150" y2="179.804" gradientUnits="userSpaceOnUse">
      <stop stop-color="#702EDC"/>
      <stop offset="1" stop-color="#702EDC" stop-opacity=".18"/>
    </linearGradient>
    <linearGradient id="r" x1="957.902" x2="957.902" y1="156.683" y2="173.121" gradientUnits="userSpaceOnUse">
      <stop stop-color="#702EDC"/>
      <stop offset="1" stop-color="#fff"/>
    </linearGradient>
    <linearGradient id="s" x1="957.902" x2="957.902" y1="156.683" y2="173.121" gradientUnits="userSpaceOnUse">
      <stop stop-color="#702EDC"/>
      <stop offset="1" stop-color="#fff"/>
    </linearGradient>
    <linearGradient id="t" x1="957.902" x2="957.902" y1="156.683" y2="173.121" gradientUnits="userSpaceOnUse">
      <stop stop-color="#702EDC"/>
      <stop offset="1" stop-color="#fff"/>
    </linearGradient>
    <linearGradient id="u" x1="957.902" x2="957.902" y1="156.683" y2="173.121" gradientUnits="userSpaceOnUse">
      <stop stop-color="#702EDC"/>
      <stop offset="1" stop-color="#fff"/>
    </linearGradient>
    <linearGradient id="w" x1="544.155" x2="544.155" y1="177.227" y2="219.996" gradientUnits="userSpaceOnUse">
      <stop stop-color="#0F52DE"/>
      <stop offset="1" stop-color="#fff"/>
    </linearGradient>
    <linearGradient id="x" x1="544.155" x2="544.155" y1="177.227" y2="219.996" gradientUnits="userSpaceOnUse">
      <stop stop-color="#0F52DE"/>
      <stop offset="1" stop-color="#fff"/>
    </linearGradient>
    <linearGradient id="y" x1="544.155" x2="544.155" y1="177.227" y2="219.996" gradientUnits="userSpaceOnUse">
      <stop stop-color="#0F52DE"/>
      <stop offset="1" stop-color="#fff"/>
    </linearGradient>
    <linearGradient id="A" x1="33.902" x2="33.902" y1="394.268" y2="424.071" gradientUnits="userSpaceOnUse">
      <stop stop-color="#0F52DE"/>
      <stop offset="1" stop-color="#0F52DE" stop-opacity=".18"/>
    </linearGradient>
    <linearGradient id="B" x1="34.488" x2="34.488" y1="402.125" y2="415.628" gradientUnits="userSpaceOnUse">
      <stop stop-color="#0F52DE"/>
      <stop offset="1" stop-color="#fff"/>
    </linearGradient>
    <linearGradient id="C" x1="34.488" x2="34.488" y1="402.125" y2="415.628" gradientUnits="userSpaceOnUse">
      <stop stop-color="#0F52DE"/>
      <stop offset="1" stop-color="#fff"/>
    </linearGradient>
    <linearGradient id="D" x1="34.488" x2="34.488" y1="402.125" y2="415.628" gradientUnits="userSpaceOnUse">
      <stop stop-color="#0F52DE"/>
      <stop offset="1" stop-color="#fff"/>
    </linearGradient>
    <linearGradient id="E" x1="34.488" x2="34.488" y1="402.125" y2="415.628" gradientUnits="userSpaceOnUse">
      <stop stop-color="#0F52DE"/>
      <stop offset="1" stop-color="#fff"/>
    </linearGradient>
    <linearGradient id="F" x1="49.533" x2="49.533" y1="150.392" y2="180.195" gradientUnits="userSpaceOnUse">
      <stop stop-color="#4CCE94"/>
      <stop offset="1" stop-color="#4CCE94" stop-opacity=".18"/>
    </linearGradient>
    <linearGradient id="G" x1="49.532" x2="49.532" y1="157.075" y2="173.513" gradientUnits="userSpaceOnUse">
      <stop stop-color="#4CCE94"/>
      <stop offset="1" stop-color="#fff"/>
    </linearGradient>
    <linearGradient id="H" x1="57.534" x2="57.534" y1="16.392" y2="46.196" gradientUnits="userSpaceOnUse">
      <stop stop-color="#5CB7F2"/>
      <stop offset="1" stop-color="#5CB7F2" stop-opacity=".18"/>
    </linearGradient>
    <linearGradient id="I" x1="57.534" x2="57.534" y1="23.073" y2="39.514" gradientUnits="userSpaceOnUse">
      <stop stop-color="#5CB7F2"/>
      <stop offset="1" stop-color="#fff"/>
    </linearGradient>
    <linearGradient id="J" x1="65.534" x2="65.534" y1="260.392" y2="290.195" gradientUnits="userSpaceOnUse">
      <stop stop-color="#702EDC"/>
      <stop offset="1" stop-color="#702EDC" stop-opacity=".18"/>
    </linearGradient>
    <linearGradient id="K" x1="66.707" x2="66.707" y1="267.074" y2="283.512" gradientUnits="userSpaceOnUse">
      <stop stop-color="#702EDC"/>
      <stop offset="1" stop-color="#fff"/>
    </linearGradient>
    <linearGradient id="L" x1="66.707" x2="66.707" y1="267.074" y2="283.512" gradientUnits="userSpaceOnUse">
      <stop stop-color="#702EDC"/>
      <stop offset="1" stop-color="#fff"/>
    </linearGradient>
    <linearGradient id="M" x1="66.707" x2="66.707" y1="267.074" y2="283.512" gradientUnits="userSpaceOnUse">
      <stop stop-color="#702EDC"/>
      <stop offset="1" stop-color="#fff"/>
    </linearGradient>
    <linearGradient id="N" x1="66.707" x2="66.707" y1="267.074" y2="283.512" gradientUnits="userSpaceOnUse">
      <stop stop-color="#702EDC"/>
      <stop offset="1" stop-color="#fff"/>
    </linearGradient>
    <filter id="v" width="158.661" height="158.662" x="464.026" y="142" color-interpolation-filters="sRGB" filterUnits="userSpaceOnUse">
      <feFlood flood-opacity="0" result="BackgroundImageFix"/>
      <feColorMatrix in="SourceAlpha" result="hardAlpha" values="0 0 0 0 0 0 0 0 0 0 0 0 0 0 0 0 0 0 127 0"/>
      <feOffset dy="3.974"/>
      <feGaussianBlur stdDeviation="1.987"/>
      <feComposite in2="hardAlpha" operator="out"/>
      <feColorMatrix values="0 0 0 0 0 0 0 0 0 0 0 0 0 0 0 0 0 0 0.25 0"/>
      <feBlend in2="BackgroundImageFix" result="effect1_dropShadow_8748_3554"/>
      <feBlend in="SourceGraphic" in2="effect1_dropShadow_8748_3554" result="shape"/>
    </filter>
    <filter id="z" width="158.661" height="158.662" x="666.026" y="145" color-interpolation-filters="sRGB" filterUnits="userSpaceOnUse">
      <feFlood flood-opacity="0" result="BackgroundImageFix"/>
      <feColorMatrix in="SourceAlpha" result="hardAlpha" values="0 0 0 0 0 0 0 0 0 0 0 0 0 0 0 0 0 0 127 0"/>
      <feOffset dy="3.974"/>
      <feGaussianBlur stdDeviation="1.987"/>
      <feComposite in2="hardAlpha" operator="out"/>
      <feColorMatrix values="0 0 0 0 0 0 0 0 0 0 0 0 0 0 0 0 0 0 0.25 0"/>
      <feBlend in2="BackgroundImageFix" result="effect1_dropShadow_8748_3554"/>
      <feBlend in="SourceGraphic" in2="effect1_dropShadow_8748_3554" result="shape"/>
    </filter>
    <filter id="O" width="158.661" height="158.662" x="262.026" y="145" color-interpolation-filters="sRGB" filterUnits="userSpaceOnUse">
      <feFlood flood-opacity="0" result="BackgroundImageFix"/>
      <feColorMatrix in="SourceAlpha" result="hardAlpha" values="0 0 0 0 0 0 0 0 0 0 0 0 0 0 0 0 0 0 127 0"/>
      <feOffset dy="3.974"/>
      <feGaussianBlur stdDeviation="1.987"/>
      <feComposite in2="hardAlpha" operator="out"/>
      <feColorMatrix values="0 0 0 0 0 0 0 0 0 0 0 0 0 0 0 0 0 0 0.25 0"/>
      <feBlend in2="BackgroundImageFix" result="effect1_dropShadow_8748_3554"/>
      <feBlend in="SourceGraphic" in2="effect1_dropShadow_8748_3554" result="shape"/>
    </filter>
    <clipPath id="P">
      <path fill="#fff" d="M718 186h53v53h-53z"/>
    </clipPath>
  </defs>
</svg>
