<svg xmlns="http://www.w3.org/2000/svg" fill="none" viewBox="0 0 154 49">
  <path fill="#fff" fill-rule="evenodd" d="M24.554 9.364a.376.376 0 0 0-.394 0l-16.08 9.89a.376.376 0 0 0-.179.32v10.528c0 .13.068.252.18.32l16.08 9.891c.12.075.272.075.393 0l16.08-9.89a.375.375 0 0 0 .178-.32V19.574a.375.375 0 0 0-.178-.32l-16.08-9.891Zm1.342-8.117a2.929 2.929 0 0 0-3.079 0L1.874 14.129a3.084 3.084 0 0 0-1.452 2.63v16.158c0 1.078.551 2.076 1.452 2.63L22.818 48.43a2.93 2.93 0 0 0 3.078 0L46.84 35.547a3.084 3.084 0 0 0 1.452-2.63V16.76a3.084 3.084 0 0 0-1.453-2.63L25.896 1.247Z" clip-rule="evenodd"/>
  <path fill="#fff" d="M74.092 11.762a.376.376 0 0 0-.375.375V24.65a.376.376 0 0 1-.684.213l-8.94-12.94a.375.375 0 0 0-.308-.161H58.24a.375.375 0 0 0-.375.375v26.055c0 .207.168.375.375.375h6.017a.375.375 0 0 0 .375-.375V25.254c0-.367.475-.516.684-.213l9.265 13.365c.07.1.186.161.309.161h5.218a.375.375 0 0 0 .376-.375V12.137a.375.375 0 0 0-.376-.375h-6.017ZM93.27 39.257c6.369 0 10.965-4.633 10.965-11.028 0-6.395-4.596-10.99-10.966-10.99-6.37 0-10.93 4.595-10.93 10.99 0 6.395 4.56 11.028 10.93 11.028Zm0-6.395c-2.426 0-4.199-1.876-4.199-4.595 0-2.757 1.773-4.633 4.198-4.633 2.461 0 4.234 1.914 4.234 4.633 0 2.719-1.773 4.595-4.234 4.595Zm24.817-14.974a.376.376 0 0 0-.36.268l-3.217 10.786c-.106.356-.612.357-.719 0l-3.25-10.787a.376.376 0 0 0-.359-.267h-6.557a.376.376 0 0 0-.351.51l7.673 19.928c.056.145.195.24.351.24h5.563a.376.376 0 0 0 .351-.242l7.568-19.927a.376.376 0 0 0-.351-.51h-6.342Zm27.018 10.149c0-6.05-4.343-10.799-10.64-10.799-6.153 0-10.604 4.672-10.604 10.99 0 6.319 4.488 11.03 10.604 11.03 4.718 0 8.592-2.75 10.091-7.182a.364.364 0 0 0-.35-.478h-5.999a.404.404 0 0 0-.343.204c-.656 1.102-1.931 1.75-3.399 1.75-1.999 0-3.364-1.075-3.886-3.16a.358.358 0 0 1 .355-.44h13.726a.37.37 0 0 0 .37-.335c.05-.529.075-1.041.075-1.58Zm-10.64-5.208c1.867 0 3.211.942 3.864 2.707.087.233-.094.472-.342.472h-6.908c-.246 0-.426-.234-.345-.466.619-1.769 1.929-2.713 3.731-2.713Zm12.411 15.361c0 .208.168.376.376.376h5.98a.376.376 0 0 0 .376-.375V10.796a.376.376 0 0 0-.376-.375h-5.98a.376.376 0 0 0-.376.375v27.395Z"/>
</svg>