<svg xmlns="http://www.w3.org/2000/svg" fill="none" viewBox="0 0 348 308">
  <g clip-path="url(#a)">
    <path stroke="#71717A" stroke-dasharray="4 4" d="M184.679 109.566h56.661c11.631 0 21.06 9.428 21.06 21.059s9.428 21.059 21.059 21.059h81.181m-179.961 46.708h54.366c12.899 0 23.355-10.456 23.355-23.354s10.456-23.354 23.354-23.354h78.886">
      <animate attributeName="stroke-dashoffset" dur="2s" repeatCount="indefinite" values="40;0"/>
    </path>
    <path stroke="#71717A" stroke-dasharray="4 4" d="M156.442 280.412H232.4c16.568 0 30-13.431 30-30v-71.434M184.679 31.363H232.4c16.568 0 30 13.432 30 30v63.371">
      <animate attributeName="stroke-dashoffset" dur="2s" repeatCount="indefinite" values="40;0"/>
    </path>
    <rect width="199" height="63" x="-.321" y="163.167" fill="#18181B" rx="5"/>
    <rect width="185" height="63" x="-.321" y=".333" fill="#18181B" rx="5"/>
    <path fill="#fff" d="M59.263 36.333v-11.2h1.28l4.08 6.112 4.08-6.112h1.28v11.2h-1.264v-9.072l-4.08 6h-.064l-4.08-5.984v9.056h-1.232Zm14.418-3.632c.176 1.744 1.456 2.752 2.912 2.752 1.136 0 1.936-.464 2.608-1.168l.768.688c-.832.928-1.84 1.552-3.408 1.552-2.272 0-4.128-1.744-4.128-4.32 0-2.4 1.68-4.32 3.968-4.32 2.448 0 3.856 1.952 3.856 4.384 0 .112 0 .24-.016.432h-6.56Zm0-.992h5.328c-.144-1.504-1.008-2.784-2.64-2.784-1.424 0-2.512 1.184-2.688 2.784Zm11.501 4.768c-1.328 0-2.336-.656-2.336-2.336V29.15h-1.152v-1.088h1.152v-2.496h1.232v2.496h2.624v1.088h-2.624v4.832c0 1.008.56 1.376 1.392 1.376.416 0 .768-.08 1.2-.288v1.056a3.099 3.099 0 0 1-1.488.352Zm3.7-.144v-8.272h1.233v2.16c.608-1.376 1.808-2.368 3.376-2.304v1.328h-.096c-1.808 0-3.28 1.296-3.28 3.792v3.296h-1.232Zm6.517-10.08v-1.36h1.408v1.36H95.4Zm.08 10.08v-8.272h1.232v8.272H95.48Zm7.819.192c-2.416 0-4.24-1.968-4.24-4.288v-.032c0-2.336 1.824-4.32 4.24-4.32 1.568 0 2.544.656 3.312 1.472l-.816.864c-.656-.688-1.392-1.248-2.512-1.248-1.68 0-2.96 1.424-2.96 3.2v.032c0 1.792 1.312 3.216 3.04 3.216 1.056 0 1.872-.528 2.528-1.232l.784.736c-.832.928-1.824 1.6-3.376 1.6Zm10.53-.192v-11.2h1.264v11.2h-1.264Zm4.336 0v-8.272h1.232v1.392c.544-.816 1.28-1.568 2.672-1.568 1.344 0 2.208.72 2.656 1.648.592-.912 1.472-1.648 2.912-1.648 1.904 0 3.072 1.28 3.072 3.328v5.12h-1.232v-4.832c0-1.6-.8-2.496-2.144-2.496-1.248 0-2.288.928-2.288 2.56v4.768h-1.216V31.47c0-1.552-.816-2.464-2.128-2.464-1.312 0-2.304 1.088-2.304 2.608v4.72h-1.232Zm15.219 2.56V28.061h1.232v1.664c.672-.992 1.648-1.84 3.168-1.84 1.984 0 3.952 1.568 3.952 4.288v.032c0 2.704-1.952 4.304-3.952 4.304-1.536 0-2.528-.832-3.168-1.76v4.144h-1.232Zm4.176-3.488c1.6 0 2.912-1.184 2.912-3.184v-.032c0-1.952-1.344-3.2-2.912-3.2-1.536 0-2.992 1.296-2.992 3.184v.032c0 1.92 1.456 3.2 2.992 3.2Zm10.225 1.12c-2.48 0-4.288-1.952-4.288-4.288v-.032c0-2.336 1.824-4.32 4.32-4.32 2.48 0 4.304 1.952 4.304 4.288v.032c0 2.336-1.84 4.32-4.336 4.32Zm.032-1.104c1.792 0 3.04-1.44 3.04-3.184v-.032c0-1.776-1.328-3.232-3.072-3.232-1.792 0-3.024 1.456-3.024 3.2v.032c0 1.776 1.312 3.216 3.056 3.216Zm6.536.912v-8.272h1.232v2.16c.608-1.376 1.808-2.368 3.376-2.304v1.328h-.096c-1.808 0-3.28 1.296-3.28 3.792v3.296h-1.232Zm9.252.144c-1.328 0-2.336-.656-2.336-2.336V29.15h-1.152v-1.088h1.152v-2.496h1.232v2.496h2.624v1.088H162.5v4.832c0 1.008.56 1.376 1.392 1.376.416 0 .768-.08 1.2-.288v1.056a3.099 3.099 0 0 1-1.488.352Z"/>
    <rect width="28.372" height="28.372" x="16.227" y="17.647" stroke="url(#b)" stroke-width="1.628" rx="7.186"/>
    <path fill="#fff" d="M0 0h18.91v18.91H0z" style="mix-blend-mode:multiply" transform="translate(20.958 22.378)"/>
    <path fill="url(#c)" d="M36.913 25.924v2.954h-5.91v-2.954h5.91Zm0-1.182h-5.91a1.181 1.181 0 0 0-1.181 1.182v2.954a1.182 1.182 0 0 0 1.182 1.182h5.91a1.182 1.182 0 0 0 1.18-1.181v-2.955a1.182 1.182 0 0 0-1.18-1.182Z"/>
    <path fill="url(#d)" d="M28.049 37.152h-3.546v-4.728h3.546v-1.182h-3.546a1.182 1.182 0 0 0-1.181 1.182v4.728a1.181 1.181 0 0 0 1.181 1.181h3.546v-1.181Z"/>
    <path fill="url(#e)" d="M38.686 34.197h-7.784l1.528-1.528-.835-.836-2.955 2.955 2.955 2.955.835-.836-1.528-1.528h7.784v-1.182Z"/>
    <path fill="url(#f)" d="M27.458 25.924v2.954h-2.955v-2.954h2.955Zm0-1.182h-2.955a1.181 1.181 0 0 0-1.181 1.182v2.954a1.182 1.182 0 0 0 1.181 1.182h2.955a1.182 1.182 0 0 0 1.182-1.181v-2.955a1.182 1.182 0 0 0-1.182-1.182Z"/>
    <path fill="#fff" d="M68.463 199.359c-3.52 0-5.696-2.56-5.696-5.76v-.032c0-3.072 2.256-5.792 5.616-5.792 1.888 0 3.056.544 4.176 1.488l-.816.96c-.864-.752-1.824-1.28-3.408-1.28-2.48 0-4.256 2.096-4.256 4.592v.032c0 2.672 1.712 4.656 4.432 4.656 1.28 0 2.464-.496 3.232-1.12v-2.784h-3.408v-1.136h4.624v4.464a6.787 6.787 0 0 1-4.496 1.712Zm10.915 0c-2.48 0-4.288-1.952-4.288-4.288v-.032c0-2.336 1.824-4.32 4.32-4.32 2.48 0 4.304 1.952 4.304 4.288v.032c0 2.336-1.84 4.32-4.336 4.32Zm.032-1.104c1.792 0 3.04-1.44 3.04-3.184v-.032c0-1.776-1.328-3.232-3.072-3.232-1.792 0-3.024 1.456-3.024 3.2v.032c0 1.776 1.312 3.216 3.056 3.216Zm10.311 1.104c-2.48 0-4.288-1.952-4.288-4.288v-.032c0-2.336 1.824-4.32 4.32-4.32 2.48 0 4.304 1.952 4.304 4.288v.032c0 2.336-1.84 4.32-4.336 4.32Zm.032-1.104c1.792 0 3.04-1.44 3.04-3.184v-.032c0-1.776-1.328-3.232-3.072-3.232-1.792 0-3.024 1.456-3.024 3.2v.032c0 1.776 1.312 3.216 3.056 3.216Zm10.2 3.504c-1.376 0-2.656-.384-3.76-1.152l.56-.96c.944.688 2 1.056 3.184 1.056 1.824 0 3.008-1.008 3.008-2.944v-.976c-.72.96-1.728 1.744-3.248 1.744-1.984 0-3.888-1.488-3.888-3.872v-.032c0-2.416 1.92-3.904 3.888-3.904 1.552 0 2.56.768 3.232 1.664v-1.488h1.232v6.832c0 1.28-.384 2.256-1.056 2.928-.736.736-1.84 1.104-3.152 1.104Zm-.016-4.32c1.568 0 3.04-1.136 3.04-2.8v-.032c0-1.696-1.472-2.8-3.04-2.8s-2.864 1.088-2.864 2.784v.032c0 1.664 1.328 2.816 2.864 2.816Zm7.089 1.728v-11.68h1.232v11.68h-1.232Zm4.827-3.632c.176 1.744 1.456 2.752 2.912 2.752 1.136 0 1.936-.464 2.608-1.168l.768.688c-.832.928-1.84 1.552-3.408 1.552-2.272 0-4.128-1.744-4.128-4.32 0-2.4 1.68-4.32 3.968-4.32 2.448 0 3.856 1.952 3.856 4.384 0 .112 0 .24-.016.432h-6.56Zm0-.992h5.328c-.144-1.504-1.008-2.784-2.64-2.784-1.424 0-2.512 1.184-2.688 2.784Zm17.578 4.784c-1.776 0-3.232-.592-4.576-1.792l.784-.928c1.168 1.056 2.288 1.584 3.84 1.584 1.504 0 2.496-.8 2.496-1.904v-.032c0-1.04-.56-1.632-2.912-2.128-2.576-.56-3.76-1.392-3.76-3.232v-.032c0-1.76 1.552-3.056 3.68-3.056 1.632 0 2.8.464 3.936 1.376l-.736.976c-1.04-.848-2.08-1.216-3.232-1.216-1.456 0-2.384.8-2.384 1.808v.032c0 1.056.576 1.648 3.04 2.176 2.496.544 3.648 1.456 3.648 3.168v.032c0 1.92-1.6 3.168-3.824 3.168Zm6.186-.16v-11.68h1.232v4.848c.544-.896 1.408-1.616 2.832-1.616 2 0 3.168 1.344 3.168 3.312v5.136h-1.232v-4.832c0-1.536-.832-2.496-2.288-2.496-1.424 0-2.48 1.04-2.48 2.592v4.736h-1.232Zm10.596-3.632c.176 1.744 1.456 2.752 2.912 2.752 1.136 0 1.936-.464 2.608-1.168l.768.688c-.832.928-1.84 1.552-3.408 1.552-2.272 0-4.128-1.744-4.128-4.32 0-2.4 1.68-4.32 3.968-4.32 2.448 0 3.856 1.952 3.856 4.384 0 .112 0 .24-.016.432h-6.56Zm0-.992h5.328c-.144-1.504-1.008-2.784-2.64-2.784-1.424 0-2.512 1.184-2.688 2.784Zm9.468.992c.176 1.744 1.456 2.752 2.912 2.752 1.136 0 1.936-.464 2.608-1.168l.768.688c-.832.928-1.84 1.552-3.408 1.552-2.272 0-4.128-1.744-4.128-4.32 0-2.4 1.68-4.32 3.968-4.32 2.448 0 3.856 1.952 3.856 4.384 0 .112 0 .24-.016.432h-6.56Zm0-.992h5.328c-.144-1.504-1.008-2.784-2.64-2.784-1.424 0-2.512 1.184-2.688 2.784Zm11.501 4.768c-1.328 0-2.336-.656-2.336-2.336v-4.992h-1.152v-1.088h1.152v-2.496h1.232v2.496h2.624v1.088h-2.624v4.832c0 1.008.56 1.376 1.392 1.376.416 0 .768-.08 1.2-.288v1.056a3.099 3.099 0 0 1-1.488.352Zm6.437.016c-1.184 0-2.496-.464-3.424-1.216l.624-.88c.896.672 1.888 1.056 2.864 1.056.992 0 1.712-.512 1.712-1.312v-.032c0-.832-.976-1.152-2.064-1.456-1.296-.368-2.736-.816-2.736-2.336v-.032c0-1.424 1.184-2.368 2.816-2.368 1.008 0 2.128.352 2.976.912l-.56.928c-.768-.496-1.648-.8-2.448-.8-.976 0-1.6.512-1.6 1.2v.032c0 .784 1.024 1.088 2.128 1.424 1.28.384 2.656.88 2.656 2.368v.032c0 1.568-1.296 2.48-2.944 2.48Z"/>
    <rect width="28.372" height="28.372" x="16.227" y="180.481" stroke="url(#g)" stroke-width="1.628" rx="7.186"/>
    <path fill="url(#h)" d="M37.504 189.939H35.14v-2.364a1.184 1.184 0 0 0-1.182-1.181H23.322a1.184 1.184 0 0 0-1.182 1.181v10.637a1.185 1.185 0 0 0 1.181 1.182h2.364v2.364a1.182 1.182 0 0 0 1.182 1.182h10.637a1.184 1.184 0 0 0 1.182-1.182v-10.637a1.182 1.182 0 0 0-1.182-1.182Zm-3.546 8.273h-4.727v-2.954h4.727v2.954Zm0-4.136h-4.727v-2.955h4.727v2.955Zm-5.909 0h-4.727v-2.955h4.727v2.955Zm5.91-6.501v2.364H23.32v-2.364h10.637ZM23.32 198.212v-2.954h4.728v2.954h-4.727Zm14.183 3.546H26.867v-2.364h7.091a1.184 1.184 0 0 0 1.182-1.182v-7.091h2.364v10.637Z"/>
    <rect width="155.964" height="63" x="-.321" y="244.583" fill="#18181B" rx="5"/>
    <path fill="#fff" d="m67.119 280.663-4.816-11.28h1.408l3.984 9.648 4-9.648h1.36l-4.816 11.28h-1.12Zm7.655-10.16v-1.36h1.408v1.36h-1.408Zm.08 10.08v-8.272h1.232v8.272h-1.232Zm6.827.16c-1.184 0-2.496-.464-3.424-1.216l.624-.88c.896.672 1.888 1.056 2.864 1.056.992 0 1.712-.512 1.712-1.312v-.032c0-.832-.976-1.152-2.064-1.456-1.296-.368-2.736-.816-2.736-2.336v-.032c0-1.424 1.184-2.368 2.816-2.368 1.008 0 2.128.352 2.976.912l-.56.928c-.768-.496-1.648-.8-2.448-.8-.976 0-1.6.512-1.6 1.2v.032c0 .784 1.024 1.088 2.128 1.424 1.28.384 2.656.88 2.656 2.368v.032c0 1.568-1.296 2.48-2.944 2.48Zm5.265-10.24v-1.36h1.408v1.36h-1.408Zm.08 10.08v-8.272h1.232v8.272h-1.232Zm8.491.176c-1.536 0-2.528-.832-3.168-1.76v1.584h-1.232v-11.68h1.232v5.072c.672-.992 1.648-1.84 3.168-1.84 1.984 0 3.952 1.568 3.952 4.288v.032c0 2.704-1.952 4.304-3.952 4.304Zm-.224-1.104c1.6 0 2.912-1.184 2.912-3.184v-.032c0-1.952-1.344-3.2-2.912-3.2-1.536 0-2.992 1.296-2.992 3.184v.032c0 1.92 1.456 3.2 2.992 3.2Zm6.561.928v-11.68h1.232v11.68h-1.232Zm4.827-3.632c.176 1.744 1.456 2.752 2.912 2.752 1.136 0 1.936-.464 2.608-1.168l.768.688c-.832.928-1.84 1.552-3.408 1.552-2.272 0-4.128-1.744-4.128-4.32 0-2.4 1.68-4.32 3.968-4.32 2.448 0 3.856 1.952 3.856 4.384 0 .112 0 .24-.016.432h-6.56Zm0-.992h5.328c-.144-1.504-1.008-2.784-2.64-2.784-1.424 0-2.512 1.184-2.688 2.784Zm12.778 4.624 5.104-11.28h1.184l5.104 11.28h-1.36l-1.312-2.96h-6.096l-1.328 2.96h-1.296Zm3.12-4.096h5.104l-2.544-5.712-2.56 5.712Zm10.593 4.096v-11.2h1.264v11.2h-1.264Z"/>
    <rect width="28.372" height="28.372" x="16.227" y="261.897" stroke="url(#i)" stroke-width="1.628" rx="7.186"/>
    <path fill="url(#j)" fill-rule="evenodd" d="M22.138 284.358h16.549v-7.24h-1.034v6.205h-14.48v-14.48h6.205v-1.034h-7.24v16.549Zm16.55-14.48h-2.07v-2.069h-1.034v2.069h-2.068v1.034h2.068v2.069h1.034v-2.069h2.07v-1.034Zm-7.5 9.308h-1.034l-.32-1.034h-2.47l-.312 1.034H26.02l1.808-5.688h1.551l1.81 5.688Zm-2.67-4.867-.843 2.799h1.84l-.866-2.8-.132.001Zm3.446 3.833v1.034h2.069v-1.034h-.517v-3.62h.517v-1.034h-2.069v1.034h.517v3.62h-.517Zm5.689-4.137h1.034v1.034h-1.034v-1.034Zm-5.172-6.206h-1.034v1.034h1.034v-1.034Z" clip-rule="evenodd"/>
    <rect width="204" height="63" x="-.321" y="81.75" fill="#18181B" rx="5"/>
    <path fill="#fff" d="m62.119 117.83-4.816-11.28h1.408l3.984 9.648 4-9.648h1.36l-4.816 11.28h-1.12Zm7.655-10.16v-1.36h1.408v1.36h-1.408Zm.08 10.08v-8.272h1.232v8.272h-1.232Zm6.827.16c-1.184 0-2.496-.464-3.424-1.216l.624-.88c.896.672 1.888 1.056 2.864 1.056.992 0 1.712-.512 1.712-1.312v-.032c0-.832-.976-1.152-2.064-1.456-1.296-.368-2.736-.816-2.736-2.336v-.032c0-1.424 1.184-2.368 2.816-2.368 1.008 0 2.128.352 2.976.912l-.56.928c-.768-.496-1.648-.8-2.448-.8-.976 0-1.6.512-1.6 1.2v.032c0 .784 1.024 1.088 2.128 1.424 1.28.384 2.656.88 2.656 2.368v.032c0 1.568-1.296 2.48-2.944 2.48Zm5.265-10.24v-1.36h1.408v1.36h-1.408Zm.08 10.08v-8.272h1.232v8.272h-1.232Zm8.491.176c-1.536 0-2.528-.832-3.168-1.76v1.584h-1.232v-11.68h1.232v5.072c.672-.992 1.648-1.84 3.168-1.84 1.984 0 3.952 1.568 3.952 4.288v.032c0 2.704-1.952 4.304-3.952 4.304Zm-.224-1.104c1.6 0 2.912-1.184 2.912-3.184v-.032c0-1.952-1.344-3.2-2.912-3.2-1.536 0-2.992 1.296-2.992 3.184v.032c0 1.92 1.456 3.2 2.992 3.2Zm6.561.928v-11.68h1.232v11.68h-1.232Zm4.827-3.632c.176 1.744 1.456 2.752 2.912 2.752 1.136 0 1.936-.464 2.608-1.168l.768.688c-.832.928-1.84 1.552-3.408 1.552-2.272 0-4.128-1.744-4.128-4.32 0-2.4 1.68-4.32 3.968-4.32 2.448 0 3.856 1.952 3.856 4.384 0 .112 0 .24-.016.432h-6.56Zm0-.992h5.328c-.144-1.504-1.008-2.784-2.64-2.784-1.424 0-2.512 1.184-2.688 2.784Zm13.738 4.624v-11.2h4.816c1.376 0 2.48.416 3.184 1.12.544.544.864 1.328.864 2.208v.032c0 1.856-1.28 2.944-3.04 3.264l3.44 4.576h-1.552l-3.248-4.352h-3.2v4.352h-1.264Zm1.264-5.488h3.44c1.68 0 2.88-.864 2.88-2.304v-.032c0-1.376-1.056-2.208-2.864-2.208h-3.456v4.544Zm10.67 1.856c.176 1.744 1.456 2.752 2.912 2.752 1.136 0 1.936-.464 2.608-1.168l.768.688c-.832.928-1.84 1.552-3.408 1.552-2.272 0-4.128-1.744-4.128-4.32 0-2.4 1.68-4.32 3.968-4.32 2.448 0 3.856 1.952 3.856 4.384 0 .112 0 .24-.016.432h-6.56Zm0-.992h5.328c-.144-1.504-1.008-2.784-2.64-2.784-1.424 0-2.512 1.184-2.688 2.784Zm15.373 7.184v-4.224c-.672.992-1.648 1.84-3.168 1.84-1.984 0-3.952-1.568-3.952-4.288v-.032c0-2.704 1.968-4.304 3.952-4.304 1.536 0 2.528.832 3.168 1.76v-1.584h1.232v10.832h-1.232Zm-2.944-3.488c1.536 0 2.992-1.296 2.992-3.2v-.032c0-1.904-1.456-3.184-2.992-3.184-1.6 0-2.912 1.184-2.912 3.184v.032c0 1.952 1.344 3.2 2.912 3.2Zm9.969 1.104c-2 0-3.168-1.344-3.168-3.312v-5.136h1.232v4.832c0 1.536.832 2.496 2.288 2.496 1.408 0 2.48-1.04 2.48-2.592v-4.736h1.216v8.272h-1.216v-1.44c-.56.896-1.408 1.616-2.832 1.616Zm7.555-3.808c.176 1.744 1.456 2.752 2.912 2.752 1.136 0 1.936-.464 2.608-1.168l.768.688c-.832.928-1.84 1.552-3.408 1.552-2.272 0-4.128-1.744-4.128-4.32 0-2.4 1.68-4.32 3.968-4.32 2.448 0 3.856 1.952 3.856 4.384 0 .112 0 .24-.016.432h-6.56Zm0-.992h5.328c-.144-1.504-1.008-2.784-2.64-2.784-1.424 0-2.512 1.184-2.688 2.784Zm11.469 4.784c-1.184 0-2.496-.464-3.424-1.216l.624-.88c.896.672 1.888 1.056 2.864 1.056.992 0 1.712-.512 1.712-1.312v-.032c0-.832-.976-1.152-2.064-1.456-1.296-.368-2.736-.816-2.736-2.336v-.032c0-1.424 1.184-2.368 2.816-2.368 1.008 0 2.128.352 2.976.912l-.56.928c-.768-.496-1.648-.8-2.448-.8-.976 0-1.6.512-1.6 1.2v.032c0 .784 1.024 1.088 2.128 1.424 1.28.384 2.656.88 2.656 2.368v.032c0 1.568-1.296 2.48-2.944 2.48Zm7.845-.016c-1.328 0-2.336-.656-2.336-2.336v-4.992h-1.152v-1.088h1.152v-2.496h1.232v2.496h2.624v1.088h-2.624v4.832c0 1.008.56 1.376 1.392 1.376.416 0 .768-.08 1.2-.288v1.056a3.099 3.099 0 0 1-1.488.352Zm6.436.016c-1.184 0-2.496-.464-3.424-1.216l.624-.88c.896.672 1.888 1.056 2.864 1.056.992 0 1.712-.512 1.712-1.312v-.032c0-.832-.976-1.152-2.064-1.456-1.296-.368-2.736-.816-2.736-2.336v-.032c0-1.424 1.184-2.368 2.816-2.368 1.008 0 2.128.352 2.976.912l-.56.928c-.768-.496-1.648-.8-2.448-.8-.976 0-1.6.512-1.6 1.2v.032c0 .784 1.024 1.088 2.128 1.424 1.28.384 2.656.88 2.656 2.368v.032c0 1.568-1.296 2.48-2.944 2.48Z"/>
    <rect width="28.372" height="28.372" x="16.227" y="99.064" stroke="url(#k)" stroke-width="1.628" rx="7.186"/>
    <path fill="url(#l)" d="M28.52 112.081h-3.61v.992h3.611v-.992Z"/>
    <path fill="url(#m)" d="m24.547 117.617.602.602 2.408-2.407 3.01 2.407 2.408-3.009-.602-.602-1.806 2.407-3.01-2.407-3.01 3.009Z"/>
    <path fill="url(#n)" d="M34.42 112.592v-.001.001Z"/>
    <path fill="url(#o)" fill-rule="evenodd" d="M38.686 109.63a4.655 4.655 0 0 1-3.304 4.455v6.406c0 .57-.462 1.032-1.031 1.032H23.17c-.57 0-1.031-.462-1.031-1.032v-13.799c0-.569.462-1.031 1.031-1.031h8.431a4.653 4.653 0 0 1 7.083 3.969Zm-4.335 10.902v-6.259a4.655 4.655 0 0 1-4.687-3.035h-4.535v-.992h4.29a4.698 4.698 0 0 1-.035-.841h-4.15v-.992h4.306a4.63 4.63 0 0 1 .916-1.76H23.17v13.879h11.18Zm-.006-7.891a.217.217 0 0 0 .074-.049v.017l.35-.337a.196.196 0 0 0 .075-.15.153.153 0 0 0-.074-.134l-2.086-1.848h4.598a.245.245 0 0 0 .085-.015.216.216 0 0 0 .072-.044.185.185 0 0 0 .065-.143v-.47a.184.184 0 0 0-.065-.142.224.224 0 0 0-.157-.059h-4.598l2.087-1.845a.157.157 0 0 0 .074-.135.194.194 0 0 0-.074-.151l-.352-.319a.232.232 0 0 0-.249-.051.18.18 0 0 0-.064.051l-3.047 2.752a.172.172 0 0 0-.055.134.23.23 0 0 0 .055.151l3.047 2.755a.21.21 0 0 0 .148.05.234.234 0 0 0 .09-.018Z" clip-rule="evenodd"/>
  </g>
  <defs>
    <linearGradient id="b" x1="30.413" x2="30.413" y1="16.833" y2="46.833" gradientUnits="userSpaceOnUse">
      <stop stop-color="#0F52DE"/>
      <stop offset="1" stop-color="#0F52DE" stop-opacity=".18"/>
    </linearGradient>
    <linearGradient id="c" x1="31.004" x2="31.004" y1="24.742" y2="38.334" gradientUnits="userSpaceOnUse">
      <stop stop-color="#0F52DE"/>
      <stop offset="1" stop-color="#fff"/>
    </linearGradient>
    <linearGradient id="d" x1="31.004" x2="31.004" y1="24.742" y2="38.334" gradientUnits="userSpaceOnUse">
      <stop stop-color="#0F52DE"/>
      <stop offset="1" stop-color="#fff"/>
    </linearGradient>
    <linearGradient id="e" x1="31.004" x2="31.004" y1="24.742" y2="38.334" gradientUnits="userSpaceOnUse">
      <stop stop-color="#0F52DE"/>
      <stop offset="1" stop-color="#fff"/>
    </linearGradient>
    <linearGradient id="f" x1="31.004" x2="31.004" y1="24.742" y2="38.334" gradientUnits="userSpaceOnUse">
      <stop stop-color="#0F52DE"/>
      <stop offset="1" stop-color="#fff"/>
    </linearGradient>
    <linearGradient id="g" x1="30.413" x2="30.413" y1="179.667" y2="209.667" gradientUnits="userSpaceOnUse">
      <stop stop-color="#4CCE94"/>
      <stop offset="1" stop-color="#4CCE94" stop-opacity=".18"/>
    </linearGradient>
    <linearGradient id="h" x1="30.413" x2="30.413" y1="186.394" y2="202.94" gradientUnits="userSpaceOnUse">
      <stop stop-color="#4CCE94"/>
      <stop offset="1" stop-color="#fff"/>
    </linearGradient>
    <linearGradient id="i" x1="30.413" x2="30.413" y1="261.083" y2="291.083" gradientUnits="userSpaceOnUse">
      <stop stop-color="#5CB7F2"/>
      <stop offset="1" stop-color="#5CB7F2" stop-opacity=".18"/>
    </linearGradient>
    <linearGradient id="j" x1="30.413" x2="30.413" y1="267.809" y2="284.358" gradientUnits="userSpaceOnUse">
      <stop stop-color="#5CB7F2"/>
      <stop offset="1" stop-color="#fff"/>
    </linearGradient>
    <linearGradient id="k" x1="30.413" x2="30.413" y1="98.25" y2="128.25" gradientUnits="userSpaceOnUse">
      <stop stop-color="#702EDC"/>
      <stop offset="1" stop-color="#702EDC" stop-opacity=".18"/>
    </linearGradient>
    <linearGradient id="l" x1="30.413" x2="30.413" y1="104.977" y2="121.523" gradientUnits="userSpaceOnUse">
      <stop stop-color="#702EDC"/>
      <stop offset="1" stop-color="#fff"/>
    </linearGradient>
    <linearGradient id="m" x1="30.413" x2="30.413" y1="104.977" y2="121.523" gradientUnits="userSpaceOnUse">
      <stop stop-color="#702EDC"/>
      <stop offset="1" stop-color="#fff"/>
    </linearGradient>
    <linearGradient id="n" x1="30.413" x2="30.413" y1="104.977" y2="121.523" gradientUnits="userSpaceOnUse">
      <stop stop-color="#702EDC"/>
      <stop offset="1" stop-color="#fff"/>
    </linearGradient>
    <linearGradient id="o" x1="30.413" x2="30.413" y1="104.977" y2="121.523" gradientUnits="userSpaceOnUse">
      <stop stop-color="#702EDC"/>
      <stop offset="1" stop-color="#fff"/>
    </linearGradient>
    <clipPath id="a">
      <path fill="#fff" d="M0 0h348v308H0z"/>
    </clipPath>
  </defs>
</svg>