<svg xmlns="http://www.w3.org/2000/svg" fill="none" viewBox="0 0 103 28">
  <path fill="#fff" fill-rule="evenodd" d="M43.672 27.394v-6.908c.145.115.28.226.41.332.281.23.535.438.807.616 2.879 1.891 7.275 1.206 9.725-1.536 2.036-2.278 2.584-4.97 2.067-7.884-.697-3.9-3.285-6.906-7.727-7.052-2.08-.067-3.943.438-5.34 2.079a.35.35 0 0 1-.12.074 2.62 2.62 0 0 0-.128.066V5.533h-4.687v21.86h4.993Zm4.01-9.507c-2.294 0-4.217-1.9-4.233-4.184.089-1.87 1.394-4.136 4.18-4.144a4.233 4.233 0 0 1 2.994 1.215 4.073 4.073 0 0 1 1.217 2.946c-.025 2.315-1.866 4.165-4.159 4.167Zm23.728 9.507v-6.828c.212.142.414.288.612.431.418.302.819.59 1.257.809 3.158 1.57 7.447.437 9.592-2.52 1.794-2.471 2.126-5.219 1.364-8.09-.8-3.013-2.571-5.25-5.805-5.97-2.682-.595-5.218-.308-7.164 1.916-.007.007-.03.001-.07-.009a1.47 1.47 0 0 0-.093-.021V5.557h-4.669v21.837h4.976Zm4.007-9.496c-2.301-.008-4.22-1.906-4.228-4.184.096-1.882 1.41-4.134 4.19-4.134a4.232 4.232 0 0 1 2.996 1.217 4.055 4.055 0 0 1 1.209 2.946c-.035 2.318-1.865 4.163-4.167 4.155Zm15.013-3.057h12.226c.714-3.44-1.155-8.268-6.115-9.572-4.701-1.232-9.319 1.28-10.614 5.697-1.327 4.523 1.217 9.155 5.767 10.458 4.775 1.369 9.002-1.342 10.477-5.066a.15.15 0 0 1-.013-.013c-.008-.01-.016-.019-.024-.019-.36 0-.721-.003-1.082-.004-1.104-.006-2.205-.012-3.308.013a1.462 1.462 0 0 0-.894.344c-1.036.976-2.262 1.263-3.657 1.043-1.55-.249-2.753-1.494-2.763-2.88Zm3.208-5.847c2.19-.154 3.855.878 4.201 2.665h-7.286c.037-1.211 1.394-2.547 3.085-2.665Z" clip-rule="evenodd"/>
  <path fill="#fff" d="M.4 27.394v-.436c0-5.45-.008-10.899 0-16.353.005-2.818 1.927-5.14 4.739-5.558 1.236-.183 2.523-.031 3.87-.031v16.531c0 3.426-2.473 5.83-5.987 5.841-.842.008-1.692.006-2.622.006Zm11.48-9.375V.284c1.598.081 3.189-.196 4.733.349 2.273.786 3.819 2.95 3.862 5.406.03 1.978.018 3.955.01 5.932-.015 3.373-2.218 5.816-5.496 6.049-1.015.06-2.037-.001-3.109-.001Zm51.683 3.767h-4.786V5.893h4.785v15.893Zm0-21.503v3.74h-4.786V.283h4.785Z"/>
</svg>