<svg xmlns="http://www.w3.org/2000/svg" width="93" height="37" fill="none" viewBox="0 0 93 37">
  <path fill="#fff" d="M8.92.29c2.623 0 5.14-.068 7.65.018 2.567.089 4.419 1.993 4.541 4.47.141 2.85-1.403 4.898-4.128 5.206-1.534.172-3.1.031-4.846.031v5.537H8.92V.29Zm3.285 6.937c1.328 0 2.577.1 3.803-.029 1.116-.117 1.757-.86 1.734-2.047-.024-1.11-.623-1.851-1.685-1.958-1.265-.126-2.55-.03-3.852-.03v4.064ZM0 21.286c.214-.086.256-.112.295-.114 2.215-.157 3.694.8 4.436 2.868 1.025 2.838 2.063 5.673 3.192 8.768 1.288-3.56 2.55-6.835 3.638-10.168.397-1.218.968-1.687 2.201-1.52.631.086 1.286.015 2.113.015-.991 2.577-1.922 4.994-2.85 7.414-.888 2.309-1.798 4.609-2.643 6.93-.279.766-.683 1.048-1.515 1.046-2.962-.008-2.962.026-4.016-2.694-1.61-4.16-3.218-8.317-4.85-12.542v-.003Zm61.06-5.799c-2.272.365-2.616.284-3.083-.673-2.53 1.458-4.892 1.366-6.309-.248-1.087-1.239-1.147-3.299-.133-4.584 1.286-1.63 3.78-1.79 6.52-.366.133-.972.334-1.953-.667-2.537-1.771-1.03-3.336-.237-4.898.77l-1.01-1.79c1.918-1.896 5.475-2.449 7.691-1.241 1.104.6 1.844 1.523 1.873 2.79.06 2.598.018 5.198.018 7.879h-.002Zm-5.115-1.633c1.435-.01 2.183-.555 2.196-1.598.013-1.043-.852-1.677-2.274-1.667-1.21.008-2.089.723-2.065 1.685.02.96.879 1.59 2.146 1.58h-.003Zm-14.098-2.86h-7.985c.415 2.605 2.767 3.202 6.037 1.539l1.148 1.64c-1.57 1.901-5.333 2.282-7.782.819-2.379-1.422-3.32-4.585-2.183-7.326C32.14 5.113 35.004 3.68 37.7 4.35c2.837.707 4.472 3.239 4.144 6.647l.002-.002Zm-2.814-2.097c-.456-1.729-1.251-2.368-2.74-2.331-1.406.036-2.202.766-2.478 2.331h5.218ZM26.278 31.856H18.4c.15 2.54 2.66 3.195 5.992 1.55.387.544.78 1.102 1.169 1.65-1.753 1.925-5.641 2.253-7.97.717-2.342-1.541-3.187-4.905-1.893-7.534 1.257-2.556 4.178-3.782 6.937-2.91 2.579.813 4.141 3.53 3.646 6.527h-.003Zm-2.824-2.091c-.238-1.58-1.07-2.319-2.525-2.335-1.51-.015-2.363.726-2.623 2.335h5.148Zm62.472-18.777h-7.865c-.024 2.493 2.72 3.207 5.974 1.549l1.13 1.666c-1.818 1.95-5.657 2.243-8.053.642-2.217-1.482-3.03-4.705-1.847-7.329 1.174-2.605 4.008-3.883 6.825-3.08 2.673.762 4.194 3.29 3.836 6.552ZM83.094 8.9c-.32-1.648-1.2-2.378-2.689-2.336-1.431.041-2.29.84-2.446 2.336h5.135Zm-1.525 22.916h-7.892c.196 2.597 2.67 3.239 6.006 1.593.386.548.78 1.106 1.169 1.653-1.82 1.962-5.743 2.248-8.085.632-2.256-1.555-3.043-4.872-1.773-7.464 1.267-2.585 4.287-3.808 7.065-2.864 2.495.85 4.01 3.58 3.51 6.447v.003Zm-2.843-2.069c-.185-1.525-1.02-2.29-2.475-2.318-1.502-.031-2.35.686-2.67 2.319h5.145Zm-39.868 6.684h-2.884c0-2.123.081-4.19-.042-6.248-.044-.77-.393-1.98-.902-2.16-.803-.287-1.904-.015-2.783.295-.378.133-.701.95-.722 1.468-.078 2.162-.034 4.33-.034 6.705-.85 0-1.617.05-2.37-.029-.227-.023-.595-.404-.598-.623-.039-3.46-.026-6.921-.026-10.437h2.845l.175.65c1.494-.329 2.918-.853 4.363-.908 1.711-.063 2.887 1.062 2.947 2.686.105 2.812.029 5.628.029 8.601h.002Zm18.18-11.04h2.942v11.011h-2.827a157.4 157.4 0 0 1-.196-1.03c-.162.075-.326.125-.456.219-1.247.907-2.608 1.348-4.157 1.072-1.753-.313-2.684-1.163-2.752-2.94-.106-2.722-.028-5.455-.028-8.282h2.92c0 2.115-.023 4.225.008 6.332.03 2.021 1.38 2.887 3.242 2.089.845-.363 1.374-.903 1.33-1.98-.086-2.117-.026-4.24-.026-6.493v.002Zm35.176 1.292-.915 1.525c-1.348-.294-2.566-.665-3.81-.78-.438-.039-.934.543-1.403.84.388.342.722.83 1.176.994.973.35 2.026.47 3.007.8 1.614.546 2.326 1.542 2.334 3.065.008 1.465-.751 2.615-2.261 3.155-2.647.95-5.099.462-7.527-1.23l1.195-1.925c.996.412 1.888.858 2.827 1.145.558.172 1.226.224 1.784.09.42-.1.746-.586 1.11-.899-.31-.36-.555-.91-.943-1.048-1.177-.42-2.434-.613-3.615-1.02-1.207-.415-1.93-1.33-1.972-2.64-.041-1.267.52-2.281 1.615-2.92.513-.3 1.105-.503 1.69-.634 1.935-.44 4.073.113 5.708 1.484v-.002ZM73.54 6.229c-.61.576-1.17 1.11-1.723 1.635-2.357-1.322-3.797-1.288-4.85.091-.953 1.247-.838 3.36.242 4.441 1.173 1.18 2.746 1.114 4.522-.266.571.535 1.158 1.085 1.734 1.628-1.14 1.812-3.539 2.55-6.035 1.904-2.279-.59-3.948-2.603-4.117-4.971-.204-2.84 1.02-5.02 3.374-6.009 2.452-1.027 5.09-.472 6.851 1.544l.003.003ZM42.408 28.005c-.683-.042-1.155-.07-1.745-.104v-2.47c.543-.055 1.08-.112 1.732-.177V22.41h2.929v2.858l2.23.147v2.461c-.707.045-1.38.086-2.189.136 0 1.713-.075 3.398.026 5.072.076 1.229 1.033 1.033 1.863.861.065.073.161.128.172.196.104.688.198 1.382.292 2.073-1.176.11-2.373.407-3.524.274-1.064-.123-1.692-1.051-1.742-2.154-.067-1.56-.036-3.125-.044-4.687-.003-.511 0-1.022 0-1.638v-.005Zm8.069-25.607c-2.069-.021-2.29.193-2.293 2.146-.005 3.171 0 6.345 0 9.516v1.49h-2.97V7.18l-1.79-.169V4.565l1.636-.162c.62-3.896 2.67-5.26 5.904-3.878-.054.308-.091.642-.174.963-.073.289-.196.568-.316.907l.003.003Zm12.457 22.981h2.67l.298.973 3.328-1.513v3.017c-.439.034-.864.042-1.28.102-1.615.235-2.166.868-2.166 2.472v5.962h-2.847v-11.01l-.003-.003ZM29.413 6.985c-.571.052-1.051.05-1.51.146-1.41.295-1.865.874-1.865 2.306v6.084h-2.887V4.55h2.801l.151.963 3.313-1.538v3.012l-.003-.003Z"/>
</svg>
