<svg xmlns="http://www.w3.org/2000/svg" fill="none" viewBox="0 0 114 28">
  <g fill="#fff" clip-path="url(#a)">
    <path d="M61.07 16.558v-7.95c0-.3-.012-.599.055-.897.173-.788.777-1.188 1.582-1.065 1.062.163 1.623.844 1.951 1.8.083.24.04.622.284.684.205.05.37-.289.557-.45.842-.727 1.745-1.378 2.825-1.667 2.805-.752 5.41-.37 7.684 1.547.284.239.517.541.76.827.153.178.258.182.413-.003 1.188-1.42 2.713-2.303 4.53-2.586 2.714-.422 5.166.16 7.126 2.198 1.223 1.271 1.787 2.87 2.102 4.568.26 1.407.304 2.828.296 4.256-.012 2.237 0 4.475.006 6.712 0 .415-.038.823-.164 1.22-.383 1.203-1.503 1.888-2.82 1.719-1.129-.144-2.133-1.24-2.153-2.402-.024-1.5-.006-3-.015-4.5-.009-1.571-.047-3.145-.04-4.717.005-1.006-.404-1.864-.852-2.722-.253-.485-.511-.953-1.065-1.15-1.652-.586-3.476-.341-4.564 1.422-.6.972-.79 2.041-.794 3.156-.01 2.75 0 5.5-.023 8.249-.012 1.388-.805 2.363-2.065 2.632-1.537.33-3.015-.822-3.06-2.391-.013-.462-.003-.925-.007-1.387-.015-1.8-.032-3.598-.048-5.397-.01-.948.121-1.894-.008-2.845-.138-1.014-.579-1.912-1.084-2.774-.258-.439-.742-.677-1.235-.803-1.908-.486-3.787.287-4.528 2.325a7.539 7.539 0 0 0-.442 2.609c-.003 2.674-.041 5.349-.041 8.022 0 .963-.34 1.731-1.137 2.274-.849.578-1.759.557-2.643.131-.904-.434-1.344-1.22-1.364-2.208-.028-1.236-.01-2.474-.011-3.712v-4.725h-.008Zm-38.973-6.7c1.027-1.3 2.198-2.249 3.667-2.804 1.076-.406 2.185-.457 3.325-.408 1.673.074 3.156.634 4.51 1.574 2.014 1.4 3.205 3.36 3.837 5.693.296 1.095.395 2.209.383 3.34a307.008 307.008 0 0 0 0 5.513c.006.723.033 1.445-.003 2.17-.09 1.78-1.623 2.922-3.344 2.458-1.066-.287-1.79-1.364-1.796-2.706-.01-2.488-.012-4.974-.016-7.462-.003-1.267-.293-2.452-1.027-3.505a4.907 4.907 0 0 0-7.095-1.046c-1.617 1.273-2.451 2.926-2.447 4.994.005 2.201 0 4.4-.006 6.601-.001.784-.086 1.545-.563 2.214-.568.799-1.63 1.186-2.671.948-.993-.227-1.751-1.02-1.895-2a5.177 5.177 0 0 1-.058-.745L16.89 3.123c0-.677.106-1.328.522-1.88.634-.838 1.843-1.197 2.833-.868 1.134.378 1.819 1.316 1.829 2.562.017 2.15.017 4.3.023 6.45v.47h.001Zm82.918 8.77h-6.614c-.439 0-.439.001-.344.44.791 3.674 5.188 5.354 8.24 3.149 1.097-.791 2.345-.808 3.382-.045a2.017 2.017 0 0 1 .532 2.617c-.396.672-1.002 1.112-1.668 1.471-1.482.799-3.067 1.184-4.752 1.232-1.861.053-3.666-.176-5.313-1.074-3.765-2.052-5.835-5.184-5.806-9.526.039-5.69 4.67-10.205 10.373-10.241 2.374-.015 4.537.577 6.459 1.961 2.234 1.61 3.547 3.81 3.946 6.523.109.747.046 1.522.028 2.283-.009.414-.234.73-.614.922-.4.203-.827.288-1.271.288-2.191.003-4.384 0-6.576 0h-.002Zm-1.833-3.262h4.694c.543 0 .563-.015.453-.544-.254-1.22-.958-2.165-1.898-2.932-1.055-.86-2.299-1.086-3.634-1.002-2.209.14-4.296 1.864-4.802 4.009-.102.433-.075.47.38.47h4.808-.001Zm-43.42 1.748c.042 6.043-5.158 10.357-10.312 10.4-5.687.049-10.618-4.658-10.61-10.484.007-5.629 4.721-10.397 10.33-10.337 5.709.06 10.625 4.313 10.592 10.421Zm-5.155-.286c-.063-1.505-.677-3.008-2.103-4.112-2.401-1.86-5.318-1.271-7.05.624-1.546 1.69-1.786 3.687-1.023 5.805.877 2.437 3.593 3.88 6.081 3.264 2.381-.588 4.098-2.82 4.095-5.58ZM5.708 20.637c0 1.288.01 2.574-.004 3.862-.008.732-.117 1.44-.59 2.05-.624.806-1.8 1.158-2.85.83A2.435 2.435 0 0 1 .56 25.1c-.002-.063-.002-.125-.002-.188L.511 8.38c-.003-.984.271-1.497.89-1.68.81-.243 1.818.127 2.28.837.341.524.49 1.118.634 1.714.03.115.006.287.137.33.136.041.205-.118.29-.201C6.23 7.947 7.97 7.011 10.04 6.797c1.566-.161 3.08.036 4.402.996.73.53 1 1.293.843 2.148-.156.857-.7 1.448-1.554 1.719a2.938 2.938 0 0 1-.923.143c-.75-.01-1.503-.005-2.253-.02-2.412-.05-4.036 1.495-4.638 3.627a5.716 5.716 0 0 0-.21 1.628c.014 1.198.005 2.399.005 3.598h-.006l.003.001Z"/>
  </g>
  <defs>
    <clipPath id="a">
      <path fill="#fff" d="M.511.234h113v27.302h-113z"/>
    </clipPath>
  </defs>
</svg>