<svg xmlns="http://www.w3.org/2000/svg" fill="none" viewBox="0 0 104 46">
  <mask id="a" width="104" height="46" x="0" y="0" maskUnits="userSpaceOnUse" style="mask-type:luminance">
    <path fill="#fff" d="M103.411.236H.044v45.205h103.367V.236Z"/>
  </mask>
  <g fill="#fff" mask="url(#a)">
    <path d="M37.906 17.541c-2.073 0-3.31 1.235-3.31 3.392s1.234 3.39 3.31 3.39 3.329-1.235 3.329-3.39c0-2.155-1.263-3.392-3.329-3.392Zm33.51 0c-2.072 0-3.311 1.235-3.311 3.392s1.235 3.39 3.311 3.39c2.076 0 3.329-1.235 3.329-3.39 0-2.155-1.256-3.392-3.329-3.392Z"/>
    <path d="M73.437.22H20.7a20.676 20.676 0 1 0 0 41.352h52.736a20.676 20.676 0 0 0 0-41.353ZM24.544 28.26H19.06v-4.334l-6.28-10.321h6.01l2.97 5.255h.19l2.993-5.255h5.883l-6.281 10.32v4.334Zm13.363.543c-5.318 0-8.667-2.973-8.667-7.87 0-4.898 3.34-7.872 8.667-7.872 5.326 0 8.666 2.973 8.666 7.872s-3.356 7.87-8.666 7.87Zm23.922-9.274h-.043c-1.716-1.151-3.202-1.821-5.039-1.821-2.218 0-3.81 1.152-3.81 3.225 0 2.135 1.633 3.202 3.789 3.202 1.906 0 3.433-.648 5.066-1.842h.043v5.01c-1.152.67-3.183 1.382-5.759 1.382-5.338 0-8.625-2.806-8.625-7.703 0-4.898 3.496-7.789 8.667-7.789 2.532 0 4.312.608 5.715 1.404l-.004 4.932Zm9.587 9.274c-5.317 0-8.667-2.973-8.667-7.87 0-4.898 3.35-7.872 8.667-7.872 5.316 0 8.672 2.973 8.672 7.872s-3.354 7.87-8.672 7.87Zm24.718-12.332c0-1.99 1.427-3.367 3.631-3.367 2.229 0 3.655 1.378 3.655 3.367 0 1.99-1.439 3.382-3.655 3.382-2.216 0-3.63-1.378-3.63-3.382Zm6.335 0c0-1.576-1.051-2.54-2.704-2.54-1.653 0-2.692.964-2.692 2.54 0 1.577 1.052 2.556 2.692 2.556 1.64 0 2.704-.965 2.704-2.556Zm-4.106-1.564h1.677c.965 0 1.378.413 1.378 1.14a.986.986 0 0 1-.688.976l.788.951v.038h-.876l-.701-.864h-.802v.864h-.776v-3.105Zm1.64 1.59c.431 0 .626-.125.626-.463s-.187-.464-.614-.464h-.876v.927h.864Z"/>
  </g>
</svg>