<svg xmlns="http://www.w3.org/2000/svg" width="189" height="21" fill="currentColor" viewBox="0 0 189 21">
  <g class="01A_Logo">
    <g class="Group">
      <path fill="#fff" d="M24.303 9.818c-.012 2.094-.184 3.816-.876 5.443-1.148 2.693-3.082 3.923-6.051 3.875-2.57-.04-4.618-1.425-5.51-4.058-1.234-3.638-1.254-7.315.473-10.83.944-1.92 2.624-2.871 4.778-3.014 4.268-.283 6.255 2.44 6.902 5.787.2 1.037.323 2.084.284 2.797Zm-10.082.314c-.024 1.302.06 2.59.52 3.827.555 1.502 1.503 2.237 2.903 2.244 1.473.007 2.476-.676 2.974-2.226.82-2.559.818-5.15-.04-7.7-.5-1.481-1.542-2.19-2.952-2.181-1.33.006-2.333.782-2.874 2.212-.468 1.235-.553 2.52-.53 3.823v.001Zm114.265-.039c-.044-4.306 2.501-7.685 6.572-8.63 3.891-.905 7.763.566 9.665 3.735 2.283 3.805 1.605 9.704-2.131 12.27-2.937 2.018-6.138 2.217-9.342.753-3.124-1.429-4.525-4.083-4.719-7.44-.012-.197-.027-.394-.047-.688h.002Zm8.762-7.356c-3.469.001-6.054 2.008-6.845 5.336a8.979 8.979 0 0 0-.074 3.796c.484 2.513 1.821 4.393 4.274 5.266 2.62.933 5.149.663 7.315-1.182 2.107-1.794 2.657-4.218 2.358-6.868-.441-3.913-3.16-6.35-7.029-6.348h.001Zm-69.416 7.448c0-2.55-.002-5.101 0-7.652 0-.964.023-.994 1.007-.983 2.326.026 4.666-.161 6.963.355 3.552.799 5.92 3.172 6.416 6.599.721 4.97-1.928 9.327-7.666 10.113-2.035.279-4.084.078-6.126.14-.609.019-.594-.378-.594-.79v-7.783.001Zm1.63-.037c0 2.134-.002 4.268.002 6.402 0 .296-.078.672.407.665 1.93-.028 3.876.192 5.768-.382 3.658-1.112 5.071-3.762 5.045-6.956-.028-3.424-2.035-5.77-5.345-6.517-1.694-.383-3.419-.165-5.129-.235-.572-.024-.768.17-.76.754.028 2.09.011 4.18.011 6.27Zm88.8.185c1.754.93 2.059 2.702 2.687 4.274.472 1.183.894 2.387 1.361 3.573.18.453.052.575-.411.582-1.086.018-1.089.036-1.469-.965-.585-1.541-1.167-3.084-1.748-4.626-.623-1.65-1.463-2.236-3.236-2.246-.44-.003-.881.023-1.32-.006-.55-.037-.729.202-.723.737.019 2.046.009 4.09.006 6.136 0 .91-.461 1.227-1.34.941-.171-.055-.263-.149-.274-.323a10.3 10.3 0 0 1-.017-.527V2.445c0-.88.012-.905.873-.894 1.58.018 3.171-.133 4.736.184 2.189.443 3.391 1.693 3.68 3.754.275 1.96-.645 3.67-2.507 4.66-.074.04-.142.089-.296.185l-.002-.001Zm-4.851-4.12c0 .88.004 1.76-.003 2.64-.003.359.095.6.515.593.902-.015 1.809.04 2.705-.037 1.702-.148 2.744-1.342 2.802-3.106.053-1.614-.993-2.848-2.62-3.142-.921-.167-1.844-.075-2.764-.122-.503-.025-.655.196-.643.665.021.836.006 1.671.006 2.509h.002ZM5.45.05c.42 0 .837-.006 1.255.005.126.003.307.01.362.088.116.161-.066.274-.162.38a15.64 15.64 0 0 0-1.813 2.43c-3.49 5.739-2.425 11.792 1.572 16.573.17.205.552.371.402.677-.122.246-.482.109-.737.118-.417.016-.844-.046-1.252.014-.975.144-1.58-.294-2.149-1.05-3.9-5.181-3.897-13.116-.037-18.222C3.602.123 4.405-.101 5.451.05Zm183.549 10.344c-.05 3.209-1.024 6.361-3.157 9.134-.434.566-.909.898-1.666.81-.586-.068-1.187-.01-1.782-.017-.169-.003-.389.06-.483-.12-.119-.228.111-.354.235-.492a14.925 14.925 0 0 0 3.423-6.324c1.202-4.64-.185-8.669-3.033-12.327-.223-.286-.725-.557-.587-.871.142-.317.675-.102 1.036-.132.284-.024.579.038.857-.012 1.12-.208 1.792.36 2.383 1.224 1.836 2.677 2.746 5.627 2.775 9.128l-.001-.001ZM61.93 18.756c-.53.133-.814-.173-1.019-.736-.532-1.467-1.136-2.908-1.672-4.374-.185-.503-.43-.726-.998-.715-1.98.035-3.96.025-5.94.005-.439-.004-.669.13-.827.556-.582 1.566-1.206 3.116-1.818 4.672-.203.512-1.127.83-1.592.548-.28-.17-.095-.403-.028-.582.403-1.07.826-2.133 1.243-3.197 1.676-4.28 3.361-8.554 5.017-12.84.206-.533.47-.745 1.054-.744.577 0 .852.2 1.06.735 2.057 5.287 4.14 10.564 6.213 15.844.31.79.282.825-.694.826v.002ZM55.315 3.538c-.982 2.528-1.92 4.96-2.87 7.388-.147.374-.058.525.349.524 1.69-.006 3.379-.005 5.07 0 .336 0 .501-.07.35-.458-.96-2.448-1.909-4.902-2.9-7.455v.001Zm-20.59 6.395c0 2.66-.02 5.32.015 7.979.009.676-.213.91-.872.852a10.015 10.015 0 0 0-1.516-.003c-.512.032-.718-.173-.71-.683.018-.857.004-1.714.004-2.57V5.55c0-.81-.019-.818-.82-.698-.522.078-1.05.122-1.565.218-.424.08-.563-.092-.558-.484.008-.704.008-1.407 0-2.11-.004-.347.146-.522.494-.568 1.631-.22 3.263-.436 4.89-.682.517-.078.647.111.645.597-.016 2.703-.008 5.408-.007 8.111v-.001Zm83.288 9.217a8.447 8.447 0 0 1-4.166-1.082c-.541-.299-.882-1.34-.594-1.877.184-.343.384-.06.532.041.995.681 2.063 1.178 3.266 1.334.832.107 1.666.125 2.478-.16 1.187-.416 1.92-1.232 2.085-2.481.154-1.164-.172-2.171-1.131-2.927-.825-.65-1.781-1.04-2.744-1.415-1.007-.394-1.994-.832-2.809-1.563-1.46-1.31-1.747-2.963-1.219-4.76.529-1.797 1.885-2.696 3.666-2.996 1.734-.291 3.365.06 4.904.885.444.238.774 1.51.502 1.93-.165.253-.308.03-.426-.063-1.038-.81-2.206-1.255-3.527-1.303-.802-.029-1.575.056-2.295.442-1.659.893-1.965 3.28-.579 4.56.692.638 1.544 1.003 2.404 1.346.798.318 1.59.643 2.339 1.066 2.126 1.2 3.005 3.209 2.419 5.513-.535 2.1-2.361 3.46-4.709 3.51-.132.002-.264 0-.396 0Zm53.951-.003a8.471 8.471 0 0 1-4.224-1.114c-.432-.245-.756-1.506-.469-1.878.222-.286.391.03.539.13 1.374.922 2.864 1.413 4.536 1.34 1.519-.067 2.838-.988 3.163-2.254.397-1.55-.152-2.856-1.553-3.732-.828-.518-1.74-.842-2.635-1.21-.736-.3-1.445-.65-2.083-1.129-2.069-1.55-2.407-4.668-.684-6.605 1.023-1.15 2.405-1.511 3.875-1.53a7.615 7.615 0 0 1 3.737.933c.556.298.896 1.377.613 1.941-.162.325-.337.071-.466-.028-.53-.403-1.091-.747-1.721-.961-1.24-.421-2.497-.518-3.745-.053-1.893.705-2.423 3.192-1.001 4.627.667.674 1.512 1.049 2.37 1.399.897.364 1.799.71 2.632 1.216 2.022 1.231 2.813 3.162 2.223 5.486-.497 1.953-2.308 3.33-4.513 3.423-.198.008-.396 0-.594 0v-.001ZM93.56 16.556l1.915-4.838c1.253-3.17 2.505-6.34 3.76-9.508.24-.606.971-.886 1.554-.613.359.168.15.415.074.613-.555 1.413-1.124 2.82-1.687 4.229-1.542 3.86-3.093 7.716-4.617 11.582-.203.517-.453.764-1.048.756-.577-.008-.848-.209-1.06-.741-2.078-5.23-4.185-10.453-6.281-15.677-.303-.753-.258-.768.562-.824.653-.043.975.192 1.214.81 1.742 4.49 3.52 8.965 5.288 13.445.085.216.18.428.326.767v-.001Zm12.398-6.493c0-2.572.016-5.145-.012-7.717-.006-.605.189-.819.79-.812.577.006.886.123.882.804-.021 5.211-.021 10.422 0 15.633.003.671-.277.8-.869.8-.593 0-.808-.176-.803-.792.028-2.638.012-5.277.012-7.915Zm-66.097 8.691c-1.584-.026-1.478.251-1.476-1.472.001-1.803-.116-1.512 1.492-1.51 1.672 0 1.541-.3 1.544 1.526.002 1.725.108 1.426-1.56 1.456Z" class="Vector"/>
    </g>
  </g>
</svg>
